/* XPM */
static char *_1726169993[] = {
/* columns rows colors chars-per-pixel */
"51 64 161 2 ",
"   c None",
".  c #2F3A5A",
"X  c #313C5C",
"o  c #3A3C5B",
"O  c #443B59",
"+  c #493C5A",
"@  c #543B59",
"#  c #6B3C57",
"$  c #643C58",
"%  c #6C3D58",
"&  c #7C3D57",
"*  c #703D58",
"=  c #37405F",
"-  c #2F4C6D",
";  c #3B4563",
":  c #3D4866",
">  c #334A6C",
",  c #344769",
"<  c #2F4F70",
"1  c #344E72",
"2  c #2D5173",
"3  c #39577B",
"4  c #315A7A",
"5  c #3A587C",
"6  c #31607F",
"7  c #4F4B56",
"8  c #554F57",
"9  c #565059",
"0  c #7E685A",
"q  c #4D4462",
"w  c #444A64",
"e  c #444D6A",
"r  c #46516E",
"t  c #49536F",
"y  c #51566B",
"u  c #4B5672",
"i  c #4F5975",
"p  c #525D77",
"a  c #535E78",
"s  c #694560",
"d  c #714A64",
"f  c #6B506A",
"g  c #73536C",
"h  c #6A5F78",
"j  c #57617B",
"k  c #5B647D",
"l  c #6B6163",
"z  c #656877",
"x  c #6A617A",
"c  c #696C7A",
"v  c #8E3F57",
"b  c #8B3F58",
"n  c #943C55",
"m  c #9A3E56",
"M  c #A33F56",
"N  c #AF3F55",
"B  c #B23E54",
"V  c #D33F52",
"C  c #846B59",
"Z  c #896F5A",
"A  c #8D7159",
"S  c #C34055",
"D  c #CC4054",
"F  c #D44154",
"G  c #D94154",
"H  c #E44153",
"J  c #EA4153",
"K  c #F24253",
"L  c #AC8258",
"P  c #B0855A",
"I  c #B6895A",
"U  c #BD8D5A",
"Y  c #C08F5A",
"T  c #395F85",
"R  c #316686",
"E  c #3A6086",
"W  c #316D8E",
"Q  c #2F7495",
"!  c #3E779C",
"~  c #337B9B",
"^  c #5C6680",
"/  c #5F6982",
"(  c #43769E",
")  c #606780",
"_  c #636C84",
"`  c #6A6F87",
"'  c #65728A",
"]  c #6A738B",
"[  c #6E788E",
"{  c #657087",
"}  c #71788F",
"|  c #667990",
" . c #747D93",
".. c #797F94",
"X. c #4479A2",
"o. c #3384A5",
"O. c #3787A8",
"+. c #378BAC",
"@. c #379BBD",
"#. c #399ABE",
"$. c #3895B9",
"%. c #778196",
"&. c #798296",
"*. c #7C859A",
"=. c #7F899E",
"-. c #4187AE",
";. c #4A8BB7",
":. c #4986B2",
">. c #4BBCE6",
",. c #4EBDE9",
"<. c #52BEEB",
"1. c #59BCED",
"2. c #5DBDF1",
"3. c #52C0EE",
"4. c #5BC2F4",
"5. c #5FC4F8",
"6. c #60C5FA",
"7. c #82879B",
"8. c #828A9E",
"9. c #828CA0",
"0. c #898FA2",
"q. c #8691A4",
"w. c #8B95A6",
"e. c #8D98A7",
"r. c #8D97A9",
"t. c #8D99A8",
"y. c #939CAD",
"u. c #989FAF",
"i. c #9197A9",
"p. c #969FB0",
"a. c #95A1AF",
"s. c #96A1B1",
"d. c #9BA4B5",
"f. c #9FAAB7",
"g. c #9EA8B8",
"h. c #A2ACBA",
"j. c #A4ABB9",
"k. c #A6B0BE",
"l. c #ADB1BF",
"z. c #ADB6C3",
"x. c #AEB8C5",
"c. c #B0B6C3",
"v. c #B5B9C6",
"b. c #B4BDCA",
"n. c #B6C1CE",
"m. c #BAC3CE",
"M. c #BCC8CF",
"N. c #BCC6D1",
"B. c #BFCAD3",
"V. c #C3CDD5",
"C. c #C5CED8",
"Z. c #C4CBD6",
"A. c #C5D1D6",
"S. c #C6D2D8",
"D. c #CAD4DB",
"F. c #CED7E0",
"G. c #CFD9E1",
"H. c #D3DCE4",
"J. c #D7E0E7",
"K. c #D8E0E7",
"L. c #DAE3EA",
/* pixels */
"          . X . X . X . X . X X . X . X X . X . X . X . . . . . . X X X . X . X . . . . . .           ",
"          i s.d.d.d.g.f.d.d.d.d.g.f.d.d.d.d.g.f.d.d.d.d.f.f.f.d.d.d.d.f.d.d.d.d.f.f.f.a.e.i           ",
"          { J.L.L.L.L.L.L.L.L.L.L.L.L.L.L.L.L.L.L.L.L.L.L.L.L.L.L.L.L.L.L.L.L.L.L.L.L.J.B.'           ",
"          / G.L.L.L.L.L.L.L.L.L.L.L.L.L.L.L.L.L.L.L.L.L.L.L.L.L.L.L.L.L.L.L.L.L.L.L.J.H.B.'           ",
"          _ G.L.L.L.J.J.L.J.J.L.L.K.K.J.L.H.L.H.L.L.J.L.J.J.L.J.L.J.L.J.L.L.L.J.J.L.J.G.B.`           ",
"          k B.A.A.A.S.A.D.D.D.A.A.A.D.A.D.D.D.C.D.D.A.A.A.D.A.A.S.S.A.A.D.D.A.S.A.A.A.A.B.'           ",
"          j n.M.M.M.M.M.M.M.M.M.m.M.M.M.N.N.N.N.M.M.M.M.M.M.M.M.M.M.M.M.M.M.M.M.M.M.M.M.m._           ",
"          ; p j a a j p p i j i a a a a a a p p a i a a j i j i a i j p p a p p j p p p p ;           ",
"          $ n n v v @ [ q.w.q.0.i ..0.r.0.9.u 7.r.0.0.*.u 9.q.q.q. .i q.q.q.q.] a 0.0.0.q.`           ",
"        o V K K K J d B.L.L.L.H.] Z.L.L.L.F.] D.L.L.L.F.] H.L.L.L.A.] H.L.L.L.B.} H.L.L.L.v.;         ",
"        $ H K K K F x G.L.L.L.C.] F.L.L.L.D.] F.L.L.L.F.] D.L.L.L.D.] A.L.L.L.F.' Z.L.L.L.F.k         ",
"        n K K K K B &.L.L.L.L.b...H.L.L.L.Z.] H.L.L.H.H.] Z.L.K.L.H. .b.L.L.L.L.&.j.L.L.L.L.0.        ",
"      O S K K K K b d.L.L.K.L.h.9.H.L.H.L.Z.} H.K.K.L.H.} Z.K.L.L.L.*.j.L.L.L.L.p.9.L.L.L.L.b.w       ",
"      $ J K K K J d N.L.L.L.L.t.y.L.L.L.L.b.} H.L.L.L.H. .b.L.L.L.L.r.i.L.L.L.L.b.] H.L.L.L.H.)       ",
"      m K K K K F x F.L.L.L.L.=.z.H.L.L.L.b. .K.L.L.L.H. .b.L.L.L.L.j.=.L.L.L.L.F.` Z.L.L.L.L.i.      ",
"    O D K K K K B %.L.L.L.L.H.} b.L.L.L.L.x...L.K.L.L.L...b.L.L.L.L.b. .L.L.L.L.L.&.j.L.H.L.L.N.e     ",
"    % J K K K K b d.L.L.L.L.F.` C.L.L.L.L.z.*.H.L.L.K.L...z.L.L.L.L.C.] G.L.L.L.L.s.8.L.L.L.L.H.{     ",
"  X M K K K J J d n.L.L.L.L.Z.] H.H.L.L.L.j.0.L.L.K.L.L...z.L.L.H.L.F.] Z.L.L.L.L.b.] H.L.L.L.L.i.X   ",
"  + F K K K K V h H.L.H.L.L.b. .H.L.L.L.L.d.q.L.L.L.L.L.q.p.L.L.L.L.H. .b.L.L.H.L.H.` Z.L.L.H.L.m.r   ",
"  * J K K K K B ..L.L.L.L.L.d.9.L.L.L.L.L.p.i.L.L.L.L.L.r.p.L.L.L.L.L.9.g.L.L.L.L.L...k.L.L.L.L.H.]   ",
"X M K K K K K v d.L.H.L.L.L.q.u.L.L.L.H.L.i.i.L.K.K.K.L.y.i.L.K.L.H.L.u.q.L.L.L.H.L.u.8.L.L.L.L.L.d.X ",
"X $ * * * * * + a ' [ ' ] ] u a ] ] ] | [ i a ] | | ] ] i i ] | ] ] ] a u ] ] ' ] [ j r ] ' ' ' ] k X ",
"+ & & & & & & q |  ... . . .u {  . .%...%.a ^ .. .......^ ^ ..........{ i  ... . . .[ t [  . . ...} r ",
"# J K K K K H g F.L.L.L.L.L...b.L.L.L.L.L.q.g.L.L.L.L.L.p.9.L.L.L.L.L.b.%.L.L.L.L.L.C.[ H.L.L.L.L.H._ ",
"$ J K J K K J g C.L.L.L.L.L.%.b.L.L.L.L.L.w.g.L.L.H.L.L.j.0.L.L.L.L.L.b.*.L.L.L.L.L.A.] H.L.L.L.K.H._ ",
"$ H K K K K H f C.L.L.L.L.H. .z.L.L.L.L.L.0.p.L.L.L.L.L.u.9.L.L.L.L.L.z.} H.L.L.L.L.V.{ F.L.L.L.L.G.k ",
"@ G K K K K G q n.L.L.L.L.H.a d.L.L.L.L.H.] 9.L.L.L.L.L.9.] H.L.L.L.L.d.^ G.L.L.L.L.b.i Z.L.L.L.L.Z.t ",
"X B K K K K B ; r.L.H.L.L.b.e  .L.L.L.L.C.u _ G.L.L.L.H.) i D.L.L.H.L...: b.L.L.L.L.w.; g.L.L.L.L.j.= ",
"  # J K K J s q./ B.L.L.H.} =./ z.L.L.H.0...] d.L.L.L.p.] ..9.H.L.L.z./ =.} H.L.L.B.^ *.) D.L.L.F.z   ",
"  X * B S #  .H.9.j z.b. ./ G.d.p d.v.0.p Z.z.p p.N.r.u x.B.p *.v.d.p d.F./  .b.z.k =.B.` ` c.z.` X   ",
"    . o X ' D.L.G.*.r e _ B.L.H.i.u e a c.L.L.j.i r i z.L.L.x.^ e u r.H.L.N./ r r *.D.D.h.o o = .     ",
"        X j.L.L.L.L.B.n.G.L.L.L.H.C.b.G.L.H.L.L.D.b.D.H.L.L.L.F.b.C.L.L.L.L.G.N.B.L.L.D.f.:           ",
"        = f.L.L.J.L.L.L.L.L.L.L.L.L.L.L.L.L.L.L.L.L.L.L.K.L.L.L.L.L.L.L.L.L.L.L.L.L.J.S.h.:           ",
"        X z.L.L.L.L.L.L.L.L.L.L.L.L.L.J.L.J.L.J.L.L.L.L.L.L.L.L.L.L.L.L.L.L.L.L.L.L.J.S.h.:           ",
"        X g.L.L.L.L.L.L.L.L.L.L.L.L.L.L.J.L.L.L.L.H.L.K.L.L.L.L.L.L.L.L.L.L.H.L.J.L.L.D.h.:           ",
"        , g.L.L.L.J.J.L.L.L.L.L.J.L.L.J.L.L.L.J.L.L.L.L.K.L.L.L.L.L.L.H.L.L.L.L.L.L.J.S.h.:           ",
"        = g.L.L.L.L.L.L.L.L.L.L.L.L.L.L.L.L.L.L.L.L.L.L.L.L.L.L.L.L.L.L.L.L.L.L.L.K.K.D.k.:           ",
"        = g.L.L.L.H.g.=.=.=.9.=.=.q.=.=.w.D.L.L.L.N.0.9.8.8.8.8.0.9.9.9.9.8.8.9.k.L.L.A.h.:           ",
"        X j.L.L.L.G.^ 7 9 9 9 9 9 9 9 9 w M.L.L.L.y.< T T T E E < > T T T T T 1 ' J.L.A.h.;           ",
"        , g.L.L.L.G.c L U U U U U I U U g N.L.L.L.y.;.6.6.4.4.3.O.X.5.2.5.5.2.#.| J.L.A.k.:           ",
"        X j.L.L.L.G.c L U U U U U U U U l n.L.L.L.a.;.6.5.5.5.4.+.X.6.6.5.5.4.#.| H.L.S.h.;           ",
"        = h.L.L.L.G.c L U U U U U U U U l n.L.L.L.u.;.6.5.5.4.4.+.X.5.6.5.5.4.#.| L.L.S.k.:           ",
"        ; h.L.L.L.G.c L U U U U U U U I l n.L.L.L.a.;.6.5.5.5.4.+.X.5.5.5.5.4.#.| L.L.S.k.;           ",
"        X h.L.L.L.H.c L U U U U U U U U l n.L.L.L.y.;.6.5.5.5.4.+.X.5.5.5.5.4.#.| H.L.S.h.:           ",
"        X g.L.L.L.G.c L U U U U U U U U l n.L.L.L.u.;.6.6.6.6.4.+.X.5.6.6.6.5.#.| H.L.S.h.:           ",
"        = g.L.L.L.G.c L U U U U U U U I l n.L.L.L.u.-.,.>.,.>.>.+.! ,.,.,.,.>.$.| L.K.D.h.:           ",
"        ; g.L.L.L.G.c L U U U U U U U U l n.L.L.L.a.6 ~ ~ ~ ~ ~ R 4 ~ ~ ~ ~ ~ W ' L.L.D.h.:           ",
"        . z.L.L.L.G.c P U U U U U U U I l N.L.L.L.u.> 3 3 3 5 1 > , 3 3 3 3 3 - ' H.H.D.h.:           ",
"        X g.L.L.L.G.c L U U U U U U U U l n.L.L.L.a.-.4.2.2.2.1.O.( 2.1.1.4.4.$.| J.L.S.k.:           ",
"        ; g.L.L.L.H.c L U U U U U U I I l n.L.L.L.a.;.6.4.6.6.4.+.( 6.5.6.6.4.#.| L.L.S.h.:           ",
"        X g.L.L.L.G.c L U U U U U U A A l n.L.L.L.y.;.6.6.6.6.4.+.( 5.5.6.4.4.#.| J.L.S.h.:           ",
"        ; z.L.L.L.G.c L U U U U U U 0 C l M.L.L.L.a.;.6.6.4.5.3.-.( 6.5.6.6.4.#.| J.L.S.h.:           ",
"        = g.L.L.L.F.c L U Y U U U U 0 0 l M.L.L.L.a.;.6.6.6.6.4.+.( 6.6.6.6.4.#.| J.J.S.h.:           ",
"        = h.L.L.L.H.c L U Y U U U U C A l M.L.L.L.a.;.6.6.6.6.4.+.-.6.6.4.4.4.@.| J.J.S.h.:           ",
"        = g.L.L.L.F.c L U U U U U U P P l n.L.L.L.u.-.3.,.,.<.,.O.( 3.<.3.3.3.@.| J.L.S.h.:           ",
"        X g.L.L.L.G._ L Y U U U U U U U l n.L.L.L.a.R o.o.o.o.o.W 4 o.o.o.o.o.Q ' J.L.S.k.:           ",
"        = f.L.L.L.F.c L U U U U U U U U l b.L.L.L.k.u u u u u u y t i u u u u u =.L.J.S.h.:           ",
"        = k.L.L.L.H.c L U U U U U U U U l M.L.L.L.J.S.F.S.D.D.D.D.D.D.D.D.D.F.D.G.L.L.A.h.:           ",
"        = f.L.L.L.F.c L U U U U U U U U l M.J.J.L.L.L.L.L.L.L.L.L.L.L.L.L.L.J.L.L.L.L.S.h.:           ",
"        ; f.L.J.L.F.c L U U U U U U U U l x.L.J.J.J.J.L.L.L.L.L.J.J.L.J.J.L.J.J.J.L.L.S.h.:           ",
"        = a.D.A.D.V.z L U U U U U U U U l x.D.D.B.F.B.G.D.D.S.S.S.S.S.S.S.S.S.S.S.S.S.A.k.:           ",
"        . a.A.A.A.M.z L Y Y Y Y U U U U l x.B.B.B.S.B.B.B.B.B.S.B.S.B.B.B.S.S.B.B.B.A.A.k.:           ",
"        = [ t.w.w.q.y 0 Z Z Z Z 0 0 0 0 w *.=.t.t.=.t.t.t.e.e.e.t.t.w.w.w.w.t.t.w.w.w.w.&.=           ",
"          . X X . . . . X X X X = = = . = = . = = = = = . . . . . , . = . = . . . . = = . =           "
};
