/* XPM */
static char *_11726169991[] = {
/* columns rows colors chars-per-pixel */
"51 64 176 2 ",
"   c None",
".  c #2F3A5A",
"X  c #313C5C",
"o  c #3A3C5B",
"O  c #453B59",
"+  c #4B3C5A",
"@  c #533C59",
"#  c #5A3C59",
"$  c #6C3C57",
"%  c #643C58",
"&  c #6B3D58",
"*  c #753D57",
"=  c #7D3D57",
"-  c #723D59",
";  c #7C3F59",
":  c #37405F",
">  c #2F4C6D",
",  c #3B4563",
"<  c #3D4866",
"1  c #334A6C",
"2  c #344769",
"3  c #2F4F70",
"4  c #2D5173",
"5  c #39577B",
"6  c #315A7A",
"7  c #3A587C",
"8  c #344E72",
"9  c #31607F",
"0  c #56465C",
"q  c #565059",
"w  c #4F4B56",
"e  c #66435F",
"r  c #7B425C",
"t  c #75405B",
"y  c #7E685A",
"u  c #454563",
"i  c #444965",
"p  c #444E6B",
"a  c #524764",
"s  c #4A526E",
"d  c #47516E",
"f  c #4A5672",
"g  c #4F5974",
"h  c #545571",
"j  c #525D77",
"k  c #525F79",
"l  c #51566B",
"z  c #68526C",
"x  c #70506A",
"c  c #665D77",
"v  c #714761",
"b  c #57617B",
"n  c #5B647D",
"m  c #6B6163",
"M  c #656877",
"N  c #696C7A",
"B  c #6F647C",
"V  c #843D57",
"C  c #8E3C56",
"Z  c #8D3F58",
"A  c #843F59",
"S  c #933C55",
"D  c #9D3E57",
"F  c #923F58",
"G  c #A43F56",
"H  c #AC3F55",
"J  c #B33F55",
"K  c #C33E54",
"L  c #C83D52",
"P  c #D93F52",
"I  c #E63F52",
"U  c #84405A",
"Y  c #8C4059",
"T  c #9C4158",
"R  c #984058",
"E  c #A54158",
"W  c #AA4158",
"Q  c #A84057",
"!  c #BB4056",
"~  c #B54259",
"^  c #846B59",
"/  c #896F5A",
"(  c #8D7159",
")  c #C44155",
"_  c #CB4155",
"`  c #C84559",
"'  c #D34155",
"]  c #DA4054",
"[  c #E44154",
"{  c #EB4153",
"}  c #F24153",
"|  c #AC8258",
" . c #BD8D5A",
".. c #B3875A",
"X. c #C08F5A",
"o. c #395F85",
"O. c #3A6086",
"+. c #31698A",
"@. c #337B9B",
"#. c #3E779C",
"$. c #2F7495",
"%. c #5E6982",
"&. c #43769E",
"*. c #606780",
"=. c #636D85",
"-. c #696E86",
";. c #65728A",
":. c #6A738A",
">. c #6D788E",
",. c #657087",
"<. c #75758C",
"1. c #667990",
"2. c #737D93",
"3. c #4479A2",
"4. c #3384A5",
"5. c #378BAC",
"6. c #3787A8",
"7. c #399ABE",
"8. c #3799BC",
"9. c #788296",
"0. c #7C869A",
"q. c #7E899D",
"w. c #778095",
"e. c #4187AE",
"r. c #4A8BB7",
"t. c #4986B2",
"y. c #4EBDE9",
"u. c #4BBCE6",
"i. c #52BEEB",
"p. c #59BCED",
"a. c #5DBDF1",
"s. c #52C0EE",
"d. c #5BC2F4",
"f. c #5FC4F8",
"g. c #60C5FA",
"h. c #828A9E",
"j. c #818CA0",
"k. c #898FA2",
"l. c #8691A4",
"z. c #8B96A7",
"x. c #8D98A7",
"c. c #8D98A9",
"v. c #8B96A8",
"b. c #939CAD",
"n. c #989FAF",
"m. c #969FB0",
"M. c #95A1AF",
"N. c #96A0B1",
"B. c #9BA4B5",
"V. c #9EAAB9",
"C. c #9FABB7",
"Z. c #A2ACBA",
"A. c #A0A7B6",
"S. c #A5B0BD",
"D. c #AFB1BF",
"F. c #AEB8C6",
"G. c #A8B4C1",
"H. c #B3BDCA",
"J. c #B1B5C3",
"K. c #B6C1CE",
"L. c #BAC3CE",
"P. c #BCC8CF",
"I. c #BDC6D1",
"U. c #BFCAD3",
"Y. c #C3CED5",
"T. c #C6CFD9",
"R. c #C0C7D2",
"E. c #C5D1D6",
"W. c #C6D2D8",
"Q. c #C9D3DB",
"!. c #CED7E0",
"~. c #CFD9E1",
"^. c #D3DCE4",
"/. c #D7E0E7",
"(. c #DAE3EA",
"). c #D7E0E8",
/* pixels */
"          . X . X X X X X . X X . X . X X . X X X X X X . . : . . . . . X X . X X X . X X .           ",
"          g N.B.B.B.B.C.B.B.B.B.B.C.B.B.B.B.B.V.B.B.B.B.B.V.B.B.B.V.B.C.B.B.B.B.B.C.B.M.z.j           ",
"          =./.(.(.(.(.(.(.(.(.(.(.(.(.(.(.(.(.(.(.(.(.(.(.(.(.(.(.(.(.(.(.(.(.(.(.(.(.^.Y.,.          ",
"          %.^.(.(.(.(.(.(.(.(.(.(.(.(.(.(.(.(.(.(.(.(.(.(.(.(.(.(.(.(.(.(.(.(.(.(.(.(.^.P.=.          ",
"          =.~.(.(./././.(.(./.(.).).).(.).(.(.^.(.(.).).(./././././././.(.(./.(.(.(.(.!.U.=.          ",
"          n U.W.W.W.W.E.Q.W.W.W.E.E.W.W.W.W.Q.Q.W.W.W.E.W.W.W.W.W.W.W.E.Q.W.W.W.E.E.E.E.U.,.          ",
"          b K.P.P.P.P.P.P.P.P.P.P.P.P.P.I.P.I.I.P.P.P.P.P.P.P.P.P.P.P.P.P.P.P.P.L.P.P.P.P.=.          ",
"          , g b k k k k k k k b k b k k k k k k b k k k b k k k k b b k g b g b k k k k k ,           ",
"          $ S S C S # * S S S S @ ; S G D C @ A D D S A # S S F C = s h.z.l.z.:.j l.k.l.v.=.          ",
"        O L } } } { t _ } } } { t P I I I I t [ I } I ] * I I } } ] B ^.(.(.(.L.<.^.(.(.(.H.u         ",
"        % [ } { } ' $ { } } } ] t I } } I I r [ I } } [ t [ } } } [ x Q.(.(.(.!.-.T.(.(.(.^.M         ",
"        F } } } } ~ U } } } } _ r { } } I I ; I } } } [ t P } } } } v K.(.(.(.(.9.Z.(.(.^.(.l.        ",
"      O ) } } } } Z Q } { } } ~ Y } } } } ' t { } } } } t P } { } } U Z.(.(.(.(.m.h.(.(.(.(.H.i       ",
"      & { } } } { * _ } } } } T G } } } } L r { } } } } r ' } } } } G x.(.(.(.(.H.:.^.(.(.(.^.*.      ",
"      D } } } } ' t [ } } } } U J } } } } ` r { } } } { r L } } } } ~ h.(.(.(.(.~.-.R.(.(.(.(.b.      ",
"    O _ } } } } H U } } } } { r P } } } I K U } } } } } U K } } } } L -.(.(.(.(.(.9.Z.(.(.(.(.H.p     ",
"    $ { } } } } Z W } } } } [ v P } { I } ) Y } } } } } Z K } } } I P B !.(.(.(.(.n.h.(.(.(.(.^.=.    ",
"  X G } } { } { * ` } } } } ' * { } } } } J Y } } } } } Y J } } } I I x Y.(.(.(.(.H.<.^.(.(.(.(.b..   ",
"  + ' } } } } P t [ } } } } ) ; } } { } } H R } } } } } Y H } } } } } v H.(.(.(.(.~.-.T.(.(.^.(.R.d   ",
"  - { } { } } J A } } } } } W F } } } } } G T } } } } I T W } } } } } Y V.(.(.(.(.(.2.S.(.(.(.(.^.:.  ",
"X G } } } } } Z H } } I I I F G I I } I } D E } I I } I D G I I } I } H v.(.^.(.(.(.m.j.(.(.(.(.(.n.o ",
"X % - - - $ - + # - $ - ; - @ # V - - - * @ @ - - - ; * @ # A - ; * * # f :.:.:.:.:.b s :.:.;.:.:.n X ",
"O = = = = = * + ; ; V Z A V @ $ A = A V A # % ; A = V Z % # A A A Z ; $ h 2.2.2.2.2.:.f 2.2.2.2.2.2.p ",
"$ I } } } } { * I } I } I I A ` } I } } I F J } } } I I H F } } I I I L 2.(.(.(.(.(.Q.:.^.(.(.(.(.^.=.",
"$ I } } } } { * ] } { } } } A L } } } } } D J } } } { } H F I } I I } L <.(.(.(.(.(.T.>.^.(.(.^.(.^.=.",
"% [ } } } } [ - ] } } } } { ; J } } } } I F H } } } } } H F } } } } I K <.(.(.^.(.(.R.:.Q.(.(.(.(.!.n ",
"@ ] } } } } ] + _ } } } } { # H } } } } I ; F } } } } } F * I I } } } J k ^.(.(.(.(.H.f T.(.(.(.(.Y.f ",
"o J } } } } W < T } } { } L i r } } } } P a e [ } } } { e e I I } } } Z s H.(.(.(.(.v., A.(.(.(.(.A.X ",
"  % [ } } [ v l.z ' I } } U q.c K } } } S 2.-.H } } } W :.2.C I } } J c j.2.^.(.(.R.%.0.*.Q.(.(.!.M   ",
"  X $ ) K $ 2.^.j.0 ~ ` ; *.!.B.a J L S h T.F.a E ` T a F.Y.h C _ J # B.~.*.2.H.S.n j.Y.:.=.J.J.-.o   ",
"    . o o ;.Q.(.~.j.s i ,.I.(.^.c.s u k J.(.(.Z.g i j Z.^.(.H.*.u f b.^.(.I.=.p d q.Q.Q.Z.o : : .     ",
"        . Z.(.(.(.^.R.L.^.(.(.(.^.T.H.^.(.(.(.(.Q.H.Q.^.(.(.(.!.H.T.^.(.(.(.~.I.R.(.(.Q.Z.<           ",
"        : V.(.(.(.(.(.(.(.(.(.(.(.(.(.(.(.(.(.(.(.(.(.(.(.(.(.(.(.(.(.(.(.(.(.(.(.(.(.W.Z.<           ",
"        : G.(.(.(.(.(.(.(.).(.(./.(.(.(.(./.(.(.(.^.(.(.(.(.(.(.(.(.(.(.(.(.(.(./.(./.W.Z.<           ",
"        X V.(.(.(.).(.).).(.(.(.(.(.(.(.(./.(.(.(.(.(.(.^.(.(.(.(.(.(.(.(.(.(.^.(.(.(.W.Z.<           ",
"        X G.(.(.(.(.(.).(.(.(.(./.(./.(.(.(.(.(.(.(.(.(.(.(.(.(.(.(.(.^.(.(.(.(.(.(.(.W.Z.<           ",
"        : V.(.(.(.(.(.(.(.(.(.(.(.(.(.(.(.(.(.(.(.(.(.(.(.(.(.(.(.(.(.(.(.(.(.(.(.(.(.Q.Z.<           ",
"        : Z.(.(.).).V.j.j.q.l.q.h.q.q.l.x.Q.(.(.(.R.k.h.h.h.h.h.k.j.j.j.j.j.k.j.Z.(.(.E.Z.<           ",
"        : V.(.).(.~.n w q q q q q q q q i P.(.(.(.b.8 o.o.o.O.O.8 1 o.o.O.o.o.3 ,./.(.W.S.<           ",
"        : Z.(.(.(.~.N |  ... . ... . . .z I.(.(.(.b.r.g.g.d.d.s.5.3.f.a.f.a.a.7.1./.(.W.Z.<           ",
"        : V.(.(.(.~.N |  . . . . . . . .m K.(.).(.N.r.g.g.g.f.d.5.3.g.f.f.f.d.7.1.^.(.Q.Z.<           ",
"        : V.(.(.(.~.N |  . . . . . . . .m K.(.(.(.b.r.g.g.g.d.d.5.3.f.f.f.f.d.7.1.).).Q.S.<           ",
"        : G.(.(.(.~.N |  .X.X. . . . . .m K.(.(.(.N.r.g.f.f.f.d.5.3.f.f.f.f.d.7.1.).(.W.Z.<           ",
"        X Z.(.(.(.~.N |  . . . . . . . .m K.(.(.(.b.r.g.f.f.f.d.5.3.f.f.f.f.d.7.1.).).Q.Z.<           ",
"        : Z.(.(.(.~.N |  . . . . . . . .m K.(.(.(.m.r.g.g.g.g.s.5.3.g.g.g.f.d.7.1.^.(.W.Z.<           ",
"        X V.(.(.(.~.N |  . . . . . . . .m K.(.(.(.b.e.s.y.y.y.u.5.#.y.y.y.y.u.8.1.(.).Q.Z.<           ",
"        X V.(.(.(.~.N |  . . . . . . . .m K.(.(.(.N.6 @.@.@.@.@.+.6 @.@.@.@.@.+.;.(.(.W.Z.<           ",
"        : G.(.(.(.~.N |  . . . . . . . .m K.(.(.(.m.1 5 5 5 5 5 1 2 5 5 5 5 5 1 ;.^.).Q.Z.<           ",
"        X V.(.(.(.^.N | X. . . . . . . .m K.(.(.(.N.r.a.a.a.a.i.6.&.a.p.a.d.p.8.1./.(.W.S.<           ",
"        : Z.(.(.).^.N ..X. . . . . .....m K.(.(.(.N.r.f.f.f.f.d.5.3.g.g.g.f.d.7.1./.(.Q.Z.<           ",
"        : V.(.(.(.~.-. . . . . . .X./ / m K.(.(.(.b.r.f.f.f.f.d.5.3.g.d.g.d.d.7.1././.W.Z.<           ",
"        : G.(.(.(.~.N ( X. . . . .X.y ^ m I.(.(.(.m.r.f.f.f.f.s.5.3.g.g.g.g.d.7.1./.(.W.Z.<           ",
"        : V.(.(.(.~.N |  . . . . .X.y ^ m K.(.(.(.N.r.g.f.f.f.d.5.3.g.g.f.f.d.7.1././.W.Z.<           ",
"        : Z.(.(.(.~.N |  . . . . .X.^ / m I.(.(.(.b.r.g.g.g.f.d.5.3.g.g.f.f.f.8.1./.(.W.Z.<           ",
"        : V.(.(.(.~.N | X. . . . . .| | m I.(.(.(.N.e.s.i.i.i.y.5.&.i.i.s.u.s.8.>././.W.Z.<           ",
"        X V.(.(.(.~.N |  . . . . . .X. .m K.(.(.(.N.+.4.4.4.4.4.+.6 4.4.4.4.4.$.;./.(.W.S.<           ",
"        : Z.(.(.^.^.N ( X.X.X.X. . . . .m K.(.(.(.G.f f f f f f f f f f f f f f 0./.).Q.Z.<           ",
"        : Z.(.(.(.^.N ..X.X.X.X. . . . .m K.(.).).^.Q.!.!.Q.!.Q.Q.Q.Q.Q.Q.!.Q.Q.^.(.(.W.Z.<           ",
"        : C.(.(.(.~.N X.X. .X.X. . . . .m K.(.(.).(.(.(.).(.(.(.(.(.(.(.(.(.).(.(.(./.W.Z.<           ",
"        X C.(.(.(.~.N (  .X.X.X. . . . .m K.(.).(.).).).).).).).(./.(./.(.).(.).(.)./.W.Z.<           ",
"        X M.Q.W.E.R.B X.X. . . . . . . .m G.W.W.W.W.W.W.W.W.W.W.W.W.W.E.Q.W.Q.W.E.E.W.E.S.<           ",
"        X M.W.E.E.R.M ( X.X. .X.X. .X. .m S.W.E.E.E.E.Y.U.E.E.E.E.Y.E.E.Y.Y.E.Y.E.E.E.E.S.<           ",
"        X >.x.z.x.k.l ^ ( / ^ / / / / / q 9.c.c.c.c.z.z.c.x.c.c.z.c.c.c.c.c.z.z.x.x.x.x.9.:           ",
"          X X X X X . . . . . . . . . . . . . . . . . . . . . . . . . . . . . . X X . . X X           "
};
