/* XPM */
static char *_51726169991[] = {
/* columns rows colors chars-per-pixel */
"51 64 174 2 ",
"   c None",
".  c #2F3A5A",
"X  c #313C5C",
"o  c #3A3C5B",
"O  c #453B59",
"+  c #4C3C5A",
"@  c #523C59",
"#  c #5A3C59",
"$  c #593A57",
"%  c #643C58",
"&  c #6D3D59",
"*  c #6B3B57",
"=  c #753D57",
"-  c #7D3D57",
";  c #723D58",
":  c #7C3E59",
">  c #37405F",
",  c #2F4C6D",
"<  c #3B4563",
"1  c #3D4866",
"2  c #334A6C",
"3  c #354565",
"4  c #2F4F70",
"5  c #2D5173",
"6  c #39577B",
"7  c #315A7A",
"8  c #3A587C",
"9  c #344E72",
"0  c #31607F",
"q  c #55425F",
"w  c #554F57",
"e  c #565059",
"r  c #4F4B56",
"t  c #67435F",
"y  c #7C415B",
"u  c #77405A",
"i  c #7E685A",
"p  c #454563",
"a  c #444A65",
"s  c #454E6B",
"d  c #534864",
"f  c #45506D",
"g  c #4A526E",
"h  c #51556D",
"j  c #4A5672",
"k  c #4F5974",
"l  c #525D77",
"z  c #525F79",
"x  c #565671",
"c  c #614F69",
"v  c #764B65",
"b  c #71526C",
"n  c #665C76",
"m  c #5B647D",
"M  c #57617B",
"N  c #6B6163",
"B  c #656877",
"V  c #696C7A",
"C  c #6F627B",
"Z  c #833D57",
"A  c #8D3C56",
"S  c #833F59",
"D  c #8D3F58",
"F  c #933C55",
"G  c #9D3F57",
"H  c #913F58",
"J  c #A33F56",
"K  c #AC3F56",
"L  c #B33F55",
"P  c #C33E54",
"I  c #CB3D52",
"U  c #DB3F52",
"Y  c #E53F52",
"T  c #8A415A",
"R  c #82405A",
"E  c #9B4159",
"W  c #954159",
"Q  c #A44158",
"!  c #AF4158",
"~  c #BB4056",
"^  c #B54157",
"/  c #846B59",
"(  c #896F5A",
")  c #8D7159",
"_  c #C44156",
"`  c #CA4155",
"'  c #C54459",
"]  c #D54155",
"[  c #DA4154",
"{  c #E44154",
"}  c #EB4153",
"|  c #F24153",
" . c #AC8258",
".. c #BD8D5A",
"X. c #B3875A",
"o. c #C08F5A",
"O. c #395F85",
"+. c #316686",
"@. c #3A6086",
"#. c #316D8E",
"$. c #337B9B",
"%. c #3E779C",
"&. c #2F7495",
"*. c #517090",
"=. c #606780",
"-. c #626C84",
";. c #696E86",
":. c #726F86",
">. c #65728A",
",. c #69738A",
"<. c #6D788E",
"1. c #657087",
"2. c #78788E",
"3. c #73748B",
"4. c #667990",
"5. c #737D93",
"6. c #4479A2",
"7. c #3384A5",
"8. c #378BAC",
"9. c #3787A8",
"0. c #399ABE",
"q. c #3799BC",
"w. c #7B8499",
"e. c #7D899D",
"r. c #788396",
"t. c #4187AE",
"y. c #4A8BB7",
"u. c #4986B2",
"i. c #4EBDE9",
"p. c #4BBCE6",
"a. c #52BEEB",
"s. c #59BCED",
"d. c #5DBDF1",
"f. c #52C0EE",
"g. c #5BC2F4",
"h. c #5FC4F8",
"j. c #60C5FA",
"k. c #828A9E",
"l. c #818CA0",
"z. c #8690A3",
"x. c #8B96A7",
"c. c #8D98A7",
"v. c #8E99AA",
"b. c #8C97A9",
"n. c #939CAD",
"m. c #95A1AF",
"M. c #96A0B1",
"N. c #9BA4B5",
"B. c #9EA9B8",
"V. c #9FABB7",
"C. c #A2ACBA",
"Z. c #A1A8B7",
"A. c #A4B1BC",
"S. c #AEB8C6",
"D. c #AAB6C3",
"F. c #B0B3C0",
"G. c #B5BDCA",
"H. c #B2B8C5",
"J. c #B6C1CE",
"K. c #B9C3CE",
"L. c #BCC8CF",
"P. c #BDC6D1",
"I. c #BFCAD3",
"U. c #C3CED5",
"Y. c #C5CFD9",
"T. c #C5D1D6",
"R. c #C6D2D8",
"E. c #C9D3DB",
"W. c #CED7E0",
"Q. c #CFD8E1",
"!. c #D3DCE4",
"~. c #D7E0E7",
"^. c #DAE3EA",
"/. c #D7E1E8",
/* pixels */
"          . X X . X X X X X X X X X X X X X X X X X X X X X . X X . X X . X X . . > . . . .           ",
"          k M.N.N.N.N.B.N.N.N.N.N.N.N.N.N.N.N.Z.N.N.N.N.N.B.N.N.N.N.B.V.N.N.N.N.N.V.N.m.x.z           ",
"          -./.^.^.^.^.^.^.^.^.^.^.^.^.^.^.^.^.^.^.^.^.^.^.^.^.^.^.^.^.^.^.^.^.^.^.^.^.~.I.1.          ",
"          -.!.^.^.^.^.^.^.^.^.^.^.^.^.^.^.^.^.^.^.^.^.^.^.^.^.^.^.^.^.^.^.^.^.^.^.^./.!.I.1.          ",
"          -.Q./././././.^./././.^./././.^.!.^.!.^.^./././.^././././././.^.^././.^././.Q.I.;.          ",
"          m U.R.R.R.R.R.E.R.R.R.R.R.R.R.E.E.E.E.R.R.T.T.R.R.T.T.R.R.R.T.E.R.R.R.R.T.T.T.I.;.          ",
"          M J.L.L.L.L.L.L.L.L.L.L.L.L.L.P.L.U.G.L.K.L.L.L.L.L.L.L.L.K.L.L.L.L.L.L.L.L.L.K.-.          ",
"          < k l l l M l l l l l z z z z z z z z M M z z M z z z z M M z z z z M z z z z z <           ",
"          ;.z.x.z.z.l ,.x.z.x.l.g Z F J G A @ S G J H T $ F H H F - $ A F F F = $ F F F G *           ",
"        1 G.^.^.^.!.;.U.^.^.^.!.:.Y Y Y Y Y ; Y Y Y Y [ : Y Y | | ] u } | | | ] u } | | | _ o         ",
"        m !.^.^.^.U.;.Q.^.^.^.E.b Y | | Y Y S Y Y Y | { u U | | | { u ] | | | { & U | | | { %         ",
"        z.^.^.!.^.C.w.^.^.^.^.G.v Y | | Y Y : Y | Y | Y u U | | | } u ` | | | | R L | | | | F         ",
"      a G.^.^.^.^.k.Z.^.^.^.^.C.W | | | | U u } | | | | u U | | | | A ^ | } | | Q A | | | | ` O       ",
"      -.!.^.^.^.!.,.P.^.^.^.^.n.K | | | | I y | | | | | u U | } | | G Q | | | | ` u } | | | } *       ",
"      b.^.^.^.^.P.,.Q.^.^.!.^.k.L Y | | | ' y Y | | | | y P | | | | ^ T | | | | { & ] | | | | G       ",
"    s G.^.^.^.^.Z.w.^.^.^.^.!.:.I | | | Y P R | } | | | T P | | } | ` u | | } | | R ^ | | } | ` p     ",
"    :.!.^.^.^.^.l.N.^.^.^.^.W.n Y Y | | | ' T Y | | | | H P | | | | [ u { | | | | Q A | } | | } *     ",
"  X n.^.^.^.^.!.3.G.^.^.^.^.Y.v Y Y | | | ~ E Y | | | | T L | | | | { = [ | } | | ` u } | | | | J .   ",
"  s U.^.^.^.^.U.<.Q.^./.^.^.G.v Y | | | Y K E Y | | Y Y W K | | } | } - _ | | | | { u ] | | | | ] +   ",
"  ,.!.!.^.^.^.Z.5./.^././.^.B.H Y Y | | Y ! ! Y | | Y Y E J | | | | | H ! | } | | | Z L | | | | } =   ",
"o M.^.^.!.!.^.z.M.^././.!.^.z.K Y Y Y Y | E Q Y Y Y Y Y J J Y Y | } | J E | } | } | Q F | } | } | J X ",
"X m <.<.<.,.,.g =.,.,.,.<.,.j # R : : ; R # # : ; : S : q # R ; & ; ; # + ; ; ; ; ; # + = ; & = ; % X ",
"s 5.5.5.5.5.<.j <.5.5.5.5.5.g * S Z H T - # % S H S Z S % $ H S - S Z * @ - - - - - = + = - - - - : O ",
"=.!.^.^.^.!.!.<.E.^.^.^.^.^.2.P Y Y Y Y Y G L Y Y Y Y Y L H | Y | | | P Z | | | | | [ = } | | | | } % ",
"-.Q.^./.^.^.!.<.Y.^.!.^.^./.2.P Y Y | | Y J L Y | | | | K H Y Y | | | P Z | | | | | [ = } | | | | Y * ",
"=.W.^.^.^.^.Q.,.U.!.^.^.^./.3.P Y Y | | Y H ! Y | | | | K A Y Y } | | P - } | | | | [ & { | | } | Y % ",
"j Y.^.^.^.^.U.k G.^.^.^.^.!.=.K | | | | Y u E Y | | | | H : Y Y | | | K q { | | } | ` q [ | | | | [ @ ",
"> C.^.^.!.^.B.p n.^.^.^.^.G.1 : | | | | U + v Y | | | | t t Y Y | | | y p ` | } | | W > ! | | | | L o ",
"  =.E.^.^.!.-.z.-.U.^.^.!.5.l.n I | Y Y G 5.;.K | | Y L ;.5.A Y Y Y L n l.: } | | ] c e.t Y | | { %   ",
"  X ,.F.A.;.5.!.l.=.D.G.5.-.W.N.d L I A x U.H.d Q ] E d S.Y.x A U L d N.!.B : ' ^ t k.U.>.& _ P ; X   ",
"    . o o >.E.^.W.l.g f -.G.^.^.n.g p =.H.^.^.C.z p l B.^.^.S.=.d g v.!.^.P.-.s a e.Q.E.B.3 o o .     ",
"        o C.^.^.!.!.U.G.!.^.^.^.!.Y.G.!.!.^.^.^.E.G.E.^.^.^.^.W.G.Y.^.^.^.^.!.G.U.~.^.R.C.<           ",
"        X C.^.^.^.^.^.^.^./.^./.^.^.^.^.^.^.^.^.^.^.^.^.^.!.^.^.^.^.^.^.^.^.^.^.^.^.^.E.C.a           ",
"        X D.^.^.^.^.^.^.^.^.^.^.^.^.^.^.^.!.^.^.^.^.^.^.^.^.^.^.^.^.^.^.!.^.^.^./.^./.R.C.<           ",
"        > C.^.^.^.^.^.^.^.^.^.^.^.^.!.^.^.^.^.^.^.^.^.!.^.^.^.^.^.^.^.^.^.^.^.^./.^.^.R.C.1           ",
"        X C.^.^.^./.^.^.^.!.^.^.^.^.^.^.^.^.^.^.^.^.^.^.^.^.^.^.^.!.^.^.^.^.^.^.^.^./.R.C.1           ",
"        > Z.^.^.^.^.^.^.^.^.^.^.^.^.^.^.^.^.!.^.^.!.^.^.^.^.^.^.^.^.^.^.^.^.^.^.^.^.^.R.C.1           ",
"        > C.^.^.^.!.B.l.e.e.z.l.l.l.l.z.v.Q.^.^.^.U.l.l.k.l.l.l.l.z.l.l.l.l.l.l.C././.E.A.1           ",
"        > C.^.^.^.!.=.r w w e e e e e e p G.^.^.^.n.9 @.O.@.*.0 9 2 O.O.@.O.@.9 >./.^.R.C.1           ",
"        o A.^.^.^.!.V ) ..........X.....N U.^.^.^.n.y.j.d.d.s.s.8.6.h.d.j.d.d.0.<././.R.C.1           ",
"        > B.^.!.^.Q.V  .........o.......N G.^.^.^.M.y.j.j.j.j.f.8.6.j.j.h.h.g.0.4.!.^.E.A.<           ",
"        X D.^.^.^.Q.V  ...............o.N G.^.^.^.n.y.j.j.j.j.g.8.6.j.j.h.h.g.0.4.^./.E.C.1           ",
"        X B.^.^.^.Q.V  ...............X.N G.^.^.^.M.y.j.j.g.j.f.8.6.j.d.h.h.g.0.4.^.^.R.C.1           ",
"        > D.^.^.^.Q.V  .................N P.^.^.^.m.y.j.j.j.j.g.8.6.j.j.h.h.g.0.4.!./.E.C.1           ",
"        X D.!.^.^.Q.V  ...............X.N J.^.^.^.M.y.j.j.j.g.g.8.6.j.j.j.h.g.0.4.!.^.R.C.1           ",
"        > B.^.^.^.Q.V  .................N G.^.^.^.n.t.f.i.i.p.p.8.%.i.i.i.i.p.0.4.^.^.E.C.1           ",
"        X B.^.^.^.Q.;. .................N J.^.^.^.M.7 $.$.$.$.$.+.7 $.$.$.&.$.#.>.^.^.E.C.1           ",
"        X D.^.^.^.!.V  .o...............N P.^.^.^.n.2 6 6 6 6 6 2 2 6 6 6 6 8 2 >.!.!.E.C.1           ",
"        X C.^.^.^.Q.V  ...............o.N J.^.^.^.n.u.j.d.d.d.a.9.6.d.s.d.g.s.q.<.~.^.R.A.1           ",
"        > C.^.^.^.Q.V  .o...........X.X.N J.^.^.^.N.y.j.h.h.j.g.9.6.j.j.j.h.g.0.4.~.^.R.C.1           ",
"        > B.^.^.^.Q.-. ...........o.( ) N J.^.^.^.n.y.j.h.h.h.g.9.6.j.g.j.g.h.q.4././.R.C.1           ",
"        X D.^.^.^.Q.V  .............i / N J.^.^.^.n.y.j.h.h.h.f.8.6.j.j.j.j.g.0.4.!.^.R.C.1           ",
"        > C.^.^.!.!.V  .o.........o.i / B J.^.^.^.M.y.j.j.j.h.g.8.6.j.j.h.h.g.0.4././.R.C.<           ",
"        > B.^.^.^.!.V  ............./ ( N J.^.^.^.n.y.j.j.j.j.g.8.6.j.j.j.g.g.0.4././.R.C.1           ",
"        X C.^.^.^.!.V  .o...........X. .N K.^.^.^.n.t.f.a.a.a.p.9.6.f.a.f.f.f.0.<.!./.E.A.1           ",
"        > C.^.^.^.Q.V  .................N K.^.^.^.N.+.7.7.7.7.7.#.7 7.7.7.7.7.&.>.~.^.R.C.1           ",
"        > C.^.^.^.Q.V  .................N J.^.^.^.A.j j j j j j g g k j j k j f e././.R.C.a           ",
"        X A.^.^.^.Q.V  .................N J.^.^./.!.W.E.W.E.W.E.E.E.E.E.E.E.E.W.!.^./.R.C.1           ",
"        > C.^.^.^.Q.V  .................N J././.^./.^.^./.^.^.^.^.^.^.^.^.^./.^.^.^./.R.C.1           ",
"        X C.^./.^.Q.V  .o...............N J.^./././.^./././.^.^.^.^./././././././././.R.C.<           ",
"        X m.E.R.T.U.V ) ................N D.E.R.E.T.R.R.R.R.R.R.R.E.R.E.E.R.R.R.T.R.R.T.A.1           ",
"        > n.R.T.T.U.V  .o.o...o.o...o...N A.R.T.T.Y.Y.T.R.I.R.I.T.I.T.R.T.Y.U.T.T.T.T.T.A.1           ",
"        X <.c.c.c.k.h / ( ( ( ( ( ( ( ( e r.x.x.x.x.x.x.v.x.x.x.x.x.x.x.x.v.x.x.c.c.c.c.r.>           ",
"          X . X X o . . X X X X . . . . . . . > . . . . . . . > . . X . . . . . . X . X X X           "
};
