/* XPM */
static char *_61726169990[] = {
/* columns rows colors chars-per-pixel */
"51 64 171 2 ",
"   c None",
".  c #2F3A5A",
"X  c #313C5C",
"o  c #3A3C5B",
"O  c #453B59",
"+  c #4C3C5A",
"@  c #523C59",
"#  c #5A3C59",
"$  c #593A57",
"%  c #643C59",
"&  c #6D3D59",
"*  c #663B57",
"=  c #753D57",
"-  c #7D3D57",
";  c #723D59",
":  c #7B3E59",
">  c #37405F",
",  c #2F4C6D",
"<  c #3B4563",
"1  c #3D4866",
"2  c #334A6C",
"3  c #354565",
"4  c #2F4F70",
"5  c #344E72",
"6  c #2D5173",
"7  c #39577B",
"8  c #315A7A",
"9  c #3A587C",
"0  c #31607F",
"q  c #55475C",
"w  c #565059",
"e  c #4F4B56",
"r  c #67435E",
"t  c #7C405B",
"y  c #7E685A",
"u  c #454563",
"i  c #444A65",
"p  c #454D6A",
"a  c #4F4A67",
"s  c #534A66",
"d  c #47516E",
"f  c #49526E",
"g  c #4B5672",
"h  c #4F5974",
"j  c #525D77",
"k  c #525F79",
"l  c #565671",
"z  c #51566B",
"x  c #614F69",
"c  c #794B65",
"v  c #725A73",
"b  c #6B5771",
"n  c #57617B",
"m  c #5B647D",
"M  c #6B6163",
"N  c #656877",
"B  c #696C7A",
"V  c #833D57",
"C  c #8D3C56",
"Z  c #833F59",
"A  c #8D3F58",
"S  c #933C55",
"D  c #9E3E56",
"F  c #923F58",
"G  c #A33F56",
"H  c #AC3E55",
"J  c #B33F55",
"K  c #C33F55",
"L  c #E23F52",
"P  c #86425C",
"I  c #924159",
"U  c #9B4159",
"Y  c #A54158",
"T  c #AF4158",
"R  c #B44056",
"E  c #B84158",
"W  c #846B59",
"Q  c #896F5A",
"!  c #8D7159",
"~  c #C34156",
"^  c #CA4155",
"/  c #C54459",
"(  c #D54155",
")  c #DA4154",
"_  c #E44154",
"`  c #EB4153",
"'  c #F24153",
"]  c #AC8258",
"[  c #B6895A",
"{  c #BD8D5A",
"}  c #B0855A",
"|  c #C08F5A",
" . c #395F85",
".. c #316686",
"X. c #3A6086",
"o. c #316D8E",
"O. c #337B9B",
"+. c #3E779C",
"@. c #2F7495",
"#. c #517090",
"$. c #606780",
"%. c #626C84",
"&. c #696E86",
"*. c #65728A",
"=. c #6A738A",
"-. c #6D788E",
";. c #657087",
":. c #667990",
">. c #747D93",
",. c #4479A2",
"<. c #3384A5",
"1. c #378BAC",
"2. c #3787A8",
"3. c #399ABE",
"4. c #3799BC",
"5. c #778196",
"6. c #7B8599",
"7. c #7D899D",
"8. c #788396",
"9. c #4187AE",
"0. c #4A8BB7",
"q. c #4986B2",
"w. c #4EBDE9",
"e. c #4BBCE6",
"r. c #52BEEB",
"t. c #59BCED",
"y. c #5DBDF1",
"u. c #52C0EE",
"i. c #5BC2F4",
"p. c #5FC4F8",
"a. c #60C5FA",
"s. c #828A9E",
"d. c #80879B",
"f. c #818CA0",
"g. c #8791A4",
"h. c #8B96A6",
"j. c #8D98A7",
"k. c #8D97A9",
"l. c #8E98A9",
"z. c #939CAD",
"x. c #959FB0",
"c. c #95A1AF",
"v. c #96A0B1",
"b. c #9BA4B5",
"n. c #9EA9B8",
"m. c #9FABB7",
"M. c #A2ACBA",
"N. c #A1A8B7",
"B. c #A5B1BD",
"V. c #AAB3C1",
"C. c #AEB9C6",
"Z. c #B0B3C0",
"A. c #B1B8C5",
"S. c #B4BDCA",
"D. c #B8BDC9",
"F. c #B6C1CE",
"G. c #B9C3CE",
"H. c #BCC8CF",
"J. c #BDC6D1",
"K. c #BFCAD3",
"L. c #C3CED5",
"P. c #C5CFD9",
"I. c #C5D1D6",
"U. c #C6D2D8",
"Y. c #C9D3DB",
"T. c #CED7E0",
"R. c #CFD9E1",
"E. c #D3DCE4",
"W. c #D7E0E7",
"Q. c #DAE3EA",
"!. c #D8E0E8",
/* pixels */
"          . X X . X X X X X . X . X X . X X . X X . X . . . > . . . . . . . X . . . . . . .           ",
"          h v.b.b.b.b.n.b.b.b.b.n.m.b.b.b.b.n.n.b.b.b.b.n.m.b.b.b.n.b.n.n.b.b.b.n.m.n.v.h.k           ",
"          %.W.Q.Q.Q.Q.Q.Q.Q.Q.Q.Q.Q.Q.Q.Q.Q.Q.Q.Q.Q.Q.Q.Q.Q.Q.Q.Q.Q.Q.Q.Q.Q.Q.Q.Q.Q.Q.W.I.%.          ",
"          %.E.W.Q.Q.Q.Q.Q.Q.Q.Q.Q.Q.Q.W.Q.Q.Q.Q.Q.Q.Q.Q.Q.Q.Q.W.Q.Q.Q.Q.Q.Q.Q.Q.W.Q.W.E.K.%.          ",
"          %.E.W.Q.W.W.W.Q.Q.W.Q.!.W.W.W.!.!.!.Q.Q.Q.W.W.W.W.W.W.W.W.W.W.Q.W.W.Q.W.W.W.R.K.;.          ",
"          m K.I.U.U.U.U.Y.U.U.U.U.I.U.U.U.U.U.U.U.Y.I.U.U.U.I.U.U.U.U.I.Y.Y.U.U.I.I.U.U.K.%.          ",
"          n F.H.H.H.H.H.H.H.H.H.H.H.H.H.J.J.J.J.K.H.H.H.K.H.H.H.K.H.H.H.H.K.K.H.H.H.H.H.H.%.          ",
"          < h n h n h n j j j j k n h n h k k k k k k k n k k k k k k k k k k k k k k k n <           ",
"          %.h.g.g.g.j -.g.h.g.g.h >.g.k.g.f.a A G G F Z @ D F A I - @ S S S S = $ C S S D *           ",
"        1 D.Q.Q.Q.W.=.H.Q.Q.Q.E.=.P.Q.Q.Q.T.v L L L L _ : L L ' ' ( t ` ' ' ' ^ t ' ' ' ' ~ O         ",
"        m E.Q.Q.Q.H.=.R.Q.Q.Q.P.-.T.Q.Q.Q.T.v L L L ' ) ; L ' ' ' _ & ) ' ' ' _ & L ' ' ' _ %         ",
"        g.Q.Q.E.Q.M.6.Q.Q.Q.Q.D.>.E.Q.Q.Q.P.c L ' ' ' _ ; L ' ' ' ` t ^ ' ' ' ' t J ' ' ' ' S         ",
"      i D.Q.Q.Q.Q.s.b.Q.Q.Q.Q.M.7.Q.E.Q.Q.K.P L ' ' ' ' t ( ' ' ' ' V R ' ' ' ' Y C ' ' ' ' ~ O       ",
"      %.E.Q.Q.Q.E.=.G.Q.Q.Q.Q.l.z.Q.Q.Q.Q.P.P L ' ' ' ' ; L ' ' ' ' D Y ' ' ' ' ~ t ` ' ' ' ` *       ",
"      k.Q.Q.Q.Q.L.&.E.Q.E.Q.Q.7.V.Q.Q.Q.Q.F.c L ' ' ' ' P K ' ' ' ' R P ' ' ' ' _ & ( ' ' ' ' D       ",
"    p D.Q.Q.Q.Q.N.6.Q.Q.Q.Q.E.>.S.Q.Q.Q.Q.S.c ' ' ' ' ' A K ' ' ' ' ~ t ' ' ' ' ' P R ' ' ' ' ^ u     ",
"    &.E.Q.Q.Q.Q.f.x.Q.Q.Q.Q.T.&.P.E.E.Q.Q.V.A L ' ' ' ' I J ' ' ' ' ( t _ ' ' ' ' Y F ' ' ' ' ' &     ",
"  X z.Q.Q.Q.Q.E.-.D.Q.Q.Q.Q.P.-.E.Q.Q.Q.Q.V.Y L ' ' ' ' I J ' ' ' ' _ ; ) ' ' ' ' ^ = ` ' ' ' ' G .   ",
"  d L.Q.E.Q.Q.L.=.R.Q.Q.Q.Q.S.>.E.Q.Q.Q.Q.N.U ' ' ' ' L U J L ' ` ' ' : ~ ' ' ' ' _ & ( ' ' ' ' ( +   ",
"  =.E.E.Q.Q.Q.N.>.Q.!.Q.Q.Q.N.f.Q.Q.Q.Q.Q.x.Y ' ' ' ' L U G L L ' ' ' F T ' ' ' ' ' V J ' ' ' ' ` ;   ",
"X x.Q.Q.Q.Q.Q.f.x.Q.!.Q.!.Q.g.z.Q.!.Q.Q.Q.k.Y L L L L L G G L L ` ' ' G U ' ' L ` ' Y F ' ' ' L ' G X ",
"X $.=.=.=.=.&.f $.:.*.=.=.=.f $.=.=.=.-.-.h # : ; ; Z : # # Z ; ; ; ; $ + ; ; ; ; ; # + & = & = ; % X ",
"p >.>.>.>.>.>.f -.>.>.>.>.>.h ;.>.>.>.>.>.l * V F A Z A % # A Z - V - & + - - - - V = + = - - - - - O ",
"%.E.Q.Q.Q.Q.E.-.P.Q.Q.Q.Q.Q.>.S.Q.Q.Q.Q.Q.k.J L L L L L H F ' ' ' ' ' K V ' ' ' ' ' ) = _ ' ' ' ' ` * ",
"$.E.!.!.Q.Q.E.-.P.Q.E.Q.Q.E.6.S.Q.Q.Q.Q.Q.g.J L L L ' ' H F L L ' ' ' K V ' ' ` ' ' ) - ` ' ' ' ' ` * ",
"$.R.Q.Q.Q.Q.R.&.P.Q.Q.Q.Q.Q.>.C.Q.Q.Q.Q.Q.f.H L L L ' ' H C L L ` ' ' K : ' ' ' ' ' ) r _ ' ' ' ' L % ",
"h P.Q.Q.E.Q.L.h D.Q.Q.Q.E.E.$.b.Q.Q.Q.Q.!.=.D L ' ' ' ' C = L L ' ' ' H # _ ' ' ` ' ~ @ ( ' ' ' ' ) @ ",
"> M.Q.!.Q.Q.b.i l.Q.Q.Q.Q.S.p >.Q.Q.Q.Q.P.h & L ' ' ' ' c r L L ' ' ' t u ^ ' ' ' ' U < J ' ' ' ' J o ",
"  $.Y.Q.Q.T.%.g.%.K.Q.Q.E.>.f.$.A.Q.Q.Q.g.>.&.H ' ' L T &.>.C L L L J b f.t ` ' ' ( x 7.r L ' ' _ *   ",
"  X =.V.B.&.>.E.7.$.V.S.>.%.R.x.$.N.D.>.j P.V.a Y ( G a A.P.l C L J s b.Y.%.t / R r s.L.;.& ~ K ; X   ",
"    . o O =.Y.Q.R.7.g d *.J.Q.E.g.d p $.A.Q.Q.V.k u j n.!.Q.A.$.u z l.E.Q.J.%.p i 7.R.Y.M.3 o o .     ",
"        X M.Q.Q.Q.E.K.D.R.Q.Q.Q.!.P.D.T.Q.!.Q.Q.Y.S.Y.Q.Q.!.Q.T.D.P.Q.Q.Q.Q.E.G.L.W.Q.U.M.<           ",
"        > M.Q.Q.Q.Q.Q.Q.Q.Q.Q.Q.Q.Q.Q.Q.Q.Q.Q.Q.Q.Q.Q.Q.Q.Q.Q.Q.Q.Q.Q.E.Q.Q.Q.Q.Q.Q.W.Y.M.>           ",
"        > B.Q.Q.Q.Q.Q.Q.Q.Q.Q.Q.Q.Q.Q.Q.Q.E.Q.Q.Q.Q.Q.Q.Q.Q.Q.Q.Q.Q.Q.Q.Q.Q.Q.Q.Q.Q.W.Y.B.1           ",
"        X M.Q.Q.Q.E.Q.Q.Q.Q.E.Q.Q.Q.E.Q.Q.Q.Q.Q.Q.W.Q.W.Q.Q.Q.Q.Q.Q.Q.Q.Q.E.Q.Q.Q.W.W.Y.B.1           ",
"        > M.Q.Q.Q.Q.Q.Q.Q.E.Q.Q.Q.Q.Q.Q.Q.Q.Q.Q.Q.Q.Q.Q.Q.Q.Q.Q.E.Q.Q.Q.Q.Q.Q.Q.Q.Q.W.Y.M.>           ",
"        X M.Q.Q.Q.Q.Q.Q.Q.Q.Q.Q.Q.Q.Q.Q.Q.Q.Q.Q.Q.Q.Q.Q.Q.Q.Q.Q.Q.Q.Q.Q.Q.Q.Q.Q.Q.Q.Q.U.M.1           ",
"        3 M.Q.Q.Q.E.M.f.f.f.f.f.f.7.f.f.l.Y.Q.Q.Q.G.f.s.s.s.s.s.f.f.f.f.f.f.f.g.M.Q.Q.U.B.1           ",
"        o M.Q.Q.Q.E.$.e w w w w w w w w i G.Q.Q.Q.z.5 X.9 X.X.9 5 2  . . . . .5 *.W.W.Y.M.1           ",
"        o B.Q.Q.Q.E.B ! { { [ { { { [ { M J.Q.Q.Q.z.0.a.i.a.a.i.1.,.p.a.y.p.y.3.:.W.Q.U.M.1           ",
"        > n.Q.Q.Q.R.B ] { { { { { { { { M S.Q.Q.Q.c.0.a.a.a.a.u.1.,.a.a.p.p.i.3.:.!.!.Y.M.1           ",
"        > n.Q.Q.Q.R.B ] { { { { { { { { M S.Q.Q.Q.z.0.a.a.a.a.i.1.,.a.a.p.p.i.3.:.!.!.U.M.1           ",
"        > V.Q.Q.Q.R.B ] | { { { { { { { M F.Q.Q.Q.c.0.a.a.a.a.u.1.,.a.a.p.p.i.3.:.!.Q.U.M.1           ",
"        . M.Q.Q.Q.R.B ] { { { { { { { { M F.Q.Q.Q.z.0.a.a.a.a.t.1.,.a.y.p.p.i.3.:.!.!.Y.M.1           ",
"        > n.Q.Q.Q.R.B ] { { { { { { { { M F.Q.Q.Q.x.0.a.a.a.a.u.1.,.p.p.p.a.p.4.:.W.!.Y.M.1           ",
"        X n.Q.Q.Q.R.B ] { { { { { { { [ M F.Q.Q.Q.z.9.u.w.w.w.e.2.,.w.w.w.w.e.4.:.W.Q.U.M.1           ",
"        3 n.Q.Q.Q.R.%.] | { { { { { { { M F.Q.Q.Q.c.0 O.O.O.O.O...8 O.O.O.O.O.o.*.E.Q.Y.M.1           ",
"        > V.Q.Q.Q.E.B } { { { { { { { { M F.Q.Q.Q.z.2 7 7 7 7 7 2 3 7 7 7 7 7 , *.!.!.U.M.1           ",
"        > n.Q.Q.Q.R.B ] { { { { { { { { M F.Q.Q.Q.c.0.i.y.y.y.r.<.,.y.y.y.t.i.4.:.W.Q.U.B.1           ",
"        > M.Q.Q.Q.R.B ] { { { { { { [ [ M F.Q.W.Q.v.0.a.p.p.p.i.2.,.a.a.a.a.i.3.:.W.W.Y.M.1           ",
"        X n.Q.Q.Q.R.&.] { { { { { { Q ! M H.W.Q.Q.z.0.a.p.p.p.i.2.,.a.i.a.a.i.3.:.W.W.U.M.1           ",
"        > V.Q.Q.Q.R.B ] { { { { { { y W M F.Q.Q.Q.z.0.a.p.p.p.u.1.,.a.a.i.a.i.3.:.W.W.U.B.1           ",
"        X M.Q.Q.Q.E.B ] { { { { { { y W M F.Q.Q.Q.v.0.a.p.p.p.i.1.,.a.a.i.a.i.3.:.W.W.U.B.1           ",
"        > M.Q.Q.!.E.B ] | { { { { { Q Q M H.Q.Q.Q.c.0.p.a.a.p.i.1.,.a.a.a.i.i.3.:.W.W.Y.m.1           ",
"        > M.Q.Q.Q.R.B ] { { { { { { } ] M H.Q.Q.Q.z.q.u.u.u.r.e.2.,.u.u.u.u.u.4.:.W.Q.U.B.1           ",
"        X n.Q.Q.Q.R.B ] { { { { { { { { M F.Q.Q.Q.v...<.<.<.<.<.o.8 <.<.<.<.<.@.*.W.Q.U.B.1           ",
"        > M.Q.Q.Q.R.B ] { { { { { { { { M F.Q.Q.Q.B.f 9 g g g h z f h g g h g d 7.W.W.U.B.1           ",
"        > M.Q.Q.!.E.B ] { { { { { { { { M F.Q.Q.W.W.Y.T.T.Y.Y.Y.Y.Y.Y.Y.Y.Y.Y.T.E.Q.W.U.m.1           ",
"        > m.Q.Q.Q.R.B ] { { { { { { { { M F.W.W.Q.Q.Q.Q.Q.Q.Q.Q.Q.Q.Q.Q.Q.Q.Q.Q.Q.Q.Q.U.m.1           ",
"        > m.Q.W.Q.R.B ] | { { { { { { { M F.Q.W.W.W.Q.W.W.W.Q.Q.W.W.Q.W.!.Q.!.W.Q.Q.Q.U.B.1           ",
"        X c.Y.U.I.L.N ] { { { { { { { { M V.Y.U.U.U.U.U.U.U.U.U.U.U.U.U.U.U.U.U.U.U.U.K.B.1           ",
"        > z.U.I.L.H.N ] | | { | { { { { M B.U.K.I.I.I.I.K.K.K.U.K.U.K.K.K.U.K.I.K.K.U.U.B.1           ",
"        X -.j.h.k.g.z y Q Q Q Q y Q y y w 8.h.h.h.h.h.h.h.h.h.g.l.l.h.h.h.h.l.l.7.j.h.g.8.>           ",
"          X X X X . . X X X X X . > > . > > . > . . > . . . > > . 3 . > . . > . > . > > > >           "
};
