/* XPM */
static char *_11726169990[] = {
/* columns rows colors chars-per-pixel */
"51 64 170 2 ",
"   c None",
".  c #2F3A5A",
"X  c #313C5C",
"o  c #3A3C5B",
"O  c #453B59",
"+  c #4C3C5A",
"@  c #5C3C59",
"#  c #523D5A",
"$  c #643C59",
"%  c #6B3D58",
"&  c #6C3C57",
"*  c #753D57",
"=  c #7D3D57",
"-  c #713D59",
";  c #7E3E58",
":  c #37405F",
">  c #2F4C6D",
",  c #3B4563",
"<  c #3D4866",
"1  c #334A6C",
"2  c #344769",
"3  c #2F4F70",
"4  c #344E72",
"5  c #2D5173",
"6  c #39577B",
"7  c #315A7A",
"8  c #3A587C",
"9  c #31607F",
"0  c #54485A",
"q  c #565059",
"w  c #4F4B56",
"e  c #79445E",
"r  c #7E685A",
"t  c #444A65",
"y  c #444D6A",
"u  c #444361",
"i  c #47516E",
"p  c #49536F",
"a  c #4B5672",
"s  c #4F5A75",
"d  c #525D77",
"f  c #525E79",
"g  c #51566B",
"h  c #6A4560",
"j  c #7C4862",
"k  c #69526C",
"l  c #72516A",
"z  c #6E5E77",
"x  c #57617B",
"c  c #5B647D",
"v  c #6B6163",
"b  c #656877",
"n  c #696C7A",
"m  c #6F637B",
"M  c #8E3F58",
"N  c #8D3E57",
"B  c #933C55",
"V  c #9C3F57",
"C  c #963F58",
"Z  c #A43F56",
"A  c #AC3F56",
"S  c #B23F55",
"D  c #C53F54",
"F  c #D53F53",
"G  c #85415B",
"H  c #9A4159",
"J  c #A74158",
"K  c #A94158",
"L  c #B84359",
"P  c #846B59",
"I  c #896F5A",
"U  c #8D7159",
"Y  c #804660",
"T  c #C34155",
"R  c #CB4156",
"E  c #C54459",
"W  c #D34054",
"Q  c #D94154",
"!  c #E54154",
"~  c #EB4153",
"^  c #F24153",
"/  c #AC8258",
"(  c #B0855A",
")  c #B6895A",
"_  c #BD8D5A",
"`  c #C08F5A",
"'  c #395F85",
"]  c #316686",
"[  c #3A6086",
"{  c #316D8E",
"}  c #2F7495",
"|  c #337B9B",
" . c #3E779C",
".. c #5C6680",
"X. c #5F6982",
"o. c #43769E",
"O. c #606780",
"+. c #636C84",
"@. c #6A6F87",
"#. c #65728A",
"$. c #6A738A",
"%. c #6E788E",
"&. c #657087",
"*. c #74748B",
"=. c #667990",
"-. c #747D93",
";. c #4479A2",
":. c #3384A5",
">. c #378BAC",
",. c #3787A8",
"<. c #399ABE",
"1. c #3799BC",
"2. c #778196",
"3. c #788296",
"4. c #7C859A",
"5. c #7E899D",
"6. c #4187AE",
"7. c #4A8BB7",
"8. c #4986B2",
"9. c #4EBDE9",
"0. c #4BBCE6",
"q. c #52BEEB",
"w. c #59BCED",
"e. c #5DBDF1",
"r. c #52C0EE",
"t. c #5BC2F4",
"y. c #5FC4F8",
"u. c #60C5FA",
"i. c #828A9E",
"p. c #82869A",
"a. c #818CA0",
"s. c #898FA2",
"d. c #8691A4",
"f. c #8B96A7",
"g. c #8D98A7",
"h. c #8D97A9",
"j. c #8D99A8",
"k. c #939CAD",
"l. c #959BAC",
"z. c #979FB0",
"x. c #95A1AF",
"c. c #96A0B1",
"v. c #9BA4B5",
"b. c #9FAAB7",
"n. c #9EA8B8",
"m. c #A2ACBA",
"M. c #A4ABB9",
"N. c #A5B0BD",
"B. c #ADB1BF",
"V. c #ADB6C3",
"C. c #AEB8C5",
"Z. c #B0B5C3",
"A. c #B4B9C6",
"S. c #B4BDCA",
"D. c #B6C1CD",
"F. c #BAC3CE",
"G. c #BCC8CF",
"H. c #BDC6D1",
"J. c #BFCAD3",
"K. c #C3CDD5",
"L. c #C5CED8",
"P. c #C4CBD6",
"I. c #C5D1D6",
"U. c #C6D2D8",
"Y. c #CAD3DB",
"T. c #CED7E0",
"R. c #CFD9E1",
"E. c #D3DCE4",
"W. c #D7E0E7",
"Q. c #DAE3EA",
/* pixels */
"          . X . X X X X . X . X X X X . X . X X X X . X . . . . . . X . X . X X . . . . . .           ",
"          s c.v.v.v.v.b.v.v.v.v.v.b.v.v.v.v.v.n.v.v.v.v.b.b.b.v.n.v.v.n.v.v.v.v.b.b.b.x.g.s           ",
"          +.W.Q.Q.Q.Q.Q.Q.Q.Q.Q.Q.Q.Q.Q.Q.Q.Q.Q.Q.Q.Q.Q.Q.Q.Q.Q.Q.Q.Q.Q.Q.Q.Q.Q.Q.Q.Q.W.K.#.          ",
"          X.E.Q.Q.Q.Q.Q.Q.Q.Q.Q.Q.Q.Q.Q.Q.Q.Q.Q.Q.Q.Q.Q.Q.Q.Q.Q.Q.Q.Q.Q.Q.Q.Q.Q.Q.Q.Q.R.J.+.          ",
"          +.R.Q.W.Q.W.W.Q.Q.Q.Q.W.W.Q.W.E.Q.Q.E.Q.Q.W.W.Q.W.Q.W.Q.W.W.W.Q.Q.Q.Q.W.W.Q.R.J.+.          ",
"          c J.U.U.U.U.U.Y.U.U.I.U.I.U.U.Y.Y.Y.L.U.U.U.I.U.U.I.I.I.U.U.I.U.U.U.U.I.I.I.I.J.@.          ",
"          x D.G.G.G.G.G.G.G.G.G.G.G.G.G.G.G.P.H.J.G.G.G.G.G.G.G.G.G.G.G.G.G.G.G.G.G.G.G.G.+.          ",
"          , s x f f f f f f f f x d d d d d f f x s x s x s x s d d x d d d s x x d s x d ,           ",
"          & B B G H # * B B B B @ -.d.h.d.a.a -.d.h.h.-.a a.h.a.d.-.s d.d.d.f.$.d s.s.s.f.+.          ",
"        O D ^ ^ ^ ~ e W ^ ^ ^ ~ l L.Q.Q.Q.T.%.L.Q.Q.Q.T.$.T.Q.Q.Q.I.$.E.Q.Q.Q.H.%.E.Q.Q.Q.A.<         ",
"        $ ! ^ ^ ^ Q - ! ^ ^ ^ F z E.Q.Q.Q.L.$.T.Q.Q.Q.T.*.L.Q.Q.Q.Y.$.L.Q.Q.Q.E.#.P.Q.Q.Q.T.O.        ",
"        B ^ ^ ^ ^ K G ^ ^ ^ ^ D *.E.Q.Q.Q.L.%.E.E.Q.E.T.$.L.Q.Q.Q.E.%.D.Q.Q.Q.Q.3.M.Q.Q.Q.Q.s.        ",
"      O R ^ ^ ^ ^ N K ^ ^ ^ ^ S p.Q.E.Q.Q.P.-.E.Q.Q.Q.E.*.P.Q.Q.Q.Q.4.M.Q.Q.Q.Q.z.a.Q.Q.E.Q.A.t       ",
"      % ~ ^ ^ ^ ! e R ^ ^ ^ ^ Z l.Q.Q.Q.Q.S.-.E.Q.Q.Q.E.*.H.Q.Q.Q.Q.h.l.Q.Q.Q.Q.S.%.E.Q.Q.Q.E.O.      ",
"      V ^ ^ ^ ^ W - ! ^ ^ ^ ^ G V.Q.Q.Q.Q.S.-.E.Q.Q.Q.E.-.S.Q.Q.Q.Q.N.p.Q.Q.Q.Q.T.@.P.Q.Q.Q.Q.h.      ",
"    O R ^ ^ ^ ^ K G ^ ^ ^ ^ ~ e S.Q.Q.Q.E.A.-.Q.Q.Q.Q.Q.-.A.Q.Q.Q.Q.S.-.E.Q.Q.Q.E.4.M.Q.Q.Q.Q.H.y     ",
"    % ~ ^ ~ ^ ^ M K ^ ^ ^ ^ ! l Y.Q.Q.Q.Q.M.4.Q.Q.Q.Q.Q.-.V.Q.Q.Q.Q.P.@.R.Q.Q.Q.Q.z.i.Q.Q.Q.Q.E.@.    ",
"  X Z ^ ^ ^ ^ ~ - R ^ ^ ^ ^ F m E.Q.E.Q.Q.V.a.Q.Q.Q.Q.Q.-.V.Q.Q.Q.Q.T.%.P.Q.Q.Q.Q.S.%.E.Q.Q.Q.Q.l..   ",
"  + F ^ ^ ^ ^ F % ! ^ ^ ^ ^ D *.E.Q.Q.Q.Q.z.d.Q.Q.Q.Q.Q.a.n.Q.Q.Q.E.E.-.S.Q.Q.E.Q.T.@.P.Q.Q.Q.Q.G.y   ",
"  - ~ ^ ^ ^ ^ S ; ^ ^ ^ ^ ^ A a.Q.Q.Q.Q.Q.z.k.Q.Q.Q.Q.Q.h.z.Q.Q.Q.Q.Q.a.n.Q.Q.Q.Q.Q.2.M.Q.Q.Q.Q.E.$.  ",
"X Z ^ ^ ^ ^ ^ M Z ^ ^ ^ ^ ^ C z.Q.Q.Q.E.Q.h.z.E.Q.Q.Q.Q.l.h.Q.Q.Q.Q.Q.z.h.Q.Q.Q.Q.Q.z.i.Q.W.Q.W.Q.z.X ",
"X $ - - - & - + @ & - - - - + x $.$.$.%.%.s d %.$.$.$.$.s s $.%.$.$.$.f a $.#.#.$.$.c y $.#.#.$.$.b X ",
"O = = = = = * + * N ; ; ; ; + #.-.-.-.-.-.f ..-.-.-.-.-.....-.-.-.-.-.&.a -.2.-.-.-.$.a -.-.-.-.-.-.y ",
"& ~ ^ ^ ^ ^ ~ * F ^ ^ ^ ^ ^ j S.Q.Q.Q.Q.Q.f.M.Q.Q.Q.Q.Q.n.a.Q.Q.Q.Q.Q.S.2.Q.Q.Q.Q.Q.L.%.E.Q.Q.Q.Q.E.X.",
"$ ~ ~ ^ ^ ^ ! * Q ^ ^ ^ ^ ~ Y S.Q.Q.Q.Q.Q.h.n.Q.Q.Q.Q.Q.M.d.Q.Q.Q.Q.Q.S.-.Q.Q.Q.Q.Q.L.$.R.Q.Q.Q.Q.E.O.",
"$ ~ ^ ^ ^ ^ ! & Q ^ ^ ^ ^ ^ j A.Q.Q.Q.Q.Q.a.z.Q.Q.Q.Q.Q.z.a.Q.Q.Q.Q.Q.Z.-.E.Q.Q.Q.Q.K.@.R.Q.Q.Q.Q.T...",
"# F ^ ^ ^ ^ Q # R ^ ^ ^ ^ ~ @ n.Q.Q.Q.Q.E.*.a.Q.Q.Q.Q.Q.a.@.E.Q.Q.Q.Q.M.f E.Q.Q.Q.Q.S.a K.Q.Q.Q.Q.P.a ",
"o S ^ ^ ^ ^ S < H ^ ^ ~ ^ D u -.Q.Q.Q.Q.P.s +.E.Q.Q.Q.E.+.s L.Q.E.Q.Q.-.y S.Q.Q.Q.Q.f.< v.Q.Q.Q.Q.m., ",
"  & ! ^ ^ ! h d.k W ^ ^ ~ j a.O.C.Q.Q.E.s.-.$.z.Q.Q.Q.z.$.-.a.E.Q.Q.V.X.a.%.E.Q.Q.J.X.4.O.Y.Q.Q.T.O.  ",
"  X - T S & -.E.s.0 L R ; O.T.n.d n.A.p.d P.Z.s z.S.k.s C.P...-.A.v.s v.T.X.-.S.N.c i.J.@.@.Z.V.@.X   ",
"    . o o #.Y.Q.T.a.y y +.P.Q.E.h.a y ..A.Q.Q.M.s i s n.Q.Q.C...y g h.E.Q.H.+.i i 5.Y.Y.m.o o : .     ",
"        o m.Q.Q.E.Q.P.S.E.E.Q.E.E.L.S.T.E.Q.Q.Q.Y.S.Y.Q.Q.Q.Q.T.S.P.Q.Q.Q.Q.E.D.J.Q.Q.U.m.<           ",
"        X n.Q.Q.W.Q.Q.Q.Q.Q.Q.Q.Q.Q.Q.Q.Q.Q.E.Q.Q.Q.Q.Q.Q.Q.Q.Q.Q.Q.Q.Q.Q.Q.Q.Q.Q.Q.W.U.M.<           ",
"        2 V.Q.Q.Q.Q.Q.Q.Q.W.Q.Q.Q.Q.Q.Q.Q.Q.Q.Q.Q.Q.E.Q.Q.Q.Q.Q.Q.Q.Q.Q.Q.E.Q.Q.Q.Q.Q.I.m.<           ",
"        X m.Q.Q.Q.Q.Q.Q.W.Q.Q.Q.Q.Q.Q.Q.Q.Q.Q.Q.Q.Q.Q.Q.E.Q.Q.Q.Q.Q.Q.Q.Q.Q.Q.Q.Q.Q.Q.U.m.<           ",
"        X m.Q.Q.Q.W.W.Q.Q.Q.Q.Q.E.Q.Q.E.Q.Q.Q.Q.Q.Q.Q.Q.Q.Q.E.Q.Q.Q.E.Q.Q.Q.Q.Q.Q.Q.Q.U.m.<           ",
"        X m.Q.Q.Q.Q.Q.Q.Q.Q.Q.Q.Q.Q.Q.Q.Q.E.Q.Q.Q.Q.Q.Q.Q.Q.Q.Q.Q.Q.Q.Q.Q.Q.Q.Q.Q.Q.Q.U.m.<           ",
"        X n.Q.Q.Q.W.n.5.5.5.a.a.d.a.a.a.f.T.Q.Q.Q.H.a.a.a.5.d.a.s.a.a.s.a.a.a.a.m.Q.Q.U.m.<           ",
"        X V.Q.Q.Q.R.c w q q q q q q q q y H.Q.E.Q.z.4 ' [ [ ..9 3 1 ' ' [ [ ' 4 #.W.Q.U.m.<           ",
"        X m.Q.Q.Q.R.n / _ _ _ _ ) _ _ ) v H.Q.Q.Q.z.7.u.e.t.q.q.>.;.y.e.y.e.e.<.=.W.Q.U.m.<           ",
"        X m.Q.Q.Q.R.n / _ _ _ _ _ _ _ _ v D.Q.Q.Q.c.7.u.u.u.u.t.>.;.y.e.y.y.t.<.=.E.Q.Y.N.<           ",
"        : m.Q.Q.W.E.n / _ _ _ _ _ _ _ _ k G.Q.Q.Q.k.7.u.u.u.u.r.>.;.y.y.y.y.t.<.=.Q.Q.Y.m.<           ",
"        X n.Q.Q.Q.R.n / _ _ _ _ _ _ _ ) v D.Q.Q.Q.x.7.u.u.u.u.t.>.;.y.y.y.y.t.<.=.W.E.Y.m.<           ",
"        X V.Q.Q.W.E.n / _ _ _ _ _ _ _ _ v D.Q.Q.Q.l.7.u.u.t.u.t.>.;.y.y.y.y.t.<.=.W.W.Y.m.<           ",
"        X m.Q.E.Q.R.@./ _ _ _ _ _ _ _ _ v D.Q.Q.Q.z.7.u.u.u.u.r.>.;.y.u.u.u.e.<.=.E.W.Y.m.<           ",
"        2 m.Q.Q.Q.R.n / _ _ _ _ _ _ _ _ v D.Q.Q.Q.k.6.r.9.9.9.0.>. .9.9.9.9.0.1.=.Q.Q.U.m.<           ",
"        , m.Q.Q.Q.R.n / _ _ _ _ _ _ _ _ v D.Q.Q.Q.c.7 | | | | | { 7 | | | | | { =.E.Q.U.m.<           ",
"        X m.Q.Q.Q.R.n / _ _ _ _ _ _ _ _ v D.Q.Q.Q.x.1 6 6 6 6 6 1 2 6 6 6 6 6 1 #.E.Q.Y.m.<           ",
"        X n.Q.Q.Q.E.n / _ _ _ _ _ _ _ _ v D.Q.Q.Q.x.6.t.e.e.e.q.,.o.e.w.e.t.w.1.=.W.Q.U.m.<           ",
"        . V.Q.Q.Q.E.n / _ _ _ _ _ _ ) ) v D.Q.Q.Q.x.7.u.y.y.y.t.>.;.u.u.u.y.t.<.=.W.Q.U.m.<           ",
"        X n.Q.Q.Q.R.n / _ _ _ _ _ _ I U v D.Q.Q.Q.x.7.u.y.y.y.t.>.;.t.u.u.t.t.<.=.E.Q.U.N.<           ",
"        X V.Q.Q.Q.R.n / _ _ _ _ _ _ r I v G.Q.Q.Q.x.7.u.y.y.y.r.>.;.u.u.u.u.t.<.=.Q.W.U.m.<           ",
"        : m.Q.Q.Q.R.n / _ _ _ _ _ _ r r v D.Q.Q.Q.x.7.u.u.y.y.t.>.;.u.u.y.y.t.<.=.Q.Q.U.m.<           ",
"        X m.Q.Q.Q.E.n / _ _ _ _ _ _ I I v G.Q.Q.Q.k.7.u.u.u.y.t.>.;.u.u.y.y.y.1.=.E.Q.U.N.<           ",
"        X n.Q.E.Q.R.n / _ _ _ _ _ _ ( / v G.Q.Q.Q.k.6.r.q.q.q.0.>.o.q.q.r.9.r.<.%.W.Q.U.m.<           ",
"        : V.Q.Q.Q.R.@./ _ _ _ _ _ _ _ _ v D.Q.Q.Q.x.] ,.:.:.:.:.{ 7 :.:.:.:.:.} #.E.W.U.m.<           ",
"        X m.Q.Q.Q.R.n / _ _ _ _ _ _ _ _ v S.Q.Q.Q.N.a a a s a a p p a a a a a p 5.Q.W.U.m.<           ",
"        : N.Q.Q.W.E.n / _ _ _ _ _ _ _ _ v G.Q.Q.W.E.R.Y.R.J.R.Y.Y.U.Y.Y.Y.Y.Y.T.R.Q.Q.U.N.<           ",
"        : b.Q.Q.Q.R.n / _ _ _ _ _ _ _ _ v D.W.Q.Q.Q.Q.Q.Q.Q.Q.Q.Q.Q.Q.Q.Q.Q.Q.Q.Q.Q.W.U.m.<           ",
"        X m.Q.Q.Q.R.n / ` _ _ _ _ _ _ _ v D.W.W.W.W.Q.W.Q.W.Q.Q.Q.Q.Q.Q.Q.Q.Q.E.Q.W.W.U.m.<           ",
"        X x.Y.U.I.P.b / _ _ _ _ _ _ _ _ v D.R.J.J.R.R.J.Y.Y.Y.Y.Y.U.U.Y.U.U.Y.U.I.U.U.I.N.<           ",
"        X x.U.I.K.G.b / ` ` ` ` _ _ _ _ v N.J.J.J.J.Y.J.J.J.J.J.J.U.J.J.J.I.I.J.I.I.I.I.N.<           ",
"        X %.j.f.g.d.g r I I I I r r r r w 3.5.j.j.5.j.j.f.f.j.f.j.j.f.j.f.j.h.f.g.g.g.j.3.:           ",
"          . X . X X . X X . X X : : : . : : : : : . : 2 : . . . . : X . X X . . . X . . X .           "
};
