/* XPM */
static char *_31726169989[] = {
/* columns rows colors chars-per-pixel */
"51 64 173 2 ",
"   c None",
".  c #2E3959",
"X  c #313C5C",
"o  c #383F5E",
"O  c #533B59",
"+  c #593B59",
"@  c #653B57",
"#  c #7E3D57",
"$  c #723D58",
"%  c #7D3F59",
"&  c #37405F",
"*  c #2F4C6D",
"=  c #3B4563",
"-  c #3D4866",
";  c #334A6C",
":  c #344769",
">  c #2F4F70",
",  c #344E72",
"<  c #2D5173",
"1  c #39577B",
"2  c #315A7A",
"3  c #3A587C",
"4  c #31607F",
"5  c #56485B",
"6  c #565059",
"7  c #4F4B56",
"8  c #66435E",
"9  c #7B425C",
"0  c #7E685A",
"q  c #424A65",
"w  c #444E6A",
"e  c #484865",
"r  c #534864",
"t  c #46506D",
"y  c #4A536F",
"u  c #51556D",
"i  c #4B5672",
"p  c #4F5974",
"a  c #525D77",
"s  c #525F79",
"d  c #565671",
"f  c #734F69",
"g  c #7A4963",
"h  c #71536C",
"j  c #685D76",
"k  c #715A73",
"l  c #57617B",
"z  c #5B647D",
"x  c #6B6163",
"c  c #656877",
"v  c #696C7A",
"b  c #6F627A",
"n  c #8D3C56",
"m  c #883D57",
"M  c #933C55",
"N  c #9E3F57",
"B  c #903F58",
"V  c #9A3F58",
"C  c #A33E56",
"Z  c #AC3E55",
"A  c #B43E54",
"S  c #C33E53",
"D  c #CB3E52",
"F  c #DB3E52",
"G  c #E53F52",
"H  c #8A415A",
"J  c #83445E",
"K  c #934159",
"L  c #A44057",
"P  c #B94056",
"I  c #846B59",
"U  c #896F5A",
"Y  c #8D7159",
"T  c #CB4055",
"R  c #C94257",
"E  c #DB4054",
"W  c #D34054",
"Q  c #E34154",
"!  c #EB4153",
"~  c #F24153",
"^  c #AC8258",
"/  c #B6895A",
"(  c #BD8D5A",
")  c #B0855A",
"_  c #C08F5A",
"`  c #395F85",
"'  c #316686",
"]  c #3A6086",
"[  c #316D8E",
"{  c #337B9B",
"}  c #3E779C",
"|  c #2F7495",
" . c #5E6982",
".. c #43769E",
"X. c #606780",
"o. c #636C84",
"O. c #6A6F87",
"+. c #726F86",
"@. c #65728A",
"#. c #69738A",
"$. c #6D788E",
"%. c #657087",
"&. c #78788E",
"*. c #72768D",
"=. c #667990",
"-. c #737D93",
";. c #4479A2",
":. c #3384A5",
">. c #378BAC",
",. c #3787A8",
"<. c #399ABE",
"1. c #3799BC",
"2. c #778196",
"3. c #788296",
"4. c #7C8599",
"5. c #7F899E",
"6. c #4187AE",
"7. c #4A8BB7",
"8. c #4986B2",
"9. c #4EBDE9",
"0. c #4BBCE6",
"q. c #52BEEB",
"w. c #59BCED",
"e. c #5DBDF1",
"r. c #52C0EE",
"t. c #5BC2F4",
"y. c #5FC4F8",
"u. c #60C5FA",
"i. c #828A9E",
"p. c #83879B",
"a. c #818CA0",
"s. c #898FA2",
"d. c #8690A4",
"f. c #8B95A6",
"g. c #8D98A7",
"h. c #8D96A9",
"j. c #8E99AA",
"k. c #939CAD",
"l. c #989FAF",
"z. c #979FB0",
"x. c #95A1AF",
"c. c #96A0B1",
"v. c #9BA4B5",
"b. c #9EA9B8",
"n. c #9FABB7",
"m. c #A0A7B7",
"M. c #A2ACBA",
"N. c #A1A8B7",
"B. c #A5B0BD",
"V. c #ACB1BF",
"C. c #ABB4C2",
"Z. c #AEB8C6",
"A. c #AFBCC9",
"S. c #B0B4C1",
"D. c #B3B9C6",
"F. c #B4BDCA",
"G. c #B6C1CE",
"H. c #BAC3CE",
"J. c #BCC8CF",
"K. c #BDC6D1",
"L. c #BFCAD3",
"P. c #C3CDD5",
"I. c #C5CFD9",
"U. c #C0C7D2",
"Y. c #C5D1D6",
"T. c #C6D2D8",
"R. c #CAD3DB",
"E. c #CED7E0",
"W. c #CFD8E1",
"Q. c #D3DBE4",
"!. c #D7E0E7",
"~. c #DAE3EA",
"^. c #D7E1E8",
/* pixels */
"          . X . X X X X X X . X . . . . . X . X X . X X . . X X . X X . X X . X X . X X . .           ",
"          p c.v.v.v.v.b.v.v.v.v.b.b.b.v.v.b.v.b.v.v.v.v.b.n.v.v.v.b.v.b.v.v.v.v.v.b.v.x.f.l           ",
"          o.^.~.~.~.~.~.~.~.~.~.~.~.~.~.~.~.~.~.~.~.~.~.~.~.~.~.~.~.~.~.~.~.~.~.~.~.~.!.L.%.          ",
"          o.Q.~.~.~.~.~.~.~.~.~.~.~.~.~.~.~.~.~.~.~.~.~.~.~.~.^.~.~.~.~.~.~.~.~.~.^.^.!.L.%.          ",
"          o.Q.^.^.^.^.^.~.^.^.^.^.^.^.~.^.^.~.Q.~.~.^.^.^.^.^.^.^.^.^.^.~.~.^.^.^.^.^.R.L.o.          ",
"          z L.T.T.T.T.T.R.T.T.T.Y.Y.Y.Y.T.T.T.P.T.R.Y.Y.T.T.Y.Y.T.T.T.T.R.T.T.T.Y.Y.T.Y.L.O.          ",
"          l G.J.J.J.J.J.J.J.J.J.J.J.J.J.K.K.K.K.K.L.J.J.L.J.J.J.J.J.J.J.J.J.J.J.J.J.J.J.J.o.          ",
"          = p a a a a l a a a a s s s s s l  .s s s s s s s s s p l p l p l p l l s p s s =           ",
"          O.f.d.d.d.a #.f.f.s.s.d m M C N n O m N C V B r a.d.h.d.-.p d.d.d.f.$.a d.d.d.f.o.          ",
"        - D.~.~.~.Q.#.J.~.~.~.Q.X.F G G G G $ G G G G G k Q.~.~.~.Y.#.Q.~.~.~.K.+.Q.~.~.~.D.q         ",
"        z W.~.~.~.U.#.Q.^.~.^.T.h G ~ ~ G G % G G G G G k E.~.~.~.R.#.Y.~.~.~.W.#.U.~.~.~.Q.z         ",
"        f.~.^.~.~.M.4.~.~.~.~.G.g ! ~ ~ G G % G ~ G G G h I.~.~.~.Q.*.G.~.~.~.~.4.B.~.~.~.~.s.        ",
"      q F.~.~.~.~.i.v.~.~.~.~.C.K ~ ~ ~ ~ W % ~ ~ ~ ~ G f I.Q.~.~.~.4.M.~.~.~.~.l.p.~.~.~.~.F.e       ",
"      o.Q.~.~.~.Q.#.K.~.^.~.~.h.C ~ ~ ~ ~ D m G ~ ~ ~ ~ f L.~.~.~.~.h.k.~.~.~.~.F.#.Q.~.~.~.Q.X.      ",
"      h.~.~.^.~.U.O.Q.^.~.~.~.4.A ~ ~ ~ ~ R g G ~ ~ ~ ~ g F.~.~.~.~.B.5.~.~.~.~.Q.O.U.~.~.~.~.h.      ",
"    w F.~.~.^.~.M.4.^.~.~.~.Q.+.D ~ ~ ~ ~ A m ~ ~ ~ ~ ~ J F.~.~.~.~.F.&.^.~.^.~.^.3.M.~.~.^.~.H.t     ",
"    O.Q.~.~.~.~.a.v.~.~.~.~.E.j F G ~ ~ ~ R H G ~ ~ ~ ~ H D.~.~.~.~.I.O.E.~.~.~.~.l.s.~.~.~.~.Q.o.    ",
"  X l.~.~.~.Q.Q.#.F.~.~.~.~.L.f G G ~ ~ ~ A V ~ ~ ~ ~ ~ m C.~.~.~.Q.Q.#.P.~.~.~.~.F.+.Q.~.~.~.~.k..   ",
"  w U.~.~.~.~.P.#.E.~.Q.Q.~.F.g ~ ~ ~ ~ ~ Z K ~ ~ ~ G G B m.~.~.~.~.Q.-.F.~.~.~.~.E.O.P.~.~.~.~.U.w   ",
"  #.Q.~.~.~.~.M.5.~.~.~.~.~.C.B ~ ~ ~ ~ ~ C C ~ ~ ~ ~ G V z.~.~.~.~.~.a.b.~.~.~.~.~.-.B.~.~.^.~.Q.#.  ",
"X l.~.^.Q.^.~.s.z.Q.~.~.~.Q.s.C ~ G ~ G ~ V L ~ G G G G C k.~.Q.Q.Q.~.z.h.~.~.Q.~.~.z.s.^.^.^.^.~.c.X ",
"X  .#.$.*.#.#.w  .#.#.#.#.#.i + % $ $ $ $ O + $ $ $ m 9 O a $.$.$.#.#.X.i #.@.#.#.#. .w #.#.#.#.#.c X ",
"w -.-.-.-.-.-.w $.-.-.-.-.-.y $ m % % % % O @ % B m m m @ a -.-.-.-.-.%.i -.-.-.-.-.@.t -.-.-.-.-.-.w ",
"o.Q.~.~.~.~.Q.$.E.~.~.~.~.~.&.S G G ~ ~ ~ V A ~ G G G G Z d.~.~.~.~.~.F.4.~.~.~.~.~.I.$.Q.~.~.~.~.Q. .",
" .Q.Q.~.~.^.Q.$.I.~.~.~.~.^.-.D ~ ~ ~ ~ ~ N A ~ ~ ~ ~ ~ Z d.~.~.~.~.~.F.-.~.~.~.~.~.T.$.Q.^.^.~.^.Q.o.",
" .E.~.~.~.~.E.O.I.Q.~.~.^.^.*.S ~ ~ ~ ~ G B L ~ ~ ~ ~ ~ Z a.~.~.~.Q.~.D.-.Q.~.~.~.~.P.O.R.^.~.~.^.W.z ",
"d I.~.~.~.~.I.i F.~.~.^.~.Q. .Z ~ ~ ~ ~ G % B ~ ~ ~ ~ ~ M #.~.Q.~.~.~.m. .Q.~.Q.^.~.F.p I.~.~.^.~.P.i ",
"& M.~.~.^.~.m.q j.~.~.~.~.F.- % ~ ~ ~ ~ F r 8 Q ~ ~ ~ ! 8 d R.~.~.~.~.-.w F.~.~.^.~.f.= N.~.~.~.~.M.= ",
"  X.R.~.~.E.o.d.o.U.~.~.Q.-.5.j D ~ ~ ~ M -.O.Z ~ ~ ~ L O.-.s.Q.~.~.C. .5.$.Q.~.~.P.z 4.o.R.~.~.E.X.  ",
"  X O.S.S.O.-.Q.a. .C.F.-. .E.v.r A D M d P.Z.r L R L r Z.I.a a.F.v.d v.E. .-.F.B.z i.P.#.O.S.V.O.X   ",
"    . o o O.R.~.E.5.t w o.K.~.Q.h.i e s Z.~.~.b.a e p b.~.~.F.s w i z.Q.~.L.o.t t 4.Q.R.N.o o o X     ",
"        X M.~.^.~.Q.U.K.Q.~.~.~.Q.I.F.W.~.~.~.~.R.F.E.Q.Q.~.~.E.F.I.Q.~.~.~.Q.F.U.!.^.T.M.-           ",
"        o M.~.~.~.~.~.~.~.~.~.Q.~.~.~.~.~.^.^.~.~.~.~.Q.^.~.^.~.~.~.Q.~.~.~.~.~.~.~.!.R.M.&           ",
"        X B.~.~.~.~.~.~.~.~.~.~.~.~.~.~.~.~.~.^.~.~.~.~.~.~.~.~.~.~.~.~.~.~.~.~.~.~.!.R.B.q           ",
"        = M.~.~.~.~.~.~.~.~.~.~.^.~.^.~.^.~.~.~.~.~.^.~.~.~.~.~.Q.~.~.~.~.~.~.~.^.~.!.R.M.-           ",
"        X M.~.~.Q.~.~.Q.~.~.~.~.^.~.~.~.^.~.^.~.~.~.~.~.~.^.^.^.~.~.~.~.~.Q.~.~.~.~.^.T.M.-           ",
"        X M.~.~.~.~.~.~.Q.~.~.~.~.~.~.~.~.~.^.~.~.~.~.~.~.~.~.~.~.~.~.~.~.~.~.~.~.~.^.R.M.-           ",
"        o M.~.~.~.~.b.a.a.a.s.a.s.5.a.a.f.E.~.~.~.U.a.s.i.i.s.i.s.a.a.a.s.a.a.s.B.^.^.R.M.-           ",
"        X N.~.~.~.Q.z 7 6 6 6 6 6 6 6 6 e G.~.^.~.z., ` ` ` ] ] , ; ` ` ] ` ` , %.^.^.T.M.-           ",
"        o V.~.~.~.!.v Y ( / ( / ( / ( / x K.~.~.~.k.8.u.u.t.t.r.>.;.y.e.y.e.e.1.=.^.^.T.B.-           ",
"        X M.~.~.~.W.v Y _ _ ( ( ( ( ( ( x F.~.~.~.c.7.u.u.y.y.t.>.;.y.y.y.y.t.1.=.^.^.R.M.-           ",
"        & M.~.~.^.W.v ) _ _ ( ( ( ( ( / x K.~.~.~.k.7.u.y.y.t.t.>.;.y.y.y.y.t.1.=.Q.^.R.B.-           ",
"        X M.~.~.^.Q.v ^ _ _ _ _ ( ( ( ( x G.~.~.~.x.7.u.y.y.y.t.>.;.y.y.y.y.y.<.=.^.^.R.M.-           ",
"        = M.~.~.^.W.v ^ _ _ _ _ ( ( ( ( x G.~.~.~.x.7.y.y.y.y.t.>.;.y.y.y.y.y.<.=.Q.^.T.M.-           ",
"        X M.~.~.~.Q.v ^ ( ( ( ( ( ( ( ( x G.~.~.~.k.7.y.u.u.y.t.>.;.y.u.u.u.e.<.=.^.^.R.M.-           ",
"        X M.~.~.^.W.v ^ ( ( ( ( ( ( ( ( x G.~.~.~.l.6.r.9.0.0.0.>.} 9.9.9.9.0.1.=.Q.^.R.M.-           ",
"        X b.~.~.^.Q.o.^ ( ( ( ( ( ( ( ( x G.~.~.~.c.2 { { { { { ' 2 { { { { { [ =.Q.~.R.M.-           ",
"        & C.~.~.^.Q.v ^ ( ( ( ( ( ( ( ( x G.~.~.~.c.; 1 1 1 1 1 ; ; 1 1 1 1 1 * #.Q.~.R.M.-           ",
"        X b.~.~.~.Q.v ^ _ ( ( ( ( ( ( ( x G.~.~.~.x.8.t.e.e.e.q.,...e.e.e.t.w.1.=.!.~.T.B.-           ",
"        X b.~.~.^.Q.v ^ ( ( ( ( ( ( / / x G.~.^.~.x.7.u.y.y.y.t.>...u.u.u.y.t.<.=.!.~.T.M.-           ",
"        X C.~.~.~.E.o.^ _ ( ( ( ( ( U Y x G.~.~.~.k.7.u.y.y.y.t.>...u.t.u.u.t.<.=.!.~.T.M.-           ",
"        X C.~.~.^.Q.v ^ ( ( ( ( ( ( 0 I x J.~.~.~.x.7.u.y.y.y.r.>.;.u.u.u.t.t.<.=.!.^.T.M.-           ",
"        X C.~.~.^.E.v ^ ( ( ( ( ( ( 0 I x G.~.~.~.x.7.u.y.y.y.t.>.;.u.u.y.y.t.<.=.!.!.R.M.-           ",
"        X b.~.~.~.Q.v ^ _ ( ( ( ( ( I U x J.~.~.~.l.7.y.u.u.y.t.>.;.u.u.y.t.t.1.=.!.!.T.M.-           ",
"        X C.^.^.^.Q.v ^ ( ( ( ( ( ( ) ) x J.~.~.~.l.6.r.q.q.q.9.>...r.r.r.r.r.1.$.!.^.R.M.-           ",
"        & b.~.^.^.Q.v ^ _ ( ( ( ( ( ( ( x G.~.~.~.c.' :.:.:.:.:.[ 2 :.:.:.:.:.| @.!.!.T.B.-           ",
"        & M.~.~.^.Q.v ^ ( ( ( ( ( ( ( ( x G.~.~.~.B.i 3 i i i p y i i i i i i i 4.^.^.R.M.-           ",
"        X B.~.~.^.E.v ^ ( ( ( ( ( ( ( ( x G.~.~.~.^.R.E.R.R.R.R.R.R.R.R.R.R.E.R.Q.~.~.T.M.-           ",
"        & n.~.~.~.E.v ^ _ ( ( ( ( ( ( ( x G.^.^.~.~.~.~.~.~.~.~.~.~.~.~.~.~.^.^.~.~.^.T.M.-           ",
"        X M.~.^.~.Q.v ^ ( ( ( ( ( ( ( ( x G.^.^.^.^.~.^.^.^.^.~.~.^.^.^.~.^.^.^.^.^.^.T.M.-           ",
"        & x.R.Y.R.P.v Y ( ( ( ( ( ( ( ( x C.R.T.T.Y.T.T.R.R.T.W.R.R.Y.R.R.T.T.T.Y.T.T.Y.B.-           ",
"        X x.Y.Y.Y.U.v ^ _ _ _ _ ( ( ( ( x B.T.L.Y.Y.L.Y.L.L.L.L.L.L.Y.L.P.Y.Y.P.Y.Y.Y.Y.B.-           ",
"        X *.g.g.g.s.u I U U U U 0 U 0 0 6 3.g.d.g.g.g.g.5.g.f.d.j.g.g.g.h.h.f.h.g.g.g.g.3.&           ",
"          X X X . X X . . X . X . & & . & & & . . . . & & . & & . & . & . . . . . . . . & .           "
};
