/* XPM */
static char *_41726169989[] = {
/* columns rows colors chars-per-pixel */
"51 64 171 2 ",
"   c None",
".  c #2E3959",
"X  c #313C5C",
"o  c #383F5E",
"O  c #533C59",
"+  c #593B59",
"@  c #653B57",
"#  c #7E3D57",
"$  c #723D58",
"%  c #7C3F59",
"&  c #37405F",
"*  c #2F4C6D",
"=  c #3B4563",
"-  c #3D4866",
";  c #334A6C",
":  c #344769",
">  c #2F4F70",
",  c #344E72",
"<  c #2D5173",
"1  c #39577B",
"2  c #315A7A",
"3  c #3A587C",
"4  c #31607F",
"5  c #55435F",
"6  c #554F57",
"7  c #565059",
"8  c #4F4B56",
"9  c #66435E",
"0  c #7E685A",
"q  c #424A65",
"w  c #444E6B",
"e  c #494765",
"r  c #534A66",
"t  c #46506D",
"y  c #4A526F",
"u  c #4B5672",
"i  c #4F5974",
"p  c #545671",
"a  c #525D77",
"s  c #525F79",
"d  c #51566B",
"f  c #7A4963",
"g  c #794A64",
"h  c #6F546D",
"j  c #72516B",
"k  c #715972",
"l  c #625C76",
"z  c #57617B",
"x  c #5B647D",
"c  c #6B6163",
"v  c #656877",
"b  c #696C7A",
"n  c #6E6078",
"m  c #70657D",
"M  c #8D3C56",
"N  c #843F59",
"B  c #8E3F59",
"V  c #863C56",
"C  c #933C55",
"Z  c #9E3E56",
"A  c #923F58",
"S  c #A23F56",
"D  c #AC3E55",
"F  c #B43E55",
"G  c #C33E53",
"H  c #C83D52",
"J  c #D93F52",
"K  c #E43F52",
"L  c #8A415B",
"P  c #83455E",
"I  c #924159",
"U  c #9A4058",
"Y  c #BC4056",
"T  c #846B59",
"R  c #896F5A",
"E  c #8D7159",
"W  c #CC4155",
"Q  c #D94054",
"!  c #E34154",
"~  c #EB4153",
"^  c #F24153",
"/  c #AC8258",
"(  c #B6895A",
")  c #BD8D5A",
"_  c #B0855A",
"`  c #C08F5A",
"'  c #395F85",
"]  c #316686",
"[  c #3A6086",
"{  c #316D8E",
"}  c #337B9B",
"|  c #3E779C",
" . c #2F7495",
".. c #5E6982",
"X. c #43769E",
"o. c #606780",
"O. c #626C84",
"+. c #696E86",
"@. c #65728A",
"#. c #69738A",
"$. c #6D788F",
"%. c #687087",
"&. c #78788E",
"*. c #73738A",
"=. c #667990",
"-. c #737D93",
";. c #4479A2",
":. c #3384A5",
">. c #378BAC",
",. c #3787A8",
"<. c #399ABE",
"1. c #3799BC",
"2. c #778196",
"3. c #788297",
"4. c #7B8599",
"5. c #7F899E",
"6. c #4187AE",
"7. c #4A8BB7",
"8. c #4986B2",
"9. c #4EBDE9",
"0. c #4BBCE6",
"q. c #52BEEB",
"w. c #59BCED",
"e. c #5DBDF1",
"r. c #52C0EE",
"t. c #5BC2F4",
"y. c #5FC4F8",
"u. c #60C5FA",
"i. c #80879B",
"p. c #828A9E",
"a. c #828CA0",
"s. c #8690A4",
"d. c #8B95A6",
"f. c #8D98A7",
"g. c #8D97A9",
"h. c #8E98A9",
"j. c #939CAD",
"k. c #959FB0",
"l. c #95A1AF",
"z. c #96A0B1",
"x. c #9BA4B4",
"c. c #9EAAB9",
"v. c #9FABB7",
"b. c #A0A7B7",
"n. c #A2ACBA",
"m. c #A1A8B7",
"M. c #A4B0BD",
"N. c #AAB1BF",
"B. c #AEB8C6",
"V. c #ACB5C2",
"C. c #B0B3C0",
"Z. c #B2B8C5",
"A. c #B4BDCA",
"S. c #B6C1CE",
"D. c #B9C3CE",
"F. c #BCC8CF",
"G. c #BDC5D1",
"H. c #BFCAD3",
"J. c #C3CDD5",
"K. c #C5CED9",
"L. c #C0C7D2",
"P. c #C5D1D6",
"I. c #C6D2D8",
"U. c #CAD3DB",
"Y. c #CED7E0",
"T. c #CFD9E1",
"R. c #D3DBE4",
"E. c #D7E0E7",
"W. c #D7E1E8",
"Q. c #DAE3EA",
"!. c #D8E0E7",
/* pixels */
"          . X X . X X X X X . X X . X X . X X X X X X . & . . & . . & . . & . . . . X . & .           ",
"          i z.x.x.x.x.c.x.x.x.x.x.v.x.x.x.x.x.c.x.x.x.x.x.v.x.x.x.x.x.c.x.x.x.x.x.v.x.z.f.i           ",
"          O.E.Q.Q.Q.Q.Q.Q.Q.Q.Q.Q.Q.Q.Q.Q.Q.Q.Q.Q.Q.Q.Q.Q.Q.Q.Q.Q.Q.Q.Q.Q.Q.Q.Q.Q.Q.Q.E.H.@.          ",
"          O.R.Q.Q.Q.Q.Q.Q.Q.Q.Q.Q.Q.Q.Q.Q.Q.Q.Q.Q.Q.Q.Q.Q.Q.Q.Q.Q.Q.Q.Q.Q.Q.Q.Q.Q.Q.W.R.H.@.          ",
"          O.R.E.W.W.W.W.Q.Q.W.Q.W.W.W.E.W.W.W.W.Q.Q.W.W.W.W.Q.Q.W.W.Q.Q.Q.Q.Q.Q.W.W.W.T.G.@.          ",
"          x H.I.I.I.I.I.U.I.I.I.P.P.I.I.I.I.I.I.I.I.I.P.I.I.I.H.I.I.I.H.H.U.U.H.P.P.I.P.H.%.          ",
"          z S.F.F.F.F.F.F.F.F.F.F.F.F.F.G.H.G.G.H.F.F.F.F.F.F.F.F.F.F.F.F.F.F.F.F.F.F.F.F.O.          ",
"          = i a i z i z a a a a z a a a a a s s z s s s z s s s s s s s s s s s s z i z i =           ",
"          +.d.d.s.s.a #.d.s.s.s.u &.s.g.s.a.r N C C C N O Z B B I f d p.d.s.d.#.a s.s.s.d.+.          ",
"        - Z.Q.Q.Q.E.*.F.Q.Q.Q.R.$.K.Q.Q.Q.Y.k K ^ ^ ^ ! % K K ^ ^ Q n R.Q.Q.Q.F.*.E.Q.Q.Q.Z.-         ",
"        x T.Q.Q.Q.F.#.T.Q.Q.Q.I.#.Y.Q.Q.Q.Y.k K ^ ^ ^ ! $ K ^ ^ ^ ! h I.Q.Q.Q.T.#.L.Q.Q.Q.Y.v         ",
"        d.Q.R.Q.Q.n.4.Q.Q.Q.Q.A.-.Q.R.Q.Q.K.j K ^ ^ ^ ! $ J ^ ^ ^ ~ f D.Q.Q.Q.Q.4.n.Q.Q.Q.Q.s.        ",
"      q A.Q.Q.Q.Q.p.x.Q.Q.Q.Q.n.5.R.Q.Q.Q.H.P K ^ ^ ^ ~ $ Q ^ ^ ^ ^ L M.Q.Q.Q.Q.z.p.Q.Q.Q.Q.Z.q       ",
"      O.R.Q.Q.Q.R.#.F.Q.Q.Q.Q.h.j.Q.Q.Q.Q.H.P K ^ ^ ^ ~ % W ^ ^ ^ ^ U h.Q.Q.Q.Q.S.*.R.Q.Q.Q.R.O.      ",
"      g.Q.Q.Q.Q.L.+.T.Q.Q.Q.Q.5.V.W.Q.Q.Q.S.f K ^ ~ ^ ^ % W ^ ^ ^ ^ Y 4.Q.Q.Q.Q.U.#.L.Q.Q.Q.Q.h.      ",
"    w A.Q.Q.Q.Q.m.4.Q.Q.Q.Q.R.$.S.Q.Q.Q.Q.A.f ^ ^ ^ ^ ^ N W ^ ^ ^ ^ G *.!.Q.Q.!.Q.4.m.Q.Q.Q.Q.D.w     ",
"    +.R.Q.Q.Q.Q.a.k.Q.Q.Q.Q.Y.#.K.R.R.Q.Q.V.L K ^ ^ ^ ^ B G ^ ^ ^ ^ J n T.Q.Q.R.Q.z.a.Q.Q.Q.Q.R.%.    ",
"  X j.Q.Q.Q.Q.R.$.A.Q.Q.Q.Q.L.$.R.Q.Q.Q.Q.V.Z ^ ^ ^ ^ ^ B Y ^ ^ ^ K K j K.Q.Q.Q.Q.A.*.R.Q.Q.Q.Q.j..   ",
"  w L.Q.Q.Q.Q.L.#.Y.Q.Q.Q.Q.A.&.R.Q.Q.Q.Q.b.I ^ ^ ^ ^ K B D ^ ^ ^ ^ ~ f A.Q.Q.Q.Q.R.#.L.Q.Q.Q.Q.L.w   ",
"  *.R.Q.Q.Q.Q.m.4.Q.Q.Q.Q.Q.b.a.Q.Q.Q.Q.Q.k.S ^ ^ ^ ^ K U S ^ ^ ^ ^ ^ B M.Q.W.Q.Q.Q.3.n.Q.Q.W.Q.R.#.  ",
"X k.Q.Q.Q.Q.Q.p.k.R.Q.R.R.Q.d.k.Q.R.Q.R.Q.g.S K K K K K S S K K ^ K ^ D h.Q.Q.Q.Q.Q.k.a.Q.W.Q.Q.Q.x.X ",
"X ..#.#.#.#.#.t ..#.#.#.$.#.u s $.#.$.$.$.i + % $ $ N % O + % $ $ $ $ + u #.@.#.#.#.x t #.#.@.#.#.x X ",
"w -.-.-.-.-.-.t $.-.2.-.-.-.u %.-.-.-.-.&.a @ N N N # N @ + N % N M N $ p -.-.-.-.-.$.t -.-.-.-.-.-.w ",
"O.R.Q.Q.Q.Q.R.$.Y.Q.Q.Q.Q.R.-.A.Q.Q.Q.Q.Q.g.F K ^ ^ K ^ D A ^ ^ K K K G &.Q.Q.Q.Q.Q.K.$.R.Q.Q.Q.Q.R.O.",
"..R.Q.Q.Q.Q.R.$.K.Q.Q.R.Q.Q.2.A.Q.Q.Q.Q.Q.g.F K K K ^ ^ D A ^ ^ K ^ ^ J &.Q.Q.Q.Q.Q.K.$.T.Q.Q.R.R.R...",
"x R.E.Q.Q.Q.T.+.K.Q.Q.Q.Q.R.-.Z.Q.Q.Q.Q.Q.a.D K K K ^ ^ D A ^ ^ ^ ^ K G *.Q.Q.R.Q.Q.J.%.T.Q.Q.Q.Q.R...",
"u K.Q.Q.R.Q.K.u A.Q.Q.Q.Q.R.x x.Q.Q.Q.Q.R.$.Z K ^ ^ ^ ^ Z $ K K ^ ^ ^ D x R.Q.Q.Q.Q.A.i J.Q.Q.Q.Q.K.p ",
"o n.Q.Q.Q.Q.b.q h.Q.Q.Q.Q.A.w -.Q.Q.Q.Q.K.a 9 K ^ ^ ^ ^ 9 9 K K ^ ^ ^ B w A.Q.Q.Q.Q.f.= b.Q.Q.Q.Q.m.& ",
"  o.U.Q.Q.Y.O.s.O.L.Q.Q.R.-.5.o.Z.Q.R.Q.s.-.+.D ^ ^ K F #.-.M K K K F l 5.-.R.Q.Q.J...4.O.U.Q.Q.Y.O.  ",
"  X +.C.C.+.-.R.a...V.A.-...Y.x.a b.Z.i.a K.Z.r U Q S r B.K.p M J F r x.Y...-.A.N.x 5.J.#.+.C.C.+.X   ",
"    . o o #.U.Q.Y.5.t w O.G.Q.R.g.p w ..Z.Q.Q.m.a e i n.R.Q.Z...r y h.R.Q.G.@.w y 5.U.U.m.& o o .     ",
"        X m.Q.Q.Q.R.L.G.R.Q.Q.Q.R.K.A.Y.R.Q.Q.Q.U.A.Y.R.Q.Q.Q.Y.A.K.W.Q.Q.Q.Y.G.G.Q.Q.I.n.-           ",
"        & n.Q.Q.Q.Q.Q.Q.Q.W.Q.W.Q.Q.Q.Q.Q.Q.R.Q.Q.Q.Q.Q.Q.Q.Q.Q.Q.Q.Q.Q.Q.Q.Q.Q.Q.Q.E.I.n.-           ",
"        & M.Q.Q.R.Q.Q.Q.Q.Q.Q.Q.Q.Q.Q.Q.Q.Q.Q.Q.Q.Q.Q.Q.!.!.Q.Q.Q.Q.R.Q.Q.Q.Q.Q.Q.Q.E.I.n.-           ",
"        X n.Q.Q.Q.Q.W.Q.Q.Q.Q.Q.Q.Q.Q.R.Q.Q.W.Q.Q.Q.Q.!.Q.Q.Q.Q.R.Q.Q.Q.Q.Q.Q.Q.!.Q.Q.I.n.-           ",
"        X v.Q.Q.Q.Q.Q.Q.Q.W.Q.Q.Q.Q.Q.Q.W.Q.Q.Q.Q.!.Q.Q.!.Q.Q.Q.Q.Q.Q.Q.Q.Q.R.Q.Q.Q.Q.I.n.-           ",
"        X n.Q.Q.Q.Q.Q.Q.Q.Q.Q.Q.Q.Q.Q.Q.Q.Q.Q.Q.Q.Q.Q.Q.Q.Q.Q.Q.Q.Q.Q.Q.Q.Q.Q.Q.Q.Q.!.I.M.-           ",
"        & n.Q.Q.Q.R.c.a.a.5.a.a.a.5.a.a.h.U.Q.Q.Q.G.a.p.p.i.p.p.a.a.a.a.a.a.s.a.M.W.!.U.n.-           ",
"        & n.Q.!.Q.!.x 8 7 7 7 7 7 7 7 7 q F.Q.Q.Q.j., [ [ [ [ [ , ; ' ' [ ' [ , %.E.Q.I.n.-           ",
"        & n.Q.Q.Q.!.m E ) ) ( ) ( ) ) ( c G.Q.Q.Q.j.7.u.e.u.t.r.>.;.u.e.u.e.e.1.=.E.Q.I.n.-           ",
"        & n.Q.Q.Q.R.b / ) ) ) ) ) ) ) ) c S.Q.Q.Q.z.7.u.u.u.u.t.>.;.u.u.y.y.t.<.=.E.Q.I.n.-           ",
"        X n.Q.Q.R.R.b / ) ) ) ) ) ) ) ) c S.Q.Q.Q.z.7.u.y.y.y.t.>.;.u.u.y.y.t.<.=.W.E.U.n.-           ",
"        = n.Q.Q.W.T.b / ) ) ) ) ) ) ) ( c A.Q.Q.Q.z.7.u.y.y.y.r.,.X.u.u.y.y.t.<.=.E.!.U.n.-           ",
"        . M.Q.Q.Q.R.b / ` ) ) ) ) ) ) ) c G.Q.Q.Q.j.7.u.y.y.y.t.>.X.u.u.y.y.t.<.=.E.!.I.M.-           ",
"        X c.Q.Q.Q.T.b / ) ) ) ) ) ) ) ) c S.Q.Q.Q.z.7.u.u.u.u.r.>.;.u.u.u.u.t.<.=.E.W.U.n.-           ",
"        & c.Q.Q.Q.T.b / ) ) ) ) ) ) ) ) c S.Q.W.Q.j.6.r.9.9.9.0.>.| 9.9.9.9.0.1.=.R.Q.I.n.-           ",
"        & n.Q.Q.Q.T.+./ ) ) ) ) ) ) ) ) c S.Q.Q.Q.z.2 } } } } } ] 2 } } } } } { #.W.W.U.n.-           ",
"        & M.Q.Q.Q.T.b / ) ) ) ) ) ) ) ) c S.Q.Q.Q.j., 1 1 1 1 1 ; : 3 1 1 1 1 ; %.W.W.I.M.=           ",
"        X c.Q.Q.Q.R.b / ) ) ) ) ) ) ) ) c D.Q.Q.Q.z.7.e.e.e.e.q.,.X.e.e.e.t.w.1.=.!.Q.I.M.-           ",
"        & n.Q.Q.Q.T.b / ) ) ) ) ) ) ( ( c D.Q.Q.Q.z.7.y.y.y.y.t.>.X.u.t.u.u.t.<.=.!.Q.I.M.-           ",
"        X c.Q.Q.Q.T.b / ) ) ) ) ) ) R E c S.Q.Q.Q.k.7.y.y.y.y.t.>.;.u.u.u.u.t.<.=.!.!.I.M.-           ",
"        & V.Q.Q.Q.T.b / ` ) ) ) ) ) 0 T c D.Q.Q.Q.z.7.y.y.y.y.r.>.;.u.t.u.u.t.<.=.E.!.P.n.-           ",
"        & c.Q.Q.Q.T.b / ) ) ) ) ) ) 0 T c S.Q.Q.Q.z.7.u.y.y.y.t.>.;.u.u.t.u.t.<.=.E.!.I.n.&           ",
"        & n.Q.Q.Q.R.b / ` ) ) ) ) ) T R c F.Q.Q.Q.j.7.y.u.u.y.t.>.;.u.u.u.t.t.<.=.E.Q.I.M.-           ",
"        & c.Q.Q.W.T.b / ) ) ) ) ) ) _ _ c D.Q.Q.Q.j.6.q.q.q.q.9.>.X.q.q.r.r.r.1.=.!.!.I.M.-           ",
"        X c.Q.Q.Q.R.+./ ` ) ) ) ) ) ) ) c D.Q.Q.Q.z.{ :.:.:.:.:.{ 2 :.:.:.:.:. .@.!.Q.I.M.-           ",
"        & n.Q.Q.W.Y.b / ) ) ) ) ) ) ) ) c S.Q.Q.Q.M.i u u d 4 u y d u u u u u t a.Q.W.I.M.-           ",
"        X M.Q.Q.Q.R.b / ) ) ) ) ) ) ) ) c S.Q.Q.W.E.U.U.U.U.U.T.U.U.U.U.U.Y.U.Y.U.Q.Q.I.M.-           ",
"        & v.Q.Q.Q.Y.b / ) ) ) ) ) ) ) ) c S.W.W.Q.Q.Q.Q.Q.Q.Q.Q.Q.Q.Q.Q.Q.Q.W.Q.Q.Q.W.I.n.-           ",
"        & v.Q.E.Q.Y.b / ) ) ) ) ) ) ) ) c S.W.W.W.W.W.W.Q.W.Q.Q.W.W.W.Q.W.W.W.W.Q.W.W.I.n.&           ",
"        X l.U.I.U.L.v / ` ) ) ) ) ) ) ) c V.I.I.I.I.I.I.T.U.H.U.I.I.I.I.U.U.U.I.I.I.I.P.M.-           ",
"        & j.I.P.P.F.v / ` ` ) ` ) ) ) ) c M.P.P.P.P.P.P.H.H.H.U.H.I.H.H.P.H.I.H.P.H.P.P.M.-           ",
"        X $.f.d.f.s.d 0 R R R R R R T T 7 3.h.h.f.f.d.f.5.h.d.d.h.h.f.d.f.h.f.f.f.d.f.f.3.&           ",
"          X X X . X . . X X X X . . & . . & . . . . . . . . & . & & & . . . . . . & . . . &           "
};
