/* XPM */
static char *_51726169989[] = {
/* columns rows colors chars-per-pixel */
"51 64 174 2 ",
"   c None",
".  c #2E3959",
"X  c #313C5C",
"o  c #383F5E",
"O  c #4F3C5A",
"+  c #533B59",
"@  c #5B3C59",
"#  c #673E5A",
"$  c #743B56",
"%  c #7D3D57",
"&  c #713D58",
"*  c #7C3F59",
"=  c #37405F",
"-  c #2F4C6D",
";  c #3B4563",
":  c #3D4866",
">  c #334A6C",
",  c #344769",
"<  c #2F4F70",
"1  c #344E72",
"2  c #2D5173",
"3  c #39577B",
"4  c #315A7A",
"5  c #3A587C",
"6  c #31607F",
"7  c #55415E",
"8  c #554F57",
"9  c #565059",
"0  c #4F4B56",
"q  c #7C405B",
"w  c #7E685A",
"e  c #434A65",
"r  c #454E6B",
"t  c #4A4765",
"y  c #47516E",
"u  c #49526E",
"i  c #4B5672",
"p  c #4F5A75",
"a  c #525D77",
"s  c #525F79",
"d  c #565671",
"f  c #51566B",
"g  c #674F69",
"h  c #6D516B",
"j  c #72566F",
"k  c #695C75",
"l  c #5B647D",
"z  c #57617B",
"x  c #6B6163",
"c  c #656877",
"v  c #696C7A",
"b  c #71627B",
"n  c #8E3C55",
"m  c #8B3F58",
"M  c #813D57",
"N  c #933C55",
"B  c #953F58",
"V  c #9E3E56",
"C  c #A43E56",
"Z  c #AE3E55",
"A  c #B73D54",
"S  c #C43E54",
"D  c #CB3F54",
"F  c #DB3E52",
"G  c #D33E53",
"H  c #E43F52",
"J  c #82435C",
"K  c #8A405A",
"L  c #9B4159",
"P  c #AE4158",
"I  c #B74259",
"U  c #846B59",
"Y  c #896F5A",
"T  c #8D7159",
"R  c #C64257",
"E  c #C94155",
"W  c #C54459",
"Q  c #D64155",
"!  c #DA4154",
"~  c #E54153",
"^  c #ED4254",
"/  c #F24153",
"(  c #AC8258",
")  c #B6895A",
"_  c #BD8D5A",
"`  c #B0855A",
"'  c #C08F5A",
"]  c #395F85",
"[  c #316686",
"{  c #3A6086",
"}  c #316D8E",
"|  c #337B9B",
" . c #3E779C",
".. c #2F7495",
"X. c #5C6780",
"o. c #5E6982",
"O. c #43769E",
"+. c #606780",
"@. c #626C84",
"#. c #6D6B83",
"$. c #65728A",
"%. c #6A738A",
"&. c #6D788E",
"*. c #657087",
"=. c #667990",
"-. c #747D93",
";. c #797A90",
":. c #747087",
">. c #4479A2",
",. c #3384A5",
"<. c #378BAC",
"1. c #3787A8",
"2. c #399ABE",
"3. c #3799BC",
"4. c #778196",
"5. c #7B859A",
"6. c #7D899D",
"7. c #7A8296",
"8. c #4187AE",
"9. c #4A8BB7",
"0. c #4986B2",
"q. c #4EBDE9",
"w. c #4BBCE6",
"e. c #52BEEB",
"r. c #59BCED",
"t. c #5DBDF1",
"y. c #52C0EE",
"u. c #5BC2F4",
"i. c #5FC4F8",
"p. c #60C5FA",
"a. c #828A9E",
"s. c #80879B",
"d. c #828CA0",
"f. c #898FA2",
"g. c #8690A4",
"h. c #8B96A6",
"j. c #8D98A7",
"k. c #8D97A9",
"l. c #8E98A9",
"z. c #939CAD",
"x. c #989FAF",
"c. c #95A1AF",
"v. c #96A0B1",
"b. c #9BA4B5",
"n. c #9EA9B7",
"m. c #9EA9B9",
"M. c #A0A7B7",
"N. c #A2ACBA",
"B. c #A5ABBA",
"V. c #ACB1BF",
"C. c #A4B1BC",
"Z. c #ADB6C3",
"A. c #AEB9C6",
"S. c #B0B2C0",
"D. c #B3B9C6",
"F. c #B5BDCA",
"G. c #B6C1CE",
"H. c #BAC3CE",
"J. c #BCC8CF",
"K. c #BEC6D1",
"L. c #BFCAD3",
"P. c #C3CDD5",
"I. c #C6CFD9",
"U. c #C8CFD9",
"Y. c #C5D1D6",
"T. c #C6D2D8",
"R. c #CAD4DB",
"E. c #CED7E0",
"W. c #CFD9E2",
"Q. c #D3DCE4",
"!. c #D7E0E7",
"~. c #D7E0E8",
"^. c #DAE3EA",
"/. c #D8E0E7",
/* pixels */
"          . X X . X X X X X . X X X X X . X X X X X . X = . . = . . = . = = . . . = . . . .           ",
"          p v.b.b.b.b.n.b.b.b.b.b.n.b.b.b.b.b.n.b.b.b.b.b.n.b.b.b.b.b.b.v.b.b.b.b.n.b.v.j.s           ",
"          @.!.^.^.^.^.^.^.^.^.^.^.^.^.^.^.^.^.^.^.^.^.^.^.^.^.^.^.^.^.^.^.^.^.^.^.^.^.!.L.*.          ",
"          @.Q.^.^.^.^.^.^.^.^.^.^.^.^.^.^.^.^.^.^.^.^.^.^.^.^.^.^.^.^.^.^.^.^.^.!.^.^.W.L.*.          ",
"          @.Q.!.^.!.!.!.^.^.~.^.^.!.!.!.Q.^.^.Q.^.^.!.!.^.!.^.!.^.^.^.^.^.^.^.^.~.^.!.W.L.@.          ",
"          l L.T.T.T.T.T.R.T.T.T.T.T.T.T.R.T.R.U.T.T.T.T.T.T.Y.Y.L.T.T.L.T.T.T.L.Y.Y.T.Y.L.*.          ",
"          z G.J.J.J.J.J.J.J.J.J.J.J.J.J.K.J.K.K.J.K.J.J.J.J.J.J.L.L.J.J.J.J.J.J.J.J.J.J.J.@.          ",
"          ; p a p z p z a a a a s s a a a a a p a a z p z s s s s s s s s s s s z a a p z ;           ",
"          @.h.g.g.g.a %.h.h.f.f.p ;.h.k.g.d.i d.g.h.h.5.7 V V C K q 7 N N N N $ f h.g.f.h.*.          ",
"        : D.^.^.^.!.%.J.^.^.^.Q.%.U.^.^.^.E.%.E.^.^.^.E.j H H / / Q q ^ / / / Q v Q.^.^.^.D.:         ",
"        X.W.^.^.^.J.%.E.^.^.^.I.&.W.^.^.^.U.%.E.^.Q.^.W.j H H H / ~ q Q / / / ~ h P.^.^.^.E.c         ",
"        f.^.~.^.^.N.5.^.^.^.^.F.;.Q.^.^.^.I.&.W.^.^.Q.W.#.F H H / ~ q R / / / / J B.^.^.^.^.f.        ",
"      e F.^.^.^.^.a.b.^.^.^.^.N.d.Q.^.Q.^.P.-.Q.^.^.^.Q.#.F H H / / n P / / / / C a.^.^.^.^.F.e       ",
"      @.Q.^.^.^.Q.%.H.^.^.~.^.l.z.^.^.^.^.F.-.Q.^.^.^.Q.:.G H H / / V L / / / / D #.Q.^.^.^.Q.+.      ",
"      k.^.^.^.^.P.#.E.^.^.^.^.6.S.^.^.^.^.F.-.Q.^.^.^.^.;.D / / / / P K / / / / H h P.^.^.^.^.k.      ",
"    r F.^.^.^.^.M.5.^.^.^.^.Q.-.F.^.^.Q.^.D.5.^.^.Q.^.^.;.G / / / / E q / / / / / J B.^.^.^.^.H.y     ",
"    #.Q.^.^.^.^.d.b.^.Q.^.^.E.$.I.~.^.^.^.S.-.^.^.~.^.^.;.S H / / / Q q ~ / / / / C a.^.^.^.^.Q.@.    ",
"  X x.^.^.^.^.Q.&.F.^.^.^.^.P.%.W.^.Q.^.^.S.g.^.^.^.^.^.d.A H H / / ~ & Q / / / / D #.Q.^.^.^.^.z..   ",
"  r P.^.Q.^.^.P.%.W.^.~.^.^.F.;.Q.^.^.^.^.b.k.^.^.^.^.^.g.Z H H ^ / / * R / / / / ~ h P.^.^.!.^.J.y   ",
"  %.Q.Q.^.^.^.B.-.^.^.^.^.^.M.f.^.^.^.^.^.v.z.^.^.^.^.^.k.C H H / / / m I / / / / / J C.^.^.^.^.Q.%.  ",
"o x.^.^.^.^.^.d.v.^.~.^.^.Q.h.x.^.~.~.~.^.k.x.^.~.~.~.^.v.C H H ^ ^ / C B / / H / / C a.^.^.~.^.^.x.X ",
"X X.%.%.%.%.%.y X.%.%.%.%.%.i s &.%.%.%.%.p X.%.&.=.%.%.a @ M $ & & & @ O & & & & & # y %.$.$.%.%.c X ",
"r -.-.-.-.-.&.i &.-.-.-.-.-.p *.-.-.-.-.-.X.X.-.-.-.-.-.X.@ B J % % % & O % % % % M & t -.-.-.-.-.-.r ",
"o.Q.^.^.^.^.W.&.R.^.^.^.^.^.-.F.^.^.^.~.^.g.b.^.^.^.^.^.m.B / H / / / S M / / / / / F b Q.^.^.^.^.Q.o.",
"@.Q.Q.^.^.^.Q.%.U.^.^.^.^.^.-.F.^.^.^.^.^.k.M.^.^.^.~.^.m.B H H / / / S M / / / / / F b W.^.^.^.Q.Q.o.",
"X.E.^.^.^.^.W.%.P.Q.^.^.^.Q.-.F.^.^.^.^.^.d.b.^.^.^.^.^.b.B H H ^ / / S q ^ ^ / / / F k R.^.^.^.^.W.l ",
"i I.^.^.^.^.P.i K.^.^.^.^.Q.X.b.^.^.^.^.~.$.d.^.^.^.^.^.g.$ H H / / / P @ ~ / / / / E u P.^.^.^.^.U.i ",
"o B.^.^.Q.^.M.: l.^.Q.^.Q.F.r -.~.^.^.^.I.p @.E.^.^.^.Q.$.# H H / / ^ M t E / / / / L ; M.^.^.^.^.B.; ",
"  +.R.^.^.E.@.h.+.P.^.^.Q.-.6.@.D.^.^.Q.f.-.@.b.^.^.^.b.%.-.n H / / A k 6.q ^ / / Q g 6.@.R.^.^.E.+.  ",
"  X %.S.S.#.-.Q.d.X.S.F.-.o.E.b.d M.D.d.d P.Z.X.b.F.z.a A.P.d n E Z 7 b.W.o.* W W 7 6.P.*.#.S.Z.#.X   ",
"    . o o %.R.^.E.6.u y @.K.^.Q.k.i e X.D.^.^.m.a y a m.~.^.D.X.t y l.Q.^.K.@.e y 6.R.R.M.; o o .     ",
"        X M.^.^.Q.^.P.F.W.^.^.^.^.I.F.E.^.~.^.^.U.F.U.^.~.^.^.E.H.I.^.^.^.^.W.K.K.^.^.T.N.;           ",
"        X N.^.^.^.^.^.^.^.^.^.^.^.^.^.^.^.!.^.!.^.^.^.^.^.^.^.^.^.^.^.^.Q.^.^.^.^.^.!.T.C.:           ",
"        X Z.^.^.~.^.^.~.^.^.^.^.^.^.^.!.^.^.^.^.^.^.^.Q.Q.^.^.^.^.^.^.^.^.^.^.^.^.^./.T.N.:           ",
"        ; m.^.^.^.^.^.^.^.^.^.^.^.!.^.^.^.!.!.^.^.^.^.^.^.^.^.^.^.^.^.^.^.Q.^.^.^.^.^.T.N.:           ",
"        X m.^.^.^.~.~.^.^.^.^.^.^.^.!.^.^.^.^.^.^.^.^.^.^.^.^.^.^.Q.^.^.^.^.^.^.^.^.^.T.N.:           ",
"        . m.^.^.^.~.^.^.^.^.^.^.^.^.^.^.^.^.^.^.^.^.^.^.^.^.^.^.^.^.^.^.^.^.^.^.^.^.^.T.N.:           ",
"        ; M.^.^.~.~.m.d.6.6.g.6.6.d.6.g.j.R.^.^.^.K.d.d.a.a.d.a.d.d.d.d.d.a.a.f.N.^.!.T.N.:           ",
"        X m.^.^.^.W.l 0 9 9 9 9 9 9 9 9 e H.^.^.^.z.1 ] ] ] { { 1 > ] ] ] ] ] 2 $.!.^.T.N.:           ",
"        ; N.^.~.^.W.v ( _ _ _ _ _ ) _ _ j K.^.^.^.z.9.p.u.i.u.y.<.>.i.t.i.i.t.3.=.!.^.R.N.:           ",
"        ; N.^.^.^.W.v ( _ _ _ _ _ _ _ _ x G.^.^.^.c.9.p.i.i.i.u.<.>.p.p.i.i.u.2.=.Q.^.R.N.:           ",
"        X m.^.^.^.W.v ( _ _ _ _ _ _ _ _ x G.^.^.^.x.9.i.i.i.i.u.<.>.p.p.i.i.u.3.=.~.^.R.N.:           ",
"        ; N.^.^.^.W.v ( _ _ _ _ _ _ _ ) x G.^.^.^.v.9.p.i.i.i.u.1.>.i.i.i.i.i.3.=.!.!.T.N.:           ",
"        X N.^.^.^.W.v ( _ _ _ _ _ _ _ _ x G.^.^.^.z.9.p.i.i.i.u.<.>.i.i.i.i.u.3.=.!.!.R.N.:           ",
"        X N.^.^.^.W.v ( _ _ _ _ _ _ _ _ x G.^.^.^.x.9.p.p.p.p.y.<.>.i.p.p.p.i.3.=.Q.^.T.N.:           ",
"        X N.^.^.^.W.v ( _ _ _ _ _ _ _ ) x G.^.^.^.x.8.q.q.q.q.w.<. .q.q.q.q.w.3.=.^.!.R.N.:           ",
"        X m.^.^.^.W.v ( _ _ _ _ _ _ _ _ x G.^.^.^.c.4 | | | | | [ 4 | | | | | } $.~.^.T.N.:           ",
"        X Z.^.^.^.W.v ` _ _ _ _ _ _ _ _ x G.^.^.^.x.> 3 3 3 3 3 > , 3 3 3 3 3 - *.~.~.R.N.:           ",
"        = N.^.^.^.W.v ( _ _ _ _ _ _ _ _ x G.^.^.^.c.8.u.t.t.t.e.1.O.r.r.r.u.r.3.=.!.^.T.N.:           ",
"        X N.^.^.^.Q.v ( _ _ _ _ _ _ ) ) x G.^.!.^.c.9.p.i.i.i.u.<.O.p.p.p.p.u.2.=.!.^.T.C.:           ",
"        X m.^.^.^.W.v ( _ _ _ _ _ _ Y T x G.^.^.^.c.9.p.i.i.i.u.<.O.p.p.p.p.i.2.=.!.!.T.N.:           ",
"        ; N.^.^.^.E.v ( _ _ _ _ _ _ w Y x J.^.^.^.c.9.p.i.i.i.y.<.>.p.u.p.p.u.2.=.!.^.T.N.:           ",
"        X Z.^.^.^.W.v ( _ _ _ _ _ _ w w x G.^.^.^.c.9.p.p.i.i.u.<.>.p.p.u.p.u.2.=.!.^.T.N.:           ",
"        X m.^.~.^.W.v ( ' _ _ _ _ _ Y Y x J.^.^.^.c.9.p.p.p.i.u.<.>.p.p.i.u.u.2.=.!.^.T.N.:           ",
"        X m.^.^.^.W.v ( _ _ _ _ _ _ ` ( x J.^.^.^.x.8.y.e.e.e.w.<.O.y.e.y.y.y.3.=././.T.N.:           ",
"        X Z.^.^.^.W.#.( ' _ _ _ _ _ _ _ x G.^.^.^.c.[ ,.,.,.,.,.} 4 ,.,.,.,.,...$./.^.T.C.:           ",
"        = N.^.^.^.W.v ( _ _ _ _ _ _ _ _ x F.^.^.^.C.i i i i i i u i i i i i i y 6.!.!.T.C.:           ",
"        = N.^.^.^.W.v ( _ _ _ _ _ _ _ _ x F.^.^.^.Q.R.E.R.E.R.R.R.R.R.R.R.R.R.R.Q.^.!.T.N.:           ",
"        = n.^.^.^.W.v ( _ _ _ _ _ _ _ _ x J.!.!.^.^.^.^.^.^.^.^.^.^.^.^.^.^.^.^.^.^.^.T.N.:           ",
"        = m.^.!.^.W.v ( _ _ _ _ _ _ _ _ x F.^.!.^.~.~.~.^.~.^.^.^.^.^.^.^.~.~.^.!.!.!.T.N.:           ",
"        X c.R.T.R.K.c ( ' _ _ _ _ _ _ _ x G.T.W.L.R.L.E.R.R.T.T.T.R.T.Y.T.T.T.T.T.T.T.Y.N.:           ",
"        = c.T.Y.Y.J.c ( ' ' ' _ _ _ _ _ x C.L.L.L.R.L.L.L.L.L.T.Y.L.Y.Y.P.Y.Y.P.Y.L.Y.Y.C.:           ",
"        X &.j.h.k.g.f w Y Y Y Y w U w w f 4.6.j.j.6.l.l.h.h.h.h.h.h.l.l.l.l.k.k.h.h.j.j.5.=           ",
"          . X X X . . X X X X X . = = = . = . = = = = = . = . = . . . . . . . . = . . . = .           "
};
