/* XPM */
static char *_1726169992[] = {
/* columns rows colors chars-per-pixel */
"51 64 157 2 ",
"   c None",
".  c #2E3959",
"X  c #313C5C",
"o  c #383F5E",
"O  c #573D5A",
"+  c #623B57",
"@  c #7E3D57",
"#  c #703C58",
"$  c #37405F",
"%  c #2F4C6D",
"&  c #3B4563",
"*  c #3D4866",
"=  c #334A6C",
"-  c #344769",
";  c #2F4F70",
":  c #344E72",
">  c #2D5173",
",  c #39577B",
"<  c #315A7A",
"1  c #3A587C",
"2  c #31607F",
"3  c #4F4B56",
"4  c #554F57",
"5  c #565059",
"6  c #66425D",
"7  c #7E685A",
"8  c #434965",
"9  c #444D6A",
"0  c #4E4B68",
"q  c #524B67",
"w  c #47516D",
"e  c #49536F",
"r  c #51566B",
"t  c #4B5672",
"y  c #4F5974",
"u  c #525D77",
"i  c #535E78",
"p  c #7A4963",
"a  c #744F68",
"s  c #774C66",
"d  c #72536D",
"f  c #705770",
"g  c #715D76",
"h  c #57617B",
"j  c #5B647D",
"k  c #6B6163",
"l  c #656877",
"z  c #696C7A",
"x  c #873C56",
"c  c #8F3D56",
"v  c #943C55",
"b  c #9F3E56",
"n  c #AB3D54",
"m  c #85445E",
"M  c #8D435C",
"N  c #93415A",
"B  c #9D4158",
"V  c #A24057",
"C  c #846B59",
"Z  c #896F5A",
"A  c #8D7159",
"S  c #804760",
"D  c #CA4559",
"F  c #E34053",
"G  c #EB4153",
"H  c #F24153",
"J  c #AC8258",
"K  c #B0855A",
"L  c #B6895A",
"P  c #BD8D5A",
"I  c #C08F5A",
"U  c #395F85",
"Y  c #316686",
"T  c #3A6086",
"R  c #316D8E",
"E  c #2F7495",
"W  c #3E779C",
"Q  c #337B9B",
"!  c #5F6A83",
"~  c #5D6780",
"^  c #43769E",
"/  c #606780",
"(  c #636C84",
")  c #6A6F86",
"_  c #65728A",
"`  c #6A738A",
"'  c #6D788E",
"]  c #657087",
"[  c #71788F",
"{  c #667990",
"}  c #737D93",
"|  c #4479A2",
" . c #3384A5",
".. c #378BAC",
"X. c #3787A8",
"o. c #379BBD",
"O. c #399ABE",
"+. c #3895B9",
"@. c #778196",
"#. c #788296",
"$. c #7C859A",
"%. c #7F899E",
"&. c #4187AE",
"*. c #4A8BB7",
"=. c #4986B2",
"-. c #4BBCE6",
";. c #4EBDE9",
":. c #52BEEB",
">. c #59BCED",
",. c #5DBDF1",
"<. c #52C0EE",
"1. c #5BC2F4",
"2. c #5FC4F8",
"3. c #60C5FA",
"4. c #82879B",
"5. c #828A9E",
"6. c #818CA0",
"7. c #898FA2",
"8. c #8690A4",
"9. c #8B95A6",
"0. c #8D98A7",
"q. c #8D96A9",
"w. c #8E99A9",
"e. c #939CAD",
"r. c #989FAF",
"t. c #969FB0",
"y. c #95A1AF",
"u. c #96A0B1",
"i. c #9BA4B5",
"p. c #9EA9B8",
"a. c #9FABB7",
"s. c #A0A7B6",
"d. c #A2ACBA",
"f. c #A5B0BD",
"g. c #ACB1BF",
"h. c #ACB4C2",
"j. c #AEB8C6",
"k. c #B0B4C1",
"l. c #B3B9C6",
"z. c #B4BDCA",
"x. c #B6C1CE",
"c. c #BAC3CE",
"v. c #BCC8CF",
"b. c #BCC6D1",
"n. c #BFCAD3",
"m. c #C3CDD5",
"M. c #C5CFD9",
"N. c #C0C7D2",
"B. c #C5D1D6",
"V. c #C6D2D8",
"C. c #CAD4DB",
"Z. c #CED7E0",
"A. c #CFD9E1",
"S. c #D3DBE4",
"D. c #D7E0E7",
"F. c #DAE3EA",
"G. c #D8E0E8",
/* pixels */
"          . X . X . X . X X . X . . . . . . . . $ . . . $ . . $ . . . . . . . X . . . . . .           ",
"          y u.i.i.i.p.p.i.i.i.i.p.p.p.i.i.p.i.p.i.i.i.p.a.a.y.i.p.y.p.p.p.i.i.p.i.p.p.y.9.h           ",
"          ( D.F.F.F.F.F.F.F.F.F.F.F.F.F.F.F.F.F.F.F.F.F.F.F.F.F.F.F.F.F.F.F.F.F.F.F.F.D.n.]           ",
"          ( S.F.F.F.F.F.F.F.F.F.F.F.F.F.F.F.F.F.F.F.F.F.F.F.F.F.F.F.F.F.F.F.F.F.F.F.F.A.n.]           ",
"          ( S.D.D.D.D.D.F.D.D.F.D.D.D.D.F.S.F.S.F.F.F.F.F.D.F.F.D.D.F.F.F.D.F.D.G.G.F.A.N.]           ",
"          j n.V.V.V.V.V.C.C.V.V.V.V.V.V.V.V.V.M.V.C.V.n.n.V.V.n.V.V.V.n.V.V.V.V.B.B.V.B.n.]           ",
"          h x.v.v.v.v.v.v.v.v.v.v.v.b.b.n.b.b.b.v.v.v.v.n.v.v.v.v.v.v.v.v.v.v.v.v.v.v.v.v.(           ",
"          & y u u u u u h y h y h u u u u i y ~ i i i i h i i i i i i u u i i i h u u i u &           ",
"          ( 9.9.8.8.u ' 8.9.9.7.y } 7.q.7.6.0 x v v c x 0 6.8.8.8.@.y 8.q.7.8.` i 7.7.7.q.(           ",
"        8 l.F.F.F.D.` v.F.F.F.S.` M.F.F.F.A.g F H H H F g S.F.F.F.n.' S.F.F.F.b.[ S.F.F.F.l.*         ",
"        j Z.F.F.F.v.` A.F.F.F.m.[ A.F.F.F.C.f F H H H F f C.F.F.F.C._ B.F.F.F.Z.` N.F.F.F.A.l         ",
"        7.F.F.F.F.d.$.F.F.F.F.z.} S.F.F.F.M.d G H H H F d M.F.G.F.S.' x.F.F.F.F.$.d.F.F.F.F.7.        ",
"      8 z.F.F.S.F.5.i.F.F.G.F.d.6.S.F.F.F.M.s G H H H G a M.F.F.F.F.$.d.F.S.F.F.t.6.F.F.F.F.l.8       ",
"      ( S.F.F.F.S.` c.F.F.F.F.w.e.F.F.S.F.z.s G H H H G s n.F.F.F.F.w.e.F.F.F.F.z.` S.F.F.F.S.(       ",
"      q.F.F.F.F.N.` S.F.F.F.F.%.h.F.F.F.F.z.p H G H H G p z.F.F.F.F.f.4.F.F.F.F.Z.` N.F.F.F.F.q.      ",
"    9 z.F.F.F.F.s.$.F.F.S.F.S.} z.F.F.F.F.j.S H H H H H S z.F.F.F.F.z.} F.F.F.F.F.} d.F.F.S.F.N.w     ",
"    ) S.F.F.F.F.6.t.F.F.F.F.Z.` M.S.F.F.F.h.S H H H H H m h.F.F.S.F.m.` Z.F.F.F.F.t.7.F.F.F.F.S.(     ",
"  X r.F.F.S.F.S.' z.F.F.F.F.N.` S.F.F.S.F.h.v H G H H H x h.F.F.F.F.Z.` n.F.F.G.F.z.' S.F.F.F.F.e..   ",
"  0 v.F.F.F.F.N.` A.F.S.S.F.z.} S.F.F.F.F.p.N H H H H H c s.F.F.F.F.F.} j.F.F.F.F.A.) N.F.F.F.F.N.9   ",
"  ` S.F.F.F.F.d.$.F.F.F.F.F.d.7.F.F.F.F.F.t.n H H H H H N t.F.F.F.F.F.6.p.F.G.F.F.F.#.d.F.G.G.F.S.`   ",
"X r.F.F.F.S.F.7.t.S.F.F.F.S.q.r.F.F.F.S.F.q.n H G H H H n e.F.F.F.S.F.r.9.F.F.F.F.F.e.7.F.F.G.F.F.u.X ",
"X ~ ` ` ` ` ` 9 ~ ` ` ` ` ` t i ` ` ` ' { y O # # # # # O y ` ' ` ` ' i t ` ` ` ` ` h 9 ` _ _ ` ` l X ",
"9 } } } } } } t ' } } } } } t ] } } } } } i + @ @ @ @ x O i } } } } } ] t } @.} } } ' e ' @.} } } } 9 ",
"! S.F.F.F.F.A.' Z.F.F.F.F.F.} z.F.F.F.F.F.q.n H H H H H n 7.F.F.F.F.F.z.@.F.F.F.F.F.M.[ S.F.F.F.F.S.! ",
"( S.F.G.F.F.Z.[ M.F.F.F.F.F.$.z.F.F.F.F.F.q.n H H H H H n 7.F.F.F.F.F.z.$.F.F.F.F.F.M.' A.G.F.F.F.S.! ",
"~ A.F.F.F.F.Z.) N.F.F.F.F.S.} l.F.F.F.F.S.6.n H H H H H n 6.F.F.F.F.F.l.[ S.F.F.F.F.m.) A.F.G.F.F.S.j ",
"t m.F.G.F.F.m.t z.F.F.F.F.S.i i.F.F.F.F.S.[ c H H H H H v ` F.S.F.F.F.s.~ S.F.S.F.F.z.t N.F.F.F.F.m.t ",
"o d.F.F.F.F.s.* q.F.F.F.F.z.9 } F.F.F.F.M.y 6 F H H H G 6 i M.F.F.S.F.} 9 z.F.F.F.F.9.& d.F.F.F.F.s.& ",
"  / C.F.F.Z.( 7.! N.F.F.S.} %.( j.F.F.F.7.} ) n H H H n ` } 6.S.F.F.j.( %.[ S.F.F.m.! $.( C.F.F.C./   ",
"  X ) k.g.) } S.6.~ h.z.} ! A.i.i s.k.6.i N.k.q n D b 0 j.N.~ } z.r.y i.Z.! } z.f.j 5.m.) ) k.g.` X   ",
"    X o o ) C.F.A.$.e 9 ] n.F.S.q.t 9 ~ k.F.F.h.y 8 y p.F.F.j.~ 0 t w.S.F.n.( w w $.C.C.d.o o o X     ",
"        X d.F.F.F.G.n.x.S.F.S.F.S.M.z.A.F.S.F.F.Z.z.C.F.F.F.F.Z.z.m.S.F.F.F.A.x.N.F.F.V.d.*           ",
"        X d.F.F.G.F.F.F.F.F.F.F.F.F.F.F.F.F.F.G.F.F.F.D.F.F.F.F.F.F.F.F.F.S.F.F.F.D.F.V.d.*           ",
"        X h.F.F.F.F.F.F.G.F.F.F.F.F.F.G.G.G.F.F.F.F.F.F.F.F.F.F.F.F.F.F.F.F.F.F.F.F.D.V.d.*           ",
"        $ d.F.F.F.F.G.F.F.F.F.F.G.F.F.F.F.F.G.F.F.F.D.F.F.F.F.F.F.F.F.F.F.F.F.F.F.F.F.V.d.*           ",
"        X p.F.F.F.G.F.F.G.F.F.F.F.F.G.F.F.G.F.F.F.D.F.F.F.F.F.F.F.F.F.S.F.F.F.F.F.F.F.V.d.*           ",
"        X d.F.F.F.F.F.F.F.F.F.F.F.F.F.F.F.F.F.F.F.F.F.F.F.F.F.F.F.F.F.F.F.S.F.F.F.F.F.V.f.*           ",
"        X d.F.F.G.G.p.%.6.%.6.6.%.%.%.8.w.C.F.F.F.c.7.6.4.4.5.5.7.6.6.7.7.6.6.7.f.F.D.V.d.*           ",
"        - d.F.F.F.A.h 3 5 5 5 5 5 5 5 5 8 c.F.F.F.e.: U U T T T > = U U T U U > _ D.F.V.d.*           ",
"        X d.F.F.F.A.z J L P P P P P L P k b.F.F.F.e.*.2.3.1.1.<...| 2.,.2.,.,.O.{ D.D.V.d.*           ",
"        $ d.F.F.F.A.z J P P P P P P P P k x.F.F.F.u.*.3.3.3.2.1...| ,.3.2.2.1.O.{ F.F.V.d.&           ",
"        $ p.F.F.F.S.z J P P P P P P P P k x.F.F.F.e.*.3.2.3.1.1...| 2.2.2.2.1.O.{ S.F.V.f.*           ",
"        X p.F.F.F.A.z J P P P P P P P L k x.F.F.F.u.*.3.2.2.2.1...| 2.2.2.2.2.O.{ F.S.Z.f.&           ",
"        $ h.F.F.F.A.z J P P P P P P P P k x.F.F.F.e.*.3.2.2.2.1...| 2.2.2.2.1.O.{ S.F.V.d.*           ",
"        X p.F.F.F.A.z J P P P P P P P P k x.F.F.F.r.*.3.3.3.3.<...| 2.2.2.2.,.O.{ S.F.C.d.*           ",
"        $ d.F.F.F.A.z J P P P P P P P P k x.F.F.F.e.&.<.;.;.;.-...W ;.;.;.;.-.O.{ F.S.C.d.*           ",
"        X p.F.F.F.A.( J P P P P P P P P k x.F.F.F.u.2 Q Q Q Q Q R < Q Q Q Q Q R { S.F.V.d.*           ",
"        X h.F.F.F.A.z J P P P P P P P P k x.F.F.F.e.= , , , , , = - , , , , , = ] S.F.C.d.*           ",
"        . d.F.F.F.S.z J P P P P P P P P k x.F.F.F.u.=.1.,.,.,.:.X.^ ,.,.,.1.>.+.{ D.F.V.f.*           ",
"        . h.F.F.F.S.z J P P P P P P L L k x.F.F.F.u.*.2.2.2.2.1...^ 3.1.3.3.1.O.{ D.F.V.d.*           ",
"        $ p.F.F.S.S.( J P P P P P P Z A k x.F.F.F.t.*.2.2.2.2.<...^ 3.3.3.3.1.O.{ D.F.V.d.*           ",
"        X h.F.F.F.S.z J P P P P P P 7 C k v.F.F.F.u.*.2.2.2.2.1...^ 3.1.3.3.1.O.{ D.D.V.d.*           ",
"        - d.F.F.G.S.z J P P P P P P 7 C k x.F.F.F.u.*.2.2.2.2.1...| 3.3.1.3.1.O.{ D.F.V.d.*           ",
"        X d.F.F.F.S.z J P P P P P P C Z k x.F.F.F.t.*.2.3.3.2.1...| 3.3.3.3.1.O.{ D.F.V.d.*           ",
"        X p.F.F.F.A.z J I P P P P P K K k v.F.F.F.e.&.<.<.<.:.;...^ <.<.;.<.<.o.{ D.D.V.d.*           ",
"        $ d.F.F.F.A.z J P P P P P P P P k x.F.F.F.u.Y  . . . . .R <  . . . . .E _ D.F.V.f.*           ",
"        $ d.F.F.F.A.z J P P P P P P P P k x.F.F.D.f.t , t t t y r t t t t t t w %.D.D.V.d.*           ",
"        $ d.F.F.F.A.z J P P P P P P P P k x.F.F.D.D.C.Z.V.Z.V.C.C.C.C.C.Z.C.V.Z.A.F.F.C.d.*           ",
"        X d.F.F.F.A.z J P P P P P P P P k x.F.D.F.F.F.F.F.F.F.F.F.F.F.F.F.F.F.F.F.F.D.V.d.*           ",
"        X d.F.F.F.A.z J P P P P P P P P k x.F.D.D.D.F.D.F.F.F.F.G.G.F.G.F.G.G.G.D.D.D.C.d.*           ",
"        $ y.V.V.C.m.z A I P P P P P P P k h.C.V.C.V.V.V.V.C.V.V.V.V.V.C.V.V.V.V.B.C.B.B.f.*           ",
"        X y.B.B.B.N.z K I I I P P P P P k f.V.n.B.B.n.B.n.n.n.V.V.V.n.n.n.V.V.n.B.B.B.B.f.*           ",
"        X [ 0.0.0.7.r 7 Z Z Z Z 7 Z Z 7 5 @.0.0.0.0.0.0.9.9.0.9.9.9.9.9.9.9.w.0.0.0.0.0.#.$           ",
"          X X X . . . X . X X X $ . $ . . $ . $ . . . . . . $ . . $ . . - X X . . X . X X .           "
};
