/* XPM */
static char *_1726169991[] = {
/* columns rows colors chars-per-pixel */
"51 64 176 2 ",
"   c None",
".  c #2F3A5A",
"X  c #313C5C",
"o  c #3A3C5B",
"O  c #453B59",
"+  c #4B3C5A",
"@  c #523C59",
"#  c #5B3C59",
"$  c #643C59",
"%  c #6B3D58",
"&  c #6C3C57",
"*  c #753C57",
"=  c #7D3D57",
"-  c #713D59",
";  c #7C3F59",
":  c #37405F",
">  c #2F4C6D",
",  c #3B4563",
"<  c #3D4866",
"1  c #334A6C",
"2  c #344769",
"3  c #2F4F70",
"4  c #2D5173",
"5  c #39577B",
"6  c #315A7A",
"7  c #3A587C",
"8  c #344E72",
"9  c #31607F",
"0  c #54465C",
"q  c #565059",
"w  c #4F4B56",
"e  c #7C415B",
"r  c #7E685A",
"t  c #444A65",
"y  c #444D6A",
"u  c #484563",
"i  c #49526E",
"p  c #47516E",
"a  c #4B5672",
"s  c #4F5A75",
"d  c #525D77",
"f  c #525F79",
"g  c #565671",
"h  c #51566B",
"j  c #62506A",
"k  c #695C76",
"l  c #715770",
"z  c #6A4560",
"x  c #57617B",
"c  c #5B647D",
"v  c #6B6163",
"b  c #656877",
"n  c #696C7A",
"m  c #6F617A",
"M  c #70677F",
"N  c #8E3D56",
"B  c #8D3F58",
"V  c #813D57",
"C  c #933C55",
"Z  c #9C3E57",
"A  c #953F58",
"S  c #A43E56",
"D  c #AC3E55",
"F  c #B23F55",
"G  c #B93D53",
"H  c #C43E54",
"J  c #CE3D52",
"K  c #D93E52",
"L  c #E53F52",
"P  c #85405A",
"I  c #884059",
"U  c #994058",
"Y  c #A74158",
"T  c #AB4158",
"R  c #B54259",
"E  c #846B59",
"W  c #896F5A",
"Q  c #8D7159",
"!  c #C44156",
"~  c #CB4155",
"^  c #C54459",
"/  c #D34155",
"(  c #DA4054",
")  c #E54154",
"_  c #EB4153",
"`  c #F24153",
"'  c #AC8258",
"]  c #BD8D5A",
"[  c #B3875A",
"{  c #C08F5A",
"}  c #395F85",
"|  c #3A6086",
" . c #31698A",
".. c #337B9B",
"X. c #3E779C",
"o. c #2F7495",
"O. c #5C6780",
"+. c #5F6A83",
"@. c #43769E",
"#. c #606780",
"$. c #636D85",
"%. c #6A6F87",
"&. c #65728A",
"*. c #6A738A",
"=. c #6E788E",
"-. c #657087",
";. c #73768D",
":. c #667990",
">. c #747D93",
",. c #797B91",
"<. c #726D85",
"1. c #4479A2",
"2. c #3384A5",
"3. c #378BAC",
"4. c #3787A8",
"5. c #399ABE",
"6. c #3799BC",
"7. c #778196",
"8. c #7A8297",
"9. c #7C869A",
"0. c #7E899D",
"q. c #4187AE",
"w. c #4A8BB7",
"e. c #4986B2",
"r. c #4EBDE9",
"t. c #4BBCE6",
"y. c #52BEEB",
"u. c #59BCED",
"i. c #5DBDF1",
"p. c #52C0EE",
"a. c #5BC2F4",
"s. c #5FC4F8",
"d. c #60C5FA",
"f. c #828A9E",
"g. c #83879B",
"h. c #818CA1",
"j. c #898FA2",
"k. c #8691A4",
"l. c #8B96A7",
"z. c #8D98A7",
"x. c #8D96A9",
"c. c #8D98A9",
"v. c #939CAD",
"b. c #959BAC",
"n. c #959FB0",
"m. c #95A1AF",
"M. c #96A0B1",
"N. c #9BA4B5",
"B. c #9FAAB7",
"V. c #9EA9B9",
"C. c #A2ACBA",
"Z. c #A0A7B6",
"A. c #A5B0BD",
"S. c #ADB1BF",
"D. c #ADB6C3",
"F. c #AEB8C6",
"G. c #B0B5C3",
"H. c #B4BDC9",
"J. c #B5B9C5",
"K. c #B6C1CE",
"L. c #BAC3CE",
"P. c #BCC8CF",
"I. c #BDC6D1",
"U. c #BFCAD3",
"Y. c #C3CDD5",
"T. c #C5CED8",
"R. c #C0C7D2",
"E. c #C5D1D6",
"W. c #C6D2D8",
"Q. c #C9D3DB",
"!. c #CED7E0",
"~. c #CFD9E1",
"^. c #D3DCE4",
"/. c #D7E0E7",
"(. c #DAE3EA",
"). c #D7E1E8",
/* pixels */
"          . X . X X X X X . X X X X X X . X X X X X X . X X X . X X X X X . X X X X X . X .           ",
"          s M.N.N.N.N.B.N.N.N.N.N.V.N.N.N.N.N.V.N.N.N.N.B.Z.N.N.N.N.N.B.N.N.N.N.B.B.N.m.l.d           ",
"          $.).(.(.(.(.(.(.(.(.(.(.(.(.(.(.(.(.(.(.(.(.(.(.(.(.(.(.(.(.(.(.(.(.(.(.(.)./.Y.-.          ",
"          +.^.(.(.(.(.(.(.(.(.(.(.(.(.).(.(.(.(.(.(.(.(.).(.(.).(.(.(.(.(.(.(.(.).).)./.P.-.          ",
"          $.~.).).).).).(.).).).).).).).(.(.^.(.(.(.).).).).).).).).)./.(.).).).).).).Q.Y.-.          ",
"          c U.W.W.W.W.W.Q.Q.W.W.E.E.W.W.E.Q.Q.T.W.Q.W.W.W.W.W.E.W.W.E.E.Q.W.W.W.E.E.W.E.U.$.          ",
"          x K.P.P.P.P.P.P.P.P.P.P.P.P.I.P.P.I.I.P.P.P.P.P.P.P.P.P.P.P.P.P.P.P.P.P.P.P.P.L.$.          ",
"          , s x f f f f f f f x f x f f f f f f x s d d x d d d d d x d d d d x x s x s x ,           ",
"          & C C N C @ * C C C C @ V A S Z N @ 0.k.k.x.>.a h.k.k.k.7.s f.l.k.k.*.d k.k.k.x.$.          ",
"        O H ` ` ` _ e ~ ` ` ` _ - K L L L L l !.(.(.(.Q.%.^.(.(.(.Y.=.^.(.(.(.I.;.^.(.(.(.J.<         ",
"        $ ) ` ` ` / - ) ` ` ` ( e L ` ` L L l !.(.(.(.!.;.T.(.(.(.Q.*.T.(.(.(.!.%.R.(.(.(.!.O.        ",
"        A ` ` ` ` R P ` ` ` ` ~ e ` ` ` L L <.^.(.(.^.!.;.T.(.(.(.^.;.K.(.(.(.(.9.A.(.(.(.(.j.        ",
"      O ~ ` _ ` ` I T ` ` ` ` R A L ` ` L J <.^.(.(.(.^.=.R.(.(.(.(.9.C.(.(.(.(.n.g.(.(.(.(.J.t       ",
"      % _ ` ` ` _ * ~ ` ` ` ` U T ` ` ` L J <.^.(.(.(.^.;.R.(.(.(.(.z.v.(.(.(.(.H.;.^.(.(.(.^.#.      ",
"      Z ` ` ` ` / e ) ` ` ` ` I R L ` L L K ;.(.^.(.(.(.,.H.(.(.(.(.C.0.(.(.(.(.!.*.R.(.(.(.(.b.      ",
"    O ~ ` ` ` ` D P ` _ ` ` _ ; K ` ` L L J ,.(.(.(.(.(.>.J.(.(.(.(.H.,./.(.(.(.(.,.C.(.(.(.(.H.y     ",
"    & _ ` _ ` ` B Y ` ` ` ` ) e / ` ` _ ` G g.^.).(.(.(.>.F.(.(.(.(.T.*.~.(.(.(.(.n.j.(.(.(.(.^.$.    ",
"  X S ` ` ` ` _ e ^ ` ` ` ` / - _ _ ` ` ` F j.(.(.(.).(.>.D.(.(.^.^.^.*.Y.(.(.(.(.H.*.^.(.(.(.(.b.X   ",
"  + / ` ` ` ` K - ) ` ` ` ` ^ ; ` ` _ ` L D k.(.(.(.(.(.k.Z.(.(.(.(.^.>.F.(.^.(.(.^.*.R.(.(.(.(.P.y   ",
"  - _ ` ` ` ` F V ` _ ` ` ` D A ` ` ` ` L S c.(.(.(.(.(.x.n.(.(.(.(.(.h.C.(.(.(.(.(.,.C.(.(.).(.^.*.  ",
"X S ` ` _ ` ` B S ` ` ` ` ` U S L L ` L ` Z n.(.(.(.).(.v.x.(.(.(.^.(.n.x.(.(.(.(.(.n.j.(.^.(.(.(.n.X ",
". $ - - - - - + # - * - - - + # V - ; * V # f *.*.=.*.*.d s =.=.*.*.;.f a *.&.*.*.*.x y *.&.*.*.*.b X ",
"+ = V = V V ; + * ; V B ; ; @ % V V A V ; @ O.>.>.>.>.>.O.d >.>.>.>.>.*.a >.>.>.>.>.*.a >.>.>.>.>.>.y ",
"& L ` ` ` L ) * L ` ` ` L L V H ` L L L L C D.(.(.(.(.(.Z.k.(.(.(.(.(.H.8.(.(.(.(.(.T.=.^.(.(.(.(.^.$.",
"$ _ ` ` _ ` _ * ( ` ` ` ` _ V H ` ` ` ` ` A V.(.(.(.(.(.Z.k.(.(.(.(.(.H.8.(.(.^.(.(.T.=.^.(.(.(.^.^.$.",
"$ L ` ` ` ` ) & ( ` ` ` ` ` ; H ` ` ` ` ` A N.(.(.(.(.(.n.h.(.(.(.(.(.J.>.^.(.(.(.(.R.&.Q.(.(.(.(.!.O.",
"@ ( ` ` ` ` / @ ~ ` ` ` ` ) # D ` ` ` ` ` - k.^.(.(.(.(.h.%.(.^.(.(.(.Z.O.^.(.(.(.(.H.a Y.(.(.(.(.T.a ",
"o F ` ` ` ` R , U ` ` _ ` ~ t ; ` ` ` ` K @ $.^.(.(.(.^.$.g Q.(.(.^.(.>.y H.(.(.(.(.l., Z.(.(.(.(.C.: ",
"  $ ) ` ` ) z l.j / ` ` _ e h.k H ` L L Z ,.&.n.(.(.(.N.&.>.h.^.(.(.F.O.0.>.^.(.(.R.+.9.#.Q.(.(.!.#.  ",
"  X & ! H & >.^.0.z R ^ ; #.!.V.0 F J N g T.F.a v.I.c.s F.U.d 9.J.N.d N.!.O.>.H.A.c f.Y.*.%.G.G.%.X   ",
"    . o o &.Q.(.~.0.y t -.I.(.^.v.a u O.F.(.(.D.s p s V.(.(.F.O.y g c.^.(.I.+.p p 0.Q.Q.Z.o o : X     ",
"        . C.(.(.(.).U.I.^.(.(.^.^.T.H.!.^.(.(.(.T.H.!.(.(.(.(.!.H.Y.(.(.(.(.^.H.U.(.(.E.A.<           ",
"        X V.(.(.(.(.(.(.(.(.(.(.(.(.(.(.(.).).(.(.(.(.(.(.(.(.(.(.(.(.(.(.(.(.(.(.(./.Q.C.t           ",
"        , D.(.(.(.(.(.(.(.(.(.(.(.(.(.(.(.(.(.(.(.(.(././.(.(.(.^.(.^.(.(.(.(.(.(./.(.W.C.<           ",
"        X V.(.(.(.(.(.(.(.(.(.(.(.(.(.(.(.).).(.(.(.(.(.(.(.(.(.(.(.(.(.(.(.(.(.(.(.(.W.C.<           ",
"        , V.(.(.^.(.(.(.^.(.(.(.(.(.(.^.(.(.(.(.(.(.(./.(.(.(.(.(.(.(.(.(.(.^.(.(.(./.Q.C.<           ",
"        X V.(.(.(.(.(.(.(.(.(.(.(.(.(.(.(.(.(.(./.(.(.(.(.(.(.(.(.(.(.(.(.(.(.(.(.(./.W.C.<           ",
"        . D.(.(.(.(.V.0.0.0.h.h.0.h.h.h.c.Q.(.(.(.I.j.f.f.f.f.f.h.h.h.j.j.h.h.j.A.)./.Q.A.<           ",
"        X V.(.(.(.^.x w q q q q q q q q t L.(.(.(.v.8 | 7 | | } 8 1 } } } } } 4 &./.).W.C.<           ",
"        X D.(.(.^.~.n ' ] ] ] ] ] [ ] ] v I.(.(.(.v.w.s.d.i.d.u.3.1.s.d.i.i.i.6.:./.).W.C.<           ",
"        X C.(.(.(.~.n ' ] ] ] ] ] ] ] [ v K.(.).(.m.w.d.d.d.d.p.3.1.i.d.s.s.a.5.:.(.(.Q.C.<           ",
"        : C.(.(.).^.n ' ] ] ] ] ] ] ] ] l K.(.).(.n.w.d.d.d.d.a.3.1.s.d.s.s.a.5.:.^.^.Q.C.<           ",
"        . D.(.(.(.~.n ' ] ] ] ] ] ] ] ] v L.(.(.(.m.w.d.d.d.d.a.3.1.s.s.s.s.a.5.:.).(.Q.A.<           ",
"        X C.(.(.(.~.n ' ] ] ] ] ] ] ] ] v L.(.(.(.b.w.d.d.d.a.p.3.1.s.s.s.s.a.5.:.^.).Q.C.<           ",
"        X D.(.^.(.~.n ' ] ] ] ] ] ] ] ] v K.).).(.n.w.d.d.d.d.p.3.1.s.d.d.d.a.5.:.^.(.Q.C.<           ",
"        : V.(.(.(.~.n ' ] ] ] ] ] ] ] ] v K.(.(.(.n.q.y.r.r.r.t.3.X.r.r.r.r.r.5.:.(.^.Q.C.<           ",
"        X V.(.(.).~.n ' ] ] ] ] ] ] ] ] v K.(.(.(.n.6 .......... .6 .......... .:.^.(.Q.C.<           ",
"        X D.(.(.).~.n ' ] ] ] ] ] ] ] ] v P.(.(.(.n.1 5 5 5 5 5 1 2 5 5 5 5 5 > -.^.(.Q.C.<           ",
"        X V.(.(.(.^.n ' ] ] ] ] ] ] ] ] v L.(.(.(.m.e.a.i.i.i.y.4.@.i.i.i.a.u.6.:./.(.W.A.<           ",
"        X V.(.(.(.~.n ' ] ] ] ] ] ] [ [ v L.(.).(.m.w.d.s.s.d.a.3.1.d.s.d.s.a.5.:.).(.W.C.<           ",
"        X D.(.(.(.~.n ' ] ] ] ] ] ] W Q v K.(.(.(.v.w.d.s.s.s.a.3.1.s.s.s.s.a.5.:./.).W.C.<           ",
"        X D.(.(.(.~.n ' { ] ] ] ] ] r r v L.(.(.(.m.w.d.s.s.s.p.3.1.s.s.s.s.a.5.=./.).W.C.<           ",
"        X D.(.(.(.^.n ' ] ] ] ] ] ] r W v P.(.(.(.m.w.d.d.d.s.a.3.1.d.s.s.s.a.5.:./.).W.C.<           ",
"        X V.(.(.(.^.n ' { ] ] ] ] ] W W v P.(.(.(.v.w.d.d.d.s.a.3.1.d.d.s.a.a.5.:.).).W.C.<           ",
"        X C.(.(.).!.n ' ] ] ] ] ] ] [ ' v K.(.(.(.m.q.y.y.y.y.t.3.@.p.r.p.p.p.5.=./.).W.A.<           ",
"        X C.(.(.(.^.$.' { ] ] ] ] ] ] ] v K.(.(.(.M. .2.2.2.2.2. .6 2.2.2.2.2.o.&./.).W.A.<           ",
"        : C.(.(.(.!.n ' ] ] ] ] ] ] ] ] v K.(.(.).A.a a a s a a a a a a a a a a 9.).).W.C.<           ",
"        : A.(.(.(.!.n ' ] ] ] ] ] ] ] ] v K.(.(.).).Q.!.Q.Q.Q.Q.Q.Q.Q.Q.Q.!.Q.Q./.(.).W.C.<           ",
"        : B.(.(.(.!.n ' ] ] ] ] ] ] ] ] v K././.(.(.(.(.(.(.(.(.(.(.(.(.(.(.(.(.(.).).W.C.t           ",
"        : C.(./.(.^.n ' { ] ] ] ] ] ] ] v K././.).).).).).).(.(.).).(.).(.).).).).).).W.A.:           ",
"        . m.W.W.E.Y.M Q ] ] ] ] ] ] ] ] v D.Q.W.W.W.Q.W.W.W.W.Q.W.W.Q.Q.Q.E.Q.W.Q.W.Q.W.A.<           ",
"        : m.E.E.E.R.n ' { { ] { ] ] ] ] v D.U.U.U.W.W.U.U.U.E.U.W.W.U.U.U.E.U.E.U.E.U.W.A.<           ",
"        : =.z.z.z.j.h E W W W W E W W r h 7.l.l.l.l.z.z.l.l.l.l.l.l.c.c.c.c.c.c.z.z.z.z.7.:           ",
"          . . . . : . . . X X X . . : . . : . : . . : . . : . . . : . . . . . . . . . . : .           "
};
