/* XPM */
static char *item_xpm[] = {
"32 64 11 1",
"  c None",
". c #ff5442",
", c #ff7b3a",
"- c #e43c3c",
": c #ffd452",
"+ c #513b50",
"; c #bf4b4b",
"= c #83797b",
"! c #664665",
"? c #8f3950",
"[ c #d59151",
/* pixels */
"@@@@@@@@@@@@@@@@@@@@@@@@@@@@@@@@",
"@@@@@@@@@@@@@@@@@@@@@@@@@@@@@@@@",
"@@@@@@@@@@@@@@@@@@@@@@@@@@@@@@@@",
"@@@@@@@@@@@@@@@@@@@@@@@@@@@@@@@@",
"@@@@@@@@@@@@@@@@@@@@@@@@@@@@@@@@",
"@@@@@@@@@@@@@@@@@@@@@@@@@@@@@@@@",
"@@@@@@@@@@@@@@@@.,@@@@@@@@@@@@@@",
"@@@@@@@@@@@@@@@@.-@@@@@@@@@@@@@@",
"@@@@@@@@@@@@@@@@@@@@@@@@@@@@@@@@",
"@@@@@@@@@@@@@@@@@@@@@@@@@@@@@@@@",
"@@@@@@@@@@@@@@@@@@@@@@@@@@@@@@@@",
"@@@@@@@@@@@@@@@@@@@@@@@@@@@@@@@@",
"@@@@@@@@@@@@@@@@-@@@@@@@@@@@@@@@",
"@@@@@@@@@@@@@@@@.@@@@@@@@@@@@@@@",
"@@@@@@@@@@@@@@@@.-@@@@@@@@@@@@@@",
"@@@@@@@@@@@@@@@.,-@@@@@@@@@@@@@@",
"@@@@@@@@@@@@@@.,,.@@@@@@@@@@@@@@",
"@@@@@@@@@@@@@-,,,.@@@@@@@@@@@@@@",
"@@@@@@@@@@@@--,:,,-@@@@@@@@@@@@@",
"@@@@@@@@@@@@-.,::,,@@@@@@@@@@@@@",
"@@@@@@@@@@@@...::,,.@@@@@@@@@@@@",
"@@@@@@@@@@@@+-..,,..@@@@@@@@@@@@",
"@@@@@@@@@@@@+;=....-@@@@@@@@@@@@",
"@@@@@@@@@@@@+;=!---+@@@@@@@@@@@@",
"@@@@@@@@@@@@+;????;+@@@@@@@@@@@@",
"@@@@@@@@@@@@+??????+@@@@@@@@@@@@",
"@@@@@@@@@@@@+??????+@@@@@@@@@@@@",
"@@@@@@@@[[+++!????!+++[[@@@@@@@@",
"@@@@@@@@!!++[!!??!![++!!@@@@@@@@",
"@@@@@@@@!!+!![;;;;[?!+!!@@@@@@@@",
"@@@@@@@@!!+!!!!???!!!+!!@@@@@@@@",
"@@@@@@@@@@+!!???????!+@@@@@@@@@@",
"@@@@@@@@@@=!!??????!!+@@@@@@@@@@",
"@@@@@@@@@@=+!??????!!=@@@@@@@@@@",
"@@@@@@@@@@==++++++++==@@@@@@@@@@",
"@@@@@@@@@@===++!!++===@@@@@@@@@@",
"@@@@@@@@@@===++!!++===@@@@@@@@@@",
"@@@@@@@@@@@@@++??++@@@@@@@@@@@@@",
"@@@@@@@@@@@@@++??++@@@@@@@@@@@@@",
"@@@@@@@@@@@@@++??++@@@@@@@@@@@@@",
"@@@@@@@@@@@@@=+??+=@@@@@@@@@@@@@",
"@@@@@@@@@@@@@=+!!+=@@@@@@@@@@@@@",
"@@@@@@@@@@@@@=+!!+=@@@@@@@@@@@@@",
"@@@@@@@@@@@@@=+!!+=@@@@@@@@@@@@@",
"@@@@@@@@@@@@@=+!!+=@@@@@@@@@@@@@",
"@@@@@@@@@@@@@==!!==@@@@@@@@@@@@@",
"@@@@@@@@@@@@@==!!==@@@@@@@@@@@@@",
"@@@@@@@@@@@@@@=!!=@@@@@@@@@@@@@@",
"@@@@@@@@@@@@@@=!!=@@@@@@@@@@@@@@",
"@@@@@@@@@@@@@@====@@@@@@@@@@@@@@",
"@@@@@@@@@@@@@@====@@@@@@@@@@@@@@",
"@@@@@@@@@@@@@@====@@@@@@@@@@@@@@",
"@@@@@@@@@@@@@@====@@@@@@@@@@@@@@",
"@@@@@@@@@@@@@@@==@@@@@@@@@@@@@@@",
"@@@@@@@@@@@@@@@==@@@@@@@@@@@@@@@",
"@@@@@@@@@@@@@@@==@@@@@@@@@@@@@@@",
"@@@@@@@@@@@@@@@==@@@@@@@@@@@@@@@",
"@@@@@@@@@@@@@@@==@@@@@@@@@@@@@@@",
"@@@@@@@@@@@@@@@==@@@@@@@@@@@@@@@",
"@@@@@@@@@@@@@@@==@@@@@@@@@@@@@@@",
"@@@@@@@@@@@@@@@@@@@@@@@@@@@@@@@@",
"@@@@@@@@@@@@@@@@@@@@@@@@@@@@@@@@",
"@@@@@@@@@@@@@@@@@@@@@@@@@@@@@@@@",
"@@@@@@@@@@@@@@@@@@@@@@@@@@@@@@@@",
"};