/* XPM */
static char *item_xpm[] = {
"32 32 9 1",
"  c None",
". c #17111a",
", c #cf7957",
"- c #f8c49e",
": c #f89a6c",
"+ c #16111b",
"; c #753939",
"= c #ffa070",
"! c #ffd1ab",
/* pixels */
"                                ",
"                                ",
"                                ",
"             ......             ",
"           ..,,--:,..           ",
"         ..,,,,::,,,,..         ",
"        .,,,,,,,,,,,,:-.        ",
"       .,--:,,,,,,,,,,::.       ",
"      .-,::,,,,::,,,,,,,,.      ",
"     .:-,,,,,,,--:,,::,,,,.     ",
"    .,,:,,,,,,,,,,,,--:,,,,.    ",
"   .,,,,,,,,:-,,,,,,,,,,,,,,.   ",
"   .:,,,,,,,:-,,,,,,,,,,:,,,.   ",
"   .-,,,::,,,:,,--:,,,,:-,,,.+  ",
"   .,,,:--,,,,,,::,,,,,:-,,:.+  ",
"   .,,,,,,,,,,,,,,,,-:,,,,,:.+  ",
"    .,,,,,,,,,,,,,,,-:,,,,,.++  ",
"    +..,,,,--:,,,,,,:,,,,..+++  ",
"     ++...,::,,,,,,,,,...++++   ",
"      ++++..;;;;;;;;..++++++    ",
"        +++.========.+++++      ",
"           .========.++         ",
"           .!!!!!===.+          ",
"           .!!!!!!==.+          ",
"           .!!!!!!==.+          ",
"           .!!!!!!==.+          ",
"            .=!!!==.++          ",
"            +.====.+++          ",
"             +....+++           ",
"              ++++++            ",
"               ++++             ",
"                                ",
"};