/* XPM */
static char *item_xpm[] = {
"32 32 7 1",
"  c None",
". c #17111a",
", c #cf7957",
"- c #c44d29",
": c #16111b",
"+ c #ffffff",
"; c #b2bcc2",
/* pixels */
"                                ",
"                                ",
"                                ",
"                   .....        ",
"                 ..,,,,-.       ",
"                .,,,,,,,-.      ",
"                .,,,,,,,--.     ",
"               .,,,,,,,,,-.     ",
"               .,,,,,,,,,--.    ",
"              .,,,,,,,,,,--.    ",
"              .,,,,,,,,,---.:   ",
"              .,,,,,,,,,---.:   ",
"             .,,,,,,,,,---.::   ",
"             .,,,,,,,,----.::   ",
"             .,,,,,,,----.::    ",
"             .,,,,,-----.:::    ",
"             .,,------..:::     ",
"            .+-----...::::      ",
"           .++;....::::::       ",
"          .++;.::::::::         ",
"         .++;.::::::            ",
"        .++;.:::                ",
"    ....++;.:::                 ",
"   .+++++;.:::                  ",
"   .++++;.:::                   ",
"   .++++.:::                    ",
"    ..+;.::                     ",
"    :.;;.:                      ",
"     :..::                      ",
"      ::::                      ",
"       ::                       ",
"                                ",
"};