/* XPM */
static char *item_xpm[] = {
"32 32 7 1",
"  c None",
". c #17111a",
", c #83e04c",
"- c #16111b",
": c #effb0a",
"+ c #88fa0d",
"; c #bcfa53",
/* pixels */
"                                ",
"                                ",
"                                ",
"      ..        ..              ",
"     .,,.   ... .               ",
"     ....   .,.  ..             ",
"      ----  ..--.,.             ",
"   .  -....  --.,,,..           ",
"    .  .,,,..-.,,,,,,.          ",
"   .,. .,,,,. .,,,,,,,..        ",
"   ..-  ..,,.- .,,,,,,,,.       ",
"    --. -.,,,...,,,::,,,,.      ",
"    -- . .,,,,,,,+,,::,,,,.     ",
"      .,.,,,,,,,+++,,,:,,,.     ",
"     .,,,,,;;;,,++,,,,,,,,,.    ",
"     .,,,,,:;,,,,,,,,,,+,,,.    ",
"      .,,,,,:,,++,+++++,,,,,.   ",
"      -.,,+,,,,++,++,,,,,,,,.   ",
"       -.,,++,+++::,,,,,,:,,.-  ",
"        .,,++,,,,::::,,,,,,,.-  ",
"        .,,,,,,,,,++:::::,,,.-  ",
"         .,,,:,,,,,,::::,,,,.-  ",
"         .,,,::,,,,,,,,,,,,.--  ",
"          .,,,::,,,,,,,,,,,.--  ",
"          .,,,:;,++,,,++,,.--   ",
"           .,,,,,++,,++,,,.--   ",
"           -.,,,,,++++,,,.--    ",
"            -..,,,,,,,,,.---    ",
"             --.........---     ",
"              ------------      ",
"                ---------       ",
"                                ",
"};