/* XPM */
static char *item_xpm[] = {
"32 32 10 1",
"  c None",
". c #000000",
", c #240024",
"- c #171717",
": c #2a002a",
"+ c #17111a",
"; c #1f1f1f",
"= c #e14141",
"! c #7a213a",
"? c #16111b",
/* pixels */
"                                ",
"          .,--:.                ",
"                                ",
"   ++++++++++;;..               ",
"   +=========+                  ",
"   +==========+                 ",
"   +!==========+                ",
"   +!!==========+               ",
"   +!!!==========+              ",
"   +!!!!==========+             ",
"   +!!!!!==========+            ",
"   +!!!!!!==========+     +     ",
"   +!!!!!!!==========+   +=+    ",
"    +!!!!!!!==========+ +==+    ",
"    ?+!!!!!!!==========+===+?   ",
"     ?+!!!!!!!=============+?   ",
"      ?+!!!!!!!============+?   ",
"       ?+!!!!!!!===========+?   ",
"        ?+!!!!!!!==========+?   ",
"         ?+!!!!!!!=========+?   ",
"          ?+!!!!!!=========+?   ",
"           ?+!!!!==========+?   ",
"            ?+!!===========+?   ",
"             +!============+?   ",
"            +!!!!!!!!!!!!!!+?   ",
"           +!!!!!!!!!!!!!!!+?   ",
"          +!!!!!!!!!!!!!!!!+?   ",
"           +++++++++++++++++?   ",
"           ??????????????????   ",
"            ?????????????????   ",
"                                ",
"                                ",
"};