/* XPM */
static char *item_xpm[] = {
"32 32 6 1",
"  c None",
". c #17111a",
", c #ffffff",
"- c #e14141",
": c #ffd1ab",
"+ c #16111b",
/* pixels */
"                                ",
"                                ",
"                                ",
"                                ",
"              .....             ",
"            ..,,,,,..           ",
"           .,,,,,,,,,.          ",
"          .,,-------,,.         ",
"         .,,---------,,.        ",
"        .,,,-----------,.       ",
"       .,,-,-----------,:..     ",
"      .,,--,-----------,,::.    ",
"     .,,---,-----------,,::.    ",
"     .,---,,----------,,:::.+   ",
"    .,,,,,,,,-------,,,:::.++   ",
"    .,,,---,,,,,,,,,,,:::.+++   ",
"   .,,--------,,,,,:::::.+++    ",
"   .,--------,,,::::::..+++     ",
"  .,,--,----,,,::::...++++      ",
"  .,,-,,,--,,,:::..++++++       ",
"  .,,-,,,-,,,:::.++++++         ",
"  .,,----,,,:::.++++            ",
"  .,,---,,,:::.+++              ",
"  .,,--,,,:::.+++               ",
"   .,,,,,:::.+++                ",
"   +.::,:::.+++                 ",
"    +..:::.+++                  ",
"     ++...+++                   ",
"      ++++++                    ",
"        +++                     ",
"                                ",
"                                ",
"};