/* XPM */
static char *item_xpm[] = {
"32 32 22 1",
"  c None",
". c #17111a",
", c #ffffff",
"- c #b2bcc2",
": c #c44d29",
"+ c #cf7957",
"; c #16111b",
"= c #e14141",
"! c #c85f3b",
"? c #f19991",
"[ c #ec7567",
"] c #ea7878",
"{ c #cf7a58",
"} c #f06277",
"( c #c54d29",
") c #c95f3b",
"* c #ffd2ac",
"& c #d07a58",
"^ c #e14242",
"% c #c9603b",
"$ c #e24242",
"# c #c9603c",
/* pixels */
"                                ",
"                                ",
"                                ",
"                                ",
"                                ",
"                                ",
"                                ",
"                       ...      ",
"                      .,,,.     ",
"      ....            .,,-.     ",
"     .:+++............,,,-.;    ",
"    .==:++++++++++++:,,,,,,.    ",
"   .====:+++++++++++!:..-,,-.   ",
"  .==?===:+++++++++!!:.;.--.;   ",
"  .===[==]:{{+++++!!:.;;;..;;;  ",
"  .==}}}=]=({{{{{!!:.;;; ;;;;   ",
"  .==},}}}=({{{{!!:.;;;   ;;    ",
"  .=[},,,}==({{))(.;;;          ",
"  .[=},,*}==(&{))(.;;           ",
"  .^^}}**}^^(&))(.;;            ",
"   .^^}}}}^^(%%(.;;;            ",
"   ;.^^$[^^^(#(.;;;             ",
"    ;.$$$[$(#(.;;;              ",
"     ;.$$$$((.;;;               ",
"      ;......;;;                ",
"       ;;;;;;;;                 ",
"        ;;;;;;                  ",
"                                ",
"                                ",
"                                ",
"                                ",
"                                ",
"};