/* XPM */
static char *item_xpm[] = {
"32 32 17 1",
"  c None",
". c #17111a",
", c #c08668",
"- c #a25b52",
": c #aa6758",
"+ c #b36858",
"; c #935f5a",
"= c #16111b",
"! c #8b5c5e",
"? c #302f40",
"[ c #db7c56",
"] c #cc7151",
"{ c #d27343",
"} c #e6a476",
"( c #753939",
") c #815055",
"* c #b7715c",
/* pixels */
"                                ",
"                                ",
"                                ",
"                .        .      ",
"               .,.      .-.     ",
"               .,:.   ..+-.     ",
"               .,:,. .,;+-.=    ",
"                .,:;.,:;-.==    ",
"                =..,!:;-.===    ",
"                 ==?,;-.===     ",
"               .  .[[].===      ",
"              .:..[[[].==       ",
"              .;;[{[].==        ",
"          .   .{{}[{].==        ",
"         .;. .}}[{}[].=         ",
"         .,;.}{{}[{].==         ",
"         .:{}}[[{[[].==         ",
"        ..}[{{}[[[](.=          ",
"       .}}[[[[{}[](-).          ",
"      .}}}}]*[[{](-+-).         ",
"     .}[[[}}]*[{]()-+.=         ",
"     .}}}}[[}]]](-+).===        ",
"    .}}},}}[[]](--..===         ",
"    .}};[[[[[](...====          ",
"    .]([[;(;]].======           ",
"     .][[((]].=====             ",
"     =.]]]]..===                ",
"      =....====                 ",
"       =======                  ",
"        ====                    ",
"                                ",
"                                ",
"};