/* XPM */
static char *item_xpm[] = {
"32 32 9 1",
"  c None",
". c #17111a",
", c #ffd1ab",
"- c #fff5ed",
": c #cf7957",
"+ c #ffa070",
"; c #16111b",
"= c #c36646",
"! c #160e15",
/* pixels */
"                                ",
"                                ",
"                                ",
"          ...                   ",
"         .,,,.   ...            ",
"        .,--,,. .,,,.           ",
"        .,--,,,.,--,,.          ",
"       .,,,,,,,:,--,,.          ",
"       .,,,,,:::,,,,,,.         ",
"       .,,,,:,,,:,,,,+.         ",
"     ..::+,:,--,,:,,++.;        ",
"    .,,,,:+:,--,,:,++::..       ",
"   .,--,,,:,,,,,,,:+:,,,,.      ",
"   .,--,,,=,,,,,,,=:,--,,,.     ",
"  .,,,,,,::::,,,,,=:,--,,,.     ",
"  .,,,,,:,,,,:,,,+::,,,,,,,.    ",
"  .,,,,:,,,,,,:,+:,,:,,,,,,.    ",
"  .,,,,:,--,,,:+:,,,,:,,,,+.;   ",
"  .,,,:,,--,,,=+:--,,,:,,,+.;   ",
"  .+,,:,,,,,,,+:,--,,,=,,++.;   ",
"   .++:,,,,,,,+:,,,,,,,=+++!;   ",
"   ;.+:,,,,,,+:,,,,,,,,=++.;;   ",
"    ;.:,,,,,,+:,,,,,,,+=+.;;;   ",
"     .:+,,,,++:,,,,,,,+=.;;;    ",
"      .++,,+++:,,,,,,++.;;;     ",
"      ;.++++++:+,,,,+++.;;      ",
"       ;.++++..+++++++.;;       ",
"        ;....;;.+++++.;;;       ",
"         ;;;;;;;.....;;;        ",
"          ;;;;  ;;;;;;;         ",
"                 ;;;;;          ",
"                                ",
"};