/* XPM */
static char *item_xpm[] = {
"32 32 12 1",
"  c None",
". c #17111a",
", c #ffde5c",
"- c #ffbf36",
": c #a7622b",
"+ c #ffea95",
"; c #99572f",
"= c #d59737",
"! c #16111b",
"? c #c57b23",
"[ c #8b4c33",
"] c #b07338",
/* pixels */
"                                ",
"                                ",
"                                ",
"                                ",
"             ..........         ",
"            .,---------..       ",
"             .,---,::----.      ",
"         ....,---,:::-----.     ",
"       ..++,,-----------;;;.    ",
"      .+,------------;;;===.    ",
"     .+---------;;;;;======.!   ",
"    .+--;;;--;;;===========.!   ",
"   .+--;=??[;==============.!   ",
"  .+-;;=?::[=====:::=======.!   ",
"  .;;-[:::[======::========.!   ",
"  .---=[[[============;;===.!   ",
"  .--=======?=======;;::[==.!   ",
"  .--=======]=======;:::[==.!   ",
"  .-=================[[[===.!   ",
"  .-=:=====================.!   ",
"   .-=::=======...======....!   ",
"   !.-::======.!!!.==...!!!!!   ",
"    .-=======.!!!!!..!!!!!!!!   ",
"    .======..!!!   !!!!!!=      ",
"   .-===...!!!!    ..!          ",
"   .....!!!...     .-.    !     ",
"    !!!!!!.-=].     ..          ",
"    !!-!! .=].!     !!!         ",
"      =]   ..!!!=    !!         ",
"       !   !!!!         -       ",
"       !!   !!   !              ",
"                         !      ",
"};