/* XPM */
static char *item_xpm[] = {
"32 32 7 1",
"  c None",
". c #17111a",
", c #c8597c",
"- c #a6405f",
": c #16111b",
"+ c #ff80aa",
"; c #ff81aa",
/* pixels */
"                                ",
"                                ",
"                                ",
"            ..                  ",
"           .,,.                 ",
"          .,,,.                 ",
"         .,,-.::                ",
"         .--+.::  ....          ",
"         .+++.: ..,-++..        ",
"          .++-..,,,-++++.       ",
"          :.-,,,,,,...++-.      ",
"           :..,,,,.:::.-,.      ",
"            ::....:::::.,,.     ",
"             :::::::   .,,.     ",
"         ....  ::::    .--.:    ",
"        .,,,,..       .++.::    ",
"       .,,,,,-+..  ...+++.::    ",
"      .-,....++++..,,-++.::     ",
"      .;.::::...+-,,,,-.:::     ",
"      .;+..:::::..,,,,.:::      ",
"       .++-....:::....:::       ",
"       :..,,,-+. :::::::        ",
"        ::....++.  ::::         ",
"         :::::.-+.              ",
"           :..,,,.              ",
"         ...+-,,.::             ",
"        .+++++..:::             ",
"        .+....::::              ",
"         .:::::::               ",
"         ::::::                 ",
"          :                     ",
"                                ",
"};