/* XPM */
static char *item_xpm[] = {
"32 32 29 1",
"  c None",
". c #17111a",
", c #6c9c86",
"- c #53857c",
": c #4391cb",
"+ c #3f6960",
"; c #16111b",
"= c #3d675d",
"! c #426d61",
"? c #b9bfd4",
"[ c #7884ab",
"] c #48756c",
"{ c #5d9be3",
"} c #a2aac5",
"( c #5a5d83",
") c #96a1b7",
"* c #557fbf",
"& c #3e375c",
"^ c #b2bcc2",
"% c #ff80aa",
"$ c #666d93",
"# c #7f859e",
"0 c #5e8ccd",
"1 c #c5cdd1",
"2 c #243b61",
"3 c #5d6086",
"4 c #438fc7",
"5 c #558271",
"6 c #498baa",
/* pixels */
"                                ",
"                                ",
"                                ",
"              .                 ",
"            ..,.                ",
"         ...,-:.                ",
"        .,,-+:.;;               ",
"       .,-+--=.;;               ",
"      .,!-:=:.;;                ",
"     .,-:=...;;;                ",
"     .....;;;;;                 ",
"    . ;;;;;;;;  .               ",
"   .?.;;;..    .,.              ",
"   .[.   .,.. .,].              ",
"   .{}.   .-+..+-].             ",
"   .({[...+:+-:=-+].            ",
"   .)(*{[?&&&&&+:+:].           ",
"   .^)(%{[?[?[?&&&&&&..         ",
"    .^)(({%}[}[?[?[?$&[..       ",
"    .^^^)((*{%}[}[}$&[[[[.      ",
"     .,#^^)(({%{[{0&[[[[[[.     ",
"    .,!-#^^^)((*%*&[[[[123[.    ",
"    ....#^^^^^)(*%&[[[[2.3[.    ",
"     ;;;.#^^^^^)((&[[[[33[[$.   ",
"     ;;.,!####^^^)&[[[[[[[[$.   ",
"      .,!,:!,4..^^)&[[[[[[$$.;  ",
"      ...5!,5.;;...#&[[$$$$.;;  ",
"       ;;.564.;;;;;........;;;  ",
"       ;;;...;;  ;;;;;;;;;;;;   ",
"          ;;;;;     ;;;;;;;;    ",
"           ;;;                  ",
"                                ",
"};