/* XPM */
static char *item_xpm[] = {
"32 32 5 1",
"  c None",
". c #17111a",
", c #e14141",
"- c #7a213a",
": c #16111b",
/* pixels */
"                                ",
"                                ",
"                                ",
"           .....                ",
"         ..,,,,,..              ",
"        .,,,,,,,,,..            ",
"       .,,,,,,,,,,,,.           ",
"       .------,,,,,,,.          ",
"      .,,,,,,,--,,,,,,.         ",
"      .,,,,,,,,,-,,,,,.         ",
"     .,,,,,.....,-,,,,,.        ",
"    .,,,,..:::::..-,,,,.        ",
"    .,,,.:::::::::.,,,,,.       ",
"    .,,.::::     ::.,,,,.       ",
"   .,,.:::         :.,,,.:      ",
"   .,.:::           .,,,,.      ",
"   .,.::             .,,,.      ",
"   .,.:              .,,,.:     ",
"   ..::               .,,.:     ",
"   ..::               .,,.:     ",
"   .::                .,,.:     ",
"   .::                 .,.:     ",
"   .:                ..,,,..    ",
"    :               .,,,,,,,.   ",
"    :               .,,,,,,,.   ",
"                     .,,,,,.::  ",
"                     :.,,,.:::  ",
"                      :.,.:::   ",
"                       :.:::    ",
"                        :::     ",
"                         :      ",
"                                ",
"};