/* XPM */
static char *item_xpm[] = {
"32 32 10 1",
"  c None",
". c #17111a",
", c #372538",
"- c #cb4524",
": c #7a213a",
"+ c #ffffff",
"; c #c44d29",
"= c #e7641b",
"! c #16111b",
"? c #f78510",
/* pixels */
"                                ",
"                                ",
"                                ",
"                                ",
"                ...             ",
"               .,,,.   .....    ",
"              .,,--:...+:--;.   ",
"              .,--:---:+:;,=.   ",
"               .-:----:+:===.!  ",
"               .:-----:+:===.!  ",
"             ..-----:;=:+::?.!  ",
"          ...++::--:;===:++:.!  ",
"         .,,-:+++:,;=====::.!!  ",
"        .,,-:-:+++,,===:=??.!!  ",
"        .,-:--:+++.,,=:=??.!!   ",
"        .,:----:+++.,,=?-.!!!   ",
"        .,:---;=:++:==?-=.!!    ",
"         .---;===:++:?-=.!!     ",
"        .+:-;=====:+:...!!!     ",
"      ..+++:====??-:.!!!!!      ",
"     .--:+++:==?--=.!!!!!       ",
"    .,---:++:=?-==.!!!          ",
"   .,---;=:++:-==.!!!           ",
"   .,,-;=??...==.!!!            ",
"   .,,;=??.!!!..!!!             ",
"    .,,?,.!!!!!!!!              ",
"    !.,,.!!!   !!               ",
"     !..!!!                     ",
"      !!!!                      ",
"       !!                       ",
"                                ",
"                                ",
"};