/* XPM */
static char *item_xpm[] = {
"32 32 23 1",
"  c None",
". c #17111a",
", c #8dceff",
"- c #bab8d3",
": c #ffffff",
"+ c #dfc4cf",
"; c #e0d1d3",
"= c #d3faff",
"! c #ade2ff",
"? c #f8d3d3",
"[ c #16111b",
"] c #f8c6cf",
"{ c #60baff",
"} c #bd998a",
"( c #c5a899",
") c #ac887b",
"* c #e0bfa9",
"& c #edd7c1",
"^ c #ede6d5",
"% c #c5a291",
"$ c #fff2e7",
"# c #c5b1a5",
"0 c #e0cdbd",
/* pixels */
"                                ",
"                                ",
"                                ",
"              .......           ",
"            ..,,,,,,,..         ",
"           .,,---,,,,,,.        ",
"          .,:--++;==!,,,.       ",
"         .,:,-+++;==;-,,,.      ",
"        .::,;++;;===;+-,,,.     ",
"        .::=;;;=====;+;=,,.     ",
"       .,,====::???:=;==,,.[    ",
"       .,,===::?]]]?:===,.[[    ",
"        .,,=::?]]]]]?:=,.[[[    ",
"        [.{{::?]]]]]?:{{}.[     ",
"         [.({{{{{{{{{{)}*.      ",
"          .&)((}((}()})^*^.     ",
"         .^^)^*^^^*^)*^).}^.    ",
"         .^)^^.%&*^).*^.[.^.    ",
"        .^}.^.[.*^&.[.^.[.^.[   ",
"        .*..*).^^&).[.^.[.^.[   ",
"       .^.[.)$^&)).[.^.[.*.[[   ",
"      .^*.[.$&).#%.[.^0.*.[[[   ",
"      .*.[.$&).[.^.[.^*)^.[[    ",
"     .^.[.$&).[[.^.[.*%^.[[     ",
"     .^.[.^.%.[.^.[.*.)^.[[     ",
"    .^^.[ .^.[.^.[.^.[.^.[      ",
"    .^*.[ .^.[.^.[.*.[.*^.      ",
"     .*.[.^}.[..[.*.[[ .*^.     ",
"     [.[[ ..[[ [[[.[[[ [..[     ",
"      [[[ [[[[ [[ [[[   [[[[    ",
"       [   [[      [     [[     ",
"                                ",
"};