/* XPM */
static char *item_xpm[] = {
"32 32 135 1",
"  c None",
". c #17111a",
", c #50855a",
"- c #629851",
": c #5b553c",
"+ c #4e3738",
"; c #39876e",
"= c #554661",
"! c #1b2136",
"? c #1a1e2f",
"[ c #dfb946",
"] c #cd9936",
"{ c #485754",
"} c #404f38",
"( c #814b4b",
") c #77515d",
"* c #644a61",
"& c #5a455c",
"^ c #624751",
"% c #374570",
"$ c #6f424c",
"# c #753939",
"0 c #755361",
"1 c #70566b",
"2 c #694c61",
"3 c #1a1e30",
"4 c #935d32",
"5 c #484e3c",
"6 c #6e4551",
"7 c #955b31",
"8 c #cda743",
"9 c #302320",
"A c #663c39",
"B c #7d5e6d",
"C c #7c535c",
"D c #7e4646",
"E c #643339",
"F c #1e1520",
"G c #7b5561",
"H c #794f57",
"I c #855e66",
"J c #603d4b",
"K c #653439",
"L c #703839",
"M c #dfa636",
"N c #765c6f",
"O c #684351",
"P c #6b414b",
"Q c #372538",
"R c #5c3139",
"S c #5f3239",
"T c #6f3739",
"U c #16111b",
"V c #493338",
"W c #7a4339",
"X c #583e51",
"Y c #7b5a4e",
"Z c #9d844b",
"a c #674d5c",
"b c #262129",
"c c #b3a46b",
"d c #81543b",
"e c #ba8f3f",
"f c #ba9d4b",
"g c #5b3c4c",
"h c #3c3957",
"i c #2c2c46",
"j c #8b6637",
"k c #37304b",
"l c #6a4d5c",
"m c #6a4046",
"n c #8a634a",
"o c #b1a465",
"p c #caa54f",
"q c #5e4f61",
"r c #574761",
"s c #39855a",
"t c #6a915c",
"u c #523947",
"v c #ab9a5c",
"w c #5a3e51",
"x c #714b59",
"y c #7e5e6b",
"z c #69855d",
"A c #cfad5f",
"B c #4f2d39",
"C c #7b3d3b",
"D c #7c3e3b",
"E c #7a3c3a",
"F c #77856c",
"G c #7a5a67",
"H c #6f4d5c",
"I c #ab8d51",
"J c #796459",
"K c #61444b",
"L c #704e5e",
"M c #529851",
"N c #558454",
"O c #795e68",
"P c #8b7b5b",
"Q c #404f57",
"R c #6b4e67",
"S c #79996b",
"T c #7c535d",
"U c #4b9069",
"V c #534f42",
"W c #844a47",
"X c #694959",
"Y c #68865d",
"Z c #6b4e5a",
"a c #4d4b67",
"b c #52985b",
"c c #7f5e6c",
"d c #4a855a",
"e c #505554",
"f c #967b50",
"g c #7b4852",
"h c #759150",
"i c #7a5d6c",
"j c #694b5e",
"k c #704d5c",
"l c #545552",
"m c #488563",
"n c #7a5764",
"o c #449150",
"p c #52546a",
"q c #474b64",
"r c #785a4e",
"s c #515069",
"t c #6d4d66",
"u c #6a845d",
"v c #464660",
"w c #6b4b5c",
"x c #6a4b5c",
"y c #338655",
/* pixels */
"                                ",
"                                ",
"                                ",
"                                ",
"        ......                  ",
"       .,-:+;=!!?               ",
"      .[:],{}()*&!..            ",
"     .[]]-^%$##012223..         ",
"     .[]4562$#######7889..      ",
"    .[]4AB)CD######78]]4A#.     ",
"    .[]4A#########78]]4A6$EF    ",
"   .[]7A#GH#GID##78]]4A62JKL.   ",
"   .7M7A62$62NH#78]]4A62$#OP.   ",
"   .[7QRS###62$#78]4A6NIDTLQ.U  ",
"   .[M7VR74W###78]]4AGH##QQX3U  ",
"   .[M7^YZ[77W#78]7R###QQX=abU  ",
"   .cM7Ad[eff7V78]7R#QQX=gShiU  ",
"   .cM7A7[jQe7^k77QQQX=lmSShiU  ",
"   .cM7AdfMjM7Anopnq=rlmSs#tuU  ",
"   .vM7A7ffMM7A78M7Awlm##xyz.U  ",
"   .vA7AB77MM7A78M7Aw$CDEFGH.U  ",
"   .vIJK#RR77LMN8M7A6$CECOGz.U  ",
"   .vPJQRSTRRMUVVM7A#(WDDXYZ.U  ",
"    ...abXOccccdef7A#xghizXZ.U  ",
"    UUU..5zjHkklmfnK(nyFzzRs.U  ",
"     UUUU.os.RRpqPrstkuZXa..UU  ",
"        UU..U...pPrvwRRZs.UUUU  ",
"          UUUUUU..rvxu.ay.UUU   ",
"           UU UUUU...UU..UU     ",
"                 UUUUUUUUUU     ",
"                   UUU  UU      ",
"                                ",
"};