/* XPM */
static char *item_xpm[] = {
"32 32 5 1",
"  c None",
". c #17111a",
", c #3898ff",
"- c #3073c0",
": c #16111b",
/* pixels */
"                                ",
"                                ",
"                                ",
"            ........            ",
"          ..,,,,,,-.            ",
"         .,,,,,,,,-........     ",
"        .,,,,,,,,,-.,,,,,,.     ",
"       .,,,,,,,,,,-.,,,,,.::    ",
"      .,,,,,,,......,,,,.:::    ",
"     .,,,,,,..:::::.,,,,,.:     ",
"     .,,,,,.:::::::.,,,,,,.     ",
"    .,,,,,.::::    .,,.,,,.     ",
"    .,,,,.:::      .,.:.,,,.    ",
"   .,,,,.:::       ..:::.,,.    ",
"   .,,,,.::         ::: .,,,.   ",
"   .,,,.::          ::  .,,,.   ",
"   .,,,.::              .,,,.:  ",
"   .,,,.:              .,,,,.:  ",
"    .,,.:  ..          .,,,,.:  ",
"    .,,,. .,.         .,,,,.::  ",
"     .,,,.,,.:       .,,,,,.::  ",
"     .,,,,,,.:      .,,,,,.::   ",
"      .,,,,,.:    ..,,,,,,.::   ",
"      :.,,,,......,,,,,,,.::    ",
"      .,,,,,.-,,,,,,,,,,.:::    ",
"     .,,,,,,.-,,,,,,,,,.:::     ",
"     ........-,,,,,,,,.:::      ",
"      ::::::.-,,,,,,..:::       ",
"      ::::::........::::        ",
"             ::::::::::         ",
"             ::::::::           ",
"                                ",
"};