/* XPM */
static char *item_xpm[] = {
"32 32 21 1",
"  c None",
". c #17111a",
", c #82888b",
"- c #b2bcc2",
": c #eceef0",
"+ c #f2f3f4",
"; c #f7f8f8",
"= c #e0e1e2",
"! c #505c63",
"? c #cad1d5",
"[ c #dfe3e5",
"] c #71797e",
"{ c #515d64",
"} c #e0e3e5",
"( c #717e86",
") c #16111b",
"* c #1e151c",
"& c #8f9ca4",
"^ c #7a878e",
"% c #141018",
"$ c #1a131a",
/* pixels */
"                                ",
"                                ",
"                                ",
"                                ",
"                                ",
"          ............          ",
"        ..,,-:+;;+:-,,..        ",
"       .,,=:::;;;;::::,,.       ",
"      .,,!--::;;;;::--!,,.      ",
"     .,,!,-----??------!,,.     ",
"    .,,!,-----?[[?------!,,.    ",
"   .,,!,::---?[[[[?-----,!,,.   ",
"   .,!],=:---[[[[[[---?,,]{].   ",
"   .!!!],,-?::[[[[[---}({!{{.)  ",
"    *!!!],,,::[[[[[&&!!{!{{.))  ",
"    ).!!!,,,,:????-&^!{!!{.)))  ",
"     ).!!],,,:-----&^{{!{.)))   ",
"      )%!!,,,-:----^!{!{.)))    ",
"       )*!],,,:----{{{{.)))     ",
"        )*!],,:---&{{{.)))      ",
"         )*!,,-:--&{{*)))       ",
"          )$!,,:-&{{*)))        ",
"           ).],:-&{.)))         ",
"            ).,--{.)))          ",
"             ).:&.)))           ",
"              )..)))            ",
"               ))))             ",
"                ))              ",
"                                ",
"                                ",
"                                ",
"                                ",
"};