/* XPM */
static char *item_xpm[] = {
"32 32 16 1",
"  c None",
". c #17111a",
", c #734538",
"- c #b86c4f",
": c #ec8a2d",
"+ c #a05e47",
"; c #ffffff",
"= c #b2bcc2",
"! c #918da1",
"? c #626c75",
"[ c #16111b",
"] c #b9f362",
"{ c #83e04c",
"} c #61b652",
"( c #39855a",
") c #256840",
/* pixels */
"                                ",
"             ......             ",
"          ....,-:+-.            ",
"         .;==.:+-,:.            ",
"        .;!??.;;!!!.[           ",
"        .==!!.?,+,?.[           ",
"         ...!.=[[[!.[           ",
"         [[[..=[[[!..           ",
"          ..====???!!..         ",
"         .==;[[[   [[!!.        ",
"        .=;;;[[[[[[[[[[!.       ",
"       .= ;;;[        [[!.      ",
"       .=[;;[]]]]]{{    !.      ",
"      .;[[]]]{{{{{{{{{{  !.     ",
"      .;]]{{{{{{{{{{{{{{{!.     ",
"      .;{{{{{{{{{{{{{{{{{!.[    ",
"      .;{{{{{{{{{{{{{{{{{!.[    ",
"      .;}{{{{{{{{{{{{{{{(!.[    ",
"      .;}}{{{{{{{{{{{{{}(!.[    ",
"      .;}}}}}{{{{{{{}}}}(!.[    ",
"      .=}}}}}}}}}}}}}}}}(!.[    ",
"      .=}}}}}}}}}}}}}}}})!.[    ",
"      .=}}}}}}}}}}}}}}}})!.[    ",
"       .=}}}}}}}}}}}}}})!.[[    ",
"       .=}}}}}}}}}}}}}})!.[[    ",
"       .=(}}}}}}}}}}}}})!.[     ",
"        .=(}}}}}}}}}}})!.[[     ",
"        .==(((}}}}})))!!.[[     ",
"         ..!!!(()))!!!..[[      ",
"         [[...!!!!!...[[[[      ",
"          [[[[.....[[[[[[       ",
"            [[[[[[[[[[[         ",
"};