/* XPM */
static char *item_xpm[] = {
"32 32 12 1",
"  c None",
". c #17111a",
", c #ffffff",
"- c #b2bcc2",
": c #ffcf68",
"+ c #16111b",
"; c #918da1",
"= c #404a54",
"! c #a9303d",
"? c #d13336",
"[ c #ffa31f",
"] c #ffbf36",
/* pixels */
"                                ",
"         ..       ..            ",
"        .,-.     .:.            ",
"       ..,-.     .:.+           ",
"       ..--.+   .::.+           ",
"        .;=..   .:::.           ",
"        .-!.:. .::::.     ..    ",
"        .-?.::.:::::.+  ..::.   ",
"        .-?.::::::::.+ .:::.+   ",
"        .;=.:[[[[[[::..:::.+++  ",
"       ..-?.[]]]]]][:::::.+++   ",
"   ....:.-?.]]]]]]]][::::.++    ",
"  .:::::.-?.]]]]]]]]][::.++     ",
"   .::::.;=.]]]]]]]]][:.+++     ",
"   +.....-?.]]]]]]]]][::.+      ",
"    ++++.-?.]]]]]]]]][:::..     ",
"     +++.-?.]]]]]]]]][:::::..   ",
"       ..;=.]]]]]]]]][:::::::.  ",
"      .:.-?.]]]]]]]][::::....+  ",
"      .:.-?.[]]]]]][:::..++++++ ",
"     .::.-?.:[[[[[[:::.+++++++  ",
"    .:::.;=.::::::::::.+++      ",
"    .::..-?.:::::..::::.        ",
"     ...,??;.:::.++.:::.        ",
"     +.,???!;.::.+++.:::.       ",
"      .,???!;.:.++  +..:.       ",
"      .-??!!;.:.++   ++..+      ",
"      .--!!;;..++     ++++      ",
"       .-;;;..+++       ++      ",
"       +....++++                ",
"        +++++++                 ",
"         ++++                   ",
"};