/* XPM */
static char *item_xpm[] = {
"32 32 12 1",
"  c None",
". c #17111a",
", c #ec8a2d",
"- c #955843",
": c #a05e47",
"+ c #b2bcc2",
"; c #b86c4f",
"= c #626c75",
"! c #734538",
"? c #918da1",
"[ c #16111b",
"] c #ffffff",
/* pixels */
"                                ",
"                                ",
"                                ",
"                      ....      ",
"                     .,-,:.     ",
"                    .++;:;:.    ",
"                   .=!!+-,!.    ",
"                   .+:;!?;;.[   ",
"                  .++[;,!?-.[   ",
"                 .+ [+[:!=.[[   ",
"                .+]][[+[?.[[[   ",
"              ..+]]]  [?.[[[    ",
"           ...++]][[[  ?.[[     ",
"         ..]]] [][[[[ ?.[[      ",
"       ..]] [[[[[[[   ?.[[      ",
"      .]] [[[[[  [    ?.[       ",
"     .] [[[[         ?.[[       ",
"    .+ [[[           ?.[[       ",
"    .+[[             ?.[        ",
"    .+[              ?.[        ",
"    .+[              ?.[        ",
"     .+              ?.[        ",
"     .+              ?.[        ",
"      .+             ?.[        ",
"      [.?            ?.[        ",
"       [.?           ?.[        ",
"        [.??        ?.[[        ",
"         [..????????. [[        ",
"          [[........ [[         ",
"           [[[[[[[[[[[          ",
"             [[[[[[[[           ",
"                                ",
"};