/* XPM */
static char *item_xpm[] = {
"32 32 8 1",
"  c None",
". c #17111a",
", c #d3d0d3",
"- c #7884ab",
": c #b2bcc2",
"+ c #372538",
"; c #16111b",
"= c #3e375c",
/* pixels */
"                                ",
"                                ",
"                                ",
"                ...             ",
"         .    ..,--..           ",
"        .,.  .,,::---.          ",
"        .,.  .,,,,,--.          ",
"       .,:-. .,+++++-.;         ",
"       .,:-. .,-+++--.;         ",
"       .,:-.;.,::=---.;         ",
"       .,:-.;.,:-=---.;         ",
"       .,:-.;.=--=--=.;         ",
"       .,:-.; .......;;         ",
"       .::-.; ;;;;;;;;;         ",
"       .::-.; .............     ",
"       .:--.; .,,,,,,,::--.     ",
"       .:--.; .,,,::::::--.;    ",
"       .:--.; .,,::::::---.;    ",
"       .:--.; .,:::::::---.;    ",
"       .---.;  .,:::::---.;;    ",
"     ..==-==.. .,:::::---.;;    ",
"     .,::----. .,::::----.;     ",
"      ..---..;; .::::---.;;     ",
"      ;;.=.;;;; .:::----.;;     ",
"       ;.=.;;;   .:----.;;      ",
"        .-.;     .-----.;;      ",
"       .---.      .---.;;       ",
"        ...;      ;...;;;       ",
"        ;;;;;      ;;;;;        ",
"         ;;;        ;;;         ",
"                                ",
"                                ",
"};