/* XPM */
static char *item_xpm[] = {
"32 32 8 1",
"  c None",
". c #17111a",
", c #48b2ff",
"- c #3898ff",
": c #243b61",
"+ c #3381d7",
"; c #16111b",
"= c #1a1c2c",
/* pixels */
"                                ",
"                                ",
"                                ",
"            ........            ",
"            .,,,,,-.            ",
"           .:,,,,,-:.           ",
"        ...,:,,,,--:+...        ",
"     ...,,,,:::,-:::+---...     ",
"    .,,,,,,,:,,----:+------.    ",
"    .,,,,,,,,:----:+------+.    ",
"     .,,,-,,,,::::+-------.;;   ",
"     .,,-:,,,,,+++----:--+.;;   ",
"      .,-:,,,,,,-----+:-+.;;    ",
"      ;.--:,,,,,,----:--.;;;    ",
"       .--:,,,,,,---+:-+.;;     ",
"        .-:,,,,,,---+:-.;;      ",
"        .--:,,,,---+:-+.;;      ",
"         .-:,,,,,-++:-.;;       ",
"         .--::::::::-+.;;       ",
"          .-:,,,,--:+.;;        ",
"          ;.:,,,---:.;;;        ",
"           ;.,,::-+.;;;         ",
"            ;.,-++.;;;          ",
"             .,-++.;;           ",
"              .-+.;;            ",
"              .-+.;;            ",
"              .-+.;             ",
"              .-+.;             ",
"              ..=.;             ",
"               ;;;;             ",
"               ;;;;             ",
"                                ",
"};