/* XPM */
static char *item_xpm[] = {
"32 32 6 1",
"  c None",
". c #17111a",
", c #c44d29",
"- c #16111b",
": c #d8742d",
"+ c #ffbf36",
/* pixels */
"                                ",
"                                ",
"                                ",
"                   .            ",
"                  .,.           ",
"         .        .,.           ",
"        .,.    . .,.-.          ",
"        .,,.. .. .,.-.          ",
"     .   .,,. .,.,:,.,.         ",
"    .,.  .:,.- .,,,:,,. .       ",
"    .,. .,+:,..,+,,+::,.+.      ",
"     .,..,++++,++,:++:,,+,. .   ",
"     .:,,++:+.....++:+,:::,..   ",
"    .,:+,+...-----...+++:+,+.-  ",
"    .,+,..-----------..++:+,.-  ",
"    .++.------     ----.::+,.-  ",
"   .,,.----           --.:+.--  ",
"   .,.---               -.+.--  ",
"   .:.--                 .,,.   ",
"   .:.-                   .+.   ",
"   .+.-                   .+.-  ",
"   .,,.                .. .+.-  ",
"    .+,.               .+.+:.-  ",
"    .+,. ..  .       . .+.:.--  ",
"     .:,.,. .    .   ..,+,.---  ",
"     -.+,,,.,.- .,.  .,++.---   ",
"      -..++,:,..,+,..,+..---    ",
"       --..++:,,+++,+..----     ",
"        ---..........-----      ",
"          --------------        ",
"            ----------          ",
"                                ",
"};