/* XPM */
static char *item_xpm[] = {
"32 32 14 1",
"  c None",
". c #17111a",
", c #404a54",
"- c #626c75",
": c #91989f",
"+ c #323a43",
"; c #a2acb3",
"= c #16111b",
"! c #c1c9ce",
"? c #372538",
"[ c #753939",
"] c #4d2c38",
"{ c #4e2c38",
"} c #d4d9dd",
/* pixels */
"                                ",
"                                ",
"                                ",
"           ...                  ",
"          .,--.                 ",
"         .-,,--..               ",
"        .,-,,--,,....           ",
"       .:,-,,--,,,,,,.......    ",
"       .+:-,,--,,,,,,,,,,;;;.   ",
"       .++-,,--,,,,,,,,,,;;;.   ",
"        .++-,--,,,,,,,,,,;;;.=  ",
"        =.++---,,,,,,,,,-;;;.=  ",
"         =.++--,,,,,,,,,!;;;.=  ",
"          =.?+-,,,,,,,,,!;;-.=  ",
"          .[]??-,,,,,,,-!;;-.=  ",
"          .[[{]?,,,,,,-!!;;.==  ",
"         .[[[[{{.,,,,,;!!;-.==  ",
"         .[[[[{.=.,,,,;!!-.==   ",
"         .[[[{.===.,,;;!-.===   ",
"        .[[[{{.== =.}!;-.===    ",
"        .[[{].==   =....===     ",
"       .[[[{.===    ======      ",
"       .[[{.===      ====       ",
"      .[[[{.==                  ",
"      .[[{.==                   ",
"     .[[[{.==                   ",
"    .[[[{.==                    ",
"   .[[{{.===                    ",
"   .....===                     ",
"    ======                      ",
"    =====                       ",
"                                ",
"};