/* XPM */
static char *item_xpm[] = {
"32 32 6 1",
"  c None",
". c #17111a",
", c #bef7ff",
"- c #16111b",
": c #ffffff",
"+ c #6eeeff",
/* pixels */
"                                ",
"                                ",
"                                ",
"                                ",
"                 .....          ",
"               ..,,,,,..        ",
"             ..,,,,,,,,,.       ",
"            .,,,,,,,,...-       ",
"           .:,,,,,,..-----      ",
"          .:,,,,,,.------       ",
"          .:,,,,,.----          ",
"         .:,,,,,+.--            ",
"         .:,,,,+.--             ",
"        .:,,,,,+.--             ",
"        .:,,,,+.--              ",
"        .:,,,,+.--              ",
"        .:,,,,+.-               ",
"        .,,,,,+.-               ",
"        .,,,,,,+.               ",
"         .,,,,,+.               ",
"         .,,,,,,+.              ",
"          .,,,,,+.              ",
"          .,,,,,,+.             ",
"           .,,,,,,+..           ",
"           -.,,,,++++...        ",
"            -..+++++++++.       ",
"             --..+++++..-       ",
"              ---.....----      ",
"                ---------       ",
"                  -----         ",
"                                ",
"                                ",
"};