/* XPM */
static char *item_xpm[] = {
"32 32 6 1",
"  c None",
". c #17111a",
", c #e14141",
"- c #16111b",
": c #582339",
"+ c #7a213a",
/* pixels */
"                                ",
"                                ",
"                                ",
"       .          ..            ",
"       ...       .,.            ",
"       .,,.     .,,.-           ",
"        .,,.  ..,,.--  ..       ",
"        -.,,..,,,,,.- .,.       ",
"         .,,,,,,,,,,..,,.-      ",
"        .,,,,,,,,,,,,,,.--      ",
"     ...,,,,:::,:::,,,,.--      ",
"    .,,,,,,:++:,:+:,,,,,.       ",
"     .,,,,,:+:,:+:,:::,,.       ",
"     -.,,,:+:,,:+:,:+:,,,...    ",
"      .,,,:+:,:+:,:+:,,,,,,,.   ",
"      .,,,::,:+:,,:+:,::,,,.-   ",
"     .,,,,,,,:+:,:+:,:+:,,.---  ",
"    .,,,:::,,::,:+:,,:+:,,.--   ",
"   .,,,,:++::,,,:+:,:+:,,,.-    ",
"    ..,,::+++::,::,:++:,,.--    ",
"    --.,,,::++:,,,,:::,,,,.-    ",
"     --.,,,,:::,,,,,,,,,,,,.    ",
"       .,,,,,,,,,,,,,,,,,....   ",
"      .,,,,,,,,,,,,,,,,,.----   ",
"     .,,,,,,,,,,,,,,,,,.------  ",
"    .,,,,..,,,,,,,,...,.--      ",
"    .,,..--.,,,,...---..-       ",
"    ...-----.,..-------.-       ",
"     -----  ..------   --       ",
"     ---     ----       -       ",
"             --                 ",
"                                ",
"};