/* XPM */
static char *item_xpm[] = {
"32 32 14 1",
"  c None",
". c #17111a",
", c #626c75",
"- c #b2bcc2",
": c #404a54",
"+ c #879198",
"; c #16111b",
"= c #323a43",
"! c #ffffff",
"? c #372538",
"[ c #753939",
"] c #4d2c38",
"{ c #87413a",
"} c #542f39",
/* pixels */
"                                ",
"                                ",
"                                ",
"                                ",
"                    .......     ",
"                   .,,,,,,-.    ",
"                  .,,:::::+.    ",
"                 .,,,,,,::+.;   ",
"                .,,,,,,:::+.;   ",
"               .,,,,:=::::+.;   ",
"              .,,,,:,,=:::-.;   ",
"              .,,,:,!+=::+-.;   ",
"              ..,:,-+=::++.;;   ",
"               ;.,-+=::++.;;;   ",
"               .?++=::++.;;;    ",
"              .[]?.::++.;;;     ",
"             .[[].;.++.;;;      ",
"            .{[].;;...;;;       ",
"           .[[}.;;; ;;;;        ",
"          .[[].;;;  ;;;         ",
"         .[[].;;;               ",
"        .[[].;;;                ",
"       .[[].;;;                 ",
"      .[[].;;;                  ",
"     .[[].;;;                   ",
"    .[[].;;;                    ",
"    .[].;;;                     ",
"    ...;;;                      ",
"     ;;;;                       ",
"     ;;;                        ",
"                                ",
"                                ",
"};