/* XPM */
static char *item_xpm[] = {
"32 32 5 1",
"  c None",
". c #17111a",
", c #ffffff",
"- c #b2bcc2",
": c #16111b",
/* pixels */
"                                ",
"                                ",
"                                ",
"                                ",
"                                ",
"                                ",
"    ........................    ",
"    .,,,,,,,,,,,,,,,,,,,,,-.    ",
"    .,,,,,,,,,,,,,,,,,,,,,-.:   ",
"    .,,,,,,,,,,,,,,,,,,,,,-.:   ",
"    .,,,,,,,,,,,,,,,,,,,,,-.:   ",
"    .,,,,,,,,,,,,,,,,,,,,,-.:   ",
"    .,,,,,,,,,,,,,,,,,,,,,-.:   ",
"    .,,,,,,,,,,,,,,,,,,,,,-.:   ",
"    .,,,,,,,,,,,,,,,,,,,,,-.:   ",
"    .,,,,,,..,,..,,..,,,,,-.:   ",
"    .,,,,,,..,,..,,..,,,,,-.:   ",
"    .,,,,,,,,,,,,,,,,,,,,,-.:   ",
"    .,,,,,,,,,,,,,,,,,,,,,-.:   ",
"    .,,,,,,,,,,,,,,,,,,,,,-.:   ",
"    .,,,,,,,,,,------------.:   ",
"    ......,,,,-.............:   ",
"     ::::.,,,,-.:::::::::::::   ",
"     ::::.,,,-.::::::::::::::   ",
"         .,,-.:::               ",
"         .,-.:::                ",
"         .-.:::                 ",
"         ..:::                  ",
"          :::                   ",
"          ::                    ",
"                                ",
"                                ",
"};