/* XPM */
static char *item_xpm[] = {
"32 32 17 1",
"  c None",
". c #17111a",
", c #cf7957",
"- c #16111b",
": c #8e4b41",
"+ c #7884ab",
"; c #b2bcc2",
"= c #d5dade",
"! c #3e375c",
"? c #525278",
"[ c #a66f4c",
"] c #d3a15e",
"{ c #946045",
"} c #753939",
"( c #522e38",
") c #a65c49",
"* c #372538",
/* pixels */
"                                ",
"                                ",
"                                ",
"   ...                          ",
"   .,,...                       ",
"   ...,,,...                    ",
"    --...,,,...                 ",
"    -----...,,,...              ",
"       -----...,,:...           ",
"          -----.::+;+.          ",
"             ---.+;;+.          ",
"               .=;;+.--         ",
"              .=;;;+.--         ",
"             .=;;;+.--          ",
"            .=;;;++.--          ",
"           .=;;++++!..          ",
"         ..?+++++++![[..        ",
"        .][[?????!!{[[[[.       ",
"       .}]]][[{{{{{][[[(.       ",
"       .)}}}]]]]]]][(((}}.      ",
"       .))))}(((((((}}}}}.      ",
"       .))))))}}}}}}}}}}}.-     ",
"      .))}())))}}))}}}}}}}.     ",
"     .)}(*})))}}})}}}(}}(}.     ",
"    .}}}..}))}(*}}}}}*(}*}}.    ",
"    ....--.)}}(..}}}}}.}}*}}.   ",
"     ----.)}}..--.}}}.-.}}...   ",
"     ---.}}}.-----.}.---..----  ",
"        ....----  -..-- ------  ",
"         -----     ---   --     ",
"         ----       --          ",
"                                ",
"};