/* XPM */
static char *item_xpm[] = {
"32 32 13 1",
"  c None",
". c #17111a",
", c #ffbf36",
"- c #16111b",
": c #ffffff",
"+ c #d2d8dc",
"; c #372538",
"= c #7884ab",
"! c #b2bcc2",
"? c #d7c969",
"[ c #fff275",
"] c #c44d29",
"{ c #753939",
/* pixels */
"                                ",
"                                ",
"                                ",
"                   .            ",
"                  .,.           ",
"           .       .-           ",
"            ..     ---          ",
"          ..,. .    -           ",
"          .,,,.                 ",
"         . .,.. -     .         ",
"           ..---     .,.        ",
"          - -.--      .-        ",
"            --        ---       ",
"          ... -        -        ",
"        ..:::..  ......         ",
"      ..::::::+;.::::::..       ",
"     .+;:;;;;;+;+:::::::;.      ",
"     .+;::::::+;+:;;;;::;=.     ",
"     .!;:;:;;:!;!:::::::;=.     ",
"     .;:::::::!;!?;;;;?:;=.-    ",
"    .!;::;;;;;!;!;![[!;::;=.    ",
"    .!;:::::::!;!;[;[,;::;=.    ",
"    .=;::;;;;:!;!;;;;[;::;=.-   ",
"    .=;:::::::!;!?;;;;?::;=.-   ",
"    .;::::::::!;!:::::::::;.-   ",
"   .];+!!=====;;;=========;{.   ",
"   .];;;;;;;;;{{{;;;;;;;;;;{.   ",
"   .]]]]]]]]]]]]]]]]]]]]]]]].-  ",
"   ..........................-  ",
"    --------------------------  ",
"    --------------------------  ",
"                                ",
"};