/* XPM */
static char *item_xpm[] = {
"32 32 7 1",
"  c None",
". c #17111a",
", c #bf3fb3",
"- c #16111b",
": c #ffffff",
"+ c #e8ebed",
"; c #b2bcc2",
/* pixels */
"                                ",
"                                ",
"                                ",
"                                ",
"                                ",
"                                ",
"                                ",
"          .          .          ",
"          .          .          ",
"         .,.        .,.         ",
"       ..,,,..    ..,,,..       ",
"   .     .,.-       .,.-    .   ",
"   ..   --.----    --.---- ..   ",
"   .:.    .--        .--  .+.-  ",
"   .:.    .-         .-   .+.-  ",
"    .:. .  -          -. .+.--  ",
"    .::.:. -          .+.++.--  ",
"     .:;::.  .    .  .++;+.--   ",
"     .::::. .+.  .+. .+::+.--   ",
"      .:::+.++.  .++.+::+.--    ",
"      -.:::;::+..+::;::+.---    ",
"       -.::::::++:::::+.---     ",
"        .::;::::::::;++.--      ",
"         .+.+::++::+.+.--       ",
"         -.-.++..++.-.---       ",
"          --.+.--.+.----        ",
"           - .----.-- -         ",
"             ---  ---           ",
"              -    -            ",
"                                ",
"                                ",
"                                ",
"};