/* XPM */
static char *item_xpm[] = {
"32 32 12 1",
"  c None",
". c #17111a",
", c #ffffff",
"- c #a7d6db",
": c #16111b",
"+ c #dae4e4",
"; c #9eb8b9",
"= c #869f9d",
"! c #5f7770",
"? c #fff275",
"[ c #3e4f48",
"] c #e18f3c",
/* pixels */
"                                ",
"                                ",
"                                ",
"                                ",
"                          .     ",
"                         .,.    ",
"                         .,.    ",
"                        .-,.:   ",
"                        .--.:   ",
"                       .-,.::   ",
"                      .---.::   ",
"                     .---.::    ",
"                    .-+;-.::    ",
"                   .-+;-.::     ",
"                  .-+;;.:::     ",
"                 .-+;;.:::      ",
"                .;+;;.:::       ",
"               .;=;!.:::        ",
"        .    ..;=;!.:::         ",
"       .?. ..!;=;!.:::          ",
"       ..?.?[==!!.:::           ",
"        :.??][[..:::            ",
"        .].?]..::::             ",
"   .   .?].?.:::::              ",
"  .?  .?]..?.:::                ",
"  .?..?].:.].:                  ",
"   .?.]...]].:                  ",
"   .?]...]].::                  ",
"    .??]]..:::                  ",
"    :....::::                   ",
"     :::::::                    ",
"      ::::                      ",
"};