/* XPM */
static char *item_xpm[] = {
"32 32 21 1",
"  c None",
". c #17111a",
", c #ffffff",
"- c #dbd5d7",
": c #16111b",
"+ c #b7b5b8",
"; c #ada1a4",
"= c #b6aaad",
"! c #87797b",
"? c #67595b",
"[ c #858185",
"] c #4d90d7",
"{ c #7e797e",
"} c #327acc",
"( c #2b5a96",
") c #243b61",
"* c #7d797d",
"& c #928b8f",
"^ c #767277",
"% c #938f94",
"$ c #a29da1",
/* pixels */
"                                ",
"                                ",
"                                ",
"                                ",
"                                ",
"  ..                      ..    ",
"  .,.                    .,.    ",
"   .-..                ..-.::   ",
"   :.--.              .--.:::   ",
"    .--+.            .--;.::    ",
"     .--=..        ..--;.::     ",
"     :.--=;.      .-,-!.:::     ",
"      :.,-=;.    .-,-!.:::      ",
"       .-,-=;.  .-,-=!.::       ",
"        .-,-=;..-,-=!.::        ",
"        :.-,-=;?,[=!.:::        ",
"         :.-,-==?!!.:::         ",
"     ..   :.-,-==?.::: ..       ",
"    .]].   .?--{=!.:: .]}.      ",
"    .]].  .-,?--{=!.  .](.      ",
"     .}]..-,[=?=={=!..}(.::     ",
"     :.}}),*=!..!={&)}(.:::     ",
"      :.}})!!.::.!&)}(.:::      ",
"       .}(().::::.)]}(.::       ",
"      .-((((.::  .](((-.        ",
"     .-+^..((....](..--%.       ",
"    .-+^.::.(()]](.::.$+^.      ",
"   .}(^.::::.()((.::::.^}(.     ",
"   .((.:::  :....:::  :.((.     ",
"    ..:::    ::::::    :..::    ",
"    ::::      ::::      ::::    ",
"     ::                  ::     ",
"};