/* XPM */
static char *item_xpm[] = {
"32 32 16 1",
"  c None",
". c #ffbe35",
", c #ffcf68",
"- c #ffbf36",
": c #ffffff",
"+ c #fff275",
"; c #fff598",
"= c #ffa31f",
"! c #ffb52d",
"? c #160f1c",
"[ c #ffb32b",
"] c #16111b",
"{ c #946f29",
"} c #b27f27",
"( c #15111a",
") c #bd8e2e",
/* pixels */
"                                ",
"                                ",
"                                ",
"                       ..       ",
"                       ,-       ",
"       .             .,:+-.     ",
"      .,.            .-;+=!     ",
"     .,+=.            ?-[]]?    ",
"      .[{?            ?{}]](    ",
"      ?}]]?             ]]      ",
"       )]?              ?(      ",
"        (           .           ",
"        ?           ,           ",
"                  .,+=.         ",
"            .       []          ",
"           .,.     ?{]]?        ",
"          .,+=.      ]          ",
"           .[{?      ?          ",
"           ?}]]?                ",
"            )]?                 ",
"      ..     (                  ",
"      ,-     ?        ..        ",
"    .,:+-.            ,-        ",
"    .-;+=!          .,:+-.      ",
"     ?-[]]?         .-;+=!      ",
"     ?{}]](          ?-[]]?     ",
"       ]]            ?{}]](     ",
"       ?(              ]]       ",
"                       ?(       ",
"                                ",
"                                ",
"                                ",
"};