/* XPM */
static char *item_xpm[] = {
"32 32 13 1",
"  c None",
". c #17111a",
", c #ffffff",
"- c #9dcbd4",
": c #b2bcc2",
"+ c #16111b",
"; c #3e375c",
"= c #402227",
"! c #7c97aa",
"? c #b0634d",
"[ c #753939",
"] c #8a8e9e",
"{ c #cf7957",
/* pixels */
"                                ",
"                                ",
"                                ",
"      ....................      ",
"     .,,-,,--------:::::::.     ",
"     .---,,----:::::::::::.     ",
"     .-----:::::::::::::::.+    ",
"     .;;;==============;;;.+    ",
"     .!!=??[??[??[??[??=]].+    ",
"     .--={{[{{[{{[{{[{{=::.+    ",
"     .-:={{[{{[{{[{{[{{=::.+    ",
"     .-:={{[{{[{{[{{[{{=::.+    ",
"     .-:={{[{{[{{[{{[{{=::.+    ",
"     .-:={{[{{[{{[{{[{{[:].+    ",
"     .-:[{{[{{[{{[{{[{{[:].+    ",
"     .-:[{{[{{[{{[{{[{{[:].+    ",
"      .:[{{[{{[{{[{{[{{[:.++    ",
"      .::[{[{{[{{[{{[{[:].++    ",
"      .::[{[{{[{{[{{[{[:].+     ",
"       .:[{[{{[{{[{{[{[:.++     ",
"       .::[?{{[{{[{{?[:].++     ",
"        .:[?{{[{{[{{?[:.++      ",
"        .::[{{[{{[{{[:].++      ",
"         .::[{[{{[{[:].++       ",
"         +.::[?{{?[:].+++       ",
"          +.::[[[[:].+++        ",
"           +.]::::].+++         ",
"            +.]]]].+++          ",
"             +....+++           ",
"              ++++++            ",
"               ++++             ",
"                                ",
"};