/* XPM */
static char *item_xpm[] = {
"32 32 12 1",
"  c None",
". c #17111a",
", c #b2bcc2",
"- c #67667c",
": c #8a8e9e",
"+ c #5f2339",
"; c #452438",
"= c #6f6572",
"! c #d8dde0",
"? c #7a213a",
"[ c #ffffff",
"] c #16111b",
/* pixels */
"                                ",
"                                ",
"                                ",
"     ......................     ",
"    .,,,,,,,,,,--,,,:::::::.    ",
"    .,++++++++;,,=!!!!!!!!:.    ",
"    .,+???????;::=[[[[[[[!:.]   ",
"    .,+???????;::=[[[[[[[!-.]   ",
"    .,+???????;::=[[[[[[[!-.]   ",
"    .,+???????;::=[[[[[[[!-.]   ",
"    .,+???????;::=[[[[[[[!-.]   ",
"    .,+???????;::=[[[[[[[!-.]   ",
"    .,+???????;--=[[[[[[[!-.]   ",
"     .,;;;;;;;;,,========-.]]   ",
"     .-,:::::-,--,-:::::,-.]]   ",
"     .-,:::::-,--,-:::::,-.]    ",
"     .:========,,;;;;;;;;-.]    ",
"      .:![[[[[=--;?????+-.]]    ",
"      .:![[[[[=::;?????+-.]]    ",
"       .:![[[[=::;????+-.]]     ",
"       .:![[[[=::;????+-.]]     ",
"        .:![[[=::;???+-.]]      ",
"        .:![[[=::;???+-.]]      ",
"         .:![[=::;??+-.]]       ",
"         ].:![=::;?+-.]]]       ",
"          ].-!=::;+-.]]]        ",
"           ].--,,--.]]]         ",
"            ]..--..]]]          ",
"             ]]..]]]]           ",
"              ]]]]]]            ",
"                ]]              ",
"                                ",
"};