/* XPM */
static char *item_xpm[] = {
"32 32 24 1",
"  c None",
". c #17111a",
", c #6b7092",
"- c #b07f60",
": c #a66f4c",
"+ c #794c41",
"; c #16111b",
"= c #8994b2",
"! c #4e2d2e",
"? c #634347",
"[ c #9aa3c0",
"] c #b2bcc2",
"{ c #7884ab",
"} c #525278",
"( c #492a2f",
") c #d5dade",
"* c #402227",
"& c #753939",
"^ c #5a3530",
"% c #ffffff",
"$ c #dbd5d7",
"# c #b6aaad",
"0 c #886056",
"1 c #87797b",
/* pixels */
"                                ",
"                                ",
"                                ",
"      ..,             ...       ",
"      .-,...         .-:+.      ",
"      ..,---...     .-:.++.     ",
"       ;=.:::::...  .:.;.++.    ",
"       ;=;..::::::. .!!.;.+?.   ",
"        =;;;..:::++.+[[[.;.?.   ",
"        ]; ;;;..+++![{{}(.+?.;  ",
"        );   ;;;.+!:+{}}(??.;;  ",
"        );     ;;.::*?}?...;;;  ",
"        );      .-:&?+?.;;;;;   ",
"        ];     .-:&?++^:.;;;    ",
"        ];    .-:&?+?.:::.      ",
"        );   .-:&?+?.;.::.      ",
"        );  .-:&?+?.;;.+:.;     ",
"        ); .-:&?+?.;;;.+::.     ",
"        ];.-:*?+?.;;;  .+:.     ",
"        ].%$#?+?.;;;   .+:.;    ",
"        ]0$#1+?.;;;     .+:.    ",
"       .=%#11?.;;;      .+:.    ",
"      .-=&1++.;;;        .+.;   ",
"     .-:,==]]]]]]))))]]===,,,   ",
"    .-:::+?.;;;           .?.   ",
"   .-:::+?.;;;;;;;;;;;;;;;...;  ",
"   .+::+?.;;;              ;;;  ",
"    .++?.;;;               ;;;  ",
"    ;...;;;                     ",
"     ;;;;;                      ",
"      ;;;                       ",
"                                ",
"};