/* XPM */
static char *item_xpm[] = {
"32 32 20 1",
"  c None",
". c #17111a",
", c #9eb8b9",
"- c #718a85",
": c #16111b",
"+ c #1c2424",
"; c #849d9a",
"= c #677a7a",
"! c #768c8a",
"? c #718985",
"[ c #728b86",
"] c #f7ffff",
"{ c #5f7770",
"} c #3e4f48",
"( c #2e3a37",
") c #576c66",
"* c #5f746f",
"& c #566b65",
"^ c #4e625b",
"% c #6c817e",
/* pixels */
"                                ",
"                                ",
"                                ",
"              ....              ",
"            ..,,,,..            ",
"           .,,,,,,,,.           ",
"          .,,,,,,,,,,.          ",
"         .,,,,,,,,,,,,.         ",
"        .,,,,,,,,,,,,,,.        ",
"       .,,,,,,,,,,,,,,,,.       ",
"      .,,,,,,,,,,,,,,,,,-.      ",
"      .,,,,,,,,,,,,,,,,,-.      ",
"      .,,,,,,,,,,,,,,,,,-.:     ",
"       .,,,+,,,,,,,,,+,-.::     ",
"       .;,,++=!?,-!=++,;.::     ",
"       .[,,+]]+...+]]+,[.:      ",
"       .{,,}++(.:.(++},{.:      ",
"       .[,,,-...:...-,,).:      ",
"       .[,,,,--.:.--,,,).:      ",
"       .;,,,,,*.:.;,,,,*.:      ",
"       .,,,,,,).:.[,,,,&.:      ",
"      .,,,,,,,^.:.{,,,,%&.      ",
"      .,,,,,,,).:.[,,,%%&.      ",
"      .,,,,,,,).:.[,,,%%&.:     ",
"       .--,,,%*.:.;,,%%&&.:     ",
"       :..&&%%*.:.;,%&&..::     ",
"        ::..&%&.:.-%&..::::     ",
"         :::.&&.:.-&.:::::      ",
"           ::..:: ..::::        ",
"             :::: ::::          ",
"              ::   ::           ",
"                                ",
"};