/* XPM */
static char *item_xpm[] = {
"32 32 10 1",
"  c None",
". c #17111a",
", c #b2bcc2",
"- c #7884ab",
": c #bef7ff",
"+ c #60d8ff",
"; c #56c8ff",
"= c #16111b",
"! c #372538",
"? c #753939",
/* pixels */
"                                ",
"                                ",
"                                ",
"                  .....         ",
"               ...,,,,,..       ",
"              .,,,-----,,.      ",
"             .,---:::::--,.     ",
"            .,-::::::::::-,.    ",
"            .,-:::::::+::-,.    ",
"           .,-:::::::::+++-,.   ",
"           .,-::::::::::++-,.   ",
"           .,-::::::::::+;-,.=  ",
"           .,-:+:::::::++;-,.=  ",
"           .,-::+::::::++;-,.=  ",
"            .,-:+++::+++;-,.==  ",
"            .,-:++++++++;-,.==  ",
"             .,-:++++++;;-,.=   ",
"            .!?,--;;;;;--,.==   ",
"           .!?!.,,-----,,.===   ",
"          .??!.=..,,,,,..===    ",
"         .???.====.....====     ",
"        .???.=== =========      ",
"       .???.===    =====        ",
"      .???.===                  ",
"     .???.===                   ",
"    .???.===                    ",
"   .!??.===                     ",
"   .?!.===                      ",
"   ...===                       ",
"    ====                        ",
"    ===                         ",
"                                ",
"};