/* XPM */
static char *item_xpm[] = {
"32 32 9 1",
"  c None",
". c #17111a",
", c #372538",
"- c #4a2d3a",
": c #804646",
"+ c #5d3238",
"; c #753939",
"= c #16111b",
"! c #502e39",
/* pixels */
"                                ",
"                                ",
"                                ",
"          ..        ..          ",
"        ..,-.      .-,..        ",
"       .::,--.    .--,:+.       ",
"       .:::,--....--,:;+.       ",
"        .:::,------,:;+.==      ",
"        =.:;+,,--,,:;+.===      ",
"         .:;;++,,::;;+.==       ",
"        .:;;;;+,,:;;;;+.        ",
"       .+;;::;+,,:;;;;;+.       ",
"       .+;;::;+,,;;;;;;+.       ",
"       .++;;;+,--,+;;;++.=      ",
"       .+++;+,----,+;+++.=      ",
"        .+++,--,,--,+++.==      ",
"        .,,,--,::,--,,,.==      ",
"        .----,+::+,----.=       ",
"         .--,:+::+:,--.==       ",
"         .,,+:+::+:+,,.==       ",
"         .!++:+;;+:++!.=        ",
"          .!+;+::!;+!.==        ",
"          .!!;+;;!;+!.==        ",
"         .+,!;!;;!;!,+.         ",
"         .;+,;!;;!;,++.         ",
"        .;;;+,!;;!,++++.        ",
"        .;;;;+,,,,++++!.        ",
"         ..;;;+++++++..==       ",
"         ==..........====       ",
"          ==============        ",
"            ==========          ",
"                                ",
"};