/* XPM */
static char *item_xpm[] = {
"32 32 13 1",
"  c None",
". c #17111a",
", c #aeb8be",
"- c #404a54",
": c #abb5bb",
"+ c #6d7182",
"; c #879198",
"= c #3a3342",
"! c #97a1a7",
"? c #55596c",
"[ c #16111b",
"] c #626c75",
"{ c #3f4357",
/* pixels */
"                                ",
"                                ",
"                                ",
"                                ",
"                                ",
"                                ",
"         ...  ....  ...         ",
"       ..,,-..::++..-;;..       ",
"      .-,,,-:;++++++-;;;+.      ",
"      .-,,;;-======-;;;;+.      ",
"     .,-,,;;-======-;;;+-+.     ",
"    .,,,-;;,-======-;;;+-++.    ",
"    .,,;-;!,-======-;++-+++.    ",
"     .;;;----?====?----+++.[[   ",
"    .,-;;-???]]]]]]???-++-+.[   ",
"    .,,--?]]]]]]]]]]]]?--++.    ",
"    .,;;;]]]]]]]]]]]]]?++++.[   ",
"     ....]]]]]]--]]]]]?....[[   ",
"     [[[.------??------.[[[[[   ",
"      [[.-]]]]]]]]????-.[[[[    ",
"        .-]]]]====????-.[       ",
"         .===={{{{====.[[       ",
"         [.-------{{{.[[[       ",
"          .==========.[[        ",
"           .------{{.[[         ",
"           .---{{{{{.[[         ",
"            ........[[          ",
"            [[[[[[[[[[          ",
"             [[[[[[[[           ",
"                                ",
"                                ",
"                                ",
"};