/* XPM */
static char *item_xpm[] = {
"32 32 8 1",
"  c None",
". c #17111a",
", c #b1b7bc",
"- c #ffffff",
": c #e14141",
"+ c #f3b3b3",
"; c #16111b",
"= c #c7393f",
/* pixels */
"                                ",
"                                ",
"                                ",
"                                ",
"                                ",
"                                ",
"                                ",
"                                ",
"       ..              ..       ",
"      .,,..............,,.      ",
"      .-,-,-,-,-,-,-,-,-,.      ",
"      .-,-,-,-,-,-:+:-,-,.;     ",
"      .-----:+,---=:=----.;     ",
"      .-----=:,----=-----.;     ",
"      .:+:---=,-------:+:.;     ",
"      .=:=----,--:+:--=:=.;     ",
"      .-=-----,--=:=---=-.;     ",
"      .-------,---=------.;     ",
"      .-----:+:,,-----:+:.;     ",
"      .-----=:=..,----=:=.;     ",
"      .:+:---=.;;.-----=-.;     ",
"      .=:=----.;;.:+:----.;     ",
"      .,=-----.; .=:=---,.;     ",
"      ..,,,,,,.; .,=,,,,..;     ",
"       ;......;;  ......;;;     ",
"       ;;;;;;;;;  ;;;;;;;;;     ",
"         ;;;;;;    ;;;;;;       ",
"                                ",
"                                ",
"                                ",
"                                ",
"                                ",
"};