/* XPM */
static char *item_xpm[] = {
"32 32 10 1",
"  c None",
". c #17111a",
", c #372538",
"- c #572c34",
": c #16111b",
"+ c #fff275",
"; c #d2a233",
"= c #ad642e",
"! c #f6df37",
"? c #d17734",
/* pixels */
"                                ",
"                                ",
"                                ",
"                                ",
"                                ",
"                                ",
"                                ",
"                                ",
"         ..............         ",
"       ..,,,,,,,,,,,,,,..       ",
"      .,,,,,,,,,,,,,,,,,,.      ",
"    ..,,,,,,,,,,,,,,,,,,,,..    ",
"   .-.,,,..............,,,.-.   ",
"   .--...::::::::::::::...-,.   ",
"   .--.::::::.......:::::.-,.:  ",
"   .---......+++;=+!.....-,,.:  ",
"   .--------?+++=!!!?----,,,.:  ",
"   .--------?+++=;!!?---,,,,.:  ",
"   .-------,?+++!=!!?,,,,,,,.:  ",
"    .----,,,?++!!=!!?,,,,,,.::  ",
"    ..,,,,,,?++!!=!!?,,,,,..::  ",
"     :....,,?!!!=;!!?,,...:::   ",
"     :::::...!!!=!!!...,:::::   ",
"       ::::::.!!;=!.:::::::     ",
"           :::.....::::::       ",
"              :::::::           ",
"               :::::            ",
"                                ",
"                                ",
"                                ",
"                                ",
"                                ",
"};