/* XPM */
static char *item_xpm[] = {
"32 32 10 1",
"  c None",
". c #17111a",
", c #fffce3",
"- c #a9a897",
": c #c1c7b3",
"+ c #2b5d9b",
"; c #16111b",
"= c #243b61",
"! c #1c2f51",
"? c #2d4775",
/* pixels */
"                                ",
"                                ",
"                                ",
"           ..                   ",
"         ..,-. ..               ",
"        .,:..-.++.              ",
"       .,..;;.++==.             ",
"      .,.;;;.+++=!!...          ",
"      .,.;;.+++!!??++=..        ",
"      .:.; .+!!??+++++==.       ",
"      .:.; .!??++++++++==.      ",
"      .-.;  .+++++++++++==.     ",
"       .-. .+++++++++++++==.    ",
"       .-. .+++++++++++++==.    ",
"    ...-.;;.+++++++++++++===.   ",
"    .,:.;;.++++++++++++++===.   ",
"     ..;;;.++++++++++++++===.;  ",
"     ;;;; .++++++++++++++===.;  ",
"      ;;  .++++++++++++++===.;  ",
"          .+++++++++++++====.;  ",
"           .++++++++++++===.;;  ",
"           .+++++++++++====.;;  ",
"            .+++++++++====.;;   ",
"            ;.+++++++====.;;;   ",
"             ;.++++=====.;;;    ",
"              ;..=====..;;;     ",
"               ;;.....;;;;      ",
"                ;;;;;;;;;       ",
"                  ;;;;;         ",
"                                ",
"                                ",
"                                ",
"};