/* XPM */
static char *item_xpm[] = {
"32 32 23 1",
"  c None",
". c #17111a",
", c #eab69c",
"- c #e29c79",
": c #cf7957",
"+ c #a05c4b",
"; c #5a3039",
"= c #16111b",
"! c #3898ff",
"? c #83dfed",
"[ c #dbfbff",
"] c #5da3ed",
"{ c #e2b79b",
"} c #ffd8b8",
"( c #d9946f",
") c #ffb289",
"* c #753939",
"& c #6eeeff",
"^ c #deab88",
"% c #ffd1ab",
"$ c #d48260",
"# c #c88561",
"0 c #ffa576",
/* pixels */
"                                ",
"                                ",
"                                ",
"                                ",
"        ................        ",
"       .,,-------::+++++.       ",
"       .--:::::+++++++++.       ",
"       .;;;;;;;;;;;;;;;;.=      ",
"        .++;!!!!!!!!;++.==      ",
"        .-:;?[[???]!;-:.==      ",
"        .-:;??[????!;-:.=       ",
"        .-:;[??????!;-:.=       ",
"        .-:;[{}}}{(!;-:.=       ",
"        .++;.[)}{(!.;++.=       ",
"        .**.=.[)(!.=.**.=       ",
"        .,-.==.?].==.--.=       ",
"        .::.= .?].==.::.=       ",
"        .**.=.[)?]. .**.=       ",
"        .++;.[???&].;++.=       ",
"        .-:;[???}&&!;-:.=       ",
"        .-:;[???^&&!;-:.=       ",
"        .-:;????&&&!;-:.=       ",
"        .-:;????&&!^;-:.=       ",
"        .-:;]?%%&$%%;-:.=       ",
"        .-:;#)%${%0$;-:.=       ",
"        .;;;;;;;;;;;;;;.=       ",
"       .,,----:::::+++++.       ",
"       .-::::+++++++++++.       ",
"       ..................=      ",
"        ==================      ",
"        ==================      ",
"                                ",
"};