/* XPM */
static char *item_xpm[] = {
"32 32 11 1",
"  c None",
". c #17111a",
", c #9d5546",
"- c #ffdd34",
": c #ffffff",
"+ c #ef9f32",
"; c #2b5586",
"= c #3894d1",
"! c #389ad5",
"? c #6beee8",
"[ c #16111b",
/* pixels */
"                                ",
"                                ",
"                                ",
"              ....              ",
"            ..,--,..            ",
"         ...,--,,--,...         ",
"        .::---------++,.        ",
"       .:--,,,,,,,,,,++,.       ",
"       .--,;=!!!!!!??,++.       ",
"       .-,;!!!!!!!????,+.[      ",
"       .-,!!!!!!!:???=,+.[      ",
"       .-,!!!!!!::??!!,+.[      ",
"       .-,!!!!!:::?!!!,+.[      ",
"       .-,!!!!?:::!!!=,+.[      ",
"       .-,=!!??::!!!!=,+.[      ",
"       .-,=!:??:!!!!!?,+.[      ",
"       .-,=::??!!!!!??,+.[      ",
"       .-,?::?!!!!!:??,+.[      ",
"       .-,?::!!!!!::?=,+.[      ",
"       .-,?:!!!!!:::!=,+.[      ",
"       .-,?!!!!!?::!!=,+.[      ",
"       .-,!!!!!??:!!!=,+.[      ",
"       .+,;!!!???!!!!;,+.[      ",
"       .++,;=???====;,++.[      ",
"       .,++,,,,,,,,,,+++.[      ",
"        .,+++++++++++++.[[      ",
"        [...,++,,++,...[[[      ",
"         [[[..,++,..[[[[[       ",
"          [[[[....[[[[[[        ",
"             [[[[[[[[           ",
"               [[[[             ",
"                                ",
"};