/* XPM */
static char *item_xpm[] = {
"32 32 13 1",
"  c None",
". c #17111a",
", c #a36153",
"- c #753939",
": c #3e375c",
"+ c #3a2d48",
"; c #8d4237",
"= c #16111b",
"! c #372538",
"? c #b96951",
"[ c #aa4d35",
"] c #5c3139",
"{ c #66363d",
/* pixels */
"                                ",
"                                ",
"                                ",
"                          ..    ",
"                      .. .,-.   ",
"                     .:+.,;-.   ",
"                     .+;:+-.==  ",
"                      .:+!.===  ",
"                     .:+!;+.=   ",
"               ...  .:+!.+!.    ",
"              .??[..:+!.=..==   ",
"             .?;;;[:+!.======   ",
"            .?;;;-:+!.=== ==    ",
"           .?;;;-:+![.==        ",
"           .?;;-:+!-;[.         ",
"           .[;-:+!-;;[.         ",
"        ...?;-:+!-;;;[.=        ",
"      ..??[;-:+!-;;;[.==        ",
"     .??;];-:+!-;;;[.===        ",
"    .?;;];;:+!-;[[[.===         ",
"   .?;];]{:+!-;[...===          ",
"   .?;]];-+!;;[.=====           ",
"   .[;;;;;-{;][.====            ",
"   .[;;;-;;]];[.=               ",
"    .[-!;;];;[.==               ",
"    .:!-;;]];[.==               ",
"     .![;;;;[.==                ",
"     =..[[[[.===                ",
"      ==....===                 ",
"       =======                  ",
"         ====                   ",
"                                ",
"};