/* XPM */
static char *item_xpm[] = {
"32 32 9 1",
"  c None",
". c #17111a",
", c #ffffff",
"- c #b2bcc2",
": c #6c759b",
"+ c #16111b",
"; c #474369",
"= c #939db1",
"! c #403755",
/* pixels */
"                                ",
"                                ",
"                                ",
"                                ",
"                     ..         ",
"                    .,,.        ",
"                    .,,,.       ",
"                   .,,,,,.      ",
"                  .,,,,,,-.     ",
"             .....,,,,,,--.     ",
"          ...,,,-:,,,,,-..++    ",
"         .,,,,,-:,,,,,-.++++    ",
"        .,,,,,-:,,,,,-;-.++     ",
"       .,,,,,-:,,,,,-;---.      ",
"      .,,,,,-:,,,,,-;=----.     ",
"      .-,,,-;,,,,,-=;=----.     ",
"     .,:-,-;--,,,-=!===-=!-.    ",
"     .,,:-;-----==!=====!--.    ",
"     .,,,::----===!===!!---.+   ",
"     .,,,,,;;;===!==!!-----.+   ",
"     .,,,,,,,,;;;;;;-------.+   ",
"      .,,,,,,,,,,,,,------.++   ",
"      .,,,,,,,,,,,,------=.++   ",
"       .,,,,,,,,,,------=.++    ",
"       +.,,,,,,,,-----==.+++    ",
"        +.,,,,,-----===.+++     ",
"         +.------=====.+++      ",
"          +..--=====..+++       ",
"           ++.......++++        ",
"            +++++++++++         ",
"              +++++++           ",
"                                ",
"};