/* XPM */
static char *item_xpm[] = {
"32 32 11 1",
"  c None",
". c #17111a",
", c #ff80aa",
"- c #bf3fb3",
": c #bb5a98",
"+ c #98369d",
"; c #16111b",
"= c #ff889b",
"! c #37373e",
"? c #33705c",
"[ c #39855a",
/* pixels */
"                                ",
"                                ",
"                                ",
"                                ",
"               .. ..            ",
"              .,-.:.            ",
"              .,+::.;           ",
"             .,-,::.;           ",
"            .,,+,,::.           ",
"           .,,,+,,,::.          ",
"         ..,,,-,,,,:::.         ",
"        .,,,,,-,,,,,:::.        ",
"       .,,,,,,,==,,,::::.       ",
"      .,,,,,,,-,=,,,,::::.      ",
"     .,,,,,,,,,,,,,,,:!:::.     ",
"     .,,,,,,,,,,,,,,::!!!::.    ",
"    .,,,:!,,,,,,,,,,::!??!:.    ",
"    .:,:!!:,,,,,,,,,:![???!:.   ",
"    .!:![[!:,,,,,,,::![???!:.   ",
"   .[!:![[!:,,,,,,,::![?!??!.;  ",
"   .[?![[[?!:,,,!!:::![??!??.;  ",
"   .??![[[[?!:,:![!::!???!??.;  ",
"    .?![[![[?!::![?!![??!??.;;  ",
"    ;.![[![[??!!?[??![??!?.;;;  ",
"     ;.?[!?[[???!??!???!?.;;;   ",
"      ;.??!?[???!?!????..;;;    ",
"       ;.??.?????!????.;;;;     ",
"        ;..;.???!????.;;;;      ",
"         ;;;;........;;;        ",
"          ;; ;;;;;;;;;;         ",
"              ;;;;;;;;          ",
"                                ",
"};