/* XPM */
static char *item_xpm[] = {
"32 32 15 1",
"  c None",
". c #17111a",
", c #ffde5c",
"- c #ffbf36",
": c #cb8c37",
"+ c #a26f37",
"; c #16111b",
"= c #6b3639",
"! c #ffe5d0",
"? c #e7a581",
"[ c #cf7957",
"] c #ffd1ab",
"{ c #aa5f4b",
"} c #a25948",
"( c #d4815f",
/* pixels */
"                                ",
"                                ",
"                                ",
"               ..               ",
"              .,,.              ",
"              .,-:.             ",
"              .--:.             ",
"               .:+.;            ",
"               ;..;;            ",
"                ;;;;            ",
"                 ;;....         ",
"                  .,,-:.        ",
"                  .,-:+.        ",
"                   ....;;       ",
"                   ;;;;;;       ",
"              ....  ;;;;        ",
"             .,,,-.             ",
"             .,---:.            ",
"              .:::+=.. ..       ",
"         .....!====?!!.!?..     ",
"   ......!!!!!??????[[][]]?.    ",
"  .]]!!!!]]]]][[[[[{}}[]?[]?.   ",
"  .]]]]]]]]][[!!!]]???}[[]??.   ",
"  .?]]]]]]][!!??????}}????..;;  ",
"  .????]]][]]????[}}?????.;;;;  ",
"  .((((???]?????????????.;;;;   ",
"  ........????????????..;;;     ",
"   ;;;;;;;...???????..;;;;      ",
"   ;;;;;;;;;;.......;;;;;       ",
"           ;;;;;;;;;;;;         ",
"              ;;;;;;;           ",
"                                ",
"};