/* XPM */
static char *item_xpm[] = {
"32 32 20 1",
"  c None",
". c #17111a",
", c #e8c4aa",
"- c #da772e",
": c #c44d29",
"+ c #8b3f33",
"; c #56272b",
"= c #16111b",
"! c #57282b",
"? c #d4643c",
"[ c #7a352e",
"] c #55272b",
"{ c #150d13",
"} c #54272b",
"( c #a34530",
") c #7f372f",
"* c #74322d",
"& c #5f292b",
"^ c #b63d1f",
"% c #73312d",
/* pixels */
"                                ",
"                                ",
"                                ",
"       .....                    ",
"      .,,--:.   .....           ",
"      .+--:;.  .,,--:.          ",
"      .-++;:.=.!--::;;...       ",
"      .+??:[...-!!!;+,--:.      ",
"      .?+[++++;;??:;+--::].     ",
"      {+:!,,---:;++;-+++;:.     ",
"      .:+}+--::;;:(;+???:[.=    ",
"      .+:}-+++;:;[[;?++++:.=    ",
"      .:)}+???:[;((;+?:::[.=    ",
"      .+(}?++++:;**;?+++[(.=    ",
"      .:*}+??::[;((;+:::(*.=    ",
"     .+++;;[+++(;**;:++**(.=    ",
"    .,---::;::(*;((;+::((*.=    ",
"    .+-:::;;++*(;**;:[+++&.=    ",
"    .-+++;:;:((*;((;[+,--::.    ",
"    .+???:[;+)*(;**;(;+-:^;.    ",
"    .?++++:;((+++;;%*;-++;:.=   ",
"    .+??::[;*&---::;(;+??:[.=   ",
"    .?++++:;.}+-::;;*;?+++:.=   ",
"    .+::::*{=.-++;(;(;+?::[.=   ",
"    .:+++[(.=.+??:*;*;?++[(.=   ",
"    .+:::(*.=.?++*({.;+::(*.=   ",
"    .:+++*(.= .:((.==.:+[*(.=   ",
"     .::((.== =...====.:((.==   ",
"     =....===  =====  =...===   ",
"      ======    ===    =====    ",
"       ====             ===     ",
"                                ",
"};