/* XPM */
static char *item_xpm[] = {
"32 32 22 1",
"  c None",
". c #17111a",
", c #fff5ce",
"- c #ffde5c",
": c #ffbf36",
"+ c #753939",
"; c #372538",
"= c #a25948",
"! c #492b38",
"? c #16111b",
"[ c #b7684f",
"] c #4a2e3d",
"{ c #ffb772",
"} c #9e5647",
"( c #d58960",
") c #4a2b38",
"* c #6b3639",
"& c #8e4b42",
"^ c #cb8c37",
"% c #a26f37",
"$ c #2d1f2f",
"# c #76403f",
/* pixels */
"                                ",
"                                ",
"                                ",
"      .....    ..  ...          ",
"     .,,--:.  .+;..+++.         ",
"     .=--:+.  .++;++++!.        ",
"     .-==+;.? .+!;+++!!;..      ",
"     .[::]{{. .+;+++!!;--:.     ",
"     .:}}=]{(.+!;++!;;!;::+.    ",
"     .}:=];]();;!+!;!!!!;+:.    ",
"     .:}]{{{;(;{;!;!!!;;::}.?   ",
"     .}:*;;((;{{(;;!;;}}}}:.?   ",
"     .:}*}:;;];;((;;*}::::&.?   ",
"     .}^*;;]]+]];;&&*:}}}&^.?   ",
"     .:&;+++++++]];^*}:::^&.?   ",
"     .&;+++++++++]];*:}}&&^.?   ",
"     .;+++++++++++];*}::^^&.?   ",
"     .;+++++++++++]];:+===+.?   ",
"     .++++++++++++]];&=,--::.   ",
"     .+++++++++++++];^*=-::+.   ",
"    .++++++++++++++]];*-==+:.?  ",
"    .++++++++++++++]];*}:::&.?  ",
"   .++++++++++++++!]];*:}}}^.?  ",
"   .+++++++++++++!]]];*}:::&.?  ",
"   .++++++++++++]]]]];*:}}&%.?  ",
"    $!+++++++]]!]]]]..*}::^#.?  ",
"    ?.]]+++]]]]]]]].??.:}&&%.?  ",
"     ?..]]]]]]]]]..????.:^%.??  ",
"      ??.........????  ?...???  ",
"       ?????????????    ?????   ",
"         ?????????       ???    ",
"                                ",
"};