/* XPM */
static char *item_xpm[] = {
"32 32 11 1",
"  c None",
". c #17111a",
", c #2b5b98",
"- c #243b61",
": c #4ebaff",
"+ c #3898ff",
"; c #322b42",
"= c #372538",
"! c #16111b",
"? c #b2bcc2",
"[ c #ffffff",
/* pixels */
"                                ",
"                                ",
"                                ",
"       ........                 ",
"      .,-::-:::........         ",
"     .,,-::-+++::::::::.        ",
"    .,,;-:+-+++++++++++.        ",
"   .,,;,-++-++++++++++++.       ",
"   .,;,,-++-++===+++++++.       ",
"    .,,,,-++-++++======+.!      ",
"    .,,,,-++-+++++++++++.!      ",
"    .,,,,-++-+++++++++++,.      ",
"    .,,,,-++-++==+++++++,.      ",
"     .,,,-++-++++======+,.!     ",
"     .,,,,-++-+++++++++++,.     ",
"     .,,,,-++-+++++++++++,.     ",
"      .,,,-++-+++++++++++,.!    ",
"      .,,,,-++-+++++++++++,.    ",
"      .,,,,-++-+++++++++++,.    ",
"       .,,,-++-+++++++++++,.!   ",
"       .,,,-++-+++++++++++,.!   ",
"       .,,;,-,,-,,++++++++,,.   ",
"       .,;,,------,,,,,,,,,,.   ",
"        .,,-?[[[[[---------,.!  ",
"        .,-????[[[[[[[[[[??.!!  ",
"         .,----???????????.!!!  ",
"         .,,,,,-----------.!!   ",
"          .....,,,,,,,,,,,.!    ",
"          !!!!!...........!!    ",
"           !!!!!!!!!!!!!!!!!    ",
"                !!!!!!!!!!!     ",
"                                ",
"};