/* XPM */
static char *item_xpm[] = {
"32 32 10 1",
"  c None",
". c #17111a",
", c #5a2f39",
"- c #372538",
": c #9d5246",
"+ c #7b363a",
"; c #322b42",
"= c #16111b",
"! c #b2bcc2",
"? c #ffffff",
/* pixels */
"                                ",
"                                ",
"                                ",
"       ........                 ",
"      .,-::-:::........         ",
"     .,,-::-+++::::::::.        ",
"    .,,;-:+-+++++++++++.        ",
"   .,,;,-++-++++++++++++.       ",
"   .,;,,-++-++---+++++++.       ",
"    .,,;,-++-++++------+.=      ",
"    .,;,,-++-+++++++++++.=      ",
"    .;,,;-++-+++++++++++,.      ",
"    .,,;,-++-++--+++++++,.      ",
"     .;,,-++-++++------+,.=     ",
"     .,,;,-++-+++++++++++,.     ",
"     .,;,,-++-+++++++++++,.     ",
"      .,,;-++-+++++++++++,.=    ",
"      .,;,,-++-+++++++++++,.    ",
"      .;,,;-++-+++++++++++,.    ",
"       .,;,-++-+++++++++++,.=   ",
"       .;,,-++-+++++++++++,.=   ",
"       .,,;,-,,-,,++++++++,,.   ",
"       .,;,,------,,,,,,,,,,.   ",
"        .,,-!?????---------,.=  ",
"        .,-!!!!??????????!!.==  ",
"         .,----!!!!!!!!!!!.===  ",
"         .,,,,,-----------.==   ",
"          .....,,,,,,,,,,,.=    ",
"          =====...........==    ",
"           =================    ",
"                ===========     ",
"                                ",
"};