/* XPM */
static char *item_xpm[] = {
"32 32 15 1",
"  c None",
". c #17111a",
", c #8d273b",
"- c #473d55",
": c #4d4a70",
"+ c #f15e5e",
"; c #372538",
"= c #e14141",
"! c #642121",
"? c #3e375c",
"[ c #3a2d48",
"] c #16111b",
"{ c #b2bcc2",
"} c #ffffff",
"( c #782b26",
/* pixels */
"                                ",
"                                ",
"                                ",
"       ........                 ",
"      .,-::-+++........         ",
"     .,,;::-:::========.        ",
"    .,,!;??-::::::::::,.        ",
"   .,,![;??;???????????=.       ",
"   .,![[;??;???????????=.       ",
"    .[[[[;??;??????????=.]      ",
"    .[[[[;??;??????????,.]      ",
"    .[[[[;??;?+=?+=?????=.      ",
"    .[[[[;??;?=???==?+??=.      ",
"     .[[[;??;?=???=??==?,.]     ",
"     .[[[[;??;?,?==,?=???=.     ",
"     .[[[[;??;????????,??=.     ",
"      .[[[;??;???????????,.]    ",
"      .[[[[;??;???????????=.    ",
"      .[[[[;??;???????????=.    ",
"       .[[[;??;???????????,.]   ",
"       .[[[;??;???????????,.]   ",
"       .[[!,;[[;==?????????,.   ",
"       .[!,,;;;;;;======,,,,.   ",
"        .,,;{}}}}};;;;;;;;;(.]  ",
"        .,;{{{{}}}}}}}}}}{{.]]  ",
"         .[;;;;{{{{{{{{{{{.]]]  ",
"         .[[[[[;;;;;;;;;;;.]]   ",
"          .....[[[[[[[[[[[.]    ",
"          ]]]]]...........]]    ",
"           ]]]]]]]]]]]]]]]]]    ",
"                ]]]]]]]]]]]     ",
"                                ",
"};