/* XPM */
static char *item_xpm[] = {
"32 32 6 1",
"  c None",
". c #17111a",
", c #ffffff",
"- c #372538",
": c #b2bcc2",
"+ c #16111b",
/* pixels */
"                                ",
"                                ",
"              ...               ",
"             .,,,.              ",
"             .,,,,..            ",
"            .,,,-,,,..          ",
"           .,,,--,,,,,.         ",
"           .,,--,,,,,,,..       ",
"          .,,,,,,,,,,,,,,..     ",
"          .,,,,,,,,,,,,,,,,.    ",
"         .,,,,,,,,,,,,,,,,,:.   ",
"         .,,,,,,-----,,,,,,:.   ",
"        .,,,,--------,,,,,,:.+  ",
"       .,,,,---------,,,,,:.++  ",
"       .,,,----------,,,,,:.++  ",
"      .,,,,----------,,,,:.++   ",
"      .,,,,----------,,,,:.++   ",
"     .,,,,,,---------,,,:.++    ",
"    .,,,,,,,,,------,,,,:.++    ",
"   .,,,,,,,,---,----,,,:.++     ",
"   .,,,,,,,,,--,,--,,,:.+++     ",
"   .:,,,,,,,,,-,,,,,,,:.++      ",
"    .:,,,,,,,,,,,,,,,:.++       ",
"    +.::,,,,,,,,,-,,:.+++       ",
"     +..:,,,,,,,--,,:.++        ",
"      ++.::,,,,--,,:.++         ",
"       ++..::,,,,,:.+++         ",
"         ++..::,,,:.++          ",
"          +++..:::.++           ",
"            +++...+++           ",
"              ++++++            ",
"                +++             ",
"};