/* XPM */
static char *item_xpm[] = {
"32 32 18 1",
"  c None",
". c #17111a",
", c #6eaf74",
"- c #a05e47",
": c #ec8a2d",
"+ c #4e9e56",
"; c #cf7957",
"= c #d9915d",
"! c #34725c",
"? c #39855a",
"[ c #16111b",
"] c #1a1c2c",
"{ c #f3d8a0",
"} c #83e04c",
"( c #bf3fb3",
") c #682b82",
"* c #753939",
"& c #ecc269",
/* pixels */
"                                ",
"                                ",
"                                ",
"                        ...     ",
"                       .,-:.    ",
"                       .++;=.   ",
"                      .,+!+-.   ",
"                     .,+??!+.[  ",
"                    .,+??!..[[  ",
"               .....++??!.[[[[  ",
"              .,,,+++??!.[[[[   ",
"             .;++++++?!][[[     ",
"            .{;+++???!.[[[      ",
"           .{}{;+????!.[[       ",
"          .{(}{{;????!.[        ",
"         .{()(}{{;???!][        ",
"        .;{)){{*&&;??!][        ",
"       .,;{{{{&&*&&;;.[[        ",
"      .,++;{*&&&&*&&.[[[        ",
"     .,+++!;&*&*&&&.[[[         ",
"    .,+++??!;&&&*&.[[[          ",
"    .,++????!;&&&.[[[           ",
"    .,++?????!;;.[[[            ",
"    .++???????!.[[[             ",
"     .+??????!.[[[              ",
"     [.!????!.[[[               ",
"      [.!!!!.[[[                ",
"       [....[[[                 ",
"        [[[[[[                  ",
"         [[[[                   ",
"                                ",
"                                ",
"};