/* XPM */
static char *item_xpm[] = {
"32 32 10 1",
"  c None",
". c #17111a",
", c #dcff70",
"- c #fc791a",
": c #83e04c",
"+ c #39855a",
"; c #ffbf36",
"= c #16111b",
"! c #fff275",
"? c #ffffff",
/* pixels */
"                                ",
"                                ",
"                                ",
"              ..........        ",
"          ....,,,,,,,,,,..      ",
"       ....--,,,,,,::::,,:..    ",
"      .,,,,,,,,,,,:,,,,:::+;.   ",
"       .:::,,,,,,,,,,,,,:+;;.   ",
"       ===.:::,,,,,,,,::+;;.==  ",
"        ..;+++::::::::++;;;.==  ",
"       .!!!;;;++++++++;;;;;.=   ",
"      .!?!!!!;;;;;;;;;;!;;;.=   ",
"      .!!??!!!!!!!!!!!!!;;;.=   ",
"     .!!!??;!!!!;!!!?!!!;;;.=   ",
"     .!!?;??!;!!?!!!!!!!;;;.=   ",
"     .!???!?!?!!!!!!;!!;;;;.=   ",
"    .!!!??!!!!!;!!!!?!!;;;;.=   ",
"    .!!?!!!;!!!?!!!!!!!;;;.==   ",
"    .!!!!!!?!!!!!!;!!!;;;;.==   ",
"    .?!!!!!!!!!;!!?!!!;;;.==    ",
"    .!!;!?!!!!!?!!!!!;;;;.==    ",
"    .!!?!!!;!!!!!!!!;;;;.==     ",
"    .!!!!!!?!!?!!!;;;;;.===     ",
"     .!!!!!!!!!!!;;;;;.===      ",
"     .;!!!!!!!!;;;;;;.===       ",
"     .;;;!!;;;;;;;;..===        ",
"    .;;;;;;;;;;;;..====         ",
"    .;;;;;.......=====          ",
"     .....==========            ",
"     =============              ",
"      =====                     ",
"                                ",
"};