/* XPM */
static char *item_xpm[] = {
"32 32 12 1",
"  c None",
". c #17111a",
", c #83e04c",
"- c #753939",
": c #dcff70",
"+ c #372538",
"; c #39855a",
"= c #16111b",
"! c #df60ae",
"? c #bf3fb3",
"[ c #682b82",
"] c #3f356e",
/* pixels */
"                                ",
"                                ",
"                                ",
"        ....     .              ",
"       .,,,,.   .-.             ",
"        :.+;,.. .-+.            ",
"       ..,;+;,+..-+.....        ",
"      .:,;;;;;;+-++,,,,;.       ",
"      .,;..;;;;+-+,;;.;;..      ",
"       ..==.;;;+-+;..;;;;;.     ",
"       =====.++-+;.==.;;;.=     ",
"        =...+!?+++.==.;.;;.=    ",
"        .!?+!?[[+?+.  .=...     ",
"       .!?[+++[+!?[]. ======    ",
"        .[[+!?++??[+[..= ===    ",
"        =++!??[+++++[[].        ",
"       ..?+??[[+!?+[++].        ",
"      .!?[++[[+??[+[]+.==       ",
"      .?[+!?+++[[[]++.===       ",
"       .++??[+!?++[[].==        ",
"       =.+?[++?[+[+].==         ",
"        .!++!?++?[+.===         ",
"        .??+?[[+[]+].=          ",
"        .?[+?[]]+++].           ",
"         ++++++?[[+.==          ",
"         =.+??[+[].===          ",
"          =+?[[+].===           ",
"           .[]]+.===            ",
"            ....===             ",
"            ======              ",
"             ====               ",
"                                ",
"};