/* XPM */
static char *item_xpm[] = {
"32 32 9 1",
"  c None",
". c #17111a",
", c #ffffff",
"- c #b2bcc2",
": c #3898ff",
"+ c #16111b",
"; c #9cccff",
"= c #9e9da0",
"! c #16111c",
/* pixels */
"@@@@@@@@@@@@@@@@@@@@@@@@@@@@@@@@",
"@@@@@@@@@@@@@@@@@@@@@@@@@@@@@@@@",
"@@@@@@@@@@@@@@@@@@@..@@@@@@@@@@@",
"@@@@@@@@@@@@@@@@@@.,,..@@@@@@@@@",
"@@@@@@@@@@@@@@@@@.-,,,,.@@@@@@@@",
"@@@@@@@@@@@@@@@@@.-,,,,,.@@@@@@@",
"@@@@@@@@@@@@@@@@@.:-,,,,-.@@@@@@",
"@@@@@@@@@@@@@@@@@.+:-,,---.@@@@@",
"@@@@@@@@@@@@.....:++:-----.@@@@@",
"@@@@@@@@@@@.;;;;:@+@+:---.++@@@@",
"@@@@@@@@@@.;@+++;++@@+...+++@@@@",
"@@@@@@@@@.;@+==++;@@@:.++++@@@@@",
"@@@@@@@@.;@+=,@@@+::@:.+++@@@@@@",
"@@@@@@@.;@++@@!!@@+@::.+@@@@@@@@",
"@@@@@@@.;++@@!!@:@@++@:.@@@@@@@@",
"@@@@@@.:++@@---:@@@@@+:.@@@@@@@@",
"@@@@@.:-----,,,:-+@@@@:.+@@@@@@@",
"@@@@@.:,,,,,,,:,,--@@@:.+@@@@@@@",
"@@@@.:--,,,,,:,,,,,-@@:.+@@@@@@@",
"@@@.:-,,--,,:,,------:.++@@@@@@@",
"@@@.:-,,,,-:---,,,,-:.@++@@@@@@@",
"@@@.:-,,,,,:,,,,,,-:.+++@@@@@@@@",
"@@@@.:-,,,:,,,,,,,-:.++@@@@@@@@@",
"@@@@.:-,,,:,,,,,,-:.++@@@@@@@@@@",
"@@@@@.:-,:,,,,,,-:.+++@@@@@@@@@@",
"@@@@@+.:-,,,,,,,-:.++@@@@@@@@@@@",
"@@@@@@+.:---,,,-:.++@@@@@@@@@@@@",
"@@@@@@@+.:::---:.+++@@@@@@@@@@@@",
"@@@@@@@@+...:::.+++@@@@@@@@@@@@@",
"@@@@@@@@@+++...+++@@@@@@@@@@@@@@",
"@@@@@@@@@@+++++++@@@@@@@@@@@@@@@",
"@@@@@@@@@@@@@+++@@@@@@@@@@@@@@@@",
"};