/* XPM */
static char *item_xpm[] = {
"32 32 19 1",
"  c None",
". c #17111a",
", c #d3a15e",
"- c #986b47",
": c #d4643c",
"+ c #a87a4d",
"; c #904c42",
"= c #16111b",
"! c #e6a476",
"? c #a25b52",
"[ c #c48064",
"] c #8b4a45",
"{ c #a8513b",
"} c #653439",
"( c #874743",
") c #af6f59",
"* c #be5c3f",
"& c #c5cdd1",
"^ c #243b61",
/* pixels */
"@@@@@@@@@@@@@@@@@@@@@@@@@@@@@@@@",
"@@@@@@@@@@@@@@@@@@@@@@@@@@@@@@@@",
"@@@@@@@@@@@@@@@@@@@@@@@@@@@@@@@@",
"@@@@@@@@@@@@@@.@@@@@@@@@@@@@@@@@",
"@@@@@@@@@@@@..,.@@@@@@@@@@@@@@@@",
"@@@@@@@@@...,-:.@@@@@@@@@@@@@@@@",
"@@@@@@@@.,,+;:.==@@@@@@@@@@@@@@@",
"@@@@@@@.,+;--;.==@@@@@@@@@@@@@@@",
"@@@@@@.,;-:;:.==@@@@@@@@@@@@@@@@",
"@@@@@.,+:;...===@@@@@@@@@@@@@@@@",
"@@@@@.....=====@@@@@@@@@@@@@@@@@",
"@@@@.@========@@.@@@@@@@@@@@@@@@",
"@@@.!.===..@@@@.,.@@@@@@@@@@@@@@",
"@@@.?.@@@.,..@.,-.@@@@@@@@@@@@@@",
"@@@.:[.@@@.+;..;+-.@@@@@@@@@@@@@",
"@@@.]:?...;:;+:;+;-.@@@@@@@@@@@@",
"@@@.[]{:?!}}}}};:;:-.@@@@@@@@@@@",
"@@@.![]{:?!?!?!}}}}}}..@@@@@@@@@",
"@@@@.![]]:?[?[?!?!?!(}?..@@@@@@@",
"@@@@.!!![]]{:?[?[?[(}????.@@@@@@",
"@@@@@.,)!![]]:?:?:*}??????.@@@@@",
"@@@@.,;-)!!![]]{*{}????&^(?.@@@@",
"@@@@....)!!!!![]{*}????^.(?.@@@@",
"@@@@@===.)!!!!![]]}????((??(.@@@",
"@@@@@==.,;))))!!![}????????(.@@@",
"@@@@@@.,;,:;,:..!![}??????((.=@@",
"@@@@@@...-;,-.==...[}??((((.==@@",
"@@@@@@@==.-::.=====........===@@",
"@@@@@@@===...==@@============@@@",
"@@@@@@@@@@=====@@@@@========@@@@",
"@@@@@@@@@@@===@@@@@@@@@@@@@@@@@@",
"@@@@@@@@@@@@@@@@@@@@@@@@@@@@@@@@",
"};