/* XPM */
static char *item_xpm[] = {
"32 32 8 1",
"  c None",
". c #17111a",
", c #d98750",
"- c #d0642c",
": c #ffd04b",
"+ c #8e5652",
"; c #16111b",
"= c #ffbf36",
/* pixels */
"@@@@@@@@@@@@@@@@@@@@@@@@@@@@@@@@",
"@@@@@@@@@@@@@@@@@@@@@@@@@@@@@@@@",
"@@@@@@@@@@@@@@@@@@@@@@@@@@@@@@@@",
"@@@@@@@@@@@@@@@@@@@@@@@@@@@@@@@@",
"@@@@@@@@@@@@@@@@@@@@@@@@@@@@@@@@",
"@@@@@@@@@@@@@@@@@@@@@@@@@@@@@@@@",
"@@@@@@@@@@@@@@@@@@@@@@@@@@@@@@@@",
"@@@@@@@@@@@@@@@@@@@@@@@@@@@@@@@@",
"@@@@@@@@@@@@........@@@@@@@@@@@@",
"@@@@@@@@@@..,,,,,,,,..@@@@@@@@@@",
"@@@@@@@@..,,,,,,,,,,,,..@@@@@@@@",
"@@@@@@@.,,,,,,,,,,,,,,,,.@@@@@@@",
"@@@@@@.,,,------------,,,.@@@@@@",
"@@@@@.,,--............--,,.@@@@@",
"@@@@.:+-..;;;;;;;;;;;;..-+=.@@@@",
"@@@@.=:.;;;;;;;;;;;;;;;;.==.@@@@",
"@@@@.==:..;@@@@@@@@@@@..===.;@@@",
"@@@@.===::............=====.;@@@",
"@@@@@.====:::::::::=======.;;@@@",
"@@@@@;.==================.;;;@@@",
"@@@@@@;.================.;;;@@@@",
"@@@@@@@;.==============.;;;@@@@@",
"@@@@@@@@;..==========..;;;@@@@@@",
"@@@@@@@@@;;..........;;;;@@@@@@@",
"@@@@@@@@@@;;;;;;;;;;;;;;@@@@@@@@",
"@@@@@@@@@@@@;;;;;;;;;;@@@@@@@@@@",
"@@@@@@@@@@@@@@@@@@@@@@@@@@@@@@@@",
"@@@@@@@@@@@@@@@@@@@@@@@@@@@@@@@@",
"@@@@@@@@@@@@@@@@@@@@@@@@@@@@@@@@",
"@@@@@@@@@@@@@@@@@@@@@@@@@@@@@@@@",
"@@@@@@@@@@@@@@@@@@@@@@@@@@@@@@@@",
"@@@@@@@@@@@@@@@@@@@@@@@@@@@@@@@@",
"};