/* XPM */
static char *item_xpm[] = {
"32 32 8 1",
"  c None",
". c #17111a",
", c #804646",
"- c #753939",
": c #372538",
"+ c #4a2d3a",
"; c #5d3238",
"= c #16111b",
/* pixels */
"@@@@@@@@@@@@@@@@@@@@@@@@@@@@@@@@",
"@@@@@@@@@@@@@@@@@@@@@@@@@@@@@@@@",
"@@@@@@@@@@@@@@@@@@@@@@@@@@@@@@@@",
"@@@@@@@@@@..@@@@@@@@@@@@@@@@@@@@",
"@@@@@@@@@.,-.@@@@@@@@@@@@@@@@@@@",
"@@@@@@@@.,--:.@@@@@@@@@@@@@@@@@@",
"@@@@@@@@.,-:+.@@@@@@@@@@@@@@@@@@",
"@@@@@@@@.,:;++.@@@@@@@@@@@@@@@@@",
"@@@@@@@.,-:;;+.@@@@@@@@@@@@@@@@@",
"@@@@@@@.,:;;;++.@@@@@@@@@@@@@@@@",
"@@@@@@.,-:;;;++.@@@@@@@@@@@@@@@@",
"@@@@@@.,:;;;;+++.@@@@@@@@@@@@@@@",
"@@@@@@.-:;;;++++.@@@@@@@@@@@@@@@",
"@@@@@@.--:;;++++.=@@@@@@@@@@@@@@",
"@@@@@@@.-:;++++:+.@@@@@@@@@@@@@@",
"@@@@@@@=.-:++::+++...@@@@@@@@@@@",
"@@@@@@@@=.-::++++++++.@@@@@@@@@@",
"@@@@@@@@@=.+++++++++++.@@@@@@@@@",
"@@@@@@@@@@.++++++++++++..@@@@@@@",
"@@@@@@@@@.;;+++++++++::--.@@@@@@",
"@@@@@@@@@.;;;+++.+++:,,:--.@@@@@",
"@@@@@@@@@.;;;++.=.::,:,:--.@@@@@",
"@@@@@@@@@@.;;++.==.,,:,-:--.@@@@",
"@@@@@@@@@@=.+,,-.@.,,-:-:--.@@@@",
"@@@@@@@@@@@=.,,--.@.,-:--:--.@@@",
"@@@@@@@@@@@@=.,,-.@.,,-:-:--.@@@",
"@@@@@@@@@@@@@=.,-.=@.--:--..==@@",
"@@@@@@@@@@@@@@=..==@.---..====@@",
"@@@@@@@@@@@@@@@====@@...=====@@@",
"@@@@@@@@@@@@@@@@==@@@======@@@@@",
"@@@@@@@@@@@@@@@@@@@@@@===@@@@@@@",
"@@@@@@@@@@@@@@@@@@@@@@@@@@@@@@@@",
"};