/* XPM */
static char *item_xpm[] = {
"32 32 8 1",
"  c None",
". c #17111a",
", c #682b82",
"- c #482752",
": c #8b3396",
"+ c #5d1f70",
"; c #a138a2",
"= c #16111b",
/* pixels */
"@@@@@@@@@@@@@@@@@@@@@@@@@@@@@@@@",
"@@@@@@@@@@@@@@@@@@@@@@@@@@@@@@@@",
"@@@@@@@@@@@@@@@@@@@@@@@@@@@@@@@@",
"@@@@@@@@@@@@@@....@@@@@@@@@@@@@@",
"@@@@@@@@@@@@..,,,,..@@@@@@@@@@@@",
"@@@@@@@@@@@.,,----,,.@@@@@@@@@@@",
"@@@@@@@@@@.,,-::::-,,.@@@@@@@@@@",
"@@@@@@@@@.,,,,-::-,++,.@@@@@@@@@",
"@@@@@@@@.,,--,,--,+--,,.@@@@@@@@",
"@@@@@@@@.,-::-,,,+-::-,.@@@@@@@@",
"@@@@@@@@.,-:;:----:;:-,.=@@@@@@@",
"@@@@@@@.,,-:;;::::;;:-++.@@@@@@@",
"@@@@@@@.,,-:;;;;;;;;:-++.@@@@@@@",
"@@@@@@@.,-:;;;;;;;;;;:-+.=@@@@@@",
"@@@@@@.,,-:;;;;;;;;;;:-,+.@@@@@@",
"@@@@@@.,,-:;;;;;;;;;;:-,+.@@@@@@",
"@@@@@@.,,-:;;;;;;;;;;:-,+.=@@@@@",
"@@@@@@.,,-:;;;;;;;;;;:-,+.=@@@@@",
"@@@@@.,,,-:;;;;;;;;;;:-,,+.@@@@@",
"@@@@@.,,,-:;;;;;;;;;;:-,,+.@@@@@",
"@@@@@.,,,-:;;;;;;;;;;:-,,+.=@@@@",
"@@@@@.,,,-::;;;;;;;;::-,,+.=@@@@",
"@@@@@.,,,-:::;;;;;;:::-,,+.=@@@@",
"@@@@@.,,,+-:::::::::::-,,+.=@@@@",
"@@@@@.,,,,+-.........-+,++.=@@@@",
"@@@@@.++,,+.=========.++++.=@@@@",
"@@@@@@..++++.=======.+++..==@@@@",
"@@@@@@==..+++.@@@@@.++..====@@@@",
"@@@@@@@===.....@@@....=====@@@@@",
"@@@@@@@@@======@@@@@=====@@@@@@@",
"@@@@@@@@@@@=====@@@====@@@@@@@@@",
"@@@@@@@@@@@@@@@@@@@@@@@@@@@@@@@@",
"};