/* XPM */
static char *item_xpm[] = {
"32 32 7 1",
"  c None",
". c #17111a",
", c #ffd1ab",
"- c #ffa070",
": c #cf7957",
"+ c #16111b",
"; c #ffffff",
/* pixels */
"@@@@@@@@@@@@@@@@@@@@@@@@@@@@@@@@",
"@@@@@@@@@@@@@@@@@@@@@@@@@@@@@@@@",
"@@@@@@@@@@@@@@@@@@@@@@@@@@@@@@@@",
"@@@@@@@@@@@@@@@@@@@@@@@@@@@@@@@@",
"@@@@@@@@@@@@@......@@@@@@@@@@@@@",
"@@@@@@@@@@@@.,,,,,,.@@@@@@@@@@@@",
"@@@@@@@@@@@.,,,,,-,,.@@@@@@@@@@@",
"@@@@@@@@@@@.,--::.-,,.@@@@@@@@@@",
"@@@@@@@@@@@......:.-,,.@@@@@@@@@",
"@@@@@@@@@@@@+.:::.+.-,,.@@@@@@@@",
"@@@@@@@@@@@@.--..++.-,,,.@@@@@@@",
"@@@@@@@@@@@@@..++++@.-,,.@@@@@@@",
"@@@@@@@@@@@@@+++++@@.-,,,.@@@@@@",
"@@@@@....@@@@@++@@@@.-,,,,.@@@@@",
"@@@@.,,,,..@@@@..@@@.:,,,,.@@@@@",
"@@@.,,,,,,,.@..,,..@.:-,,,,.@@@@",
"@@@.,,;;,,,,.,,,,,,..:-,,,,.@@@@",
"@@@.,,;,,,,,,,,,,,,,,.-,,,,,.@@@",
"@@@.,,,,,,,,,,,,,,,,,,,,,,,,,.@@",
"@@@.,,,,,,,,...,,,,,,,,,,,,--.@@",
"@@@.,,,,,,,.:::..,,,,,,----..++@",
"@@@.,,,,,,.:---::.-,---....++++@",
"@@@.,,,,,,.:--.-----...+++++++@@",
"@@@.,,,,,,.:-.......++++++++@@@@",
"@@@.,,,,,.:.-.++++++++++@@@@@@@@",
"@@@.,,,,.:--,.+++++++@@@@@@@@@@@",
"@@@.,,,.:-,,.++@@@@@@@@@@@@@@@@@",
"@@@.,,.:-,,.+++@@@@@@@@@@@@@@@@@",
"@@@........+++@@@@@@@@@@@@@@@@@@",
"@@@@+++++++++@@@@@@@@@@@@@@@@@@@",
"@@@@++++++++@@@@@@@@@@@@@@@@@@@@",
"@@@@@@@@@@@@@@@@@@@@@@@@@@@@@@@@",
"};