/* XPM */
static char *item_xpm[] = {
"32 32 14 1",
"  c None",
". c #17111a",
", c #b46c5b",
"- c #aa5844",
": c #8c3f34",
"+ c #16111b",
"; c #492b38",
"= c #673435",
"! c #572f36",
"? c #713735",
"[ c #372538",
"] c #512d37",
"{ c #472a37",
"} c #5f3136",
/* pixels */
"@@@@@@@@@@@@@@@@@@@@@@@@@@@@@@@@",
"@@@@@@@@@@@@@@@@@@@@@@@@@@@@@@@@",
"@@@@@@@@@@@@@@@@@@@@@@@@@@@@@@@@",
"@@@@@@@@@@@@@@@@@@@@@..@@@@@@@@@",
"@@@@@@@@@@@@@@@@@@@@.,-.@@@@@@@@",
"@@@@@@@@@@@@@@@@@@@@.-:.@@@@@@@@",
"@@@@@@@@@@@@@@@@@@@.,:.++..@@@@@",
"@@@@@@@@@@@@@@@@@@@.-:;..--.@@@@",
"@@@@@@@@@@@@@@@@@@.-:;=--::=.@@@",
"@@@@@@@@@@@@@@@@@.-:;=-::..;.@@@",
"@@@@@@@@@@@@@@@@.-:;=:::.++.++@@",
"@@@@@@@@@@@@@@@.-:=.:::.=.++++@@",
"@@@@@@@@@@@@@@.-:=.+.:.+.!.@+@@@",
"@@@@@@@@@@@@@.-:=.++.:=.+.+@@@@@",
"@@@@@@@@@@@@.-:=.+++@.=;.+++@@@@",
"@@@@@@@@@@@.-:=.+++@@+..+@+@@@@@",
"@@@@@@@@@@.-:=.+++@@@@++++@@@@@@",
"@@@@@@....-:=.+++@@@@@@++@@@@@@@",
"@@@@@.,,,-;=.+++@@@@@@@@@@@@@@@@",
"@@@@.,---::;.++@@@@@@@@@@@@@@@@@",
"@@@.,--:::?:=.@@@@@@@@@@@@@@@@@@",
"@@@.--:::::?=.@@@@@@@@@@@@@@@@@@",
"@@@.-::::::?=.+@@@@@@@@@@@@@@@@@",
"@@@.::[[]::?;.+@@@@@@@@@@@@@@@@@",
"@@@.::{;=:?:;.+@@@@@@@@@@@@@@@@@",
"@@@@.:;}}?:;.++@@@@@@@@@@@@@@@@@",
"@@@@+.:::=;.+++@@@@@@@@@@@@@@@@@",
"@@@@@+.....+++@@@@@@@@@@@@@@@@@@",
"@@@@@@+++++++@@@@@@@@@@@@@@@@@@@",
"@@@@@@@+++++@@@@@@@@@@@@@@@@@@@@",
"@@@@@@@@@@@@@@@@@@@@@@@@@@@@@@@@",
"@@@@@@@@@@@@@@@@@@@@@@@@@@@@@@@@",
"};