/* XPM */
static char *item_xpm[] = {
"32 32 11 1",
"  c None",
". c #17111a",
", c #b2bcc2",
"- c #879198",
": c #404a54",
"+ c #626c75",
"; c #323a43",
"= c #16111b",
"! c #372538",
"? c #753939",
"[ c #4d2c38",
/* pixels */
"@@@@@@@@@@@@@@@@@@@@@@@@@@@@@@@@",
"@@@@@@@@@@@@@@@@@@@@@@@@@@@@@@@@",
"@@@@@@@@@@@@@@@@@@@@@@@@@@@@@@@@",
"@@@@@@@@@@@@@@@@@@@@@@@@@@@@@@@@",
"@@@@@@@@@@@@@@@@@@@@@@@@@@@@@@@@",
"@@@@@@@@@@@@@@@@@@@@@@@@@@@@@@@@",
"@@@@@@@@@@@@@@@@@@@@@@@@@@@@@@@@",
"@@@@@@@@@@@@@@@@@@..@@@@@@@@@@@@",
"@@@@@@@@@@@@@@@@..,,.@@@@@@@@@@@",
"@@@@@@@@@@@@@@..,,---..@@@@@@@@@",
"@@@@@@@@@@@@@.---------.@@@@@@@@",
"@@@@@@@@@@@@@.:---------..@@@@@@",
"@@@@@@@@@@@@@.+:----------.@@@@@",
"@@@@@@@@@@@@@.++::---------.@@@@",
"@@@@@@@@@@@@@@.+++:-------;:.@@@",
"@@@@@@@@@@@@@@=.!!+;;---;;::.@@@",
"@@@@@@@@@@@@@@.???!+:;-;::::.=@@",
"@@@@@@@@@@@@..???[.:::;:::::.=@@",
"@@@@@@@@@@@.???[[.=.::+:::..==@@",
"@@@@@@@@@..???[..===..+:..====@@",
"@@@@@@@@.???[[.====@==..=====@@@",
"@@@@@@@.???[..====@@@======@@@@@",
"@@@@@..???[.====@@@@@@@==@@@@@@@",
"@@@@.???[[.====@@@@@@@@@@@@@@@@@",
"@@@.???[..===@@@@@@@@@@@@@@@@@@@",
"@@@.?[[.====@@@@@@@@@@@@@@@@@@@@",
"@@@@...====@@@@@@@@@@@@@@@@@@@@@",
"@@@@=====@@@@@@@@@@@@@@@@@@@@@@@",
"@@@@@===@@@@@@@@@@@@@@@@@@@@@@@@",
"@@@@@@@@@@@@@@@@@@@@@@@@@@@@@@@@",
"@@@@@@@@@@@@@@@@@@@@@@@@@@@@@@@@",
"@@@@@@@@@@@@@@@@@@@@@@@@@@@@@@@@",
"};