/* XPM */
static char *item_xpm[] = {
"32 32 9 1",
"  c None",
". c #504354",
", c #372538",
"- c #b2bcc2",
": c #17111a",
"+ c #7a213a",
"; c #9f2d3d",
"= c #e14141",
"! c #16111b",
/* pixels */
"@@@@@@@@@@@@@@@@@@@@@@@@@@@@@@@@",
"@@@@@@@@@@@@@@@@@@@@@@@@@@@@@@@@",
"@@@@@@@@@@@@@@@@@@@@@@@@@@@@@@@@",
"@@@........,-----:@@@@@@@@@@@@@@",
"@@@.........,-----:@@@@@@@@@@@@@",
"@@@,,........,-----:@@@@@@@@@@@@",
"@@@--,,.......,-----:@@@@@@@@@@@",
"@@@----,,,.....,-----:@@@@@@@@@@",
"@@@:------,,....,-----:@@@@@@@@@",
"@@@@:+------,,,..,-----:@@@@@@@@",
"@@@@:;++-------,,,,-----:@@@@@@@",
"@@@@:=;;++:--------,-----:@@@@@@",
"@@@@@:==;:!:::------------:@@@@@",
"@@@@@:==;:!!!!:++----------:@@@@",
"@@@@@@:=:!!@!!:;;+++--------:@@@",
"@@@@@@:=:!!@@@@:=;;;++:------:@@",
"@@@@@@:=:!@@@@@!:==;;:!:++++-:@@",
"@@@@@@:=:!@@@@@@:==+;:!!:;;;::!@",
"@@@@@@:=;:@@@@@@:==+=:!@:=;:!!!@",
"@@@@@:==;:@@@@@@:==+=:!@:=:!!!!@",
"@@@@:==;;:!@@@@@:==+=:!@:=:!!@@@",
"@@@@:=;;:!!@@@@@:==+=:!@:=:!@@@@",
"@@@@@:::!!!@@@@@:==+;;:@:=:!@@@@",
"@@@@@!!!!!@@@@@@:==:;;:@:=:!@@@@",
"@@@@@@!!!@@@@@@@:=:!::!!:=;:@@@@",
"@@@@@@@@@@@@@@@@:=:!!!!:==;;:@@@",
"@@@@@@@@@@@@@@@@:;::@!!:==;;:@@@",
"@@@@@@@@@@@@@@@@:;=:@@@@:;;:!!@@",
"@@@@@@@@@@@@@@@@@::!!@@@!::!!!@@",
"@@@@@@@@@@@@@@@@@!!!!@@@@!!!!@@@",
"@@@@@@@@@@@@@@@@@@!!@@@@@@!!@@@@",
"@@@@@@@@@@@@@@@@@@@@@@@@@@@@@@@@",
"};