/* XPM */
static char *item_xpm[] = {
"32 32 16 1",
"  c None",
". c #17111a",
", c #7dd133",
"- c #9de661",
": c #61812b",
"+ c #bfef98",
"; c #16111b",
"= c #73a930",
"! c #4c5025",
"? c #4a2d3a",
"[ c #271b29",
"] c #383c17",
"{ c #372538",
"} c #753939",
"( c #522e38",
") c #54313b",
/* pixels */
"@@@@@@@@@@@@@@@@@@@@@@@@@@@@@@@@",
"@@@@@@@@@@@@@@@@@@@@@@@@@@@@@@@@",
"@@@@@@@@@@@@@@@@@@@@@@@@@@@@@@@@",
"@@@@@@@@@@@@@@@@@@@@@@......@@@@",
"@@@@@@@@@@@@@@@@@@@@..,-----.@@@",
"@@@@@@@@@@@@@@@@@@@.::,++--,.@@@",
"@@@@@@@@@@@@@@@@@@.:::+,,-,,.;@@",
"@@@@@@@@@@@@@@@@@.:::,,==,,,.;@@",
"@@@@@@@@@@@@@@@@.:::+====,,,.;@@",
"@@@@@@@@@@@@@@@.:::,=====,,,.;@@",
"@@@@@@@@@@@@@@@.::=======!,.;;@@",
"@@@@@@@@@@@@@@.!!:======!!!.;;@@",
"@@@@@@@@@@@@@@.!!!=====!!!.;;@@@",
"@@@@@@@@@@@@@..!!!====!!!.;;;@@@",
"@@@@@@@@@@@@.??[!!]]]!!!.;;;@@@@",
"@@@@@@@@@@@.?{??[]]]]]].;;;@@@@@",
"@@@@@@@@@@.??{???[]]]..;;;@@@@@@",
"@@@@@@@@@@.[??[?{{...;;;;@@@@@@@",
"@@@@@@@@@.}([?[{{{.;;;;;@@@@@@@@",
"@@@@@@@@.}}}([{[{.;;;;@@@@@@@@@@",
"@@@@@@@.}((}}([{.;;;@@@@@@@@@@@@",
"@@@@@@.}}(?}})..;;;@@@@@@@@@@@@@",
"@@@@@.}}(}}}).;;;;@@@@@@@@@@@@@@",
"@@@@.}}(}}}).;;;;@@@@@@@@@@@@@@@",
"@@@.}}(}}}).;;;@@@@@@@@@@@@@@@@@",
"@@@.}(}}}).;;;@@@@@@@@@@@@@@@@@@",
"@@@.(}}}).;;;@@@@@@@@@@@@@@@@@@@",
"@@@.}})).;;;@@@@@@@@@@@@@@@@@@@@",
"@@@.....;;;@@@@@@@@@@@@@@@@@@@@@",
"@@@@;;;;;;@@@@@@@@@@@@@@@@@@@@@@",
"@@@@;;;;;@@@@@@@@@@@@@@@@@@@@@@@",
"@@@@@@@@@@@@@@@@@@@@@@@@@@@@@@@@",
"};