/* XPM */
static char *item_xpm[] = {
"32 32 7 1",
"  c None",
". c #17111a",
", c #ffe9d7",
"- c #ffd1ab",
": c #ffb488",
"+ c #cf7957",
"; c #16111b",
/* pixels */
"@@@@@@@@@@@@@@@@@@@@@@@@@@@@@@@@",
"@@@@@@@@@@@@@@@@@@@@@@@@@@@@@@@@",
"@@@@@@@@@@@@@@@@@@@@@@@@@@@@@@@@",
"@@@@@@@@@@@@@@@@@@@@@@@@@@@@@@@@",
"@@@@@@@@@@@@@@@@@@@@@@@@@@@@@@@@",
"@@@@@@@@@@@@@@@@@@@@@@@@@@@@@@@@",
"@@@@@@@@@@@@..@@@@@@@@@@@@@@@@@@",
"@@@@@@@@@@@.,,.@...@@@@@@@@@@@@@",
"@@@@@@@@@@.,--:.,,:.@@@@@@@@@@@@",
"@@@@@@@@@@.----:---:...@@@@@@@@@",
"@@@@@@@@@.,---------:::.@@@@@@@@",
"@@@@@@@@@.------------::..@@@@@@",
"@@@@@@@@.----:+--------:::.@@@@@",
"@@@@@@@@.----:+--------::::.@@@@",
"@@@@@@@.+---:+---:+---::::::.@@@",
"@@@@@@.-+---:+--::+--:::::::.@@@",
"@@@@@.-:+--:+::::+--::+::::.;;@@",
"@@@@@.-+::::+::::+::::+::::.;;@@",
"@@@@@.-+::::+::::+:::+::::.;;@@@",
"@@@@.-:+:::+::::+::::+::::.;;@@@",
"@@@@.:::+::+::::+:::+::::.;;@@@@",
"@@@@.::::+:+:::+::::+:::.;;;@@@@",
"@@@@@.::::+::::+:::+::::.;;@@@@@",
"@@@@@;..:::..::+:::+:::.;;@@@@@@",
"@@@@@@;;...;;...::.+:..;;;@@@@@@",
"@@@@@@@;;;;;;;;;..;..;;;;@@@@@@@",
"@@@@@@@@@;;;@@;;;;;;;;;;@@@@@@@@",
"@@@@@@@@@@@@@@@@@;;@;;@@@@@@@@@@",
"@@@@@@@@@@@@@@@@@@@@@@@@@@@@@@@@",
"@@@@@@@@@@@@@@@@@@@@@@@@@@@@@@@@",
"@@@@@@@@@@@@@@@@@@@@@@@@@@@@@@@@",
"@@@@@@@@@@@@@@@@@@@@@@@@@@@@@@@@",
"};