/* XPM */
static char *item_xpm[] = {
"32 32 10 1",
"  c None",
". c #17111a",
", c #a66f4c",
"- c #ae7c5c",
": c #794c41",
"+ c #16111b",
"; c #b6896b",
"= c #4e2d2e",
"! c #a16b4b",
"? c #21171e",
/* pixels */
"@@@@@@@@@@@@@@@@@@@@@@@@@@@@@@@@",
"@@@@@@@@@@@@@@@@@@@@@@@@@@@@@@@@",
"@@@@@@@@@@@@@@@@@@@@@@@@@@@@@@@@",
"@@@@@@@@@@@@@@@@@@@@@@@@@@@@@@@@",
"@@@@@@@@@@@@@@@@@@@@@@@@@@@@@@@@",
"@@@@@@@@@@@@@@@@@@@@@@@@..@@@@@@",
"@@@@@@@@@@@@@@@@@@@@@@@.,,.@@@@@",
"@@@@@@@@@@@@@@@@@@@@@@.-,:.@@@@@",
"@@@@@@@@@@@@@@@@@@@@@.,,:.++@@@@",
"@@@@@@@@@@@@@@@@@@@@.;,:.+++@@@@",
"@@@@@@@@@@@@@@@@@@@.;,:.+++@@@@@",
"@@@@@@@@@@@@@@@@@@.;,:.+++@@@@@@",
"@@@@@@@@@@@@@@@@@.;,:.+++@@@@@@@",
"@@@@@@@@@@@@@@@@.;,:.+++@@@@@@@@",
"@@@@@@@@@@@@@@@.;,:.+++@@@@@@@@@",
"@@@@@@@@@@@@@@.;,:.+++@@@@@@@@@@",
"@@@@@@@@@@@@@.;,:.+++@@@@@@@@@@@",
"@@@@@@@@@@@@.;,:.+++@@@@@@@@@@@@",
"@@@@@@@@..@.,,:.+++@@@@@@@@@@@@@",
"@@@@@@@.;,.,,:.+++@@@@@@@@@@@@@@",
"@@@@@@@.,,=!:.+++@@@@@@@@@@@@@@@",
"@@@@@@@@.::=?+++@@@@@@@@@@@@@@@@",
"@@@@@@@.;=:::.+@@@@@@@@@@@@@@@@@",
"@@@@@@.;,:.::.@@@@@@@@@@@@@@@@@@",
"@@@@@.;,:.+..++@@@@@@@@@@@@@@@@@",
"@@@@@.::.++++++@@@@@@@@@@@@@@@@@",
"@@@@@@..+++@++@@@@@@@@@@@@@@@@@@",
"@@@@@@++++@@@@@@@@@@@@@@@@@@@@@@",
"@@@@@@@++@@@@@@@@@@@@@@@@@@@@@@@",
"@@@@@@@@@@@@@@@@@@@@@@@@@@@@@@@@",
"@@@@@@@@@@@@@@@@@@@@@@@@@@@@@@@@",
"@@@@@@@@@@@@@@@@@@@@@@@@@@@@@@@@",
"};