/* XPM */
static char *item_xpm[] = {
"32 32 14 1",
"  c None",
". c #17111a",
", c #dcff70",
"- c #83e04c",
": c #16111b",
"+ c #6eeeff",
"; c #7884ab",
"= c #9be856",
"! c #525278",
"? c #ffffff",
"[ c #7de47c",
"] c #959ebd",
"{ c #8490b0",
"} c #b2bcc2",
/* pixels */
"@@@@@@@@@@@@@@@@@@@@@@@@@@@@@@@@",
"@@@@@@@@@@@@@@@@@@@@@@@@@@@@@@@@",
"@@@@@@@@@@@@@@@.@@@.@@@.@@@@@@@@",
"@@@@@@@@@@@.@@@@..@@..@@.@@@@@@@",
"@@@@@@@@@@@@..@@.,.@.,.@.@@@@@@@",
"@@@@@@@@@@@@.,.@@.,.@.,.,.@@@@@@",
"@@@@@@@@@@.@@.,...,.@.,,-,.@@@@@",
"@@@@@@@@@@@..:.,,.,,.@.,-,.@@@@@",
"@@@@@@@@@@@.,.:.,,.,.@.,-,,.@@@@",
"@@@@@@@...@@.,.:.,-,,.@.,-,.@@@@",
"@@@@@@@@.,.@:.,.-,+,,.@.,-,.:@@@",
"@@@@@@@@:.,.@.,,-,+,+,.,,-,.:@@@",
"@@@@@@@@@:.,.,-,-,+,+,-,,+,.:@@@",
"@@@@@@@@@@.,-,+,+,+,+,-,,+,.:@@@",
"@@@@@@@@@@.,+,+,+,+,+,-,,+,.:@@@",
"@@@@@@@@@@@.+,-,+,,,+,-,,+,.:@@@",
"@@@@@@@@..@.+,,,,,+,,,-,,,,.:@@@",
"@@@@@@@@.;.,+,=,,,+,,,,,,+,.:@@@",
"@@@..@@.;;!=,,=,-,,,=,,,,+,.:@@@",
"@@@.!..;;;!==,=,+,,,=,+,,==.:@@@",
"@@@.!!!!;!?!====[,,===[,,==.:@@@",
"@@@@..!!!]??!!!!==========!.:@@@",
"@@@@::.!!{}}????!!!!!!!!!!?.:@@@",
"@@@@@.!!..{{}}}}??????????}.:@@@",
"@@@@@...::...{{{}}}}}}}}}{{.:@@@",
"@@@@@@:::::::...{{}}}}}{{..::@@@",
"@@@@@@:::@@:::::..{{{{{..::::@@@",
"@@@@@@@@@@@@@@::::.....:::::@@@@",
"@@@@@@@@@@@@@@@@@:::::::::@@@@@@",
"@@@@@@@@@@@@@@@@@@@:::::@@@@@@@@",
"@@@@@@@@@@@@@@@@@@@@@@@@@@@@@@@@",
"@@@@@@@@@@@@@@@@@@@@@@@@@@@@@@@@",
"};