/* XPM */
static char *item_xpm[] = {
"32 32 11 1",
"  c None",
". c #000000",
", c #17111a",
"- c #ffffff",
": c #16111b",
"+ c #8c97b8",
"; c #c9cedd",
"= c #7f4848",
"! c #986b6b",
"? c #865252",
"[ c #753939",
/* pixels */
"@@@@@@@@@@@@@@@@@@@@@@@@@@@@@@@@",
"@@@@@@@@@@@@@@@@@@@@@@@@@@@@@@@@",
"@@@@@@@@@@@@@@@@@@@@@@@@@@@@@@@@",
"@@@@@@@@.....,,,,,@@@@@@@@@@@@@@",
"@@@@@@@@@@@,,----,@@,,,@@@@@@@@@",
"@@@@@@@@@.,-----,::,---,,@@@@@@@",
"@@@@@@@@@,-------,,------,,@@@@@",
"@@@@@@,@@,--------+--------,@@@@",
"@@@@@,-,,+-------+--------;,@@@@",
"@@@@@,-;--+------;---;;--;,::@@@",
"@@@@,------;-----;-----+--;,:@@@",
"@@@,-------;---------;+-----,@@@",
"@@@,------------------------,@@@",
"@@@,;------+----------------,:@@",
"@@@@,;;---;-+---=-------;;--,:@@",
"@@@@:,;;--;--;-;=--------+-,::@@",
"@@@@@:,;;-----;==;--;---+;-,::@@",
"@@@@@@,=;;---;=!=;---++---,::@@@",
"@@@@@@@,=;;;;;=!=;;-;;;++,:::@@@",
"@@@@@@@,!==;;=!?[;;;;;;;;,::@@@@",
"@@@@@@@@,!!==!!??[[[[;;[,::@@@@@",
"@@@@@@@@:,,!!!???????[[,:::@@@@@",
"@@@@@@@@@::,,[????????,:::@@@@@@",
"@@@@@@@@@@:::,?[[[,,,,:::@@@@@@@",
"@@@@@@@@@@@@,?[,,,::::::@@@@@@@@",
"@@@@@@@@@@@@,?,::::::::@@@@@@@@@",
"@@@@@@@@@@@,?[,::::@@@@@@@@@@@@@",
"@@@@@@@@@@@,?[,:@@@@@@@@@@@@@@@@",
"@@@@@@@@@@@@,,::@@@@@@@@@@@@@@@@",
"@@@@@@@@@@@@::::@@@@@@@@@@@@@@@@",
"@@@@@@@@@@@@@::@@@@@@@@@@@@@@@@@",
"@@@@@@@@@@@@@@@@@@@@@@@@@@@@@@@@",
"};