/* XPM */
static char *item_xpm[] = {
"32 32 7 1",
"  c None",
". c #17111a",
", c #ffffff",
"- c #b2bcc2",
": c #504354",
"+ c #16111b",
"; c #3e375c",
/* pixels */
"@@@@@@@@@@@@@@@@@@@@@@@@@@@@@@@@",
"@@@@@@@@@@@@@@@@@@@@@@@@@@@@@@@@",
"@@@@@@@@@@@@@@@@@@@@@@@@@@@@@@@@",
"@@@@@....@@@@@@@@@@@@@@@...@@@@@",
"@@@@@.,,.@@@@@@@@@@@@@@.,-.@@@@@",
"@@@..:,,.+@@@@@@@@@@@@@.,-:..@@@",
"@@@.,,,,.+@@@@@@@@@@@@@.,,,-.@@@",
"@@@.---,,.@@@@@@@@@@@@.,,,,-.+@@",
"@@@....,,,.@@......@@.,,,...++@@",
"@@@@+++.,,-..,,,,,,..-,,.+++++@@",
"@@@@++++.-:,,,,,,,,,,:-.+++++@@@",
"@@@@@@@@+.,,,,,,,,,,,,.+++@@@@@@",
"@@@@@@@@.,,,,,,,,,,,,,,.+@@@@@@@",
"@@@@@@@@.,,,,,,,,,,,,,,.@@@@@@@@",
"@@@@@@@@.,,::,,,,,,::,,.+@@@@@@@",
"@@@@@@@@.,,;::;,,;::;,-.+@@@@@@@",
"@@@@@@@@.,,-;;-,,-;;-,-.+@@@@@@@",
"@@@@@@@@@.,,--,,,,--,,.++@@@@@@@",
"@@@@@@@@@.,,,,,::,,,,-.++@@@@@@@",
"@@@@@@@@@@.,,,,--,,,,.++@@@@@@@@",
"@@@@@@@@@.:,,,,,,,,,-:.+@@@@@@@@",
"@@@@@@@@.-:,,:,,,,:,-:-.@@@@@@@@",
"@@@@@@@.,,-.,:,,,,:-.-,,.@@@@@@@",
"@@@@...,,,.+..----..+.,,,...@@@@",
"@@@.,,,,,.++++....++++.,,,,-.@@@",
"@@@.--,,.+++@++++++++@+.,,,-.@@@",
"@@@..:,,.++@@@@++++@@@@.,-:..+@@",
"@@@@+.--.+@@@@@@@@@@@@@.,-.+++@@",
"@@@@+...++@@@@@@@@@@@@@@...+++@@",
"@@@@@@++++@@@@@@@@@@@@@@++++@@@@",
"@@@@@@+++@@@@@@@@@@@@@@@@+++@@@@",
"@@@@@@@@@@@@@@@@@@@@@@@@@@@@@@@@",
"};