/* XPM */
static char *item_xpm[] = {
"32 32 18 1",
"  c None",
". c #17111a",
", c #753939",
"- c #502d38",
": c #16111b",
"+ c #e14141",
"; c #7a213a",
"= c #e44b46",
"! c #e44e40",
"? c #e85d3f",
"[ c #e85a44",
"] c #e86345",
"{ c #e45346",
"} c #fffce3",
"( c #ffece2",
") c #e55140",
"* c #fff2d7",
"& c #e7544a",
/* pixels */
"@@@@@@@@@@@@@@@@@@@@@@@@@@@@@@@@",
"@@@@@@@@@@@@@@@@@@@@@@@@@@@@@@@@",
"@@@@@@@@@@@@@@@@@@@@@@@@@@@@@@@@",
"@@@@@@@@@@@@@@@@@.@@@@@@@@@@@@@@",
"@@@@@@@@@@@@@@@@.,.@@@@@@@@@@@@@",
"@@@@@@@@@@@@@@@.,-.@@@@@@@@@@@@@",
"@@@@@@@@@@@@@@@.,-.:@@@@@@@@@@@@",
"@@@@@@@@@@@@@@.,-.::@@@@@@@@@@@@",
"@@@@@@@@@@..@@.,.:::...@@@@@@@@@",
"@@@@@@@@..++...,.:..++;..@@@@@@@",
"@@@@@@@.==+;++.,..+++++;;.@@@@@@",
"@@@@@@.!?[=+;++..++;+++;;;.@@@@@",
"@@@@@.!?][]!+;;;;;;++{++;;.@@@@@",
"@@@@@.![}([!+++!=+!+{+++;;;.@@@@",
"@@@@.=[}}}[!++!=+=!+++!+;;;.@@@@",
"@@@@.=)}}][)+{==+={+!+{+;;;.:@@@",
"@@@@.=)}}][?[{!=+!++!+{+;;;.:@@@",
"@@@@.=?]([[?[{!=+++!++{+;;;.:@@@",
"@@@@.=]][[[?={==!++=+=++;;;.:@@@",
"@@@@.+][*?[=={=+==+=+=++;;;.:@@@",
"@@@@.+{[*[[==+=+===++++;;;;.:@@@",
"@@@@@.==][{=!+!+=!+!+++;;;;.:@@@",
"@@@@@.+=[={=!++!=!!!++;;;;.::@@@",
"@@@@@@.+=+{!+==!==!++;;;;;.::@@@",
"@@@@@@:.++{==!+!+&&+;;;;;.::@@@@",
"@@@@@@@:.+=++!+&++;;;;;;.:::@@@@",
"@@@@@@@@:..++++;;;;;;;..:::@@@@@",
"@@@@@@@@@::..;;;;;;;..::::@@@@@@",
"@@@@@@@@@@:::.......:::::@@@@@@@",
"@@@@@@@@@@@@:::::::::::@@@@@@@@@",
"@@@@@@@@@@@@@@:::::::@@@@@@@@@@@",
"@@@@@@@@@@@@@@@@@@@@@@@@@@@@@@@@",
"};