/* XPM */
static char *item_xpm[] = {
"32 32 14 1",
"  c None",
". c #17111a",
", c #327acc",
"- c #243b61",
": c #2b5a96",
"+ c #3c8fd5",
"; c #879198",
"= c #3d8fd5",
"! c #c2c2c6",
"? c #b2bcc2",
"[ c #626c75",
"] c #404a54",
"{ c #16111b",
"} c #a9a9ad",
/* pixels */
"@@@@@@@@@@@@@@@@@@@@@@@@@@@@@@@@",
"@@@@@@@@@@@@@@@@@@@@@@@@@@@@@@@@",
"@@@@@@@@@@@@@@@@@@@@@@@@@@@@@@@@",
"@@@@@@@@@@@@@@@@@@@@@@@@@@@@@@@@",
"@@@@@@@@@@@...........@@@@@@@@@@",
"@@@@@@@@@..,,-------::..@@@@@@@@",
"@@@@@@@..++,-.......-:::..@@@@@@",
"@@@@@@.;-++=-.......-:::-;.@@@@@",
"@@@@@@.;-=++,-.....-::::-;.@@@@@",
"@@@@@.!!-=++,,-...-:::::-?;.@@@@",
"@@@@@.!!;-++=,,---:::::-;?;.@@@@",
"@@@@.![!;-+,++,,:::::::-;?[;.@@@",
"@@@@.!]!?;-,+,,,,:::::-;??];.@@@",
"@@@@.![!?;-,,+,,,,,:::-;??[;.{@@",
"@@@@.![!!?;-,,,,,,:::-;???[;.{@@",
"@@@@.?;!!??;-,,,,,::-;????;;.{@@",
"@@@@@.?!!???;-,,,::-;??????.{{@@",
"@@@@@.??????[;-,::-;[?????;.{{@@",
"@@@@@.?????]}};---;;;]????;.{@@@",
"@@@@@@.???]}}};;;;;;;;]??;.{{@@@",
"@@@@@@{.?]}}};;;;;;;;;;]?.{{{@@@",
"@@@@@@@.[}}};;;;;;;;;;;;[.{{@@@@",
"@@@@@@@@.}}};;;;;;;;;;;;.{{@@@@@",
"@@@@@@@@.}}};;;;;;;;;;;;.{{@@@@@",
"@@@@@@@.[[}}};;;;;;;;;;[[.@@@@@@",
"@@@@@@@.;?[[[;;;;;;;[[[?;.@@@@@@",
"@@@@@@@@.[;??[[[[[[[??;[.{{@@@@@",
"@@@@@@@@{..[;???????;[..{{{@@@@@",
"@@@@@@@@@{{...........{{{{@@@@@@",
"@@@@@@@@@@{{{{{{{{{{{{{{{@@@@@@@",
"@@@@@@@@@@@@{{{{{{{{{{{@@@@@@@@@",
"@@@@@@@@@@@@@@@@@@@@@@@@@@@@@@@@",
"};