/* XPM */
static char *item_xpm[] = {
"32 32 10 1",
"  c None",
". c #17111a",
", c #894840",
"- c #54313b",
": c #753939",
"+ c #372538",
"; c #16111b",
"= c #7f413d",
"! c #9f6a63",
"? c #955b53",
/* pixels */
"@@@@@@@@@@@@@@@@@@@@@@@@@@@@@@@@",
"@@@@@@@@@@@@@@@@@@@@@@@@@@@@@@@@",
"@@@@@@@@@@@@@@@@@@@@@@@@@@@@@@@@",
"@@@@@@@@@@@@@@@@@@@@@@@@@@@@@@@@",
"@@@@@@@@@@@@@@@@@@@@@@@@@@@@@@@@",
"@@@@@@@@@@....@@@@@@@@@@@@@@@@@@",
"@@@@@@@@..,,,,..@@@@@@...@@@@@@@",
"@@@@@@@.,,,--,,,.@@@..,,,..@@@@@",
"@@@@@@.,,--::++,,.@.,,--,,,.@@@@",
"@@@@@@.,+::::::+,.@.++::-+,,.@@@",
"@@@@@@@.::++-:::.;;.=:::::+,,.@@",
"@@@@@@@;.+::::::.;;.=::-++:+,.@@",
"@@@@@@@@.=:::-::.;@.=:::::+..;;@",
"@@@@@@@@.=+++:::.;@.=:-:::.;;;;@",
"@@@@@@@@@.=:::::.;@.=::+++.;;;@@",
"@@@@@@@@@.=:::::.;.=::::::.;@@@@",
"@@@@@@@@@.+++-::.;.=::::::.;@@@@",
"@@@@@@@@@.::::::.;.-::-+++.;@@@@",
"@@@@@@@@@.::::::.;@.-:::::.;@@@@",
"@@@@@@@..----:::.;@.:::----..@@@",
"@@@@@@.!??,,,+::.;@.-:+!??,,,.@@",
"@@@@@.!,,,,,,+:-.;@.:+!,,,,,,,.@",
"@@@@.?,,,,,,,,+::.@.:+,,,,,,,,.@",
"@@@@.,,,,,,,,:+:-.@.+?,,,,,,,:.;",
"@@@@.,,,,,,,::+-.;;.+,,,,,,,::.;",
"@@@@@.::::::::..;;;@.::::::::.;;",
"@@@@@;........;;;;@@;........;;;",
"@@@@@@;;;;;;;;;;;@@@@;;;;;;;;;;@",
"@@@@@@@;;;;;;;;@@@@@@@;;;;;;;;@@",
"@@@@@@@@@@@@@@@@@@@@@@@@@@@@@@@@",
"@@@@@@@@@@@@@@@@@@@@@@@@@@@@@@@@",
"@@@@@@@@@@@@@@@@@@@@@@@@@@@@@@@@",
"};