/* XPM */
static char *item_xpm[] = {
"32 32 16 1",
"  c None",
". c #17111a",
", c #fff5ce",
"- c #ffde5c",
": c #ffbf36",
"+ c #a25948",
"; c #753939",
"= c #16111b",
"! c #ac6f38",
"? c #b7684f",
"[ c #8e4b42",
"] c #9e5647",
"{ c #6b3639",
"} c #cb8c37",
"( c #76403f",
") c #a26f37",
/* pixels */
"@@@@@@@@@@@@@@@@@@@@@@@@@@@@@@@@",
"@@@@@@@@@@@@@@@@@@@@@@@@@@@@@@@@",
"@@@@@@@@@@@@@@@@@@@@@@@@@@@@@@@@",
"@@@@@@@.....@@@@@@@@@@@@@@@@@@@@",
"@@@@@@.,,--:.@@@.....@@@@@@@@@@@",
"@@@@@@.+--:;.@@.,,--:.@@@@@@@@@@",
"@@@@@@.-++;:.=.+--::!;...@@@@@@@",
"@@@@@@.?:::[...-+++;],--:.@@@@@@",
"@@@@@@.:]]++++;;:::{+--::;.@@@@@",
"@@@@@@.]:+,,---:;]]{-+++;:.@@@@@",
"@@@@@@.:]{+--::;{:}{]::::].=@@@@",
"@@@@@@.]:{-+++;:{[[{:]]]]:.=@@@@",
"@@@@@@.:]{]::::]{}}{]::::[.=@@@@",
"@@@@@@.]}{:]]]]}{[[{:]]][}.=@@@@",
"@@@@@@.:[{]::::[{}}{]:::}[.=@@@@",
"@@@@@.+++;;[]]]}{[[{:]][[}.=@@@@",
"@@@@.,---::;::}({}}{]::}}[.=@@@@",
"@@@@.+-:::;{]][){[({:;+++;.=@@@@",
"@@@@.-+++;:{:}}({}){[+,--::.@@@@",
"@@@@.?::::]{[[(){(({}{+-::;.@@@@",
"@@@@.:]]]]}{})+++;;{[{-++;:.=@@@",
"@@@@.]::::[{[;---::;}{]:::[.=@@@",
"@@@@.:]]]]}{.{+-::;{[{:]]]}.=@@@",
"@@@@.]::::(.=.-++;}{}{]:::[.=@@@",
"@@@@.:]]][).=.]::}({[{:]][).=@@@",
"@@@@.]:::}(.=.:]][)..{]::}(.=@@@",
"@@@@.:]]][).=@.:}).==.:][[).=@@@",
"@@@@@.::}).==@=...====.:}).==@@@",
"@@@@@=....===@@=====@@=...===@@@",
"@@@@@@======@@@@===@@@@=====@@@@",
"@@@@@@@====@@@@@@@@@@@@@===@@@@@",
"@@@@@@@@@@@@@@@@@@@@@@@@@@@@@@@@",
"};