/* XPM */
static char *item_xpm[] = {
"32 32 23 1",
"  c None",
". c #17111a",
", c #ffbd9b",
"- c #e59876",
": c #b4664e",
"+ c #7c433b",
"; c #d5815f",
"= c #d68d71",
"! c #cf7957",
"? c #874a3f",
"[ c #16111b",
"] c #773f3a",
"{ c #dda18a",
"} c #a65c49",
"( c #bb6b50",
") c #c67354",
"* c #a3adbd",
"& c #ffffff",
"^ c #b2bcc2",
"% c #768699",
"$ c #373139",
"# c #e14141",
"0 c #7a213a",
/* pixels */
"@@@@@@@@@@@@@@@@@@@@@@@@@@@@@@@@",
"@@@@@@@@@@@@@@@@@@@@@@@@@@@@@@@@",
"@@@@@@@@@@@@@@@@@@@@@@@@@@@@@@@@",
"@@@@@@@@@@@@@@@.....@@@@@...@@@@",
"@@@@@@@@@@@@@..,,-:+..@..;=+.@@@",
"@@@@@@@@@@@@.,,!:;?;,..;+...[@@@",
"@@@@@@@@@@@.!.....,]+,:;.[[[[[@@",
"@@@@@@@@@@.{.[[[.,}..+,;?.[[[@@@",
"@@@@@@@@@.,.[[[.,}.[[.,}.:.@@@@@",
"@@@@@@@@.,}.[[@.(.[[[.;.[.;.@@@@",
"@@@@@@@@.-.[[@.,}.[[.,}.[.,:.@@@",
"@@@@@@@.,}.[[@...[[@.;.[[@.,.@@@",
"@@@@@@@.-.[[@@@[[[[@.}.[[@.,.[@@",
"@@@@@@.,!.[[@@@[[[@@..[[@@.-.[@@",
"@@@@@@.:}.[@@@@@@@@@@[[[@@.).[@@",
"@@@@@@.*.[[@@@@@@@@@@[[@@.,}.[@@",
"@@@@@.&&^.[@@@@@@@@@@@@@@.-.[[@@",
"@@@@.&&^%.@@@@@@@@@@@@@@.,}.[[@@",
"@@@.&^^%%.[@@@@@@@@@@@@$,}.[[@@@",
"@@@.......[@@@@@@@@@@@.,}.[[[@@@",
"@@@@[[[.#.[..@@@@@@@..,}.[[[@@@@",
"@@@@[[[.0&.&^...@...,(}.[[[@@@@@",
"@@@@@@@..&&&^.#0.&&^...[[[@@@@@@",
"@@@@@@@@.&&^.#0.&^^%.[[[[@@@@@@@",
"@@@@@@@@.&^%.0.[..%.[[[[@@@@@@@@",
"@@@@@@@@.^%.[.[[[.%.[[@@@@@@@@@@",
"@@@@@@@@.%.[[[[[@[.[[@@@@@@@@@@@",
"@@@@@@@@..[[[@[@@@[[[@@@@@@@@@@@",
"@@@@@@@@@[[[@@@@@@@[@@@@@@@@@@@@",
"@@@@@@@@@[[@@@@@@@@@@@@@@@@@@@@@",
"@@@@@@@@@@@@@@@@@@@@@@@@@@@@@@@@",
"@@@@@@@@@@@@@@@@@@@@@@@@@@@@@@@@",
"};