/* XPM */
static char *item_xpm[] = {
"32 32 5 1",
"  c None",
". c #17111a",
", c #dcff70",
"- c #16111b",
": c #372538",
/* pixels */
"@@@@@@@@@@@@@@@@@@@@@@@@@@@@@@@@",
"@@@@@@@@@@@@@@@@@@@@@@@@@@@@@@@@",
"@@@@@@@@@@@@@@@@@@@@@@@@@@@@@@@@",
"@@@@@@@@@@.......@@@@@@@@@@@@@@@",
"@@@@@@@@@@@@.,,,,..@@@@@@@@@@@@@",
"@@@@@@@@@@@--...,,,..@@@@@@@@@@@",
"@@@@@@@@@@@@@---..,,,.@@.@@@@@@@",
"@@@@@@@@@@@@@@----.,,,.@@.@@@@@@",
"@@@@@@@@@@@@@@@@@--.,,.@@.@@@@@@",
"@@@@@@@@@@@@@@@@@@@.,:,.@@.@@@@@",
"@@@@@@@@@@@@@@@@@@@.,:,.@@.@@@@@",
"@@@@@@@@@@@@@@@@@@.,,:,.-.,.@@@@",
"@@@@@@@@@@@@@@@@@.,,:,,.-.,.@@@@",
"@@@@@@@@@@@@@@@@.,,:,,,.-.,.-@@@",
"@@@@@@@@@@@@@...,,,:,,,.-.,.-@@@",
"@@@..........,,,,,:,,,.--.,.-@@@",
"@@@.,,,,,,,,,,::,:,,,,.-.,,.-@@@",
"@@@........:::,,,,,:,.--.,.--@@@",
"@@@@-------.,,,,,,,,.--.,,.--@@@",
"@@@........,,,,,,:,.--.,,.--@@@@",
"@@@.,,,,,,,,,,,::,.--.,,.---@@@@",
"@@@.,,,,,,,,,::,,.--.,,.---@@@@@",
"@@@.......,::,,,.-..,,.---@@@@@@",
"@@@@------:,,,,::.,,..---@@@@@@@",
"@@@.......,,,,:,,,..----@@@@@@@@",
"@@@.,,,,,,,,:,,,..-----@@@@@@@@@",
"@@@.,,,,,,,,,...-----@@@@@@@@@@@",
"@@@..........------@@@@@@@@@@@@@",
"@@@@-------------@@@@@@@@@@@@@@@",
"@@@@----------@@@@@@@@@@@@@@@@@@",
"@@@@@@@@@@@@@@@@@@@@@@@@@@@@@@@@",
"@@@@@@@@@@@@@@@@@@@@@@@@@@@@@@@@",
"};