/* XPM */
static char *item_xpm[] = {
"32 32 17 1",
"  c None",
". c #17111a",
", c #f4b45f",
"- c #df9260",
": c #be6e55",
"+ c #89263b",
"; c #84243b",
"= c #cf7957",
"! c #9d554a",
"? c #ba353e",
"[ c #e14141",
"] c #b36a56",
"{ c #a95f4d",
"} c #16111b",
"( c #af6454",
") c #a75d4f",
"* c #a65e53",
/* pixels */
"@@@@@@@@@@@@@@@@@@@@@@@@@@@@@@@@",
"@@@@@@@@@@@@@@@@@@@@@@@@@@@@@@@@",
"@@@@@@@@@@@@@@@@@@@@@@@@@@@@@@@@",
"@@@@@@@@@.....@@@@@@@@@@@@@@@@@@",
"@@@@@@@@.,,,,-....@@@@@@@@@@@@@@",
"@@@@@@@.,-----,,,-...@@@@@@@@@@@",
"@@@@@@.,-------------..@@@@@@@@@",
"@@@@@.:,------+++;;+---..@@@@@@@",
"@@@@.=:!-----+??????++---.@@@@@@",
"@@@.==::,---+??[[[[[[[?--].@@@@@",
"@@@.===:!---+?[[[[[-[[[[-].@@@@@",
"@@@.===:!,--+?[[[[----[[--].@@@@",
"@@@@.===:!--+?[[[[[---[[---].@@@",
"@@@@.=:=:!--+?[[[[[[--[[[--].@@@",
"@@@@.:==:!---?[[[[[[---?[--{.}@@",
"@@@@.:=::!----?[[[[----?[--{.}@@",
"@@@@@.=::!------[[----+[[-].}}@@",
"@@@@@.=:(!-----------+?[--{.}}@@",
"@@@@@.:(((!----+?---+?[--].}}@@@",
"@@@@@.((((!---+?-?++?[[--].}}@@@",
"@@@@@@.(((!-+??---??[[---{.}@@@@",
"@@@@@@.(((!-------------].}}@@@@",
"@@@@@@.(((!-------------{.}}@@@@",
"@@@@@@.(((===!!!-------{.}}@@@@@",
"@@@@@@@..):===:=!!!----.}}}@@@@@",
"@@@@@@@}}..=::=::((*!!!.}}@@@@@@",
"@@@@@@@@}}}...==((((((.}}@@@@@@@",
"@@@@@@@@@@}}}}..((((..}}}@@@@@@@",
"@@@@@@@@@@@@}}}}....}}}}@@@@@@@@",
"@@@@@@@@@@@@@@@}}}}}}}}@@@@@@@@@",
"@@@@@@@@@@@@@@@@@}}}}@@@@@@@@@@@",
"@@@@@@@@@@@@@@@@@@@@@@@@@@@@@@@@",
"};