/* XPM */
static char *item_xpm[] = {
"32 32 7 1",
"  c None",
". c #17111a",
", c #3e375c",
"- c #372538",
": c #56577d",
"+ c #271b29",
"; c #16111b",
/* pixels */
"@@@@@@@@@@@@@@@@@@@@@@@@@@@@@@@@",
"@@@@@@@@@@@@@@@@@@@@@@@@@@@@@@@@",
"@@@@@@@@@@@@@@@@@@@@@@@@@@@@@@@@",
"@@@@@@@@@@@@@@@@@@@@@@@@@@@@@@@@",
"@@@@@@@@@@@@@@@@@@@@@@@@@@@@@@@@",
"@@@@@@@@@@@@@@@@@@@@@@@@@@@@@@@@",
"@@@@@@@@@@@@@@@..@@@@@@@@@@@@@@@",
"@@@@@@@@@@@@@@.,,..@@@@@@@@@@@@@",
"@@@@@@@@@@@@@.,,,,-.@@@@@@@@@@@@",
"@@@@@@@@@@@..,,:,,,-.@@@@@@@@@@@",
"@@@@@@@@@@.,,,,,,,,--.@@@@@@@@@@",
"@@@@@@@@@.,,,,,,,,,,--.@@@@@@@@@",
"@@@@@@@@.,,,:,,,,,,,,--.@@@@@@@@",
"@@@@@@@.,,,,,,,,,-,,---+.@@@@@@@",
"@@@@@@.,,:,,,,,,,,,,,,--+.@@@@@@",
"@@@@@.,,,,,,,,,:,,,,,,---+.@@@@@",
"@@@@.,,,,,,,,,,,,,:,-,,---+.@@@@",
"@@@@.,,:,,,,,,:,,,,,,,,,---+.@@@",
"@@@.,,,,,,,,,,,,,,,,,,,,--+.;@@@",
"@@@.,,,,,,,,-,,,,-,,-,,--+.+.;@@",
"@@@.,,,,,,:,,,,,,,,,,,---..+.@@@",
"@@@.,,,,,,,,-,--,-,-,-..-+..;;@@",
"@@@@.,,,-,,,...,,+..-+.;..--.;@@",
"@@@,.,,.,,-..,,.-.,;..-.;.-+.@@@",
"@@@@@..,,..,.,,,.;;;;;.;.;..;;@@",
"@@@:;;.,..,.;.,-.;..,;;.+.;;;;@@",
"@@@@@-;.;.,,.;..;.-+.@@;.;@;+@@@",
"@@@@;@@;;;..;@;;;;..;;@@;;+@@@@@",
"@@@@@@;@;@;;;-@,;@;;;+@@@;@@@;@@",
"@@@@@@@@@,@;;@@@@@@:;@@@@@@;@@@@",
"@@@@@@@@@@@@@@;@;@@@@@;@@@@@@@@@",
"@@@@@@@@@@;@@@@@@@@@;@@@@@@@@@@@",
"};