/* XPM */
static char *item_xpm[] = {
"32 32 9 1",
"  c None",
". c #17111a",
", c #b2bcc2",
"- c #55555d",
": c #8f9ab4",
"+ c #16111b",
"; c #7884ab",
"= c #474369",
"! c #403755",
/* pixels */
"@@@@@@@@@@@@@@@@@@@@@@@@@@@@@@@@",
"@@@@@@@@@@@@@@@@@@@@@@@@@@@@@@@@",
"@@@@@@@@@@@@@@@@@@@@@@@@@@@@@@@@",
"@@@@@@@@@@@@@@@@@@@@@@@@@@@@@@@@",
"@@@@@@@@@@@@@@@@@@@@@@@@@@@@@@@@",
"@@@@@@@@@@@@@@@@@@@@@@@@@@@@@@@@",
"@@@@@@@@@@@@@@@@@@@@@@@@@@@@@@@@",
"@@@@@@@@@@@@@@@@@@@@@@@@@@@@@@@@",
"@@@@@@@@@@@@@@@@@@@@@@@@@@@@@@@@",
"@@@@@@@..@@@@@@@@@@@@@@@@@@@@@@@",
"@@@@@@.,.@@..@@@@@@@..@@..@@@@@@",
"@@@@@.-:.+.,.@..@@@.,.@.,.@@@@@@",
"@@@@.,:::.-::.,.@.@.:.+.:.+.@@@@",
"@@@@.:;;;;:;;::;.:.-:;.-:;.,.@@@",
"@@@.,;......;;;;==:;;;:;;;=:.@@@",
"@@@.:.++++++..;=:;..;;;;;;:;.+@@",
"@@@.:.+..+++++.==.++......;;.+@@",
"@@@.:,.,.@.@@.::;;.+++++++.:.+@@",
"@@@.::=:=.,.@@.==.+@..++..:;.+@@",
"@@@@.:::=,:.@.:;.++.,.@.,=:.++@@",
"@@@@+.:;;::=.,!.+.+.:.+.:;;.++@@",
"@@@@@+.;;;;;::!;.:.::;.:;;.++@@@",
"@@@@@@+..;;;:;==;;::;;;;..+++@@@",
"@@@@@@@++..;;=,;=;;;;;..++++@@@@",
"@@@@@@@@+++...:;.;;...+++++@@@@@",
"@@@@@@@@@@++++..+..++++++@@@@@@@",
"@@@@@@@@@@@@+++++++++++@@@@@@@@@",
"@@@@@@@@@@@@@@@++@++@@@@@@@@@@@@",
"@@@@@@@@@@@@@@@@@@@@@@@@@@@@@@@@",
"@@@@@@@@@@@@@@@@@@@@@@@@@@@@@@@@",
"@@@@@@@@@@@@@@@@@@@@@@@@@@@@@@@@",
"@@@@@@@@@@@@@@@@@@@@@@@@@@@@@@@@",
"};