/* XPM */
static char *item_xpm[] = {
"32 32 43 1",
"  c None",
". c #17111a",
", c #955843",
"- c #cf7957",
": c #b86c4f",
"+ c #ec8a2d",
"; c #a05e47",
"= c #ffffff",
"! c #b2bcc2",
"? c #16111b",
"[ c #918da1",
"] c #626c75",
"{ c #ffbe35",
"} c #ffda8c",
"( c #fff596",
") c #ffb955",
"* c #734538",
"& c #ffc55e",
"^ c #946f29",
"% c #160f1c",
"$ c #c6a161",
"# c #bd8e2e",
"0 c #16101a",
"1 c #805f27",
"2 c #f38b3a",
"3 c #e9613e",
"4 c #e14141",
"5 c #ef7a3c",
"6 c #a9303d",
"7 c #f38636",
"8 c #7a213a",
"9 c #d5bd83",
"A c #d0703a",
"B c #ffce66",
"C c #a6612d",
"D c #c3a471",
"E c #5d1426",
"F c #fff7b1",
"G c #dc7f34",
"H c #bb865f",
"I c #ffb52d",
"J c #b27f27",
"K c #15111a",
/* pixels */
"@@@@@@@@@@@@@@@@@@@@@@@@@@@@@@@@",
"@@@@@@@@@@@@@@@@@@@@@@@@@@@@@@@@",
"@@@@@@@@@@@@@@@@@@@@@@@@@@@@@@@@",
"@@@@@@@@@@@@@......@@@@@@@@@@@@@",
"@@@@@@@@@@@..,-:+;:..@@@@@@@@@@@",
"@@@@@@@@@@.=!@-+--?[].@@@@@@@@@@",
"@@@@@@@@{@@.!?;-;+?[.?@@@@@@@@@@",
"@@@@@@@{}{@.!==[[[[].??@@@@@@@@@",
"@@@@@@{}(){@.]****].??@@@@@@@@@@",
"@@@@@@@{&^%@.!*:+*[.??@@@@@@@@@@",
"@@@@@@@%$??%.!????[.?@@@@@@@@@@@",
"@@@@@@@@#?%.!===???[.@@@@@@@@@@@",
"@@@@@@@@@0.!====@@@?[1@@@@@@@@@@",
"@@@@@@@@@.!=====?@@@?}.@@@@@@@@@",
"@@@@@@@@.=@===???@@{}()1@@@@@@@@",
"@@@@@@@.=@?=?^???@@@@&?[.@@@@@@@",
"@@@@@@.=@??@^}23334@%^??[.@@@@@@",
"@@@@@.=@??@2}()544444@?@?[.@@@@@",
"@@@@@.=??3345&544444444@@[.@@@@@",
"@@@@@.=634444744444444448[.?@@@@",
"@@@@@.!664444544444444468[.?@@@@",
"@@@@@@.9A664444444444668[.??@@@@",
"@@@@@@.}B66664444446666CD.??@@@@",
"@@@@@{}=(BA66666666666E}B??@@@@@",
"@@@@@{BF()G6666666666H}=(B^@@@@@",
"@@@@@@%B&.[66666666EEDBF()I@@@@@",
"@@@@@@%^J?.[[888EEE[[.?B&??%@@@@",
"@@@@@@@@???..[[[[[[..??^J??K@@@@",
"@@@@@@@@%K@??......????@??@@@@@@",
"@@@@@@@@@@@@??????????@@%K@@@@@@",
"@@@@@@@@@@@@@@??????@@@@@@@@@@@@",
"@@@@@@@@@@@@@@@@@@@@@@@@@@@@@@@@",
"};