/* XPM */
static char *item_xpm[] = {
"32 32 22 1",
"  c None",
". c #17111a",
", c #c37053",
"- c #87483f",
": c #7a423a",
"+ c #fffaf6",
"; c #904c42",
"= c #16111b",
"! c #ffb68b",
"? c #562b2e",
"[ c #6a3835",
"] c #ffdcc0",
"{ c #b7694f",
"} c #49252a",
"( c #643433",
") c #5e3331",
"* c #462629",
"& c #6d3836",
"^ c #743c38",
"% c #5f3231",
"$ c #703a37",
"# c #572e2e",
/* pixels */
"@@@@@@@@@@@@@@@@@@@@@@@@@@@@@@@@",
"@@@@@@@@@@@@@@@@@@@@@@@@@@@@@@@@",
"@@@@@@@@@@@@@@@@@@@@@@@@@@@@@@@@",
"@@@@@@@@@@@@@@@@@@@@@@@@@@@@@@@@",
"@@@@@@@@@@@@@@@@@@@@@@@@@@@@@@@@",
"@@@@@@@@@@@@@@@@@@@@@@@....@@@@@",
"@@@@@@@@@@@@@..@@@.@...,-:.@@@@@",
"@@@@@@@@@@@@@.+.@.+.,,;-:.==@@@@",
"@@@@@@@@@@@@@.+!.?+?:[::..==@@@@",
"@@@@@@@@@@@@@.]?{?]!}::(.==@@@@@",
"@@@@@@@@@@@..@.{;?]!}:(:.==@@@@@",
"@@@@@@@@@@@.+.,;;:}}:)-:.=@@@@@@",
"@@@@@@@@@@@.]]?:;;:::-}}*.@@@@@@",
"@@@@@@@@@@@@.!?:&;;:}}+]!.@@@@@@",
"@@@@@@@@@@@@.?:&;;):}]]!.==@@@@@",
"@@@@@@@@@@@.,:;;::)::}..===@@@@@",
"@@@@@@@@@@@.,;;:?}:}}.====@@@@@@",
"@@@@@@@@@@.,;;:?+}:}!..==@@@@@@@",
"@@@@@@@@@@.,;:?+]!}!!.=@@@@@@@@@",
"@@@@@@@@@.,^^:?]]!..!.==@@@@@@@@",
"@@@@@@@@.,^;:-}]!.==..=@@@@@@@@@",
"@@@@@@@@.,;%--.!.======@@@@@@@@@",
"@@@@@@@.,;%:$.=.===@@==@@@@@@@@@",
"@@@@@@.,;;#:.=====@@@@@@@@@@@@@@",
"@@@@@.,;;::.===@=@@@@@@@@@@@@@@@",
"@@@@.,&&:..===@@@@@@@@@@@@@@@@@@",
"@@@.,;%:.====@@@@@@@@@@@@@@@@@@@",
"@@.,;&:.====@@@@@@@@@@@@@@@@@@@@",
"@@.:::.===@@@@@@@@@@@@@@@@@@@@@@",
"@@....===@@@@@@@@@@@@@@@@@@@@@@@",
"@@@=====@@@@@@@@@@@@@@@@@@@@@@@@",
"@@@====@@@@@@@@@@@@@@@@@@@@@@@@@",
"};