/* XPM */
static char *item_xpm[] = {
"32 32 9 1",
"  c None",
". c #17111a",
", c #83e04c",
"- c #39855a",
": c #060308",
"+ c #16111b",
"; c #7a213a",
"= c #e14141",
"! c #fff275",
/* pixels */
"@@@@@@@@@@@@@@@@@@@@@@@@@@@@@@@@",
"@@@@@@@@@@@@@@@@@@@@@@@@@@@@@@@@",
"@@@@@@@@@@@@@@@@@@@@@@@@@@@@@@@@",
"@@@@@@@@@@@@@@@@@@@@...@@@@@@@@@",
"@@@@@@@@@@@@@@@@@@@@.,-.@@@@@@@@",
"@@@@@@@@@@@@:::..@@.,--.@@@@@@@@",
"@@@@@@@@@::.,,,,,..,,-.++@@@@@@@",
"@@@@@.@..,,,,,,,,,,,-.+++@@@@@@@",
"@@@@@@.,,,,,--,,,,,,--.+@@@@@@@@",
"@@@@@@+.;,--;;,,,,,,,--.@@@@@@@@",
"@@@@@@@.=-;;;,,,,,,,,--.@@@@@@@@",
"@@@@@@.==;===;,,,,-,,,--.@@@@@@@",
"@@@@@@.======;,,--;-,,---.@@@@@@",
"@@@@@@.==!===,--;;;;-,---.@@@@@@",
"@@@@@@.==;===-;;==;-,----.+@@@@@",
"@@@@@@.======;====;-,----.+@@@@@",
"@@@@@.==========!==;-;;---.@@@@@",
"@@@@@.=====!====;===;;;...+@@@@@",
"@@@@@.=====;========;;;.++++@@@@",
"@@@@@.=============;;;.++++@@@@@",
"@@@@@.=!==========;;;.+++@@@@@@@",
"@@@@@.=;=====!===!;;.+++@@@@@@@@",
"@@@@@.=======;===;;.+++@@@@@@@@@",
"@@@@@.==========;;.+++@@@@@@@@@@",
"@@@@@@.===!===;;..+++@@@@@@@@@@@",
"@@@@@@.===;=;;..++++@@@@@@@@@@@@",
"@@@@@@.=;;;;..+++++@@@@@@@@@@@@@",
"@@@@@@@.....+++++@@@@@@@@@@@@@@@",
"@@@@@@@++++++++@@@@@@@@@@@@@@@@@",
"@@@@@@@@+++++@@@@@@@@@@@@@@@@@@@",
"@@@@@@@@@@@@@@@@@@@@@@@@@@@@@@@@",
"@@@@@@@@@@@@@@@@@@@@@@@@@@@@@@@@",
"};