/* XPM */
static char *item_xpm[] = {
"32 32 9 1",
"  c None",
". c #17111a",
", c #753939",
"- c #372538",
": c #562f39",
"+ c #16111b",
"; c #ffd1ab",
"= c #cf7957",
"! c #ffa070",
/* pixels */
"@@@@@@@@@@@@@@@@@@@@@@@@@@@@@@@@",
"@@@@@@@@@@@@@@@@@@@@@@@@@@@@@@@@",
"@@@@@@@@@@@@@@@@@@@@@@@@@@@@@@@@",
"@@@@@@@@@@@@@@@@@@@@@@@@@@@@@@@@",
"@@@@@@@@@@@@@...@@@@@@@@@@@@@@@@",
"@@@@@@@@@@@@.,,,...@@@@@@@@@@@@@",
"@@@@@@@@@@@.--,,,,,..@@@@@@@@@@@",
"@@@@@@@@@@.,,,--,,,,,..@@@@@@@@@",
"@@@@@@@@@.:,,,,,--,,,,,..@@@@@@@",
"@@@@@@@@.,:,:,,,,,--,,,,,..@@@@@",
"@@@@@@@.,,,,,::,,,,,--,,,,,.@@@@",
"@@@@@@.:,,:,:,,,:,,,,,--,,-.@@@@",
"@@@@@.,,,,:,,,,,,,,:,,,,--,.+@@@",
"@@@@.,,,:,,,:::,,:,,,:,,,,,.+@@@",
"@@@.,:,,:,,,,,,,:,,,,,;;=,,.+@@@",
"@@.,,,,,,,::,:,,,,!=;!;!;,,.+@@@",
"@@.,::,:,,,,,=;;!;;;;=;=;,,.+@@@",
"@@.,,,,,;!!;;;!=;;!;=;!;!,,.+@@@",
"@@.,=;;!!;=;!=;!;=;;!=;;!,,.+@@@",
"@@.,;=;=;;;=;;!;=;!!;;,,,..++@@@",
"@@.,!;!;;!;;;=;!;!;,,,...++++@@@",
"@@.,=!;;=;;=;!;,,,,...++++++@@@@",
"@@.,;=;!;!,,,,,....+++++++@@@@@@",
"@@.,!;,,,,.....+++++,,+,@@@@@@@@",
"@@.,,,....++++++.+++,,@,@@@@@@@@",
"@@....++++...++.,.@@@++@+@@@@@@@",
"@@@++++++.,,.@@@.+@@@++@=@@@@@@@",
"@@@++++@@@..++,,+++@,@@@@@@@@@@@",
"@@@@@@@@@;++=+@@@+;@@@@@@+@@@@@@",
"@@@@@@@@@@@++@@+,@@@@+@@@@@@@@@@",
"@@@@@@@@@@+@@+@@@@@+@@@@@@@@@@@@",
"@@@@@@@@@@@@@@@@@+@@@@@@@@@@@@@@",
"};