/* XPM */
static char *item_xpm[] = {
"32 32 8 1",
"  c None",
". c #17111a",
", c #e74d16",
"- c #a55035",
": c #f37719",
"+ c #c54f26",
"; c #16111b",
"= c #6c3321",
/* pixels */
"@@@@@@@@@@@@@@@@@@@@@@@@@@@@@@@@",
"@@@@@@@@@@@@@@@@@@@@@@@@@@@@@@@@",
"@@@@@@@@@@@@@@@@@@@@@@@@@@@@@@@@",
"@@@@@@@@@@@@@@@@@@@@@@@@@@@@@@@@",
"@@@@@@@@@@@@@@@@@@@@@@@@...@@@@@",
"@@@@@@@@@@@@@@@@@@@.....,,,.@@@@",
"@@@@@@@@@@@@.......-,::,:+,.@@@@",
"@@@@@@@@@...--,::,:-::::,+,.;@@@",
"@@@@@@@..-,::,-::::,-::,-,,.;@@@",
"@@@@@..-,,-::,-,::::-:,-,,,.;@@@",
"@@@@.-,,::-::::-::::-,-,,,,-.@@@",
"@@@@.-,:::,-:::-,:::,-,,,--,.@@@",
"@@@.,:-,:::-,::,-::,-,---,:,.;@@",
"@@@.,:-,:::,-:::,-,-,:,,:,,,.;@@",
"@@@.-::-::::-::::,-,,,,,:,,-.;@@",
"@@@.-::-::::,-,:,-,--,,:---,.;@@",
"@@@@.,:-::::::-,-,,,,---,,,,.;@@",
"@@@@.-:,-::::,,-,,,,:::,,,,-.;@@",
"@@@@@.,:-,::,--,---,::::,,,-.;@@",
"@@@@@.=,:-,,-,,,,:,-,,,,---.;;@@",
"@@@@@@.=,,==,,,,:::,----,,,.;;@@",
"@@@@@@;.-=::-,::::::::,,,,-.;@@@",
"@@@@@@.-=,::,--,,:::::,,,,-.;@@@",
"@@@@@.-===,,::,--::::,,,,,.;;@@@",
"@@@@.====.==:::::---,,,,,-.;;@@@",
"@@@@.===.;..==,,:::,---,-.;;@@@@",
"@@@.====.;;;..==-,:::,,-.;;;@@@@",
"@@@.===.;;@;;;...==---..;;;@@@@@",
"@@@@...;;;@@@;;;;.....;;;;@@@@@@",
"@@@@;;;;;@@@@@@;;;;;;;;;;@@@@@@@",
"@@@@@;;;@@@@@@@@@@;;;;;@@@@@@@@@",
"@@@@@@@@@@@@@@@@@@@@@@@@@@@@@@@@",
"};