/* XPM */
static char *item_xpm[] = {
"32 32 8 1",
"  c None",
". c #17111a",
", c #fff1e6",
"- c #f8e4d9",
": c #753939",
"+ c #ffd1ab",
"; c #e7a581",
"= c #16111b",
/* pixels */
"@@@@@@@@@@@@@@@@@@@@@@@@@@@@@@@@",
"@@@@@@@@@@@@@@@@@@@@@@@@@@@@@@@@",
"@@@@@@@@@@@@@@@@@@@@@@@@@@@@@@@@",
"@@@@@@@@@@@@@@@@@@@@@@@@@@@@@@@@",
"@@@@@@@@@@@@@@@@@@@@@@@@@@@@@@@@",
"@@@@@@@@@@@@@@@@@@@@@@@@@@@@@@@@",
"@@@@@@@@@@@@...@@@@@@@@@@@@@@@@@",
"@@@@@@@@@@@.,,,...@@@@@@@@@@@@@@",
"@@@@@@@@@@.-:++,,,...@@@@@@@@@@@",
"@@@@@@@@@.,;:+++++,,,..@@@@@@@@@",
"@@@@@@@@.,+;:++++++++,,..@@@@@@@",
"@@@@@@@.,++;:++++++++++++.@@@@@@",
"@@@@@@.,++++;:++++++++++++..@@@@",
"@@@@@.,+++++;:+++++++++++::;.@@@",
"@@@@.,++++::::+++++++::::;;+.@@@",
"@@@.++++::+++;:::::::;;;;++.==@@",
"@@@.++::+++++;;;;:;;;+++++;.==@@",
"@@@.;:+++++++++++:+++++++;.==@@@",
"@@@@.;;+++++++++++:++++++;.==@@@",
"@@@@=..;++++++++++:+++++;.==@@@@",
"@@@@@==.;;++++++++:++++;.===@@@@",
"@@@@@@==..;;+++++++:++;.===@@@@@",
"@@@@@@@@==..;;;++++:+;.===@@@@@@",
"@@@@@@@@@===...;;++:;.===@@@@@@@",
"@@@@@@@@@@@====..;;;.===@@@@@@@@",
"@@@@@@@@@@@@@====...===@@@@@@@@@",
"@@@@@@@@@@@@@@@@======@@@@@@@@@@",
"@@@@@@@@@@@@@@@@@@===@@@@@@@@@@@",
"@@@@@@@@@@@@@@@@@@@@@@@@@@@@@@@@",
"@@@@@@@@@@@@@@@@@@@@@@@@@@@@@@@@",
"@@@@@@@@@@@@@@@@@@@@@@@@@@@@@@@@",
"@@@@@@@@@@@@@@@@@@@@@@@@@@@@@@@@",
"};