/* XPM */
static char *item_xpm[] = {
"32 32 15 1",
"  c None",
". c #17111a",
", c #ffffff",
"- c #87797b",
": c #dbd5d7",
"+ c #b6aaad",
"; c #16111b",
"= c #be6d52",
"! c #3e375c",
"? c #b2bcc2",
"[ c #6e769d",
"] c #525278",
"{ c #7884ab",
"} c #753939",
"( c #9aa3c0",
/* pixels */
"@@@@@@@@@@@@@@@@@@@@@@@@@@@@@@@@",
"@@@@@@@@@@@@@@@@@@@@@@@@@@@@@@@@",
"@@@@@@..@@@@@@@@@@@@@@@@@@@@@@@@",
"@@@@@@.,.@@@@@@@@@@@@@@@@@@@@@@@",
"@@@@@@.,,.@@@@@@@@@@@@@@@@@@@@@@",
"@@@...-,,:.@@@@@@@@@@@@@@@@@@@@@",
"@@@.,,,+::.@@@@@@@@@@@@@@@@@@@@@",
"@@@@.:::+:.;@@@@....@@@@@@@@@@@@",
"@@@@;.:::=.;@@..,,,,.@@@@@@@@@@@",
"@@@@@;....=.@.,,,,,,,.@@@@@@@@@@",
"@@@@@@;;;;.=.,,,,,,,,,.@@@@@@@@@",
"@@@@@@@;;;;.!!,,,,,,,,?.@@@@@@@@",
"@@@@@@@@@@@.[[!,,,,,,,,?.@@@@@@@",
"@@@@@@@@@@@.]]!,!!!,,,,,?.@@@@@@",
"@@@@@@@@@@.?!!?![[]!,,,,?.@@@@@@",
"@@@@@@@@@.,,??,![]]!,,,,?.;@@@@@",
"@@@@@@@@@.,]!,,!]]]!,,,,?.;@@@@@",
"@@@@@@@@.,,?],,?!!!?,,,,?.;@@@@@",
"@@@@@@@@.,{,?,,,???,,,,?.;;@@@@@",
"@@@@@@@@.],,,,,,,,,,,,?.;;;@@@@@",
"@@@@@@@@@.,,{,,,,{???!.;;;@@@@@@",
"@@@@@@@@@;.],,,,]???.}=.;@@@@@@@",
"@@@@@@@@@@;.?,,?....;.}=.@@..@@@",
"@@@@@@@@@@@;.??.;;;;;;.}=..{.@@@",
"@@@@@@@@@@@@;..;;;;;;@;.}{{].;@@",
"@@@@@@@@@@@@@;;;;@@@@@@.{(]].;@@",
"@@@@@@@@@@@@@@;;@@@@@@.{({]].;@@",
"@@@@@@@@@@@@@@@@@@@@@@.{{{{].;@@",
"@@@@@@@@@@@@@@@@@@@@@@.......;@@",
"@@@@@@@@@@@@@@@@@@@@@@@;;;;;;;@@",
"@@@@@@@@@@@@@@@@@@@@@@@;;;;;;;@@",
"@@@@@@@@@@@@@@@@@@@@@@@@@@@@@@@@",
"};