/* XPM */
static char *item_xpm[] = {
"32 32 12 1",
"  c None",
". c #17111a",
", c #df802f",
"- c #c44d29",
": c #ffde5d",
"+ c #ffbf36",
"; c #482439",
"= c #512739",
"! c #372538",
"? c #16111b",
"[ c #b2bcc2",
"] c #ffffff",
/* pixels */
"@@@@@@@@@@@@@@@@@@@@@@@@@@@@@@@@",
"@@@@@@@@@@@@@@@@@@@@@@@@@@@@@@@@",
"@@@@@@@@@@@@@@@@@@@@@@@@@@@@@@@@",
"@@@@@@@........@@@@@@@@@@@@@@@@@",
"@@@@@@.,-::-:::........@@@@@@@@@",
"@@@@@.,,-::-+++::::::::.@@@@@@@@",
"@@@@.,,;-:+-+++++++++++.@@@@@@@@",
"@@@.,,;,-++-++++++++++++.@@@@@@@",
"@@@.,=,,-++-++!!!+++++++.@@@@@@@",
"@@@@.,,,,-++-++++!!!!!!+.?@@@@@@",
"@@@@.,,,,-++-+++++++++++.?@@@@@@",
"@@@@.,,,,-++-+++++++++++,.@@@@@@",
"@@@@.,,,,-++-++!!+++++++,.@@@@@@",
"@@@@@.,,,-++-++++!!!!!!+,.?@@@@@",
"@@@@@.,,,,-++-+++++++++++,.@@@@@",
"@@@@@.,,,,-++-+++++++++++,.@@@@@",
"@@@@@@.,,,-++-+++++++++++,.?@@@@",
"@@@@@@.,,,,-++-+++++++++++,.@@@@",
"@@@@@@.,,,,-++-+++++++++++,.@@@@",
"@@@@@@@.,,,-++-+++++++++++,.?@@@",
"@@@@@@@.,,,-++-+++++++++++,.?@@@",
"@@@@@@@.,,;,-,,-,,++++++++,,.@@@",
"@@@@@@@.,;,,------,,,,,,,,,,.@@@",
"@@@@@@@@.,,-[]]]]]---------,.?@@",
"@@@@@@@@.,-[[[[]]]]]]]]]][[.??@@",
"@@@@@@@@@.,----[[[[[[[[[[[.???@@",
"@@@@@@@@@.,,,,,-----------.??@@@",
"@@@@@@@@@@.....,,,,,,,,,,,.?@@@@",
"@@@@@@@@@@?????...........??@@@@",
"@@@@@@@@@@@?????????????????@@@@",
"@@@@@@@@@@@@@@@@???????????@@@@@",
"@@@@@@@@@@@@@@@@@@@@@@@@@@@@@@@@",
"};