/* XPM */
static char *item_xpm[] = {
"32 32 19 1",
"  c None",
". c #17111a",
", c #9aa3c0",
"- c #a97066",
": c #784541",
"+ c #7884ab",
"; c #525278",
"= c #16111b",
"! c #904c42",
"? c #4f302c",
"[ c #753939",
"] c #b2bcc2",
"{ c #402227",
"} c #ffffff",
"( c #522e38",
") c #996c6c",
"* c #dbd5d7",
"& c #b6aaad",
"^ c #87797b",
/* pixels */
"@@@@@@@@@@@@@@@@@@@@@@@@@@@@@@@@",
"@@@@@@@@@@@@@@@@@@@@@@@@@@@@@@@@",
"@@@@@@@@@@@@@@@@@@@@@@@@@@@@@@@@",
"@@@@@@@@@@.@@@@@@@@..@@@@@@@@@@@",
"@@@@@@@@@.,.@@@@@@.-:.@@@@@@@@@@",
"@@@@@@@@.,+;.@@@@.-:.=@@@@@@@@@@",
"@@@@@@@.++;;;.@@@.!?===@@@@@@@@@",
"@@@@@@@@..;..=@@@.![.=@@@@@@@@@@",
"@@@@@@@@==.====@@].[[.@@@@@@@@@@",
"@@@@@@@@@={===@@@]=.[[.@@@@@@@@@",
"@@@@@@@@@@[=@@@@@}==.[(.@@@@@@@@",
"@@@@@@@@@@[=@@@@@}=@=.[(.@@@@@@@",
"@@@@@@@@@@[=@@@@@}=@@.[(.@@@@@@@",
"@@@@@@@@@@[=@@@@@}=@@@.[(.@@@@@@",
"@@@@@@@@@@[=@@@@@}=@@@.)(.@@@@@@",
"@@@@@@@@@@[=@@@@@}=@@@.)(.=@@@@@",
"@@@@@@@@@@[=@@@@@}=@@@.[(.=@@@@@",
"@@@@@@@@@@[=@@@@@]=@@@.)(.=@@@@@",
"@@@@@@@@@@[=@@@@@]=@@@.[(.=@@@@@",
"@@@@@@@@@@[=@@@@@}=@@.[(.==@@@@@",
"@@@@@@@@@@[=@@@@@}=@@.[(.==@@@@@",
"@@@@@@@@@@{=@@@@@]=@.[(.==@@@@@@",
"@@@@@@@@@@.=@@@@@]=.[(.===@@@@@@",
"@@@@@@@@@.*.@@@@@].[(.===@@@@@@@",
"@@@@@@@@.}}*.@@@@.[(.===@@@@@@@@",
"@@@@@@@@.}&*.@@@@.:.===@@@@@@@@@",
"@@@@@@@@.}&*.=@@@.::.=@@@@@@@@@@",
"@@@@@@@@.*^*.=@@@@.::.@@@@@@@@@@",
"@@@@@@@@@...==@@@@=..=@@@@@@@@@@",
"@@@@@@@@@=====@@@@@====@@@@@@@@@",
"@@@@@@@@@@===@@@@@@@==@@@@@@@@@@",
"@@@@@@@@@@@@@@@@@@@@@@@@@@@@@@@@",
"};