/* XPM */
static char *item_xpm[] = {
"32 32 23 1",
"  c None",
". c #16111b",
", c #ffbe35",
"- c #ffcf68",
": c #ffbf36",
"+ c #fff275",
"; c #ffa31f",
"= c #ffffff",
"! c #ffb32b",
"? c #946f29",
"[ c #160f1c",
"] c #fff598",
"{ c #ffb52d",
"} c #b27f27",
"( c #bd8e2e",
") c #15111a",
"* c #17111a",
"& c #ffd1ab",
"^ c #e7a581",
"% c #cf7957",
"$ c #d4815f",
"# c #ac654c",
"0 c #ffe5d0",
/* pixels */
"@@@@@@@@@................@@@@@@@",
"@@@@@@@@@@@@@@@@@@@@@@@@@@@@@@@@",
"@@@@@@@@@@@,@@@@@@@@@@@@@,,@@@@@",
"@@@@@@@@@@,-,@@@@@@@@@@@@-:@@@@@",
"@@@@@@@@@,-+;,@@@@@@@@@,-=+:,@@@",
"@@@@@@@@@@,!?[@@@@@@@@@,:]+;{@@@",
"@@@@@@@@@@[}..[@@,@@@@@@[:!..[@@",
"@@@@@@@@@@@(.[@@@-@@@@@@[?}..)@@",
"@@@@@@@@@@@@)@@,-+;,@@@@@@..@@@@",
"@@@@@@@@@@@@[@@@@!.@@@@@@@[)@@@@",
"@@@@@@@@@,,@@@@@[?..[@@@@@@@@@@@",
"@@@@@@@@@-:@@@@@@@.@@@@@@@@@@@@@",
"@@@@@@@,-=+:,@@@@@[@@,,@@@@@@@@@",
"@@@@@@@,:]+;{@@@@@@@@-:@@@@@@@@@",
"@@@@@@@@[:!..[@@@@@,-=+:,@@@@@@@",
"@@@@@@@@[?}..)@@@@@,:]+;{@@@@@@@",
"@@@@@@@@@@..**@@@@@@[:!..[@@@@@@",
"@@@@@@@@@@[*&^*@@@@@[?}..)@@@@@@",
"@@@@@@@@@@*^&^*@@@@@@@..@@@@@@@@",
"@@@@@@@@@*^&&%*.@@**@**)@@@@@@@@",
"@@@@@@@@*^&&^*..@*^&*^&*@@@@@@@@",
"@@@@@@@@*^&&%*..*^&%^&&*@@@@@@@@",
"@@@@@@@*^&&&$*.*^&&%^&*..@@@@@@@",
"@@******^&&&^#*#&&%^&&*..@@@@@@@",
"@@*$$$$^&&&&&&&&&%^&0*..@@@@@@@@",
"@@*^^^^&&&&&&&&&^&&0*...@@@@@@@@",
"@@*^&&&&&&&&&&&&&00*...@@@@@@@@@",
"@@*&&&&&&&&&&&&00**...@@@@@@@@@@",
"@@*&&&&&&&&&&00**....@@@@@@@@@@@",
"@@*************.....@@@@@@@@@@@@",
"@@@...............@@@@@@@@@@@@@@",
"@@@.............@@@@@@@@@@@@@@@@",
"};