/* XPM */
static char *item_xpm[] = {
"32 32 8 1",
"  c None",
". c #17111a",
", c #753939",
"- c #372538",
": c #16111b",
"+ c #a25948",
"; c #ffa070",
"= c #cf7957",
/* pixels */
"@@@@@@@@@@@@@@@@@@@@@@@@@@@@@@@@",
"@@@@@@@@@@@@@@@@@@@@@@@@@@@@@@@@",
"@@@@@@@@@@@@@@@@@@@@@@@@@@@@@@@@",
"@@@@@@@@@@@@@@@@@@@@@@@..@.@@@@@",
"@@@@@@@@@@@@@@@@@@@@@@.,,.,.@@@@",
"@@@@@@@@@@@@@@@@@@@@@.,--,,.@@@@",
"@@@@@@@@@@@@@@@@@@@@.,-,,,-.:@@@",
"@@@@@@@@@@@@@@@@@@@.,,,,,---.@@@",
"@@@@@@@@@@@@@@@@@@.,,,,,----.@@@",
"@@@@@@@@@@@@@@@@@.,,,,,--,-.::@@",
"@@@@@@@@@@@@@@@@.,,,,,-,,,,.::@@",
"@@@@@@@@@@@@@@@.,,,,,,,,,,.::@@@",
"@@@@@@@@@@@@@@.+,,,,,,,,-.:::@@@",
"@@@@@@@@@@@@@.+,,,,,,-,,.:::@@@@",
"@@@@@@@@@@@@.+,,,,,,,,-,,.:@@@@@",
"@@@@@@@@@@@.+,,,-,,,,-.-,.@@@@@@",
"@@@@@@@@@..+,,+-,,,,-.:..::@@@@@",
"@@@@@@@@.++,,+-,,,,-.::::::@@@@@",
"@@@@@@..+,,,+,,,,,--.::@::@@@@@@",
"@@@@@.+,,,,,,,,,---.::@@@@@@@@@@",
"@@@@.-,,-,-,,,,---.:::@@@@@@@@@@",
"@@@@.;;;=-,,,----.:::@@@@@@@@@@@",
"@@@.=;==;;,-----.:::@@@@@@@@@@@@",
"@@@.;=;;=;;----.:::@@@@@@@@@@@@@",
"@@@.;=;=;=;=--.:::@@@@@@@@@@@@@@",
"@@@.;=;;;=;=-.:::@@@@@@@@@@@@@@@",
"@@@@.;===;=,.:::@@@@@@@@@@@@@@@@",
"@@@@:.;;;=..:::@@@@@@@@@@@@@@@@@",
"@@@@@:....::::@@@@@@@@@@@@@@@@@@",
"@@@@@@:::::::@@@@@@@@@@@@@@@@@@@",
"@@@@@@@::::@@@@@@@@@@@@@@@@@@@@@",
"@@@@@@@@@@@@@@@@@@@@@@@@@@@@@@@@",
"};