/* XPM */
static char *item_xpm[] = {
"32 32 12 1",
"  c None",
". c #17111a",
", c #bd6c50",
"- c #a65c49",
": c #522e38",
"+ c #81423d",
"; c #673a3c",
"= c #86453f",
"! c #16111b",
"? c #793c3a",
"[ c #995345",
"] c #70393a",
/* pixels */
"@@@@@@@@@@@@@@@@@@@@@@@@@@@@@@@@",
"@@@@@@@@@@@@@@@@@@@@@@@@@@@@@@@@",
"@@@@@@@@@@@@@@@@@@@@@@@@@@@@@@@@",
"@@@@@@@@@@@@@@@@@......@@@@@@@@@",
"@@@@@@@@@@@@@@@@.,,,,--..@@@@@@@",
"@@@@@@@@@@@@@@@.,-:+++---.@@@@@@",
"@@@@@@@@@@@@@@.,::----++--.@@@@@",
"@@@@@@@@@@@@@.,:--++----+--.@@@@",
"@@@@@@@@@@@@.,:--+--::---+--.@@@",
"@@@@@@@@@@@@.,:-;--:--:---+-.@@@",
"@@@@@@@@@@@.,+--;-:----:--;=.!@@",
"@@@@@@@@@@@.,+-;--:-:--:--;=.!@@",
"@@@@@@@@@@@.,+-;-:+--::---;=.!@@",
"@@@@@@@@@@@.,+-;-:=+-----;==.!@@",
"@@@@@@@@@@@.,+-;-=:=+----;=.!!@@",
"@@@@@@@@@@.,+--;-=.==+++;=.!!!@@",
"@@@@@@@@@@.,+--;=.!.=====.!!!@@@",
"@@@@@@@@@@.,+-;-?.!!.....!!!@@@@",
"@@@@@@@@@.,+--;-?.!@!!!!!!!@@@@@",
"@@@@@@@@.,-+-;-?.!!@@!!!!!@@@@@@",
"@@@@@@@@.,;-+-?.!!!@@@@@@@@@@@@@",
"@@@@@@@.,:-[-[=.!!@@@@@@@@@@@@@@",
"@@@@@@.,:-[-[=.!!@@@@@@@@@@@@@@@",
"@@@@@.,:-[-+=.!!!@@@@@@@@@@@@@@@",
"@@@@.-:-[-+=.!!!@@@@@@@@@@@@@@@@",
"@@@.-:-[-;=.!!!@@@@@@@@@@@@@@@@@",
"@@@.:---;=.!!!@@@@@@@@@@@@@@@@@@",
"@@@.===]=.!!!@@@@@@@@@@@@@@@@@@@",
"@@@......!!!@@@@@@@@@@@@@@@@@@@@",
"@@@@!!!!!!!@@@@@@@@@@@@@@@@@@@@@",
"@@@@!!!!!!@@@@@@@@@@@@@@@@@@@@@@",
"@@@@@@@@@@@@@@@@@@@@@@@@@@@@@@@@",
"};