/* XPM */
static char *item_xpm[] = {
"32 32 15 1",
"  c None",
". c #17111a",
", c #dde0e8",
"- c #c4cad8",
": c #575370",
"+ c #9ca6bf",
"; c #b2bcc2",
"= c #7884ab",
"! c #3b2b3f",
"? c #5b5977",
"[ c #43364d",
"] c #372538",
"{ c #a0aac0",
"} c #67667c",
"( c #16111b",
/* pixels */
"@@@@@@@@@@@@@@@@@@@@@@@@@@@@@@@@",
"@@@@@@@@@@@@@@@@@@@@@@@@@@@@@@@@",
"@@@@@@@@@@@@@@@@@@@@@@@@@@@@@@@@",
"@@@@@@@@@@@@@@@..@@@@@@@@@@@@@@@",
"@@@@@@@@@@@@@..,-..@@@@@@@@@@@@@",
"@@@@@@@@@@@@.:+,;=!.@@@@@@@@@@@@",
"@@@@@@@@@@@.?!+,;=![.@@@@@@@@@@@",
"@@@@@@@@@@.?[!+-;=![[.@@@@@@@@@@",
"@@@@@@@@@.?[[!+-;=![[[.@@@@@@@@@",
"@@@@@@@@.?[[[]=-;=![[[[.@@@@@@@@",
"@@@@@@@@.?!!]]====!!!![].@@@@@@@",
"@@@@@@@.!!+===-;;{====]].@@@@@@@",
"@@@@@@.]++,,--;;;{-{{{==].@@@@@@",
"@@@@@.,,,-=}}[;;;{[}}={{{{.@@@@@",
"@@@@@.,-;}[[!];;{{]![[}{{{.@@@@@",
"@@@@@@.-;;;;;;;;{{{{{{{{{.((@@@@",
"@@@@@@.+++===-;{{{{======.((@@@@",
"@@@@@.[!!!!!!=-{{{=!!!!!!].@@@@@",
"@@@@@.?[[[[[[]=-{=][[[[[[].@@@@@",
"@@@@@.?[[[[[[!+-{=![[[[[[].(@@@@",
"@@@@@.?[[[[[[!+-{=![[[[[]].(@@@@",
"@@@@@.?[[[[[[!+-{=![[[[]]].(@@@@",
"@@@@@.[[[[[[[]+-{=![[[[]]].(@@@@",
"@@@@@.[[[[[[]]=-{=![[[]]]].(@@@@",
"@@@@@@...[]]]]={{=![[]]...((@@@@",
"@@@@@@(((...]]={{=![...(((((@@@@",
"@@@@@@@(((((..={{=..(((((((@@@@@",
"@@@@@@@@@@((((.{{.((((((@@@@@@@@",
"@@@@@@@@@@@@@((..((((@@@@@@@@@@@",
"@@@@@@@@@@@@@@@((((@@@@@@@@@@@@@",
"@@@@@@@@@@@@@@@@((@@@@@@@@@@@@@@",
"@@@@@@@@@@@@@@@@@@@@@@@@@@@@@@@@",
"};