/* XPM */
static char *item_xpm[] = {
"32 32 8 1",
"  c None",
". c #17111a",
", c #ffe433",
"- c #f2a633",
": c #b05731",
"+ c #9e6138",
"; c #16111b",
"= c #fffad6",
/* pixels */
"@@@@@@@@@@@@@@@@@@@@@@@@@@@@@@@@",
"@@@@@@@@@@@@@@@@@@@@@@@@@@@@@@@@",
"@@@@@@@@@@@@@@@@@@@@@@@@@@@@@@@@",
"@@@@@@@@@@@@@@@@@@@@@@@@@@@@@@@@",
"@@@@@@@@@@@@@@@@....@@@@@@@@@@@@",
"@@@@@@@@@@@@@@@.,,,-...@@@@@@@@@",
"@@@@@@@@@@@@@@.,,,,,,,-...@@@@@@",
"@@@@@@@@@@@@@.,,,,,,,,,,,-.@@@@@",
"@@@@@@@@@@@@.,,,,,,,,,,,,:.@@@@@",
"@@@@@@@@@@@.,,,,,,,,,,,,:++.@@@@",
"@@@@@@@@@@.,,,,,,,,,,,,:+++.@@@@",
"@@@@@@@@@.,,,,,,,,,,,,:+++++.@@@",
"@@@@@@@@.,,,,,,,,,,,,:++++++.@@@",
"@@@@@@@.,,,,,,,,,,,,:++++++.;;@@",
"@@@@@@.,,,,,,,,,,,,:++++++.;;;@@",
"@@@@@.,,,,,,,,,,,,:++++++.;;;@@@",
"@@@@.===,,,,,,,,,:++++++.;;;@@@@",
"@@@@.---===,,,,,:++++++.;;;@@@@@",
"@@@.-------====:++++++.;;;@@@@@@",
"@@@.----------:++++++.;;;@@@@@@@",
"@@@.----------:+++++.;;;@@@@@@@@",
"@@@.----------:++++.;;;@@@@@@@@@",
"@@@@...--------:++.;;;@@@@@@@@@@",
"@@@@;;;...-----:+.;;;@@@@@@@@@@@",
"@@@@@;;;;;...--:.;;;@@@@@@@@@@@@",
"@@@@@@@@;;;;;...;;;@@@@@@@@@@@@@",
"@@@@@@@@@@@;;;;;;;@@@@@@@@@@@@@@",
"@@@@@@@@@@@@@@;;;@@@@@@@@@@@@@@@",
"@@@@@@@@@@@@@@@@@@@@@@@@@@@@@@@@",
"@@@@@@@@@@@@@@@@@@@@@@@@@@@@@@@@",
"@@@@@@@@@@@@@@@@@@@@@@@@@@@@@@@@",
"@@@@@@@@@@@@@@@@@@@@@@@@@@@@@@@@",
"};