/* XPM */
static char *item_xpm[] = {
"32 32 29 1",
"  c None",
". c #ffbe35",
", c #ffcf68",
"- c #fff275",
": c #ffa31f",
"+ c #17111a",
"; c #ffb32b",
"= c #946f29",
"! c #160f1c",
"? c #ffd1ab",
"[ c #b27f27",
"] c #16111b",
"{ c #bd8e2e",
"} c #15111a",
"( c #cf7957",
") c #fcea69",
"* c #753939",
"& c #ffc735",
"^ c #f6df37",
"% c #ae450c",
"$ c #e7a581",
"# c #d9762e",
"0 c #c55d29",
"1 c #ffa070",
"2 c #ffffff",
"3 c #b4664e",
"4 c #ffbf36",
"5 c #fff598",
"6 c #ffb52d",
/* pixels */
"@@@@@@@@@@@@@@@@@@@@@@@@@@@@@@@@",
"@@@@@@@@@@@@@@@@.@@@@@@@@@@@@@@@",
"@@@@@@@@@@@@@@@.,.@@@@@@@@@@@@@@",
"@@@@@@@@@@@@@@.,-:.@@+++@@@@@@@@",
"@@@@@@@@@@@@@@@.;=!@+???++@@@@@@",
"@@@@@@@@@@@@@@@![]]+??????+@@@@@",
"@@@@@@@@@@@@@@@@{]!+???????+@@@@",
"@@@@@@@@@@@@@@@@@}+????????+@@@@",
"@@@@@@@@.@@@@@@@@+??????????+@@@",
"@@@@@@@@,@@@@@@@+???????????+@@@",
"@@@@@@.,-:.@@@@+???????????(+]@@",
"@@@@@@@@;]@@@@+)**???????((*+]@@",
"@@@@@@@!=]]!@+)&&^*???((***+]]@@",
"@@@@@@@@@]+++*%&&^*$(***+++]]]@@",
"@@@@@@@@++???$*%&&&**+++]]]]]@@@",
"@@@@@@++??????$*%##*+]]]]]]]@@@@",
"@@@@@+(????????$*%00#+]]]@@@@@@@",
"@@@@+?1(???????1*%%0&#+@@@@@@@@@",
"@@@+2???(?????1*+##0#&&+@@@@@@@@",
"@@@+2?1(?(??1**+]+###0#&+@@@@@@@",
"@@@+?1?13?((*$$+]]+&&%0##++@@@@@",
"@@@+?111(3?$$$+]]@]+&&%%###+@@@@",
"@@@@+(1(1(3$$$+]]@@]+&#%%+++@@@@",
"@@@@+?(1(13?$+]]@..@+%#%+]]]]@@@",
"@@@@@+?3113?$+]]@,4@@+%%%+]]]@@@",
"@@@@@]+?33??+]].,2-4.]+%+]@@@@@@",
"@@@@@@]+???$+]].45-:6@]++]]@@@@@",
"@@@@@@@]++++]]@@!4;]]!@]]]@@@@@@",
"@@@@@@@@]]]]]]@@!=[]]}@@]]@@@@@@",
"@@@@@@@@@]]]]@@@@@]]@@@@@@@@@@@@",
"@@@@@@@@@@@@@@@@@@!}@@@@@@@@@@@@",
"@@@@@@@@@@@@@@@@@@@@@@@@@@@@@@@@",
"};