/* XPM */
static char *item_xpm[] = {
"32 32 9 1",
"  c None",
". c #17111a",
", c #b2bcc2",
"- c #8a949b",
": c #404a54",
"+ c #4d5761",
"; c #626c75",
"= c #16111b",
"! c #3a3342",
/* pixels */
"@@@@@@@@@@@@@@@@@@@@@@@@@@@@@@@@",
"@@@@@@@@@@@@@@@@@@@@@@@@@@@@@@@@",
"@@@@@@@@@@@@@@@@@@@@@@@@@@@@@@@@",
"@@@@@@@@@@..@@@@@@@@@@@@@@@@@@@@",
"@@@@@@@@@.,-.@@@@@@@@@@@@@@@@@@@",
"@@@@@@@@.,--:.@@@@@@@@@@@@@@@@@@",
"@@@@@@@@.,-:+.@@@@@@@@@@@@@@@@@@",
"@@@@@@@@.,:;++.@@@@@@@@@@@@@@@@@",
"@@@@@@@.,-:;;+.@@@@@@@@@@@@@@@@@",
"@@@@@@@.,:;;;++.@@@@@@@@@@@@@@@@",
"@@@@@@.,-:;;;++.@@@@@@@@@@@@@@@@",
"@@@@@@.,:;;;;+++.@@@@@@@@@@@@@@@",
"@@@@@@.-:;;;++++.@@@@@@@@@@@@@@@",
"@@@@@@.--:;;++++.=@@@@@@@@@@@@@@",
"@@@@@@@.-:;++++!:.@@@@@@@@@@@@@@",
"@@@@@@@=.-:++!!:::...@@@@@@@@@@@",
"@@@@@@@@=.-!!::::::::.@@@@@@@@@@",
"@@@@@@@@@=.:::::::::::.@@@@@@@@@",
"@@@@@@@@@@.::::::::::::..@@@@@@@",
"@@@@@@@@@.;;:::::::::!!;;.@@@@@@",
"@@@@@@@@@.;;;:::.:::!--:;;.@@@@@",
"@@@@@@@@@.;;;::.=.!!-:-:;;.@@@@@",
"@@@@@@@@@@.;;::.==.--:-;:;;.@@@@",
"@@@@@@@@@@=.:--;.@.--;:;:;;.@@@@",
"@@@@@@@@@@@=.--;;.@.-;:;;:;;.@@@",
"@@@@@@@@@@@@=.--;.@.--;:;:;;.@@@",
"@@@@@@@@@@@@@=.-;.=@.;;:;;..==@@",
"@@@@@@@@@@@@@@=..==@.;;;..====@@",
"@@@@@@@@@@@@@@@====@@...=====@@@",
"@@@@@@@@@@@@@@@@==@@@======@@@@@",
"@@@@@@@@@@@@@@@@@@@@@@===@@@@@@@",
"@@@@@@@@@@@@@@@@@@@@@@@@@@@@@@@@",
"};