/* XPM */
static char *item_xpm[] = {
"32 32 8 1",
"  c  ",
". c #17111a",
", c #b56750",
"- c #ffa070",
": c #ffb271",
"+ c #16111b",
"; c #a25948",
"= c #9c4331",
/* pixels */
"                                ",
"                                ",
"            ........            ",
"          ..,-,-,-,-..          ",
"        ..:-,-,-,-,-,-..        ",
"       .:,-..........-,-.       ",
"      .:-..++++++++++..-,.      ",
"      .-.++++++++++++++.-.      ",
"     .:-.+++          +.-,.     ",
"     .:.++              .-.     ",
"     .-.++              .-.+    ",
"    .:,.+               .,;.    ",
"    .:.++                .;.    ",
"   .:,.++                .,;.   ",
"   .:.++                  .;.   ",
"   .,.++                  .,.+  ",
"   .,.+                   .,.+  ",
"   .:=....................=;.+  ",
"  .:,:=,,,,,,,,,,,,,,,,,,=;-=.  ",
"  .:,:,==;;;;;;;;;;;;;;==-;-=.  ",
" .:,:,:,:==============;-;-;,=. ",
" .:,:,:,:,-,-,-,-,-,-,-;-;-;,=. ",
" .,:,:;:,-,-,-,-,-,-,-;-;-;,;=.+",
" .,:,:;:,-,-,-,-,-,-,-;-;-;,;=.+",
" .:,:,:,-,-,-,-,-,-,-;-;-;,;,=.+",
" .:,:,:,-,-,-,-,-,-,-;-;,;,;,=.+",
" .==,:,-,-,-,-,-,-,-;-;,;,;,==.+",
"  ..=,,-,-,-,-,-,-,-;,;,;,==..++",
"  ++..,=-,-,-,-,-,-;,;,;==..++++",
"   +++..;=;=;=;=;=;=;=;=..+++++ ",
"     +++................+++++   ",
"       ++++++++++++++++++++     ",
"};