/* XPM */
static char *item_xpm[] = {
"32 32 12 1",
"  c None",
". c #17111a",
", c #7884ab",
"- c #16111b",
": c #cf7957",
"+ c #525278",
"; c #8e4b41",
"= c #753939",
"! c #a65c49",
"? c #522e38",
"[ c #8d4a41",
"] c #744240",
/* pixels */
"@@@@@@@@@@@@@@@@@@@@@@@@@@@@@@@@",
"@@@@@@@@@@@@@@@@@@@@@@@@@@@@@@@@",
"@@@@@@@@@@@@@@@@@@@@@@@@@@@@@@@@",
"@@@@@@@...@@@@@@@@@@@@@@@@@@@@@@",
"@@@@@..,,,..@@@@@@@@@@@@@@@@@@@@",
"@@@@@@@..,,,..@@@@@@@@@@@@@@@@@@",
"@@@@@@---.,,,,.@..@@@@@@@@@@.@@@",
"@@@@@@@@--..,,,.::.@@@@@@@@..@@@",
"@@@@@@@@@@--.,,,+;.@@@@@@@.=.-@@",
"@@@@@@@@@@@--.+,,.--@@@@@.!?.-@@",
"@@@@@@@@@@@@.;+++,.-@@..@.??.-@@",
"@@@@@@@@@@@.::;.++,.@.!.@.[[.-@@",
"@@@@@@@@@@.::;.-.++.@.=.-.[].-@@",
"@@@@@@@@@.::;.---.++.@..-@.?.-@@",
"@@@@@@@@.::;.---@-.+.@---@.=.-@@",
"@@@@@@@.::;.--...@.++.@--@@..-@@",
"@@@@@@.::;.--.===.@.+.@@...=.-@@",
"@@@@@.::;.---@...-@-..-@.!?=.-@@",
"@@@@.::;.---@@----.@---.??==.-@@",
"@@@.:;;.---@@@@-..=.@--.[?==.-@@",
"@@@@...---@@@@..==?.@@@.?!??.-@@",
"@@@@-----@@@@.[[??.--@@@.!!?.-@@",
"@@@@@---@@@@@.[[?!.--@@@-..[.-@@",
"@@@@@@@.@@@@@.???!!...@@@-.?.-@@",
"@@@@@@.!...@@.!?=???==.@@.?=.-@@",
"@@@@@@.=?[[..!!?===?==.@.[[?.-@@",
"@@@@@.?=?[?==?????[???.-@.??.-@@",
"@@@@@.[?=??==?===?[[===.@.!!.-@@",
"@@@@@...................@....-@@",
"@@@@@@-------------------@----@@",
"@@@@@@-------------------@----@@",
"@@@@@@@@@@@@@@@@@@@@@@@@@@@@@@@@",
"};