/* XPM */
static char *item_xpm[] = {
"32 32 10 1",
"  c None",
". c #17111a",
", c #ff80aa",
"- c #eb5665",
": c #ff94b8",
"+ c #de688e",
"; c #f77090",
"= c #f887a2",
"! c #16111b",
"? c #e380a0",
/* pixels */
"@@@@@@@@@@@@@@@@@@@@@@@@@@@@@@@@",
"@@@@@@@@@@@@@@@@@@@@@@@@@@@@@@@@",
"@@@@@@@@@@@@@@@@@@@@@@@@@@@@@@@@",
"@@@@@@@@@@@@@@@@@@@@@@@@@@@@@@@@",
"@@@@@@@@@@@@@@@@@@@@@@@@@@@@@@@@",
"@@@@@@@@@@@@........@@@@@@@@@@@@",
"@@@@@@@@@@..,-:+,;:-..@@@@@@@@@@",
"@@@@@@@@..,,,-::+;:-,+..@@@@@@@@",
"@@@@@@@.,;:-,,--+,:-,+,,.@@@@@@@",
"@@@@@@.:,;,:-,,+::-,-,+,,.@@@@@@",
"@@@@@.--:,;:-++:--,+,-,+,-.@@@@@",
"@@@@.;,,-,:-,,,-,,:,+-+,-,,.@@@@",
"@@@@.:;,,::-,,-,+,-:,,--,;,.@@@@",
"@@@.,-:==--,+,-,+,,-:,+,,,;;.@@@",
"@@@.,,---+,;,+,-,,;,-+,,-,,,.@@@",
"@@@.;;,,+,,,;;,,-,,;-+,-,-,,.!@@",
"@@@.,,+?-,,;::;,,;;:-,+-,,-.!!@@",
"@@@@.+:-,,;:--:,,,,-,,-,+,,.!!@@",
"@@@@.:-,,;,-,,-,:-:,-..,,+.!!@@@",
"@@@@@.-,:=,,,:-:-,-,.!!...!!!@@@",
"@@@@@.,:--:::-,:-,-,.!!!!!!!@@@@",
"@@@@@@.-,+---,:-,,,.!!@@!!!@@@@@",
"@@@@@@.,+,;,,:-,,,.!!!@@@@@@@@@@",
"@@@@@@@.,,;,..-,,.!!!@@@@@@@@@@@",
"@@@@@@@!....!.,,.!!!@@@@@@@@@@@@",
"@@@@@@@@!!!!.,,.!!!@@@@@@@@@@@@@",
"@@@@@@@@@!!.,,.!!!@@@@@@@@@@@@@@",
"@@@@@@@@@@@@..!!!@@@@@@@@@@@@@@@",
"@@@@@@@@@@@@!!!!@@@@@@@@@@@@@@@@",
"@@@@@@@@@@@@@!!@@@@@@@@@@@@@@@@@",
"@@@@@@@@@@@@@@@@@@@@@@@@@@@@@@@@",
"@@@@@@@@@@@@@@@@@@@@@@@@@@@@@@@@",
"};