/* XPM */
static char *item_xpm[] = {
"32 32 12 1",
"  c None",
". c #17111a",
", c #b2bcc2",
"- c #77788e",
": c #3e375c",
"+ c #51527e",
"; c #646ea1",
"= c #16111b",
"! c #626486",
"? c #8792b1",
"[ c #2b243c",
"] c #100c16",
/* pixels */
"@@@@@@@@@@@@@@@@@@@@@@@@@@@@@@@@",
"@@@@@@@@@@@@@@@@@@@@@@@@@@@@@@@@",
"@@@@@@@@@@@@@@@@@@@@@@@@@@@@@@@@",
"@@@@@@@@@@@@@@@@@@@@@@@@@@@@@@@@",
"@@@@@@@@@@@@@....@@@@@@@@@@@@@@@",
"@@@@@@@@@@@..,,--....@@@@@@@@@@@",
"@@@@@@@@@..,,,,,,,,,,...@@@@@@@@",
"@@@@@@@@.,,,,,,,,,,,,,,,..@@@@@@",
"@@@@@@..,,,,,,,,,,,,,,,,,,..@@@@",
"@@@@@.,,,,,,,,,,,,,,,,,,,,,-.@@@",
"@@@@.-,,,,,,,,,,,,,,:,,,,,,+.@@@",
"@@@.,,,,,,,,,,,,,,,,,:,,,;++.=@@",
"@@@.!!?,,,,,,,,,,,,,,,,,;;;+.=@@",
"@@@.!?????,,,,,,,,,,,,;;;;;+.=@@",
"@@@.!?????????,,,,,,:;;;;;;+.=@@",
"@@@.!???????????!:++;;;;;;;+.=@@",
"@@@.!????????????!+;;;;;;;;+.=@@",
"@@@.!????????????!+;;;;;;;;+.=@@",
"@@@.!????????????!+;;;;;;;;+.=@@",
"@@@.!????????????!+;;;;;;;;+.=@@",
"@@@.!??????::????!+;;;;;;;;+.=@@",
"@@@.!????::??:???!+;;;;;;;;+[=@@",
"@@@.!?????????::?!+;:;;;;;+.==@@",
"@@@.!???????????:!+:;;;;;;.===@@",
"@@@@.!??????????;::;;;;;].===@@@",
"@@@@=..???.??????;+;;;;.====@@@@",
"@@@@@==...=..????!+;;..====@@@@@",
"@@@@@@=======...!!++.====@@@@@@@",
"@@@@@@@@===@====....====@@@@@@@@",
"@@@@@@@@@@@@@@========@@@@@@@@@@",
"@@@@@@@@@@@@@@@@@====@@@@@@@@@@@",
"@@@@@@@@@@@@@@@@@@@@@@@@@@@@@@@@",
"};