/* XPM */
static char *item_xpm[] = {
"32 32 13 1",
"  c None",
". c #17111a",
", c #59ac54",
"- c #83e04c",
": c #39855a",
"+ c #16111b",
"; c #38574a",
"= c #cb6745",
"! c #c44d29",
"? c #753939",
"[ c #56272b",
"] c #372538",
"{ c #7d3b37",
/* pixels */
"@@@@@@@@@@@@@@@@@@@@@@@@@@@@@@@@",
"@@@@@@@@@@@@@@@@@@@@@@@@@@@@@@@@",
"@@@@@@@@@@@@@@@@@@@@@@@@@@@@@@@@",
"@@@@@@@@@@@@@@@@@...@@@@@@@@@@@@",
"@@@@@@@@@@@@@@@@.,,,.@@@@@@@@@@@",
"@@@@@@@@@@@@@@@.,--:.@@@@@@@@@@@",
"@@@@@@@@....@@@.,-:.++@@@@@@@@@@",
"@@@@@...,,--.@@.,;.+++@@@@@@@@@@",
"@@@@@.,---::-.@.;.+++@@@@@@@@@@@",
"@@@@@.,-----:-.,.+++@@@@@@@@@@@@",
"@@@@@@.,-----:;:.+..@@@@@@@@@@@@",
"@@@@@@+..:::;..:;.,,.@@@@@@@@@@@",
"@@@@@@@++....++.,---:.@@@@@@@@@@",
"@@@@@@@@++++++.,---,;.@@@@@@@@@@",
"@@@@@@@@.......,-::;...@@@@@@@@@",
"@@@@@@@.=======,:!!!!!?.@@@@@@@@",
"@@@@@@.===!!!!!:!!!!!!!?.@@@@@@@",
"@@@@@@.==?[?]]];]]]?[?!!.@@@@@@@",
"@@@@@@.=!!!???[[[[[[!!!!.+@@@@@@",
"@@@@@@@.?!!!!!!!!!!!!!?.++@@@@@@",
"@@@@@@@+.?!!!!!!!!!!![.+++@@@@@@",
"@@@@@@@@.=?[[[[[[[[[[{.++@@@@@@@",
"@@@@@@@@.=!!!{{{{{{{{{.+@@@@@@@@",
"@@@@@@@@.=!!!!!!!!{{{{.+@@@@@@@@",
"@@@@@@@@.=!!!!!!!!!{{{.+@@@@@@@@",
"@@@@@@@@.=!!!!!!!!{{{{.+@@@@@@@@",
"@@@@@@@@@.!!!!!!!{{{{.++@@@@@@@@",
"@@@@@@@@@+..{{{{{{{..+++@@@@@@@@",
"@@@@@@@@@@++.......++++@@@@@@@@@",
"@@@@@@@@@@@+++++++++++@@@@@@@@@@",
"@@@@@@@@@@@@@+++++++@@@@@@@@@@@@",
"@@@@@@@@@@@@@@@@@@@@@@@@@@@@@@@@",
"};