/* XPM */
static char *item_xpm[] = {
"32 32 7 1",
"  c None",
". c #17111a",
", c #ffa31f",
"- c #ffc735",
": c #16111b",
"+ c #d9762e",
"; c #ae450c",
/* pixels */
"@@@@@@@@@@@@@@@@@@@@@@@@@@@@@@@@",
"@@@@@@@@@@@@@@@@@@@@@@@@@@@@@@@@",
"@@@@@@@@@@@@@@@@@@@@@@@@@@@@@@@@",
"@@@@@@@@@@@@@@@@@@@@@@@@@@@@@@@@",
"@@@@@@@@@@@@@@@@@@@@@@@@@@@@@@@@",
"@@@@@@@@@@@@@@@@@@@@@@@@@@@@@@@@",
"@@@@@@@@@@@@@@@@@@@@@@@@@@@@@@@@",
"@@@@@@@@@@@@@@@..@@@@@@@@@@@@@@@",
"@@@@@@@@@@@@@@.,,.@@@@@@@@@@@@@@",
"@@@@@@@@@@@@@@.,,.@@@@@@@@@@@@@@",
"@@@@..@@@@..@@.--.:@..@@@@..@@@@",
"@@@@.,.@@@.,.@@..::.,.@@@.,.@@@@",
"@@@@@.,.@@@..@@::::..::@.,.::@@@",
"@@@@@:.-.@@:::....@@:::.-.:::@@@",
"@@@@@@:..@@@..,,,,..::@..:::@@@@",
"@@@@@@@:::@.,,,,,,,,.@@@:::@@@@@",
"@@@@..@@::.,,,,,,,,,,.@@::..@@@@",
"@@@@.,.@@.,,,,,,,,,,,,.@@.,.@@@@",
"@@@@@..@@.,,,,,,,,,,,,.@@..::@@@",
"@@@@@:::.,,,,,,,,,,,,,,.@@:::@@@",
"@@@@@@::.,,,,,,,,,,,,,,.@@::@@@@",
"@@@......++++++++++++++......@@@",
"@@.;;;;;;;;;;;;;;;;;;;;;;;;;;.@@",
"@@............................@@",
"@@@::::::::::::::::::::::::::::@",
"@@@::::::::::::::::::::::::::::@",
"@@@@@@@@@@@@@@@@@@@@@@@@@@@@@@@@",
"@@@@@@@@@@@@@@@@@@@@@@@@@@@@@@@@",
"@@@@@@@@@@@@@@@@@@@@@@@@@@@@@@@@",
"@@@@@@@@@@@@@@@@@@@@@@@@@@@@@@@@",
"@@@@@@@@@@@@@@@@@@@@@@@@@@@@@@@@",
"@@@@@@@@@@@@@@@@@@@@@@@@@@@@@@@@",
"};