/* XPM */
static char *item_xpm[] = {
"32 32 14 1",
"  c None",
". c #17111a",
", c #2d3a5f",
"- c #372538",
": c #6e769d",
"+ c #61658b",
"; c #ffffff",
"= c #243b61",
"! c #3898ff",
"? c #98a59a",
"[ c #16111b",
"] c #39496f",
"{ c #3e375c",
"} c #6c7396",
/* pixels */
"@@@@@@@@@@@@@@@@@@@@@@@@@@@@@@@@",
"@@@@@@@@@@@@@@@@@@@@@@@@@@@@@@@@",
"@@@@@@@@@@@@@@@@@@@@@@@@@@@@@@@@",
"@@@@@@@@@@@@@@@@@@.@@@@@@@@@@@@@",
"@@@@@@@@@@@@@@@@@.,.@....@@@@@@@",
"@@@@@@@@@@@@@@...,,-.::++..@@@@@",
"@@@@@@@@@@@@..,,,--::;=++++.@@@@",
"@@@@@@@@@@..,,,--::++=!+++++.@@@",
"@@@@@@@@..,,,--::++++++++???.@@@",
"@@@@@@@.,,,--::+++++?????...[[@@",
"@@@@@@.,,--::+]+++??.....[[[[[@@",
"@@@@@.=,-::+]++???..[[[[[[[[[@@@",
"@@@@.,,-::+]++?--.[[[[[[[[@@@@@@",
"@@@@.,-::+]++?-,,,...@@@@@@@@@@@",
"@@@@@.::+]++?-,,,,,,,....@@@@@@@",
"@@@@@.:::+++?+-------,,,,..@@@@@",
"@@@@@@.:::+-+??++++++----,,.@@@@",
"@@@@@@.::+-++++????++++++-,,.@@@",
"@@@@@@.::+....+++++????+++-.[@@@",
"@@@@@@@.+.[[[[.....++++??+++.[@@",
"@@@@@@@..[[[[[[[[[[....++?++.@@@",
"@@@@@@@@[[[@@@@....,,--+++?.[[@@",
"@@@@@@@@[[@@...,,,{--++++?.[[[@@",
"@@@@@@@@....,,,----:+++??.[[[@@@",
"@@@@@@..,,,,---}::+++??..[[[@@@@",
"@@@@@.,,,---::+++????..[[[[@@@@@",
"@@@@.,,--::+?????....[[[[[@@@@@@",
"@@@@.,-::+??.....[[[[[[[@@@@@@@@",
"@@@@@.......[[[[[[[[[[@@@@@@@@@@",
"@@@@@[[[[[[[[[[[[[@@@@@@@@@@@@@@",
"@@@@@@[[[[[[[@@@@@@@@@@@@@@@@@@@",
"@@@@@@@@@@@@@@@@@@@@@@@@@@@@@@@@",
"};