/* XPM */
static char *item_xpm[] = {
"32 32 11 1",
"  c  ",
". c #17111a",
", c #3e375c",
"- c #372538",
": c #16111b",
"+ c #c44d29",
"; c #fc791a",
"= c #ffe433",
"! c #a25948",
"? c #753939",
"[ c #ffa070",
/* pixels */
"                                ",
"                                ",
"  ............................  ",
" .,,,,,,,,,,,,,,,,,,,,,,,,,,,,. ",
" .-,,,,,,,,,,,,,,,,,,,,,,,,,,-. ",
"  .---....................---.::",
"  :.------------------------.:::",
"   .------------------------.:: ",
"  .,,,,,,,,,,,,,,,,,,,,,,,,,-.  ",
"  .,,,,,,,,,,,,,,,,,,,,,,,,,-.  ",
"  .,,,,,,,,,,,,,,,,,,,,,,,,,-.: ",
"  .,,,,,,,,,,,,,,,,,,,,,,,,,-.: ",
"  .,,,,,,,,,,,+,,,,,,,,,,,,--.: ",
"   .,,+,,,,,,,++,,,,,,,,-+--.:: ",
"   .,,++,,,,,,+;+,,+,,,-+;+-.:: ",
"    .,+=+,,,,+=;+,+=+,--+;+.::  ",
"    :.,+;+,+,+;;;+=;+--+;;+:::  ",
"     :.+;+,++=;;;;;+--+;;;+::   ",
"      :+;;+;;;..;;;;++;;;+::    ",
"       +;;;;..!!.;;;;;;;;+::    ",
"        +;;.!!--?..;;;;;+::     ",
"        +..!-????--..;;;+::     ",
"        .!!?????-.-!!...::      ",
"      ..!????----.-??!!!...     ",
"     .!!????--[[[!--????!!!.    ",
"    .!?????--[!!![!-????---.    ",
"   .!??!!----[![[![---?????-.   ",
"   .!?!-----.[!![![-----????.   ",
"    .!----...![!!![..-------.:  ",
"    :.--..:::.![[[.::...---.::  ",
"     :..::::::....::::::...:::  ",
"      :::::   ::::::  :::::::   ",
"};