/* XPM */
static char *item_xpm[] = {
"32 32 16 1",
"  c None",
". c #17111a",
", c #fff3bd",
"- c #ffe362",
": c #ffd550",
"+ c #e4ad40",
"; c #ffbf36",
"= c #16111b",
"! c #d59737",
"? c #583d38",
"[ c #ffffff",
"] c #372538",
"{ c #dea840",
"} c #b36f2e",
"( c #b57430",
") c #eec551",
/* pixels */
"@@@@@@@@@@@@@@@@@@@@@@@@@@@@@@@@",
"@@@@@@@@@@@@@@@@@@@@@@@@@@@@@@@@",
"@@@@@@@@@@@@@@@@@@@@@@@@@@@@@@@@",
"@@@@@@@..@@@@@@@@@@@@@@@@@@@@@@@",
"@@@@@@@.,.....@@@@@@@@@@@@@@@@@@",
"@@@@@@@.-:::--....@@@@@@@@@@@@@@",
"@@@@@@@@...+::;;;;.@@@@@@@@@@@@@",
"@@@@@@@@===.:;;;;;;.@@@@@@@@@@@@",
"@@@@@@@@@==.;;;;;;;;.@@@@@@@@@@@",
"@@@@@@@@@@@@.;;;;;;;;.@@@@@@@@@@",
"@@@....@@@@@.;;;;;;;:.@@@@@@@@@@",
"@@@.,-:..@@.,;;;;;;;;:.@@@@@@@@@",
"@@@@..+--.@.;;;;;;;;;::.@@@@@@@@",
"@@@@==.:::.,;;;;;;;;;;;:.@@@@@@@",
"@@@@..-::::!;;;???;;;[]::..@@@@@",
"@@@.,::::::!;;?,-;?;;]]:::{.@@@@",
"@@@@..{::::};?,:;!?;;!}:{..=@@@@",
"@@@@==.::::};!?!!!?;;;:{.====@@@",
"@@@@@=.:::{.;;!???};;;:}.===@@@@",
"@@@@@.::{{.=.;;}}};;;:}.==@@@@@@",
"@@@@.:{{..==.;;;;;;;;}.===@@@@@@",
"@@@@.{..====.;;;;;;;}.===@@@@@@@",
"@@@@@.=====.;;;;;;;}.===@@@@@@@@",
"@@@@@====@@.:;;;;}}.===@@@@@@@@@",
"@@@@@@=@...:::;}}..===@@@@@@@@@@",
"@@@@@@@.,::(((...====@@@@@@@@@@@",
"@@@@@@@.).....======@@@@@@@@@@@@",
"@@@@@@@..=========@@@@@@@@@@@@@@",
"@@@@@@@@=======@@@@@@@@@@@@@@@@@",
"@@@@@@@@==@@@@@@@@@@@@@@@@@@@@@@",
"@@@@@@@@@@@@@@@@@@@@@@@@@@@@@@@@",
"@@@@@@@@@@@@@@@@@@@@@@@@@@@@@@@@",
"};