/* XPM */
static char *item_xpm[] = {
"32 32 6 1",
"  c  ",
". c #17111a",
", c #ffffff",
"- c #e14141",
": c #7a213a",
"+ c #16111b",
/* pixels */
"                                ",
"                                ",
"                                ",
"                                ",
"                                ",
"            .........           ",
"          ..,,,,,,,,,..         ",
"        ..,,----------:..       ",
"       .,,-,,,,--------::.      ",
"      .,--,,,,,,--------::.     ",
"     .,--,,,,,,,,-------:::.    ",
"     .,--,,,,,,,,--------::.    ",
"    .,---,,,,,,,,--------:::.   ",
"    .,----,,,,,,----------::.   ",
"    .,-----,,,,-----------::.+  ",
"    .,--,,----------------::.+  ",
"    .,-,,,,---------------::.+  ",
"    .,--,,---------------:::.+  ",
"    .,-------------------:::.+  ",
"    .,------------------::::.+  ",
"    .:-----------------:::::.+  ",
"     .:---------------:::::.++  ",
"     .:::-----------:::::::.++  ",
"      .:::::------::::::::.++   ",
"      +.:::::::::::::::::.+++   ",
"       +..:::::::::::::..+++    ",
"        ++..:::::::::..++++     ",
"         +++.........+++++      ",
"           +++++++++++++        ",
"             +++++++++          ",
"                                ",
"                                ",
"};