/* XPM */
static char *item_xpm[] = {
"32 32 7 1",
"  c None",
". c #16111b",
", c #17111a",
"- c #ffbf36",
": c #c44d29",
"+ c #ffde5d",
"; c #b0351a",
/* pixels */
"@@@@@@@..@@@@@@....@@@@@@...@@@@",
"@@@@@@@@@@@@@@@@@@@@@@@@@@@@@@@@",
"@@@@@@@@@@@@@@@@@@@@@@@@@@@@@@@@",
"@@@@@@@@@@@@@@@@@@@@@@@@@@@@@@@@",
"@@@@@@@@@@@@@@@@@@@@@@@@@@@@@@@@",
"@@@@@@@@@@@@@@@@@@@@@@@@@@@@@@@@",
"@@@@@@@@@@@@@@@,,@@@@@@@@@@@@@@@",
"@@@@@@@@@@@@@@,--,,@@@@@@@@@@@@@",
"@@@@@@@@@@@@@,----:,@@@@@@@@@@@@",
"@@@@@@@@@@@,,--+---:,@@@@@@@@@@@",
"@@@@@@@@@@,--------::,@@@@@@@@@@",
"@@@@@@@@@,----------::,@@@@@@@@@",
"@@@@@@@@,---+--------::,@@@@@@@@",
"@@@@@@@,---------:--:::;,@@@@@@@",
"@@@@@@,--+------------::;,@@@@@@",
"@@@@@,---------+------:::;,@@@@@",
"@@@@,-------------+-:--:::;,@@@@",
"@@@@,--+------+---------:::;,@@@",
"@@@,--------------------::;,.@@@",
"@@@,--------:----:--:--::;,;,.@@",
"@@@,------+-----------:::,,;,@@@",
"@@@,--------:-::-:-:-:,,:;,,..@@",
"@@@@,---:---,,,--;,,:;,.,,::,.@@",
"@@@-,--,--:,,--,:,-.,,:,.,:;,@@@",
"@@@@@,,--,,-,---,.....,.,.,,..@@",
"@@@+..,-,,-,.,-:,.,,-..,;,....@@",
"@@@@@:.,.,--,.,,.,:;,@@.,.@.;@@@",
"@@@@.@@...,,.@....,,..@@..;@@@@@",
"@@@@@@.@.@...:@-.@...:@@@.@@@.@@",
"@@@@@@@@@-@..@@@@@@+.@@@@@@.@@@@",
"@@@@@@@@@@@@@@.@.@@@@@.@@@@@@@@@",
"@@@@@@@@@@.@@@@@@@@@.@@@@@@@@@@@",
"};