/* XPM */
static char *item_xpm[] = {
"32 32 22 1",
"  c None",
". c #17111a",
", c #ffffff",
"- c #7884ab",
": c #63a5ea",
"+ c #8db1d5",
"; c #3e375c",
"= c #16111b",
"! c #b2bcc2",
"? c #f0be52",
"[ c #595b81",
"] c #d9be7c",
"{ c #d8914d",
"} c #372538",
"( c #737f93",
") c #555c82",
"* c #8c6d4d",
"& c #8b4840",
"^ c #753939",
"% c #689351",
"$ c #39855a",
"# c #505d83",
/* pixels */
"@@@@@@@@@@@@@@@@@@@@@@@@@@@@@@@@",
"@@@@@@@@@@@@@@@@@@@@@@@@@@@@@@@@",
"@@@@@@@@@@@@@@@@@@@@@@@@@@@@@@@@",
"@@@@@@@@@@@@@@@@@@@@@@@@@@@@@@@@",
"@@@@@@@@@@@@@@@@@@@@@@@@@@@@@@@@",
"@@@@@@@@@@@@@.......@@@@@@@@@@@@",
"@@@@@@@@@@...,,-----.@@@@@@@@@@@",
"@@@@@@@@@.,,:+;;;--.=@@@@@@@@@@@",
"@@@@@@@@.,-;;;!!!..==..@@@@@@@@@",
"@@@@@@@.,-;!!!--.===.!:.@@@@@@@@",
"@@@@@@.,-;!--??[.==.-!:.@@.@@@@@",
"@@@@@@.:;!-]--?[.=.:--.==.-.@@@@",
"@@@@@.:+;!----{[[.!-[.==.--.@@@@",
"@@@@@.+;!-?---{[}!-[.==.!;-.=@@@",
"@@@@@.(;!-?{{{[}!-[}===.!;-.=@@@",
"@@@@@.(;!![[[[}--[}[...-!;-.=@@@",
"@@@@@.);!...[}-:[}[[[---!;-.=@@@",
"@@@@@.)..===.-;-}*{{??--!;:.=@@@",
"@@@@@@.====.-;-}[{---{-!;:).=@@@",
"@@@@@@====.&^-.[[{-----!;+.==@@@",
"@@@@@@@=@.&^}.=.[{-----!;+.==@@@",
"@@@@@@@@.&^}.==.[{{---!;:).=@@@@",
"@@@@@@@.&^}.===.!---!!;:).==@@@@",
"@@@@@@.&^}.===.!!!!!;;:).===@@@@",
"@@@@@.}^}.===@.;;;;;:().===@@@@@",
"@@@@.%$}.===@.#)##)))..===@@@@@@",
"@@@.%$}.===@@@.......====@@@@@@@",
"@@.%$}.===@@@@==========@@@@@@@@",
"@@.%}.===@@@@@@=======@@@@@@@@@@",
"@@...===@@@@@@@@@@@@@@@@@@@@@@@@",
"@@@====@@@@@@@@@@@@@@@@@@@@@@@@@",
"@@@===@@@@@@@@@@@@@@@@@@@@@@@@@@",
"};