/* XPM */
static char *item_xpm[] = {
"32 32 24 1",
"  c None",
". c #17111a",
", c #5e3239",
"- c #16111b",
": c #372538",
"+ c #7c3e3b",
"; c #432c3a",
"= c #57445d",
"! c #6c4951",
"? c #845353",
"[ c #499957",
"] c #373a5c",
"{ c #704e5e",
"} c #529851",
"( c #484e3c",
") c #51425d",
"* c #39855a",
"& c #449150",
"^ c #338655",
"% c #37875a",
"$ c #408454",
"# c #404f38",
"0 c #141118",
"1 c #514d38",
/* pixels */
"@@@@@@@@@@@@@@@@@@@@@@@@@@@@@@@@",
"@@@@@@@@@@@@@@@@@@@@@@@@@@@@@@@@",
"@@@@@@@@@@@@@@@@@@@@@@@@@@@@@@@@",
"@@@@@@@@@@@@@@@@@@@@@@@@@@@@@@@@",
"@@@@@@@@@....@@@@@@@@@@@@@@@@@@@",
"@@@@@@@..,,,,.@@@@@@@@@@@@@@@@@@",
"@@@@@@@.,,,,,,.@@@@@@@@@@@@@@@@@",
"@@@@@@@.,,,,,,.@@@@@@@@@@@@@@@@@",
"@@@@@@@.,,,,,,.-@@@@@@@@@@@@@@@@",
"@@@@..@.,,,,,,.-@@@@@@@@@@@@@@@@",
"@@@.,,.,,,,,,,.-@@@@@@@@@@@@@@@@",
"@@@.,,,,,,,,:.--@@@@@@@@@@@@@@@@",
"@@@@.,,,,,::++.-@@@@@@...@@@@@@@",
"@@@@.,,,,:++++;.@@@@@.,,,.@@@@@@",
"@@@.=!,,:++++;++.@@@.,,,,,.@@@@@",
"@@@@.==:++?+;++;[.@.,,,,,,!.@@@@",
"@@@@-.]++{{+++;+}(.,,,,,,,=).@@@",
"@@@@@-.{{{{{+++++(:,,,*,&,=*.@@@",
"@@@@@@-.{{{{++++({:,,,,=*=^.--@@",
"@@@@@@@-.{{++++?({],,,*==*.---@@",
"@@@@@@@@.{{{{++{{{]=,,(=*.---@@%",
"@@@@@@@@@.{{{{{{{{{]&=:^(.--@@@@",
"@@@@@@@@@.{{{{{{({[[***:(.-@@@@@",
"@@@@@@@@@@.{{{}$(]&$(:*.*.-@@@@@",
"@@@@@@@@@@-.{}*(*#*.(*.-.--@@@@@",
"@@@@@@@@@@@.{]=*](.-0^.----@@@@@",
"@@@@@@@@@@@@.=]1..---.--@-@@@@@@",
"@@@@@@@@@@@@....----@---@@@@@@@@",
"@@@@@@@@@@@@@------@@@-@@@@@@@@@",
"@@@@@@@@@@@@@----@@@@@@@@@@@@@@@",
"@@@@@@@@@@@@@@@@@@@@@@@@@@@@@@@@",
"@@@@@@@@@@@@@@@@@@@@@@@@@@@@@@@@",
"};