/* XPM */
static char *item_xpm[] = {
"32 32 18 1",
"  c None",
". c #17111a",
", c #dcff70",
"- c #ffe868",
": c #ffbf36",
"+ c #ff9514",
"; c #ffad58",
"= c #d98750",
"! c #ffe05e",
"? c #16111b",
"[ c #83e04c",
"] c #ffa664",
"{ c #ff9d1b",
"} c #ffa452",
"( c #e28d43",
") c #e2954a",
"* c #c78540",
"& c #95e653",
/* pixels */
"@@@@@@@@@@@@@@@@@@@@@@@@@@@@@@@@",
"@@@@@@@@@@@@@@@@@@@@@@@@@@@@@@@@",
"@@@@@@@@@@@@@@@@@@@@@@@@@@@@@@@@",
"@@@@@@@@@@@@@@@@@@@@@@@@@@@@@@@@",
"@@@@@@@@@...@@@@@@@@@@@@@.@@@@@@",
"@@@@@@@@.,,,.@@@@@@@@....-..@@@@",
"@@@@@@@@@.,,,.@@@@@..-::+::;.@@@",
"@@@@@@@@@.,,,,.@@..::+:+:+:=.@@@",
"@@@@@@@@@@.,,,,..+::::::!+:.??@@",
"@@@@@@@@@..,[,,]::-:!:+]::+.??@@",
"@@@@@@@@.,,[,,{:+:++!;::+}.??@@@",
"@@@@@@@@.,,[{::!::::(:+:;.???@@@",
"@@@@@@@.,,,[:-++:]:-+::)+.??@@@@",
"@@@@@@@.,,,[+::+::+::]:+.??@@@@@",
"@@@@@@.,,,,[::!:!!::(:+.???@@@@@",
"@@@@@@.,,,,[:]:=:+:]+*...?@@@@@@",
"@@@@@.,,,,,[::+::=++[[[[[.@@@@@@",
"@@@@@.,,,,,[+*:+)+[[,,,[[[.@@@@@",
"@@@@@.,,,,,[]:+[[[,,,,,[[[.@@@@@",
"@@@@.,,,,,,[[=[,,,,[[[[[[[.?@@@@",
"@@@@.,,,,,,,[[,,,,,,[[[[[[.?@@@@",
"@@@@.,,,,,,,[&,,,,,[[..[[[.?@@@@",
"@@@@.,,,,,,[&,,,,[[[.??.[[.?@@@@",
"@@@@.,,,,,[&,,,,[[[.????.[.?@@@@",
"@@@@.[,,,[&,,,[[[[[.??@@?.??@@@@",
"@@@@@.[[[[[[[[[[[..??@@@@???@@@@",
"@@@@@?.....[[[...????@@@@@?@@@@@",
"@@@@@@?????...??????@@@@@@@@@@@@",
"@@@@@@@???????????@@@@@@@@@@@@@@",
"@@@@@@@@@@@@???@@@@@@@@@@@@@@@@@",
"@@@@@@@@@@@@@@@@@@@@@@@@@@@@@@@@",
"@@@@@@@@@@@@@@@@@@@@@@@@@@@@@@@@",
"};