/* XPM */
static char *item_xpm[] = {
"32 32 7 1",
"  c None",
". c #17111a",
", c #7a213a",
"- c #da4c5a",
": c #ae313e",
"+ c #16111b",
"; c #cc4859",
/* pixels */
"@@@@@@@@@@@@@@@@@@@@@@@@@@@@@@@@",
"@@@@@@@@@@@@@@@@@@@@@@@@@@@@@@@@",
"@@@@@@@@@@@@@@@@@@@@@@@@@@@@@@@@",
"@@@@@@@@@@@@@@@@@@@@@@@@@@@@@@@@",
"@@@@@@@@@@@@@@@..@@@@@@@@@@@@@@@",
"@@@@@@@@@@@@@@.,,.@@@@@@@@@@@@@@",
"@@@@@@@@@@@@@@.--.@@@@@@@@@@@@@@",
"@@@@@@@@@@@@@@.-:.+@@@@@@@@@@@@@",
"@@@@@@@@@@..@@.-:.+@..@@@@@@@@@@",
"@@@@@@@@..,,.@.::.+.,,..@@@@@@@@",
"@@@@@@@.,,:,.@.:,.+.,:,,.@@@@@@@",
"@@@@@@.,::::,.,:,,.,::-:,.@@@@@@",
"@@@@@.,:::::;.,,,,.;:::--,.@@@@@",
"@@@@@.:-:-:-:......:---:::.@@@@@",
"@@@@.,-:-:-::.++++.::-:-::,.@@@@",
"@@@@.,::-::-:.++++.::-:-::,.@@@@",
"@@@@.,::-::-:.+@@@.:-::-::,.+@@@",
"@@@@.,:-::-::.+@@@.::-::-:,.+@@@",
"@@@@.,:-:::-:.+@@@.:-:::-:,.+@@@",
"@@@@.,-:-::::.+@@@.::::-:-,.+@@@",
"@@@@.,::-::::.+@@@.::::::-,.+@@@",
"@@@@.,:::::::.+@@@.:::::-:,.+@@@",
"@@@@.,::::::,.+@@@.,::::::,.+@@@",
"@@@@.,:::::,.++@@@@.,:::::,.+@@@",
"@@@@.,:::,,.+++@@@@+.,,:::,.+@@@",
"@@@@.,,,,..+++@@@@@@+..,,,,.+@@@",
"@@@@@....++++@@@@@@@@++....++@@@",
"@@@@@+++++++@@@@@@@@@@+++++++@@@",
"@@@@@@++++@@@@@@@@@@@@@@++++@@@@",
"@@@@@@@@@@@@@@@@@@@@@@@@@@@@@@@@",
"@@@@@@@@@@@@@@@@@@@@@@@@@@@@@@@@",
"@@@@@@@@@@@@@@@@@@@@@@@@@@@@@@@@",
"};