/* XPM */
static char *item_xpm[] = {
"32 32 17 1",
"  c None",
". c #17111a",
", c #413651",
"- c #16111b",
": c #5c3139",
"+ c #372538",
"; c #a65c49",
"= c #b2bcc2",
"! c #7884ab",
"? c #525278",
"[ c #753939",
"] c #d7dadd",
"{ c #b0b4bd",
"} c #b1b7bc",
"( c #9da2ad",
") c #d3a15e",
"* c #a66f4c",
/* pixels */
"@@@@@@@@@@@@@@@@@@@@@@@@@@@@@@@@",
"@@@@@@@@@@@@@@@@@@@@@@@@@@@@@@@@",
"@@@@@@@@@@@@@@@@@@@@@@@@@@@@@@@@",
"@@@@@@@@@....@@@@@@@@@@@@@@@@@@@",
"@@@@@@@@.,,,,.@@@@@@@@@@@@@@@@@@",
"@@@@@@@.,....,.@@@@@@@@@@@@@@@@@",
"@@@@@@.,.----.,.....@@@@@@@@@@@@",
"@@@@@.,.-----.:+++++..@@@@@@@@@@",
"@@@@@.,.--@@.:;:....++..@@@@@@@@",
"@@@@@..--@@.+:;.----..++.@@@@@@@",
"@@@@.==.-@.+.:;;.-----.++...@@@@",
"@@@@.=!?..+.-.;;.@@@@-.::;[[.@@@",
"@@@@.!!!??.--.;;;.@@..;;;[[[.@@@",
"@@@@.?!???.--.;;;;..;;;;[[[.--@@",
"@@@@@.??..--@.[;;;;;;;[[[..---@@",
"@@@@@-..----@@.;;;;;[[[..----@@@",
"@@@@@@-----@@@.[;;[[[..-----@@@@",
"@@@@@@@--@@@@.[[[[[..-----@@@@@@",
"@@@@@@@@@@@@@.[[[[.-----@@@@@@@@",
"@@@@@@@@@@@@.][[[.----@@@@@@@@@@",
"@@@@@@@@@@@@.]{}.---@@@@@@@@@@@@",
"@@@@@@@@@@@.!]!.---@@@@@@@@@@@@@",
"@@@@@@@@@@.{]!(.--@@@@@@@@@@@@@@",
"@@@@@@@@@.;;{}.--@@@@@@@@@@@@@@@",
"@@@@@@@@.[[;;(.--@@@@@@@@@@@@@@@",
"@@@@@@@@.))[;.--@@@@@@@@@@@@@@@@",
"@@@@@@@@.*))[.--@@@@@@@@@@@@@@@@",
"@@@@@@@@@.**.--@@@@@@@@@@@@@@@@@",
"@@@@@@@@@-..---@@@@@@@@@@@@@@@@@",
"@@@@@@@@@@----@@@@@@@@@@@@@@@@@@",
"@@@@@@@@@@@--@@@@@@@@@@@@@@@@@@@",
"@@@@@@@@@@@@@@@@@@@@@@@@@@@@@@@@",
"};