/* XPM */
static char *fire1__111725987670[] = {
/* columns rows colors chars-per-pixel */
"64 64 192 2 ",
"   c None",
".  c #5E310D",
"X  c #69290C",
"o  c #752F0E",
"O  c #6F340E",
"+  c #7C330F",
"@  c #77320F",
"#  c #693310",
"$  c #753D14",
"%  c #7B3F14",
"&  c #773411",
"*  c #7E4416",
"=  c #784C17",
"-  c #7F5218",
";  c #81350F",
":  c #833511",
">  c #8B3A12",
",  c #913B14",
"<  c #8B4415",
"1  c #8A4B19",
"2  c #884A18",
"3  c #9B4316",
"4  c #9F4618",
"5  c #944E1B",
"6  c #9A4D1A",
"7  c #825518",
"8  c #95551D",
"9  c #9B521B",
"0  c #955A1C",
"q  c #9C5C1D",
"w  c #A04816",
"e  c #A24718",
"r  c #A74C1A",
"t  c #A6521B",
"y  c #A9521B",
"u  c #A35C1E",
"i  c #AC5C1F",
"p  c #B55E1E",
"a  c #B95C1E",
"s  c #B3531C",
"d  c #9F601E",
"f  c #AA601E",
"g  c #9E6A21",
"h  c #817731",
"j  c #AC6321",
"k  c #AF6C23",
"l  c #A46621",
"z  c #B36521",
"x  c #BD6321",
"c  c #B46A22",
"v  c #BA6B24",
"b  c #AA7123",
"n  c #BF7A28",
"m  c #BC7726",
"M  c #C35D1F",
"N  c #C46D24",
"B  c #CE6C24",
"V  c #C36722",
"C  c #D16D24",
"Z  c #C47326",
"A  c #CD7226",
"S  c #C57A28",
"D  c #CB7A29",
"F  c #C77628",
"G  c #D17425",
"H  c #D57B2A",
"J  c #DC7D29",
"K  c #D67827",
"L  c #E17928",
"P  c #B5862A",
"I  c #BD912F",
"U  c #9EA03E",
"Y  c #CF802A",
"T  c #CB8C2C",
"R  c #C18329",
"E  c #D2832C",
"W  c #DC822B",
"Q  c #DC8A2D",
"!  c #D68B2D",
"~  c #C1912E",
"^  c #D69E31",
"/  c #E4832C",
"(  c #EE872D",
")  c #E4892D",
"_  c #EB8D2E",
"`  c #F38C2F",
"'  c #EE902F",
"]  c #F0912F",
"[  c #F58C30",
"{  c #EB9631",
"}  c #E99A32",
"|  c #E49731",
" . c #F49431",
".. c #FB9431",
"X. c #F49D33",
"o. c #FD9C34",
"O. c #DEB43A",
"+. c #EDAA36",
"@. c #E4A735",
"#. c #F6A135",
"$. c #FEA335",
"%. c #FEA837",
"&. c #FFAC39",
"*. c #F3AB37",
"=. c #E3B43A",
"-. c #EBB43A",
";. c #E3BB3C",
":. c #EFBB3C",
">. c #ECB137",
",. c #F2B53A",
"<. c #FDB43B",
"1. c #F3BA3C",
"2. c #FEBA3C",
"3. c #EDC23E",
"4. c #E7C23E",
"5. c #F5C43F",
"6. c #FDC23E",
"7. c #929446",
"8. c #A29740",
"9. c #A59840",
"0. c #B9AF47",
"q. c #B8A743",
"w. c #AAB047",
"e. c #BDB64D",
"r. c #C9B772",
"t. c #C8C757",
"y. c #CFD054",
"u. c #D2D95D",
"i. c #EDC440",
"p. c #FEC441",
"a. c #F2CB42",
"s. c #FECB42",
"d. c #EFD043",
"f. c #F4D444",
"g. c #FED444",
"h. c #FDDB46",
"j. c #F6D148",
"k. c #FCD44B",
"l. c #FEDD49",
"z. c #F3DE47",
"x. c #E1DD5A",
"c. c #FDDE5F",
"v. c #FEE44A",
"b. c #FFEB4C",
"n. c #FFF24F",
"m. c #FFF84F",
"M. c #FEE050",
"N. c #FFEE5D",
"B. c #FFE65A",
"V. c #FFF655",
"C. c #FFFB54",
"Z. c #FFF55E",
"A. c #FFFD5C",
"S. c #E0DF6B",
"D. c #E8DA78",
"F. c #EDED6E",
"G. c #FFEE62",
"H. c #F2EE69",
"J. c #FFFE63",
"K. c #F6F768",
"L. c #FEF66C",
"P. c #FFFD6C",
"I. c #FBF267",
"U. c #FFEB72",
"Y. c #FDE672",
"T. c #FDF474",
"R. c #FFFD73",
"E. c #FFF779",
"W. c #FFFF7C",
"Q. c #D4C586",
"!. c #E3D484",
"~. c #FBED89",
"^. c #F6EB86",
"/. c #FFFE83",
"(. c #FFFF8C",
"). c #FDF286",
"_. c #EFE596",
"`. c #FFFE93",
"'. c #FFFE9C",
"]. c #FAF095",
"[. c #FFFFA5",
"{. c #FFFEAA",
"}. c #FFFFB3",
"|. c #FFFFBC",
" X c #FFFFC3",
".X c #FFFFCC",
"XX c #FFFFD4",
"oX c #FFFFDB",
"OX c #FFFFE2",
"+X c #FFFFEB",
"@X c #FFFFF2",
"#X c #FFFFFE",
/* pixels */
"                                                                                                                                ",
"                                                                                                                                ",
"                                                                                                                                ",
"                                                                                                                                ",
"                                                                                                                                ",
"                                                                                                                                ",
"                                                                                                                                ",
"                                                                                                                                ",
"                                                                                                                                ",
"                                                                                                                                ",
"                                                                                                                                ",
"                                                                                                                                ",
"                                                                                                                                ",
"                                                                                                                                ",
"                                                                                                                                ",
"                                                                                                                                ",
"                                                                                                                                ",
"                                                                                                                                ",
"                                                          %                                                                     ",
"                                                          * *                                                                   ",
"                                                          1 1 # .   X X o +                                                     ",
"                                                          5 5 $ O O o & + : +                                                   ",
"                                                    < 6 9 9 6 > < < : + : : : &                                                 ",
"                                                  9 i v c i i i p a e > , , , >                                                 ",
"                                                q z N N V x x V N G a 3 , w w 4 2                                               ",
"                                                f v A G B B G A G G M r w r t t q                                               ",
"                                              0 f z N A G H H H J K C M s t i u q                                               ",
"                                              0 j c Z F H J W _ ` ( L C a t i k g                                               ",
"                                              q j v Z H L / ' o.$.../ B a y j c u %                                             ",
"                                              q j v H [ [ '  .$.&.o.) B a p j j u %                                             ",
"                                          2 8 j c F ( ..o.....o.2.<. .W F m z j u 2                                             ",
"                                          8 u j Z ) ..o.o.o.o.&.s.g.<.X.{ ! D S c 9                                             ",
"                                          u j c H ` o.$.$.$.%.2.g.h.6.6.&.#.{ | D u $                                           ",
"                                          u c Z H ..o.%.%.2.6.6.6.h.g.g.6.<.%.X.Q f $                                           ",
"                                          u v N D _ o.%.<.6.6.5.6.v.g.g.p.<.<.*.} c =                                           ",
"                                          u c v S E _ $.<.<.:.5.v.m.v.6.5.1.<.>.*.T 0                                           ",
"                                          l c S E Q { %.<.1.5.v.m.C.b.s.5.1.<.-.-.} b                                           ",
"                                          k S E ) X.&.2.6.a.d.f.n.m.v.1.-.>.1.1.:.+.n =                                         ",
"                                          S Q ] %.2.s.h.l.f.f.f.v.m.b.a.=.>.:.1.:.+.R -                                         ",
"                                          E X.&.l.m.n.C.C.n.l.f.b.C.b.i.=.=.=.-.:.+.T 7                                         ",
"                                          _ &.s.Z.A.A.A.J.A.V.v.n.C.m.a.;.O.=.=.-.>.^ g                                         ",
"                                        c ' <.s.C.A.C.A.J.P.J.C.C.J.C.l.i.;.;.;.5.1.@.P                                         ",
"                                        D  .<.k.V.A.C.A.J.J.J.A.A.J.J.C.v.j.i.i.3.5.>.P                                         ",
"                                        n X.s.B.A.A.J.Z.J.P.P.J.J.R.P.P.L.H.z.z.f.g.s.I                                         ",
"                                        l 1.l.J.J.J.J.L.L.R.W.R.R././.W.`.(.A.C.C.C.h.I                                         ",
"                                          1.Z.R.P.P.P.T.W.R./.W.R.(.(./.{.[.R.P.P.J.l.                                          ",
"                                          @.N.W.W.L.I.T.P.R.R.W.W.(.`.`.}.}.[.W.P.J.v.                                          ",
"                                            G./.W.L.L.P.L.A.P.W.`.'.{.}.|.|.}.(.P.J.b.^                                         ",
"                                            Y.W.R.J.R.P.Z.J.P./.[.|. X XoX|.`./.L.J.v.                                          ",
"                                              /.T.N.L.R.P.R./.'. X X.X|..X}.`.W.R.G.k.                                          ",
"                                              Y.c.B.L.E.(.'.{. XOXOXOX|.XX X`.W.P.G.k.                                          ",
"                                              T.U.E.(.'.[. XOX@XOXoXXX.X X|.{.W.P.G.                                            ",
"                                            N.'. X{. X{.}..X+X#XOX X X XOX+XOXW.R.R.                                            ",
"                                            T.XX@XXXoX.X}.}.+X#X@X.X{.|.OXoX|.W.(.).                                            ",
"                                            /.XX+X.X+XOXoX}. X+XOX{.'.{.}..X X{.|.!.                                            ",
"                                            (.XX+XOX#X#X@X}.[. X X[.    `.[.}.[._.                                              ",
"                                          q.T.{.XX@X#X#X+X X}.}.'./.      ~.{.{.Q.                                              ",
"                                          0.x./.}.OX@XXX}.{.[.E.T.^.        ~.].r.                                              ",
"                                          9.e.t./.|. X|.}.[.`.                                                                  ",
"                                          h 8.e.F./.`.[.'.`.D.                                                                  ",
"                                              U y.K.R.F.S.                                                                      ",
"                                                w.u.t.7.                                                                        ",
"                                                                                                                                ",
"                                                                                                                                "
};
