/* XPM */
static char *fire1__131725987671[] = {
/* columns rows colors chars-per-pixel */
"64 64 185 2 ",
"   c None",
".  c #853411",
"X  c #843913",
"o  c #913D13",
"O  c #8A4715",
"+  c #924214",
"@  c #994315",
"#  c #944816",
"$  c #9B4F1A",
"%  c #9C4A16",
"&  c #8F5119",
"*  c #94541A",
"=  c #9B5A1C",
"-  c #A74C16",
";  c #A34D18",
":  c #A4541B",
">  c #AC541A",
",  c #A35C1E",
"<  c #AB5A1D",
"1  c #B3561B",
"2  c #B45A1B",
"3  c #BA5B1C",
"4  c #A5631F",
"5  c #AC631F",
"6  c #B3601F",
"7  c #BD621E",
"8  c #976623",
"9  c #976D22",
"0  c #9D6822",
"q  c #947526",
"w  c #917925",
"e  c #A46721",
"r  c #AD6521",
"t  c #AD6821",
"y  c #B76722",
"u  c #BB6721",
"i  c #B26C23",
"p  c #BC6B22",
"a  c #A47D28",
"s  c #B67024",
"d  c #BB7326",
"f  c #BE7C27",
"g  c #C75E1E",
"h  c #C3631F",
"j  c #CF6720",
"k  c #C36B22",
"l  c #C86C22",
"z  c #D26922",
"x  c #C57424",
"c  c #CB7425",
"v  c #C27927",
"b  c #CC7926",
"n  c #C67928",
"m  c #CB7D29",
"M  c #D47425",
"N  c #D37B27",
"B  c #DE7927",
"V  c #D37D29",
"C  c #DC7A28",
"Z  c #E57525",
"A  c #E17827",
"S  c #E47928",
"D  c #ED7E29",
"F  c #F07D29",
"G  c #938B3E",
"H  c #9B923F",
"J  c #AE8D2D",
"K  c #B18B31",
"L  c #B19F3E",
"P  c #BA9632",
"I  c #CC812A",
"U  c #CF882D",
"Y  c #D4842B",
"T  c #DB852B",
"R  c #D48A2C",
"E  c #DC8C2D",
"W  c #DC952F",
"Q  c #D6912D",
"!  c #DD8F30",
"~  c #C89A36",
"^  c #DC9230",
"/  c #DF9A34",
"(  c #E0842B",
")  c #ED852C",
"_  c #E48E2E",
"`  c #EF8C2E",
"'  c #F3842C",
"]  c #EA932F",
"[  c #E38C30",
"{  c #E29430",
"}  c #E59B33",
"|  c #EA9C33",
" . c #F39B33",
".. c #F99E34",
"X. c #DFA736",
"o. c #D2BC3F",
"O. c #EBA136",
"+. c #E6A837",
"@. c #E2A63B",
"#. c #E4AA38",
"$. c #EDAE3A",
"%. c #E6A636",
"&. c #F3A234",
"*. c #F9A335",
"=. c #F6AA36",
"-. c #F6A538",
";. c #F5A838",
":. c #FBAD39",
">. c #ECB43C",
",. c #EFBA3D",
"<. c #E6BB3D",
"1. c #F3B33B",
"2. c #FCB33C",
"3. c #FDBA3D",
"4. c #F4BD3E",
"5. c #898442",
"6. c #A49244",
"7. c #B4A749",
"8. c #BFB245",
"9. c #B2B050",
"0. c #C7BF5E",
"q. c #CCB957",
"w. c #E7B741",
"e. c #FCBC41",
"r. c #F5BD41",
"t. c #D7C250",
"y. c #DDD057",
"u. c #DCD15B",
"i. c #E4CC40",
"p. c #F5C342",
"a. c #FDC441",
"s. c #FCCC44",
"d. c #F4D547",
"f. c #FED246",
"g. c #FFD846",
"h. c #FAD34A",
"j. c #FDDD4B",
"k. c #FBD75A",
"l. c #FFE54D",
"z. c #FDEA4F",
"x. c #F5E550",
"c. c #FEE751",
"v. c #F6E954",
"b. c #FEEA52",
"n. c #F7EC58",
"m. c #FDED5B",
"M. c #F6E55B",
"N. c #FEF255",
"B. c #FFFA56",
"V. c #FFF55A",
"C. c #FFFD5D",
"Z. c #DDDB63",
"A. c #E1DC63",
"S. c #F4E766",
"D. c #FCEB66",
"F. c #FDE66A",
"G. c #FCEA6B",
"H. c #FFFE64",
"J. c #FFFE6B",
"K. c #FEF362",
"L. c #EFEA78",
"P. c #E5E07A",
"I. c #FFEC73",
"U. c #F5E271",
"Y. c #FEF572",
"T. c #FFFE75",
"R. c #FFFE7C",
"E. c #FAF67E",
"W. c #FFFE83",
"Q. c #FFFF8B",
"!. c #FAF58C",
"~. c #FFFE94",
"^. c #FFFF9C",
"/. c #FFFFA3",
"(. c #FFFFAB",
"). c #FFFFB3",
"_. c #FFFFBD",
"`. c #FFFFC3",
"'. c #FFFFCE",
"]. c #FFFFD5",
"[. c #FFFFDE",
"{. c #FFFFE4",
"}. c #FFFFED",
"|. c #FFFFF4",
" X c #FFFFFC",
/* pixels */
"                                                                                                                                ",
"                                                                                                                                ",
"                                                                                                                                ",
"                                                                                                                                ",
"                                                                                                                                ",
"                                                                                                                                ",
"                                                                                                                                ",
"                                                                                                                                ",
"                                                                                                                                ",
"                                                                                                                                ",
"                                                                                                                                ",
"                                                                                                                                ",
"                                                                                                                                ",
"                                                                                                                                ",
"                                                                                                                                ",
"                                                                                                                                ",
"                                                                                                                                ",
"                                                                                                                                ",
"                                                                                                                                ",
"                                                                                                                                ",
"                                                                                                                                ",
"                                                                                                                                ",
"                                                        X . . X # ; : $                                                         ",
"                                                        o o o o $ > 3 < , =                                                     ",
"                                                      + @ @ @ - - 1 7 7 i i                                                     ",
"                                                  O # : : ; - > 1 3 h l x x 5                                                   ",
"                                                * $ : y y < 1 3 3 7 l c V V i                                                   ",
"                                              * = : : y k 3 3 h h x x N E ^ n ,                                                 ",
"                                              = , , 6 p k h g g h x b Y { | [ n *                                               ",
"                                              4 r r y u l z j j h x I ! ]  . ._ r                                               ",
"                                            = t i p p M B D Z Z C N E {  .*...] d                                               ",
"                                          & 4 i d v m S ) F F S M N ^ O.:.:.:. .I                                               ",
"                                          = i s d m V S ' ' ) S N m / $.3.e.:.*.T                                               ",
"                                          * i d n I Y ( ) ' A M b R %.1.e.e.a.2._                                               ",
"                                          = x I R ! E _ ` ) C M m Q #.,.e.a.s.e.*.                                              ",
"                                          < n ^ | } | } | ] ( T T W $.4.p.s.f.a.:.R                                             ",
"                                          5 R ;.;.;.$.$.#.@.} } } $.p.h.j.j.j.h.3.}                                             ",
"                                          s O.2.;.$.>.,.>.X.<.=.3.s.j.j.b.c.c.j.a.=.K                                           ",
"                                          U 3.3.$.$.r.s.a.p.h.a.a.g.l.b.m.b.b.j.a.*.f                                           ",
"                                          I :.s.s.s.j.j.c.N.V.l.g.j.b.m.B.V.b.j.a.&.s                                           ",
"                                          Y a.b.b.N.B.B.C.H.H.B.z.N.V.H.H.V.N.z.f.&.5                                           ",
"                                          } f.B.H.J.J.C.C.H.H.C.H.J.T.T.J.m.n.z.f.{ e                                           ",
"                                          1.j.B.T.R.T.J.H.H.H.C.J.J.R.T.D.M.n.v.f.W                                             ",
"                                        E l.C.T.Q.Q.Q.T.J.J.H.H.H.H.R.W.F.D.m.z.g.O.                                            ",
"                                        Q z.H.W.~./.(.~.R.T.J.H.H.J.R.W.F.G.D.B.b.+.0                                           ",
"                                        v f.J.W./._.[.'.(.Q.J.C.C.J.W.W.I.I.W.T.N.#.9                                           ",
"                                        e p.T.W.(.}. X|.}./.T.J.J.H.W.~.W.W.Q.R.H.<.a                                           ",
"                                        0 p.J.W.(.|. X}.}.).R.R.T.H.T.Q.Q.Q.Q.W.J.d.q                                           ",
"                                        8 w.V.W.). X X X X'.~.W.T.J.R.R.W.Q.Q.W.T.v.                                            ",
"                                          @.m.R.(. X X|.|._./.^.Q.T.T.Q.Q.~.~.~.R.v.                                            ",
"                                          @.m.Q.^.].}.].`.(._.(.Q.R.R.~.~.^././.R.n.                                            ",
"                                        K s.J.~.(._.{._.)./.^.~.W.R.W.~.^.^.(.Q.R.x.w                                           ",
"                                        P j.R./.)._.`./.~.~.Q.W.R.R.W.Q.~./._.^.T.i.                                            ",
"                                        J h.J.~.^.(.(.~.~.Q.~.W.T.Y.Q.~./.(.`.(.H.o.                                            ",
"                                        q >.b.W.~.^.(.^.^.Q.~.~.T.T.Q./.)././.^.J.8.                                            ",
"                                          ~ k.W.~.~.Q.(./.~.^./.^.W.^./.(./.T.Y.u.                                              ",
"                                              U.W.W.W./.)./.^.(._.~./.^.!.S.t.7.                                                ",
"                                                  G.W.~.W.~.W.Q.W.L.!.t.6.q.6.                                                  ",
"                                                    Y.E.y.A.E.R.Z.    5.H G                                                     ",
"                                                            9.        5.                                                        ",
"                                                                                                                                ",
"                                                                                                                                ",
"                                                                                                                                ",
"                                                                                                                                "
};
