/* XPM */
static char *fire1__031725987669[] = {
/* columns rows colors chars-per-pixel */
"64 64 206 2 ",
"   c None",
".  c #3F1705",
"X  c #431906",
"o  c #4B1E09",
"O  c #441B07",
"+  c #4D220A",
"@  c #54240B",
"#  c #5C250B",
"$  c #522C0D",
"%  c #5D2D0F",
"&  c #53310F",
"*  c #5E300F",
"=  c #53380F",
"-  c #5D2E10",
";  c #5B3410",
":  c #563710",
">  c #642D0E",
",  c #69360F",
"<  c #71330F",
"1  c #623610",
"2  c #6D3512",
"3  c #643C12",
"4  c #6C3A13",
"5  c #733512",
"6  c #7B3711",
"7  c #7C3C14",
"8  c #733C12",
"9  c #6A4313",
"0  c #634515",
"q  c #734314",
"w  c #7B4516",
"e  c #7B4C16",
"r  c #774F17",
"t  c #765719",
"y  c #786028",
"u  c #823610",
"i  c #883B12",
"p  c #834316",
"a  c #864917",
"s  c #924515",
"d  c #994C18",
"f  c #8B5319",
"g  c #835A19",
"h  c #895519",
"j  c #935C1C",
"k  c #9B5C1D",
"l  c #9B521A",
"z  c #A04F1A",
"x  c #A3541C",
"c  c #A35E1E",
"v  c #AB5C1E",
"b  c #83621E",
"n  c #9E611E",
"m  c #9B691F",
"M  c #A6641F",
"N  c #AE611F",
"B  c #A6681F",
"V  c #8B6421",
"C  c #9C6F21",
"Z  c #8B7C28",
"A  c #827624",
"S  c #9A7424",
"D  c #977A26",
"F  c #9C7F32",
"G  c #AC6621",
"H  c #A76C23",
"J  c #B16120",
"K  c #B56B23",
"L  c #AE7B27",
"P  c #A67C27",
"I  c #B37124",
"U  c #BC7525",
"Y  c #BB7D26",
"T  c #B27D25",
"R  c #C97C26",
"E  c #C57726",
"W  c #D07B27",
"Q  c #96862A",
"!  c #9F912E",
"~  c #91843C",
"^  c #8D8428",
"/  c #AA822B",
"(  c #BE8027",
")  c #BC8A2B",
"_  c #B4862A",
"`  c #A18139",
"'  c #A19030",
"]  c #B39C32",
"[  c #A4962E",
"{  c #AEA133",
"}  c #BDA736",
"|  c #C2832A",
" . c #CC8229",
".. c #C88D2C",
"X. c #D3852A",
"o. c #DE872B",
"O. c #DA892B",
"+. c #CD942E",
"@. c #DA982E",
"#. c #CC9C31",
"$. c #CC9630",
"%. c #D49A30",
"&. c #DC9931",
"*. c #E38C2D",
"=. c #EA8E2E",
"-. c #E6912F",
";. c #EC942F",
":. c #F1932E",
">. c #F8962F",
",. c #E59530",
"<. c #EA9B32",
"1. c #F49730",
"2. c #F39C32",
"3. c #FE9F32",
"4. c #D4A935",
"5. c #CDB83B",
"6. c #D8B43A",
"7. c #E6A434",
"8. c #ECA234",
"9. c #ECAB36",
"0. c #EDAD39",
"q. c #F4A234",
"w. c #FCA434",
"e. c #FCAB36",
"r. c #F5AD38",
"t. c #F8AB37",
"y. c #EDBD3B",
"u. c #E8B63B",
"i. c #F4B239",
"p. c #FBB339",
"a. c #F4B93A",
"s. c #FBBB3C",
"d. c #E3C53E",
"f. c #FCC33E",
"g. c #8F804D",
"h. c #9C8E55",
"j. c #9A8B44",
"k. c #A79947",
"l. c #B5A54C",
"z. c #BDB363",
"x. c #D9BC58",
"c. c #ECBF4E",
"v. c #DCCC46",
"b. c #D6C346",
"n. c #EEC340",
"m. c #F3C541",
"M. c #F4CD42",
"N. c #FBCB42",
"B. c #ECDC4A",
"V. c #E7DA4B",
"C. c #F3D445",
"Z. c #FDD544",
"A. c #FEDA45",
"S. c #FDDC4B",
"D. c #F5D84B",
"F. c #F0CC55",
"G. c #EBDD53",
"H. c #F2DF58",
"J. c #EFE24A",
"K. c #F2E34D",
"L. c #FEE64B",
"P. c #FDED4E",
"I. c #F9E84B",
"U. c #FFF24E",
"Y. c #EDE354",
"T. c #EFE45C",
"R. c #EFE957",
"E. c #F2EB54",
"W. c #FCEC51",
"Q. c #FEED5D",
"!. c #F9E858",
"~. c #FAF453",
"^. c #FFFA55",
"/. c #FCF359",
"(. c #FFFC5B",
"). c #F5F054",
"_. c #EEDB7D",
"`. c #F1D370",
"'. c #E8D167",
"]. c #EDE167",
"[. c #F4EC62",
"{. c #F8EA67",
"}. c #FCF464",
"|. c #FFFC63",
" X c #FDF56D",
".X c #FFFE6D",
"XX c #F7F26E",
"oX c #F5EE73",
"OX c #F8EE73",
"+X c #FEFE73",
"@X c #FEFE7C",
"#X c #FAF377",
"$X c #EAE273",
"%X c #FEFE84",
"&X c #FFFE8B",
"*X c #FFF38D",
"=X c #FEFE94",
"-X c #FEFF9C",
";X c #FCF792",
":X c #FFFFA3",
">X c #FFFFAC",
",X c #FFFFB2",
"<X c #FFFFBC",
"1X c #FFFFC4",
"2X c #FFFFCA",
"3X c #FFFFD2",
/* pixels */
"                                                                                                                                ",
"                                                                                                                                ",
"                                                                                                                                ",
"                                                                                                                                ",
"                                                                                                                                ",
"                                                                                                                                ",
"                                                                                                                                ",
"                                                                                                                                ",
"                                                                                                                                ",
"                                                                                                                                ",
"                                                                                                                                ",
"                                                                                                                                ",
"                                                                                                                                ",
"                                                                                                                                ",
"                                                                                                                                ",
"                                                                                                                                ",
"                                                                                                                                ",
"                                                                      . .                                                       ",
"                                                                O + + + o                                                       ",
"                                                    + o @       o + + @ +                                                       ",
"                                                    @ % 1 @   X @ @ o @ o                                                       ",
"                                                  @ 1 2 2 > o o @ # o o O                                                       ",
"                                                  $ 1 4 8 5 2 % > # o o                                                         ",
"                                                    - 4 2 7 p 7 < # o o                                                         ",
"                                                    % q 5 7 p p < # O +                                                         ",
"                                                & - 5 p 7 i 7 5 > #   $                                                         ",
"                                              = 3 w a d s i 6 5 > % $ ; :                                                       ",
"                                            & 9 e f k l z s i u 6 < ; 1 &                                                       ",
"                                            : r h j c c v z i u u 5 4 1 $                                                       ",
"                                            ; e f n G J J z s s u w h w 3 3 :                                                   ",
"                                          0 3 a k G G G v z x c l k K G k f e 3                                                 ",
"                                        0 9 , f H K K J v J K U U | +. .K G j w 3                                               ",
"                                        3 , 4 j E X.W E W *.o.,.q.r.r.<. .E I j 9                                               ",
"                                          8 h ( @.2.1.*.*.<.8.a.M.N.f.w.O.X. .E w                                               ",
"                                          e T %.2.q.1.=.*.2.a.n.M.C.f.p.>.*.X.R f                                               ",
"                                          e _ 7.q.2.1.-.=.2.m.M.D.B.C.f.t.-.X. .n                                               ",
"                                          r ) 7.q.2.1.,.<.i.M.B.J.J.C.f.p.;.O. .G                                               ",
"                                        : g ..7.q.2.2.<.0.d.Y.R.J.I.d.f.e.-.O.O.E a                                             ",
"                                        t C $.7.7.q.q.r.n.D.Y.T.R.J.f.p.3.=.*.*.W C                                             ",
"                                        g L %.7.7.0.p.m.I.Y.Y.].R.E.Z.p.w.>.:.;. .H g                                           ",
"                                      9 m T %.9.0.s.Z.W.R.T.G.G.R.R.K.f.w.3.w.;...B                                             ",
"                                      m ( @.8.i.s.N.W./.E.Y.V.G.R.E.).I.f.c.s.&.| L                                             ",
"                                      ( 9.a.s.f.N.A.U.~.E.Y.V.G.].}.|./.P.L.S.M.y.$.                                            ",
"                                      &.f.A.Z.Z.A.A.W.~.E.B.G.].].XX+X.X|.}.}.|.U.u.V                                           ",
"                                      &.A.L.U.U.P.P.L.~.W.B.].].].#X@X@X.X.X+X+X^.M._                                           ",
"                                      ( s.L.^.^.|.}.W.W.W.[.oXoXoX@X&X&X+X.X+X.X|.n./                                           ",
"                                      n ( Z.(.|.=X%X}.{.!. X%X;X-X=X:X>X=X%X%X.XD.#.P                                           ",
"                                        m a.^.@X:X%X%X@X X&X:X>X:X>X<X:X=X>X:X&XK.4.S                                           ",
"                                      t ..N.^.@X-X-X,X*X&X-X=X:X=X-X>X>X>X<X<X=X^.L.4.                                          ",
"                                      S d.^.}.@X&X:X:X-X=X=X=X-X+X&X-X<X<X,X,X-X(.P.d.Q                                         ",
"                                      P a.P.W. X@X&X:X,X,X>X=X=X&X&X:X1X3X1X2X>X.XP.5.!                                         ",
"                                      b $.B.K.Q..X%X&X:X<X<X:X-X=X&X-X<X3X3X1X&X+XB.] A                                         ",
"                                        C c.Z.L.+X@X%X-X>X>X:X-X&X%X=X,X2X3X,X+X|.5.Q                                           ",
"                                        t L 4.S.XX@X&X-X>X>X:X1X,X&X=X,X,X:X:X%X}.] D                                           ",
"                                          t / c.OX&X>X1X<X:X<X3X<X%X-X<X<X&X@X.XQ.'                                             ",
"                                            y x.@X=X:X2X-X&X:X:X%X+X@X:X:X%X|.R.b.Z                                             ",
"                                              j.;X=X@X&X=X+X&X:X@X+X+X%X%X[.b.} Z                                               ",
"                                                $XOXT.F.&X%X&X>X%X|.R.V.v.{ ! k.                                                ",
"                                                ~ k.F ` '.`._.;X+Xx.Q ^ !                                                       ",
"                                                        g.h.h.z.l.                                                              ",
"                                                                                                                                ",
"                                                                                                                                ",
"                                                                                                                                ",
"                                                                                                                                "
};
