/* XPM */
static char *fire1__041725987669[] = {
/* columns rows colors chars-per-pixel */
"64 64 213 2 ",
"   c None",
".  c #461A08",
"X  c #4B210A",
"o  c #45210B",
"O  c #56280D",
"+  c #4F300F",
"@  c #53300E",
"#  c #5C310E",
"$  c #5C3110",
"%  c #5C3B12",
"&  c #622D0E",
"*  c #6B2F0F",
"=  c #60340F",
"-  c #71350F",
";  c #6C3611",
":  c #653812",
">  c #743C12",
",  c #7C3C13",
"<  c #763210",
"1  c #684014",
"2  c #744315",
"3  c #7B4516",
"4  c #7D4917",
"5  c #79581D",
"6  c #767437",
"7  c #7A794C",
"8  c #7D7C50",
"9  c #873F12",
"0  c #844416",
"q  c #8D4415",
"w  c #8B4816",
"e  c #854C18",
"r  c #964C19",
"t  c #8D511A",
"y  c #885B1D",
"u  c #93521A",
"i  c #9C531B",
"p  c #9B5A1D",
"a  c #93581C",
"s  c #A44A17",
"d  c #A4551C",
"f  c #A35B1D",
"g  c #AC5D1E",
"h  c #B35B1D",
"j  c #B25319",
"k  c #9E601F",
"l  c #B2601F",
"z  c #806523",
"x  c #986923",
"c  c #907528",
"v  c #A26421",
"b  c #AC6620",
"n  c #AD6A23",
"m  c #A46C23",
"M  c #B46621",
"N  c #B56A23",
"B  c #B96F24",
"V  c #A57625",
"C  c #BC7425",
"Z  c #BB7726",
"A  c #C76A22",
"S  c #C27F29",
"D  c #C57626",
"F  c #D97827",
"G  c #E47A27",
"H  c #7F812F",
"J  c #8E8736",
"K  c #948935",
"L  c #97963B",
"P  c #89832E",
"I  c #A8862B",
"U  c #BA882D",
"Y  c #AA993A",
"T  c #B99332",
"R  c #A7A23D",
"E  c #C8872C",
"W  c #D28229",
"Q  c #D78F2E",
"!  c #DB8C2D",
"~  c #DB842B",
"^  c #C4912F",
"/  c #DA922E",
"(  c #D3912F",
")  c #D49632",
"_  c #D39A31",
"`  c #DA9B31",
"'  c #DE9631",
"]  c #C99735",
"[  c #E7842A",
"{  c #EA8B2C",
"}  c #E2942F",
"|  c #EC942F",
" . c #E3992F",
".. c #F1902E",
"X. c #E69C32",
"o. c #EB9C32",
"O. c #F09832",
"+. c #DCA434",
"@. c #D6AD3A",
"#. c #D7AA35",
"$. c #DCB53D",
"%. c #C5AA3E",
"&. c #E1A434",
"*. c #EBA435",
"=. c #E4AC37",
"-. c #EBAD37",
";. c #E7AB3C",
":. c #F3A335",
">. c #F2A638",
",. c #F7AC37",
"<. c #EAB339",
"1. c #F3B33A",
"2. c #F7BE3E",
"3. c #F9B93C",
"4. c #F4C13E",
"5. c #E9C13C",
"6. c #9E984F",
"7. c #989655",
"8. c #A39E40",
"9. c #B5A945",
"0. c #B6B558",
"q. c #BCBD7D",
"w. c #D29942",
"e. c #CCB858",
"r. c #C9BD4B",
"t. c #E1A947",
"y. c #C3B665",
"u. c #DDCD4F",
"i. c #C9C55A",
"p. c #D9CE58",
"a. c #EAC645",
"s. c #FAC341",
"d. c #F5CB44",
"f. c #FBCC44",
"g. c #ECD343",
"h. c #ECDC49",
"j. c #ECDA46",
"k. c #FED345",
"l. c #F5DD4B",
"z. c #F5DA47",
"x. c #EDC15B",
"c. c #FBCF55",
"v. c #EDD959",
"b. c #F5DE53",
"n. c #F4E44C",
"m. c #FCE34D",
"M. c #F4E94D",
"N. c #FEEA4D",
"B. c #EDE25B",
"V. c #F3EA53",
"C. c #FBEC52",
"Z. c #F1E45D",
"A. c #F2EA5B",
"S. c #FCED5A",
"D. c #F9E756",
"F. c #FCF354",
"G. c #FDFB57",
"H. c #FCF45C",
"J. c #FEFC5D",
"K. c #D3CC6E",
"L. c #D2CE78",
"P. c #E0D760",
"I. c #FEDF72",
"U. c #ECE461",
"Y. c #EDE36B",
"T. c #EFE863",
"R. c #F2EB63",
"E. c #F4E46A",
"W. c #FFE66E",
"Q. c #F3EC6B",
"!. c #F7E462",
"~. c #FFF463",
"^. c #FFFD64",
"/. c #FCF46C",
"(. c #FFFD6C",
"). c #F7F369",
"_. c #EEE974",
"`. c #EEE47B",
"'. c #EFE87D",
"]. c #EDE375",
"[. c #F1E676",
"{. c #FBEB76",
"}. c #F3EC7B",
"|. c #FBED7D",
" X c #F2EA76",
".X c #FFF570",
"XX c #FFFF72",
"oX c #FBF47C",
"OX c #FEFD7B",
"+X c #D4D487",
"@X c #CBCC8D",
"#X c #EFE680",
"$X c #F1E783",
"%X c #F2EA84",
"&X c #F9EB8A",
"*X c #FDF284",
"=X c #FFFE85",
"-X c #FEFE8B",
";X c #F6F286",
":X c #F4EF97",
">X c #F9F694",
",X c #FEFD94",
"<X c #FBF49C",
"1X c #FFFE9B",
"2X c #F4EFAA",
"3X c #FFFEA4",
"4X c #FEFDAB",
"5X c #F8F4A8",
"6X c #FEFDB2",
"7X c #FDFBBB",
"8X c #FDFDC1",
"9X c #FAF6C7",
"0X c #FBF9DF",
/* pixels */
"                                                                                                                                ",
"                                                                                                                                ",
"                                                                                                                                ",
"                                                                                                                                ",
"                                                                                                                                ",
"                                                                                                                                ",
"                                                                                                                                ",
"                                                                                                                                ",
"                                                                                                                                ",
"                                                                                                                                ",
"                                                                                                                                ",
"                                                                                                                                ",
"                                                                                                                                ",
"                                                                                                                                ",
"                                                                                                                                ",
"                                                                                                                                ",
"                                                                                                                                ",
"                                                                                                                                ",
"                                                                                                                                ",
"                                                                                                                                ",
"                                                        .                                                                       ",
"                                                    . . . o +                                                                   ",
"                                                o O $ & O X $ @ + % @                                                           ",
"                                                $ , 9 , * & ; : : 2 1 $                                                         ",
"                                              = 0 r r 0 , < , w e y > &                                                         ",
"                                              4 i d d d q q r x k p e ;                                                         ",
"                                            : r i d d d d f b n b N f 0 :                                                       ",
"                                            3 a i d d l g N B C D D B u 0 ;                                                     ",
"                                            3 a g d j A A D D ~ { } S i 0 ;                                                     ",
"                                            4 p l h A G G G [ o.X./ Z p 0 &                                                     ",
"                                          : e f l A F [ ....o.-.+.) S k , &                                                     ",
"                                        # , u b D F ~  .-.<.-.<.+.' ^ m 3                                                       ",
"                                        - w f C W }  .*.1.-.-.=.+.` _ V e >                                                     ",
"                                        , w b U ( *.-.,.:.o.&.+.+.+.` U k t 3                                                   ",
"                                      - 0 r B C ! -.1.1.:. . .` +.+.+.&.) D n a                                                 ",
"                                        w j D W O.,.,.,.:. .! ` _ #.$.a.t.:.>.*.Q n                                             ",
"                                        q j F O.3.4.3.,.X./ W  .=.g.l.D.N.d.f.s.>.S y                                           ",
"                                          s G ,.4.m.f.1.*./  .<.g.V.H.H.C.N.m.m.1.E m                                           ",
"                                          s { 3.z.M.m.d.<.<.$.g.j.M.H.J.F.C.N.N.4.E x y                                         ",
"                                          j ..4.n.M.V.M.M.5.j.j.h.V.H.F.F.F.G.N.k.) k                                           ",
"                                          F :.d.V.A.A.A.V.V.M.M.M.C.S.C.~.^.^.F.k.&.x                                           ",
"                                        i | 2.D.A.A.A.R.).(.H.F.G.S.S.!./.OXXX^.F.4._ y                                         ",
"                                        N o.b.A.U.U.R.Q.oX-XOX^.^.~.~..X=X-X1XOXJ.k.1.U                                         ",
"                                        B *.Z.}.Q._._.'.>X4X=X(.^.(.^.XX=X=X1X1X^.m.3.U                                         ",
"                                        n ' Q.&X_.].`.%X5X7X=X(.(.XX(.XXOXOX=X,XOXJ.s.V                                         ",
"                                        u t.oX;X_.].'.:X5X8X-XXXXXOXOXOXOXOXOX=XOXJ.@.x                                         ",
"                                          x.oXQ.Y.Y.#X2X9X8X=X(./.OXOXOXoXoXOXOXXXJ.^ y                                         ",
"                                          w.c.A.B.].&X9X0X8X-XW.I.W.{.[.}.-X=X=X^.l.x                                           ",
"                                          x t.b.v.`.&X5X7X7X3X*X*X|.{.{.}.=X=XOXm.]                                             ",
"                                          5 ] b.Y.'.$X<X4X4X6X<X<X*XoXoXoXOXOX^.@.c                                             ",
"                                          5 T a.P.`.$X5X8X4X4X3X<X*XoXoX*X=XXXH.T 5                                             ",
"                                            I @.Z.].'.5X7X4X-X,X>X*X{.oXoX,XOXB.c                                               ",
"                                            I $.E.[.}.>X1X3X,X1X3X{.oX<X>X-XQ.r.J                                               ",
"                                            %.E.;XoX>X1X1X1X4X6X1XoXoX9X6X1XP.9.P                                               ",
"                                            p.,XOX/.3X=XXXOX(.OX^.J.^.*X&XK.i.8.                                                ",
"                                            i.1X-X!.v.a.H.^.XXXXJ.~.!.y.L.L.0.J                                                 ",
"                                              e.e.Y R K Y u.(.=X-X=X9.7.+X+X7.                                                  ",
"                                                          L U._.;X'.6.8 q.@X8                                                   ",
"                                                            i.R K   6   8                                                       ",
"                                                            L H                                                                 ",
"                                                                                                                                ",
"                                                                                                                                ",
"                                                                                                                                ",
"                                                                                                                                "
};
