/* XPM */
static char *fire1__051725987670[] = {
/* columns rows colors chars-per-pixel */
"64 64 226 2 ",
"   c None",
".  c #551F0A",
"X  c #4D230A",
"o  c #4B2B0C",
"O  c #53240A",
"+  c #5B260B",
"@  c #532C0D",
"#  c #5D2D0D",
"$  c #5A310F",
"%  c #682C0D",
"&  c #742E0E",
"*  c #64310F",
"=  c #7E300E",
"-  c #6B3711",
";  c #633912",
":  c #6E3A12",
">  c #623410",
",  c #723511",
"<  c #743B12",
"1  c #7D3B12",
"2  c #5C4315",
"3  c #7C4215",
"4  c #774717",
"5  c #77581D",
"6  c #6C4615",
"7  c #6F5F21",
"8  c #863411",
"9  c #833C13",
"0  c #8C3C13",
"q  c #8C3510",
"w  c #953B12",
"e  c #824416",
"r  c #8C4C19",
"t  c #874817",
"y  c #974716",
"u  c #8B511A",
"i  c #8E581B",
"p  c #93521B",
"a  c #9A591D",
"s  c #98541B",
"d  c #A5551B",
"f  c #A25A1D",
"g  c #AC5B1D",
"h  c #AC541A",
"j  c #B35E1E",
"k  c #A94D18",
"l  c #A6601F",
"z  c #A9601E",
"x  c #B3631E",
"c  c #BA631F",
"v  c #936821",
"b  c #8F712B",
"n  c #907328",
"m  c #AC6320",
"M  c #AB6922",
"N  c #B46922",
"B  c #BD6B22",
"V  c #B97124",
"C  c #AB7526",
"Z  c #C46C22",
"A  c #C46720",
"S  c #CB7325",
"D  c #C77D29",
"F  c #C77626",
"G  c #D57927",
"H  c #E17D27",
"J  c #877B45",
"K  c #928334",
"L  c #AB812A",
"P  c #A68A38",
"I  c #AB963C",
"U  c #BE9132",
"Y  c #B38A2B",
"T  c #BEAA3E",
"R  c #CD8229",
"E  c #C18E2E",
"W  c #DD832A",
"Q  c #D48D2D",
"!  c #DD8C2E",
"~  c #DD922F",
"^  c #CB8F30",
"/  c #CD9C36",
"(  c #CD9A37",
")  c #D59C31",
"_  c #DB9F33",
"`  c #D79B34",
"'  c #C2942F",
"]  c #E4832B",
"[  c #E9892B",
"{  c #F48A2B",
"}  c #EC922F",
"|  c #E5942E",
" . c #F9942E",
".. c #E59830",
"X. c #F49C33",
"o. c #FC9B32",
"O. c #F09530",
"+. c #CEA13C",
"@. c #CAA43A",
"#. c #D4A334",
"$. c #DBA333",
"%. c #D4A83B",
"&. c #DCB83B",
"*. c #EEAE37",
"=. c #E5A835",
"-. c #F5A636",
";. c #FFA635",
":. c #F5AD38",
">. c #FCAC37",
",. c #E5B33A",
"<. c #EBB53B",
"1. c #EBBC3C",
"2. c #E6B83A",
"3. c #FFB339",
"4. c #FDBD3D",
"5. c #F5B73B",
"6. c #EDC23E",
"7. c #E0C23F",
"8. c #F6C23F",
"9. c #FEC33F",
"0. c #93884A",
"q. c #928551",
"w. c #9E995C",
"e. c #948A4C",
"r. c #A59952",
"t. c #AFA140",
"y. c #A8A25A",
"u. c #B7AD5D",
"i. c #BBB356",
"p. c #8A8360",
"a. c #A19970",
"s. c #AEA765",
"d. c #B4A766",
"f. c #D4AC43",
"g. c #D2A947",
"h. c #C3B547",
"j. c #DAB54C",
"k. c #DDBC4C",
"l. c #D6B445",
"z. c #DCBC54",
"x. c #DEBC5C",
"c. c #C3B552",
"v. c #E4BB43",
"b. c #C5BC68",
"n. c #DFBF6D",
"m. c #DDC554",
"M. c #DFCE5A",
"N. c #C9C24B",
"B. c #ECC44C",
"V. c #E7CB47",
"C. c #FBC540",
"Z. c #F4CB41",
"A. c #FECC42",
"S. c #F5C746",
"D. c #ECD24A",
"F. c #FED344",
"G. c #FEDB46",
"H. c #FED64B",
"J. c #FFDC4B",
"K. c #F4D445",
"L. c #E2C45C",
"P. c #E4CB57",
"I. c #EBD35E",
"U. c #EAD658",
"Y. c #F2D552",
"T. c #F5DC59",
"R. c #FFE34B",
"E. c #F0E14C",
"W. c #FFEA53",
"Q. c #F4E55D",
"!. c #FEEA5C",
"~. c #F6E85A",
"^. c #F4EA53",
"/. c #D1C568",
"(. c #DFDC6B",
"). c #CCC467",
"_. c #E7CE62",
"`. c #E5C569",
"'. c #ECD662",
"]. c #EBD967",
"[. c #E3C473",
"{. c #E8CB73",
"}. c #E9D778",
"|. c #EFE167",
" X c #F2E26B",
".X c #F3EA67",
"XX c #FCF463",
"oX c #FBF46B",
"OX c #F9F465",
"+X c #F3E675",
"@X c #FAF272",
"#X c #FEFF7E",
"$X c #FBF778",
"%X c #D6CC84",
"&X c #E8CF8C",
"*X c #F5EB81",
"=X c #F2E688",
"-X c #FEFC84",
";X c #FCF38A",
":X c #FDFD8B",
">X c #FBF485",
",X c #F2E391",
"<X c #F8EB94",
"1X c #FEFE93",
"2X c #FFFF9C",
"3X c #F8F491",
"4X c #EBE389",
"5X c #FEFDA5",
"6X c #FEFFAC",
"7X c #FAF4A7",
"8X c #F1E3BE",
"9X c #FEFEB4",
"0X c #FEFFBC",
"qX c #F9F7B0",
"wX c #F6EEA4",
"eX c #FEFEC2",
"rX c #FFFFCD",
"tX c #F8F0CC",
"yX c #FEFED1",
"uX c #FFFFDC",
"iX c #F9ECCA",
"pX c #FFFFE5",
"aX c #FFFFEC",
"sX c #F9F3EE",
"dX c #FEFDF4",
"fX c #FFFEFB",
/* pixels */
"                                                                                                                                ",
"                                                                                                                                ",
"                                                                                                                                ",
"                                                                                                                                ",
"                                                                                                                                ",
"                                                                                                                                ",
"                                                                                                                                ",
"                                                                                                                                ",
"                                                                                                                                ",
"                                                                                                                                ",
"                                                                                                                                ",
"                                                                                                                                ",
"                                                                                                                                ",
"                                                                                                                                ",
"                                                                                                                                ",
"                                                                                                                                ",
"                                                                                                                                ",
"                                                            o o                                                                 ",
"                                                        X @ @ @ @ $ @                                                           ",
"                                                      X X @ # # > : ;                                                           ",
"                                                      # O + * , 1 3 <                                                           ",
"                                                    . & & % , t r r < @                                                         ",
"                                                  . % = q w y s s u 4 ;                                                         ",
"                                                + & & q q w k g a a a 4                                                         ",
"                                              O , 0 0 8 w w h h g f a t 2                                                       ",
"                                              * 9 t 9 1 t y k h g z l u 4 $                                                     ",
"                                              X , 9 1 1 r y k h z x x z u :                                                     ",
"                                              X * 3 9 t s d g j c c R R B t -                                                   ",
"                                            O * < r a f d d c A Z F W ] ] B f f p                                               ",
"                                            O : r m N x j N A G ] [ | O.{ G S F N 3                                             ",
"                                            * 1 f B B B A S G { o.;.3.3.o.W W G B u                                             ",
"                                            , r m V D ] H [ H { ;.3.C.v.o.] | W Z f                                             ",
"                                            < a V R Q | | O. . .;.9.G.9.3.o.X.} F g 1                                           ",
"                                            u V Q $.$.=.....} -.3.9.G.R.F.5.:.} F f 3                                           ",
"                                          < x Q ) ) $.$.*.*.6.5.9.F.F.R.G.6.8.>.W l e                                           ",
"                                          e D ~ ) ) $.$.6.6.9.9.G.G.8.Z.7.6.8.8.X.F u 3                                         ",
"                                          u Q _ $.#.#.#.&.E.W.W.R.G.A.1.<.<.8.8.:.! m u                                         ",
"                                          i ` &.#.#.@.%.l.U.OX!.J.G.A.9.9.8.9.9.-.~ F a                                         ",
"                                          v ,.V.@.( %.l.z.].OX!.J.J.F.F.F.A.9.4.:.X.R i                                         ",
"                                          C 2.&.+.@.@.g.z.|.oXXXW.R.G.F.F.F.A.4.<.-.R                                           ",
"                                        5 ' 6.&.( / / j.P.|.@XXXW.R.J.F.F.K.8.1.<.-.R                                           ",
"                                        Y $.<.#.^ / +.k.I.].T.T.H.H.H.S.7.7.6.6.:.~ M                                           ",
"                                        +.*.,.#.^ +.%.P.I.'.'.D.B.v.B.B.m.V.V.8.$.C 6                                           ",
"                                        L *.,.%.f.f.j.L.]. X XT.L.x.x.`._.U.K.<.E v 2                                           ",
"                                        n $.2.%.j.j.z._. X@X@X+X{.`.`.[.}.+X!.Y.U 5                                             ",
"                                        n @.D.v.k.k.L.}.wX9X$X;X'.[.[.{.,XwXoXT.( 5                                             ",
"                                          l..XI.x.`.`.iXsXfXyX;X=X&X&X{.,X7XoXY.@.b                                             ",
"                                          m.*X,X}.}.4XtXdXfXpX9X7XiX<X;X;X1XT.Y.l.P                                             ",
"                                          m.-X5X7X3X5XeXaXfXpXeX6X9X2X2X:X@XU.D.B.I                                             ",
"                                          P.-X1X1X1X6X6XrXdXfXpX0X5X6X2X:X@X~..XT.0.                                            ",
"                                          U.:X-X#X:X6X6XdXuXpXfXaX9XrX9X2X-X.X^.@.7                                             ",
"                                          M.$X-X1X-X1X9XpX6X0XdXaXpXaXuXeX5X.X^.I                                               ",
"                                          h.oX2X9X6X2X9X6X2X9XyX9XuXpXpXrX9X-X~.h.                                              ",
"                                            I }.9X9X5X5X2X2X2X0X9XyXaXuX9X9X:X.XN.                                              ",
"                                              J %X,X1X1X-X6X0XeX0XpXyX9X$X+X-X(.i.                                              ",
"                                                J q.i./._.;X6X0XpX9X9X1XM.T i.u.e.                                              ",
"                                                    y.).).+X3X9XqX;X>X5X+Xy.0.p.                                                ",
"                                                  d.i.3X=Xb.u.s.w.u.K }.%Xd.q.                                                  ",
"                                                  w.s.3X6X}.q.        J     J a.                                                ",
"                                                      s.b.e.                                                                    ",
"                                                                                                                                ",
"                                                                                                                                ",
"                                                                                                                                ",
"                                                                                                                                "
};
