/* XPM */
static char *fire1__061725987670[] = {
/* columns rows colors chars-per-pixel */
"64 64 210 2 ",
"   c None",
".  c #441205",
"X  c #4B1606",
"o  c #4C1B08",
"O  c #551D09",
"+  c #5A1F0A",
"@  c #541708",
"#  c #601D0A",
"$  c #5C240B",
"%  c #58260C",
"&  c #5D3611",
"*  c #64240C",
"=  c #6C250C",
"-  c #642A0E",
";  c #6C2A0D",
":  c #732A0D",
">  c #7C2E0F",
",  c #73250C",
"<  c #68330F",
"1  c #7C310F",
"2  c #70330F",
"3  c #643312",
"4  c #753310",
"5  c #7A3410",
"6  c #743B13",
"7  c #7A3C13",
"8  c #7B4C18",
"9  c #7B6221",
"0  c #802E0E",
"q  c #83300F",
"w  c #843311",
"e  c #853D13",
"r  c #8C3B13",
"t  c #8C3612",
"y  c #933C13",
"u  c #9C3B13",
"i  c #973511",
"p  c #A33C13",
"a  c #8D4114",
"s  c #874817",
"d  c #934314",
"f  c #9B4A16",
"g  c #934C1A",
"h  c #9E4F1A",
"j  c #934C17",
"k  c #84521A",
"l  c #89541B",
"z  c #8E5B1D",
"x  c #A34C17",
"c  c #AD4F19",
"v  c #A64817",
"b  c #B54918",
"n  c #A4541A",
"m  c #AA521A",
"M  c #A4591B",
"N  c #B4581C",
"B  c #8B621F",
"V  c #99601F",
"C  c #A0631F",
"Z  c #B7631E",
"A  c #8D6A24",
"S  c #856622",
"D  c #956822",
"F  c #8F7D29",
"G  c #997426",
"H  c #897A3C",
"J  c #A26121",
"K  c #B46B22",
"L  c #BB6723",
"P  c #A97626",
"I  c #B87A29",
"U  c #C24E1A",
"Y  c #C45C1E",
"T  c #C8561D",
"R  c #D0571D",
"E  c #C3661F",
"W  c #D7601F",
"Q  c #E1641F",
"!  c #C46220",
"~  c #C26B22",
"^  c #CA6B22",
"/  c #D76B22",
"(  c #D76821",
")  c #CE7123",
"_  c #C67B28",
"`  c #DC7625",
"'  c #D47B28",
"]  c #E36D23",
"[  c #E57726",
"{  c #E47925",
"}  c #EB7E27",
"|  c #EB7F28",
" . c #E97124",
".. c #F37F27",
"X. c #8E902F",
"o. c #988F37",
"O. c #B9892B",
"+. c #AC8E3A",
"@. c #A9A63B",
"#. c #B0A93D",
"$. c #D9892C",
"%. c #C99431",
"&. c #D69531",
"*. c #E28329",
"=. c #EC8A2C",
"-. c #FB8A2B",
";. c #F3872A",
":. c #EC902D",
">. c #E1942F",
",. c #FC932D",
"<. c #F5912D",
"1. c #E39331",
"2. c #EB9430",
"3. c #E29C33",
"4. c #E99831",
"5. c #FC9D31",
"6. c #E5AD38",
"7. c #E8A636",
"8. c #FDA433",
"9. c #FEA936",
"0. c #EBB33B",
"q. c #E7B83C",
"w. c #FDB539",
"e. c #FEBC3C",
"r. c #FDC33E",
"t. c #F5C23D",
"y. c #A1985E",
"u. c #B19847",
"i. c #BEBB42",
"p. c #B5A751",
"a. c #ADA062",
"s. c #BBA968",
"d. c #D3AE43",
"f. c #CEB045",
"g. c #D9B841",
"h. c #C8AA43",
"j. c #EABA40",
"k. c #C9B666",
"l. c #CAC348",
"z. c #D9C848",
"x. c #DDD44E",
"c. c #D7C359",
"v. c #C9C154",
"b. c #EACC45",
"n. c #E6C648",
"m. c #F2C443",
"M. c #F9C842",
"N. c #ECD64B",
"B. c #FED343",
"V. c #FCDE47",
"C. c #F2D648",
"Z. c #F8DA49",
"A. c #E8D65B",
"S. c #F5E14E",
"D. c #FDE44B",
"F. c #FEEB4D",
"G. c #FEF34F",
"H. c #F5E452",
"J. c #F9E651",
"K. c #F6EC52",
"L. c #FBED52",
"P. c #F4EA5B",
"I. c #F9EE5A",
"U. c #FDF553",
"Y. c #FFFC56",
"T. c #FAF35B",
"R. c #FEFD5D",
"E. c #F7F25A",
"W. c #D7C963",
"Q. c #D6C37D",
"!. c #E1D17D",
"~. c #E3CC6C",
"^. c #F5ED65",
"/. c #FBF462",
"(. c #FEFC64",
"). c #FAF66C",
"_. c #FDFE6B",
"`. c #F7F467",
"'. c #EFEE74",
"]. c #F4EB76",
"[. c #FEFD74",
"{. c #FEFE7B",
"}. c #F9F475",
"|. c #EFE684",
" X c #F1E78C",
".X c #FEFE82",
"XX c #F7F18F",
"oX c #FFFF8C",
"OX c #F4EC9B",
"+X c #F5EB94",
"@X c #FFFF95",
"#X c #FFFE9B",
"$X c #F8F298",
"%X c #F3EBA3",
"&X c #F3EBAA",
"*X c #FFFFA3",
"=X c #FFFEAC",
"-X c #F8F2A5",
";X c #FFFFB2",
":X c #FFFFBB",
">X c #FAF4B7",
",X c #FEFEC4",
"<X c #FFFFCD",
"1X c #F9F6C4",
"2X c #FFFFD3",
"3X c #FFFFDC",
"4X c #FFFFE2",
"5X c #FFFFEC",
"6X c #FFFFF4",
"7X c #FFFFF8",
/* pixels */
"                                                                                                                                ",
"                                                                                                                                ",
"                                                                                                                                ",
"                                                                                                                                ",
"                                                                                                                                ",
"                                                                                                                                ",
"                                                                                                                                ",
"                                                                                                                                ",
"                                                                                                                                ",
"                                                                                                                                ",
"                                                                                                                                ",
"                                                                                                                                ",
"                                                                                                                                ",
"                                                                                                                                ",
"                                                                                                                                ",
"                                                                                                                                ",
"                                                                                                                                ",
"                                                                  .                                                             ",
"                                                                  . o %                                                         ",
"                                                              . . X O -                                                         ",
"                                                              . X @ * - O                                                       ",
"                                                                X + - * + O                                                     ",
"                                                          o   X + ; : 4 ; * $                                                   ",
"                                                  % % % - $ o $ : 0 w t > = +                                                   ",
"                                                2 y a r 7 4 $ : t y i i u = *                                                   ",
"                                              8 d x f d a 4 7 e p u u p v r =                                                   ",
"                                            < a x m x f j s j m b b b v v r , #                                                 ",
"                                              a x x j f h M Z E T U U b v t , =                                                 ",
"                                            6 f m c c N Z E E W W R R Y c y > > *                                               ",
"                                            j E W [ ;.,.,.*.*.[ ] ] ( Y N c y 0 ;                                               ",
"                                            M ` ;.-.5.9.w.9.8.,... .] ( Y L n 5 : -                                             ",
"                                            Z ` ;.-.,.8.w.r.w.9.-.[ { / ! ~ L y 1 ;                                             ",
"                                          8 K E E { -.,.8.w.r.e.5.;.| ` ^ ^ L h 5 -                                             ",
"                                          l K E ) ;.-.,.9.w.r.r.8.<.2.;.` ) ~ h 5 -                                             ",
"                                        8 C _ ' *.5.8.9.w.r.e.w.<.=.2.2.$.' L g 4 -                                             ",
"                                        8 K $.:.8.w.M.r.B.B.t.w.2.:.2.1.1.' L g 7 %                                             ",
"                                          C $.8.r.B.F.D.F.V.V.r.7.4.3.&.3.1._ J s &                                             ",
"                                          l $.9.B.F.G.G.U.G.F.D.0.6.0.6.d.2.$.I V 8                                             ",
"                                          z >.e.B.V.D.F.F.G.U.U.Z.n.j.j.j.j.j.&.I 8                                             ",
"                                          I w.F.F.D.B.F.U.(.(./.J.C.C.b.b.b.j.3.I l                                             ",
"                                        B 7.r.U.Y.U.U.R.[..X.X}.T.J.S.S.S.S.C.m.%.l                                             ",
"                                        O.t.F.R._._._.[.oX*X*X#X[.U.H.S.F.L.D.S.j.V &                                           ",
"                                      B &.D.Y.(.[.{.{.@X=X,X,X;XoX/.H.S.S.G.L.U.Z.P                                             ",
"                                      O.0.Y.Y.(.[.oX*X=X,X<X1X&XXX}.I.H.K.K.F.U.J.%.                                            ",
"                                      G 0.F.Y.Y._.@X=X=X;X>X&XOX|.].I.K.K.K.K.E.Y.m.S                                           ",
"                                      A %.q.U.(..X*X*X;X=X$X&X%X X]./.T.T.K.P.`.(.m.G                                           ",
"                                      G P O.L.[.#X=X*X*X$XXX%X%XXX{.).T.T.P.^.).(.n.S                                           ",
"                                          A A.{.@X=X=X*X$X XOX$X@XoX[./.T.^.).[._.n.S                                           ",
"                                          A g.[.;X;X=X<X>X&X&X$X#X.X[.[._.).}.{._.g.9                                           ",
"                                          S d.{.=X;X2X6X,X-XOX@X#X#XoX.X{.}.{..X[.N.S                                           ",
"                                            f.}.#X*X<X5X<X;X*X@X#X#X@X@X@XoXoX{._.P.X.                                          ",
"                                            h..X#X*X<X5X4X,X;X*X*X=X;X;X=X#X@XoX[.N.                                            ",
"                                            n.{.@X;X2X7X4X<X:X*X@X,X:X=X=X:X;X@X[.z.                                            ",
"                                            f.@X*X3X<X3X2X,X=XoX@X5X3X,X:X<X2X*X[.l.                                            ",
"                                            +.=X;X5X<X;X:X:X*X.X*X7X5X3X2X3X:X@X[.#.                                            ",
"                                              $X2X6X2X<X;X=X#X@X;X=X*X3X2X:X*X#X'.                                              ",
"                                              c.$X2X=XoXoXoX{.oX#X.X@X2X2X*X;X;Xv.                                              ",
"                                            u.u.k.!.k.~.[.[.).S.x.(..X.XoX].W.W.H                                               ",
"                                            a.s.k.Q.s.  W.A.z.z.#.l.x.T.P.c.H                                                   ",
"                                              y.s.s.        p.o.  X.@.i.@.o.                                                    ",
"                                                                                                                                ",
"                                                                                                                                ",
"                                                                                                                                ",
"                                                                                                                                "
};
