/* XPM */
static char *fire1__101725987670[] = {
/* columns rows colors chars-per-pixel */
"64 64 192 2 ",
"   c None",
".  c #682F10",
"X  c #7A2E11",
"o  c #6D3311",
"O  c #7C3512",
"+  c #7C3A13",
"@  c #7A4115",
"#  c #73571B",
"$  c #873D15",
"%  c #8D3F17",
"&  c #913A14",
"*  c #844315",
"=  c #8A4B17",
"-  c #8B4D1A",
";  c #8A4516",
":  c #944416",
">  c #9B4517",
",  c #9B4619",
"<  c #914818",
"1  c #83521B",
"2  c #8A5F1C",
"3  c #9A551A",
"4  c #9C5B1D",
"5  c #93501A",
"6  c #A04718",
"7  c #A44C1A",
"8  c #AB4D1A",
"9  c #A1531B",
"0  c #AD541D",
"q  c #A35D1D",
"w  c #A95E1D",
"e  c #B6531D",
"r  c #BD541D",
"t  c #BA5C1F",
"y  c #B35D1E",
"u  c #8E611F",
"i  c #AD631F",
"p  c #A3601E",
"a  c #B46A1F",
"s  c #8B6320",
"d  c #9E6C23",
"f  c #AF6420",
"g  c #BC6B22",
"h  c #B86821",
"j  c #AC7324",
"k  c #A57A27",
"l  c #AD7728",
"z  c #BC7123",
"x  c #BD7D27",
"c  c #B57C28",
"v  c #CE551D",
"b  c #C3581E",
"n  c #DC5A1E",
"m  c #E25F1F",
"M  c #CC5D20",
"N  c #CC6622",
"B  c #CB6B24",
"V  c #C66922",
"C  c #D86623",
"Z  c #CD7425",
"A  c #CB7C27",
"S  c #D97426",
"D  c #DE7628",
"F  c #D77C29",
"G  c #DF7B2A",
"H  c #D17E25",
"J  c #E26A24",
"K  c #F26B24",
"L  c #EB7B29",
"P  c #E67827",
"I  c #F47B29",
"U  c #AD802C",
"Y  c #B2832A",
"T  c #BA8B2C",
"R  c #BC943B",
"E  c #B5963D",
"W  c #BAAE3A",
"Q  c #C48F2E",
"!  c #D2862B",
"~  c #DA8329",
"^  c #C7932F",
"/  c #DB902F",
"(  c #CC9B34",
")  c #C89632",
"_  c #D39D33",
"`  c #D49530",
"'  c #EB852C",
"]  c #E3892C",
"[  c #ED8D2E",
"{  c #F2842A",
"}  c #F48B2D",
"|  c #F98B2E",
" . c #E7932F",
".. c #F3922F",
"X. c #F68E30",
"o. c #ED9532",
"O. c #ED9A34",
"+. c #E49833",
"@. c #F49431",
"#. c #FB9531",
"$. c #F39A33",
"%. c #FA9A32",
"&. c #DAA638",
"*. c #C2B03E",
"=. c #E3A636",
"-. c #ECAB37",
";. c #ECAC39",
":. c #E7A638",
">. c #F3A436",
",. c #F2AC3A",
"<. c #FBAD39",
"1. c #E2B33B",
"2. c #E9B63C",
"3. c #E6B93E",
"4. c #EDBA3E",
"5. c #F4B43B",
"6. c #FBB63B",
"7. c #F2BB3D",
"8. c #FEBA3D",
"9. c #F4C13E",
"0. c #FCC23F",
"q. c #C7BF51",
"w. c #F6A942",
"e. c #FCBD42",
"r. c #F7B245",
"t. c #DBCC45",
"y. c #F4C441",
"u. c #FCC541",
"i. c #F4CC43",
"p. c #FDCD43",
"a. c #FACC4A",
"s. c #F7CD4B",
"d. c #F3D445",
"f. c #FED445",
"g. c #FFD947",
"h. c #FEDD49",
"j. c #F4DC4A",
"k. c #F6CD51",
"l. c #FAD853",
"z. c #EDE24E",
"x. c #FEE24C",
"c. c #FFE84D",
"v. c #F6E84D",
"b. c #FDF34F",
"n. c #F1E253",
"m. c #FBE552",
"M. c #F7EF55",
"N. c #FFED51",
"B. c #F2E45C",
"V. c #F7EF5B",
"C. c #FBE55D",
"Z. c #FFF353",
"A. c #FEFB56",
"S. c #FBF35A",
"D. c #FFFD5C",
"F. c #EFE363",
"G. c #F1E264",
"H. c #FFEF64",
"J. c #F3E66A",
"K. c #FBEF6C",
"L. c #F7E769",
"P. c #FDF363",
"I. c #FEFD63",
"U. c #FDF36A",
"Y. c #FFFE6C",
"T. c #FDED73",
"R. c #F7EF7C",
"E. c #F1EA70",
"W. c #FCF475",
"Q. c #FFFD73",
"!. c #FFFE7B",
"~. c #FFE88F",
"^. c #FFFE83",
"/. c #FDF38B",
"(. c #FFFE8C",
"). c #FFF387",
"_. c #FFFF94",
"`. c #FFFF9C",
"'. c #F9EBA5",
"]. c #FFFFA4",
"[. c #FFFFAC",
"{. c #FDF3A2",
"}. c #FFFFB2",
"|. c #FFFFBC",
" X c #FFFFC4",
".X c #FFFFCB",
"XX c #FFFFD5",
"oX c #FFFFDA",
"OX c #FFFFE2",
"+X c #FFFFEB",
"@X c #FFFFF3",
"#X c #FFFFFD",
/* pixels */
"                                                                                                                                ",
"                                                                                                                                ",
"                                                                                                                                ",
"                                                                                                                                ",
"                                                                                                                                ",
"                                                                                                                                ",
"                                                                                                                                ",
"                                                                                                                                ",
"                                                                                                                                ",
"                                                                                                                                ",
"                                                                                                                                ",
"                                                                                                                                ",
"                                                                                                                                ",
"                                                                                                                                ",
"                                                                                                                                ",
"                                                                                                                                ",
"                                                                                                                                ",
"                                                                                                                                ",
"                                                                                                                                ",
"                                                                                                                                ",
"                                                                                                                                ",
"                                                                                                                                ",
"                                                          * O O o           @                                                   ",
"                                                  $ $ % : : % % $ @ @ -   = - *                                                 ",
"                                                X & , , , , > 7 7 7 3 q q 4 4 -                                                 ",
"                                                $ , , 0 0 7 8 e r y t h h g i 3                                                 ",
"                                              o < 7 8 r V B b b b N N V Z Z a i                                                 ",
"                                            o + 3 y M M D ' n v v C S S S ~ A V                                                 ",
"                                            + 5 h N N C I X.L m n m P P P ] ~ A h                                               ",
"                                            = q g F G L { #.| K K I I { { ..] H h                                               ",
"                                              9 g P ] ' | #.#.| ....} { { } ..~ z                                               ",
"                                        1 1   i Z ' %.#.#.%.r.r.9.5.$.} { ..%...A                                               ",
"                                        u d j x ] 6.0.0.0.0.0.9.i.5.>...{ ..%...! j                                             ",
"                                        u l Y ` <.0.h.h.h.0.0.0.9.5.>.......%.o./ x                                             ",
"                                        u Y _ -.8.0.0.c.x.0.0.9.7.7.,.>.o.@.$.o.+.!                                             ",
"                                          T _ -.8.0.0.g.b.0.0.9.9.9.7.=.+.o.@.>.o.~ q                                           ",
"                                          Y ^ &.6.0.0.0.h.0.x.j.y.y.2.;.-.+.>.,.O.F q                                           ",
"                                          Y Q =.-.6.0.b.x.v.v.9.d.i.e.,.>.O.>.r.O.F w                                           ",
"                                        k Q _ 2.5.0.A.A.A.b.M.v.z.B.j.d.y.u.a.e.<.o.f                                           ",
"                                      # U _ =.2.7.h.D.A.A.A.A.M.F.F.B.n.v.m.S.m.u.>.f                                           ",
"                                        s ( 1.3.7.c.I.I.D.I.I.P.F.E.F.B.V.S.I.I.x.5.z                                           ",
"                                          ) 1.3.9.N.I.Y.Y.Y.U.I.P.W.R.K.S.I.Q.Q.I.p.T                                           ",
"                                          ( 3.y.f.N.I.Y.!.Q.Y.Q./._.(.W.D.Y.Q.Q.Y.a.j                                           ",
"                                          &.y.g.c.A.I.Y.!.Q.Q.^.(.`.(.Y.D.U.Q.!.Y.s.c                                           ",
"                                          4.f.x.D.I.Q.(.(.^.!.^.^.(.(.Y.D.H.T.T.W.l.l                                           ",
"                                          y.x.Z.I.Q.!.].]._.^.!.!.^.(.Y.I.H.T.T.K.l.U                                           ",
"                                          p.Z.I.!.].}..X X]._.(.(.(.(.Q.Y.U.Y.!.U.k.R                                           ",
"                                        &.h.I.!.(.}.OX+XoX[._.(._.}.[.`.Q.Q.!.^.Q.C.E                                           ",
"                                        _ x.I.!.(.`.XXXXoX X].].]. XXXXX].(.`.].(.Q.R                                           ",
"                                        ( h.D.Q.!._. X.XoXoX|.}.[.oX@X+X@XoX.X X].W.R                                           ",
"                                        c i.D.Y.Q.^.|..X+XXX].`.}.+X#X#X#X#XOX|.(.U.                                            ",
"                                          _ Z.Y.Q.!.`..XXX.X[._.]. X@X#X#XoX X].!.G.                                            ",
"                                            m.I.Q.^.`.[. X|.}.^.!.(.]..X X[.}.`.(.E.                                            ",
"                                              U.!.^.`.].|.].(.Q.Q.!./.(.(.`.].`.^.F.                                            ",
"                                                  _.(.].]._.Q.P.U.T.~._._.`._.!.K.                                              ",
"                                                    _.Q.^.!.Q.I.U.  /._.(.!.V.t.*.                                              ",
"                                                '..X|.].P.I.Y.Y.^.  Q.!.(.Q.z.W                                                 ",
"                                                  {.|.].L.    ^.(.  W.                                                          ",
"                                                      /.      U.            t.                                                  ",
"                                                                                                                                ",
"                                                                                                                                ",
"                                                                                                                                ",
"                                                                                                                                ",
"                                                                                                                                "
};
