/* XPM */
static char *item_xpm[] = {
"32 16 5 1",
"  c None",
". c #282828",
", c #4d575b",
"- c #394046",
": c #a1c9ff",
/* pixels */
"@@@@@@@@@@@@@@@@@@@@@@@@@@@@@@@@",
"@@@@@@@@@@@@@@@@@@@@@@@@@@@@@@@@",
"@@@@@@@@@@@@@@@@@@@@@@@@@@@@@@@@",
"@@@@@@@@@..............@@@@@@@@@",
"@@@@@@@@.,,------------.@@@@@@@@",
"@@@@@@@@.,:::.:::.:::.-.@@@@@@@@",
"@@@@@@@.--:...:...:...--.@@@@@@@",
"@@@@@@@.--:::.:::.:...--.@@@@@@@",
"@@@@@@@.--:.....:.:...--.@@@@@@@",
"@@@@@@@.--:::.:::.:::.,-.@@@@@@@",
"@@@@@@@.-------------,,-.@@@@@@@",
"@@@@@@@.-..............-.@@@@@@@",
"@@@@@@@.-..............-.@@@@@@@",
"@@@@@@@@................@@@@@@@@",
"@@@@@@@@@@@@@@@@@@@@@@@@@@@@@@@@",
"@@@@@@@@@@@@@@@@@@@@@@@@@@@@@@@@",
"};