/* XPM */
static char *floor1725033636[] = {
/* columns rows colors chars-per-pixel */
"64 64 230 2 ",
"   c #0C1117",
".  c #10151B",
"X  c #11161C",
"o  c #12171D",
"O  c #13181E",
"+  c #14191F",
"@  c #151A20",
"#  c #161B21",
"$  c #171C22",
"%  c #181D23",
"&  c #191E24",
"*  c #1A1F25",
"=  c #1B2026",
"-  c #1C2127",
";  c #1D2228",
":  c #1E2329",
">  c #1F242A",
",  c #1D262B",
"<  c #20252B",
"1  c #21262C",
"2  c #22272D",
"3  c #23282E",
"4  c #24292F",
"5  c #232A30",
"6  c #252A30",
"7  c #262B31",
"8  c #252C32",
"9  c #272C32",
"0  c #282D33",
"q  c #292E34",
"w  c #282F35",
"e  c #2A2F35",
"r  c #2C2F36",
"t  c #293036",
"y  c #2B3036",
"u  c #2C3137",
"i  c #2D3238",
"p  c #2C3339",
"a  c #2E3339",
"s  c #2F343A",
"d  c #2F363C",
"f  c #2E373C",
"g  c #30353B",
"h  c #32353C",
"j  c #31363C",
"k  c #30373D",
"l  c #32373D",
"z  c #33383E",
"x  c #34393F",
"c  c #363940",
"v  c #353A40",
"b  c #343B41",
"n  c #373A41",
"m  c #363B41",
"M  c #333C41",
"N  c #353C42",
"B  c #343D42",
"V  c #373C42",
"C  c #363D43",
"Z  c #353E43",
"A  c #373E44",
"S  c #383B42",
"D  c #393C43",
"F  c #383D43",
"G  c #3A3D44",
"H  c #393E44",
"J  c #3B3E45",
"K  c #3A3F45",
"L  c #3C3F46",
"P  c #374045",
"I  c #3B4046",
"U  c #3A4147",
"Y  c #3D4047",
"T  c #3C4147",
"R  c #3E4148",
"E  c #3D4248",
"W  c #3C4349",
"Q  c #3F4249",
"!  c #3E4349",
"~  c #3F444A",
"^  c #3E454B",
"/  c #3D464B",
"(  c #3F464C",
")  c #40434A",
"_  c #41444B",
"`  c #40454B",
"'  c #42454C",
"]  c #41464C",
"[  c #40474D",
"{  c #43464D",
"}  c #42474D",
"|  c #44474E",
" . c #41484E",
".. c #43484E",
"X. c #42494F",
"o. c #44494F",
"O. c #434A50",
"+. c #424B50",
"@. c #464950",
"#. c #454A50",
"$. c #444B51",
"%. c #474A51",
"&. c #464B51",
"*. c #454C52",
"=. c #474C52",
"-. c #464D53",
";. c #474E54",
":. c #494C53",
">. c #484D53",
",. c #4A4D54",
"<. c #494E54",
"1. c #484F55",
"2. c #4A4F55",
"3. c #4C4F56",
"4. c #475055",
"5. c #495056",
"6. c #485156",
"7. c #4B5056",
"8. c #4A5157",
"9. c #495257",
"0. c #4C5157",
"q. c #4B5258",
"w. c #4A5358",
"e. c #4D5258",
"r. c #4C5359",
"t. c #4E5359",
"y. c #4B5459",
"u. c #4D545A",
"i. c #4C555A",
"p. c #4F545A",
"a. c #4E555B",
"s. c #4D565B",
"d. c #4F565C",
"f. c #4E575C",
"g. c #4F585D",
"h. c #50535A",
"j. c #50555B",
"k. c #52555C",
"l. c #51565C",
"z. c #50575D",
"x. c #52575D",
"c. c #51585E",
"v. c #50595E",
"b. c #53585E",
"n. c #52595F",
"m. c #515A5F",
"M. c #55585F",
"N. c #54595F",
"B. c #535A60",
"V. c #525B60",
"C. c #555A60",
"Z. c #545B61",
"A. c #565B61",
"S. c #535C61",
"D. c #555C62",
"F. c #575C62",
"G. c #565D63",
"H. c #555E63",
"J. c #565F64",
"K. c #595C63",
"L. c #585D63",
"P. c #595E64",
"I. c #5B5E65",
"U. c #5A5F65",
"Y. c #596066",
"T. c #586166",
"R. c #5B6066",
"E. c #5C6167",
"W. c #5B6268",
"Q. c #5D6268",
"!. c #5C6369",
"~. c #5E6369",
"^. c #5B6469",
"/. c #5D646A",
"(. c #5F646A",
"). c #5E656B",
"_. c #5F666C",
"`. c #5E676C",
"'. c #60636A",
"]. c #60656B",
"[. c #61666C",
"{. c #60676D",
"}. c #63666D",
"|. c #62676D",
" X c #61686E",
".X c #63686E",
"XX c #62696F",
"oX c #64696F",
"OX c #656A70",
"+X c #666B71",
"@X c #676C72",
"#X c #696C73",
"$X c #686D73",
"%X c #696E74",
"&X c #6A6F75",
"*X c #6B7076",
"=X c #6C7177",
"-X c #6B7278",
";X c #6D7278",
":X c #6C7379",
">X c #6E7379",
",X c #6F747A",
"<X c #6F787D",
"1X c #70757B",
"2X c #71767C",
"3X c #72777D",
"4X c #74797F",
"5X c #757A80",
"6X c #767B81",
"7X c #737C81",
"8X c #747D82",
"9X c #777C82",
"0X c #767D83",
"qX c #777E84",
"wX c #787D83",
"eX c #797E84",
"rX c #7A7F85",
"tX c #788186",
"yX c #7B8086",
"uX c #7C8187",
"iX c #7D8288",
"pX c #7C8389",
"aX c #7E8389",
"sX c #7C858A",
"dX c #7F848A",
"fX c #7D868B",
"gX c #81868C",
"hX c #82878D",
"jX c #868B91",
"kX c #878C92",
/* pixels */
"; u T ` ` 7 ! P.C.N.b.b.N.N.b.l.=.=.~ l ] #.C.#.p.=.7.<.] <.b.#.l >.N.p.l.C.b.0.] Q.<.<.t.] ] C 7 B M , f 5. .^ b c m t.[.k.#.K.",
"z m m #.p.g #.P.N.b.l.l.l.b.b.l.<.#.T I T z #.t.l.o.<.C.l.p.<.T s z >.l.<.N.F.#.* H H ] l.t.B.t.a./ C f 8 B  .v i D.+Xl.@.' L L ",
"p.#.l <.Q.T l.C.N.b.j.j.j.l.j.p.p.#.H <.H 7 V C.t.t.l.b.0.j.l.<.m q ..P.t.b.C.H l.%X%X;XwX5XrXqXsXsXfX8Xa.p w t I.oXQ.t.{ G S L ",
"C.t.s ~ P.] F.0.b.l.j.p.j.j.p.t.t...m 7.m 4 u <.] 7.7.` ] l.N.o.s 9 I C.C.l.0.! [.[.b.t.t.0.t.t.W S.`.^.OX^ 5 /.0XB.L #.3.L G 3.",
"=.t.x l =.] L.<.l.l.j.j.j.j.t.0.o.! u ` l q 7 l H I V m ~ ] z 3 7 q q T l.<.o.b.+Xt.] H ! :.<.<.).w.s.(  X^.B qXl.<.] ! ) ' ' ) ",
"~ 7...i I ..F.l.j.p.p.j.j.t.7.>.! ~ l H F x l 9 T H V H z > * i l T i q ] T ! +X[.<.#.<.w.C.C.B.H.C T.T./.-XH.:Xt.<.#.! n ' %.L ",
"~ >.p.y i F ..p.7.0.t.p.t.t.=...! ] ! ! ..T ` g m ~ I x i 7 i t.=.t.] m x l ` @XC.! <.t.t.l.w.w.B.B.<X7X).W.U.a.P.] H @.' ' @.{ ",
"~ ! t.2 > 4 7 ` >.<.0.t.t.<.o.~ T ] #.~ =.H #.H 0 F i 9 ] R.C.<.7.0.p.o.l s <..Xt.F t.C.h.C.p.l.OXtXH.9.s.+.a.( ) b @.t.@.{ %.Q ",
"] H ! ; X y y q i q ] o.] <.! T #.` H 7.o.V ] x 0 X m oX;XC...l.C.<.j.[.L.T #.%X=.=.0.l.a.3.p.S. XH.w.9.u.u.;.+.2 #.+.3.h.) ) ! ",
"I ! z b.<.y I g u 7 7 7 m ] T H ] >.! ] ] g y l 7 i P.9X2X[.N.Q.t.j.N.L.l.0.t.l.C.p.<.p.C.C.t.#.a.w.s.z.B.a.1.#.#.l.L ! :.{ ' G ",
"~ x p.=X.X] q y - <.b...s ; 9 V m ` ] ! ..x < m ` ~ ].5X3XoXl.j.t.l.t.>.<.b.l.>.F.l.p.j.C.P.t.+.w.s.z.B.B.w.;.^ ! <.] ] %.) L G ",
"! ! oXQ.b.l.y > >.9X1X+X].<.] T q 4 l q y i 9 ] P.T <..X+Xl.] 7.0.t.l.N.F.C.j.7.! =.t.t.h.l.l.w.a.z.z.u.u.w.5.-.m ] ] ! G S L { ",
"l C.l.C.t.7.l.3 l.2XQ.Q.,X*X$XE.7.q l q * l =.L.t.V =.L.b.#.o.F.7.F..X$XoXE.l.>.g H #.<.7.t.t.7.a.s.w.9.u.B.B.u.H m H ] ' ) S h ",
"I >.t.p.0.j.p.V y N.].P.C.l.Q.;X+X~ <.>.q H C.N.#.! >.t.0.l.0.7.C..XoXL.l.C.N.<.~ H H <.P.P.l.+.w.s.s.w.B.C.a.+.m q H L G ) H L ",
"7.x p.t.7.l.T #.x #.(.[.Q.E.N.C.l.#.7.l.m s #.` =.T #.<.t.N.t.=.+XQ.t.] #.0.j.p.=.x l 7.+X+XN.#.;.s.a.s.t.w.+.W ! q l i r ) h.'.",
"=.] H l.l...l.t.m V F.E.E.(.t.t.0.l.>.7.I i <.l.! m <.C.7.#.t.+X$X<.T t.L.t.>.j.! 9 0 <.oXoXN.7.^ ;.s.;.+.;.#.] m 2 G 3.I.#XC.@.",
"! ] ~ >.7.=.0.0.! z =.Q.R.b.C.b.p.N.l.<.g 3 ` l.z F ] t.t.t.P.%Xj.#.] =.t.t.0.<.H q 9 H 7.p.b.R.I.b m t.C.l.t.#.m q b.t.w.#.H o.",
"..7.o...0.j.t.=.T z H <.l.N.C.C.b.0.m i q 4 l x m H ..7.<.#.t.R.~ l.F.<.7.P.t.m q 9 q s ] p.t.] H.-.<.u.<.0.h.#.] s p.] { ] ! <.",
"I =.! m #.t.I l 4 9 7 9 g l l l V H 2 * 4 9 g F i z ~ <.0.>.t.P.t.t.t.t.l.l.<.I H q 7 i H ] t.Q.#.a.Q.P.l.t.#.l i 2 ~ ! ] ! H ] ",
"I ..~ H <.<.g y 9 T H z m l q l 2 s > 0 0.R.oX;Xq l ] t.j.t.l.P.P.<.#.t.b.>.H m 7 2 9 q 4 2 i #.] <.l.3.] ! ! m q 2 H H ! H V S ",
"H l x z ~ H 3 q 7.E.P.l.P.C.0.0...o.q F +X;X[.C.m T <.l.j.t.0.p.=.t.l.7.#.H s 3 l l.[.p...] l O l l H ] ] m l m <.I ] V H m I H ",
"T 2 y i g l 2 y %X@XQ.L.[.+XQ.N.l.p.H ` l.<.V y H ] 7.j.p.7.<.<.I ] <...z q m <.9XgXiX;X%X%Xb.V l t q m H i i ] C.#.7.] #.I ~ z ",
"<.q ` #.o.j.T m ;X[.E.E.Q..X[.P.! T F #.>.! ] o.m ! #.t.t.0.0.t.#.! m g y z l.5XdX+Xl.b.C.l.l.P.C.t.l 7 4 2 H +X7...=.#.>.! ! q ",
"<.u p.P.C.%Xt.g l.p.P.(.N.F.+X+X#.x q ~ ] H ! ! F ` <.7.0.0.t.t.<.t.I 2 u C.1X%Xb.l.t.t.0.<.p.b.K.Q.P.#.H 7 l P.C.<...H ! m T q ",
"l F.j.b.l.l.F.l I +Xl.0.Q.l.C.=X#.i 7 l ` ~ T ` ] l p.>.t.p.l.#.l.<.q i ;XiXP.p.7.] V T =.t.<.#.7.l.C.Q.P.<.H i t.P.#.m s q u 7 ",
"m l.7.j.l.7.t.i g F.t.t.P.l.l.F.#.q > g I l m #.o.s C.E.<.<.N.b.>.@ ` hX,Xt.j.#.=...] ] <.t.t.<.] <.<.<.F.[.7.y 2 H i 2 H l.t.q ",
"<.P.t.b.L.p.t.l q p.L.P.E.F.L.N.l.z 3 g ! ! H ! #.l t.Q.=.j.l.#.> t.9X;X<.>.p.] <.0.t.t.t.7.<.<.o.t.t.#.t.C.t.H ; y 7 g t.C.<.i ",
"P.P.t.N.P.N.b...3 ..P.R.l.N.P.j.l 0 3 u ! <.>.] o.! V ..] C.] q ..yX;X..0.<.~ l.#.<.7.t.7.<.7.7.0.t.0.t.#.] ] ..7 H m ! ] m y > ",
"<.o.V ~ >.<.7.#.y H b.F.N.R.l.~ ; 4 s I ] ] o.=.] 0.i i F ` z ~ yXQ.<.<.l.t.#...>.#.#.#.<.<.t.7.t.<.=.7.0.=.] H H .X+Xl.7.p.t.V ",
"u 7 2 3 q s m V z s ! =.l.L.! 2 2 * < F #.o.` =.] l.m i u 7 I 1X@Xl.j.0.! =.F.#.P.C.p.t.t.t.<.=.#.F.Q.l.t.p.#.m l l.l.=.<.p.l...",
"0 7 4 ; = < 2 7 7 = 3 9 l V ; @ 7 0 0 y H =.0.<.o.t.~ s i l E.2Xt.t.t.t.<.` 7.@X[.P.F.l.l.t.t.>.l.Q.(.t.] #...F I <.<.t.l.7.t.>.",
"F H H y > > - > 3 ; 9 < 2 4 ; l ].kXjXt.q I t.=.>.<.] q l N.dXt.] 0.<.=.l.[.Q.l.7.<.t.t.p.l.b.l.+Xl.I m ! ] ~ ! l F.C.=.=.t.7.m ",
"i i y q H t.l.<...] l.<.> $ <.yXkXdX5X[.~ 0 m C.t.p.p.X p.1XP.=.0.t.<.j.#.C.l.0.t.t.t.#.] ! #.t.#.I m ! ~ H F I I b.] l.#.=.t.q ",
"q i ! l.C.l.t.t.V m ! I ! F.5XwX%XF.7.p.l.#.V l p.7.t.9 p.t...j.<.7.#.t.] b.l.<.<.<.#.] ! I ` ] I H m m I ] ! H s t.! <.! F ! y ",
"! l.F.t.t.C.<.m l y i ! P.wXiX.X>.] ] l.E.C...z ! 7.t.q ] H ~ <.7.<.#.<.~ p.p.<.#.] ~ ! H H H H H ! H m H ~ H i m P.<.l.] i 3 2 ",
"P.(.F.] #.l.#.9 y q l <.Q.+XP.<.~ <.l.b.N.l.p.<.i ! m q ] I <.<.7.t.=.<.! 0.t.=.` ! ! I I I H m H ! I H H H g 3 #.[.t.7.! 0 2 s ",
"E.<.#.N.b.] m l 7 i T =.t.7.#.#.t.t.<.#.<.l.l.t.] y * i l...#.j.<.7.#.=.V >.=...! H V H ! T H m F m V ! H l q 7 ! 7.i y 0 q u =.",
"t.<.<.<.! q 3 y i ] ..H ~ <.<.<.7.<.#.o.#.<.t.t.j.z 2 q <.l.>.] =.<.#.#.z ] ~ ! V m m H H ! I m H m V I m 7 2 7 2 q ; 3 7 i y H ",
"I #.] q * = 2 < H #.] H ] ] ] =...=.<.<...] =.p.<.! m ; l l.#.V <.7.=.=.m ] ! H V V V H H I H H ! T I m 7 ; 2 7 7 y s I m ! q 9 ",
"9 4 7 4 2 2 7 q H I H ..<.F m t.=.] ] #.#.] #.<.=.m H 7 7 ] l ..t.p.7.7.V ] ! H H I H I I H H H z ! H y ; 2 y l ] ..<.t.] 7.I l ",
"7 q * - z ] ] z l V #.#.<.#.I #.=...] ] ..#.] ! T m ~ z q z l i I 7.F.7.H H ! V H H H H ! H H m ! I q O $ V l.C.j.t.p.l.7.7.=.H ",
"; z m I <.t.7.! m V ~ ~ =.<.H ` =.#...] ] ] ! F H m V 7 ; i s i = s =.t.#...~ l m m H H m z s s 9 7 > z ] 7.P.0.p.7.p.p.t.7.=.H ",
"; ] p.C.b.<.#.! z V ! m ..t.! ! #.#.] o.] ~ I H m l m 9 < 7 2 ; 7 7 y l g V ] ! ! I H F l i i i ; - i Q.@XF.F.#.l.t.t.t.<.0.=.H ",
"q <.l.p.<.H H m l V I l ! <.! I ] ] ] ] ] ~ ! ! i i l q 7 2 = q i > 2 y l z m m u q 3 2 > ; ; = 7 q P.yX%Xb.t.t.t.<.<.7.>.<.#.H ",
"y ] ..] ] V m s i m ! l m ] H ! ! ! H I ! ! I H z q q 7 7 ; 7 t.;Xt.l 3 = ; 7 y * @ O * 2 3 ; * 9 z 2X2XF.l.] l.t.<.<.<.#.#.] V ",
"s ~ ! ~ ] m l 9 9 l ! l l V x ! ~ H m m m V m z V s s i u > 2 p.%XF.p.t.] z 2 X ; * 2 i ! ! m q q ! +XC.0.C.] 7.t.<.7.<.#.#.] z ",
"y ! H I T i q 7 7 i F i i i q H ] V s s m F m s m V V s z q ; H C.7.<.t.t.p.t.#.i y y z I I l 9 H P.C.#.t.l.t.7.t.<.7.7.=.#.! l ",
"- l s l l 0 i i 3 q l i i y 7 m ] V i u m H F m z H l 2 i l 9 I C.b.C.C.l.l.l.#.<...V l l i q 2 l.iXl.#.l.=.P.p.l.t.t.t.<.#.~ s ",
"q   2 I g 7 y m 3 ; m l q i 2 q y 7 g q s H i H ` q = 2 > * 2 g q H l.E.C.7.<.t.] ! ] #...m y 7 P.(.l.=.l.C.t.7.<.#.<.<.<.#.I q ",
"2 q l 7 7 I V = i 3 > 7 7 3 q 3 q 7 i i l H V ! 9 i ; . i R.R.! 7 3 y ] P.Q.l.#.t.] T ! ] #.H 3 ~ l.t.<.C.P.t.7.=...#.#.#.#.I q ",
"@ <.+Xt.i > 2 9 ; q 7 V s > s 2 7 9 7 V ~ H m y 2 @ 3 =.R.C.C.+X#.y * 2 ` l.l.=.] ] <.0.<.p.#.3 z t.C.C.C.C.<.] #.! ! ` ] ] H 9 ",
"q l.Q.[.E.! 3 > q > @ 2 7 7 i 2 7 4 2 ] 7.l 4 X 2 z 7.P.l.=.0.C.(.<.u 2 2 l ..l.l.7.t.7...t.<.s i =.Q.Q.C.<.] I ] ! I ! ! ] H 7 ",
"u C.7.<.%X%Xp.q 2 7 #.#.i 7 2 q 9 2 ; ! ! = ; 7 ] C.b.] I <.<.~ t.7.#.m 7 < l ] t.#.<.p.<...H 2 > m j.F.t.] ..#.] ! T H I ] H 7 ",
"u [.F.#.l.E.+XQ.0 ! 5X5XL.] 7 i q 2 ; q 3 $ s t.P.#.] <.<.! ~ <.] #.=.] s 2 3 i l ~ <.#.H i y l 7 7 H t.#.I ] #.#.! ! I ! ] H 2 ",
"<.[.7.t.l.<.Q.+X+X<...t.P.Q.<.l i 2 2 ; 7 V #.C.! #.<.=.#.#.....#.#.#.#.! l 7 2 l ] m 2 q V <.[.#.y l 7.<.I ! ] =.] ! H ! ..H ; ",
"] P.t.l.j.! l.N.$XC.I <.l.C.+XC.l 3 7 ; I [.p.~ #.] ` ! ! ~ ] ~ ~ ] <.l.l.] s 3 2 l 2 2 F.5X[.C.[.m l t.b.#.! ~ =.] ` H H ] m = ",
"C.C.j.t.<.<.<.<.<.+X[.H ] E.C.p.Q.] H g ] C.#.] <.#.] ! ! ] #.7.<.#.t.p.H l F V 2 7 ] [.+Xl.] #.] t.H V C.l.H ! ! F H ! H i 7 2 ",
"C.l.l.l.t.t.=.=.#.#.[.b.i H j.l.C.Q.=.i g #.l.#.] #.#.#.] ] ....#.#.N.P.t.! H i $ ] [.E...! <.C.l.t.F i ! ~ l z z V I V s 9 2 > ",
"P.l.p.l.b.t.>.#.<.t.<.z 7 y I R.C.[.=.! i 3 ! ~ #.<.t.t.p.t.<.<.=.H z l i s m m ] j.p.] ] t.t.I ] ~ m q 9 i m ! m F H l s q 7 2 ",
"].l.7.l.l.t.<.<.#.t.] s ] 7.m V t.l.t.C.o.9 y l ] ] ! V l y q 9 ; ; > 7 q q 9 7 m z m H H H ! o.y m o.H 3 q I ] m l y i i q 2 2 ",
"[.C.t.t.l.l.t.l.b.I #.>.=.P.t.l m #.Q.R.F.l.l ; 7 7 q q q q q q H #.l.F.P.C.t.<.(.F.C.l.! 2 ; q ! ..l.<.i q F s ! l g m i 3 3 i ",
"E.C.p.t.l.b.C.l.l.! #.#.] #.<.C.m l t.l.F.l.7 - 0 s I #.7.l.b.C.C.Q.C.t.p.l.C.Q.].C.t.l.P.F.=.F C.p.l.#.F H H 7 l l z m q > 7 m ",
"<.p.l.t.l.C.l.<.H <.l.p.P.<.m l.=.s i ! ! s q H p.l.C.C.b.p.0.t.#.L.C.l.C.l.7.l.t.l.C.l.t.p.7.] p.t.#.` ! <.o.l 2 3 2 2 7 s l i ",
"m #.l.p.l.b.t.~ C.j.P.l.0.R.b.! #...9 3 3 q l.(.b.l.t.<.#.] #.#.H 7.t.t.C.N.<.p.t.l.l.l.l.l.b.C.H ..#.~ ` t.7.] l i 3 7 ] [.R.! "
};
