/* XPM */
static char *south1725036992[] = {
/* columns rows colors chars-per-pixel */
"64 64 138 2 ",
"   c #0F0F17",
".  c #101017",
"X  c #15161B",
"o  c #18171C",
"O  c #17191D",
"+  c #1A1B1E",
"@  c #1D221F",
"#  c #171A20",
"$  c #1C1D22",
"%  c #201F22",
"&  c #1E2123",
"*  c #222425",
"=  c #282627",
"-  c #242A25",
";  c #292B27",
":  c #252629",
">  c #292629",
",  c #262B29",
"<  c #2B2C2B",
"1  c #312D2E",
"2  c #273127",
"3  c #283326",
"4  c #273028",
"5  c #2C332C",
"6  c #2D3B2A",
"7  c #31322F",
"8  c #313C2F",
"9  c #2E2F30",
"0  c #332E30",
"q  c #2E3331",
"w  c #2F3830",
"e  c #343432",
"r  c #3A3534",
"t  c #343B34",
"y  c #3B3A36",
"u  c #363739",
"i  c #373B3A",
"p  c #3B3D3B",
"a  c #403B37",
"s  c #433D3B",
"d  c #2E4029",
"f  c #32422E",
"g  c #364332",
"h  c #394436",
"j  c #3A4835",
"k  c #3D433B",
"l  c #3E493A",
"z  c #43433E",
"x  c #49433F",
"c  c #414A3E",
"v  c #403F40",
"b  c #3E4140",
"n  c #3F4841",
"m  c #434543",
"M  c #4B4542",
"N  c #454B43",
"B  c #494C46",
"V  c #464748",
"C  c #484748",
"Z  c #474C4A",
"A  c #4C4D4B",
"S  c #524B45",
"D  c #514E4B",
"F  c #465042",
"G  c #4A5147",
"H  c #4D514C",
"J  c #52534E",
"K  c #5A544C",
"L  c #51584E",
"P  c #4E4F50",
"I  c #4F5150",
"U  c #545453",
"Y  c #585754",
"T  c #565855",
"R  c #595956",
"E  c #575658",
"W  c #585758",
"Q  c #57595A",
"!  c #5C5C5B",
"~  c #625C54",
"^  c #615E5B",
"/  c #5E615D",
"(  c #676157",
")  c #64615C",
"_  c #6B645B",
"`  c #706557",
"'  c #71675A",
"]  c #746859",
"[  c #5F5E60",
"{  c #605F60",
"}  c #5F6260",
"|  c #646463",
" . c #696664",
".. c #666865",
"X. c #6A6967",
"o. c #676668",
"O. c #686768",
"+. c #6C6B6B",
"@. c #746E64",
"#. c #716F6D",
"$. c #75726D",
"%. c #7B746C",
"&. c #7F796E",
"*. c #6F6F70",
"=. c #706F70",
"-. c #737373",
";. c #797775",
":. c #777877",
">. c #7B7976",
",. c #777678",
"<. c #787778",
"1. c #7B7B7B",
"2. c #8B7B67",
"3. c #84796F",
"4. c #827D76",
"5. c #817F7C",
"6. c #99846D",
"7. c #9F886F",
"8. c #8B8277",
"9. c #84817D",
"0. c #8C847C",
"q. c #8F887F",
"w. c #938575",
"e. c #988775",
"r. c #988877",
"t. c #92877A",
"y. c #94897C",
"u. c #9A8A79",
"i. c #A18D77",
"p. c #A28E79",
"a. c #A5927D",
"s. c #AA9178",
"d. c #B5997C",
"f. c #7F7F80",
"g. c #848281",
"h. c #8A8681",
"j. c #8E8984",
"k. c #948A80",
/* pixels */
"Z +.-.-.-.+.| | / | X.| | *.-.-.1.-.+.+.+.o./ ! k 5 B Z N R ;.+.N - B O...O.-.1.1.8.0.1.4.0.9.-.Q N F t : i ! +.! Z / 1.k.:.k - ",
"m | +.+.X.| | | | } ! B U | +.*./ | X...} Q U U t 5 T ) Q | T ! N - A O.| X.-.1.9.j.r.0.q.t.1...R Z A g : p } +.U m N T ..T g ; ",
"c ! ! T Q U Q ! Q W Z J [ W | | T T J Z m N G l y y ! O.^ [ Q ! l - A ! { ..+.| Q -.g.g.r.q.1.H Z H H k < p / } G T / N N l j , ",
"e J U Z c N N n c k h N B l k t p 8 d f g c c < M t l G c A H l 2 * c H H H H Z l H ! X.&.-./ l H m l 5 , ; k k g g g 8 6 8 < u ",
"< 5 k k g g 3 , : : & & & & $ # + $ < w w 5 * 7 M * = ; 4 < : : > = - 5 < ; : , < , 5 t t , : , < : & & = + O & : $ : * & : < z ",
"! Z b m b m V I Q ! Q I b 9 r v r r < > < > 1 y M s r > & $ % a s r e r y r r 9 : % # # $ : : & , < e e r z y = > r s B A R ! ! ",
"g.k.t.0.0.t.t.t.9.1.1.9.1.) m r J %.%.>.4.4.;...r r 0 > > * ; r 1 < r a M M H J Y ! Y A v s z _ &.$.&.1.1.j.q.| < r ..>.9.h.j.h.",
"9.9.0.t.t.t.t.t.9.:.<.1.O.! H < | k.0.k.t.r.y.0.< * Y J D D U R ^ Y B Z J ^ ^ ) _ ^ _ | T * e 0.a.y.9.4.9.0.0.>.e = | h.9.4.:.1.",
"-.<.g.g.0.r.t.0.9.<.,.*.[ U l : Q +.$.;.1.r.y.$., q ( ' ' _ ) ( _ ' ] ] ' ) ^ ` ` ^ ^ R T 1 5 $.r.4.1.;.9.9.-.! < > B <.f.*.O.+.",
"{ X.1.h.u.p.u.k.g.<.+.T Q ^ q : A { T B ..9.9./ * q ^ _ _ _ ] _ ~ ~ ~ J B A V Y ~ D W ) R 7 < | | ! / 9.t.1.1.{ q < k O.1.+.+.| ",
"g.g.5.5.;.X.^ | -.*.+.-.<...4 < P ! H l B T U m : e ^ K Y J J B p p C m k y m m t t A Q t - 5 J I N I | ) O.-...t , N { -.+.-.1.",
"+.+.+.! U U U H H N / f.g.B : , H W U J T A N m , t m p p e q e V C m s e < e < - 2 - * + + 5 h N Z H B N ..;.L < < N H | } } | ",
"N j g g k c k k k B m V p & 9 9 k B N / U j B G : , t i t y k t p e : O X X # o X X + + $ 1 > h k g j g y h t 2 < 7 3 c A U H Z ",
"5 ; ; : & # X # # X O # $ < S M & & - & - 3 w q $ $ 5 5 3 5 e 5 & + o + + $ * > 7 y S M S K M > - - - : $ $ $ > r r % * : ; 5 5 ",
"0 < e p y e p B Z B V k M K M r r u u t q q < q V N y 5 - & & * > = = r s y y S K Y J B D ~ x r r 1 , * * + * 1 1 > > 1 e > , > ",
"C m a r y U 0.s.k.k.0.,.V a M +.,.-.-.*.| } ! Q | +.+.| Q R U B m C R y 1 s +.8.8.0.4.W M S p A A B A A D U S B A J J U U U U A ",
"m C m + t Q +.4.9.1.-...b = B f.g.5.g.1.1.5.9.5.f.1.-.*.*.$.-.-.1.g.f.I = A y.u.r.;.| A e r C O.^ _ ` _ ` _ _ _ _  .{ ^ ^ E D C ",
"v A z * 7 G P -.g.f.-.} k $ c -.+.O.+.^ 1.5.9.5.1.1.<.-.-.<.1.,...O.-.! 8 L 0.0.q.;.| N e 1 e ^ _ _ _ ^ ^ ^ R J D Y P C C C s u ",
"C A V > > A T <.1.+.*.R t : z ! W ! | -.5.-.} ,.<.<.,.-.+.+.X.+.....X.T y  .k.g.f.:.+.H e r 5 Q T A R R W U b p p v p p p Z p e ",
"p v C < < A ! 1.:.+./ H k * 5 B H A T | | | o.+.-.*.*.X.| } } } | | | B 7 #.h.9.f.-.X.U - % e T p r A D m v v b s p p p p > - t ",
"t p m = e Z ! -.f.-.H ! t % ; h c l F B N k H ! | ! T G H U U Q ! ! | m , Q -.-.$.-.| Z - * 7 B A A k k p p y y t y t t < 5 p y ",
"@ - + < s 9 t c L L ..H - = r ; 3 5 5 t h g g c l g g g g k n N Z T H > 0 5 q p k k k , 1 > + - : $ @ * * * @ + @ @ @ O X & & @ ",
"1 > 0 M z * # & & & - $ % r s 0 r r > = 5 t h f 5 4 , & : ; ; , 5 4 ; , e < 9 r 5 & $ = r p + % + o o o X . .   . . X & $ * > 0 ",
"X.X...) R H m t w 5 ; 7 V N 7 z x M A c t q q t t e p r Z T U U A A U ! } o.+.*.*.| ! ! | | 5 > s y k z c z z i e > 1 < p J ! ..",
"-.1.#.O.O.} | ....! ! | ..| i 1 Z ..1.>.o.| ..-.+.y x t / 4.1.;.-.-.,.1.g.5.1.4.5.0.0.5.1.<.H * y / *.*.*.-.*.*.| z : t *.1.1.-.",
"Q W A B U | <.g.1...} -.-./ t i g.-.;.-.T ..1.h.h.B 1 y X.g.:.+.,.1.1.f.;.;.1.1.5.5.1.1.1.<.T & k :.1.-.*.-.1.1.R G e [ -.<...Q ",
"+.o.! W [ O.-.-.[ U U T | H - V ..U D Z Z / +.:.9.p o t R *.*.! T ! +.X.o.| | *.-.-.-.-.-.-.R : q Q | | O.<.1.1.H g t X.+.-.-.-.",
"-.-.-.X.*.+.+.+.T A U Q | | < i Z A T H A U U H G 7 - t I X.*.o.[ W U W ! { ! Q o.-.-.-.#.+.Z * 5 B Q *.<.-.-.-.G f < Q O.1.1.,.",
"-.1.-.X.-.+.X.-...! ! | =.-.e $ h A } ....! U B c 5 q 5 U +.*.+.| | ! W Q Q ! Q Y ! O.X...| m & t Q #.-.-.-.+.! G t < k | :.-.-.",
"=.+.-.+.-.o.U ! -.=...Y | 1.9 * 5 F X.+.*.| I B G l - < L +.*.+.| | | { R U W ! W U U I P { B : g / 1.1.:.-.X./ H e 7 f N U ..-.",
"Z H J H U G l g m B G Z H H $ 0 r h R R T Z B B G g : t H { | X.X.| { | ..! U U I I H H H ! N & g R | -.-.| Q } H < , 5 g c Z A ",
"l j f f t 6 t d 6 5 5 5 , $ * M M 5 f h t t g g t : r , j G U ! | o.O.| | ! J N H G N m k t : # , m Z l m c c N k , r = ; 8 h j ",
"* * # o # # + + $ $ % % < > r D S a 9 0 9 0 < : > y M 0 - 5 5 q e i i e < & & & ; : : & $ $ = x e < g f 5 < : : $ 1 S y % % , : ",
"r e U B p t 5 7 z y * r M a a B D C p s y y a u r 1 r M 1 * = : > * $ i b b i b i r e m z z S S s = - - $ $ % * 0 a x x a r 9 r ",
"D s e.d.s.p.8.9.0.4.t = 1 m T Q ^ ^ U I P m r e y p p y p m m r u > J 0.0.t.t.k.9.:.k p S x B B m z r u r b C B U Y R U B x K ~ ",
"y p %.6.7.2.$.0.t.k.| % * ! _ ! ^ ( ) W U ! | ) R ! ! ! ( ^ ! B * > ! 0.$.@.t.%.X.=.G - Q 4.8.0.r.t.q.h.0.9.h.h.h.h.h.0.h.) e B ",
"y i ) | T P } 1.u.#.Z ; ; x A U ~ _ Y A D W Y U W ^ R ^ ( R ! V + : +.9.1.| N n B G k : / y.s.e.4.8.r.t.t.y.u.u.u.r.8.9.g.+.7 y ",
"s e | X.T T / } | U h $ ; 8 5 8 p h t t h k s p C ^ ^ ~ Y J A p * O U X.>.) j g f g q & Z | | Q R U / X.$.3.3.>.9.9.h.h.g.-.B e ",
"M 7 t h i w g t t t $ % % + 3 5 - @ @ - 2 - - ; 5 t m p t t 5 5 + O : q q ; , , , 5 * + t f g k l k c F N n N Z T X.$._ G k 5 t ",
"x e + & $ $ # $ & & , s 8 @ % + + o + X X o ; = % O + + - @ + + + * + X X X + # X + O o O - < - & : : & - - & : & : & & - * r M ",
"J C B A T U T | | ..+.| / R e * 1 J Y P C m b r : * * = = * = 1 r z C C V B T ! Q R R U A p + % 9 p p p p v m V y , q T +.-.+.| ",
"f.-.-.+.o.| *.1.-.-.<.-.*.*.N o m h.h.h.h.1.-.*.I O t #.+.+.-.:.1.9.g.:.1.-.+.+.-.-.1.-.1.-.u 1 R ^ ! R W U W R m = m f.g.1.-.g.",
"^ o.X.| ! | ..X.+.+.-.X.| | n O c ,.0.0.1.-.-.-.H $ N +.+...| o.O.X.^ T T ! *.-.-.;.<.1.9.1.B p  .! ^ ^ ^ ^ ! W i + c 1.*.| T W ",
"P B A P W Q | o.+.*.+.| / ! p O B 5.u.h.1.:.-.Q i $ k Q | ^ U A H G N m Z ! +.+.-.9.g.9.h.1.A m ! U Q ! _ ^ Y B 5 + y X.O.! U A ",
"U P A A U ! | +.+.=.+.| ! ! n & I +.5.1.1.:.X.H w & t R ) U G Z Z j f h A R H H A +.g.9.f.1.m e v v A P ~ ^ ! V - @ i X.+.| T I ",
"A A H ! | ..O.+.+.+.*.X.! ! A ; B D U ! | +.o.! k $ n ! Q Z Z B N l c l c B B G A ! -.,.1.+.< 5 p p p s p V C 7 + + m +.o...W A ",
"A A P ! O.+.+.+.*.-.-.o.! Q Z ; N W D A I ! *.+.v : D T J A A H H U T U c h c G Z N G H T B @ 5 e t e p p p t 2 + & N O.| ..{ E ",
"! I A H W [ o.+.-.+.o.! U H k $ P O.U H Z A | | q < G A A U W Q U A Z c f d g l j f g j h 2 o @ 6 y t e t y 8 5 + * t U U W W { ",
"U Z c c G H Q | O.Q U B l w & $ k G N N B G Z i & : d B F N c l l l g 6 5 5 6 3 2 6 6 5 < X < 1 - 5 < - & 2 2 @ o r > 7 t y m I ",
"< , & & & q k k I m q & & , < < ; > ; , 4 4 & $ , < & - 5 - - - & & - : & , 4 ; * * > = 5 t e 1 % * + X X + $ & * > 1 * % $ & 4 ",
"- m X.! W U P P i & < < A U H A A m s u i b m A P m k i e e > ; 2 k J R / ! ! | R 5 s t | O.Q B m m M N H I ! | ! J C B C a 7 < ",
"y ! j.9.g.<.+.-...< : p U U U T U U I C Z A A U A B U T T T k + B g.1.f.f.:.:.1.+.< > e O.-.-.,.-.+.-.+.O.+.O.O.X.+.+.#.-.-.D M ",
"y J 9.h.1.X.! o.U = * e P E U U U P A C m m p v C B P E I D t + / h.*.+.#.9.1.<.T - = ; / -.-.-.+.#.*.X.O.O.} ! ! | o.+.+.,.U r ",
"y ! 1.#.$.O.U [ k @ ; 3 p P I I I I D A V C V A U I U U A V e o I *.+.-.;.f.1.1.N * = < R -.-.-.-.+.*.X.| ! Q U [ ..o.+.X.+.I 5 ",
"r T { [ | U U | G * ; 8 5 t v D I ^ E A B C A Y W U P A A C v + k H T | +.f.g.-.t % * 5 G +.:.:.1.-.-.O.| ! [ O.o.+.+.+.| | T < ",
"7 c B I N N X.-.T , 7 8 e 5 e V I E I P A A U Y W U C I D P u X p G N N H / / N 5 % + 7 H ! -.*.[ | X.O.| } O.*.*.*.X...| | ! < ",
"< U | A A ! +.-.m < e 5 y y y p A C A A A m C U W T B A C m = o ; l N N F Z c c q & < t U ..+.I A Z W o.T | +.+.*.+.o.o.o.O.! , ",
"7 Z } R G H H G 5 < e & 7 5 t p B k p p e 5 8 t m V p k p p - % & w N k t t m l : * v e N Y I F G G I P k ! X.-.1...} | [ | Q 5 ",
"y 5 5 , q q 5 & $ 5 1 = @ & & - ; ; - - + - & * * + & 2 r y * 1 p * * $ $ $ @ O X = r * : 5 5 5 5 5 , $ : ; 5 k m e < < e y 5 r ",
"S M s 7 < m P H Q } } ! / ! ! T Z t e 5 ; ; ; < e > $ + + $ + e s M 1 = 7 t y k p e r t u i q : & & $ & : 9 = * & - : & & * > B ",
"M z y A | *.-.*...+.+.+.+.+.*.*.*.X.| Q T U U Z 1 r t U T P U A e 7 m ! | / ! | +.O.| | } | | ..} T I N ; < N Q ! ^ | ..| } m r ",
"x } | *.-.:.-.+.+.O.+.O...X.*.*.*.+.+.+.+.+.X.+.y % ! 5.-.-.1.1.N & R -.X.X.! ! +.-.+.*.| ..+.,.,.,...B = m ,.1.-.-.-.:.<.<...e ",
"H 1.:.:.:.:.:.-.*.*.+.+.+.+.*.*.-.+.+.+.I J +.| p - R 1.1.X...:.U - U / H ! | [ X.-.-.*.o...+.-.| o.! g & Z -...-.1.<.1.-.*.| e ",
"H 1.1.1.1.1.-.+.+.+.+.O.+.*.*.$.-.-.+.+./ O.X.[ p , G ^ ! ) -.:.G - Z X.| Q ! | +.*.*.+.o...+.<.} P G t : n | X.-.-.-.-.5.g.H * "
};
