/* XPM */
static char *west1725033637[] = {
/* columns rows colors chars-per-pixel */
"64 64 85 1 ",
"  c #171514",
". c #191615",
"X c #161817",
"o c #1A1817",
"O c #171718",
"+ c #191718",
"@ c #1C1B1C",
"# c #211E1D",
"$ c #1D201F",
"% c #24201F",
"& c #1F1E21",
"* c #201F21",
"= c #1E2022",
"- c #232224",
"; c #292424",
": c #222825",
"> c #252529",
", c #282729",
"< c #26282C",
"1 c #2A2A2D",
"2 c #2D2D32",
"3 c #312E34",
"4 c #302F38",
"5 c #2F3135",
"6 c #2F3138",
"7 c #323236",
"8 c #34343B",
"9 c #38363D",
"0 c #37393E",
"q c #393A3E",
"w c #363640",
"e c #393742",
"r c #363941",
"t c #3B3C44",
"y c #3E3D49",
"u c #3F3E51",
"i c #413E47",
"p c #413E49",
"a c #403F53",
"s c #3E4146",
"d c #3F4149",
"f c #414247",
"g c #43434D",
"h c #48454F",
"j c #44494E",
"k c #49494E",
"l c #454651",
"z c #494653",
"x c #464953",
"c c #4A4B55",
"v c #464559",
"b c #494759",
"n c #474E59",
"m c #4C4D59",
"M c #504C57",
"N c #514D5B",
"B c #4D5057",
"V c #4D515B",
"C c #51535D",
"Z c #54585F",
"A c #4F4E61",
"S c #4F5661",
"D c #535662",
"F c #585662",
"G c #555963",
"H c #595B66",
"J c #555668",
"K c #565A68",
"L c #5A5D6A",
"P c #5E5D70",
"I c #5C626C",
"U c #5D6470",
"Y c #61646E",
"T c #63686E",
"R c #606672",
"E c #656B75",
"W c #656579",
"Q c #666D7A",
"! c #696C7A",
"~ c #6D717D",
"^ c #6D6F83",
"/ c #6B7482",
"( c #707480",
") c #767B89",
"_ c #7B818E",
/* pixels */
"@198tq73777tt7.@39t94349e9qt, 1778tr70r0wtdds0= ,55122<2575rss0X",
",gmmmVCBCCFYYI7,zMNNMNMNANFPt@6DxmmmxmVVCGIII/l=6nVxglxgxxnZIEI2",
",jcMckgmccCYLLt7MzzMMMMMNCNNe=2dlzgggxmVCZGHHRC-0ncxlllllgcnBBZs",
",kcccxcccccZZG7;zMMMMMMMNNNFg=2tglfllxmmbcCHHVm=5dnxlxxllgxnBBZq",
",gccccmxmMCVCD7,MMMbMMMMbNMMp*tlgmllcmcbxxmDSSd=6dnxxxxxlllxxxB7",
"2xcmMkmmcmcxcC0-zMbzbMzMbbMAi>gcxclglgflccylmnd=rdxnnxxcmndlxxj5",
"2gmggmmmMcgggx2&pMbzphMMNNMMe=tmcllgdgllmZxsld8=rndnnldxcxxxjct1",
"-11--122712772@.*12111133341>&tCCmlggllxxxSclx0@=2=6626r8678881-",
"o1q71<<<1,oo-7e77qq,%17q8656:=gDmmcmmcxllcxScms@*1241;o#,5515<:o",
",mBZZxdxCI7,fMNNNCNp;iCNBnBDr=gVmVccxxxllllmSVg=ebxbFF;3xVVVZIQ0",
"2cjcGmxVBVs9NzzcczkM3fccBxxx0$tVcccglytglxxmGDg=wzzxcD37mmVVZZTs",
"1lcxjcHIGZq3MMcbMMzM7fVcBBcVs@sBccCCVxdspdcDDCm>8azbzz17ccxxBZZ9",
"2xlxzZHKGC5,cNMMMMMk20VVVnxm0=txcmBmcxxgyydnVCx=eNzzzM,7VcmxxBB7",
"6lglgZGDCC9;3749qi91%:807rt7-@15,95<=>1<<<<68t0=4e8iqq-8ncxmmcc3",
"4ldgcCCVBCqo111;,11137806<2<$#--,:168=X-,><,,;=$-,145:X2jmgxccf2",
"1xgdjmVVxV8-fBmbCBkkBZVIVxxcxjxBBZDIQSo0lxcVCVxtgmHYEY-;txmcljt5",
"-dDCzccmcm7-gccmxcmccggglllcmVCZZZGVVG<rxllcxcVmmZHHYY%1fgclcxZ8",
"=ycmzcccgV7;gxxxccxgjcxcxxxxcmBVVVSSVx>txlllxccmVDFGHc%9xllljcCq",
"@6mCccmVgx8,jcmgggjgxxxcxxxxxxllxxnVVx<dllxlbmmVVmmcVc;6xxlgjxxq",
"&tCLGVVVgg81xckggcccbxxmcmxgxjcgdsdcBg1dxxcxmmDVdsgjxr-2lxlgjxBs",
"1mCDZZMmfx7,gkjggxxjlxlxxmmxcgxmddnxc0<dxxxmmVVtfljxg8*6cbgllgV0",
"2cCHFCccxc7;fjcmmxgjdggllxgxlglcdnxdZx-slxxnxVtgDmxcmt;7xgglgxx5",
"2efggzfgxj1-0rsjgjlggglgxxxxdgfydnxdmd=edlnnxxgBVncxCs:6r7yfglf2",
"@@&@@-@&--@oo #%#----=-==-;-$;-@>,<<,@=rglllxxBVVVxxCj,;>-&>1<,o",
"o1qfs778tsfkBk737qq% ;,,>,,;127e62221oorxddxxncnVcccmS,;7et9244@",
"*smmVxjmBVBVFETxVGUq@yglgggcMCHHJLR!^2o8dxdnlxxncjcjxC24mNJLFLWy",
"-tgfgdyystgggcZIVZIs@ihgfpgbczaudxVNJ0@rxddxglxxdnBjxx12bMbzDDAe",
"-tftdtyrr0sgjcBGGIIs#ihffipzMbzlvbmmH7orxdxdgddldxnxcB12zbMzMmb4",
"&7ddgytttrwryyxVGHIrofhihfihzzlphcNcF8.1xdngjxdgxdcclm11zzzhlpby",
"<7rsddytrrrerrtgBDD5oephgpMMhzphpzMbF8o2cdjjxddxxxxdxl,2bhzhzppe",
"<getyglyrrrrrrttgmc,@efpphNNcbbchhccC3ornjxjxxdgdxdjlf#9zhzbzzl4",
"<gdrydxxnxyyyydssxB,@7lhphhCFCczhhzgC5@scjxxcgdxcgjxcp*izzczbbbt",
"<gdtylllxzxlgdddggc1@8pphhMCNithhzzfc3*gxxjcnxdVVVBnc0;gxlpzblbg",
",gxlfldggggddftfgtm1@epyppppe9ihzzzfp1@dxxjdjndnnBBnjq;ybzhizzbh",
",gxxcclglgdggggfgfV4#9pyhpieeiiphzzzr1o6jjjxddddjjjBjt,9zzzalbzq",
"=rddfgptre227r07774**eppphieeyihfzzMw=@>58852280ss8889,1iiiyy971",
"X@&-*&@*&&=-:-;---;X*epppppiyypppzMCS1 @o@XXX$$o$=-:;--:--<=*-*.",
"&8yylg**7tsxxgdVZGUr#ypppppieppagfMmJ9X5sdddnVBr$1dBIGdjdsjBVHV;",
"1lxvbPp7cglgddgxBnIx#epipzapppahphzmC8ordnBVBVSB$;lxVIHDIGUEI)_8",
"*azlMLc8ckccllxxBnVr*ipipMNzihppppzcb4@sxxxxnnZj$:lxgjmGIIUIIITs",
"*aabNLi3lgmhggxlBVs5:tpeypbMzppzphpzc9#ymlllgccs-=6lxmVFGIUUIIIs",
">ipzbJe3ldggfgfgfsj2-tyeyppzappzpphzc9otgfdxxgnn:<gdgxmCZDGGIGIt",
">yyzzA83lfgsqedtteg5-ytteeeeiiizpphzb8@sxdgxgxjC51xxdxmCCVmVGIZ5",
"*peaaa43dtdgffdtttg7@epyypiyieeeptppl2=yxlddxxgk12lggmVVmbmVZGj1",
";pippa37xsstdstdffx7O>248weee9884878e1o2ttt8rdfs#,mVVVmmxbmmVVd5",
",zpaaa3*1>>,,,;;<<-o OO.&>*&#-#@#;--;o .X@oX o##.1VZZVBmxxnxcxx5",
",pMMbvw*0stsdDHmddtdyyflSSUm;;0slVjsqr0758tq78f;.5mCVVDmmxxxxgV0",
",pazMbp;lnxgggxVccmVVDLIUKDL22VCmG~~HVVVVSDDGGQB.5gjmVSVmxxxgxD7",
",paNANw>ygdftsydfgbccmDDLLSn-rDDCxCDxlxVSGHLLGSn#5gglmVVVcxlgxn7",
"*ppNNz4;lxlgglldglzzlcVKIGKdotDCVVxxxxnnSLUULGSd@8gjtgnmncclgVV2",
"*9pMMb4,nnnldtdlgglllxxbCVKDo8mVmcxxddxxnGILGSnr#7gsejgxcxlggIU2",
"3iiabv4,VVnmxlnmcgfggyetxmVQ,-yggggddddgxmDVmxdt#5gfxxmcxxxcxcQ7",
"1appza3*BSVVnnnVmxgxggetxcnV2-egggtpgpffdmdtdsyd@<gggdnmxmxxxlGr",
"1apppa3*sVnnccndgdttetetdldV1-fclgdggpifdersdcLV@1lddllgcxxxllVt",
",pMaha3#5sxxjdddxddyfmgtddlc-,yfgggggpyfftgVVVKSo2dgggx6rxxxxxn5",
"#349ii,#<8trtrrrt7555588806<.2ggggghgffggcVVVnVS,-<1588>>,26680-",
"O=<<<<--=&$X=<=$*>*--*;**@@..<gjpldgdddlcVmVmnnV1.#@****>&***&@ ",
">dVSKHmxdddnGEI@wzbvadbbazayo,tgggttesdllxglxxcc1;9abzbNJDbzAPlO",
"&sjddlggxVSGIGZ@yaailappieez1#egggeetyllgggfdldd,4hMzzzzlcMNcNb2",
"<ylxldjgdnZKGDn&eaMhplhzz4tz3o8lggxfddllgyyddddt*3hhMpaMbbbMAbvl",
"-sllxlgxglmSZxr$eaappaazzzpb4.2gkhzgdgfggdtdtpgyo4hzMiiMzMzMbbzh",
"=yxdgxxgxllxxxs@wahhzzpzallz,o,elcmmxlgggdggggge@*igzhppppzzhhp4",
"=0trrtfdfggjdx7@4eeiiiieiww9oO@<25wffgddytrrddaw+>yppaazahgpphl3",
"@=@@@----===-;@o++++#+@@@&OO OOO o&@&**>-&@o&=*&+***;;****;,11,o"
};
