/* XPM */
static char *steamuserimages_a_akamaihd1725026407[] = {
/* columns rows colors chars-per-pixel */
"64 64 115 2 ",
"   c #1F1C17",
".  c #211D17",
"X  c #211D18",
"o  c #26231D",
"O  c #2A251E",
"+  c #2F281E",
"@  c #312A1E",
"#  c #2F2920",
"$  c #332D24",
"%  c #342F28",
"&  c #363026",
"*  c #3A3226",
"=  c #393329",
"-  c #3F3A2F",
";  c #44341A",
":  c #48371A",
">  c #4C391B",
",  c #533D15",
"<  c #473921",
"1  c #4A3B20",
"2  c #423B2F",
"3  c #493F2E",
"4  c #453D32",
"5  c #493F31",
"6  c #574017",
"7  c #5B4117",
"8  c #56421E",
"9  c #5A441E",
"0  c #614115",
"q  c #65451B",
"w  c #734E1D",
"e  c #75501E",
"r  c #79521D",
"t  c #5D4726",
"y  c #5F4827",
"u  c #4C4131",
"i  c #624926",
"p  c #644D2C",
"a  c #6F532D",
"s  c #755524",
"d  c #7B5724",
"f  c #775A22",
"g  c #7C5D22",
"h  c #73562D",
"j  c #76592F",
"k  c #7A5B2F",
"l  c #6F5530",
"z  c #765A30",
"x  c #785B30",
"c  c #7F6030",
"v  c #726E6A",
"b  c #74726F",
"n  c #747473",
"m  c #787877",
"M  c #777778",
"N  c #777879",
"B  c #797979",
"V  c #865716",
"C  c #895917",
"Z  c #845719",
"A  c #865B1C",
"S  c #8A5B1A",
"D  c #8A661E",
"F  c #8F691D",
"G  c #916A1E",
"H  c #9F691F",
"J  c #A66E1F",
"K  c #A86E1F",
"L  c #845D25",
"P  c #8A5F24",
"I  c #835E29",
"U  c #816022",
"Y  c #8D6126",
"T  c #85632F",
"R  c #8C652B",
"E  c #8F682E",
"W  c #916325",
"Q  c #9A6724",
"!  c #9D6B25",
"~  c #91672A",
"^  c #956C2E",
"/  c #9D6F28",
"(  c #9D712D",
")  c #876430",
"_  c #A36C22",
"`  c #A86F20",
"'  c #A47227",
"]  c #A97020",
"[  c #A4742B",
"{  c #A9772C",
"}  c #AB792D",
"|  c #82817E",
" . c #858584",
".. c #8B8782",
"X. c #8C8A87",
"o. c #878788",
"O. c #8C8B8A",
"+. c #929292",
"@. c #9D9D9C",
"#. c #A29C93",
"$. c #A19E9A",
"%. c #A4A19D",
"&. c #A4A4A4",
"*. c #A7A7A8",
"=. c #A6A8AA",
"-. c #A8A9A9",
";. c #BCBAB6",
":. c #BEBDBC",
">. c #C4BEB6",
",. c #C6C3BF",
"<. c #C3C3C3",
"1. c #C8C6C2",
"2. c #CCCCCC",
"3. c #CFCFD0",
"4. c #CFD1D3",
/* pixels */
"4 4 5 4 4 - - - - 4 2 - 2 2 2 - 2 2 - - 2 u 4 4 u 4 4 4 2 4 4 4 2 2 - 2 2 4 4 4 4 u 4 4 4 4 4 u 4 4 4 4 2 4 u 4 4 4 4 4 % % % # ",
"4 4 4 4 - - 4 - - - - - 2 - - 2 - 2 2 2 u 2 4 4 4 4 u 4 4 4 4 2 2 2 2 2 u 4 4 4 4 4 4 4 4 u 4 4 4 4 - u u 2 4 4 4 4 u 4 % % % % ",
"4 4 4 u - - - - - - - - - - - - - - - - 4 4 4 4 4 4 4 - 2 2 4 2 - - - - 4 4 4 4 4 4 4 4 4 4 4 4 4 4 4 4 - u u u 4 4 4 4 $ % # % ",
"4 4 4 4 - u u u u u u 2 u 2 u u u 2 u u u u u u u u u u u u u u 2 u 2 u u u u u u u u u u u u u u u u u u u u u u u u u $ % # $ ",
"u 4 4 u ( [ } [ / ' / / H H J H ( / / ( / / / ! U D D D D D D D D D D D D D D D D D D D / _ ' ! U Y D D / / / / [ { [ ( # o O O ",
"4 4 4 u { } } } ' ' ' ' J K K K ] ' ' ] ' ' ' ' G G G G F F F F F G F F F F F F F F F G [ ' ' ' G G G G ' ' ' { } } } { # o o O ",
"4 u 4 u [ } } } ' ' ' ' J J K K ' ' ' ' ' ' ' ' G F F F F F F F F F F F F F F F F F F F ' ' ' ' G F F G ' ' ' ' } } } { @ o O O ",
"4 4 4 u [ } } } ' ' ' / J J J J ' ' ' ' ' ' ' ' G G G G F F F F F F F F G G G G G G G W ' ' ' ' G G F G ' ' ' ' } } } ( @ o O o ",
"4 4 4 u { } } { G G G G G G G G G G G G G G G G ' ' ' / D A A A Y D Y Y { } } } { } { { ' ' [ ' J J J ` } } } } } } } } @ o O o ",
"4 4 4 u [ } } { G F F F F F G F F G F F F F F G ' ' ' ' A L U L Y Y U Y } } } } } } } } ' ' ' ' ` J J ` } } } } } } } ( @ O O O ",
"u 4 4 u [ } } { G F F F F F F F F F F F F F F G ' ' ' ' A A Z A D Y D Y { } } } } } } } ' ' ' [ J J J ` } } } } } } } { @ o O o ",
"4 4 4 u [ } { { G G G G G G G G F F F F G G F G / _ ' / R R R R R R R ^ { { { { } } } } ' ' ' _ ` J K K { } { } } } } ( @ o O O ",
"4 4 4 5 Q _ _ _ _ ! _ ! J J J J J J J J J J J J S S C Y ,.1.1.1.%.%.%.@.D C S S _ _ _ _ _ _ _ _ _ _ _ _ _ _ _ _ J J ] H @ O O O ",
"4 4 2 5 Q _ _ _ _ _ _ _ J K J J J J J J J J J J S C V Y 1.4.2.2.=.&.=.%.P V S S ! _ Q _ _ _ Q _ _ ! _ _ _ _ ! _ J J ] H @ O O O ",
"4 4 2 5 Q _ _ _ _ _ _ _ J J J K J J J J J J J J S S V Y ,.2.2.2.-.&.&.%.S V S S _ _ _ _ _ _ _ _ _ _ Q _ J ! H H J J ] H @ O O O ",
"2 4 4 5 Q _ Q _ _ Q H H J J J J J J J J J J J J S A V Y 1.2.2.2.*.&.&.$.P V Z Z Q _ ! _ _ Q _ _ _ Q _ _ ' H ' J J J ] H @ O O O ",
"4 4 4 4 L U U U U U U U U U U U U U U U ( ^ ^ ^ d d f k >.<.<.:.O.o.o. .9 6 6 7 d L L L W W W Q W ~ ~ ~ ~ ~ ~ ~ W ~ ~ R $ o # o ",
"4 4 5 5 d g g U g g g U U g U g g U U g ^ ^ ^ ^ k d s c :.<.<.:.o. .o.| 8 , , 6 d L r L W W W P R ~ ~ R ~ ~ ~ R R ~ ~ P # # o # ",
"4 4 4 5 g L U U g L L L U g U g U U g U ^ ^ ^ ^ d d s ) ;.<.<.:.O. .o.| 9 , , 6 g U L L W Q Q Q ~ ^ ~ ~ ~ ~ ~ ~ ~ ~ ~ R $ o # o ",
"4 4 5 4 f g g g d d d e g g r g g g g g E E E E s s s k ;.<.<.:.o. . .| 6 , , , f g L Z P C P P I P R I R I R P I R ~ I # o # o ",
"2 - 2 2 * & * & 2 $ ; 2 2 % ; 2 = = = * * * * * $ @ @ * $.-.&.&.B m N n $ + + + * * * < * * * * * * * * * % $ * * * * & . . . . ",
"2 2 - - & # # & $ $ # % # % $ $ & & & & & & & & O O O % $.&.&.&.B m n b $ O O + % $ % % % % * * $ % $ $ $ $ $ $ $ $ $ $ . .     ",
"- 2 2 - % % & $ $ $ @ # $ $ $ $ & & & & & & & & O O o % @.-.&.&.N n N b $ O + O & & % $ % % = = $ $ $ $ $ $ $ $ $ $ $ $         ",
"- 2 2 - & * & & ; $ 2 2 $ 2 $ 2 * = * * * * * * $ # + = @.*.&.$.B n N b $ O + @ * * * * = = = = = * = & % * & * = $ % % X   X . ",
"u u - u l h l j l h l j l l a l h h h h j j l l i t t p O.@.+.+.N N M b < ; ; ; w a a a h h l h l l l l l l l l l h j l # X # # ",
"4 4 4 u x x x x x x x x h h h j k k x x x x x x p i i p O.+.+.O.N n m b < ; ; : h r h r k k x x I z T z z z T z j j j j # # # o ",
"4 4 4 u h j j j x j l x h h h h x z z z j l x z p i i p O.+.+.+.N M m b : ; ; ; a h h h h h x z z z z z z z z z j j x l # # o # ",
"4 4 - u j k j d j k x x j j h h k k x x x x x z p i i p ..O.X.X.n n n v 1 : : > h r h h k k x k z z l T l T z I j x x j # o # o ",
"4 4 3 3 P W W W Y P P P Y P Y Y Y T Y Y Y Y Y P w w w w q i q q q q q q e w w e Y Y Y Y R Y R Y ) Y Y Y Y Y R Y I I I d # # o # ",
"2 4 2 3 W W Q W Y ~ ~ W Y Y Y Y Y Y W Y Y Y Y Y w w s w 0 0 0 0 0 0 0 0 e e r r Y Y Y Y Y Y Y Y Y Y Y Y Y Y Y Y L L L d # X # X ",
"2 2 3 3 P W G W Y P Y Y Y Y Y Y Y Y Y Y Y Y Y Y w w w w 0 0 0 0 0 , 0 0 w e w r Y Y Y Y Y Y Y Y Y Y Y Y Y Y Y P L L L d @ O O O ",
"2 2 2 3 W W W W W ~ W Y ~ Y ~ W W W Y W Y W W Y s w w w q q 0 q q q q q r r r r Y W Y W W W Y Y W W W W Y Y Y P L L L L + o O O ",
"4 4 4 u ( } } } { { { } { { { } { } { { ` J J J F F F F [ } [ [ ] { { { _ ' ' ' ' ' ' ' / ' ' ' } } } } } } } { ^ E ^ R + o o O ",
"u 4 4 u } } } } } } } } } } } } } } } } ` J J J G F F G } } } } } } } } ' ' ' ' ' ' ' ' ' ' ' { } } } } } } } } ^ ^ ^ E # o O o ",
"4 4 u u [ } } } } } } } } } } } } } } } ` J J J F F F F } } } } } } } } ' ' ' ' ' ' ' ' ' ' ' ' } } } } } } } } ^ ^ ^ E @ o o O ",
"4 4 2 u { } } } { } { { } } } } } } } [ ` ` K J G F G G } } } } } } } } ' ' ' ' ' / ' ' ' ' ' ' } } } } [ } } } ^ ^ ^ E @ o O o ",
"- 2 - u D G G G W F G G G G G G F G G W [ } } } ' ' ' ' ' ' [ ' Q G G G F F G F G G G G J J J ] } } } } G F G G D g g g + o O o ",
"- 2 - 2 D F G G F F F F F F F F F F F G } } } } ' ' ' ' ' ' ' ' F F F G F F F F F F F F J ] J J } } } { F F F F g g D g O o O O ",
"- - - u D G D G F G F F F F F G F G F G } } } } ' ' ' ' ' ' ' ' F F F F F F F F G F G G J J ] J } } } { G F F D g g g g O o O O ",
"- - - u D G G G G G G G G G G G G G G G } } } } ' ' ' ' ' ' ' _ F F F F F F G F G G G G J J J J } } } } Q G G F D g g f + o O o ",
"u 2 4 u ^ ' ' ' ' ' ' ' ' ' ' ' } } } } } } } } G G G G G G G G F F F F F F F G ' ' ' ' ' ' ' ' ' ' ' ' ' ' ' ' E F ~ Y + o o o ",
"4 u 4 u ( ' ' ' ' ' ' ' ' ' ' [ } } } } } } } } G F G F F F F G F F F F F F F G ' ' ' ' ' ' ' ' ' ' ' ( ' ' ' ' E E ~ R + o o o ",
"4 u - u / ' ' ' ' ' ' ' ' ' ' ' } } } } } } } } G G F F F F F F F F F F F F F G ' ' ' ' ' ' ' ' ' ' ' ' ' ' ' ' ~ ~ ~ R + o o O ",
"4 4 4 u / ' ' ' ' ' ' _ ' ' ' ' } } } } } } } { G F F F G G F F G G G G F F F F ' ' ' ' ' ' ' ' [ ' ' ' ' ' ' ' E ~ ~ U + o O o ",
"4 3 3 3 ! ` _ ! ` J ` ` ` ` ` ` _ _ _ _ _ _ _ _ ! _ _ ! J J J J K J J J J J J J J J J ] J J J J _ _ _ _ _ _ ! ! W Y Y P @ O O O ",
"2 2 2 3 ! _ _ _ K J J J K _ ` ` _ _ _ _ ! _ _ _ _ _ _ _ J J J J K K J J J J J J J J J J K ] K J _ _ _ _ _ _ _ _ Y P W P @ O O O ",
"3 2 2 3 Q _ _ _ J J K K K J ` _ ! _ ! _ _ _ ! _ ! _ / J J J J J J J J J J J J J J J J J K K J J _ _ _ _ ! _ _ _ W P Y L @ O O O ",
"2 2 2 5 Q ` ! _ ` ` J K _ ` ` _ _ _ _ _ _ ! _ _ _ _ J / J J J J J J J J J J J J J J J J J J J J _ Q _ _ _ _ _ _ W Y Y D @ O O O ",
"4 4 4 5 [ } } } } } } } } } } } } } } } W F G G } } } } G G G G G G G G G G G G G G G G G G G G / [ _ ' ` J J ` ^ ~ ^ E $ O # O ",
"5 4 5 5 { } } } } } } } } } } } } } } } G F F G } } } } F F F G G F F F F F F F F F G F F F F G ' ' ' ' J J J ` ^ ^ ^ E @ O o # ",
"4 5 5 5 { } } } } } } } } } } } } } } } F F F G } } } } G G F F F F F G F F F F F F F F F F F G ' ' ' ' J J J J ^ ^ ^ E # X # # ",
"4 5 5 u ' { } { } } } } } } } } } } } } G G G Q } } } [ G F F F G G G G F G F F G G F G G F F G ' ' ' ' J J J J ^ ~ ^ E # # # o ",
"4 4 4 5 D G G G K K ` ` } } } } } } } } } } } } } } } } G F F G ' } } } ' ' ' ' ' ' ' ' G F F F W W G W G G G F U U U g # O O O ",
"4 4 4 5 D G F F J _ ` ` } } } } } } } } } } } } } } } } G F F G } } } } { ' ' ' ' ' ' ' F F F F G G F F G G F F U g U f $ o O O ",
"4 4 4 5 D G F G J J ` ` } } } } } } } } } } } } } } } } G F F G } } } } ' ' ' ' ' ' ' ' G F F F F F F F F F F F g g U g # o + o ",
"4 4 2 4 D G F G J J ` ` { { } } { { { { } } } } } } } [ G F F F { } } } ' ' ' ' ' / ' / F F F F F F F F F F G F U U g g + + o + ",
"4 u - u E ^ ^ E L L U U U U U U U U U U ^ ^ ^ ^ ^ ^ ^ ^ U U g U ^ ^ ^ ^ ^ ^ ^ ^ U U U U ~ W ~ ~ ^ ^ ^ ^ ^ ^ ^ ^ ) T T g $ O O # ",
"4 - u u E ^ ^ ^ g d g g U U U g g g U U ^ ^ ~ ^ ^ ^ ^ ^ U U g g ^ ^ ^ ^ ^ ^ ^ ^ g L g U R ~ ~ R ^ ^ ^ ^ ^ ^ ^ ^ T T T c @ O # O ",
"u - u u ^ ^ ! ^ U U U g U U U U U U U L ^ ^ ^ ^ ^ ^ ^ ^ U U g D ^ ^ ^ ^ ^ ^ ^ ^ U U A L ~ ~ ~ R ^ ^ ^ ^ ^ ^ ^ ^ ) T T c # # # o ",
"- u - u R E ~ Y g r g g g f g g f g f d E E E E E E E R g g g g R R E E E E E E g f f L R T Y Y E E R E E E E ~ c c c j # o # o ",
"# # o # @ @ @ @ @ @ @ @ + @ @ @ + + @ + @ @ @ @ @ @ @ @ @ + @ @ @ @ @ @ + @ @ @ # @ @ $ # # # $ # # # # $ # @ # @ + + $ X . X X ",
"# # # X . O + O O + . O O O O + O o O # O O o O + o O + O O O o O o O O o o o + # X O X O O o o o o o X X # O o o O o o   . . . ",
"X # X # O O O O O O O O + O + O # O O O O O O O O O O + O O O O O O O O O O + o O O O O O O # o o o o o O O # O O O O O . . . . ",
"# # X # O O O O O O O O O O O O O O O O O O O O O O + O O O O O O O O O O O O o O O O O O O o # o o o o O O O O O O O o . . . . "
};
