/* XPM */
static char *_ad80c79f58248e099e254365799f243ALkFQWzAVjXXbSSo[] = {
/* columns rows colors chars-per-pixel */
"64 64 153 2 ",
"   c #2A2626",
".  c #262425",
"X  c #18181B",
"o  c #111517",
"O  c #312A2A",
"+  c #433131",
"@  c #272425",
"#  c #1C1C1D",
"$  c #1A1A1C",
"%  c #17181B",
"&  c #252325",
"*  c #242223",
"=  c #16171A",
"-  c #131517",
";  c #1B1B1E",
":  c #282526",
">  c #3B2D2D",
",  c #4E3636",
"<  c #483434",
"1  c #3B2E2E",
"2  c #232222",
"3  c #191A1C",
"4  c #302A2A",
"5  c #232223",
"6  c #18191B",
"7  c #16191B",
"8  c #1D1D1F",
"9  c #292626",
"0  c #18191C",
"q  c #1B1B1C",
"w  c #232122",
"e  c #1A1B1C",
"r  c #493332",
"t  c #342C2D",
"y  c #1C1C1E",
"u  c #403031",
"i  c #403030",
"p  c #1B1B1D",
"a  c #17181A",
"s  c #252223",
"d  c #1E1E1F",
"f  c #131618",
"g  c #252324",
"h  c #5B3A39",
"j  c #4B3535",
"k  c #2E292A",
"l  c #242224",
"z  c #16181A",
"x  c #222122",
"c  c #483232",
"v  c #623F3C",
"b  c #453232",
"n  c #1F1E1F",
"m  c #15181A",
"M  c #553838",
"N  c #382D2E",
"B  c #372C2C",
"V  c #463332",
"C  c #212021",
"Z  c #4D3535",
"A  c #593939",
"S  c #2F2929",
"D  c #141719",
"F  c #262324",
"G  c #372C2D",
"H  c #503737",
"J  c #2F292A",
"K  c #463434",
"L  c #202020",
"P  c #1F1F20",
"I  c #493434",
"U  c #3D2F2F",
"Y  c #2B2627",
"T  c #15171A",
"R  c #252224",
"E  c #202021",
"W  c #362C2C",
"Q  c #332B2C",
"!  c #151619",
"~  c #463232",
"^  c #523737",
"/  c #3F2F2F",
"(  c gray13",
")  c #2D2829",
"_  c #1D1D1E",
"`  c #292526",
"'  c #352B2B",
"]  c #63403D",
"[  c #503636",
"{  c #201F20",
"}  c #382C2C",
"|  c #4B3434",
" . c #593A39",
".. c #453231",
"X. c #352C2C",
"o. c #302A2B",
"O. c #18181A",
"+. c #332B2B",
"@. c #653F3D",
"#. c #573A38",
"$. c #252425",
"%. c #282626",
"&. c #5E3C3B",
"*. c #4D3637",
"=. c #2B2727",
"-. c gray12",
";. c #222022",
":. c #5C3C3B",
">. c #423131",
",. c #131718",
"<. c #3A2E2F",
"1. c #3C2F2F",
"2. c #3C2E2E",
"3. c #3A2D2D",
"4. c #19191C",
"5. c #1E1D1F",
"6. c #181A1C",
"7. c #342B2B",
"8. c #5E3D3B",
"9. c #4B3536",
"0. c #352C2D",
"q. c #121617",
"w. c #5B3B3B",
"e. c #3F3031",
"r. c #272426",
"t. c #2C2728",
"y. c #272526",
"u. c #2B2628",
"i. c #141618",
"p. c #4D3636",
"a. c #603D3C",
"s. c #2A2627",
"d. c #2E2828",
"f. c #312B2C",
"g. c #19191B",
"h. c #523736",
"j. c #4D3635",
"k. c #2D2828",
"l. c #2D2929",
"z. c #382D2D",
"x. c #523636",
"c. c #2C2828",
"v. c #111416",
"b. c #121517",
"n. c #543838",
"m. c #423030",
"M. c #5B3C3B",
"N. c #402F2F",
"B. c #222222",
"V. c #453131",
"C. c #543737",
"Z. c #141518",
"A. c #5E3D3C",
/* pixels */
"  . X o O + @ # $ % & * = - ; :   . X - > , < 1 2 3 4 5 6 7 8 :   . X - > , < 1 2 3 4 5 6 7 8 :   . X o O + @ # $ % & * = - ; 9 ",
"0 q w e 6 q w r t y u i 6 p : a X q s d q   2 # f g h j k l 1 y a q s d q   2 # f g h j k l 1 y a q w e 6 q w r t y u i 6 p : z ",
"x c v b n m c M 5 8 u N # B V p C Z A S D n @ F n y G H J @ K # L Z A S D n @ F n y G H J @ K # P I v b n m c M 5 8 u N # B V y ",
"& U , + Y T 5 g f R N E z W Q ! 5 I ~ g n ^ A H K C 6   # q 9 % 5 I ~ g n ^ A H K C 6   # q 9 X C / , + Y T 5 g f R N E z W O ! ",
"( y ) : _ 6 ` @ C e $ X 3 8 % L l d L z ' ] [ j 1 C z F R e z { l d L z ' ] [ j 1 C z F R e z { 5 y ) : _ 6 ` @ C e $ X 3 8 % n ",
"/ X f z = } ] [ t p * | ~ k &  ...e = p 4 i X.o._ O.+.@.~ 5 ( #...e = p 4 i X.o._ O.+.@.~ 5 ( #...X f z = } ] [ t p * | ~ k $. .",
". q : 8 s [ V < %.q ~ &.*.=.g ~   p t i -._ # 6 C ;.[ :.>.E C V   p t i -._ # 6 C ;.[ :.>.E C V   q : 8 s [ V < %.q ~ &.*.=.g < ",
",.n >.F 6 & <.: z = t 1.+._ f e ! P < 2.p X a J :.9 x 3.=.$ f e ! P < 2.p X a J :.9 x 3.=.$ f e ! n >.F 6 & <.: z = t 1.+._ f e ",
"3 0 8 4.m = $ 5.* 3 # L e ! 5   ; 6.* L C I B : 3.@ - 0 ! m 5   ; 6.* L C I B : 3.@ - 0 ! m 5   ; % 8 4.m = $ 5.* 3 # L e ! 5 =.",
"E . | 1   8 P b 1 e 0 % = 7.v M l x   n Y 8.^ F = $ C 9 8 W v M l x   n Y 8.^ F = $ C 9 8 W v M l . | 1   8 P b 1 e 0 % = 7.v :.",
"P I ] b < =.q =.n ;.b 4 R  .8...C Z :.) 6 B 1 L T t h 9.g | :...C Z :.) 6 B 1 L T t h 9.g | :...x I ] b < =.q =.n ;.b 4 R  .:.j ",
"y 0.Z Z 1 L q.z   :.w.o.@ H Z +.q W 1 L q.$ 8 0 = s o.g 4.e.[ +.q W 1 L q.$ 8 0 = s o.g 4.e.[ +._ 0.Z Z 1 L q.z   :.w.o.@ H j W ",
"- p =.=.C 6 C r.1 [ b g X t.9 C ! 6 8 z 0 E 1 y.C u.R X z   O C ! 6 8 z 0 E 1 y.C u.R X z   O C i.p =.=.C 6 C r.1 [ b g X t.9 x ",
"z m T # ! C @ @ *.p.>.5 f z 0 X 0 m X W + 8 s n ..a.^ s.0 e 6 X 0 m X W + 8 s n ..a.^ s.0 e 6 X z m T # ! C @ @ *.p.>.5 f z 0 6 ",
"< R P ) 3 q p 8 d.f.2 g.* y +.h.< R x I F _ ` x B I 3.C O =.s j.< R x I F _ ` x B I 3.C O =.s j.< l P ) 3 q p _ k.f.2 4.* y 7.[ ",
"[ i d 6 * j | l.X a i.2 z._ + :.[ i 8 6 -.[  .~ 2 q X 5.W P / :.[ i 8 6 -.x. .e.{ q 6 n B n / :.[ i d 6 5 | j +.q O.i.C } 8 + 8.",
"c.9 6 v.O | =.-.3 m ( R 6 ,.d u.c.9 6 b.} ^ < U 2 a   x q % E u.c.9 6 v.o.<   { q m C x 6 f d u.c.9 6 b.3.n.j 1.C a u.R q % E t.",
"6 q w q 6 q x r t _ i i X p : z a q s d e   x # - g :.Z k l 1 # a q w q 6 q x r t _ i m.X p : z a q s d e   x # - g :.Z k l 1 _ ",
"x c v b n m c M 5 8 u N # B V p C Z A S D n @ F n y G H J @ K # P I v b n m c M 5 8 u N # B V p C Z A S D n @ F n y G H J @ V _ ",
"& U , + Y T 5 g f R N E z W Q ! 5 I ~ g n ^ A H K C 6   # q 9 X C / , + Y T 5 g f R N E z W Q ! 5 I ~ g n ^ A H K C 6   # q 9 X ",
"( y ) : _ 6 ` @ C e $ X 3 8 % L l d L z ' ] [ j 1 C z F R e z { 5 y ) : _ 6 ` @ C e $ X 3 8 % L l d L z ' ] [ j 1 C z F R e a d ",
"/ X f z = } ] [ t p * | ~ k &  ...e = p 4 i X.o._ O.+.@.~ 5 ( #...X f z = } ] [ t p * | ~ k &  ...e = p 4 i X.o._ O.+.@.~ 5 x #.",
". q : 8 s [ V < %.q ~ &.*.=.g ~   p t i -._ # 6 C ;.[ :.>.E C V   q : 8 s [ V < %.q ~ &.*.=.g ~   p t i -._ # 6 C ;.[ :.>.E C < ",
",.n >.F 6 & <.: z = t 1.+._ f e ! P < 2.p X a J :.9 x 3.=.$ f e ! n >.F 6 & <.: z = t 1.+._ f e ! P < 2.p X a J :.9 x 3.=.$ f e ",
"3 0 8 4.m = $ 5.* 3 # L e ! 5   ; 6.* L C I B : 3.@ - 0 ! m 5   ; % 8 4.m = $ 5.* 3 # L e ! 5   ; 6.* L C I B : 3.@ - 0 ! m 5 =.",
"E . | 1   8 P b 1 e 0 % = 7.v M l x   n Y 8.^ F = $ C 9 8 W v M l . | 1   8 P b 1 e 0 % = 7.v M l x   n Y 8.^ F = $ C 9 8 W v :.",
"P I ] b < =.q =.n ;.b 4 R  .8...C Z :.) 6 B 1 L T t h 9.g | :...x I ] b < =.q =.n ;.b 4 R  .8...C Z :.) 6 B 1 L T t h 9.g | M.j ",
"y 0.Z Z 1 L q.z   :.w.o.@ H Z +.q W 1 L q.$ 8 0 = s o.g 4.e.[ +._ 0.Z Z 1 L q.z   :.w.o.@ H Z +.q W 1 L q.$ 8 0 = s o.g 4.e.[ W ",
"- p =.=.C 6 C r.1 [ b g X t.9 C ! 6 8 z 0 E 1 y.C u.R X z   O C i.p =.=.C 6 C r.1 [ b g X t.9 C ! 6 8 z 0 E 1 y.C u.R X z   O 2 ",
"z m T # ! C @ @ *.p.>.5 f z 0 X 0 m X W + 8 s n ..a.^ s.0 e 6 X z m T # ! C @ @ *.p.>.5 f z 0 X 0 m X W + 8 s n ..a.^ s.0 e 6 6 ",
"< R P ) 3 q p _ k.f.2 4.* y +.h.< R x I F _ ` x B I 3.C O =.s j.< l P ) 3 q p 8 d.f.2 g.* y +.h.< R x I F _ ` x B I 3.C O =.s | ",
"[ i d 6 5 | j +.q O.i.C } 8 + :.[ i 8 6 -.x. .e.{ q 6 n B n / :.[ i d 6 * j | l.X a i.2 z._ + :.[ i 8 6 -.[  .~ 2 q X 5.W P N.8.",
"c.9 6 b.3.n.j 1.C a u.R q % E u.c.9 6 v.o.<   { q m C x 6 f d u.c.9 6 v.O | =.-.3 m ( R 6 ,.d u.c.9 6 b.} ^ < U 2 a   x q % E t.",
"6 q s d e   x # - g :.Z k l 1 # a q w q 6 q x r t _ i m.X p : z a q w q 6 q x r t _ i i X p : z a q s d e   x # - g :.Z k l 1 _ ",
"* | A S D n @ F n y G H J @ K # P I v b n m c M 5 8 u N # B V p E I v b n m c M 5 8 u N # B V p C Z A S D n @ F n y G H J @ V _ ",
"r.I ~ g n ^ A H K C 6   # q 9 X C / , + Y T 5 g f R N E z W Q ! C / , + Y T 5 g f R N E z W Q ! 5 I ~ g n ^ A H K C 6   # q 9 X ",
"x d L z ' ] [ j 1 C z F R e z { 5 y ) : _ 6 ` @ C e $ X 3 8 % L 5 y ) : _ 6 ` @ C e $ X 3 8 % L l d L z ' ] [ j 1 C z F R e a d ",
"/ q = p 4 i X.o._ O.+.@.~ 5 ( #...X f z = } ] [ t p * | ~ k &  ...X f z = } ] [ t p * | ~ k &  ...e = p 4 i X.o._ O.+.@.~ 5 x #.",
". p t i -._ # 6 C ;.[ :.>.E C V   q : 8 s [ V < %.q ~ &.*.=.g ~   q : 8 s [ V < %.q ~ &.*.=.g ~   p t i -._ # 6 C ;.[ :.>.E C < ",
"f P < 2.p X a J :.9 x 3.=.$ f e ! n >.F 6 & <.: z = t 1.+._ f e ! n >.F 6 & <.: z = t 1.+._ f e ! P < 2.p X a J :.9 x 3.=.$ f e ",
"3 3 * L C I B : 3.@ - 0 ! m 5   ; % 8 4.m = $ 5.* 3 # L e ! 5   ; % 8 4.m = $ 5.* 3 # L e ! 5   ; 6.* L C I B : 3.@ - 0 ! m 5 =.",
"E B.  n Y 8.^ F = $ C 9 8 W v M l . | 1   8 P b 1 e 0 % = 7.v M l . | 1   8 P b 1 e 0 % = 7.v M l x   n Y 8.^ F = $ C 9 8 W v :.",
"8 Z :.) 6 B 1 L T t h 9.g | :...x I ] b < =.q =.n ;.b 4 R  .8.V.x I ] b < =.q =.n ;.b 4 R  .8...C Z :.) 6 B 1 L T t h 9.g | M.j ",
"q W 1 L q.$ 8 0 = s o.g 4.e.[ +._ 0.Z Z 1 L q.z   :.w.o.@ H Z +._ 0.Z Z 1 L q.z   :.w.o.@ H Z +.q W 1 L q.$ 8 0 = s o.g 4.e.[ W ",
"f 6 8 z 0 E 1 y.C u.R X z   O C i.p =.=.C 6 C r.1 [ b g X t.9 C i.p =.=.C 6 C r.1 [ b g X t.9 C ! 6 8 z 0 E 1 y.C u.R X z   O 2 ",
"6.m X W + 8 s n ..a.^ s.0 e 6 X z m T # ! C @ @ *.p.>.5 f z 0 6 z m T # ! C @ @ *.p.>.5 f z 0 X 0 m X W + 8 s n ..a.^ s.0 e 6 6 ",
"< g x I F _ ` x B I 3.C O =.s j.< l P ) 3 q p _ k.f.2 4.* y +.h.< l P ) 3 q p 8 d.f.2 g.* y +.h.< R x I F _ ` x B I 3.C O =.s | ",
"[ i 8 6 -.x. .e.{ q 6 n B n / :.[ i d 6 5 | j +.q O.i.C } 8 + :.[ i d 6 * j | l.X a i.2 z._ + :.[ i 8 6 -.[  .~ 2 q X 5.W P N.8.",
"c.9 6 v.o.<   { q m C x 6 f d u.c.9 6 b.3.n.j 1.C a u.R q % E u.c.9 6 v.O | =.-.3 m ( R 6 ,.d u.c.9 6 b.} ^ < U 2 a   x q % E t.",
"6 q w q 6 q x r t _ i m.X p : z a q s d e   x # - g :.Z k l 1 # a q w q 6 q x r t _ i i X p : z a q s d e   x # - g :.Z k l 1 _ ",
"x c v b n m c M 5 8 u N # B V p C Z A S D n @ F n y G H J @ K # P I v b n m c M 5 8 u N # B V p C Z A S D n @ F n y G H J @ V _ ",
"& U , + Y T 5 g f R N E z W Q ! 5 I ~ g n ^ A H K C 6   # q 9 X C / , + Y T 5 g f R N E z W Q ! 5 I ~ g n ^ A H K C 6   # q 9 X ",
"( y ) : _ 6 ` @ C e $ X 3 8 % L l d L z ' ] [ j 1 C z F R e z { 5 y ) : _ 6 ` @ C e $ X 3 8 % L l d L z ' ] [ j 1 C z F R e a d ",
"/ X f z = } ] [ t p * | ~ k &  ...e = p 4 i X.o._ O.+.@.~ 5 ( #...X f z = } ] [ t p * | ~ k &  ...e = p 4 i X.o._ O.+.@.~ 5 x #.",
". q : 8 s [ V < %.q ~ &.*.=.g ~   p t i -._ # 6 C ;.[ :.>.E C V   q : 8 s [ V < %.q ~ &.*.=.g ~   p t i -._ # 6 C ;.[ :.>.E C < ",
",.n >.F 6 & <.: z = t 1.+._ f e ! P < 2.p X a J :.9 x 3.=.$ f e ! n >.F 6 & <.: z = t 1.+._ f e ! P < 2.p X a J :.9 x 3.=.$ f e ",
"3 0 8 4.m = $ 5.* 3 # L e ! 5   ; 6.* L C I B : 3.@ - 0 ! m 5   ; % 8 4.m = $ 5.* 3 # L e ! 5   ; 6.* L C I B : 3.@ - 0 ! m 5 =.",
"E . | 1   8 P b 1 e 0 % = 7.v M l x   n Y 8.^ F = $ C 9 8 W v M l . | 1   8 P b 1 e 0 % = 7.v M l x   n Y 8.^ F = $ C 9 8 W v :.",
"P I ] b < =.q =.n ;.b 4 R  .8...C Z :.) 6 B 1 L T t h 9.g | :...x I ] b < =.q =.n ;.b 4 R  .8...C Z :.) 6 B 1 L T t h 9.g | M.j ",
"y 0.Z Z 1 L q.z   :.w.o.@ H Z +.q W 1 L q.$ 8 0 = s o.g 4.e.[ +._ 0.Z Z 1 L q.z   :.w.o.@ H Z +.q W 1 L q.$ 8 0 = s o.g 4.e.[ W ",
"- p =.=.C 6 C r.1 [ b g X t.9 C ! 6 8 z 0 E 1 y.C u.R X z   O C i.p =.=.C 6 C r.1 [ b g X t.9 C ! 6 8 z 0 E 1 y.C u.R X z   O 2 ",
"z m T # ! C @ @ *.p.>.5 f z 0 X 0 m X W + 8 s n ..a.^ s.0 e 6 X z m T # ! C @ @ *.p.>.5 f z 0 X 0 m X W + 8 s n ..a.^ s.0 e 6 6 ",
"< R P c.3 p # 8 k.O 2 4.* y +.x.< R x < F 5.` x B < z.C O =.s j.< l P c.3 p # 8 k.O 2 4.* y +.x.< R x < F 5.` x B < z.C O =.s | ",
"C.>.d 4.E | I J 6 6 Z.s U d | A.C.>._ 6 # [ h V.C # 6 -.1 C ~ A.C.>.d 4.E | I J 6 6 Z.s U d | A.C.>._ 6 # [ h V.C # 6 -.1 C ~ a."
};
