/* XPM */
static char *Background1725641530[] = {
/* columns rows colors chars-per-pixel */
"64 64 62 1 ",
"  c #070D10",
". c #071113",
"X c #0B1316",
"o c #0D161A",
"O c #0E191B",
"+ c #111316",
"@ c #12161A",
"# c #131B1E",
"$ c #181C1E",
"% c #151E21",
"& c #191E22",
"* c #162124",
"= c #1A2226",
"- c #172628",
"; c #1D2629",
": c #1E292C",
"> c #21262A",
", c #222A2E",
"< c #232D31",
"1 c #292F33",
"2 c #253134",
"3 c #293336",
"4 c #263638",
"5 c #2B3639",
"6 c #273939",
"7 c #2D3A3C",
"8 c #313B3E",
"9 c #2D3D41",
"0 c #323D41",
"q c #2F4145",
"w c #344245",
"e c #384446",
"r c #354549",
"t c #3A4649",
"y c #36484A",
"u c #3C4A4C",
"i c #3E4D51",
"p c #3E5253",
"a c #3E5856",
"s c #404C4E",
"d c #414E51",
"f c #435355",
"g c #485356",
"h c #455659",
"j c #49565A",
"k c #465A5B",
"l c #4A5B5D",
"z c #505A5F",
"x c #48605F",
"c c #465B61",
"v c #4C5D61",
"b c #505E62",
"n c #476161",
"m c #4C6163",
"M c #4D6368",
"N c #526265",
"B c #536669",
"V c #5A676B",
"C c #556B6C",
"Z c #59686A",
"A c #5D6D73",
"S c #5D7374",
/* pixels */
"o-9909r0q9999999494444,<@%%o=19090000909r09r99009@%#%;&--<4<4<--",
"%<9ivhbcMMMMMMMMcMcpcc09,%o=909dcMccMccMccbMvvbc9&%&100iiriipc9:",
";19gvvljvvvccncnMMcich099%o;90ccMMcMMcMMllblcvbd9=o%90gccichcM9:",
"%,9vbvvNvvvvccccccdhcvhi0<%*10bcccccbccMvbblcbj099@,sczccccccc9-",
"%<5vlljlzmzzMmNmcjjjzczj09;&;9zzljllczbzlzzljbd5>1@<dcbchccjhj9>",
"-,3fbbzjmzxxcljkcjjjdgji91%;>9jMmNvbbccjjjllgju<1&@>0djgcdjgcc9>",
"%;<wglVNNNNNbllzbczzczbg11@;<1idjjllzbjjzzlfte039&>,0gcjzgzzzj9&",
"%,2<3,88eetusfgj00tdddc010&%,,9=780wett0e85,$%=%&@>>9czjjdbzj0,>",
"*O*%###*$=***:--%=%=;%-,::-%;=%%%###O*####O%%%%%oo<<9idccjcd9%@>",
"O*###%#%X#*##$**%&&&&%o%o%ooO@XoOOOOOOOOOOOOO%%%=%::%%=9ii9<&%@%",
"O*O%%O%O$*=$#OO+@%%%%*=:<2<<22<32662<2212:-%#Ooo%Xo%%%#-=>=#@@&@",
"wywyyq00762232-#@@%><9900iitiiiduuuuuuutye832-%#X-2:%ooooo#%&&10",
"aafpdfddcfiffsw3&%,0ihifpcphhfflxxllkhhcffddi02-9idi099:%%oo%;9c",
"xxxkccccccbbgy08,o1udkpkcvccvvlvmxmmMmbvlkcjhw2-r99rcc0944;oo100",
"nckkjcccccvbfw663%<9whhMcmccNmlbxcccccccMNvhr4;%90icciccii9&&1tt",
"Mckkccvvbclmls075%50wckkccccmNlxnvcmvvvvlncf94,<9hcMccMccc9&&>rz",
"cxllccvvkNjbAg552;:2qxmkkgggfkkkllllllmcNfgf933;90cckNljNy2;.O2f",
"nnmnxxlmjNllxw,2:%-:6kxjkxxkkggjfdfffgggmpss836-99cbjNlbNu:;#;2y",
"lllllllljNxzze12:%-:6sjNbzNxxxlxlllzmvzblgkg82>%19zcjbjvzu;#%13e",
"lmlxxzNNjzjllt2>2%-230ujlxzNNNbbbbbNbbNzfgbk6:-*&1dblbjjbg:@#1,8",
"lljkjjllzNzjd02,<#-:-:<7yyyuuuuusssssssu5wsw3>;*<4ujjbbNgb5==,>5",
"88875555etsw3,,3<$=-$*#:*$$####O%&&&===&;:>>22:$<<9970et8e5,:1>3",
"=**%%%$#*-;*#@*;<*-*#**=:;-:----%%%=***#@#$#;,;#%#%%o%%%=>=,;1>>",
"%%%%#%%%=#$*$;-O:#*#O*#****##$%%#%###@XXo**@$=*$%O%%%=%&=%$==>=@",
"=#%##%@@O#O####OOOOO##OOOOOO@#O####$#@#o@####@#+OOOO@OO@o$@o#%#=",
"O.#%$$%*;>>>,<2<<<<2333377778888008808888888887757533222,;=%%@X$",
"=$5w0w0twwyyuuuuyupusdddeyyuttutuusussddusssuttetuuyueyttw0w8;##",
"O@3sgdtssssfffgggkjxlzxxzxzNNxNzlbbNNNNNzzzxxzNNkkgkkkllfdjju2=#",
"#%7flzjzNNNZBBBBxjxljlkjkklxllkggkgkjhjgfffgfgggxxxxxkkkllls05,*",
"%O2wugjlzxxzxlklxxzxjxjjzxxbzxxkklllllkkkkklxkxxgkkgffgfxNBk852O",
"O%58wglxxbxxxxlkmzxmxxxxxxxkxkkkkkklkkkkkkkkkkfkakkxxxklffMx6<;o",
"O*8wekxxxlxxllkkxxxxxxzxxxlxkkxkkkkkkkgkkkfkkfppfkkkxkgfxgml6:-%",
"O;8eykBlxxpafllmlxxlxxxxxxffkjkkkkxxkxxkkapppakkxlkkjgklxsjz81>#",
"@;353uxxakxxxmNlllllllljkkfxxxkjkfffppppfkkkfkkjsfjjlljgNjbz8>>#",
"@=,,2yxlxBNNBBNlNNNNNzllgjjjglljklllzxxbjjlzxlllbNzjjllljfjg83>$",
"@$>,38ee88w8878377555322333113352<225578eussffgdgfe325883,>>>2>@",
"$@#,3,=;%**%%**=$#&%%$#$#$$*$$**>===$$==$===;>;>-;;%%*=#%%o$=,>+",
"$@@=1=#$%**##$#$$$$&$$#%#$*;;>;;>>;;;==$=$#&%$$*#%*%%==$%&&%$&=&",
"$$@@:-O$O@#####$$#####@##@@@O##OX+@@@#@@#$$##@@#*%%###%$@@#$@oX$",
"o-#oO#oXO*-<232357757756:-OXO#$*;;;:>>>>;;;:>;;:$##%$#@#@$o$=%#*",
"wqw2:--o*ypuuujkgkgfkgpuw*:<<7e8wyytuuuyyuyeeue852>%@+@$X>5es0s0",
"fpayq62%%qukxxxkmNmxlgw62*6pyyueuuuuyuuuuupupay6332,;;#@&30ggdjj",
"mxmax06-:68uxxZxpkklxp862*7xkkkxxxNmxxBBxxxxNNlgwee083>@&18dlkvj",
"xkxxxq:*O:6gZkfflxlllpw66*<jxxxxypkxkkkkxxxxxBmxxlje81,#>17dllmm",
"xfxxx0,-+;5slsdjkxjkku32:*:xzmffpkNNmNNxxljkklxxxll52=;$;25fNlnx",
"xfkgx0;>>138w0dZgjgzlt2<->,kffgllxxxkxzxxxxNNxxklll3>%=$*;2ulpaa",
"fxzdz7>>$118838wgggjje2,*,,gsjzZxNxllxxlllxxxzlklxl33;>$>,6fMaan",
"dxxgz7>>>,>>1>,,,,,585>>$,>zbZzjlzzbxbzlbzlzbxbNxll22;<#=,3kMaaa",
"gggfi0<;%;,>,,<,<:<:<=>=$2:fNzkxllcvnclllllxxxzxxll3,<,$-,-8Nzkj",
"Nge5<;&%%%&%%%%%*-*--;-$$<;pZxxzvvvcllljlllxgllxzjl5,<,#$>;7ljdx",
",133<,%%%&,<,99,23,2;,O.#<;uNzxxvccklkkkllxjxgkkljl5<,:OO-$;6663",
":;-#%%%=990d0d00epuuuu2=#,;uNlmxlkhhhhkkjkgxgxkkjjl5,,,#$:*->;;;",
"*%%%=<8t900gcczcfpfepe3**::wxxxfkhfaffkxkkkkkkkkkgz7,,:OX$O#=*:*",
"9wuutw090idgcbbVSCBfxu8-#::wxpxfkkkkkkkkkkkkkkkkkkx5,,:#$--:<<62",
"fghccvclAMcbcjjcxlkkks7,O::0Bsxfklkkkkkkkkkkkkgkkjx6<<:#7yefsykk",
"cvcvcvvvhhzbcccvxxkClf2=O*:wZfjkfgkkljllgkkkfkxgkkN7,::#260sy6yp",
"zzzczcczvcbbcbccNxxkxf3-O=,6mswukgjjxxggggkgxggpxkl7>2=>577wsxlb",
"cccccczcccbcbcvvkfkxlg6:$>=,jxpspsfgggxgggfgkgggwsl5;2;58weeglgx",
"cjjcczccbcbccbvvxxxxxg5>@,=,sZjgusdggggglzzllzlzegx5;<>3,58esfsf",
"gjgjjjcczjjjgjbvxfxkgy2>@3,,,7:=$*=*=====>,178esfgu<;,;>,338usus",
"<<9,<<<<9999900i969975>>#,;;$#.O$$$$$$$O$$$@$@@@73<;>>=;11115535",
"><,><<<<%=&;>>,<::::,,;>$$@$$$$=$$$$$$$$$@$$$$$=@O$->=$>,1,>>>=:",
";===:===;>:,,:>::-:--;&=##@+O++++O+$+$$+$$$@@++X XO$>$$$>1,>,>:,",
"%%%%###@@%%%%%&&*%-*%$@#@$$@$$$$O$$+$+$$$++$$$$@ . .$$$@$$=$==$$"
};
