/* XPM */
static char *sky1725033637[] = {
/* columns rows colors chars-per-pixel */
"64 64 58 1 ",
"  c #221E13",
". c #262215",
"X c #2A2415",
"o c #2B2917",
"O c #2B241A",
"+ c #2D2A1D",
"@ c #322D1D",
"# c #2F3318",
"$ c #33321E",
"% c #302720",
"& c #332D23",
"* c #382F26",
"= c #352F29",
"- c #382F28",
"; c #363224",
": c #393425",
"> c #363822",
", c #3C3A25",
"< c #363229",
"1 c #3B352B",
"2 c #3E3A2C",
"3 c #3E3631",
"4 c #3E3A31",
"5 c #403D27",
"6 c #423C2D",
"7 c #403730",
"8 c #433D33",
"9 c #483F36",
"0 c #463E39",
"q c #483E39",
"w c #3E4227",
"e c #414127",
"r c #44422D",
"t c #474A2F",
"y c #464234",
"u c #494336",
"i c #4B4935",
"p c #474239",
"a c #4C453B",
"s c #4E493C",
"d c #504B37",
"f c #50463E",
"g c #514A3E",
"h c #54513E",
"j c #4E4641",
"k c #4F4941",
"l c #514642",
"z c #534C43",
"x c #584F46",
"c c #544D48",
"v c #584F49",
"b c #565044",
"n c #595246",
"m c #575148",
"M c #5A5349",
"N c #5E584C",
"B c #615B4D",
"V c #635D50",
/* pixels */
"s8g8jjjjcjjjkayyllljlcljcjjj43jjppyuguyg56ffufcs261;a5u8uu9ussau",
"zus8jjccjjcjkkupvlljjjljjjjcw4jjjp8pku65:56668819u95guga880ulzzj",
"zuz8jjccjjcjjsu3ljqjjlccqjjj4<p4jaypg966i5raua9*ggd7gigfuyuszMzz",
"gul2jccl4jjjagu<0qjllllljjjc4<44441165:rngggzvs-gaa:aggfzsafnMzz",
"sug6szjj0aaqszu%qlllxxlfcczz01pyfzssa99ngadgfgu:gud*unzgzgsgzzga",
"zsz7qaa0jjaazz9&xllllvvxlcgz8<pp0uaau5:uauusua0&iax$9hgznzzzzzfa",
"gaz10aj0jpszzs8:llfqlxxMjjqf4;ypagagg98uauuassu19aM@;96daslzgzzz",
"gug;8scjjazzzu21flfllqffjjll8:yygu8usu8aa08uus0*:rMoX@@6160uuasz",
":y1:8Mazjp868u61ffffffgfgzgr42&@;:278*+gaaaaggu6@5Bnibggsasuq086",
"szs81zjvcj98ua6*9999996988uauyyysszgf2<zuaaiafu6*rVBgMnnnnvvMvMz",
"ggzu%szNcs00gg6<ffffxfff1;6a22tryuuuu1%fuaaadu8:o6Bggggzgsgsasss",
"arzuO9vvs00uggy:xxffhxxx6@2y>$2:116:2*+0uasauu67X9giagasgssaaaaa",
"guhd 8zuuuagggr5gf9dffhd9@:y,6ariuu8u6-auasuau65*ghgggsgzcllfjff",
"grgu 8a8sagbga65fdffffhxr:585ahyuidazf8zaaaussy,:ngdgggsuuuuuaas",
"ard9.8ausaszga7:99fdfffh6566rddr5uu9za7laauslga6:Mgagiaasssszksl",
"dgg8.8uga0ugnf6599dfdffh:uu5ydddfdhfzd2ajqquznd65Mdubagsjglssaau",
"0sss>2wirsiizi448sMzgzzg::5rddffnzayms-uagsasgbg7gdzzyjzjsapjkkk",
"shks>2ww,rr8ppwwubhgaznz@$:5dhxxsduyza1uuasusbzs&gflzikkapppjajw",
"kssi2r2:o;@@;;++yiay9sgs955udhf9auyyzg:uasssgbzg.iuasszjmmmmmmcc",
"syppyu2$ihgyks4&ridfjzzf6655dgxxauauga18sgggbzbg;yuupyyyspaakppj",
"s0quuiy;uhfflf7 @;222878ru556uzzvzzzzz8ugsssgsss>$>:>o.>67874880",
"zulazsa:9zhfMB8 8ufsjjzMhnd5;1232*1::1;:auuuu08yi,rtt2:gffffjjlc",
"cjcalaf67fzuzx9@idsgjcmndhd569ups0u98safsusja022>#>wr2$idgzzlllc",
"lqlalal89BMffx9*uruzvczuggdiazvjMfzkanzvcgzvcu82ywttir>ifdxxvlll",
"ljqljpj7zMvfdf976dfdckauzydrufazauu80zgglsuaza1;,wtrtr2tdfffffll",
"jj0aj0j7qzluufd78dffcjjasadi8sajjuu80zsasuaal011>#w>,$+uaaaffqql",
"js0qppk48as9uddu8dfsccjkudhu8saa08088cjljcjkzq22,$>,>$;sgdfflzll",
"ljqapjk4uafaudi56asakjjkfhnu8s0008p78zjsszsjzp11$#>$;$&iyy9qqqlq",
"uspsppk<8usiir5$8dzsjjajugh66la0jag00zaaajaazu1@;2i,22<yuaaalffa",
"aspjkpk<yusiite,rgzlcjjkaad66zjjauz0uvcjzzjkvc3*8sMuua24spjjlzja",
"yw4444w=4pitrre55dfjljjkgu876faj0aj00juaajaacs018uzsa0&=44444831",
";;++++= 4442:>>,:9aajjjjgy557a0jjjc8201-*71132<*u0kkc0&1p44ypp42",
"88*7gaau89y88yuu:;4478*&79q79vqlspaa118au8g;6d6@dzzxap-jcczzgsgs",
"ff59xfggfdgfdafgy8y8zNu19fq-7f9ljaa016agngn6gMd*zMvncc3czjzzzhgh",
"vg76dfggggffffzs<8i40ns7qxx79llvlss02ugzgud6id5Ozngzcc3jccjghggg",
"gg58faggfdaadgss&2s86au09fl79fqqzzl98gNganBau58:nMzMMM30Mmmmnnnh",
"ua6ungbgsasazgssu4upfna99ff97qlq7881*8u1&7y&*o@OzMgzMz*18788aggd",
"698sMggglfassssu+O;;:1%:77-@O@971772116*6861y6a1nMnvvz&1*&%:2656",
"5y1axgdadaaasiiy4pMzdzfBxlqzq7vxffzzsfzsgzayMgM8zMvvzn7a0668uday",
"ua6ygadadaiiksip,ybpfVvzzflBq7lqauslu0asugganyz2@21120%y61:69iau",
"agy>nbiutsstksis<pmspbknflzvz7xq9aaaaslzsafsjsss+*:1669uau1:udda",
"igy;zghnbkssshks<wbjpnbnzxzxq*zqaasfaasjaslasslk7azznvgxbg66agdg",
"ty:.:>,wppwwwwkp<1apiMbbxxlxl*lqsgfsauaajjjskkjk1ugzzgfdgg669daa",
"sir$2:<2w<<w><>>&&w4pnzklxxxl-xffflsjuausasjkkjk-aggxgdddd659dui",
"kwwwiyiskwbmshds:<:<8zssfxzxq*xffgfssaajjajajjjj1jcshzhhdd65yfaa",
"w<<>wysbiwhwshsi812<2su0fxxvz7lflgsslajajajjjjjj&0s9qdfdhhu58dau",
"w3wwkwhsikhmhidi8<1<2u80fxvxf7vzzgssfjsaaajjjjjj<azufhhhdhu56yy6",
",4hbmwstkmwwsspu:;<*2u8ufzfvq*vBzggafssqajajjjjj=jzsfdhddht:6auu",
"wrtidsipkbkiyyus04<w4<&4aa3377zfzaufzu0uauu0pasj3jkckpkshhw4wjjw",
"wrtiidkkbksp838yww<<><>2wp82**968289sgzzjjaauaak=wkmcjhwswjw4wp4",
",rtippsbissa9uaakww<wkpsubzs77aqa088721111112111=4wcjwkwwsww2242",
"wew2wwskaakkffzgjjw=wcjauszs7:99u9088778-1888884<4<wwwwwwwwwrupy",
"er,,2iksaasffaa9pww=wwkpusqs71a9sfglgznM70agffskjp<<p4ws5::$2r66",
"ytw2ukbsaassfsaukkw3kbckzsas97lfzzzzgzzz:7usaauakpwpmkmtngdggMng",
"iit2ykbkjadlzzgfkw4<wckwuu0s81qq8usagznz10sljaaspwwkmkmkuiyyaauu",
"tyi24izzclzffdaukpwwpkpkaauj7-77uzzzzzzz7yfzsaaapp4jmwpk88usgssa",
"kwcwwkkpasgfsuuucwp<pkkwa0szq-7qzlzzgljzu9zzusajpa4azpyquufsfafa",
"kpkpwkckzjqagvzgp4w<pjkpu0alq7qqzgfssssz06gfqauapjwszauausaaasfa",
"kwkw3pkcj0229uud04w+pwppjull77qlzjzzzuaz01qsuaasiiwjzpajajsff9ua",
"kkkw<4jcalza99ufpw4+cckka0ja7-0jsasfuqugq1ussauzis4ysuaajkjsffff",
"kkmw&<wc0qdf67@$=++ azppjalj00jlzzzzzgzz01uzaaufii2ys0aazlllflff",
"kwmp=4jcvczxxf6@4<<+kMkksjca330qa0u9q00u21sfasuapd2yu8sjclllllff",
"kkkw4kjczjqfhf7@<+=O<w<<8383O %&-%+%**&**1zgqldaad2200qjllqlfzff",
"kpjw4mMjjlzzff95cwj4wp0380p033qujy8pusau%8zzuzzgri1,83jjljfqffff"
};
