/* XPM */
static char *_711614547a644cff60e176e960a82201Su7DNDJgIkcAb63[] = {
/* columns rows colors chars-per-pixel */
"64 64 121 2 ",
"   c None",
".  c #26DF1F",
"X  c #00EE01",
"o  c #08ED03",
"O  c #11E807",
"+  c #18ED00",
"@  c #15EE0E",
"#  c #19EC0C",
"$  c #02F501",
"%  c #0BF504",
"&  c #01FE02",
"*  c #0AFD03",
"=  c #04F30D",
"-  c #0DF40C",
";  c #03FE0A",
":  c #0AFE0B",
">  c #15F207",
",  c #17FC03",
"<  c #13F40D",
"1  c #18F60D",
"2  c #12FC0C",
"3  c #18FE0F",
"4  c #0DEC15",
"5  c #16E417",
"6  c #1BE513",
"7  c #14EC14",
"8  c #1AEC15",
"9  c #17E518",
"0  c #1BE51B",
"q  c #15EC1A",
"w  c #1BED1C",
"e  c #06F613",
"r  c #0EF513",
"t  c #07FF13",
"y  c #0BFC11",
"u  c #0CF61B",
"i  c #14F414",
"p  c #1AF415",
"a  c #15FB13",
"s  c #1AF913",
"d  c #15F419",
"f  c #1CF41A",
"g  c #15FB1A",
"h  c #19FC19",
"j  c #1DF91D",
"k  c #1AF919",
"l  c #24EB12",
"z  c #20E719",
"x  c #22E219",
"c  c #21ED1B",
"v  c #20E91E",
"b  c #21ED1B",
"n  c #24F01F",
"m  c #27DB24",
"M  c #2BDD24",
"N  c #2FDD2C",
"B  c #37D634",
"V  c #33DA32",
"C  c #33DB32",
"Z  c #37DF34",
"A  c #35DF36",
"S  c #33D931",
"D  c #3BD831",
"F  c #37D53A",
"G  c #35D63B",
"H  c #3DD53E",
"J  c #3CD73E",
"K  c #34DD38",
"L  c #3ED83C",
"P  c #3CD838",
"I  c #1DE522",
"U  c #1EE824",
"Y  c #1DED24",
"T  c #1CEB29",
"R  c #1DF120",
"E  c #23E223",
"W  c #26E327",
"Q  c #23E524",
"!  c #26E525",
"~  c #24E223",
"^  c #28E727",
"/  c #29E421",
"(  c #24EA25",
")  c #27E827",
"_  c #24ED24",
"`  c #28E920",
"'  c #28E825",
"]  c #2AEB27",
"[  c #29E925",
"{  c #24E72B",
"}  c #27E529",
"|  c #2AE729",
" . c #2EE729",
".. c #29E72F",
"X. c #2DE52F",
"o. c #2CE428",
"O. c #29EA28",
"+. c #28EA29",
"@. c #2CEE29",
"#. c #31E223",
"$. c #32E02A",
"%. c #22F120",
"&. c #25F024",
"*. c #23F123",
"=. c #27F028",
"-. c #32E233",
";. c #34E032",
":. c #30E033",
">. c #3CE036",
",. c #38EA35",
"<. c #36E13A",
"1. c #3BE338",
"2. c #3CE739",
"3. c #38E33C",
"4. c #3BE139",
"5. c #33E93E",
"6. c #40CD3F",
"7. c #3FD840",
"8. c #42DB43",
"9. c #43DD40",
"0. c #46D849",
/* pixels */
"                                                              c %.                                                              ",
"                                                            2.f f ,.                                                            ",
"                                                            O.- - [                                                             ",
"                                                          L 7 * $ 8 0.                                                          ",
"                                                          ) y & & 2 ^                                                           ",
"                                                        K i $ & & $ i :.                                                        ",
"                                                        I : & & ; & ; q                                                         ",
"                                                      7.i & & & & & & y Z                                                       ",
"                                                      Q : & & & & & & : i                                                       ",
"                                                    C h & & ; & & ; & $ & 6                                                     ",
"                                                    0 $ & & $ : ; & & & & a                                                     ",
"                                                  H k & & & $ * ; $ : ; & $ [                                                   ",
"                                                  ..% & & & * : ; & & & & $ a                                                   ",
"                                                <.q & ; ; & $ & $ & & & ; & $ &.                                                ",
"                                                ) $ ; $ $ & ; & & & & & & & : 7                                                 ",
"                                              G 7 ; & ; ; & & & & ; & $ ; & & r O.                                              ",
"                                              T e & & & & & & & & & ; * & & & & =                                               ",
"                                            5.u ; & & & & & & & & & ; * & & & & t 0                                             ",
"                                            { e ; & & & & & & & & & & & & & & & $ R                                             ",
"                                          9.0 : & & & & & & & & & & & & & & & & ; 7 4.                                          ",
"                                          ! s ; & & & & & & & & & & & & & & & & ; r v                                           ",
"                                        3.7 % $ & & & & & & & & & & & & & & & & * % i X.                                        ",
"                                        U : & * & & & & & & & & & & & & & ; & & ; : ; q                                         ",
"                                      8.d & & & & & & & & & & & & & & & ; ; & & & $ & r F                                       ",
"                                      W : & & & & & & & & & & & & & & & ; ; & & & & & t E                                       ",
"                                    C j ; & & & & & & & & & & & & & & & ; & & & & & ; ; 7 ;.                                    ",
"                                    0 * ; & & * & & & & & & & & & & & & & & & & & ; & & ; n                                     ",
"                                  H k & & & & & & & & & & & & & & & & & & & & & & $ ; ; & o N                                   ",
"                                  | % & & & & ; & & & & & & & & & & & & & & & & ; & & & & 2 8                                   ",
"                                >.7 * ; ; & $ & & & & & ; & & & & & ; & & & & & $ : $ ; & $ % .                                 ",
"                                ` $ : $ $ & ; & & & & & * & & & & & ; & & & & & ; $ & & & & * 8                                 ",
"                              6.@ & & & & & & & & & & ; ; & & & & & & & & & & & $ ; & & & & & % Z                               ",
"                              8 * & & & & & & & & & & & & & & & & & & & & & & & & & & & & & & & -                               ",
"                            z * & & & & & & & & & & & & & & & & & & & & & & & & & & & & & & & & ; 5                             ",
"                            8 $ & & & & & & & & & & & & & & & & & & & & & & & & & & & & & & & & $ j                             ",
"                          #.i & & & & & & & & & & & & & & & & & & & & & & & & & & & & & & & & & ; - o.                          ",
"                          @ * & & & & & & & & & & & & & & & & & & & & & & & & & & & & & & & & & & $ i                           ",
"                        / 2 & & & & & & & & & & & & & & & & & & & & & & & & & & & & & & & & & & & * & _                         ",
"                        f $ & & & & & & & & & & & & & & & & & & & & & & & & & & & & & & & & & & & & $ d                         ",
"                      M - & & & & & & & & & & & & & & & & & & & & & & & & & & & & & & & & & & & & & & - o.                      ",
"                      i : & & & & & & & & & & & & & & & & & & & & & & & & & & & & & & & & & & & & & & : <                       ",
"                    9 ; & & & & & & & & & & & & & & & & & & & & & & & & & & & & & & & & & & & & & & & $ & 9                     ",
"                    g & & & & & & & & & & & & & & & & & & & & & & & & & & & & & & & & & & & & & & & & & & k                     ",
"                  | ; & & * & & & & & & & & & & & & & & & & & & & & & & & & & & & & & & & & & & & & * & & % {                   ",
"                  s $ & & $ & ; & & & & & & & & & & & & & & & & & & & & & & & & & & & & & & & & ; & & $ & $ i                   ",
"                _ $ & ; & & & & & & & & & & & & & & & & & & & & & & & & & & & & & & & & & & & & $ & & & ; & $ _                 ",
"                7 ; & & & & & ; & & & & & & & & & & & & & & & & & & & & & & & & & & & & & & & & ; & & & & & : q                 ",
"              [ r & & * & & ; ; & & & & & & & & & & & & & & & & & & & & & & & & & & & & & & & & $ * & $ ; & ; d o.              ",
"              > & & & & & & ; ; & & $ ; ; ; & & & & & & ; ; ; ; & & ; $ & & & & & & & & & $ & & & & * * & & & & >               ",
"            c * & & & & & & ; ; & & ; ; : * & & $ & & & & $ y * : & $ : & & & & & & & & & ; ; & & & * & & & & & * x             ",
"            r ; & & & & & & & & & & & ; * ; $ & & & & & $ & * $ * $ ; $ ; & ; & & ; ; ; ; & ; & & & & & & & & & $ d             ",
"          d = ; & & & & & & & & & & & & ; ; & & & $ * * 2 1 O     &.f - X & & ; ; ; t ; ; & & & ; ; & & & & & & & e U           ",
"          X a ; ; & & & & & & & ; $ & & & & & & : - p 8 /             :.=.d y ; & $ ; ; & & & & & ; & & & & * * ; ; =           ",
"        d ; $ & ; & & & & & & & ; & & & & & $ k _ m                         E w s % ; $ & & & & & & & & & & * * ; ; ; q         ",
"        - & & & ; ; & & & & & & & $ & & & 2 x D                                 $.6 s * & & & & & & & & & & & & * : $ i         ",
"      # * & & & & ; & & & & & & ; $ : - w m                                         m b < : $ & & & & & & & & & & & & - C       ",
"      * & & & & & $ & & & & & & ; < ~                                                     _ @ % ; & & & $ & & & & & & % `       ",
"    _ & & & & & & & $ & & & * < 8                                                             @.- * 2 $ & & $ & $ & & * @ 4.    ",
"    q ; & & * $ ; & & $ , + l                                                                     8 o * * & t ; ; & & & : {     ",
"  M g & & & & ; $ : - c                                                                                 6 p 4 e & & & & ; w B   ",
"  8 2 $ & & $ : 2 #                                                                                         W d & & $ ; t = i   ",
"3 2 $ * & ; d 0                                                                                                 ( Y ( *.= ; ; & ",
"$ & % > 7                                                                                                             P 7 ; & & ",
"& & %                                                                                                                     & & ; "
};
