/* XPM */
static char *south1725033637[] = {
/* columns rows colors chars-per-pixel */
"64 64 89 1 ",
"  c #0C1F23",
". c #052225",
"X c #0D2425",
"o c #0C2927",
"O c #0D2B2B",
"+ c #122626",
"@ c #122926",
"# c #132629",
"$ c #18272B",
"% c #142C2C",
"& c #192D2E",
"* c #0F322E",
"= c #14312E",
"- c #19322F",
"; c #142E30",
": c #1B2E31",
"> c #163233",
", c #1C3333",
"< c #1D3936",
"1 c #173638",
"2 c #1D3639",
"3 c #173938",
"4 c #1D3B3A",
"5 c #202F34",
"6 c #213435",
"7 c #223A36",
"8 c #233638",
"9 c #28373B",
"0 c #233B3B",
"q c #293D3E",
"w c #1E413D",
"e c #25413E",
"r c #2A423E",
"t c #243E41",
"y c #2B3F41",
"u c #1E4145",
"i c #254342",
"p c #2C4443",
"a c #264945",
"s c #2C4945",
"d c #254749",
"f c #2C4649",
"g c #274A4D",
"h c #2D4B4A",
"j c #314546",
"k c #324B46",
"l c #324649",
"z c #334C4B",
"x c #394D4D",
"c c #2E514E",
"v c #33514E",
"b c #39534E",
"n c #2D4E50",
"m c #334D51",
"M c #3A4E51",
"N c #2D5253",
"B c #2F5854",
"V c #2D5559",
"C c #2E5A5D",
"Z c #355352",
"A c #3A5453",
"S c #355955",
"D c #3B5955",
"F c #345559",
"G c #3C5659",
"H c #345B5C",
"J c #3C5B5A",
"K c #3F645D",
"L c #355E61",
"P c #3C5E60",
"I c #3B6264",
"U c #3A676A",
"Y c #405556",
"T c #415C56",
"R c #42565A",
"E c #425C5C",
"W c #43615D",
"Q c #49675F",
"! c #445D61",
"~ c #456462",
"^ c #4A6364",
"/ c #4D6965",
"( c #436668",
") c #4B6568",
"_ c #416969",
"` c #4B6B6A",
"' c #536C6D",
"] c #55726E",
"[ c #557270",
/* pixels */
"ii44pq9699--kercrrrrrrr-rBSvmmVFVFKScZv0ezxhvzsvhmzmhwitsi3rkrkx",
"4itijr996977Dkvvrrbrrrw@rSScFmmFVLSSSSvw8szzvchzfmfns4disi<es0rr",
"1tppp98p5r9rTSSrrrrTbke*sZvvFFmFFSJJSDAp4fzzxhfhflffgihmhi<pkrjj",
";4026,60&r-7rbrrrrrYrrw@fZvhmFmmFFJHSDZp9lkkzhpsfmhmsiZZsi>8q9qq",
"%:;;,2<err@@rre-rrrrre8=fZmmmFnnccSSvzzsyxxfkppfmZzZhihhvr@@&+$+",
"::$;fzhhrr-rrrrrYxrrpkz6fAMmFmmmZvZDvhzftzlfkffznGZZhwifvr=&&&6&",
"98:8ZESZSD7rxxrkrrr7rxh>lAFmmmmmSzZDZvzi,ilpkxzxmSZZf4shbs&69qrr",
"96:tZJvhvr@rxxjxYkkjkYx&zAMffflGZhshxzk8@8ylxMxAhNhNsiZFzp&599q9",
"5,,pSSbDSvrerbkxkkkjbbf-mml4tGJmzDmzxzi<4>-&88#>eea*OeZWEr::#8::",
"82,0vbbTKrrrrTjxjrprrs0%2242tdt0,0<;>=%=i0e0qq7sSASe<fkZz2:62RE^",
"82=><=-7ww@@5557-<,,,<>o1;>wt411pp004<4shzZzfrqDvvv4>0<82<4pm'''",
"GGSvs<@-==@--$5rkvvvADDbEZZFGFZJxkfhseaDZvDvzi0Dkcve0si988tff')R",
"hNZZk-+&7rrr777bpsvhvvDZZZZnZNZZzhphvieShhvvvi0vvsvervkjft84t)~J",
"chZZxr7k99r97@7bzvvvvZvSSJEFSJJSDzhADhaSciscZs0vvkk70kjjlpt4t(PP",
"BchZx75r9r777-7kccvcvcvNhSHZZHSNZmzvviwccaacvs4zDbbeqzlljyffiPJH",
"BNNZk5$5j9&&7--khhhvcvvcZSSSSHKJDAZvs4wBSascvi<zbvz78jpyfyii1mF(",
"gccvA>69#&5&8--930sshzSJWJSvSKDSShcsieeAEzpDx=,sj<@-eksrsis44isZ",
"Kvhsh@8ky6$596qYse4eavSDZDZZZZDZZsvzhe4JDApe087--7ersrsrpsziihhh",
"cchzx%9xx9:58-9RhshvZJGDxZSDZZSvZszvzw4RAz0-8i7@<rkkksssesv0tZmh",
"asvAD>9kxxy6&&6q4ivSZzZDmSDDSAADZshsi<<Az2,6ii,<rskkkkskpfs<4ZZG",
"hshvA%8kjxlq,#&9sZDSvhvSDZvvZvvvxzh8<42pi%4scp>7crrkvvhrfei8tmAE",
"iepZD,qlxjjlj&6YEE~~EDhsZhshhhhhZxf>80<772hssv<3errrkrskf0eifmmE",
"420xR29lljyxkqyRZDWWJvi0zhzzzsshxj9,ez<,0eDssZw<errcrrhkjrp8ymxA",
"vr7iz@2jjllyljjkvDJDcszZhhZDvhzMl7-,zz<>ssGhsveekkrrskkskfp&>xmm",
"zzi86>>rpqqppqjMDSDhcDZAkhvbxAAkYq,9zk,<Zvzahvewcrsrrrjbkpq:9p9f",
"xxzp0,&2,267yjjjfshhhzvh0pfpfkfp9,70i9-ivzvsvGs4-=-<-=%-2,,#,9;,",
"qpqyr8,8<09<qxk2<i<ii4sfep,@#@X%%%,,,-%pzfspvJp>rrrspripljjyll56",
"6088ipihpkf0yxp,sZiDviW^^!i%66&9fifpvz0fAhzZJEseDKvbbvbbAxMxMl:5",
"qpyplkzzfpiijpq8Z~S~Ds`['Qy6xAjAssASWD08AesbAvervckkkzzklyxyly55",
"&qqyjfees08rq6,8ZWDJs4hzf9&>yj9p80i4ew>4s,0fp0-7rkvvAbvkYlYYMy5y",
"$9qqyq88se0e9,&,DJDvieipqr0qq89phhs<<iezzfzjkj7<rkbSAbxjMlMyyy$5",
"9xljpyeihppfpq86hss4ivSDAAEYp9xEASZsvJzzZzxjlMe-kbDbxzkly9yyy9$5",
"ljjyqjjppiiypq8&vi<4sccDZzZzpxMDzkbbbssklMMllMx9:&&----,-%@==&@&",
"yppqyypyjjjppfr6,eiishhvSshhhjyxskkbbkkvyMyy9lxp$6qjvkksrrskkj77",
"9qyyqypq99q9qqq2iDWJKSvcZssDEk8bvzbbkkzkMMyy69l9+6kxbbcseesvvsr6",
"9qpyypiq0qqqyyieDWEDJJcsshZE'A,xvbkrkbzsyyMyyll9@rxkrhsessassree",
"<9q0qq9689809098AzhvJJvvwhDDEk6jrrrrkbbkyyyMRRyt&pZhscZcccahhcks",
"%:62,,:%%,2666,%fkzD~DZJfvDzji,qkprszAAkyyyGMRRt=pZzshcaaaaahcar",
"&2788886qykjlj040shSDvhzvZDzpq29DkrxAYxjMyyyyMy5%ezsssaiaccscvcs",
"pjxxxMMkykMAMkp9tzxzDGZhZhDDki66xrekYAlpMyyMyMyt,0fjshvchcsasscs",
"pjplllmMjxllxxp90ZvZZvDhxSGxD,,qr7xxMxmypllt2t;t:#;$%txEshzffmzy",
"xkxlkxxkYAxxAYj:pDAZzvJDvbAzYqqjrqMkMlMlpyy25t5t:#$# %,tszfypff9",
"yjlllxMMjjppMRx69zzxhv~EAZzip:&689jqy8yt82t;;t;$5$55;::2zxlfflf9",
"MMxxljjjlAMsjlp60xhzpei0=->%#X#&%&6$9:8922yfm!my5#5yt8,2tiiyyfy6",
"+#&6yplxijj98q96@%@;<,3%9ip0&#58,66&lMMMfyG!!'!Fy:::,2;;OO;;:2:#",
",,6,,::%9:#&9pfqffyzAG~W^//R09q9qpy6YR!RPfG!R!Gm!My8;424>>O>,11;",
"ypplllllby6qzkljYYzxAvDvbDAx,qljjxy:MYMYM8fGFR!!!!!t1fZZNhdtifff",
"pjllxxklq68jjplDzvkADbDbAAzk$pllqjy9YRR!!tlGynymynFt1nPI_LngghmF",
"jyyytipypp%7bbbkbrbbbSTbbrr-&jjlymytM!!!We*e<werytu HVHUCIIVugHF",
"MYRl968q-6%rTbzDkbkkrbrTrbre8jjjmyytR!!!kwwrrbTKJGn3`_UUVIUVugFF",
"GGGmfr0,,r7rkrrrrYrTbrrrrbrr9jyymyyy!)!GveerKQQbEJh3(LCCCCICggZZ",
"GGGZZbs4<ke7rzzjbrTrrbbrbrbr5ylYRymtMMmfz<wrQQQb~Jd4IHLCCVCIndnm",
"sZvse4e0ek<0DTbbrTxTbkbbbrx9&99jyym5;:12>X0J]QQTJDidIHICCVCLVddn",
"Znawwishre=rWkrrxTbrkbkrbkYk7jYjymy;;O;2>>Z]]DDKsh4gHNHNHVFHgdgd",
"iw**4ipe7e-rYkkYYrkxkxrYbkbx59xjmnF2ffgfZhZ/QDbbvv<sJFIVHVCFnnnf",
"NSKSHKJJs/bq7krrxkrrkxTrkrk9+7j9yyytG!!P~xivbQKbQD;iZN(HFVFNnnZn",
"KKKQQ~Q~~/E0>eqlzf07re77:##:$$$:2uuuymFlGm4EJWTbDZe0J)FFFVgnnnFZ",
"SSSSSDWWW~D,%828&>#%-=@&:8yytmy2u1;#;uffhi>ZbbDbee44fFJPFnNNnddh",
"WDDSSKWQbvf%@,%%>>==-%=epxMly!Rtmntu11>1OO.e4wer<-2<4inggnnFFNZZ",
"bvharrsvxhs70p0p0e8<-=-rAxMGmGltmmFPFgfgf0evbvbDvrhZnnd1224tdshn",
"rrew800e<68-102thvhhr<4vskxzfmmyZnmFmmF!ceivDrbbWvbKGmf;dt14tish",
"krrvkkkkkfzfmMlGDJJJSreksvZsfMFtJSFFmmZFSeZZKvbbcrssgyttPhutsNZF",
"rbbrxkkkMfflAmfZvBcccw3evvZmnFdOutdnFPPJswSvbrkbhvkkmlfFfyutsvZS",
"rrbrjjksxqtpxMthvseee<>eviiZPm2.>14winmnwwbvrerbkbkvGmtffdidhhcZ"
};
