/* XPM */
static char *Background1720887619[] = {
/* columns rows colors chars-per-pixel */
"64 65 37 1 ",
"  c None",
". c #98FD1F",
"X c #97FD20",
"o c #98FE20",
"O c #A1FE33",
"+ c #A1FE34",
"@ c #A3FD37",
"# c #A3FD38",
"$ c #A3FE38",
"% c #A3FE39",
"& c #A4FD38",
"* c #A4FD39",
"= c #A4FE38",
"- c #A4FE39",
"; c #A4FD3A",
": c #ABFE49",
"> c #ADFE4C",
", c #ADFE4D",
"< c #CEFF92",
"1 c #D0FF98",
"2 c #D3FF9F",
"3 c #D5FFA0",
"4 c #D5FFA3",
"5 c #D5FFA4",
"6 c #DAFFAD",
"7 c #DBFFAD",
"8 c #DBFFAE",
"9 c #DBFFAF",
"0 c #DCFFB0",
"q c #DCFFB1",
"w c #DCFFB2",
"e c #DEFFB3",
"r c #DEFFB4",
"t c #DFFFB6",
"y c #E0FFB8",
"u c #E0FFB9",
"i c #E1FFB9",
/* pixels */
".ooooooooooooooo.............ooooo.o.ooo.ooo.o.oo.oo.oo..o.oooo.",
".oooooooooo.oooo..............oooo...ooo..oo.o..o.oo..o..o..ooo.",
"o24<00888888788888888877888887888887888888888887788877888887774.",
"X5:O*$@$*@@@======**====@@@@@==*====@@==@@=*===========*=====>7.",
".1O                                                          =8.",
"o8*                                                          *8.",
"oy*                                                          =7.",
"oy*                                                          =7.",
"oy*                                                          =8.",
"oy*                                                          *8.",
"oy*                                                          =7.",
"oy*                                                          =7.",
"oy*                                                          =8.",
"oy*                                                          *8.",
"oy*                                                          =7.",
"oy*                                                          =7.",
"oy*                                                          =8.",
"oy*                                                          *8.",
"oy*                                                          =7.",
"oy*                                                          =7.",
"oy*                                                          =8.",
"oy*                                                          *8.",
"oy*                                                          =7.",
"oy*                                                          =7.",
"oy*                                                          =8.",
"oy*                                                          *8.",
"oy*                                                          =7.",
"oy*                                                          =7.",
"oy*                                                          =8.",
"oy*                                                          *8.",
"oy*                                                          =7.",
"oy;                                                          =7.",
"ot*                                                          =8.",
"ot*                                                          *8.",
"ot*                                                          =7.",
"o0*                                                          =7.",
"ot@                                                          =8.",
"o0*                                                          *8.",
".8=                                                          =7.",
"o8*                                                          =7.",
"o8=                                                          =8.",
".8*                                                          *8.",
".8=                                                          =7.",
"o8=                                                          =7.",
".8*                                                          =8.",
".8=                                                          *8.",
".8=                                                          =7.",
".8*                                                          =7.",
".8=                                                          =8.",
"o8*                                                          *8.",
".8=                                                          =7.",
".8*                                                          =7.",
".8=                                                          =8.",
".8*                                                          *8.",
".8=                                                          =7.",
"o8=                                                          =7.",
".8*                                                          =8.",
".8=                                                          *8.",
".8=                                                          =7.",
".8*                                                          =7.",
".8=                                                          =8.",
"o8*                                                          *8.",
".8>=@@@@$$@===*=====*==@@@$$@===*=@@@@*=@@==*=====*=====*==@=>7.",
".28878888877778877778878888877778877878877778877778877778877882.",
"..ooooooo.ooooooo..........ooooooooo.ooooooo.oooo.ooooo..ooooooo"
};
