/* XPM */
static char *floor1727265410[] = {
/* columns rows colors chars-per-pixel */
"64 64 134 2 ",
"   c #515151",
".  c #515153",
"X  c gray32",
"o  c #525254",
"O  c #525355",
"+  c #535355",
"@  c #535456",
"#  c gray33",
"$  c #555555",
"%  c #545456",
"&  c #545557",
"*  c #555557",
"=  c gray34",
"-  c #565658",
";  c #565759",
":  c #575759",
">  c #56575B",
",  c gray35",
"<  c #58585A",
"1  c #58595B",
"2  c #59595B",
"3  c #58595D",
"4  c #5A5A5C",
"5  c #5B5B5D",
"6  c #5B5C5E",
"7  c #5C5C5E",
"8  c #5D5D5F",
"9  c #5C5D61",
"0  c #5E5F63",
"q  c gray38",
"w  c #646464",
"e  c #656565",
"r  c #646466",
"t  c gray40",
"y  c #676767",
"u  c #676769",
"i  c #686868",
"p  c DimGray",
"a  c #68686A",
"s  c #69696B",
"d  c #6A6A6A",
"f  c gray42",
"g  c #6A6A6C",
"h  c #6B6B6D",
"j  c #6C6C6C",
"k  c #6D6D6D",
"l  c #6C6C6E",
"z  c #6D6D6F",
"x  c gray43",
"c  c #6F6F6F",
"v  c #70706E",
"b  c #71716F",
"n  c #6E6E70",
"m  c #6F6F71",
"M  c gray44",
"N  c #717171",
"B  c #737371",
"V  c #717173",
"C  c #727272",
"Z  c gray45",
"A  c #747472",
"S  c #757573",
"D  c #717274",
"F  c #727274",
"G  c #727375",
"H  c #737375",
"J  c #727377",
"K  c #737574",
"L  c #737476",
"P  c #747474",
"I  c gray46",
"U  c #747675",
"Y  c #767674",
"T  c #777775",
"R  c #747476",
"E  c #747577",
"W  c #757577",
"Q  c #757776",
"!  c #767676",
"~  c #777777",
"^  c #767877",
"/  c #787876",
"(  c #797977",
")  c #747579",
"_  c #757678",
"`  c #767678",
"'  c #767779",
"]  c #777779",
"[  c #76777B",
"{  c #777978",
"}  c #77787A",
"|  c #77787C",
" . c gray47",
".. c #797979",
"X. c #787A79",
"o. c #7A7A78",
"O. c #7B7B79",
"+. c #78787A",
"@. c #78797B",
"#. c #79797B",
"$. c #797B7A",
"%. c gray48",
"&. c #7B7B7B",
"*. c #7A7C7B",
"=. c #7C7C7A",
"-. c #7D7D7B",
";. c #78797D",
":. c #797A7C",
">. c #7A7A7C",
",. c #7A7B7D",
"<. c #7B7B7D",
"1. c #797A7E",
"2. c #7A7B7F",
"3. c #7B7C7E",
"4. c #7C7C7C",
"5. c gray49",
"6. c #7C7E7D",
"7. c #7F7F7D",
"8. c #7C7C7E",
"9. c #7D7D7F",
"0. c #7E7E7E",
"q. c gray50",
"w. c #80807E",
"e. c #7B7C80",
"r. c #7D7E80",
"t. c #7E7E80",
"y. c #7F7F81",
"u. c #808080",
"i. c #818181",
"p. c #808082",
"a. c #818183",
"s. c gray51",
"d. c #838383",
"f. c #848484",
/* pixels */
"9 [ J ) G } } G } }  . .)  .) R I I I I I ~ ~ ~ I P A Z I I I Z : #.V ) R R } K ^ ^ ^ ^ } ^ } G K C R R / &.R / R R R / / R C / ",
"9 r.1.e.} ,.,.} } 1.&.1.8.8.8.&...&...&....... . .I R A  .I -...4 t.&.8.1.&.$.} ^ } $.$.&.} | $.&.&.&./ / R R / / &./ R &.C &.5.",
"3 | | 1.^ } $.$.&.&.$.&.&.&.1.8.......8.-.-.8.&.q...I I ..I .. .: e.#.1.} } ^ / $.$.&.&.^ ^ $.,.&.&./ &./ &.&.&.=.&.&.R / / R s.",
"> | } &.} &.^ X.} $.=.&.#.1.8.&...~ I  .....8.&...I I  .>.I -.>.% #.) 1.^ } X.X.$./ R ~ ^ } ,.1.&./ / R R R &.&.&.&.&.&.&.R &.s.",
"3 &.} } ^ ^ ^ ^ ~ &.&.&.&.&. . ...I I I I  ....... .I .... .-.>.: &.) &.} &.&.~ &. .~ ~ R  . .&.&.&.R &.&./ &./ R &./ &.R R =.s.",
"; } } } ^ ^ K Y ~ ~ O.&. .&.~ R .. ....... .I  .-... . ...I -...: 1. .8.^ ^ / R ~ &.&. .R ~  .8.&.} &.&.R &.R &.&./ &.R &.R &.d.",
"& ,.$.,.$.$./ =.&.O.O.O.&.&. .~ ..I I  ...I  ...I I  . ... .-...* 8.1.r.&./ &.&.&.&.&.~ ~ ~ ~ &.R &.R / &./ &.&.R &.R &./ R &.w.",
"O ,.,.6.$.^ Y $.O./ ~ ~ ~ ~ ~ R .. .I I ..I I .. ...>..... .8.I . &.5.r.&.&.&.5.&. .~ ~ ~ &.&.~ &./ / &.R / R / / / &.&.=.R &.w.",
"+ &.8.&.&./ O.O./ O./ / / ~ ~ / I I ......I I ..-...-.-.I Z .. .+ &.8.8.&.&.&.&.&.&.~  .~ ~ ~ ~ / &.&.R R R &.&.&.5.5.&.R R / =.",
"+  .&.&.&./ O.~ O.~ / / ~ ~ ~ ~ .. . ....... ...>...8...I A &...+ 1.#.8.&.&.&. .~ ~  . .~ ~ ~ &.R &.&.&.=.&.&.&.&.&.&.&./ R R &.",
"-  .&.&.&.&.O.O.O./ / / &.&.&./ .... .....................I .....  .#.8.&.&.~ &.~  .~ ~ ~ ~ &.~ R / &.=.5.5.&./ &.&.=.&.R R &.=.",
": 1.&.&.&.&.&.O.O.O.O./ &.&.8.&.....&.......&.-. .8...~ 8.I ..~ + 8.8.8.&.7.&.&.&. .~ ~ &.&.&.&.&.=.&.&.&.&.&.&.R &.&.&./ &.&.5.",
"- 1.8.1.&.&.&.&.5.&.&.~ &.&.&.=.-.8.8.&...8...&.~ &...I ..~ ..~ % 8.8.&.&.8.&.-.&.O.&.~ &.&.&.&.&.&.5.&.R &./ &.&.&.&.&.&./ &.&.",
"+  .&.&.&.~ &.&.&.&.~ &.~ &.&.8.-...~  .&.-.&.I I  ...~ ..~ &.I .  . . .~ &.~ ~ O.&.&.&.O.&.&.&.&.&.&.&.&.&.&.R R &.&.&.R / &.&.",
"% )  .#. .&.&.~ &.&. . .~ &.8.8..... .....-...~ I ~ ~ I I ~ ..Z + #. . .&.8.~ O./ O.&.&.~ O.&.~ / &.R &.&./ &./ R / 5.&./ R &.R ",
":  .#.#.&.~ ~ ~ &.&.&.&.&.&.8.5.8.-.8...........I I I I I ~ &.k . #. .8. .&.~ / O.O.O.~ &.8.&.R &.R / &.R &.&.R &.=.5.=.&.&./ R ",
"+  . .#.>.~ I  ...-.-.8.....&.-...8.........&.....I I I ..I  .Z   1.&.) =.R R / &.&.R &.=.=.&.&.R R R / &.&.&.R / 5.&.&.R R / =.",
"+ ) ) #.8.....&...&.-.>.....&...I I  .....8.&.&.-...I  ...` ..R o  .R ) =.&.&.&.&.&./ &.&./ R R R / / &.5.=.&.R &.=.=.&.&.R &.=.",
"< ) ~  .&.&.8...&.&.4.8........... . .........&.....I .. .....I : R ) &.=.&.&.&.R / / &.&.&.&.R / &.&.&.&.R &./ R &.&.=./ &.R &.",
"4 ) `  .~ ~ ..I ..&.......8.&...-......... .~ .. .~ Z  .I ....I : ) V &./ R R &.&.&.R &.&.&.&.&.&.R &.&.&.&./ R / &.R R R / R &.",
": F R ` I ~ ..~ >.....I ....>.........I P  .~  .....A I I ..~ Z * R  .R R / &.R R &.&./ R / &./ &.&.&.&.&.&./ &.&.R R S &./ &.&.",
"- R ) ` I ~ ....-..... .` ..-.-... ...I P ..~  .....I ....-...R + ~  .R R / / / &.&.5.&.&.&.R &.&.&.&.&.&.R &.&.&.&./ R &.&.&.&.",
":  . .` ~ ~ ~ ~ -.8..... ...&.-...I ..I I ..I  .~ ....I ..8.t.I % #. .) &.R C &.R &.5.&.=.&.=.=.R / / &./ R / &.&.&.&.R &.&.&.&.",
": >. .~ ..~ I ~ ......I I I .... .Z .. .I  .A  .~ ....I ~ ~ -.I - #. . .=.R R / S R &.&.R &./ R S R R / R &.&.R 5.=./ S R R &.5.",
"- ` ` #.I .... .I .. .I .... .....I I I I ~  .I ..I ..I I I  .I % ) ` #.`  . . .R / R R S / R R R S R &.R &.&.R =.R &.C C R R =.",
": ` ` >..... .I I  .I I I ~ ~  .I I I ..~ ~ ~ I ..I I I I  .I Z %  .`  .`  .~ I &./ &.R R &.&.&.=.&.&./ R / / / / R / R C &.C &.",
": R F >...I I I  .I ....~ ......I I  .I P I I I  .I I I Z I ` v < #. . . ... .~ / R R R / / &./ &./ R S S R / R / R / C C / S R ",
": I ) #.I I  ...I I  . .I I ..I 8.....I P I ..I ..~ A Z Z  ...Z % ) ) ) R I I ~ / &./ &.&.R R / &.R / / R R R R &.R S C x &.R / ",
"- ` ` >.I ` ...... .....I ~  .I ~ I .. .I I I Z I  .Z k Z I ..v - ` ) #.~ ~ ~  .R / / / R S R R R / / R R / S S &./ R C C &./ &.",
"- >...>.I .... .I I I I I A P R ~ I I I I ..~ I I  .A P I I ..Z + ` ` #.I ~ A R R R &.R / / R R / R &./ R / / R R C C v C R R C ",
"5 ` ) ` I  .I I I I I I I I I I I P A R Z P ~ ~ I  .Z I I P ~ k 5  . . .~ ..~ A R S S S R S R S S R C C C R / R / R / R &.S &.R ",
"- h r a p k k p h j y i k p p k p p p p y i p p p p r y a e p q . n a p j k h p p p p p k k x p p p p t p p p y y t y e p q y e ",
"5 ` n F ` H A I Z Z I H ` R F R F F F F F H ` F ` F F V F V F n -  .m v Z Z Z Z v b b A A A A A F F m F F F ) R F F F V F F F F ",
"8 >.>.>.4.+.I A I ..~ ..>.>.>.>.e.>.>.>.>.+.` ` ` ` H ` >.` >.+.9 t... ... ...I / / 4.4.&...&.&.t.8.>.>.#.>.>...>.>.>.#.#.` >.t.",
"5 >.>.` +.` I ......+...>.4.>.>.t.>.>.>.>.>...` ` ` H ` ` ` -...- >. ...&......./ /  . .........t.>.>. . .>.>...8.>.>.>.>.` >.a.",
"- ` >.>.>.`  .......>.4.-.-.t.>.>.+.` ` >.+...I >.>.>.>.>.` -. .% >.` ..&...8.>. . . . ....... .#.#.#. ...>.>.8.t.>.` ` >.` >.p.",
"< +.>.>.>.+. ...-.4.-.t.t.-.>.` ....~ .. .I I  .>.>.>... . .4.4.- 8.......~ ..../  .O.O.&. . . . . .......8.&.&.>. . ..... .>.d.",
"5 >.+.` I I ..4.-.4.-.t.-...+.I ..` ~ .. . . .......-... .P 4.4.* >... ...I ..../ / ~ ~ ~ ~ ~ ~  .` `  .....&.&.....>.>. .R ..f.",
"- ` t.t.-.>.4.-.-.t.t.t.t.>...I .. .I +.I I ` ..-.-.-.>. . .4. .+ >.8.8.&.~ ..&./ / ~ ~ ~ ~ ~ ~  ... . ...&.4.4...-.-.-...I ..s.",
"- >.8.t.4...>.-.t.-.t.-.-.-.....4...I  ...` ....>.......4.P 4./ + 8.-.-.-.~  .../ P ~ ~ ~  . . .>... . .~  . ...-.8...........7.",
"o >.t.>.>...4... .4.4.O.O.-.>...~  . ./ Y Y / =.4.=.4. ./ B  ./ + 8.-...~ ..~ I ~ / 4.&.&. .&.&./ /  ./ B /  .=...4.=.O./ B  .w.",
"- ` t.8...4.4.>.4.4.4.O.>.-.-...4. ./ / / =.=.=. ...=./ / B  . .o >.>... .&...~  . .4.4.&.4.&.&.=.O./ / / =.=.4.4. . .O./ B / w.",
"- ` >.>...4.....4.4...O.......>.=. .P  . ...=. ....... . .P 4. .o ......~ &...~ / O.&.O.&. . .&. . .~ ~  .=. .&. . . . . .~  .w.",
"- >.>.>.4...4.4.4. . . .>.....-. . . . . .O.4.4....... . ./ 4./ + 8... .I ..I I /  . . . .&.&. . . . . . .O.&.4. .&. .&. .P  .w.",
"- ..4.O.....-.>.4.O. .4.-.>.>.-.` ....-.4.O.O.4....... ...I .. .- >.8...~ ~ I ~  .O.&.&. .4.4.&. . .O.4.4.4.&.4.~ &.4. .P  .&.4.",
"*  . .4.......4.=.O. .=.>.-...4.I I I I O.4...I I I ....I ..-.I o >.>... ... .&.O.O. .&.&.4.4.&.P P P ~  .&. .P P  .&. .~  .4.4.",
"* I  . .4. ... .4. .>.....-.......I I ....4...I I  . .I ..I ..Z .  . .....&.....O.O. . .&.&.&. . . .~  .&.4. .~ P  . .P ~  . . .",
"< .. .4. . . . ...4.4...>.-.4.I I ..............I  .I F I ....k o >...>.....~ ~ O.O.O.O. .4. .~ ~  . . . . . .&. .P P P ~ P ~ ~ ",
"o ` ......+.I  .O.=.4.4.4. .O. . .P P ............I I I ..I ..Z   ....I .. .I ....-.t.-.........~ P P ~  .&. . . .P ~ P ~  .~  .",
"- ` I +.-.O. . ./  .4. . . . .P ..I I ..>.-.....4. .I ....I ..P   I ....&.>...-.` ....>.....~ I  .~  . .4.4.&.&.4. .~  . . .~ 4.",
"- I I ..........O.=.=.4.4.4.4. ..... ...........4...I ..` ....I = I I ......&.....8.-.-.-.8..... . . . .&. . . .4. .~  . . .~ 4.",
"5 I I +. .....+./ /  .4.O.4.4.4.I  . . ..... . . ...P ..I ....I , A I ..~  ...I ~ ....&.&.&.8.-. . . . . . . . .&.P P P  . . .&.",
"- I ` ` I ` ..I I ` .... ....... ....... . . ...I ..Z I P 4.>.Z * A I I I I ..~ I  ............. . . .&. . . . . .~  .P P 4. . .",
"- ` ` ` I I ......4.-.-.......O....... . . . ....... .I ` -.-.F # I  .I I  .&.I ....-.-......... . . . . . . .~  .&.4. . .4.4.&.",
"- ` ` ` ..I ....I ...... . .....I I ..I I  .I I ...... .....-.I - #. .I ..I I I  ...>...........P ~ ~  .~  . .~ &.&.4. . .4.&.&.",
"- >.>.` ..+.I I I I ~ ~ ~  . .~ I I I I I  . .I ..I I I ..I -...- ..I  .&...I ~ I I ~ ` I ..~ I P ~ P P P  .~ P  . . .~ P  .&.4.",
"- I ` ` ..I ......I I .. . .~ P P I I I .. . .I ..I I I I ..I Z % ` ` ` ` >...`  .I I ~ ..~ I Z I I I I I ..~ I  . . .P P I P &.",
"< ` +.>.......I I I ~ .. ...I Z Z P I I I I I P ..I ` I I I I Z + #.>.>.` +.` ` I .... .....~ I A I I I I  .I I  . . .P I ~ I ..",
"< ` ` ` ......I I ~ ........>.I ....I I I I .... .I I Z Z I I Z % `  . .` ` ` ` Z I ..I  .....I .. .I I I I  .~  .~ P A P ~ I I ",
"- I ` +.I I ..I I +.~ I I I ` ` .... .I I I I I ..I Z Z Z ....Z - ` ) ` ` >... .I ....~ ~ ....I .... .I I I I I  . .P b A  . . .",
"- ` ` ` ` ` ` ~ ..I ......I +...I I  ...I I P Z ..I Z b Z I ` k % H H ` ` >.` ` I I ..~ I I I I I I  .~ I I I Z I ` Z k A ` ~ I ",
"5 ` >.>.>.` ....+.Z H ..I Z F H ..I I I I  . . .I I Z Z I ....Z - +.>.e.` ` ` ` ..I I  . .I I I  .`  .I I ~ ..~ I  .A Z I  ... .",
"9 ` ` ` ..+...I I P F ` ` ` ` ` I P Z Z Z Z I  .I ` Z I I I I n < >.+.>.` +.` ` ` ` I I I I I I I I Z v Z Z I I I ~ A R I I I I ",
"- n a f n n v p j p f p f n n k p p p j p p p p p p e p y y p r o l u f l n f f h h p p j k k h p f p p p j j p p k p p p e j k "
};
