/* XPM */
static char *item_xpm[] = {
"48 16 5 1",
"  c None",
". c #000000",
", c #bf6f4a",
"- c #e69c69",
": c #8a4836",
/* pixels */
"@@@@@@@@@@@@@@@@@@@@@@@@@@@@@@@@@@@@@@@@@@@@@@@@",
"@@@@@@@@@@@@@@@@@@@@@@@@@@@@@@@@@@@@@@@@@@@@@@@@",
"@@@@@@@@@@@@@@@@@@@@@@@@@@@@@@@@@@@@@@@@@@@@@@@@",
"@@@@@@@@................................@@@@@@@@",
"@@@@@@@.,,,,,,,,,,,,,,,,,,,,,,,,,,,,,,,,.@@@@@@@",
"@@@@@@.,,------------------------------,,.@@@@@@",
"@@@@@.,,-..............................-,,.@@@@@",
"@@@@.,,-.@@@@@@@@@@@@@@@@@@@@@@@@@@@@@@.-,,.@@@@",
"@@@.,,-.@@@@@@@@@@@@@@@@@@@@@@@@@@@@@@@@.-,,.@@@",
"@@@@.::,.@@@@@@@@@@@@@@@@@@@@@@@@@@@@@@.,::.@@@@",
"@@@@@.::,..............................,::.@@@@@",
"@@@@@@.::,,,,,,,,,,,,,,,,,,,,,,,,,,,,,,::.@@@@@@",
"@@@@@@@.::::::::::::::::::::::::::::::::.@@@@@@@",
"@@@@@@@@................................@@@@@@@@",
"@@@@@@@@@@@@@@@@@@@@@@@@@@@@@@@@@@@@@@@@@@@@@@@@",
"@@@@@@@@@@@@@@@@@@@@@@@@@@@@@@@@@@@@@@@@@@@@@@@@",
"};