/* XPM */
static char *item_xpm[] = {
"48 16 7 1",
"  c None",
". c #000000",
", c #ffffff",
"- c #c7cfdd",
": c #92a1b9",
"+ c #657392",
"; c #424c6e",
/* pixels */
"@@@@@@@@@@@@@@@@@@@@@@@@@@@@@@@@@@@@@@@@@@@@@@@@",
"@@@@@@@@@@@@@@@@@@@@@@@@@@@@@@@@@@@@@@@@@@@@@@@@",
"@@@@@@@@@@@@@@@@@@@@@@@@@@@@@@@@@@@@@@@@@@@@@@@@",
"@@@@@@@@@................................@@@@@@@",
"@@@@@@@@.,,,,,,,,,,------------::::::::::.@@@@@@",
"@@@@@@@.,-..............................::.@@@@@",
"@@@@@@.--.@@@@@@@@@@@@@@@@@@@@@@@@@@@@@@.::.@@@@",
"@@@@@@.--.@@@@@@@@@@@@@@@@@@@@@@@@@@@@@@.::.@@@@",
"@@@@@@.:-.@@@@@@@@@@@@@@@@@@@@@@@@@@@@@@.::.@@@@",
"@@@@@@.::-..............................::+.@@@@",
"@@@@@@.+::::::::::::::::++++++++++++++++++;.@@@@",
"@@@@@@@.+::::::::::::::++++++++++++++++++;.@@@@@",
"@@@@@@@@.+++++++++++++;;;;;;;;;;;;;;;;;;;.@@@@@@",
"@@@@@@@@@................................@@@@@@@",
"@@@@@@@@@@@@@@@@@@@@@@@@@@@@@@@@@@@@@@@@@@@@@@@@",
"@@@@@@@@@@@@@@@@@@@@@@@@@@@@@@@@@@@@@@@@@@@@@@@@",
"};