/* XPM */
static char *s3fvRAX1720977098[] = {
/* columns rows colors chars-per-pixel */
"64 64 116 2 ",
"   c #E96A45",
".  c #E66944",
"X  c #F9714A",
"o  c #3B1B11",
"O  c #E56844",
"+  c #F8714A",
"@  c #9B462E",
"#  c #020100",
"$  c #DC6441",
"%  c #ED6C46",
"&  c #E86945",
"*  c #DB4D24",
"=  c #D94C24",
"-  c #EB5327",
";  c #381309",
":  c #D84C24",
">  c #EA5227",
",  c #923318",
"<  c #020000",
"1  c #CF4922",
"2  c #DF4F25",
"3  c #DA4D24",
"4  c #D43E13",
"5  c #D23D12",
"6  c #E34214",
"7  c #360F04",
"8  c #D13D12",
"9  c #E24214",
"0  c #8D290C",
"q  c #C83A11",
"w  c #D83F13",
"e  c #D33E12",
"r  c #D54116",
"t  c #D34016",
"y  c #E44618",
"u  c #361005",
"i  c #D24016",
"p  c #E34518",
"a  c #8E2B0F",
"s  c #C93D15",
"d  c #D94217",
"f  c #D44116",
"g  c #D64015",
"h  c #D54015",
"j  c #D33F15",
"k  c #E44517",
"l  c #E44416",
"z  c #8E2B0E",
"x  c #CA3D14",
"c  c #D94115",
"v  c #C43F19",
"b  c #C23E18",
"n  c #D2431A",
"m  c #321006",
"M  c #C33F18",
"N  c #D1431A",
"B  c #832A10",
"V  c #030100",
"C  c #B93B17",
"Z  c #C84019",
"A  c #C33F19",
"S  c #C43F18",
"D  c #6F240F",
"F  c #6D240F",
"G  c #762710",
"H  c #1C0903",
"J  c #6E240F",
"K  c #732610",
"L  c #70250F",
"P  c #4A180A",
"I  c #010000",
"U  c #68220E",
"Y  c #71250F",
"T  c #722610",
"R  c #060302",
"E  c #050302",
"W  c #0D0503",
"Q  c black",
"!  c #040201",
"~  c #090403",
"^  c #0F0603",
"/  c #DB6341",
"(  c #D96341",
")  c #DA6340",
"_  c #DF6542",
"`  c #CF5E3D",
"'  c #040101",
"]  c #92422B",
"[  c #D86240",
"{  c #DA6341",
"}  c #D96340",
"|  c #EA6A45",
" . c #391910",
".. c #DE4E25",
"X. c #E35026",
"o. c #D34A23",
"O. c #953418",
"+. c #EE5427",
"@. c #DC4E24",
"#. c #DD4E24",
"$. c #EF5428",
"%. c #391409",
"&. c #D73F13",
"*. c #E14214",
"=. c #D03D12",
"-. c #350F04",
";. c #C13E18",
":. c #712510",
">. c #702510",
",. c #6A230F",
"<. c #4B190A",
"1. c #782811",
"2. c #6F2510",
"3. c #792811",
"4. c #1C0904",
"5. c white",
/* pixels */
"              . X o o X .                               O + @ # $ % &                             & % $ # @ + O                 ",
"* * * * * * * = - ; ; - = * * * * * * * * * * * * * * * : > , < 1 2 3 * * * * * * * * * * * * * * 3 2 1 < , > : * * * * * * * * ",
"4 4 4 4 4 4 4 5 6 7 7 6 5 4 4 4 4 4 4 4 4 4 4 4 4 4 4 4 8 9 0 < q w e 4 4 4 4 4 4 4 4 4 4 4 4 4 4 e w q < 0 9 8 4 4 4 4 4 4 4 4 ",
"r r r r r r r t y u u y t r r r r r r r r r r r r r r r i p a < s d f r r r r r r r r r r r r r r f d s < a p i r r r r r r r r ",
"g g g g g g h j k u u k j h g g g g g g g g g g g g g g j l z < x c h g g g g g g g g g g g g g g h c x < z l j g g g g g g g g ",
"v v v v v v v b n m m n b v v v v v v v M v v v v v v v b N B V C Z A v v v v v v S S v v v v v v A Z C V B N b v v v v v v v v ",
"D D D D D D D F G H H G F D D D D D J D K L J D D D D D F G P I U Y J D D D D D J T T J D D D D D J Y U I P G F D D D D D D D D ",
"R R R R R R R R E W W E R R R R R R R R Q ! R R R R R R R E ~ ^ R R R R R R R R R I I R R R R R R R R R ^ ~ E R R R R R R R R R ",
"/ / / / / / / / / ( ( / / / / / / ) _ ` ' ]   [ / / / / / / { } / / / / / / / [ |  . .| [ / / / / / / / } { / / / / / / / / / / ",
"2 2 2 2 2 2 2 2 2 2 2 2 2 2 2 2 2 ..X.o.< O.+.@.2 2 2 2 2 2 2 2 2 2 2 2 2 2 2 #.$.%.%.$.#.2 2 2 2 2 2 2 2 2 2 2 2 2 2 2 2 2 2 2 ",
"e e e e e e e e e e e e e e e e e 5 &.q < 0 *.=.e e e e e e e e e e e e e e e 8 9 -.-.9 8 e e e e e e e e e e e e e e e e e e e ",
"r r r r r r r r r r r r r r r r r f d s < a p i r r r r r r r r r r r r r r r t y u u y t r r r r r r r r r r r r r r r r r r r ",
"g g g g g g g g g g g g g g g g g h c x < z l j g g g g g g g g g g g g g g h j k u u k j h g g g g g g g g g g g g g g g g g g ",
"v v v v v v v v v S S v v v v v v A Z C V B N b v v v v v v v M v v v v v v v b n m m n b v v v v v v v M v v v v v v v v v v v ",
"D D D D D D D D J T T J D D D D D J Y U I P G F D D D D D J L K D J D D D D D F G H H G F D D D D D J D K L J D D D D D D D D D ",
"R R R R R R R R R I I R R R R R R R R R ^ ~ E R R R R R R R ! Q R R R R R R R R E W W E R R R R R R R R Q ! R R R R R R R R R R ",
"/ / / / / / / [ |  . .| [ / / / / / / / } { / / / / / / [   ] ' ` _ ) / / / / / / ( ( / / / / / / ) _ ` ' ]   [ / / / / / / / / ",
"2 2 2 2 2 2 2 #.$.%.%.$.#.2 2 2 2 2 2 2 2 2 2 2 2 2 2 2 @.+.O.< o.X...2 2 2 2 2 2 2 2 2 2 2 2 2 2 ..X.o.< O.+.@.2 2 2 2 2 2 2 2 ",
"e e e e e e e 8 9 -.-.9 8 e e e e e e e e e e e e e e e =.*.0 < q &.5 e e e e e e e e e e e e e e 5 &.q < 0 *.=.e e e e e e e e ",
"r r r r r r r t y u u y t r r r r r r r r r r r r r r r i p a < s d f r r r r r r r r r r r r r r f d s < a p i r r r r r r r r ",
"g g g g g g h j k u u k j h g g g g g g g g g g g g g g j l z < x c h g g g g g g g g g g g g g g h c x < z l j g g g g g g g g ",
"v v v v v v v b n m m n b v v v v v v v M v v v v v v v b N B V C Z A v v v v v v S S v v v v v v A Z C V B N b v v v v v v v v ",
"D D D D D D D F G H H G F D D D D D J D K L J D D D D D F G P I U Y J D D D D D J T T J D D D D D J Y U I P G F D D D D D D D D ",
"R R R R R R R R E W W E R R R R R R R R Q ! R R R R R R R E ~ ^ R R R R R R R R R I I R R R R R R R R R ^ ~ E R R R R R R R R R ",
"/ / / / / / / / / ( ( / / / / / / ) _ ` ' ]   [ / / / / / / { } / / / / / / / [ |  . .| [ / / / / / / / } { / / / / / / / / / / ",
"2 2 2 2 2 2 2 2 2 2 2 2 2 2 2 2 2 ..X.o.< O.+.@.2 2 2 2 2 2 2 2 2 2 2 2 2 2 2 #.$.%.%.$.#.2 2 2 2 2 2 2 2 2 2 2 2 2 2 2 2 2 2 2 ",
"e e e e e e e e e e e e e e e e e 5 &.q < 0 *.=.e e e e e e e e e e e e e e e 8 9 -.-.9 8 e e e e e e e e e e e e e e e e e e e ",
"r r r r r r r r r r r r r r r r r f d s < a p i r r r r r r r r r r r r r r r t y u u y t r r r r r r r r r r r r r r r r r r r ",
"g g g g g g g g g g g g g g g g g h c x < z l j g g g g g g g g g g g g g g h j k u u k j h g g g g g g g g g g g g g g g g g g ",
"v v v v v v v v v S S v v v v v v A Z C V B N b v v v v v v v M v v v v v v v b n m m n b v v v v v v v M v v v v v v v v v v v ",
"D D D D D D D D J T T J D D D D D J Y U I P G F D D D D D J L K D J D D D D D F G H H G F D D D D D J D K L J D D D D D D D D D ",
"R R R R R R R R R I I R R R R R R R R R ^ ~ E R R R R R R R ! Q R R R R R R R R E W W E R R R R R R R R Q ! R R R R R R R R R R ",
"/ / / / / / / [ |  . .| [ / / / / / / / } { / / / / / / [   ] ' ` _ ) / / / / / / ( ( / / / / / / ) _ ` ' ]   [ / / / / / / / / ",
"2 2 2 2 2 2 2 #.$.%.%.$.#.2 2 2 2 2 2 2 2 2 2 2 2 2 2 2 @.+.O.< o.X...2 2 2 2 2 2 2 2 2 2 2 2 2 2 ..X.o.< O.+.@.2 2 2 2 2 2 2 2 ",
"e e e e e e e 8 9 -.-.9 8 e e e e e e e e e e e e e e e =.*.0 < q &.5 e e e e e e e e e e e e e e 5 &.q < 0 *.=.e e e e e e e e ",
"r r r r r r r t y u u y t r r r r r r r r r r r r r r r i p a < s d f r r r r r r r r r r r r r r f d s < a p i r r r r r r r r ",
"g g g g g g h j k u u k j h g g g g g g g g g g g g g g j l z < x c h g g g g g g g g g g g g g g h c x < z l j g g g g g g g g ",
"v v v v v v v b n m m n b v v v v v v v M v v v v v v v b N B V C Z A v v v v v v S S v v v v v v A Z C V B N b v v v v v v v v ",
"D D D D D D D F G H H G F D D D D D J D K L J D D D D D F G P I U Y J D D D D D J T T J D D D D D J Y U I P G F D D D D D D D D ",
"R R R R R R R R E W W E R R R R R R R R Q ! R R R R R R R E ~ ^ R R R R R R R R R I I R R R R R R R R R ^ ~ E R R R R R R R R R ",
"/ / / / / / / / / ( ( / / / / / / ) _ ` ' ]   [ / / / / / / { } / / / / / / / [ |  . .| [ / / / / / / / } { / / / / / / / / / / ",
"2 2 2 2 2 2 2 2 2 2 2 2 2 2 2 2 2 ..X.o.< O.+.@.2 2 2 2 2 2 2 2 2 2 2 2 2 2 2 #.$.%.%.$.#.2 2 2 2 2 2 2 2 2 2 2 2 2 2 2 2 2 2 2 ",
"e e e e e e e e e e e e e e e e e 5 &.q < 0 *.=.e e e e e e e e e e e e e e e 8 9 -.-.9 8 e e e e e e e e e e e e e e e e e e e ",
"r r r r r r r r r r r r r r r r r f d s < a p i r r r r r r r r r r r r r r r t y u u y t r r r r r r r r r r r r r r r r r r r ",
"g g g g g g g g g g g g g g g g g h c x < z l j g g g g g g g g g g g g g g h j k u u k j h g g g g g g g g g g g g g g g g g g ",
"v v v v v v v v v S S v v v v v v A Z C V B N b v v v v v v v M v v v v v v v b n m m n b v v v v v v v M v v v v v v v v v v v ",
"D D D D D D D D J T T J D D D D D J Y U I P G F D D D D D J L K D J D D D D D F G H H G F D D D D D J D K L J D D D D D D D D D ",
"R R R R R R R R R I I R R R R R R R R R ^ ~ E R R R R R R R ! Q R R R R R R R R E W W E R R R R R R R R Q ! R R R R R R R R R R ",
"/ / / / / / / [ |  . .| [ / / / / / / / } { / / / / / / [   ] ' ` _ ) / / / / / / ( ( / / / / / / ) _ ` ' ]   [ / / / / / / / / ",
"2 2 2 2 2 2 2 #.$.%.%.$.#.2 2 2 2 2 2 2 2 2 2 2 2 2 2 2 @.+.O.< o.X...2 2 2 2 2 2 2 2 2 2 2 2 2 2 ..X.o.< O.+.@.2 2 2 2 2 2 2 2 ",
"e e e e e e e 8 9 -.-.9 8 e e e e e e e e e e e e e e e =.*.0 < q &.5 e e e e e e e e e e e e e e 5 &.q < 0 *.=.e e e e e e e e ",
"r r r r r r r t y u u y t r r r r r r r r r r r r r r r i p a < s d f r r r r r r r r r r r r r r f d s < a p i r r r r r r r r ",
"g g g g g g h j k u u k j h g g g g g g g g g g g g g g j l z < x c h g g g g g g g g g g g g g g h c x < z l j g g g g g g g g ",
"v v v v v v v b n m m n b v v v v v v v M v v v v v v v b N B V C Z A v v v v v v S S v v v v v v A Z C V B N b v v v v v v v v ",
"D D D D D D D F G H H G F D D D D D J D K L J D D D D D F G P I U Y J D D D D D J T T J D D D D D J Y U I P G F D D D D D D D D ",
"R R R R R R R R E W W E R R R R R R R R Q ! R R R R R R R E ~ ^ R R R R R R R R R I I R R R R R R R R R ^ ~ E R R R R R R R R R ",
"/ / / / / / / / / ( ( / / / / / / ) _ ` ' ]   [ / / / / / / { } / / / / / / / [ |  . .| [ / / / / / / / } { / / / / / / / / / / ",
"2 2 2 2 2 2 2 2 2 2 2 2 2 2 2 2 2 ..X.o.< O.+.@.2 2 2 2 2 2 2 2 2 2 2 2 2 2 2 #.$.%.%.$.#.2 2 2 2 2 2 2 2 2 2 2 2 2 2 2 2 2 2 2 ",
"e e e e e e e e e e e e e e e e e 5 &.q < 0 *.=.e e e e e e e e e e e e e e e 8 9 -.-.9 8 e e e e e e e e e e e e e e e e e e e ",
"r r r r r r r r r r r r r r r r r f d s < a p i r r r r r r r r r r r r r r r t y u u y t r r r r r r r r r r r r r r r r r r r ",
"g g g g g g g g g g g g g g g g g h c x < z l j g g g g g g g g g g g g g g h j k u u k j h g g g g g g g g g g g g g g g g g g ",
"S S S S S S S S S S S S S S S S S M Z C < B N ;.S S S S S S S S S S S S S S S b n m m n b S S S S S S S S S S S S S S S S S S S ",
":.:.:.:.:.:.:.:.:.:.:.:.:.:.:.:.:.>.K ,.I <.1.2.:.:.:.:.:.:.:.:.:.:.:.:.:.:.:.2.3.4.4.3.2.:.:.:.:.:.:.:.:.:.:.:.:.:.:.:.:.:.:.:.",
"Q Q Q Q Q Q Q Q Q Q Q Q Q Q Q Q Q Q Q Q Q Q Q Q Q Q Q Q Q Q Q Q Q Q Q Q Q Q Q Q Q Q Q Q Q Q Q Q Q Q Q Q Q Q Q Q Q Q Q Q Q Q Q Q "
};
