/* XPM */
static char *image_part_0021725991614[] = {
/* columns rows colors chars-per-pixel */
"64 64 107 2 ",
"   c None",
".  c #000000",
"X  c #0D0C0B",
"o  c #110E0D",
"O  c #14110F",
"+  c #041710",
"@  c #051911",
"#  c #151211",
"$  c #191616",
"%  c #1B1817",
"&  c #191718",
"*  c #1C1A1A",
"=  c #221E1D",
"-  c #062418",
";  c #242222",
":  c #282525",
">  c #2D2B2B",
",  c #312925",
"<  c #312E2F",
"1  c #3E342E",
"2  c #363130",
"3  c #3D3430",
"4  c #3E3A3A",
"5  c #413731",
"6  c #433933",
"7  c #483D37",
"8  c #453D39",
"9  c #483E3A",
"0  c #0D4228",
"q  c #0F5437",
"w  c #4C423E",
"e  c #53463E",
"r  c #14724A",
"t  c #4E4745",
"y  c #4E4847",
"u  c #4F4B4B",
"i  c #544740",
"p  c #564942",
"a  c #594C45",
"s  c #534D4C",
"d  c #5B4F49",
"f  c #5E524C",
"g  c #5B5453",
"h  c #5E5856",
"j  c #5F5958",
"k  c #60544E",
"l  c #625651",
"z  c #655955",
"x  c #695C56",
"c  c #655D5B",
"v  c #6A5E5A",
"b  c #6D625D",
"n  c #70645E",
"m  c #666060",
"M  c #6D6564",
"N  c #6D6768",
"B  c #6E6868",
"V  c #726662",
"C  c #736966",
"Z  c #746C6B",
"A  c #796F6D",
"S  c #7A716E",
"D  c #777070",
"F  c #7D7574",
"G  c #7F7877",
"H  c #7F7878",
"J  c #817672",
"K  c #817876",
"L  c #847C7C",
"P  c #887F7D",
"I  c #1B804C",
"U  c #299B4F",
"Y  c #229F5D",
"T  c #2FA74E",
"R  c #30A747",
"E  c #3CAD4B",
"W  c #27A258",
"Q  c #4AB454",
"!  c #5DBE61",
"~  c #75CA70",
"^  c #7ACD74",
"/  c #87807F",
"(  c #89807F",
")  c #867F80",
"_  c #878080",
"`  c #8B8484",
"'  c #8E8788",
"]  c #8F8888",
"[  c #918683",
"{  c #938886",
"}  c #938C8C",
"|  c #988E8D",
" . c #9B908F",
".. c #978F90",
"X. c #979090",
"o. c #9B9392",
"O. c #A19795",
"+. c #A39997",
"@. c #A59B9A",
"#. c #A89E9D",
"$. c #A89FA0",
"%. c #ACA3A3",
"&. c #B0A7A7",
"*. c #B3AAAA",
"=. c #B8AFAF",
"-. c #BDB3B3",
";. c #C0B6B6",
/* pixels */
"                                                            -.-.-.=.-.-.                                                        ",
"                                                            #.&.%.&.&.&.                                                        ",
"                                        ' ` _ | &.+.V e e b `  .X.| | o.&.+.n p p p                                             ",
"                                        ` _ '  .&.@.b e e z F _ ' _ ` ..&.@.b a k x                                             ",
"                            -.+.b k F ' ' ` ` X.*.+.n e e z F ' ` ` _ X.*.@.n f C K _ X.&.O.n p                                 ",
"                            %.O.J V S J L _ _ } #.+.J z d l F ' ` ` ` { O.[ x l F ` ` X.*.+.n p                                 ",
"                    p z F ] X.o.O.{ C z M F _ ' | X.+.[ x z J ' ' ` ' L C x d l K ' _ | *.@.n e e l J '                         ",
"                    p l D ) ` | %. .v a h N F ) _ X.=.@.n k S P P P ( F k p k b K ] ..O.O.( x a k M K {                         ",
"                p i e k V F P ] X.P z p d l M F P X.=.@.V f M D D D D N f g C K _ ..%.O.J z d k C K _ | %.-.                    ",
"                V x d d z M F _ ` L Z x f d z C H _ ' F a 8 y s u s s s f b K } X.o.@.{ V k k n L ' _ X.&.*.                    ",
"            ` } o.[ x p a h M F _ { o.[ x a d x Z c 4 ; $ # $ & & $ & > s Z ) X.%.+.J V S F F K / ` _ X.*.#.C e                 ",
"            _ | %.O.Z z v b b B L X.&...g 5 5 7 u 4 # . . . . . . . . # 4 g m D _ K l l D ` ` ] | X. .o.+.[ V v                 ",
"        p x K ] ..} L P | [ b v K } o.F 2 o O $ $ # . . . . . . . . . . $ * = ; > 2 w l C F ) | $.&.&.+.S V S _ %.-.            ",
"        p l D P L ) _ o.=.O.g w h N B u & . . . . . . . . . . . . . . . . . . . . X , 7 t m _ o.+.@.@.{ b b K | #.&.            ",
"        p f N D Z D P o.=.| 4 O * ; ; * . . . . . . . . . . . . . . . . . . . . . . o # # 4 ] #.K b b C S K _ ' | o.&.;.        ",
"        p d z c c N F ' O.D : . . . . . . . . . . . . . . . . . . . . . . . . . . . . . . ; N H a 6 i v H ' ` ` ` } o.@.        ",
"    a a p d d d d l M Z C d % . . . . . . . . . . . . . . . . . . . . . . . . . . . . . . X ; : $ ; p Z L ` ` ` ] L C n         ",
"    p a p d k z b b b g w , o . . . . . . . . . . . . . . . . . . . . . . . . . . . . . . . . . . & s D P ` ' _ K Z f e         ",
"    a p p k C ( o.{ b 8 = X . . . . . . . . . . . . . . . . . . . . . . . . . . . . . . . . . . . * s F _ ' ' L M k p e         ",
"    a a f v K X.%.+.K p # . . . . . . . . . . . . . . . . . . . . . . . . . . . . . . . . . . . . # 4 j D P K C f d k b         ",
"    a d z Z L ] | o.@.F : . . . . . . . . . . . . . . . . . . . . . . . . . . . . . . . . . . . . X # > z Z v f a k C ` %.-.    ",
"    p f c Z H ) _ X.%.` > . . . . . . . . . . . . . . . . . . . . . . . . . . . . . . . . . . . . . . $ y m z z k M K X.&.-.    ",
"    p d c Z Z F _ } o.D ; . . . . . . . . . . . . . . . . . . . . . . . . . . . . . . . . . . . . . . # 8 z Z F K K _ X.&.-.    ",
"    x z c c c M D H H z * . . . . . . . . . . . . . . . . . . . . . . . . . . . . . . . . . . . . . . # 8 b L ' ' ' ' { o.+.    ",
"' _ K Z z d d f l z x w % . . . . . . . . . . . . . . . . . . . . . . . . . . . . . . . . . . . . . . & s Z ) ' ' ' ] L C b     ",
"L _ ` P V k d p p e 7 , o . . . . . . . . . . . . . . . . . . . . . . . . . . . . . . . . . . . . . . o 4 j D L J F G S n n     ",
"D F _ ` K C f p p 6 = o . . . . . . . . . . . . . . . . . . . . . . . . . . . . . . . . . . . . . . . X # < j Z b l l V { #.*.-.",
"c M F ) ' P C V V a $ . . . . . . . . . . . . . . . . . . . . . . . . . . . . . . . . . . . . . . . . . . # t b l l k C O.*.=.-.",
"d z M F ) } X.@.@.F : . . . . . . . . . . . . . . . . . . . . . . . . . . . . . . . . . . . . . . . . . . # 8 z S F F L { +.*.-.",
"a d z N F ' $.=.-.{ > . . . . . . . . . . . . . . . . . . . . . . . . . . . . . . . . . . . . . . . . . . # 6 b K ] ` ` ` ] o.+.",
"a a d l M H ' $.-.{ > . . . . . . . . . . . . . . . . . . . . . . . . . . . . . . . . . . . . . . . . . . $ t Z L ` ' ` ` L Z n ",
"a i i d z M Z P o.F : . . . . . . . . . . . . . . . . . . . . . . . . . . . . . . . . . . . . . . . . . . % s S ( ] ` ` K C f e ",
"p p e d d f k z b d % . . . . . . . . . . . . . . . . . . . . . . . . . . . . . . . . . . . . . . . . . . * s D ) ' { K b f p e ",
"k k l z z z n x f 3 O . . . . . . . . . . . . . . . . X @ - - - - @ X . . . . . . . . . . . . . . . . . . % t C D F J S V n n n ",
"v M S F F P X.{ x 1 O . . . . . . . . . . . . . . . . @ q r r r r q @ . . . . . . . . . . . . . . . . . . # 8 k z z k C { O.+.+.",
"c Z K ' ' | %.+.J p $ . . . . . . . . . . . . . . . @ 0 r W Y Y W r 0 @ . . . . . . . . . . . . . . . . . # 8 k k l k C o.=.-.-.",
"f v K ' ` ' | o.+.F : . . . . . . . . . . . . . . @ q I U T T T T U I q @ . . . . . . . . . . . . . . . . $ u M D F F L { +.&.-.",
"p l Z P ` ` ` X.=.{ > . . . . . . . . . . . . X @ 0 I W T E Q Q E T W I 0 @ . . . . . . . . . . . . . . . & s D _ ` ' ` ` ..&.-.",
"a f M F _ ' ` o.=.{ > . . . . . . . . . . . . @ q I U T R Q ~ ~ Q R T U I q - . . . . . . . . . . . . . . & s D _ ] ' ` ` X.&.-.",
"p f c Z D H L ] o.F : . . . . . . . . . . . . - r W T E Q ! ^ ^ ! Q E T W r - . . . . . . . . . . . . . . $ u C G P L L F P  .+.",
"p f m m v v B Z C p % . . . . . . . . . . . . - r Y T Q ~ ^ ! ! ^ ~ Q T Y r - . . . . . . . . . . . . . . # 8 z N A Z B v l b b ",
"p d x z d a l x f 5 O . . . . . . . . . . . . - r Y T Q ~ ^ ! ! ^ ~ Q T Y r - . . . . . . . . . . . . . . $ w v v c v b b b b b ",
"p d d d p p d d d 5 # . . . . . . . . . . . . - r Y T E Q ! ^ ^ ! Q E T W r - . . . . . . . . . . . . . . * j Z z d d b [ +.O.O.",
"z l l z b n M v f 6 O . . . . . . . . . . . . @ q I U T T Q ~ ~ Q R T U I q @ . . . . . . . . . . . . . . ; N P V l g C O.=.-.-.",
"F F F P | @.@.[ x 3 O . . . . . . . . . . . . . @ 0 I W T E Q Q E T W I 0 + X . . . . . . . . . . . . . . ; N ` L F J L { @.=.-.",
"P ) ` | $.*.*.@.K a % . . . . . . . . . . . . . . @ q I U T T T T U I q + . . . . . . . . . . . . . . . . = c _ / / ' _ K L | O.",
"Z F ) ] | X.X.O.@.G : . . . . . . . . . . . . . . . + 0 I Y W Y Y I 0 @ . . . . . . . . . . . . . . . . . * g D A F _ L n z v b ",
"N B H P ` ) K ( o.G : . . . . . . . . . . . . . . . . @ q r r r r q @ . . . . . . . . . . . . . . . . . . $ y m c M S C k d z n ",
"N B Z F / K M x n a % . . . . . . . . . . . . . . . . . @ - - - - @ . . . . . . . . . . . . . . . . . . . # 8 f f f k f d x [ +.",
"c m M Z F C f p p 3 O . . . . . . . . . . . . . . . . . . . . . . . . . . . . . . . . . . . . . . . . . . & t z z z b z d x [ #.",
"f j m M v f a p p 3 O . . . . . . . . . . . . . . . . . . . . . . . . . . . . . . . . . . . . . . . . . . * z F J /  .[ x d x C ",
"a d z l d d x V n a * . . . . . . . . . . . . . . . . . . . . . . . . . . . . . . . . . . . . . . . . . . = N ' ' | %.+.J z a e ",
"a a d d p z [ #.@.F : . . . . . . . . . . . . . . . . . . . . . . . . . . . . . . . . . . . . . . . . . . ; N ' ' ] | o.+.( x e ",
"a a l l k Z o.=.-.{ > . . . . . . . . . . . . . . . . . . . . . . . . . . . . . . . . . . . . . . . . . . * m ` ` ` _ | %.+.J n ",
"p l C F J L { @.-.] > . . . . . . . . . . . . . . . . . . . . . . . . . . . . . . . . . . . . . . . . . . * g F _ ` ` ] | o.O.+.",
"i z K ' { ' ` ..%./ > . . . . . . . . . . . . . . . . . . . . . . . . . . . . . . . . . . . . . . . . . . $ t B H _ ` ( J P  .+.",
"p z G ] ] ` ' { X.Z : . . . . . . . . . . . . . . . . . . . . . . . . . . . . . . . . . . . . . . . . . . # 8 z N F _ L b l b n ",
"p k C J F F F J H j * . . . . . . . . . . . . . . . . . . . . . . . . . . . . . . . . . . . . . . . . . . # 6 d z M S S C b x b ",
"e d k l z l k z z w $ . . . . . . . . . . . . . . . . . . . . . . . . . . . . . . . . . . . . . . . . . . # 6 d f f f C { +.+.O.",
"z z z l z z n x f 6 O . . . . . . . . . . . . . . . . . . . . . . . . . . . . . . . . . . . . . . . . . . # 7 k l l l C O.*.-.;.",
"J G F F F ( X.{ v 5 O . . . . . . . . . . . . . . . . . . . . . . . . . . . . . . . . . . . . . . . . . . $ u M F F F K { +.=.-.",
"P L / / _ ..%.o.n 5 O . . . . . . . . . . . . . . . . . . . . . . . . . . . . . . . . . . . . . . . . . . $ t Z G _ ' ` _ { o.+.",
"D Z Z F P ] | ( x 6 O . . . . . . . . . . . . . . . . . . . . . . . . . . . . . . . . . . . . . . . . . . # 8 x C F / ` ' L C b ",
"M M M Z L ` ' K z 6 O . . . . . . . . . . . . . . . . . . . . . . . . . . . . . . . . . . . . . . . . . . # 6 f c Z L ` ' J k e "
};
