/* XPM */
static char *image_part_0111725991612[] = {
/* columns rows colors chars-per-pixel */
"64 64 170 2 ",
"   c None",
".  c #000000",
"X  c #030803",
"o  c #0D0B0A",
"O  c #0E0709",
"+  c #120F0D",
"@  c #071A0A",
"#  c #091D0C",
"$  c #021606",
"%  c #14110F",
"&  c #160E11",
"*  c #151212",
"=  c #191616",
"-  c #1B1719",
";  c #1C1A1A",
":  c #221E1D",
">  c #0A250F",
",  c #07230D",
"<  c #0B2710",
"1  c #0B2810",
"2  c #1E2F1D",
"3  c #231F21",
"4  c #252222",
"5  c #2C2929",
"6  c #2C2529",
"7  c #312925",
"8  c #312E2F",
"9  c #302724",
"0  c #213222",
"q  c #3E3A3A",
"w  c #373231",
"e  c #413731",
"r  c #433933",
"t  c #453D3A",
"y  c #493E3A",
"u  c #15481E",
"i  c #19491F",
"p  c #1B4B22",
"a  c #1B5D26",
"s  c #1C5F28",
"d  c #175B24",
"f  c #2F4030",
"g  c #364737",
"h  c #1E6029",
"j  c #257F35",
"k  c #35753D",
"l  c #4C423D",
"z  c #47443B",
"x  c #53463E",
"c  c #4E4746",
"v  c #4F4847",
"b  c #4F4B4B",
"n  c #554741",
"m  c #564942",
"M  c #594C45",
"N  c #524C4B",
"B  c #5B4F49",
"V  c #4C5D42",
"C  c #5E524C",
"Z  c #5C5554",
"A  c #5F5957",
"S  c #60544E",
"D  c #625651",
"F  c #655955",
"G  c #695C56",
"H  c #655D5B",
"J  c #6A5E5B",
"K  c #55664A",
"L  c #596A54",
"P  c #5D735C",
"I  c #696E54",
"U  c #6D625D",
"Y  c #676C52",
"T  c #70645F",
"R  c #64765B",
"E  c #6D6564",
"W  c #6B6565",
"Q  c #726661",
"!  c #736A66",
"~  c #746C6B",
"^  c #786E6D",
"/  c #7A716E",
"(  c #777070",
")  c #7D7574",
"_  c #7E7977",
"`  c #647C64",
"'  c #817572",
"]  c #817877",
"[  c #847C7C",
"{  c #887F7D",
"}  c #278136",
"|  c #288237",
" . c #298B3A",
".. c #2E9F42",
"X. c #3D9446",
"o. c #3E9748",
"O. c #3F984C",
"+. c #32A746",
"@. c #33AB48",
"#. c #3CB34E",
"$. c #40974C",
"%. c #409849",
"&. c #459D52",
"*. c #4B9D54",
"=. c #4B8B54",
"-. c #4BA358",
";. c #49B655",
":. c #4BB957",
">. c #4FB759",
",. c #4FB959",
"<. c #51BB5B",
"1. c #56A259",
"2. c #7C8269",
"3. c #748C74",
"4. c #6C8269",
"5. c #5EBF62",
"6. c #6FBE6A",
"7. c #79B06C",
"8. c #5EC163",
"9. c #60C364",
"0. c #6FC06A",
"q. c #71C16C",
"w. c #75CD71",
"e. c #7ACE74",
"r. c #7DD076",
"t. c #87807F",
"y. c #8A817F",
"u. c #8FBC7A",
"i. c #86D47B",
"p. c #89D67D",
"a. c #87D87D",
"s. c #8BD87F",
"d. c #867F80",
"f. c #878080",
"g. c #8B8484",
"h. c #8E8788",
"j. c #8F8888",
"k. c #918683",
"l. c #938886",
"z. c #948C8C",
"x. c #998F8D",
"c. c #908788",
"v. c #9B908F",
"b. c #92908C",
"n. c #978F90",
"m. c #988F90",
"M. c #979090",
"N. c #9B9292",
"B. c #879D83",
"V. c #A19695",
"C. c #A39997",
"Z. c #A59B9A",
"A. c #A89E9D",
"S. c #9CA895",
"D. c #A5AB95",
"F. c #A89FA0",
"G. c #ACA3A3",
"H. c #B0A7A7",
"J. c #B2A7A9",
"K. c #B3AAAA",
"L. c #B8AEAF",
"P. c #BDB3B3",
"I. c #C0B6B6",
"U. c #96C281",
"Y. c #8EC683",
"T. c #A2CF8F",
"R. c #A3D08F",
"E. c #A9D796",
"W. c #A4D190",
"Q. c #B9C0AC",
/* pixels */
"                                                            P.P.P.L.P.P.                                                        ",
"                                                            A.H.H.H.H.H.                                                        ",
"                                        g.g.g.M.H.C.T n n J g.m.x.x.z.N.H.V.Q n m m                                             ",
"                                        h.g.f.x.H.Z.U x n F ) g.g.g.f.M.H.A.U M C G                                             ",
"                            P.C.U S ) h.g.g.g.M.K.C.T n n F ) g.g.g.y.M.K.Z.U S ! ] f.M.H.C.T m                                 ",
"                            G.V.' Q / ] [ f.f.z.D.C.' G B D ' k.g.g.g.z.V.k.G D ) g.g.M.H.C.T x                                 ",
"                    m F ) j.M.N.N.l.! G E ) f.h.z.N.V.d.G F ' c.g.g.h.[ ! G M F ) h.g.v.K.A.T x x F ' h.                        ",
"                    m D ( d.g.x.G.v.U M A W ) t.d.N.L.Z.T D ^ d.t.t.t./ D m S U _ j.x.N.C.y.G M C E [ h.                        ",
"                m m x S E ) f.c.M.y.F m M F E ) [ v.K.A.Q C E ( ( ( ( E C C ~ ] f.x.G.C.' F B S ~ _ f.z.G.P.                    ",
"                Q G C B D E _ f.g.[ ! G B C F ! _ g.h.) M t v N N N N N N U ] z.M.N.C.l.Q S S T ] h.f.x.H.K.                    ",
"            g.c.N.k.G m M A E ) t.c.N.c.U M B G ~ U q 4 = * = - - = - 5 N ~ f.N.G.C.) Q / ) ) ] f.g.g.x.K.A.! x                 ",
"            f.x.G.V.! F U U U E [ N.G.n.C e e t v q * . . . . . . . . * q Z W ~ g.] F S ( g.g.h.x.M.v.N.C.k.Q G                 ",
"        m G ] j.M.c.[ t.x.l.U J ] n.N.) w + + = = * X . . . . . . . . X * ; 3 4 5 w l D ! ) d.x.F.H.K.C.) Q ~ g.G.I.            ",
"        m D ( t.[ [ g.N.K.V.D z A W W b = . . . . . . . . . . . . . . . . . . . . o 7 t v H g.N.C.Z.Z.l.Q J ] x.D.H.            ",
"        m C W ( ( ( f.N.L.x.q + ; 4 4 - X . . . . . . . . . . . . . . . . . . . . . + * = q j.A.' E U Q ^ ] d.c.z.V.H.I.        ",
"        m C F H H E ) j.N.) 4 . . . . . . . . . . . . . . . . . . . . . . . . . . . . . . 4 W ) M r m G ] h.h.h.d.c.N.C.        ",
"    M m M M C M B D Q ^ ! m = . . . . . . . . . . . . . . . . . . . . . . . . . . . . . . o 3 5 = 4 N ! [ g.g.g.h.[ ! T         ",
"    M M m B C G J T J A l 7 % . . . . . . . . X , 1 1 1 1 1 1 1 1 1 1 1 1 # X . . . . . . . . . . - N ( f.g.h.f.[ ! C x         ",
"    M m m C ~ y.N.l.E y : O . . . . . . . . . # h } } } } } j j } j | } } h # . . . . . . . . . . - N ) f.h.j.] U Z M x         ",
"    M M C J _ M.G.C.' v = . . . . . . X # 1 > p %.<.<.<.<.<.<.<.<.<.<.<.<.o.p > 1 # X . . . . . . * q A ) [ ] ~ C M S U         ",
"    m B F W [ j.n.N.Z.) 4 . . . . . . # s } } X.6.p.Y.a.p.p.p.p.p.p.p.a.p.q.X.} } h @ . . . . . . X * 5 H ~ J C M C ! g.G.P.    ",
"    m C U ~ _ f.d.n.G.f.5 . . . . X @ p o.<.,.8.e.i.a.a.p.p.p.p.p.p.p.p.i.e.8.<.<.o.p @ . . . . . . . = c U F D F U ] N.H.P.    ",
"    n C H ~ ~ ) d.n.N.~ 4 . . . . @ a o.q.s.s.r.5.>.<.,.,.<.<.<.<.<.<.,.;.8.r.s.s.0.o.h @ . . . . . . * t F ~ _ _ ] t.M.H.P.    ",
"    G H H H H W ( ] ] D 2 X @ 1 > p o.8.r.p.a.w.;... .j j } j j j j j  ...;.w.s.s.r.8.o.p > < > X . . = t U [ g.h.h.g.z.N.C.    ",
"h.g.] ~ F B B S D F G l = @ h } } X.q.r.6.;.,.;.#. .u 1 1 1 1 1 1 1 > u  .#.:.<.>.6.w.0.X.} } h # . . - v ( [ j.h.g.h.t.Q U     ",
"[ f.g.] U S M m m x y 9 O > } #.;.9.r.w.:... .j } h # . . . . . . . . # h | j  ...:.w.r.8.:.#.} 1 . . * q A ) ] ] ) ) / T Q     ",
"( ) f.g.[ ! S n x t : O . 1 } :.w.e.9.;.#. .u < 1 # X . . . . . . . . X # 1 < u  .#.;.9.r.w.:.j 1 . . X * 8 A ~ U D D Q k.D.K.P.",
"H E ) f.g.{ ~ Q T m = . $ p X.8.r.q.o.} | s # . . . . . . . . . . . . . . . . # h | j X.0.r.9.o.p @ X . . = c U D D S ! N.L.L.P.",
"C A E ) f.z.N.Z.A./ 3 $ d %.0.r.9.%.p 1 < # X . . . . . . . . . . . . . . . . X # 1 < p %.9.r.q.o.s @ . . * t F ~ ] ' [ c.Z.K.P.",
"m B F E ) j.F.L.I.b.g i X.9.r.w.:.j < . . . . . . . . . . . . . . . . . . . . . . . . > } ;.w.r.9.o.p @ . & t U [ h.g.g.g.c.N.C.",
"m M B F E _ h.Z.L.S.=.X.0.e.6.;.#.| < . . . . . . . . . . . . . . . . . . . . . . . . 1 } #.;.8.e.w.%.a @ = c ~ [ g.g.g.g.[ ~ T ",
"M m m M F W ^ [ x.B.-.<.p.p.;... .s # . . . . . . . . . . . . . . . . . . . . . . . . # h  ...:.a.Y.<.} > & N ( [ h.g.g.] ! S x ",
"m m m M B B S D J I X.;.p.p.<. .u # X . . . . . . . . . . . . . . . . . . . . . . . . X # u  .<.p.p.<.j , * N ( f.h.l.] U C m x ",
"C S D F D G T G B V *.6.e.w.:.| 1 . . . . . . . . . . . . . . . . . . . . . . . . . . . . 1 } ,.w.e.8.X.p 0 b E / ) ] / ! U T T ",
"U E ^ ) ] { M.k.F Y 7.e.5.;.#.| < . . . . . . . . . . . . . . . . . . . . . . . . . . . . 1 | #.>.<.e.6.o.k N C D D S Q l.C.C.C.",
"H ~ [ h.g.x.G.V./ / p.i.>... .s # . . . . . . . . . . . . . . . . . . . . . . . . . . . . # h  ...>.p.p.,.o.K B D D D ! N.K.P.P.",
"B G _ h.g.h.b.M.V.D.R.i.,. .u # X . . . . . . . . . . . . . . . . . . . . . . . . . . . . X # u  .<.i.p.<.$.P E ^ ) ) [ z.Z.H.P.",
"m D ( f.g.g.g.x.H.Q.E.i.,.j > . . . . . . . . . . . . . . . . . . . . . . . . . . . . . . . . > j <.i.i.>.$.P ^ [ h.h.g.g.x.G.P.",
"m C E ) t.h.g.v.H.Q.E.i.,.j 1 . . . . . . . . . . . . . . . . . . . . . . . . . . . . . . . . 1 j <.i.i.>.$.P ^ [ h.h.g.h.M.H.I.",
"m B E W / _ [ y.v.D.R.i.<.j 1 . . . . . . . . . . . . . . . . . . . . . . . . . . . . . . . . 1 j <.p.i.<.o.P E ) [ t.] ) [ x.C.",
"m C W W F G ~ ~ Q 2.U.p.,.} 1 . . . . . . . . . . . . . . . . . . . . . . . . . . . . . . . . 1 } ,.a.a.>.X.V F ! ( ( W J F J J ",
"m C F F m M F A M I u.p.<.j 1 . . . . . . . . . . . . . . . . . . . . . . . . . . . . . . . . 1 } ,.a.a.>.$.L F H H J J U U J T ",
"m M B B m n m N n I u.a.<.} 1 . . . . . . . . . . . . . . . . . . . . . . . . . . . . . . . . < j ,.a.a.>.&.4.^ F M M J k.V.C.V.",
"F F D G U Q T G M I u.a.<.j 1 . . . . . . . . . . . . . . . . . . . . . . . . . . . . . . . . < } ,.Y.i.>.*.3.] Q D D ~ V.L.P.I.",
") ] ) { x.Z.Z.k.F Y u.a.<.j < . . . . . . . . . . . . . . . . . . . . . . . . . . . . . . . . < j <.p.i.>.-.3.d.[ ) ) [ z.Z.K.I.",
"[ [ g.n.F.K.K.V.' 2.U.p.,. .u # X . . . . . . . . . . . . . . . . . . . . . . . . . . . . X # u  .,.p.i.>.&.3.d.[ t.g.g.] [ x.V.",
"^ ) d.c.m.M.m.N.C.D.W.p.>... .h # . . . . . . . . . . . . . . . . . . . . . . . . . . . . # h  ...:.i.Y.>.&.` ^ ^ ) g.] T D G T ",
"W ~ ) d.g.d.] { v.S.U.e.<.;.#.| 1 . . . . . . . . . . . . . . . . . . . . . . . . . . . . 1 | #.:.8.e.0.X.k L J H E ^ ! S B G T ",
"W W ~ ) t.[ U F U R 1.5.w.w.;.} 1 . . . . . . . . . . . . . . . . . . . . . . . . . . . . < j :.w.e.8.X.p 2 z B B Z S S m G k.A.",
"H E W ~ ) ~ C x n V X.,.p.s.,. .u # X . . . . . . . . . . . . . . . . . . . . . . . . X # u  .>.a.s.,.j , & l F F G J G B G k.Z.",
"C A H W G C M n n V X.,.Y.p.>... .h # . . . . . . . . . . . . . . . . . . . . . . . . # s  ...>.s.s.<.} , - A _ ] [ N.k.G B G Q ",
"m B F F M C G T Q Y k X.q.e.5.:.#.| < . . . . . . . . . . . . . . . . . . . . . . . . < | #.:.9.r.q.o.d $ 3 W h.h.x.F.Z.' G B x ",
"m M C M m G k.A.A._ f i o.9.r.w.;.} 1 . . . . . . . . . . . . . . . . . . . . . . . . < j ;.w.r.8.o.p @ . 4 W h.c.c.z.V.C.d.G n ",
"M B S D F ! N.L.I.c.5 $ h ..q.r.9.X.p > < # X . . . . . . . . . . . . . . . . X # < < p %.9.r.q.o.h @ . . 2 H g.g.g.d.z.D.C.' T ",
"m S ~ ) ' [ l.Z.L.c.5 . $ p X.9.r.q.o.} | h , . . . . . . . . . . . . . . . . @ h } j %.q.r.9.X.i @ X . . ; Z _ d.h.c.c.x.N.C.Z.",
"m F ] h.h.g.g.M.G.[ 5 . . > } ;.w.r.9.;.#. .u 1 1 # X . . . . . . . . X # 1 1 u  .#.;.6.r.w.;.} 1 . . . . = c E ] d.d.d.' { x.Z.",
"m D ] j.h.g.h.c.M.( 4 . . < | #.;.8.r.w.;... .} | s # . . . . . . . . # s | |  ...:.w.r.9.;.#.| 1 . . . . * t F ! ) g.] E D J T ",
"m D ! ) ' ) ) ' ] A ; . . > h | } X.q.r.8.,.<.:.#. .u > 1 1 1 > 1 1 > u  .#.>.<.>.8.e.q.X.} | h > . . . . % r C F W ^ / Q U J T ",
"m B D D D D D F F l = . . X # 1 1 p o.9.e.s.s.w.:... .j j j j } j j j  ...:.w.p.p.r.9.o.p > < # X . . . . * r M B B D Q l.C.V.V.",
"F F F D D G T G C r % . . . . . . @ h o.q.Y.s.r.5.>.<.<.<.<.<.<.<.<.<.>.>.5.e.p.s.q.o.a @ . . . . . . . . * t S F D D ! V.K.P.I.",
") ) ) ) ) [ N.k.J e % . . . . . . . @ p X.,.:.6.e.i.i.p.Y.s.a.i.p.i.p.i.i.e.5.<.<.%.p @ . . . . . . . . . = N E ) ) ) [ l.C.K.I.",
"t.t.t.t.g.M.G.N.T r % . . . . . . . . # a j j %.6.i.i.i.i.i.i.i.i.i.i.i.i.6.X.j } s # . . . . . . . . . . = c ~ ) f.g.g.g.c.N.V.",
"~ ~ ~ ) f.j.x.y.G r % . . . . . . . . X # > > p $.<.>.>.>.>.>.>.>.>.>.<.<.X.p > 1 # X . . . . . . . . . . * t G ! ) y.g.g.[ ! T ",
"W W W ~ [ g.g.' F r % . . . . . . . . . . . . < j @.+.+.+.+.+.+.+.+.+.+.@.j > . . . . . . . . . . . . . . * r C H ~ [ g.h.' S x "
};
