/* XPM */
static char *image_part_0121725991612[] = {
/* columns rows colors chars-per-pixel */
"64 64 188 2 ",
"   c None",
".  c #000000",
"X  c #020803",
"o  c #0D0B0A",
"O  c #120D0D",
"+  c #071A0A",
"@  c #081D0C",
"#  c #041708",
"$  c #14110F",
"%  c #150F12",
"&  c #151211",
"*  c #191616",
"=  c #1B1619",
"-  c #1B1919",
";  c #221F1D",
":  c #07220C",
">  c #0A250F",
",  c #0A2710",
"<  c #0B2810",
"1  c #1D2E1E",
"2  c #231D21",
"3  c #252222",
"4  c #2C2929",
"5  c #2B2628",
"6  c #312B29",
"7  c #2A3B2B",
"8  c #3E3A3A",
"9  c #373231",
"0  c #413731",
"q  c #433833",
"w  c #453D3A",
"e  c #483E3A",
"r  c #15491E",
"t  c #15471D",
"y  c #1B4B22",
"u  c #1A5D26",
"i  c #1C5F28",
"p  c #1E6029",
"a  c #257F34",
"s  c #35753D",
"d  c #23652E",
"f  c #4B423D",
"g  c #44433D",
"h  c #53463E",
"j  c #4E4646",
"k  c #4F4847",
"l  c #4F4B4B",
"z  c #544740",
"x  c #564942",
"c  c #594C45",
"v  c #534D4C",
"b  c #5B4E49",
"n  c #4F5942",
"m  c #5E524C",
"M  c #535C47",
"N  c #5D5554",
"B  c #5C5556",
"V  c #60544E",
"C  c #625652",
"Z  c #655955",
"A  c #695C56",
"S  c #655D5B",
"D  c #6A5E5A",
"F  c #4E6244",
"G  c #576A4E",
"H  c #526245",
"J  c #457945",
"K  c #5E765E",
"L  c #566552",
"P  c #61694E",
"I  c #6D625D",
"U  c #676956",
"Y  c #70635E",
"T  c #617559",
"R  c #6B725A",
"E  c #6D6564",
"W  c #6C6766",
"Q  c #726662",
"!  c #736A66",
"~  c #746C6B",
"^  c #786F6D",
"/  c #726768",
"(  c #7A716E",
")  c #757D66",
"_  c #777171",
"`  c #7D7574",
"'  c #7F7878",
"]  c #6F7A64",
"[  c #817573",
"{  c #817877",
"}  c #847C7C",
"|  c #887F7D",
" . c #268136",
".. c #2A8C3A",
"X. c #268A38",
"o. c #3E8048",
"O. c #2C9E40",
"+. c #3D9546",
"@. c #389946",
"#. c #3F9748",
"$. c #3F994E",
"%. c #2FA143",
"&. c #31AA46",
"*. c #37AF4A",
"=. c #33A446",
"-. c #3CB24E",
";. c #409749",
":. c #41994A",
">. c #449E52",
",. c #509D54",
"<. c #498952",
"1. c #4DA75A",
"2. c #51A65B",
"3. c #46B453",
"4. c #4AB656",
"5. c #4AB956",
"6. c #4FBA59",
"7. c #51BC5B",
"8. c #5BBE5F",
"9. c #7B8269",
"0. c #788471",
"q. c #6B8269",
"w. c #54AD61",
"e. c #58B064",
"r. c #5EBF62",
"t. c #61AE66",
"y. c #6FBF6A",
"u. c #67B46C",
"i. c #7EB572",
"p. c #7BB26D",
"a. c #5EC163",
"s. c #60C364",
"d. c #68C869",
"f. c #6FC26B",
"g. c #71C26C",
"h. c #72CA6E",
"j. c #75CD71",
"k. c #7ACF74",
"l. c #7CD076",
"z. c #87807F",
"x. c #8A817F",
"c. c #818A76",
"v. c #88917B",
"b. c #82B975",
"n. c #92BE7D",
"m. c #92C07E",
"M. c #86D57B",
"N. c #89D67D",
"B. c #87D87D",
"V. c #8AD87F",
"C. c #867F80",
"Z. c #878080",
"A. c #8B8484",
"S. c #8E8788",
"D. c #8E8888",
"F. c #918683",
"G. c #938886",
"H. c #938C8C",
"J. c #998E8D",
"K. c #8A9F85",
"L. c #8B9A85",
"P. c #9B908F",
"I. c #939D89",
"U. c #988F91",
"Y. c #979090",
"T. c #9B9292",
"R. c #A19795",
"E. c #A39997",
"W. c #A59A9A",
"Q. c #A89E9D",
"!. c #A39798",
"~. c #9DB39B",
"^. c #8EA289",
"/. c #A4B09A",
"(. c #A99FA1",
"). c #ACA3A3",
"_. c #B0A7A7",
"`. c #B4AAAB",
"'. c #B8ACAE",
"]. c #BDB3B3",
"[. c #B2BCA7",
"{. c #94C282",
"}. c #99C685",
"|. c #9CCA8A",
" X c #94CC89",
".X c #92DB83",
"XX c #A5D191",
"oX c #A1E18C",
/* pixels */
"                                                            ].].].].].].                                                        ",
"                                                            (._.).)._._.                                                        ",
"                                        A.A.A.J._.E.Q h h I x.Y.P.Y.J.T._.E.Y x x x                                             ",
"                                        A.A.A.J._.W.I h h Z ` A.A.A.Z.Y.`.W.I c m A                                             ",
"                            ].E.I V ` G.A.A.A.Y.`.E.Y h h Z ` D.A.A.A.U.`.W.Y V Q { Z.T._.E.Y x                                 ",
"                            ).R.` Q ^ [ } Z.Z.H.Q.E.` A b Z [ A.A.A.A.H.T.F.A C ' A.A.Y.`.W.Y h                                 ",
"                    x Z ` D.Y.T.R.G.Q S W ` Z.S.J.T.E.F.A C [ D.A.A.A.| ! U b C ' A.A.P._.W.Y h h Z ` D.                        ",
"                    x C _ C.A.J.).P.I x Z W ` z.Z.Y.`.W.Y V ( z.} } | ( V x V I { A.J.R.E.x.A c V E { G.                        ",
"                z x h V Q ` z.D.J.} Z x c Z W ` } T.'.Q.Q m E _ _ _ _ / m N Q } Z.J.).T.[ Z b V ! { z.H.).].                    ",
"                Q A b b Z E ` Z.A.} ~ A m b Z Q ' A.A._ x w j v v v v v b I { H.Y.T.E.H.Q V V Y { A.A.Y._.`.                    ",
"            A.H.T.F.A x c N W ` C.H.T.G.A c b A ~ E 8 3 - & * - - * = 4 v _ } T.).E.[ Q ^ ` ' { x.A.A.Y.`.(.! h                 ",
"            C.Y.).R.~ Z I I I W } T.).Y.N 0 0 e j 8 & . . . . . . . . & 8 B S _ Z.[ Z C _ A.A.D.Y.Y.P.T.R.F.Q A                 ",
"        x D { D.Y.H.} z.J.G.I D { J.T.` 9 $ O * * & X . . . . . . . . X & - 2 3 4 9 f V Q ` } J.Q.`.`.T.( Y ( x.).].            ",
"        x C ( } } } A.T.`.R.N f N W W l * . . . . . . . . . . . . . . . . . . . . o 6 w k S A.T.E.W.W.G.Q I { Y.(.`.            ",
"        x m W _ ~ _ Z.T.'.J.8 $ - 3 3 = X . . . . . . . . . . . . . . . . . . . . . O * * 8 D.Q.{ I Y Q ( { z.A.H.E._.].        ",
"        x b Z S S W ` G.T.` 3 . . . . . . . . X @ < < < < < < < < < < < < @ X . . . . . . 3 W ` c q h I { A.A.A.A.H.T.E.        ",
"    c x c c m b c C W ~ ! b * . . . . . . . . @ i  . . .a a a a a a  . . .i @ . . . . . . o ; 5 * 3 v Q } D.A.A.A.} ! Y         ",
"    c c x c V A I I I N f 6 O . . . . X @ < > y ;.7.7.7.7.7.7.7.7.7.7.7.7.#.y : , @ X . . . . . . - v _ Z.A.D.Z.{ ~ m h         ",
"    c x x V ! A.T.G.E e ; o X . . . . @ i  .a +.y.V.N.N..XN.N.N..XM.N.N..Xf.#.a  .i @ . . . . . . - v ` Z.A.D.{ E V c h         ",
"    x c m S ' J.).E.[ x & . . X @ < > y ;.7.7.s.k.N.N.M.N.M.N.M.N.M.N.N.N.j.a.6.7.;.y > < @ X . . * 8 B ` } { ! V c V I         ",
"    x b C W } D.H.T.W.` 5 . . @ i  .a +.g.V.V.k.r.7.7.7.7.7.7.7.7.7.7.6.6.r.k..X.Xg.#.a  .p @ . . X & 4 S ~ I m c m Q A.).].    ",
"    x m I ~ ' Z.A.Y.).Z.5 . # t ..-.4.r.k.V.V.g.+.a a a a a a a a a a a a +.g.N.B.k.a.5.-...t @ X . . * j S Z C C E { T._.].    ",
"    x m E / ~ ` } H.Y.~ ; # u X.%.4.j.M.s.7.7.;.y > < < < < < < < < < , > y :.7.7.s.k.j.4.%...u @ . . $ w Z ~ [ { { x.Y._.].    ",
"    Z Z S S S W ( { ` S 7 y #.7.6.r.k.g.;.a  .i @ . . . . . . . . . . . . @ i a a #.g.l.r.6.7.:.y @ X % w I } D.D.D.A.H.T.E.    ",
"A.A.{ ~ Z b b V C Z Z M s +.f.M.N.k.s.;.y > , @ X . . . . . . . . . . . . X @ < > y #.a.l.N.N.f.+.u + % j ~ C.S.A.D.D.} ! I     ",
"} Z.A.} E V c z z x M J @.7.M.oX.Xg.#.u + . . . . . . . . . . . . . . . . . . . . + u #.g..XoXN.6.X.y 1 g S _ } ' ` ` ( Y Q     ",
"~ ` Z.A.} ! m z z n J @.=.7.N..Xd.#.y + X . . . . . . . . . . . . . . . . . . . . X + y #.d..XN.6.O...d 1 4 B ~ I V C Q F.Q.`.].",
"S E ` Z.A.| ! Q Y T :.*.3.r.k.g.#.u + . . . . . . . . . . . . . . . . . . . . . . . . + u #.g.k.r.4.-.a > % j D Z V V ! T.`.].].",
"m Z E ` Z.H.T.W.!.L.1.3.h.k.s.#.y + X . . . . . . . . . . . . . . . . . . . . . . . . X + y #.a.l.j.5.a : O q A ~ ` ` { G.E.`.].",
"x b Z E ` D.(.'.]./.u.8.k.g.#.u + . . . . . . . . . . . . . . . . . . . . . . . . . . . . + u $.g.l.a.+.y 1 g D { D.D.D.D.G.T.E.",
"x c m N E ' S.W.'.[. Xj.s.+.y + X . . . . . . . . . . . . . . . . . . . . . . . . . . . . X + y +.r.k.y.#.s L Q } D.A.A.D.} ~ I ",
"c x x b Z E ~ } J./.XXN.7.a > . . . . . . . . . . . . . . . . . . . . . . . . . . . . . . . . > a 5..X.X7.$.K ( } A.D.x.{ ! m h ",
"x x x c c m V Z A c.}.B.7. .< . . . . . . . . . . . . . . . . . . . . . . . . . . . . . . . . ,  .7..XM.6.:.T ^ C.S.S.{ E m x h ",
"m V Z Z Z A D A x P p.g.:.p @ . . . . . . . . . . . . . . . . . . . . . . . . . . . . . . . . @ u :.g.j.s.2.T E ^ [ [ ^ Q Y Y Y ",
"D E _ [ ` | P.A.A M ,.:.y @ X . . . . . . . . . . . . . . . . . . . . . . . . . . . . . . . . X + y #.a.l.g.R m C C C Q G.E.E.E.",
"S ~ } A.A.J.).!.[ T :. .< . . . . . . . . . . . . . . . . . . . . . . . . . . . . . . . . . . . . > a 6.V.^.R b V C V ! R.`.].].",
"m S { A.D.D.H.T.R.K.2. .< . . . . . . . . . . . . . . . . . . . . . . . . . . . . . . . . . . . . > a 6.B.{.) E ^ ' ` } G.T.`.].",
"x C ~ A.A.A.Z.T.`./.2. .< . . . . . . . . . . . . . . . . . . . . . . . . . . . . . . . . . . . . <  .7.B.{.0.~ } D.A.A.A.J._.].",
"x m E ` z.A.A.T.`.~.e. .< . . . . . . . . . . . . . . . . . . . . . . . . . . . . . . . . . . . . < a 7.M.{.0.~ } S.A.A.A.T.`.].",
"x m S ~ ` ' { F.T.^.2. .< . . . . . . . . . . . . . . . . . . . . . . . . . . . . . . . . . . . . < a 7.B.m.) / ` } C.{ ` } J.E.",
"x m I E Z S ~ ~ Q T >. .< . . . . . . . . . . . . . . . . . . . . . . . . . . . . . . . . . . . . <  .7.B.m.R C W _ _ / S Z D D ",
"x b S Z c c Z C c F ;.a < . . . . . . . . . . . . . . . . . . . . . . . . . . . . . . . . . . . . <  .7.B.^.] C S S D D D Y Y I ",
"x c b c x z c b c F ;. .< . . . . . . . . . . . . . . . . . . . . . . . . . . . . . . . . . . . . <  .7.B.|.v.~ Z b b D F.E.R.R.",
"Z Z Z Z I Y Q S b H ;. .< . . . . . . . . . . . . . . . . . . . . . . . . . . . . . . . . . . . . <  .7.B.|.I.{ D Z C ! R.'.].].",
"[ ` ` } J.W.W.F.A F #. .< . . . . . . . . . . . . . . . . . . . . . . . . . . . . . . . . . . . . <  .6.B.|.I.C.{ ` ` { H.W.`.].",
"C.C.A.Y.)._.`.!.[ T :. .< . . . . . . . . . . . . . . . . . . . . . . . . . . . . . . . . . . . . < a 6.M.|.L.} } A.A.A.[ } J.E.",
"~ _ } D.J.T.T.T.W.K.1.a > . . . . . . . . . . . . . . . . . . . . . . . . . . . . . . . . . . . . > a 6.B.}.c./ ~ ` A.{ Y Z D I ",
"W ~ ' C.A.C.{ | T.^.u.#.y @ X . . . . . . . . . . . . . . . . . . . . . . . . . . . . . . . . X + y @.a.l.b.] S S E ( ! V b A Y ",
"W W / ` z.{ I Z I 9.b.f.:.p : . . . . . . . . . . . . . . . . . . . . . . . . . . . . . . . . @ i :.g.j.r.,.L b b m C m c D F.W.",
"D E W / ` ~ V h h U m.V.7. .< . . . . . . . . . . . . . . . . . . . . . . . . . . . . . . . . <  .7.V.V.6.$.G C C S D A b A G.W.",
"b C E E D m c h h U n.V.6.a > . . . . . . . . . . . . . . . . . . . . . . . . . . . . . . . . > a 7.V.V.6.>.] ` ` | P.F.A b A Q ",
"x b S B c b A Q I ) b.k.a.#.y + X . . . . . . . . . . . . . . . . . . . . . . . . . . . . X + y ;.s.k.y.@.o.0.S.A.Y.(.W.[ A b h ",
"c c b c x A F.W.W.K.t.r.l.g.#.u + . . . . . . . . . . . . . . . . . . . . . . . . . . . . + u #.y.M.8.+.r 7 ~ S.A.D.H.T.E.x.A h ",
"c c C C Z ~ T.'.].~.2.3.h.l.a.#.y + X . . . . . . . . . . . . . . . . . . . . . . . . X + y #.a.k.h.5.a : - S C.A.A.A.H.Q.E.[ Y ",
"x C ! ' ` } G.E.'.~.w.*.3.a.l.g.#.u + . . . . . . . . . . . . . . . . . . . . . . . . + u #.g.k.u.5.-. .> * m ' A.A.A.D.P.T.E.E.",
"x Z [ D.D.A.A.J.(.I.<.X.O.6.B..Xd.#.y + X . . . . . . . . . . . . . . . . . . . . X + y #.d..XN.5.%...p @ & j W ' x.A.x.` | P.E.",
"h Z { D.D.A.D.G.Y._ 7 t X.7.N.oXV.g.:.u + . . . . . . . . . . . . . . . . . . . . + u #.g..XoXN.7...t + X & w Z W ` A.{ I Z I Y ",
"x C ! ` ` ` ` [ { B = # u :.g.N.M.k.s.:.y > < @ X . . . . . . . . . . . . X @ , , y #.a.k.N.N.g.:.u @ . . & 0 m Z E ( ( Q I I I ",
"h b m Z C C V C Z f & X + y ;.7.6.a.l.f.;.a  .p @ . . . . . . . . . . . . @ p  .a +.y.k.r.6.7.#.y @ X . . & 0 c m m V Q G.E.R.R.",
"A A Z C C A I I V 0 & . . @ u ..%.5.j.k.s.7.7.;.y > < < < < > > < < < > > y #.7.7.r.M.j.4.%...i + . . . . * f C Z V V ! R.`.].].",
"` ` ` ` ` z.P.F.D 0 $ . . X + t ..3.4.u.k.V.V.g.;. . .a a a a a a a a a a +.f.N..Xk.r.3.-...t + X . . . . - j W ` ` ` } G.E.`.].",
"z.z.z.z.Z.J.).T.Y 0 & . . . . @ p  .a +.y.N.N.k.u.6.5.6.7.4.7.7.7.7.7.6.6.a.k.N.N.y.+.a  .p @ . . . . . . * k Q ' z.A.A.A.F.T.E.",
"~ ~ ~ _ x.H.Y.x.A 0 $ . . . . X @ < < r ;.6.6.8.k.M.M.M.M.M.M.M.N.N.N.N.N.j.r.4.6.;.y < < @ X . . . . . . & w Z Q ` x.A.A.} ! I ",
"W W W ~ } A.A.` A q $ . . . . . . . . > a =.=.4.M.oXoXoXoXoXoXoXoXoXoXoXoXN.4.&.&.a > . . . . . . . . . . $ 8 m I ~ } D.A.` Z h "
};
