/* XPM */
static char *image_part_0141725991612[] = {
/* columns rows colors chars-per-pixel */
"64 64 191 2 ",
"   c None",
".  c #000000",
"X  c #020903",
"o  c #120C0D",
"O  c #071A0A",
"+  c #091D0C",
"@  c #021606",
"#  c #14110F",
"$  c #150F10",
"%  c #161112",
"&  c #191516",
"*  c #1D1A1B",
"=  c #1B1817",
"-  c #241D1F",
";  c #06220B",
":  c #0A250F",
">  c #0C2710",
",  c #0C2911",
"<  c #1E2E1D",
"1  c #19331A",
"2  c #251F21",
"3  c #1D3921",
"4  c #252222",
"5  c #292525",
"6  c #2F2C2C",
"7  c #362E2F",
"8  c #223523",
"9  c #293B2B",
"0  c #243C26",
"q  c #3F332F",
"w  c #3E3736",
"e  c #403631",
"r  c #433A34",
"t  c #463C39",
"y  c #4A3F3B",
"u  c #16461D",
"i  c #16491E",
"p  c #19481F",
"a  c #1B4B22",
"s  c #1A5D26",
"d  c #1A5D26",
"f  c #3D5236",
"g  c #384C3A",
"h  c #1E6129",
"j  c #1C6127",
"k  c #247E34",
"l  c #287F36",
"z  c #34743B",
"x  c #327A3B",
"c  c #327037",
"v  c #246730",
"b  c #4A463E",
"n  c #53463E",
"m  c #4A553E",
"M  c #387A42",
"N  c #4D4646",
"B  c #544641",
"V  c #564942",
"C  c #594C45",
"Z  c #524B4B",
"A  c #5B4E49",
"S  c #515C45",
"D  c #5E524C",
"F  c #51514B",
"G  c #5C5353",
"H  c #565652",
"J  c #4F5C46",
"K  c #60544E",
"L  c #635652",
"P  c #645955",
"I  c #695C56",
"U  c #665D5B",
"Y  c #6A5E5A",
"T  c #4D6043",
"R  c #486548",
"E  c #53644A",
"W  c #59694E",
"Q  c #5B6D53",
"!  c #5B6958",
"~  c #5C7358",
"^  c #6D625D",
"/  c #70645E",
"(  c #627458",
")  c #6D6564",
"_  c #6E6C69",
"`  c #676762",
"'  c #726663",
"]  c #746A66",
"[  c #746C6B",
"{  c #766C6B",
"}  c #6D7965",
"|  c #637762",
" . c #7A716E",
".. c #707C65",
"X. c #777070",
"o. c #7D7574",
"O. c #7E7977",
"+. c #786F70",
"@. c #817573",
"#. c #817876",
"$. c #847C7C",
"%. c #887F7D",
"&. c #817778",
"*. c #268236",
"=. c #288337",
"-. c #2A8439",
";. c #2A8B3A",
":. c #388943",
">. c #2E9F42",
",. c #3D9446",
"<. c #3E9748",
"1. c #3E9B4B",
"2. c #2FA142",
"3. c #31A144",
"4. c #32A947",
"5. c #35AC49",
"6. c #38AB4B",
"7. c #3BB24D",
"8. c #37B14B",
"9. c #458449",
"0. c #409749",
"q. c #419A4C",
"w. c #499854",
"e. c #529E55",
"r. c #528958",
"t. c #49A256",
"y. c #46A154",
"u. c #54AA5C",
"i. c #46B553",
"p. c #49B555",
"a. c #4AB956",
"s. c #4FB758",
"d. c #51BB5B",
"f. c #51B759",
"g. c #7C8373",
"h. c #768A75",
"j. c #7C9576",
"k. c #6E856B",
"l. c #5EBF62",
"z. c #57B264",
"x. c #5DA962",
"c. c #6ABB6A",
"v. c #5EC163",
"b. c #60C464",
"n. c #6FC16A",
"m. c #71C26C",
"M. c #73CA6F",
"N. c #74CC70",
"B. c #7BCF74",
"V. c #7CD076",
"C. c #73D070",
"Z. c #87807F",
"A. c #89807F",
"S. c #828D77",
"D. c #82B977",
"F. c #87C27B",
"G. c #89D67D",
"H. c #8AD87E",
"J. c #867F80",
"K. c #887F81",
"L. c #878080",
"P. c #8B8485",
"I. c #8E8788",
"U. c #8E8888",
"Y. c #918683",
"T. c #938886",
"R. c #948C8C",
"E. c #988E8C",
"W. c #908789",
"Q. c #869882",
"!. c #9B908F",
"~. c #94948E",
"^. c #979090",
"/. c #9B9392",
"(. c #978F90",
"). c #A19795",
"_. c #A39997",
"`. c #A59B9A",
"'. c #A89E9D",
"]. c #8CA883",
"[. c #96A28D",
"{. c #9AAC96",
"}. c #9DB49B",
"|. c #A99EA1",
" X c #ABA3A3",
".X c #B0A7A7",
"XX c #B4AAAA",
"oX c #B8ADAE",
"OX c #BDB3B3",
"+X c #BAAFB0",
"@X c #8EC582",
/* pixels */
"                                                            OX+XOX+XOXOX                                                        ",
"                                                            '.XX.X X X.X                                                        ",
"                                        I.P.P.^.XX_./ V n ^ A.!.!.^.~._.XX_./ V V n                                             ",
"                                        P.L.L.^.XX_./ n n P o.P.P.L.L.^.XX_.^ A K U                                             ",
"                            OX_.^ K o.I.P.P.P.^.XX).^ n n P o.U.P.P.L.~.XX_./ D ] #.L.^.XX_./ n                                 ",
"                             X).@.'  .@.$.L.L.E.'.).@.I C P o.P.P.P.P.R./.Y.I L o.P.P.^.XX_./ V                                 ",
"                    V P o.U.^./.).T.] P _ o.J.W.R./._.Y.I L @.U.I.P.U.$.] I A L o.I.P.E..X`./ n n P @.I.                        ",
"                    V L X.J.P.E. X/.I A G ) o.J.A.^.XX`./ L  .A.$.$.Z. .L V K ^ O.I.E./.).Y.I C K ) #.Y.                        ",
"                V V V K ) o.Z.U.R.%.L V A L ) X.J./.oX|.' D ) X.X.+.X.) A K ] &.K.(.|.).@.P C K ] $.K.R. XOX                    ",
"                ' I A A L ) O.Z.P.$.{ I A A U ' o.J.P.X.V t N Z Z Z Z Z A U &.R././._.W.' K L / #.P.P.~..XXX                    ",
"            P.R./.Y.I V C L ) o.J.R./.W.I C A P ) U w 4 % % % & & % & 5 Z [ J./. X_.@.'  .o.o.$.K.L.L.!.XX'.' n                 ",
"            $.E. X).] P Y ^ Y _ $./. X(.L e e b ! R 3 ; ; : : : > : : 3 R | ` _ J.@.L L +.P.P.I.E.^.!./.).T.' I                 ",
"        B U O.R.E.R.$.Z.!.Y.^ ^ &.(./.X.6 o o < M ,.-.k k k k k k k k -.,.M 0 - 2 7 b D ' o.J.R. XXXXX). ./  .P.'.OX            ",
"        C L  .$.$.Z.L./.XX_.G t G _ h.! 3 ; O a ,.d.z.f.d.a.d.d.d.d.d.d.d.,.i ; ; < f T F U K./._.`.`.T.^ ^ #.~. XXX            ",
"        C D ` X.[ X.Z./.XX!.w % & 9 :.1.:.k k ,.n.H.H.G.G.G.G.G.G.G.G.G.@Xm.,.k k =.:.c < w I.|.@./ ^ '  .#.Z.I.R./.XXOX        ",
"        C D G U ^ ) o.I.).X.4 . @ a ,.d.d.a.d.v.C.G.G.G.G.G.G.G.G.G.G.G.H.C.v.d.d.d.d.,.a 0 _ +.B r n Y O.I.P.P.P.R./.`.        ",
"    C C V C A A A L ) [ ] B % @ s ,.n.G.G.G.G.B.v.d.d.d.d.d.d.d.d.d.d.d.d.l.V.H.G.G.G.m.,.v 9 - & 2 Z ' $.I.P.P.P.$.{ /         ",
"    V C C A K P Y ^ ^ U S f 1 a <.v.B.G.G.G.H.m.,.k k l l k l l k l k l k <.m.H.G.G.G.B.v.<.i O ; 8 H +.$.P.P.P.$.] D n         ",
"    C V V D ] A.).Y.^ S R :.-.<.n.V.l.f.d.d.d.0.a : : , : , , , > > , : : a 0.d.d.d.s.b.V.m.,.k k M ! +.J.I.I.#.) K C n         ",
"    C C D ^ #.^.|._.@.( 6.7.a.v.V.N.p.>.-.*.*.h + . . . . . . . . . . . . O d *.*.-.>.a.M.V.b.i.6.1.r.} O.$.&.] D C D ^         ",
"    C A P _ $.R.(./._.Q.t.i.M.V.b.a.7.;.i > > + X . . . . . . . . . . . . X + > : i -.7.a.b.B.M.p.6.1.r.} _ Y K A K ] P. XOX    ",
"    B D U [ O.$.L.(.|.{.c.v.V.m.,.l =.h + . . . . . . . . . . . . . . . . . . . . + h =.l <.c.G.l.i.5.1.~ U L L L ^ #.^..XOX    ",
"    B A U _ [ o.$.W.(.[.@XV.b.0.a > > + X . . . . . . . . . . . . . . . . . . . . X : > : a 0.b.V.N.i.:.R L { @.o.#.A.^.XXOX    ",
"    U U U U U ) +.o.o.S.F.n.<.d O . . . . . . . . . . . . . . . . . . . . . . . . . . . . O d 0.c.G.v.e.W U &.W.U.I.P.R.^.).    ",
"I.L.$.{ P A D D L P L ( u.0.a O X . . . . . . . . . . . . . . . . . . . . . . . . . . . . X O a 0.b.G.c.} ' &.W.I.P.U.$.] ^     ",
"$.L.I.#.^ K A n V V m R x d + . . . . . . . . . . . . . . . . . . . . . . . . . . . . . . . . O j ,.n.F.j.O.$.&.#.o.o. ./ /     ",
"[ o.Z.L.$.] D B n T 9.x u O X . . . . . . . . . . . . . . . . . . . . . . . . . . . . . . . . X O p ,.c.F.].S.) I L D ] T.'.XXOX",
"U _ o.L.I.$.{ / / ( y.*., . . . . . . . . . . . . . . . . . . . . . . . . . . . . . . . . . . . . : *.a.C.F...U L L L ] /.XX+XOX",
"D L ) o.L.R./.`._.].f.*., . . . . . . . . . . . . . . . . . . . . . . . . . . . . . . . . . . . . : =.7.a.t.W L ] o.o.$.T.`.XXOX",
"C A P ) o.U.|.XXOX{.r.j + . . . . . . . . . . . . . . . . . . . . . . . . . . . . . . . . . . . . : h ;.2.,.E Y #.U.P.P.P.T./._.",
"C C A L ) O.I.'.+XE.g O X . . . . . . . . . . . . . . . . . . . . . . . . . . . . . . . . . . . . X + p ;.1.~ ] $.U.P.U.P.$.{ ^ ",
"C B V A P ) [ J.!.@.4 . . . . . . . . . . . . . . . . . . . . . . . . . . . . . . . . . . . . . . . . , *.y.| [ $.U.P.P.#.] D n ",
"C C n C A D D I ^ C & . . . . . . . . . . . . . . . . . . . . . . . . . . . . . . . . . . . . . . . . , -.y.| [ J.I.U.#.^ D n n ",
"D K L P L I ^ I A r # . . . . . . . . . . . . . . . . . . . . . . . . . . . . . . . . . . . . . . . . + h x Q ) X.o.@. .] ^ / / ",
"Y )  .o.o.A.!.T.I q # . . . . . . . . . . . . . . . . . . . . . . . . . . . . . . . . . . . . . . . . X + 8 b K L L K ] T._._._.",
"U ] $.I.P.~. X`.#.V = . . . . . . . . . . . . . . . . . . . . . . . . . . . . . . . . . . . . . . . . . . % t G L L L ] ).XXOXOX",
"D U #.I.P.U.R./._.o.4 . . . . . . . . . . . . . . . . . . . . . . . . . . . . . . . . . . . . . . . . . . & N )  .o.o.$.Y._.XXOX",
"V L  .$.P.P.P.^.XXR.6 . . . . . . . . . . . . . . . . . . . . . . . . . . . . . . . . . . . . . . . . . . = H X.Z.P.I.P.P.^..XOX",
"V D ) o.A.I.P./.XXR.6 . . . . . . . . . . . . . . . . . . . . . . . . . . . . . . . . . . . . . . . . . . = Z X.L.U.U.P.P.!.XXOX",
"V D U _ X.O.$.U./.o.5 . . . . . . . . . . . . . . . . . . . . . . . . . . . . . . . . . . . . . . . . . . & N ] O.Z.$.$.o.$.R._.",
"C D ^ ` U Y ) [ ] C = . . . . . . . . . . . . . . . . . . . . . . . . . . . . . . . . . . . . . . . . . . % t P _ [ [ _ U P I ^ ",
"V A P P C C L U D e # . . . . . . . . . . . . . . . . . . . . . . . . . . . . . . . . . . . . . . . . . . % N ^ Y U U ^ ^ ^ ^ ^ ",
"V C A A V V A A A e % . . . . . . . . . . . . . . . . . . . . . . . . . . . . . . . . . . . . . . . . . . * G X.P A C ^ Y._.).).",
"P P P P ^ / ' Y D e # . . . . . . . . . . . . . . . . . . . . . . . . . . . . . . . . . . . . . . . . . . 4 ) J.' L L ] ).oXOXOX",
"#.o.o.$.E.`._.Y.I q % . . . . . . . . . . . . . . . . . . . . . . . . . . . . . . . . . . . . . . . . . . 4 ) I.$.o.o.$.R._.XXOX",
"$.J.P.(. XXXXX`.#.C = . . . . . . . . . . . . . . . . . . . . . . . . . . . . . . . . . . . . . . . . . . * U L.Z.Z.P.P.#.$.!._.",
"[ o.J.U.E.^.^.).`.o.5 . . . . . . . . . . . . . . . . . . . . . . . . . . . . . . . . . . . . . . . . . . = H X.X.o.P.#./ P Y ^ ",
") [ O.$.P.L.#.A.).o.5 . . . . . . . . . . . . . . . . . . . . . . . . . . . . . . . . . . . . . . . . X + 8 F U ^ )  .] K C I / ",
") _ [ o.Z.#.) I / C = . . . . . . . . . . . . . . . . . . . . . . . . . . . . . . . . . . . . . . . . : j M T D A D L D C I Y.`.",
"` U ) _ o.] K n V q # . . . . . . . . . . . . . . . . . . . . . . . . . . . . . . . . . . . . . . . . , ;.1.Q P L P ^ P A I Y.'.",
"A G U ) I D A B V q # . . . . . . . . . . . . . . . . . . . . . . . . . . . . . . . . . . . . . . . . , *.y...&.o.$./.Y.I A I ' ",
"C A U U A A I ' ' D 0 O X . . . . . . . . . . . . . . . . . . . . . . . . . . . . . . . . . . . . X + i :.t.h.I.I.(. X_.@.I A n ",
"V C A A V I T.`.`.Q.9.j : . . . . . . . . . . . . . . . . . . . . . . . . . . . . . . . . . . . . + h ;.3.t.h.I.P.U.E./.).A.I n ",
"C A K L L ] /.oXOX}.z.*.: . . . . . . . . . . . . . . . . . . . . . . . . . . . . . . . . . . . . > *.7.a.x.g.K.P.P.L.R.'._.@./ ",
"B L ] o.@.$.Y.`.oX}.z.k : . . . . . . . . . . . . . . . . . . . . . . . . . . . . . . . . . . . . : l a.N.D.S.o.$.P.P.U.E./._._.",
"V L &.R.U.P.P.E.|.{.c.<.a O X . . . . . . . . . . . . . . . . . . . . . . . . . . . . . . . . X O a <.v.V.c...' o.L.P.A.#.%.!._.",
"V P o.I.I.P.P.T.R.[.@Xm.0.j O . . . . . . . . . . . . . . . . . . . . . . . . . . . . . . . . O d 0.m.V.l.e.W L ) O.L.$.^ L I / ",
"V K ] @.&.o.o.@.o.S.D.B.b.0.a O X . . . . . . . . . . . . . . . . . . . . . . . . . . . . X O a 0.b.B.N.i.,.T A L )  . .' / / ^ ",
"V A K P L L L L L Q e.b.V.m.<.d O . . . . . . . . . . . . . . . . . . . . . . . . . . . . O d 0.m.V.v.i.8.,.J C A D G ' T._.).).",
"P P L P L P I I A T ,.p.N.V.b.0.a > > + X . . . . . . . . . . . . . . . . . . . . X + , : a <.b.V.N.i.3.-.z J L L L L ] ).XXOXOX",
"@.O.@.o.o.Z.^.T.I T ,.8.p.l.V.m.,.l *.h + . . . . . . . . . . . . . . . . . . . . + d *.l ,.m.B.c.i.7.;.u 8 F ) o.O.o.#.Y._.XXOX",
"$.$.$.Z.L.E. X/.Y m c =.3.i.M.B.v.s.7.;.a , , > X . . . . . . . . . . . . X : , > a ;.i.a.v.B.M.i.2.-.d O % N ) o.L.P.P.I.I./._.",
"[ X.[ o.L.R.E.%.I t < u -.8.p.l.B.N.p.3.-.-.=.h : . . . . . . . . . . . . : h -.=.;.>.p.N.B.l.i.7.-.i O X $ t U ] o.A.I.P.$.] / ",
"` ) ) [ #.I.I.o.I e o : l 4.4.s.G.G.d.4.5.8.7.=., . . . . . . . . . . . . , =.7.5.6.6.f.G.G.s.4.5.l > . . % e D U [ $.P.I.o.L n "
};
