/* XPM */
static char *image_part_0151725991612[] = {
/* columns rows colors chars-per-pixel */
"64 64 185 2 ",
"   c None",
".  c #000000",
"X  c #020803",
"o  c #0F0B0B",
"O  c #071B0B",
"+  c #081C0C",
"@  c #14110F",
"#  c #161211",
"$  c #191615",
"%  c #1B1817",
"&  c #1C1A1A",
"*  c #12090C",
"=  c #221E1E",
"-  c #0A260F",
";  c #07220D",
":  c #0B2810",
">  c #1F341F",
",  c #1D2E1C",
"<  c #252323",
"1  c #282525",
"2  c #2E2B2C",
"3  c #263A27",
"4  c #3F3530",
"5  c #382F2A",
"6  c #413631",
"7  c #443A35",
"8  c #463D39",
"9  c #483D37",
"0  c #15491E",
"q  c #1C4C23",
"w  c #1A4721",
"e  c #1B5E27",
"r  c #1D5F29",
"t  c #354936",
"y  c #1D6028",
"u  c #1B6027",
"i  c #257E34",
"p  c #33743C",
"a  c #4A453D",
"s  c #53463E",
"d  c #387D43",
"f  c #4E4746",
"g  c #4E4846",
"h  c #554740",
"j  c #564942",
"k  c #594C45",
"l  c #544D4C",
"z  c #5B4E49",
"x  c #4C5D41",
"c  c #5E524C",
"v  c #555746",
"b  c #595353",
"n  c #60544E",
"m  c #625652",
"M  c #655955",
"N  c #695C56",
"B  c #665D5B",
"V  c #6A5E5A",
"C  c #526449",
"Z  c #57674C",
"A  c #596C54",
"S  c #5A6956",
"D  c #5D745C",
"F  c #5B7557",
"G  c #6A6D55",
"H  c #6D625D",
"J  c #656855",
"K  c #70645F",
"L  c #62745C",
"P  c #677659",
"I  c #626A4F",
"U  c #6D6564",
"Y  c #6B6966",
"T  c #726663",
"R  c #746A66",
"E  c #756C6B",
"W  c #796F6D",
"Q  c #736668",
"!  c #6B7B69",
"~  c #667763",
"^  c #717C64",
"/  c #7A716E",
"(  c #727E6A",
")  c #777070",
"_  c #7D7574",
"`  c #7E7A78",
"'  c #817573",
"]  c #817877",
"[  c #827778",
"{  c #847C7C",
"}  c #887F7D",
"|  c #278236",
" . c #2A8D3B",
".. c #398544",
"X. c #3D9446",
"o. c #3E9649",
"O. c #3F994B",
"+. c #379043",
"@. c #2FA143",
"#. c #32A746",
"$. c #3CB34E",
"%. c #44854B",
"&. c #40974B",
"*. c #41994A",
"=. c #519E55",
"-. c #529259",
";. c #4C9251",
":. c #648156",
">. c #4CA459",
",. c #4BA659",
"<. c #55A55B",
"1. c #56A85A",
"2. c #49B755",
"3. c #4BB856",
"4. c #4FBA59",
"5. c #45B553",
"6. c #51BC5B",
"7. c #5B9B63",
"8. c #6B8269",
"9. c #70916B",
"0. c #7C8373",
"q. c #7A8C78",
"w. c #7D9479",
"e. c #58A961",
"r. c #5DBF61",
"t. c #5FB264",
"y. c #62B468",
"u. c #68BD67",
"i. c #7BB26E",
"p. c #7EB672",
"a. c #5DC262",
"s. c #71C36C",
"d. c #73CD6F",
"f. c #7ACE74",
"g. c #74CC71",
"h. c #7AD074",
"j. c #60C464",
"k. c #819F6C",
"l. c #87807F",
"z. c #89807F",
"x. c #818F7E",
"c. c #88A97D",
"v. c #80B975",
"b. c #85BD7B",
"n. c #92BE7C",
"m. c #89C57A",
"M. c #86D57B",
"N. c #89D67D",
"B. c #89D87E",
"V. c #867F80",
"C. c #878080",
"Z. c #8B8484",
"A. c #8A8984",
"S. c #8E8788",
"D. c #8F8888",
"F. c #918683",
"G. c #938886",
"H. c #938C8C",
"J. c #958B8B",
"K. c #859B82",
"L. c #8A9783",
"P. c #9B908F",
"I. c #988D90",
"U. c #978E90",
"Y. c #979090",
"T. c #9B9292",
"R. c #A19795",
"E. c #A39897",
"W. c #A59B9A",
"Q. c #A89E9D",
"!. c #A59698",
"~. c #8FA088",
"^. c #95A792",
"/. c #88B289",
"(. c #A2A79A",
"). c #A89FA0",
"_. c #ABA2A2",
"`. c #B0A7A7",
"'. c #B3AAAA",
"]. c #B8AFAF",
"[. c #BDB3B3",
"{. c #C0B6B6",
"}. c #95CA84",
"|. c #8DD380",
" X c #A5E38F",
/* pixels */
"                                                            [.[.[.].[.[.                                                        ",
"                                                            ).`.`.`.`.`.                                                        ",
"                                        Z.Z.C.Y.'.E.K j h V Z.Y.I.H.Y.E.`.E.K j j j                                             ",
"                                        Z.Z.Z.Y.'.E.K s h m ' Z.Z.z.C.Y.`.W.H k c N                                             ",
"                            [.E.H n _ Z.S.Z.Z.I.'.R.H s s M _ Z.Z.C.Z.Y.'.W.K c T { l.Y.`.E.K s                                 ",
"                            _.R.' T / [ { V.V.I.Q.R.' N c n _ G.Z.Z.Z.H.R.F.N m ] Z.Z.Y.'.E.K j                                 ",
"                    j m _ H.Y.T.T.J.T B U _ V.D.H.T.E.F.N n ' Z.S.Z.Z.{ R N z m _ Z.Z.H.'.W.K s s M _ Z.                        ",
"                    j m / C.C.Y._.P.H k m U _ V.z.Y.'.W.K n W } { { { / m j n H ] H.H.T.R.F.N k n U ] G.                        ",
"                j j s n U _ l.H.I.} M h z M Q ) V.T.'.W.U z U ) W E E Q c c R [ C.H._.E.' N k n R ] z.H._.[.                    ",
"                T N c z m U _ l.Z.{ R N z z m Q _ Z.^.L.L C S D D D D S b B [ D.U.T.E.G.T m n K { Z.Z.H.'.].                    ",
"            Z.H.T.F.N j k b U _ V.S.T.F.N k z m U ! 7.>.o.X.o.&.O.O.O.;.S U ` Y._.R.' T W _ _ ] z.Z.Z.Y.'.W.T s                 ",
"            C.H._.R.R M H H H U V.I.).I.L x x Z ^ 9.1.3.3.4.4.4.4.4.4.e.9.q.q.w.^.L.N c W V.Z.H.H.Y.P.T.R.F.T N                 ",
"        j N [ H.I.J.{ V.P.F.V N ` S.I.x.-.+.+.=.v.}.m.M.N.N.M.M.M.M.h.|.}.p.1.,.,.-.v c U _ V.H._.`.'.E./ K / Z._.[.            ",
"        j m ) { { { Z.T.'.(.~ Z ! w.L.c.t.4.3.a.f.N.B.M.N.N.N.N.|.|.|.|.|.h.a.3.3.1.:.G D ! Z.R.R.E.W.G.K H ] H.(.`.            ",
"        j c U ) E _ V.I.].^.7.X.O.e.m.}.|.M.M.f.a.4.4.6.6.6.6.6.4.4.6.4.6.a.g.B.M.M.m.i.=.7.^.!.' H H T W [ V.S.I.R.'.{.        ",
"        k l M B B U _ F.T.L.>.$.5.r.f.B.|.M.N.s.X.i i | i i i i i i | i | X.s.|.N.N.B.f.6.y./.L.J x v N [ S.Z.Z.Z.D.T.E.        ",
"    k j k k c z z m Q E U A &.5.g.f.r.4.4.6.6.*.q - - : : : : : : : : - - q *.6.6.4.6.a.f.f.y.>.o.%.S T { Z.Z.Z.Z.{ E K         ",
"    k k j k n M V K N H J :.<.6.M.s.&.i i | | r + . . . . . . . . . . . . + y | | i i X.s.M.6.3.4.<.~ E { Z.Z.Z.[ E c s         ",
"    k j j c R z.P.F.H J k.m.N.M.r.&.0 - : : : + X . . . . . . . . . . . . X + : : - - q &.a.h.N.M.p.( Q { S.S.{ U n k s         ",
"    k k c H ] Y._.R._ ^ v.B.B.s.X.e O . . . . . . . . . . . . . . . . . . . . . . . . O e &.s.N.B.m.w.` { { [ R c k c H         ",
"    j z M E { D.H.T.!.~.y.4.6.*.q + X . . . . . . . . . . . . . . . . . . . . . . . . X O q &.6.4.u.m.c.x.T N z k n R Z._.[.    ",
"    j c B E ` V.C.H._.^.1.@. .e + . . . . . . . . . . . . . . . . . . . . . . . . . . . . + e  .@.5.d.p.^ M M m M H [ Y.'.[.    ",
"    h c B E E ) C.H.I.K.,. .0 O X . . . . . . . . . . . . . . . . . . . . . . . . . . . . X O 0  .$.3.>.Z M E ' _ ] l.Y.`.[.    ",
"    B B B B B U / [ [ ! ..y O . . . . . . . . . . . . . . . . . . . . . . . . . . . . . . . . + u  .#.o.C N [ D.S.S.Z.H.T.R.    ",
"Z.C.{ E M z c c m M N j 3 O X . . . . . . . . . . . . . . . . . . . . . . . . . . . . . . . . X + q  .O.D Q { Z.S.S.S.l.K H     ",
"{ C.Z.{ H n k j j s 9 2 * . . . . . . . . . . . . . . . . . . . . . . . . . . . . . . . . . . . . + u ..F ! ` { _ _ _ / K R     ",
"E _ l.Z.{ R c j j 7 = o . . . . . . . . . . . . . . . . . . . . . . . . . . . . . . . . . . . . . X O w ..-.! U H m m T G.(.'.[.",
"B U _ C.Z.} E K K k $ . . . . . . . . . . . . . . . . . . . . . . . . . . . . . . . . . . . . . . . . ; u d A B m m c R R.'.].[.",
"c M U _ V.H.T.W.(._ 1 . . . . . . . . . . . . . . . . . . . . . . . . . . . . . . . . . . . . . . . . X O > a M E _ [ { G.W.'.[.",
"j z M Y _ S.).].[.G.2 . . . . . . . . . . . . . . . . . . . . . . . . . . . . . . . . . . . . . . . . . . # 9 H { S.Z.Z.Z.D.T.!.",
"j k c m U _ D.).[.D.2 . . . . . . . . . . . . . . . . . . . . . . . . . . . . . . . . . . . . . . . . . . $ f E { D.Z.Z.Z.{ R K ",
"k j j z M U E C.T._ 1 . . . . . . . . . . . . . . . . . . . . . . . . . . . . . . . . . . . . . . . . . . $ l / z.Z.Z.Z.] T n s ",
"k k j k k c n N H k $ . . . . . . . . . . . . . . . . . . . . . . . . . . . . . . . . . . . . . . . . . . % l ) C.D.D.] H c k s ",
"c c m M m N H N c 4 # . . . . . . . . . . . . . . . . . . . . . . . . . . . . . . . . . . . . . . . . . . $ g Q _ _ _ / R H K K ",
"H U / _ _ z.T.F.N 4 @ . . . . . . . . . . . . . . . . . . . . . . . . . . . . . . . . . . . . . . . . . . # 8 m m m m R F.W.E.R.",
"H U { S.Z.Y._.W.] j $ . . . . . . . . . . . . . . . . . . . . . . . . . . . . . . . . . . . . . . . . . . # 8 b m m c R R.'.[.[.",
"c H _ S.A.S.H.T.E._ 1 . . . . . . . . . . . . . . . . . . . . . . . . . . . . . . . . . . . . . . . . . . $ g Q / _ _ { G.T.'.[.",
"h b ) l.Z.Z.Z.Y.].D.2 . . . . . . . . . . . . . . . . . . . . . . . . . . . . . . . . . . . . . . . . . . % l ) l.S.Z.Z.Z.Y.'.[.",
"j c U _ C.Z.Z.T.'.H.2 . . . . . . . . . . . . . . . . . . . . . . . . . . . . . . . . . . . . . . . . . . % l E l.S.A.Z.l.P.'.[.",
"j l H R _ _ { G.T._ 1 . . . . . . . . . . . . . . . . . . . . . . . . . . . . . . . . . . . . . . . . . . $ f E _ l.l.{ _ l.P.R.",
"j c H Y M B Q ) T k $ . . . . . . . . . . . . . . . . . . . . . . . . . . . . . . . . . . . . . . . . . . # 8 M U ) ) Q B m N H ",
"j c M M k k M M c 6 # . . . . . . . . . . . . . . . . . . . . . . . . . . . . . . . . . . . . . . . . . . $ a B H H J H V U H H ",
"j k z z j j k l k 6 # . . . . . . . . . . . . . . . . . . . . . . . . . . . . . . . . . . . . . . . . . . & B E M c k H G.E.R.R.",
"M M m N H K H H n 6 # . . . . . . . . . . . . . . . . . . . . . . . . . . . . . . . . . . . . . . . . . . < Y V.U c n R T.].[.[.",
"_ _ _ l.P.E.W.F.N 4 @ . . . . . . . . . . . . . . . . . . . . . . . . . . . . . . . . . . . . . . . . . . < Y Z.{ _ _ { J.W.].[.",
"l.l.Z.Y._.'.'.W.] k $ . . . . . . . . . . . . . . . . . . . . . . . . . . . . . . . . . . . . . . . . . . = B C.l.l.Z.z.] { I.R.",
"E _ C.D.Y.T.T.T.W.' 1 . . . . . . . . . . . . . . . . . . . . . . . . . . . . . . . . . . . . . . . . . . % b ) ) _ Z.{ H M N H ",
"Y E _ l.C.C.] z.T.[ 1 . . . . . . . . . . . . . . . . . . . . . . . . . . . . . . . . . . . . . . . . . . $ g H H U / T n c N K ",
"Y Y E _ z.{ H J K k % . . . . . . . . . . . . . . . . . . . . . . . . . . . . . . . . . . . . . . . . . . $ 8 z c c n c k V F.W.",
"B U U Q / R c j j 4 @ . . . . . . . . . . . . . . . . . . . . . . . . . . . . . . . . . . . . . . . . . . $ a M M B H N k N F.W.",
"c m U U H c k s j 6 # . . . . . . . . . . . . . . . . . . . . . . . . . . . . . . . . . . . . . . . . . . = M ` [ z.T.F.N k N T ",
"j z M b k z H K T j $ . . . . . . . . . . . . . . . . . . . . . . . . . . . . . . . . . . . . . . . . . . = Y S.Z.H._.E.' N c s ",
"j k c k j N D.W.W._ 1 . . . . . . . . . . . . . . . . . . . . . . . . . . . . . . . . . . . . . . . . . . = U Z.S.S.Y.T.E.F.N s ",
"k z m m m R T.].{.S.2 . . . . . . . . . . . . . . . . . . . . . . . . . . . . . . . . . . . . . . . . X + 3 Y Z.Z.Z.Z.H.(.!.' K ",
"j c E _ ' { S.W.].D.1 . . . . . . . . . . . . . . . . . . . . . . . . . . . . . . . . . . . . . . . . + u d ~ _ l.Z.Z.S.P.P.R.!.",
"j M ] D.S.S.Z.P._.A.t O X . . . . . . . . . . . . . . . . . . . . . . . . . . . . . . . . . . . . X + q O.1.D U _ l.Z.z._ } P.!.",
"j N ' S.S.Z.Z.G.I.q.%.u + . . . . . . . . . . . . . . . . . . . . . . . . . . . . . . . . . . . . O u *.d.v.G m U _ C.{ H M N K ",
"j n R _ ' _ _ _ [ 8.>. .0 + X . . . . . . . . . . . . . . . . . . . . . . . . . . . . . . . . X + 0  .6.B./.G z b U / / T K H H ",
"j k n m m M n m m Z &.@. .r + . . . . . . . . . . . . . . . . . . . . . . . . . . . . . . . . + u  .@.4.B.n.G j k c n T F.E.R.R.",
"N m M m M M H N z Z =.3.$. .0 + X . . . . . . . . . . . . . . . . . . . . . . . . . . . . X + 0  .$.3.a.h.i.P z m M n R R.'.[.{.",
"_ _ _ _ _ l.P.F.N I i.d.3.+. .u + . . . . . . . . . . . . . . . . . . . . . . . . . . . . + e  .@.5.d.f.a.<.D U ) _ _ { G.E.'.[.",
"l.l.l.l.Z.H._.P.V I i.h.r.6.6.O.q + X . . . . . . . . . . . . . . . . . . . . . . . . X + q *.6.6.u.f.u.X.p Z Q ] z.Z.Z.Z.G.T.E.",
"E E E ) l.H.Y.{ N C =.r.h.M.B.s.*.y + . . . . . . . . . . . . . . . . . . . . . . . . ; r *.s.N.M.f.a.&.w , a B T _ l.Z.Z.{ R H ",
"Y Y U ) { Z.Z._ J s +.2.M. X XB.6.| : . . . . . . . . . . . . . . . . . . . . . . . . : | 6.N. X XM.3.i + o 4 c H E { S.Z._ M s "
};
