/* XPM */
static char *image_part_0161725991612[] = {
/* columns rows colors chars-per-pixel */
"64 64 180 2 ",
"   c None",
".  c #000000",
"X  c #020803",
"o  c #0E0C0B",
"O  c #120E0E",
"+  c #071C0B",
"@  c #091D0C",
"#  c #14110F",
"$  c #151211",
"%  c #191615",
"&  c #1B1817",
"*  c #1C1A1A",
"=  c #221E1D",
"-  c #0A240E",
";  c #09280F",
":  c #0B2710",
">  c #0B2911",
",  c #1F321E",
"<  c #242222",
"1  c #282525",
"2  c #2E2B2B",
"3  c #2B2628",
"4  c #312C2B",
"5  c #3E342E",
"6  c #3F3530",
"7  c #3E3A3A",
"8  c #413631",
"9  c #453C38",
"0  c #453B35",
"q  c #15491E",
"w  c #1D4E23",
"e  c #184520",
"r  c #1C5F28",
"t  c #1C5E27",
"y  c #314532",
"u  c #1D6129",
"i  c #257F35",
"p  c #35793D",
"a  c #4B443E",
"s  c #454236",
"d  c #53463E",
"f  c #377C41",
"g  c #4E4745",
"h  c #4E4846",
"j  c #554740",
"k  c #564942",
"l  c #594C45",
"z  c #544D4C",
"x  c #5B4E49",
"c  c #4C5940",
"v  c #5E524C",
"b  c #535F48",
"n  c #5B5555",
"m  c #60544E",
"M  c #625651",
"N  c #645955",
"B  c #695C56",
"V  c #655D5B",
"C  c #6A5E5A",
"Z  c #54684B",
"A  c #5B6954",
"S  c #587A56",
"D  c #477444",
"F  c #63644F",
"G  c #6A6D55",
"H  c #6D625D",
"J  c #70645F",
"K  c #69735A",
"L  c #64735B",
"P  c #72785F",
"I  c #6D6564",
"U  c #6E6868",
"Y  c #726662",
"T  c #746A66",
"R  c #746C6B",
"E  c #786F6D",
"W  c #6A7C69",
"Q  c #6B7A64",
"!  c #727565",
"~  c #7A716E",
"^  c #797E69",
"/  c #777070",
"(  c #7D7574",
")  c #7E7D77",
"_  c #7F7878",
"`  c #817673",
"'  c #817877",
"]  c #847C7C",
"[  c #887F7D",
"{  c #268236",
"}  c #288437",
"|  c #2A8D3B",
" . c #298738",
".. c #358241",
"X. c #3E9647",
"o. c #3C9947",
"O. c #3E9A49",
"+. c #2EA242",
"@. c #34A747",
"#. c #3CB54E",
"$. c #409A4A",
"%. c #4A8C50",
"&. c #46A554",
"*. c #56A45A",
"=. c #59A75F",
"-. c #52A156",
";. c #4BB356",
":. c #49BB56",
">. c #4EB659",
",. c #51BD5B",
"<. c #698F66",
"1. c #7B836D",
"2. c #75816D",
"3. c #7A8470",
"4. c #7D907A",
"5. c #5EAC64",
"6. c #54B160",
"7. c #64B068",
"8. c #7DB570",
"9. c #7EBC74",
"0. c #78AD72",
"q. c #53C15D",
"w. c #6FC36B",
"e. c #70C46C",
"r. c #7DC075",
"t. c #73D170",
"y. c #85837C",
"u. c #89807F",
"i. c #878F7A",
"p. c #84907C",
"a. c #87A776",
"s. c #85BE7A",
"d. c #82B974",
"f. c #91BE7B",
"g. c #86C47D",
"h. c #92C07D",
"j. c #87D77C",
"k. c #87D97D",
"l. c #89DA7E",
"z. c #867F80",
"x. c #878080",
"c. c #8B8484",
"v. c #8E8788",
"b. c #8F8888",
"n. c #918683",
"m. c #938886",
"M. c #938C8C",
"N. c #988E8C",
"B. c #908689",
"V. c #8D9C86",
"C. c #9B918F",
"Z. c #989A8C",
"A. c #978E90",
"S. c #9D8F91",
"D. c #979090",
"F. c #9B9292",
"G. c #A19695",
"H. c #A39997",
"J. c #A59B9A",
"K. c #A89E9D",
"L. c #9CBD8B",
"P. c #93B381",
"I. c #9EA490",
"U. c #99BC94",
"Y. c #A7A89A",
"T. c #A99FA0",
"R. c #ABA2A3",
"E. c #ACAFA1",
"W. c #B0A7A7",
"Q. c #B3AAAA",
"!. c #B8AFAF",
"~. c #B2B8A6",
"^. c #BDB3B3",
"/. c #C0B6B6",
"(. c #8EC782",
"). c #95C382",
"_. c #9AC887",
"`. c #8FD185",
"'. c #A3D18F",
"]. c #A8D795",
/* pixels */
"                                                            ^.^.^.!.^.^.                    . .                                 ",
"                                                            K.W.W.W.W.Q.                    . .                                 ",
"                                        c.c.c.A.W.H.J j j C c.A.N.N.N.F.W.H.J k k k                                             ",
"                                        c.c.c.N.W.J.H d j M ' c.c.c.x.A.W.J.H l m N                                             ",
"                            ^.H.J m ( m.c.c.c.A.Q.H.C j j N ( c.c.c.c.F.Q.J.J v R ' u.D.W.J.J k                                 ",
"                            R.G.~ Y ~ ' ] z.x.N.Y.H.` B x N ' c.c.c.c.m.G.n.B N ( c.c.D.W.J.J d                                 ",
"                    k N ( b.D.F.G.m.Y C U ( z.v.M.F.G.n.B N ( n.c.c.c.] R B l N ` v.c.N.Q.J.J k d N ` c.                        ",
"                    k N / z.c.N.R.C.H l n I ( z.z.S.Q.H.H m R ] ] ] ] ~ m k v H ' c.N.G.J.u.B k m I ' M.                        ",
"                j k d m Y ( ] b.N.] B j l N U ( ] Z.Q.H.H x H / R R R I x v T ' x.N.R.F.` N x m T ' x.M.R.^.                    ",
"                Y B m x N I _ x.c.] T C x l M I ( b.E.Y.1.K ^ 3.3.3.3.! B V _ b.A.F.H.m.Y M m J ' c.c.D.W.Q.                    ",
"            c.M.F.n.B d l n I ( z.M.H.m.B j l n I y.L.'.).f.P.).(.(.).a.! I ' A.T.G.` Y E ( ( ' c.c.c.N.Q.K.T d                 ",
"            z.N.R.G.R N H H V I ' A.R.Z.^ G G G S <.9.k.k.j.j.j.l.k.`.9.<.2.p.I.~.I.H v R c.c.b.N.D.C.F.G.m.Y N                 ",
"        k B ' M.N.M.] y.C.n.C B ( B.A.Z.f.h.f.8.*.&.;.>.,.,.,.,.,.,.,.;.&.=.s.'.].P.G x H / ] N.K.Q.Q.H.~ Y ~ c.R.^.            ",
"        l M / ] ] ] c.F.Q.Y.` ! i.V.4.4.g.l.`.e.$.i i i i i i i i i i i i X.w.l.k.8.S Z Q y.M.F.F.H.J.m.H H ' N.K.W.            ",
"        k v U R R ( y.F.Q.~.L.h._.g.5.&.>.,.,.$.w : : : > > > > > > > - - w $.,.q.;.O.-.d.L.E.J.` C H Y ~ _ x.v.N.F.Q./.        ",
"        l z N V V I ( c.C.I.h.k.k.w.o.i i { { t @ . . . . . . . . . . . . @ t { { { { o.e.`.U.V.! F v V _ v.c.c.c.M.F.H.        ",
"    k l l l v v x M I R Y K *.,.q.O.w - - > > @ X . . . . . . . . . . . . X @ > > : : w O.,.6.5.d.a.P I ] c.c.v.c.] R J         ",
"    l l k l v B C Y C V b D o.+.| t @ . . . . . . . . . . . . . . . . . . . . . . . . @ u | @.:.t.s.^ T z.c.c.z.] T m d         ",
"    l k l v T u.F.n.H b %.o.@.| q + X . . . . . . . . . . . . . . . . . . . . . . . . X + q ..#.:.6.Q R z.c.c.] I m l d         ",
"    k l v C ' D.R.H.` A p i  .u @ . . . . . . . . . . . . . . . . . . . . . . . . . . . . + u } i f S W _ ] ' R m k m C         ",
"    k x N U ] M.N.F.J.) y ; > @ X . . . . . . . . . . . . . . . . . . . . . . . . . . . . X @ > - e ..-.W U C x l v T c.R.^.    ",
"    k v V R _ ] x.N.R.x.3 . . . . . . . . . . . . . . . . . . . . . . . . . . . . . . . . . . . . + u f A V N M N H ' D.W./.    ",
"    j v V R R ( c.M.F./ < . . . . . . . . . . . . . . . . . . . . . . . . . . . . . . . . . . . . X @ , g N R ' ( ' c.F.W.^.    ",
"    V V V V V I / ' ' n = . . . . . . . . . . . . . . . . . . . . . . . . . . . . . . . . . . . . . . $ 0 C ] c.b.c.c.m.F.G.    ",
"c.c.' R B x v v N N N a % . . . . . . . . . . . . . . . . . . . . . . . . . . . . . . . . . . . . . . % z / z.v.b.b.b.] T H     ",
"] x.c.] H m k k k d 0 4 O . . . . . . . . . . . . . . . . . . . . . . . . . . . . . . . . . . . . . . $ 7 n / ] ' ( ( ~ J T     ",
"/ ( y.c.] T m k k 0 = O X . . . . . . . . . . . . . . . . . . . . . . . . . . . . . . . . . . . . . . X # 2 V T C m M Y m.K.Q.^.",
"V I ( z.c.u.T J Y k & . . . . . . . . . . . . . . . . . . . . . . . . . . . . . . . . . . . . . . . . . . % g C N N m T F.Q.!.^.",
"x M I ( z.M.F.J.J.( 1 . . . . . . . . . . . . . . . . . . . . . . . . . . . . . . . . . . . . . . . . . . $ 9 V ~ ( ` ] m.H.W.^.",
"l z N Y ( v.T.!.^.m.2 . . . . . . . . . . . . . . . . . . . . . . . . . . . . . . . . . . . . . . . . . . $ 9 C ' b.c.c.c.M.F.J.",
"l l x N I _ v.T.^.M.2 . . . . . . . . . . . . . . . . . . . . . . . . . . . . . . . . . . . . . . . . . . % h T ] b.c.c.c.] R J ",
"l k k x N I R ] F.( 1 . . . . . . . . . . . . . . . . . . . . . . . . . . . . . . . . . . . . . . . . . . * z / y.c.c.c.' T v d ",
"k k k l l v M N J z & . . . . . . . . . . . . . . . . . . . . . . . . . . . . . . . . . . . . . . . . . . * z / x.b.b.' H v k d ",
"v v N N B N H B x 6 # . . . . . . . . . . . . . . . . . . . . . . . . . . . . . . . . . . . . . . . . . . % h Y / ( ` ~ T H J J ",
"H I / ( ( [ F.n.B 8 # . . . . . . . . . . . . . . . . . . . . . . . . . . . . . . . . . . . . . . . . . . $ 9 M B M m Y m.J.H.H.",
"V T ] v.c.N.R.H.` k & . . . . . . . . . . . . . . . . . . . . . . . . . . . . . . . . . . . . . . . . . . $ 9 n M M M T F.Q.^.^.",
"v V ' c.c.b.N.F.H.( 1 . . . . . . . . . . . . . . . . . . . . . . . . . . . . . . . . . . . . . . . . . . % h U ~ ( ( ] m.H.W.^.",
"k M / c.c.c.c.F.Q.M.2 . . . . . . . . . . . . . . . . . . . . . . . . . . . . . . . . . . . . . . . . . . & z / x.b.b.c.c.F.W.^.",
"k v I / u.c.c.F.Q.M.2 . . . . . . . . . . . . . . . . . . . . . . . . . . . . . . . . . . . . . . . . . . & z / x.c.c.c.c.F.W.^.",
"k v H T / _ ] c.G.( 1 . . . . . . . . . . . . . . . . . . . . . . . . . . . . . . . . . . . . . . . . . . % h T ' y.z.' ( ] C.H.",
"k v V I B V Y R T k & . . . . . . . . . . . . . . . . . . . . . . . . . . . . . . . . . . . . . . . . . . $ 9 N U / / U B B C C ",
"k v B N l z N V v 8 # . . . . . . . . . . . . . . . . . . . . . . . . . . . . . . . . . . . . . . . . . . % a C C V V C H H H H ",
"k k x z k k l v l 8 $ . . . . . . . . . . . . . . . . . . . . . . . . . . . . . . . . . . . . . . . . . . * n / V l l H n.H.G.G.",
"N N N B H J J B m 8 # . . . . . . . . . . . . . . . . . . . . . . . . . . . . . . . . . . . . . . . . . . < U ] Y M M T G.!.^.^.",
"( ( ( ] C.J.J.n.B 6 # . . . . . . . . . . . . . . . . . . . . . . . . . . . . . . . . . . . . . . . . . . < U v.] ( ( ' M.J.Q./.",
"z.z.c.N.R.W.Q.J.' l & . . . . . . . . . . . . . . . . . . . . . . . . . . . . . . . . . . . . . . . . . . = V z.y.c.c.c.` ] N.H.",
"R ( z.b.N.F.F.F.J.( 1 . . . . . . . . . . . . . . . . . . . . . . . . . . . . . . . . . . . . . . . . . . * n / / ( c.' J N C H ",
"I R ( z.c.y.' c.G.( 1 . . . . . . . . . . . . . . . . . . . . . . . . . . . . . . . . . . . . . . . . . . % h H V I E T m x B J ",
"U U R / y.' H B H z & . . . . . . . . . . . . . . . . . . . . . . . . . . . . . . . . . . . . . . . . . . % 9 v v v M v l C n.J.",
"V I I R ( T m k d 8 # . . . . . . . . . . . . . . . . . . . . . . . . . . . . . . . . . . . . . . . . . . % g M M B C B x B m.J.",
"v M I I H v l d l 8 # . . . . . . . . . . . . . . . . . . . . . . . . . . . . . . . . . . . . . . . . . . * V ( ( y.F.n.B x B Y ",
"k z N n l x H Y J l & . . . . . . . . . . . . . . . . . . . . . . . . . . . . . . . . . . . . . . . . . . = I v.b.N.T.J.` N x d ",
"k l l l k B n.J.J.( 1 . . . . . . . . . . . . . . . . . . . . . . . . . . . . . . . . . . . . . . . . . . < U v.v.v.N.F.J.z.B d ",
"l l m N M R F.!./.b.2 . . . . . . . . . . . . . . . . . . . . . . . . . . . . . . . . . . . . . . . . . . * V c.c.c.c.M.Y.H.` J ",
"l m T _ ` ] M.J.!.m.2 . . . . . . . . . . . . . . . . . . . . . . . . . . . . . . . . . . . . . . . . . . * n ( z.c.c.c.N.G.H.H.",
"k N ' b.m.c.c.D.R.y.2 . . . . . . . . . . . . . . . . . . . . . . . . . . . . . . . . . . . . . . . . . . % g U ' z.c.[ ` [ S.H.",
"k N ` b.c.c.c.M.F.R < . . . . . . . . . . . . . . . . . . . . . . . . . . . . . . . . . . . . . . . . . . $ 9 N Y ( c.' C N B J ",
"k m T ( ` ( ( ` ' n = . . . . . . . . . . . . . . . . . . . . . . . . . . . . . . . . . . . . . . . . X @ , 9 x V I / ~ T J J C ",
"k l m M N N N N V a % . . . . . . . . . . . . . . . . . . . . . . . . . . . . . . . . . . . . . . . . - u p c l l v v T m.J.H.G.",
"N N N N m N H B v 8 O . . . . . . . . . . . . . . . . . . . . . . . . . . . . . . . . . . . . . . . . > } $.Z v M M M T G.Q.!./.",
"` ' ( ( ( ] F.n.C 6 O . . . . . . . . . . . . . . . . . . . . . . . . . . . . . . . . . . . . . . . . : { $.S I / ` ( ] n.G.!.^.",
"y.] ] x.c.N.R.F.J s , - X . . . . . . . . . . . . . . . . . . . . . . . . . . . . . . . . . . . . X @ w o.=.Q I ' z.c.c.c.m.F.G.",
"R R R ( ] M.M.y.B d p u - . . . . . . . . . . . . . . . . . . . . . . . . . . . . . . . . . . . . @ u $.w.8.K M I ( c.c.c.] T J ",
"U U I R y.c.c.( N Z $. .> . . . . . . . . . . . . . . . . . . . . . . . . . . . . . . . . . . . . > } q.`.f.G l V R ] c.c.( M d "
};
