/* XPM */
static char *image_part_0031725991614[] = {
/* columns rows colors chars-per-pixel */
"64 64 114 2 ",
"   c None",
".  c #000000",
"X  c #020906",
"o  c #0D0C0B",
"O  c #110E0D",
"+  c #14110F",
"@  c #051A11",
"#  c #151211",
"$  c #191616",
"%  c #1B1817",
"&  c #191718",
"*  c #1C1A1A",
"=  c #221E1D",
"-  c #062217",
";  c #062418",
":  c #242222",
">  c #282525",
",  c #2D2B2B",
"<  c #312925",
"1  c #312E2F",
"2  c #3E342E",
"3  c #363130",
"4  c #3D3430",
"5  c #3E3A3A",
"6  c #413731",
"7  c #433933",
"8  c #483D37",
"9  c #453D39",
"0  c #483E3A",
"q  c #0C4028",
"w  c #0F5437",
"e  c #105537",
"r  c #4C423E",
"t  c #53463E",
"y  c #14714A",
"u  c #1A7E4A",
"i  c #4E4745",
"p  c #4E4847",
"a  c #4F4B4B",
"s  c #544740",
"d  c #564942",
"f  c #594C45",
"g  c #534D4C",
"h  c #5B4F49",
"j  c #5E524C",
"k  c #5B5453",
"l  c #5E5856",
"z  c #5F5958",
"x  c #60544E",
"c  c #625651",
"v  c #655955",
"b  c #695C56",
"n  c #655D5B",
"m  c #6A5E5A",
"M  c #6D625D",
"N  c #70645E",
"B  c #666060",
"V  c #6D6564",
"C  c #6D6768",
"Z  c #6E6868",
"A  c #726662",
"S  c #736966",
"D  c #746C6B",
"F  c #796F6D",
"G  c #7A716E",
"H  c #777070",
"J  c #7D7574",
"K  c #7F7877",
"L  c #7F7878",
"P  c #817672",
"I  c #817876",
"U  c #847C7C",
"Y  c #887F7D",
"T  c #1E9C5E",
"R  c #27984C",
"E  c #219F5C",
"W  c #2DA64E",
"Q  c #31A745",
"!  c #27A253",
"~  c #2CA35A",
"^  c #1C9B62",
"/  c #44B159",
"(  c #4FB658",
")  c #52B858",
"_  c #5EBE61",
"`  c #72C870",
"'  c #7ACD73",
"]  c #87807F",
"[  c #89807F",
"{  c #89D47C",
"}  c #867F80",
"|  c #878080",
" . c #8B8484",
".. c #8E8788",
"X. c #8F8888",
"o. c #918683",
"O. c #938886",
"+. c #938C8C",
"@. c #988E8D",
"#. c #9B908F",
"$. c #978F90",
"%. c #979090",
"&. c #9B9392",
"*. c #A19795",
"=. c #A39997",
"-. c #A59B9A",
";. c #A89E9D",
":. c #A89FA0",
">. c #ACA3A3",
",. c #B0A7A7",
"<. c #B3AAAA",
"1. c #B8AFAF",
"2. c #BDB3B3",
"3. c #C0B6B6",
/* pixels */
"                                                            2.2.2.1.2.2.                                                        ",
"                                                            ;.,.,.>.>.<.                                                        ",
"                                        ..|  .%.<.=.N d t m | #.%.@.@.&.<.=.N d d d                                             ",
"                                        | ..| %.,.=.N t d v P  ...|  .$.<.=.M h j b                                             ",
"                            2.=.M x J .. . . .%.<.=.N t t v J  ...| | %.<.=.N x S I | %.,.*.N d                                 ",
"                            >.*.P A G I U } | $.;.*.P b h v P .. . ...O.&.o.b x J  . .%.<.=.N t                                 ",
"                    d v J X.%.&.&.O.A b Z J | O.+.&.*.[ b c P .... .X.Y S b h c L ..| @.<.-.N d t v J ..                        ",
"                    d c H }  .@.>.#.M f l V J | | &.1.-.N x G [ Y Y | G x d x M I ..@.*.=.[ b f x V I O.                        ",
"                d s t x A J Y X.$.Y v s h c Z H Y %.1.-.A j V H H H H Z j x D I | @.>.=.P v h x S U | @.>.2.                    ",
"                A b h h v V J |  .U D b j h v S L | ..J f 9 p g a g g g j B I +.%.&.=.O.A x x N I  .| @.,.<.                    ",
"             .+.&.o.b d f l V J } O.&.o.m h h v D n 5 : $ # $ & & $ & , g D } &.>.-.P A G J J I |  . .#.<.;.S t                 ",
"            | @.>.*.D v m M M Z Y %.,.%.j 6 6 9 a 5 # . . . . . . . . # 5 k B D } I c c H  . ...@.%.%.%.=.o.A m                 ",
"        d b I X.$.+.U Y @.o.M m I +.&.J 3 O + # & # X . . . . . . . . X # * = : , 3 r c S J } @.>.<.<.*.G A G | :.2.            ",
"        d c H Y U } | &.1.*.k r l V C a % . . . . . . . . . . . . . . . . . . . . o < 8 i B | &.&.;.-.O.M M I @.;.<.            ",
"        d j C H D H Y &.1.@.5 + * : : & X . . . . . . . . . . . . . . . . . . . . . O # # 5 X.;.I V M A G I | ..@.&.<.3.        ",
"        d h v n n C J ..*.H > . . . . . . . . . . . . . . . . . . . . . . . . . . . . . . : C L f 7 s b K .. . . .+.&.=.        ",
"    f f d h h h h c V D S h % . . . . . . . . . . . . . . . . . . . . . . . . . . . . . . o : > $ : d D U .. ... .U S N         ",
"    d f d h x v M M M k r < O . . . . . . . . . . . . . . . . . . . . . . . . . . . . . . . . . . $ g H }  . .| I D j t         ",
"    f d d x S [ &.O.M 9 = o . . . . . . . . . . . . . . . . . . . . . . . . . . . . . . . . . . . * g J }  ...U V j h t         ",
"    f f j m I %.>.=.I d # . . . . . . . . . . . . . . . . . . . . . . . . . . . . . . . . . . . . # 5 z J Y P D j h j M         ",
"    f h v D U X.@.&.-.J > . . . . . . . . . . . . . . . . . . . . . . . . . . . . . . . . . . . . X # , n D m j d x S  .>.2.    ",
"    d j n D L } | %.>. ., . . . . . . . . . . . . . . . . . . . . . . . . . . . . . . . . . . . . . . $ i n v v v V I %.,.2.    ",
"    d h n D D J | +.&.H : . . . . . . . . . . . . . . . . . . . . . . . . . . . . . . . . . . . . . . # 9 b D J J I | %.<.2.    ",
"    b v n n n V H L L v * . . . . . . . . . . . . . . . . . . . . . . . . . . . . . . . . . . . . . . $ 9 M I ........O.#.=.    ",
"..| I D v h h j c v b r $ . . . . . . . . . . . . . . . . . . . . . . . . . . . . . . . . . . . . . . $ a D Y .... .X.U S M     ",
"U |  .Y A x h d d t 8 < O . . . . . . . . . . . . . . . . . . . . . . . . . . . . . . . . . . . . . . $ 5 z J U I J P G N A     ",
"H J |  .I S j d d 7 = O X . . . . . . . . . . . . . . . . . . . . . . . . . . . . . . . . . . . . . . X + 1 z D M c c A O.:.<.2.",
"n V J } ..Y S A A f $ . . . . . . . . . . . . . . . . . . . . . . . . . . . . . . . . . . . . . . . . . . $ p m v x x S &.<.1.2.",
"h v V J } +.%.-.-.J > . . . . . . . . . . . . . . . . . . . . . . . . . . . . . . . . . . . . . . . . . . # 9 v D J J U O.=.<.2.",
"f h v C J ..:.1.2.O., . . . . . . . . . . . . . . . . . . . . . . . . . . . . . . . . . . . . . . . . . . # 9 m I X. . . .O.&.=.",
"f f h c V L ..:.2.O., . . . . . . . . . . . . . . . . . . . . . . . . . . . . . . . . . . . . . . . . . . $ i D ] X... . .Y D N ",
"f s s h v V D Y &.J > . . . . . . . . . . . . . . . . X @ ; ; ; ; @ X . . . . . . . . . . . . . . . . . . % g G ]  . . .I S j t ",
"d d d f h j x b M h % . . . . . . . . . . . . . . . . @ w y y y y w @ . . . . . . . . . . . . . . . . . . * g J } ....I M j d t ",
"j x c v v v M b j 4 + . . . . . . . . . . . . X @ ; @ q u E E E T R q @ ; @ X . . . . . . . . . . . . . . $ p A H J I G A N N N ",
"M V G J J Y %.O.b 2 + . . . . . . . . . . . . @ e y y u R W W W R R u y y e @ . . . . . . . . . . . . . . # 9 x c c c A O.-.=.=.",
"n D I ....@.>.=.P d $ . . . . . . . . . . . . ; y ^ E ~ / ) ) ) ( / ~ T ^ y ; . . . . . . . . . . . . . . # 9 c c c c S &.<.2.2.",
"h m I .. ...@.&.=.J > . . . . . . . . . . . . ; y T ! / ` { { { { ` / ! T y - . . . . . . . . . . . . . . $ p V H J J U O.=.<.2.",
"d c D }  . . .%.1.O., . . . . . . . . . . X @ q u ~ / _ ' { { { { ' _ / ~ u q @ X . . . . . . . . . . . . & g H [ X... ...@.,.2.",
"f j V J | .. .&.1.O., . . . . . . . . . . @ w R R / ` ' _ ( ( ( ( _ ' ` / R u w @ . . . . . . . . . . . . & g H | .. . . .$.,.2.",
"d j n D H L U X.&.J > . . . . . . . . . . @ y E W ) { { ( Q Q Q Q ( { { ) W E y ; . . . . . . . . . . . . $ p D J Y } I J Y @.=.",
"d j M B b b Z D A f % . . . . . . . . . . ; y E W ) { { ( Q Q Q Q ( { { ) W E y ; . . . . . . . . . . . . # 9 v Z H H Z n c m M ",
"d h v v h h v v h 6 # . . . . . . . . . . ; y E W ) { { ( Q Q Q Q ( { { ) W E y ; . . . . . . . . . . . . $ r b M n b M M M M M ",
"d f h h d d g h h 6 # . . . . . . . . . . ; y E W ) { { ( Q Q Q Q ( { { ) W E y ; . . . . . . . . . . . . * z D v h h M o.=.*.*.",
"v v v v M N A m x 6 + . . . . . . . . . . @ w u R / ` ' _ ( ( ( ( _ ' ` / R u w @ . . . . . . . . . . . . : C Y V c x S *.1.2.2.",
"P J J Y @.-.-.o.m 4 + . . . . . . . . . . X @ q u E / _ ' { { { { ' _ / ~ u q @ X . . . . . . . . . . . . : C  .Y K J Y O.=.1.2.",
"} } | $.>.<.<.-.P h $ . . . . . . . . . . . . @ y E W / ` { { { { ` / ! T y - . . . . . . . . . . . . . . = B } Y | | | I Y @.*.",
"D J Y X.%.%.%.&.;.J > . . . . . . . . . . . . ; y ^ E ~ / ) ( ( ) / ~ T ^ y - . . . . . . . . . . . . . . * k H H J | Y M v m M ",
"C D L Y  .| I [ &.L > . . . . . . . . . . . . @ e y y u R W W R W R u y y w @ . . . . . . . . . . . . . . $ i M n V G S x h b N ",
"C Z D J ] I V b N h % . . . . . . . . . . . . X @ ; - q R T T T E u q - ; @ X . . . . . . . . . . . . . . $ 9 j j j x j f b o.-.",
"n B V D J S x t d 2 + . . . . . . . . . . . . . . . . @ w y y y y w @ . . . . . . . . . . . . . . . . . . $ r v v v M b h b o.;.",
"j l B V b j h d d 4 # . . . . . . . . . . . . . . . . X @ ; ; ; - @ X . . . . . . . . . . . . . . . . . . * v J J Y #.o.b h b A ",
"f h v c h h b A N f % . . . . . . . . . . . . . . . . . . . . . . . . . . . . . . . . . . . . . . . . . . = C ..X.%.>.=.P v h t ",
"d f h h d b ..-.;.H > . . . . . . . . . . . . . . . . . . . . . . . . . . . . . . . . . . . . . . . . . . : C ......@.&.=.[ b t ",
"f h x v c S &.1.3.O., . . . . . . . . . . . . . . . . . . . . . . . . . . . . . . . . . . . . . . . . . . * B  . . . .+.>.*.P N ",
"s x D J P U O.-.2.X., . . . . . . . . . . . . . . . . . . . . . . . . . . . . . . . . . . . . . . . . . . * k J |  .| O.@.&.=.=.",
"d v P ...... .@.>.Y , . . . . . . . . . . . . . . . . . . . . . . . . . . . . . . . . . . . . . . . . . . & i Z L | ..| P Y #.=.",
"d v K X.X. ...O.%.D > . . . . . . . . . . . . . . . . . . . . . . . . . . . . . . . . . . . . . . . . . . # 9 v Z J | I M v m N ",
"d x S P J J J P K z * . . . . . . . . . . . . . . . . . . . . . . . . . . . . . . . . . . . . . . . . . . + 7 h v V G G S M M M ",
"d f x c v c x v v r $ . . . . . . . . . . . . . . . . . . . . . . . . . . . . . . . . . . . . . . . . . . # 7 h j j j S o.=.*.*.",
"v v v c v v N b j 7 + . . . . . . . . . . . . . . . . . . . . . . . . . . . . . . . . . . . . . . . . . . $ 9 c c c c S *.1.1.3.",
"P K J J J [ %.O.m 6 + . . . . . . . . . . . . . . . . . . . . . . . . . . . . . . . . . . . . . . . . . . $ p V J J J I O.=.1.2.",
"Y U U ] | %.>.&.N 6 + . . . . . . . . . . . . . . . . . . . . . . . . . . . . . . . . . . . . . . . . . . $ p D J } .. .| O.&.=.",
"D D D J Y X.#.| b 7 + . . . . . . . . . . . . . . . . . . . . . . . . . . . . . . . . . . . . . . . . . . $ 9 v D H Y  . .U S N ",
"C C C D U  ...P v 7 + . . . . . . . . . . . . . . . . . . . . . . . . . . . . . . . . . . . . . . . . . . # 7 j M D Y .. .J c t "
};
