/* XPM */
static char *image_part_0041725991613[] = {
/* columns rows colors chars-per-pixel */
"64 64 122 2 ",
"   c None",
".  c #000000",
"X  c #0D0C0B",
"o  c #110E0D",
"O  c #04180F",
"+  c #14110F",
"@  c #041910",
"#  c #151211",
"$  c #191616",
"%  c #1B1817",
"&  c #191718",
"*  c #1C1A1A",
"=  c #221E1D",
"-  c #062317",
";  c #072518",
":  c #0A3926",
">  c #242222",
",  c #282525",
"<  c #2D2B2B",
"1  c #312925",
"2  c #312E2F",
"3  c #3E342E",
"4  c #363130",
"5  c #3D3430",
"6  c #3E3A3A",
"7  c #413731",
"8  c #433933",
"9  c #483D37",
"0  c #453D39",
"q  c #483E3A",
"w  c #0C4129",
"e  c #0F5436",
"r  c #4C423E",
"t  c #53463E",
"y  c #14724A",
"u  c #167C51",
"i  c #4E4745",
"p  c #4E4847",
"a  c #4F4B4B",
"s  c #544740",
"d  c #564942",
"f  c #594C45",
"g  c #534D4C",
"h  c #5B4F49",
"j  c #5E524C",
"k  c #5B5453",
"l  c #5E5856",
"z  c #5F5958",
"x  c #60544E",
"c  c #625651",
"v  c #655955",
"b  c #695C56",
"n  c #655D5B",
"m  c #6A5E5A",
"M  c #6D625D",
"N  c #70645E",
"B  c #666060",
"V  c #6D6564",
"C  c #6D6768",
"Z  c #6E6868",
"A  c #726662",
"S  c #736966",
"D  c #746C6B",
"F  c #796F6D",
"G  c #7A716E",
"H  c #777070",
"J  c #7D7574",
"K  c #7F7877",
"L  c #7F7878",
"P  c #817672",
"I  c #817876",
"U  c #847C7C",
"Y  c #887F7D",
"T  c #1B804C",
"R  c #198C5C",
"E  c #1F9A5C",
"W  c #299B4E",
"Q  c #209C5B",
"!  c #2B9F58",
"~  c #2CA44D",
"^  c #3BAC4A",
"/  c #28A252",
"(  c #2BA058",
")  c #1D9B62",
"_  c #42AE57",
"`  c #43AF58",
"'  c #49B353",
"]  c #45B058",
"[  c #4FB758",
"{  c #50B758",
"}  c #52B858",
"|  c #5FBF62",
" . c #75CA6F",
".. c #72C870",
"X. c #7CCE74",
"o. c #87807F",
"O. c #89807F",
"+. c #89D47C",
"@. c #867F80",
"#. c #878080",
"$. c #8B8484",
"%. c #8E8788",
"&. c #8F8888",
"*. c #918683",
"=. c #938886",
"-. c #938C8C",
";. c #988E8D",
":. c #9B908F",
">. c #978F90",
",. c #979090",
"<. c #9B9392",
"1. c #A19795",
"2. c #A39997",
"3. c #A59B9A",
"4. c #A89E9D",
"5. c #A89FA0",
"6. c #ACA3A3",
"7. c #B0A7A7",
"8. c #B3AAAA",
"9. c #B8AFAF",
"0. c #BDB3B3",
"q. c #C0B6B6",
/* pixels */
"                                                            0.0.0.9.0.0.                                                        ",
"                                                            4.7.7.7.6.7.                                                        ",
"                                        $.$.#.;.7.2.A t d m $.:.;.>.;.3.7.2.N d d d                                             ",
"                                        %.#.%.:.7.3.M t t c J $.$.#.#.,.7.3.M f x b                                             ",
"                            0.2.N x J %.$.$.$.,.8.2.M t t v J $.$.$.#.,.8.3.N j S I #.,.7.1.N d                                 ",
"                            6.1.J A G P U @.#.;.4.2.P v h c J %.$.$.%.=.1.*.b c J $.$.,.8.2.N d                                 ",
"                    d v J &.,.<.1.*.S b C J #.%.;.,.3.*.b v P %.$.%.%.U D b h c J %.$.,.8.2.N t t c P %.                        ",
"                    d c H @.$.;.6.:.m f l V J @.#.,.8.4.N x G O.U Y O.G x d x M I %.;.<.1.*.b f x V I =.                        ",
"                d s t x A J Y &.,.Y v d h c V J Y ,.9.3.A j V H H H H C j k S I #.>.6.1.P v h x S I #.;.6.0.                    ",
"                A b h h v V J #.$.U D b j h v S L #.%.J f 0 p g g g g g j M I -.,.<.3.=.A x x N U %.#.,.7.8.                    ",
"            $.-.<.*.b d f l V J @.&.<.*.b d j v D n 6 > $ # $ & & $ & < g D @.,.6.3.P A G J J I o.$.#.,.8.4.S t                 ",
"            #.;.6.1.D v m M M Z Y <.6.>.c 7 7 0 a 6 # . . . . . . . . # 6 k B H #.P v x H $.$.&.;.,.:.<.2.*.A m                 ",
"        d b I &.>.-.U Y ;.*.M m I -.<.J 4 o + $ $ # . . . . . . . . . . $ * = > < 4 t x C J @.-.5.7.7.3.G A G #.6.0.            ",
"        d c H Y U @.#.<.9.1.k r l C Z a & . . . . . . . . . . . . . . . . . . . . X 1 0 a n $.<.2.3.3.=.M M I ;.4.7.            ",
"        d j C H D H Y <.9.;.6 + * > > * . . . . . . . . . . . . . . . . . . . . . . o # # 6 =.4.I M M A G I #.%.;.<.7.q.        ",
"        d h v n n C J %.1.H , . . . . . . . . . . . . . . . . . . . . . . . . . . . . . . > C J f 8 s m L %.$.$.$.-.<.3.        ",
"    f f d h h h h c C D S f % . . . . . . . . . . . . . . . . . . . . . . . . . . . . . . X > , $ > d D U $.$.$.%.U S N         ",
"    d f d h x v M M M k r 1 o . . . . . . . . . . . . . . . . . . . . . . . . . . . . . . . . . . & g H Y $.%.#.I D j t         ",
"    f d d x S O.,.=.M r = X . . . . . . . . . . . . . . . . . . . . . . . . . . . . . . . . . . . * g J #.%.%.U V x d t         ",
"    f f j m I ,.6.3.P d $ . . . . . . . . . . . . . . . . . . . . . . . . . . . . . . . . . . . . # 6 z H Y I S j h x M         ",
"    f h v D U &.>.<.3.J , . . . . . . . . . . . . . . . . . . . . . . . . . . . . . . . . . . . . X # < n D m j f x S $.6.0.    ",
"    d j n D L @.#.,.6.#.< . . . . . . . . . . . . . . . . . . . . . . . . . . . . . . . . . . . . . . $ p n b c c M U ,.7.0.    ",
"    d h n D D J #.-.<.H > . . . . . . . . . . . . . . . . . . . . . . . . . . . . . . . . . . . . . . # 0 v D J J I #.,.7.0.    ",
"    b v n n n V H I L v * . . . . . . . . . . . . . . . . . . . . . . . . . . . . . . . . . . . . . . # 0 M U %.&.%.%.=.<.2.    ",
"%.#.I D v h h j c v b r $ . . . . . . . . . . . . . . . . . . . . . . . . . . . . . . . . . . . . . . & g D @.%.%.%.&.U S M     ",
"U #.$.Y A x h d d t 9 1 o . . . . . . . . . . . . . . . . . . . . . . . . . . . . . . . . . . . . . . o 6 z H U K J K G N N     ",
"H J #.$.I S j d d 8 = o . . . . . . . . . . . . . . . . . . . . . . . . . . . . . . . . . . . . . . . X # 2 z D b c c A =.4.8.0.",
"n V J @.%.Y S A A f $ . . . . . . . . . . . . . . . . . . . . . . . . . . . . . . . . . . . . . . . . . . # i M b x x S 1.8.9.0.",
"h v V J @.-.,.3.3.J , . . . . . . . . . . . . . . . . . . . . . . . . . . . . . . . . . . . . . . . . . . # 0 v D J J U =.3.7.0.",
"f h v C J %.5.9.0.=.< . . . . . . . . . . . . . . . @ ; ; ; ; ; ; ; ; @ . . . . . . . . . . . . . . . . . # 8 M I &.$.$.$.&.<.3.",
"f f h c V L %.5.0.=.< . . . . . . . . . . . . . . @ e y y y y y y y y e @ . . . . . . . . . . . . . . . . $ p D o.&.$.%.%.U S N ",
"f s s h v V D Y <.J , . . . . . . . . . . . . . @ w u ) Q Q E E Q ) ) T w @ . . . . . . . . . . . . . . . % g G o.$.&.O.I S j t ",
"d d d d h j x b N g % . . . . . . . . . . . . @ e u R E / ~ ~ ~ ~ / E R u e @ . . . . . . . . . . . . . . % g H #.&.=.I M j d t ",
"x j v v c b M b h 5 + . . . . . . . . . . . @ w T Q E ( ] } } } } ] ( E Q T w @ . . . . . . . . . . . . . $ p V H P P G S M N N ",
"m V H I J Y :.*.b 7 + . . . . . . . . . . @ e T W ~ W ^ ..+.+.+.+...] ~ ~ W T e @ . . . . . . . . . . . . $ 0 x v c c S =.3.2.2.",
"n S I %.%.;.6.3.P d $ . . . . . . . . . @ w T Q ~ ^ ' ..X.+.+.+.+.X.| ' ^ ~ Q u w @ . . . . . . . . . . . # 0 x c c x S <.8.0.0.",
"j m I %.%.%.-.<.2.H , . . . . . . . . - e T R E ~ '  .X.} } } } [ | X. .[ ~ E R u e @ . . . . . . . . . . * a C H J J U =.3.7.0.",
"d c F #.$.$.#.<.9.=.2 . . . . . . . . ; y ) E ( ] | X..._ ~ ~ ~ ~ ] ..X.| _ ( E ) y ; . . . . . . . . . . * g H #.$.%.$.$.;.7.0.",
"f j V J #.%.$.,.9.=.2 . . . . . . . . ; y E / ] ..X.| ] ( E Q Q E ( _ | X...] / E y ; . . . . . . . . . . % g H #.&.%.$.$.,.7.0.",
"d j n Z H K U %.<.J , . . . . . . . . ; y E ~ [ +.+.[ ~ E R y y R E ~ [ +.+.} ~ E y ; . . . . . . . . . . % p Z K Y @.I J Y ;.3.",
"f j M B n b Z D S f $ . . . . . . . . - y Q ~ } +.+.[ ~ E y : : y Q ~ [ +.+.} ~ Q y - . . . . . . . . . . # 0 v C F H Z b v m M ",
"d h v v h f z b j 7 + . . . . . . . . - y E ~ } +.+.} ~ E y : : y Q ~ [ +.+.} ~ Q y - . . . . . . . . . . $ r b b n n m M M M M ",
"d h h h d d h h f 7 # . . . . . . . . - y Q ~ } +.+.[ ~ E R y y R Q ~ [ +.+.} ~ Q y - . . . . . . . . . . * z D b h h M =.2.2.1.",
"v c c b M A M m x 7 + . . . . . . . . ; y Q / ] ..X.| ` ( E Q Q Q ( ] } X...] ( E y ; . . . . . . . . . . > C Y V c c S 1.8.0.0.",
"L J J Y ;.3.3.=.M 3 + . . . . . . . . ; y ) E ( _ | X..._ ~ ~ ~ W ` ..X.| ` ( Q ) y ; . . . . . . . . . . > C $.U J P U =.3.9.0.",
"Y #.#.;.6.7.8.3.P g % . . . . . . . . @ e u R Q ~ [  .X.| [ [ } } | X.X.' ~ Q R u e @ . . . . . . . . . . > n @.o.o.%.#.I U ;.2.",
"D J @.&.;.,.,.1.4.J < . . . . . . . . . @ w u Q ~ ^ [ } X.+.+.+.+.X.} ' ^ ~ Q u w @ . . . . . . . . . . . & k H F J #.U M v m M ",
"C Z L Y $.@.I Y <.J , . . . . . . . . . . @ e T W ~ ~ _ ..+.+.+.+. .] ~ ~ W T e @ . . . . . . . . . . . . & p M n V G S x h b N ",
"C C D J o.I V b M g % . . . . . . . . . . . @ w T ( E ( ` } } } [ ` ! E ( T w @ . . . . . . . . . . . . . $ 0 j j j x j f b *.3.",
"B B B D J D j d t 7 + . . . . . . . . . . . . @ e u R ) / ~ ~ ~ / W ) ) T e @ . . . . . . . . . . . . . . $ r v v v M b h b *.4.",
"j l B V b j f d t 7 + . . . . . . . . . . . . . @ w u ) E E Q Q Q Q ) u w @ . . . . . . . . . . . . . . . * v J J Y <.*.b h b A ",
"d h b v h h m A A h % . . . . . . . . . . . . . . @ e y y y y y y y y e @ . . . . . . . . . . . . . . . . = C %.&.,.4.3.P v h t ",
"d f h h s b *.4.4.H , . . . . . . . . . . . . . . . - ; ; ; - - ; ; ; @ . . . . . . . . . . . . . . . . . > C %.%.%.;.<.2.O.b t ",
"d h c v x D <.9.q.=.< . . . . . . . . . . . . . . . . . . . . . . . . . . . . . . . . . . . . . . . . . . * B $.$.$.$.-.6.1.P N ",
"d x D J P I =.3.0.%.< . . . . . . . . . . . . . . . . . . . . . . . . . . . . . . . . . . . . . . . . . . * k J #.$.#.=.;.<.2.2.",
"d v P =.=.%.$.,.6.Y < . . . . . . . . . . . . . . . . . . . . . . . . . . . . . . . . . . . . . . . . . . $ p C L #.%.#.P Y :.2.",
"d v I &.&.$.%.=.,.D , . . . . . . . . . . . . . . . . . . . . . . . . . . . . . . . . . . . . . . . . . . # 0 v C J #.U M v b N ",
"d x S P J J J J K z * . . . . . . . . . . . . . . . . . . . . . . . . . . . . . . . . . . . . . . . . . . + 8 h v V G G A M M M ",
"d h x c c c v v v r $ . . . . . . . . . . . . . . . . . . . . . . . . . . . . . . . . . . . . . . . . . . # 8 h j j j S =.2.1.1.",
"v v v c c b M b j 8 + . . . . . . . . . . . . . . . . . . . . . . . . . . . . . . . . . . . . . . . . . . $ 0 x c c c S 1.8.0.q.",
"J I P J J O.<.*.m 7 + . . . . . . . . . . . . . . . . . . . . . . . . . . . . . . . . . . . . . . . . . . $ a V J I J U =.3.9.0.",
"U U Y o.#.,.6.<.N 7 + . . . . . . . . . . . . . . . . . . . . . . . . . . . . . . . . . . . . . . . . . . $ p D P #.#.$.#.=.,.1.",
"D D D J U &.,.O.b 8 + . . . . . . . . . . . . . . . . . . . . . . . . . . . . . . . . . . . . . . . . . . # 0 v D H O.%.$.U S N ",
"C V V D Y $.%.P v 8 + . . . . . . . . . . . . . . . . . . . . . . . . . . . . . . . . . . . . . . . . . . # 8 j M D U $.%.J c t "
};
