/* XPM */
static char *image_part_0051725991613[] = {
/* columns rows colors chars-per-pixel */
"64 64 132 2 ",
"   c None",
".  c #000000",
"X  c #0D0C0B",
"o  c #110E0D",
"O  c #04180F",
"+  c #14110F",
"@  c #041710",
"#  c #041910",
"$  c #151211",
"%  c #191616",
"&  c #1B1817",
"*  c #191718",
"=  c #1C1A1A",
"-  c #221E1D",
";  c #062317",
":  c #062418",
">  c #0B3E29",
",  c #242222",
"<  c #282525",
"1  c #2D2B2B",
"2  c #312925",
"3  c #312E2F",
"4  c #3E342E",
"5  c #363130",
"6  c #3D3430",
"7  c #3E3A3A",
"8  c #413731",
"9  c #433933",
"0  c #483D37",
"q  c #453D39",
"w  c #483E3A",
"e  c #0C4129",
"r  c #0F5436",
"t  c #4C423E",
"y  c #53463E",
"u  c #136F48",
"i  c #147149",
"p  c #15784F",
"a  c #1A7C4A",
"s  c #167C50",
"d  c #4E4745",
"f  c #4E4847",
"g  c #4F4B4B",
"h  c #544740",
"j  c #564942",
"k  c #594C45",
"l  c #534D4C",
"z  c #5B4F49",
"x  c #5E524C",
"c  c #5B5453",
"v  c #5E5856",
"b  c #5F5958",
"n  c #60544E",
"m  c #625651",
"M  c #655955",
"N  c #695C56",
"B  c #655D5B",
"V  c #6A5E5A",
"C  c #6D625D",
"Z  c #70645E",
"A  c #666060",
"S  c #6D6564",
"D  c #6D6768",
"F  c #6E6868",
"G  c #726662",
"H  c #736966",
"J  c #746C6B",
"K  c #796F6D",
"L  c #7A716E",
"P  c #777070",
"I  c #7D7574",
"U  c #7F7877",
"Y  c #7F7878",
"T  c #817672",
"R  c #817876",
"E  c #847C7C",
"W  c #887F7D",
"Q  c #1B804C",
"!  c #198E5C",
"~  c #1F9A5C",
"^  c #28974D",
"/  c #299B4F",
"(  c #259F54",
")  c #209C5B",
"_  c #2B9F58",
"`  c #2FA647",
"'  c #2DA54D",
"]  c #30A747",
"[  c #3BAC4A",
"{  c #28A252",
"}  c #27A258",
"|  c #2CA058",
" . c #1D9B62",
".. c #43AF57",
"X. c #43AF58",
"o. c #47B353",
"O. c #49B353",
"+. c #45B058",
"@. c #4FB658",
"#. c #50B758",
"$. c #51B858",
"%. c #5FBE62",
"&. c #74CA6F",
"*. c #72C870",
"=. c #7BCD74",
"-. c #87807F",
";. c #89807F",
":. c #88D47C",
">. c #867F80",
",. c #878080",
"<. c #8B8484",
"1. c #8E8788",
"2. c #8F8888",
"3. c #918683",
"4. c #938886",
"5. c #938C8C",
"6. c #988E8D",
"7. c #9B908F",
"8. c #978F90",
"9. c #979090",
"0. c #9B9392",
"q. c #A19795",
"w. c #A39997",
"e. c #A59B9A",
"r. c #A89E9D",
"t. c #A89FA0",
"y. c #ACA3A3",
"u. c #B0A7A7",
"i. c #B3AAAA",
"p. c #B8AFAF",
"a. c #BDB3B3",
"s. c #C0B6B6",
/* pixels */
"                                                            s.a.p.a.a.a.                                                        ",
"                                                            r.u.u.u.y.u.                                                        ",
"                                        <.<.<.0.i.w.Z h y V <.8.6.6.8.w.i.w.Z j j j                                             ",
"                                        <.<.,.9.u.w.Z y h m I <.<.>.,.9.i.w.Z k x N                                             ",
"                            a.w.Z n I <.<.<.<.9.i.w.Z y y m R <.<.<.<.9.i.w.Z x H E W 9.u.w.Z j                                 ",
"                            y.q.I G K R E ,.,.5.r.q.T M z M R <.<.<.<.4.0.3.N m I 1.<.9.i.w.Z y                                 ",
"                    j M I 2.9.0.q.3.H N F I >.1.6.9.w.3.N M T <.<.<.<.W J N k M I <.<.6.i.w.Z j y m T <.                        ",
"                    j m P >.<.6.y.7.V k v S I >.,.9.p.e.Z n L W >.>.;.L n j n C Y 1.6.0.q.3.N j n S E <.                        ",
"                j h y n G I W 2.8.W M j k M D I ,.9.p.e.G x S P P P P S c x H E >.5.y.w.T M z n H E ,.6.y.a.                    ",
"                G N z z M S I ,.<.E J N z z M H E ,.<.I k q f l l l l l z C E 4.8.0.w.4.G n n Z E <.,.7.u.i.                    ",
"            <.4.0.3.N j k v S I W 2.0.3.V j z N H A 7 , % $ % * * % * 1 l K >.9.y.e.I G L I I E -.,.,.9.i.r.H y                 ",
"            >.6.y.q.J M V C C F W 9.u.9.m 8 8 0 f 7 $ . . . . . . . . $ 7 c A P ,.R m m I ,.,.1.6.9.7.0.q.4.G N                 ",
"        j V R 2.9.4.E ,.6.3.C V U 5.0.I 5 o + % * $ . . . . . . . . . . % = - , 1 5 t m H I >.6.y.i.i.0.L G L ,.t.a.            ",
"        j m L W >.>.,.0.p.q.c t v D S g % . . . . . . . . . . . . . . . . . . . . X 2 0 d A <.0.w.w.e.4.C V R 6.r.i.            ",
"        j x D P J P >.0.p.6.7 + = , , % X . . . . . . . . . . . . . . . . . . . . . o $ $ 7 2.e.R C Z H K E ,.<.6.0.i.s.        ",
"        j z M B B D I 4.0.I , . . . . . . . . . . . . . . . . . . . . . . . . . . . . . . , D Y k 9 h N E 1.<.<.<.5.0.e.        ",
"    k j k k z z k m H K H k & . . . . . . . . . . . . . . . . . . . . . . . . . . . . . . X , < % , l H W <.<.<.1.W H Z         ",
"    k k j k c N C C C c t < o . . . . . . . . . . . . . . . . . . . . . . . . . . . . . . . . . . * l P ,.<.1.,.E H n y         ",
"    k k j n H ;.0.4.C 0 - X . . . . . . . . . . . . . . . . . . . . . . . . . . . . . . . . . . . * l I ,.<.<.E S n k y         ",
"    k k z V R 9.y.e.T l % . . . . . . . . . . . . . . . . . . . . . . . . . . . . . . . . . . . . $ 7 B P W R J x j n V         ",
"    k z M F E 2.9.0.e.I < . . . . . . . . . . . . . . . . . . . . . . . . . . . . . . . . . . . . . $ 1 B J V n k n J <.y.a.    ",
"    h c V P Y >.,.9.y.,.1 . . . . . . . . . . . . . . . . . . . . . . . . . . . . . . . . . . . . . . % f B M m M C R 9.u.a.    ",
"    h z A J J I W 2.0.P , . . . . . . . . . . . . . . . . . . . . . . . . . . . . . . . . . . . . . . $ q M K I I R ,.9.i.a.    ",
"    N M N B B S P E Y M = . . . . . . . . . . . . . . . . . . . . . . . . . . . . . . . . . . . . . . % q C E <.4.<.<.4.0.q.    ",
"1.,.E J M z z x M M N t % . . . . . . . . . . . . . . . . . . . . . . . . . . . . . . . . . . . . . . * g J E 1.2.<.1.E H C     ",
"E ,.<.E Z n k j j y 0 2 o . . . . . . . . . . . . . . . . . . . . . . . . . . . . . . . . . . . . . . % 7 b I E E I T L Z H     ",
"P I W <.E H n h j 9 - o . . . . . . . . . . . . . . . . . . . . . . . . . . . . . . . . . . . . . . . . $ 3 B H N n m H 3.r.i.a.",
"B S I >.<.W H G G k % . . . . . . . . . . . . . # : : : ; : ; ; ; ; ; : : # . . . . . . . . . . . . . . . % f B N c n H 0.i.p.a.",
"z M S I >.4.9.e.e.I < . . . . . . . . . . . . # r p i i i i u u i i i i p r # . . . . . . . . . . . . . . $ q N K I I W 5.w.i.a.",
"k z M D I 2.t.p.a.4.1 . . . . . . . . . . . # e s  .) ) ) ) ) ~ ) ) ) )  .s e O . . . . . . . . . . . . . $ q V E 2.<.<.<.4.0.w.",
"j k z M D Y 1.t.a.4.1 . . . . . . . . . . # r s !  .{ ' ' ' ' ' ' ' ' { ~ ! s r # . . . . . . . . . . . . * f H E <.<.<.<.E J Z ",
"k j h z M A K W 0.I < . . . . . . . . . # e Q } ) _ X.$.$.$.$.$.$.$.$.+.| ~  .s e # . . . . . . . . . . . * l P ,.<.4.,.R H x y ",
"j j j j k x n N C k & . . . . . . . . @ r Q / ' ' ..*.:.:.:.:.:.:.:.:.*.../ ~ ! s r # . . . . . . . . . . * l P ,.2.4.E C x j y ",
"n n m M M N C N x 6 + . . . . . . . # e Q | ' [ ..%.=.:.:.:.:.:.:.:.:.=.%...| ~  .s e @ . . . . . . . . . % f H P I T L G C C Z ",
"V S P I I W 9.3.N 4 + . . . . . . # r Q / ' ] o.&.=.%.@.@.@.$.$.$.@.@.%.=.&.+.( ~ ! s r # . . . . . . . . $ q x M M n H 4.e.w.w.",
"B H W 1.<.6.y.e.R k % . . . . . . : p } ' [ +.%.=.&.o.` ' ' ' ' ' ' ` o.&.:.$...| )  .i : . . . . . . . . $ t m n m n H 0.i.a.a.",
"x V E <.<.4.8.0.w.P < . . . . . . : i } ' O.*.=.%.o.[ ` ( ) ) ) ) ( ' [ o.%.=.&...{ ~ i : . . . . . . . . * f F L I I E 5.w.i.a.",
"j m K >.<.<.<.9.p.2.3 . . . . . . : i  .' $.:.:.@.] ` ^ a u u u u a ^ ' ` @.:.:.$.' ) i ; . . . . . . . . * l P -.1.1.<.,.7.i.a.",
"k x S I ,.<.<.0.p.4.1 . . . . . . : i ~ ' $.:.:.@.' _ a > ; ; ; ; > a ( ' @.:.:.$.' ) i ; . . . . . . . . * l P ,.1.<.<.<.7.u.a.",
"k x B F P Y E <.0.I < . . . . . . : i ~ ' @.:.:.$.' ~ u ; . . . . ; u ~ ' $.:.:.$.' ) i ; . . . . . . . . & f H U W E E I E 6.w.",
"j x A A N N F K H k % . . . . . . : u ) ' @.:.:.$.' ) u # . . . . ; u ) ' $.:.:.@.' ~ u ; . . . . . . . . $ q M F K P F N M V C ",
"j z N M z z M M x 8 + . . . . . . ; i ) ' $.:.:.$.{ ) u : . . . . ; u ) ' @.:.:.@.' ) u ; . . . . . . . . % t N N B B C C C C C ",
"j k z z k h k z k 9 $ . . . . . . ; i ) ' @.:.:.$.' ) u ; . . . . # u ) ' @.:.:.@.' ) u : . . . . . . . . = b K B x k C 3.w.q.q.",
"M M m M V G S V n 8 + . . . . . . ; i ) ' @.:.:.$.' ( a e ; ; ; ; > p ) ' $.:.:.$.' ) i : . . . . . . . . , D >.S n n H q.p.a.a.",
"I R I W 6.e.e.3.C 4 + . . . . . . : i ) ' $.:.:.$.` ' ^ a u u u i p ! ~ ^ @.:.:.$.' ~ i : . . . . . . . . , D <.E I I E 4.e.p.a.",
"W ,.,.8.y.i.i.e.R k % . . . . . . : i ) { +.&.=.%.O.[ ` ( ) ) ~ ) ) ~ _ o.%.=.&.+.{ } i : . . . . . . . . - B ,.;.;.<.<.R E 6.q.",
"K P >.2.6.9.8.0.r.I < . . . . . . : i  .~ | ..%.=.*.o.` ' ' ' ' ' ' ' ..*.=.$...| ~  .i : . . . . . . . . = c P P I ,.E Z M V C ",
"D J I >.<.W R <.0.U < . . . . . . # r s ! ~ / ..*.=.%.@.@.$.@.@.@.@.@.%.=.&.@.' ) ! p r # . . . . . . . . * d C N S L H n z M Z ",
"D F J I -.E C N Z k & . . . . . . X # e s  .~ | +.%.=.:.:.:.:.:.:.:.:.=.%.O.[ ' ) s e # . . . . . . . . . $ q x x x n n k N 3.e.",
"B A S J I H x j j 6 + . . . . . . . . O r s ! ~ ' o.&.:.:.:.:.:.:.:.:.&.o.] ' / Q r # . . . . . . . . . . % d M M M C M k V 3.r.",
"z M A S V n k j j 6 + . . . . . . . . . O e s ) ' [ o.$.$.$.@.$.$.$.$.@.[ ' } Q e # . . . . . . . . . . . = M R T ;.7.3.N z N G ",
"k l M M k x N G G k & . . . . . . . . . . @ r Q / ' ' ' ' ' ' ' ' ' ' ' ' / Q r # . . . . . . . . . . . . - D 2.<.9.y.w.T M z y ",
"j k z z j M 3.e.r.P < . . . . . . . . . . . # e Q } ) ) ) ) ) ) ~ ~ ~ } ) Q e # . . . . . . . . . . . . . , D <.<.1.6.0.w.;.N y ",
"k z n m m J 0.p.s.4.1 . . . . . . . . . . . . # r p i u i i u u i i i i p r # . . . . . . . . . . . . . . = A <.<.<.<.6.y.w.T Z ",
"j n J R T E 5.e.a.<.1 . . . . . . . . . . . . . @ : : : : : : : ; : : : : # X . . . . . . . . . . . . . . = c I ,.<.<.<.6.7.w.w.",
"h M R <.4.<.<.6.y.,.1 . . . . . . . . . . . . . . . . . . . . . . . . . . . . . . . . . . . . . . . . . . % f D Y ,.<.W R W 7.w.",
"j M R 1.1.1.<.4.9.J < . . . . . . . . . . . . . . . . . . . . . . . . . . . . . . . . . . . . . . . . . . $ q M H I ,.E C m V Z ",
"j n H R I I I T Y b = . . . . . . . . . . . . . . . . . . . . . . . . . . . . . . . . . . . . . . . . . . $ 9 x M D L L G C C C ",
"j k x m m M M m M t % . . . . . . . . . . . . . . . . . . . . . . . . . . . . . . . . . . . . . . . . . . $ 9 k z x x H 4.w.q.q.",
"M M M m m N C N n 8 + . . . . . . . . . . . . . . . . . . . . . . . . . . . . . . . . . . . . . . . . . . $ q m M m m H q.i.a.s.",
"I U I I I W 9.3.V 8 + . . . . . . . . . . . . . . . . . . . . . . . . . . . . . . . . . . . . . . . . . . % f F P R I E 3.e.p.a.",
"-.W E -.<.8.y.0.Z 8 + . . . . . . . . . . . . . . . . . . . . . . . . . . . . . . . . . . . . . . . . . . * f H E >.<.<.,.4.0.q.",
"J J J I W 2.6.;.N 9 + . . . . . . . . . . . . . . . . . . . . . . . . . . . . . . . . . . . . . . . . . . $ q N G I ,.<.<.E H Z ",
"D D D J W <.<.R M 9 + . . . . . . . . . . . . . . . . . . . . . . . . . . . . . . . . . . . . . . . . . . $ 9 x B J W <.<.I m y "
};
