/* XPM */
static char *image_part_0061725991613[] = {
/* columns rows colors chars-per-pixel */
"64 64 128 2 ",
"   c None",
".  c #000000",
"X  c #0D0C0B",
"o  c #110E0D",
"O  c #04180F",
"+  c #14110F",
"@  c #041910",
"#  c #151211",
"$  c #191616",
"%  c #1B1817",
"&  c #191718",
"*  c #1C1A1A",
"=  c #221E1D",
"-  c #062217",
";  c #062418",
":  c #242222",
">  c #282525",
",  c #2D2B2B",
"<  c #312925",
"1  c #312E2F",
"2  c #3E342E",
"3  c #363130",
"4  c #3D3430",
"5  c #3E3A3A",
"6  c #413731",
"7  c #433933",
"8  c #483D37",
"9  c #453D39",
"0  c #483E3A",
"q  c #0C4029",
"w  c #0F5436",
"e  c #4C423E",
"r  c #53463E",
"t  c #136F49",
"y  c #14714A",
"u  c #1A7E4B",
"i  c #167C50",
"p  c #4E4745",
"a  c #4E4847",
"s  c #4F4B4B",
"d  c #544740",
"f  c #564942",
"g  c #594C45",
"h  c #534D4C",
"j  c #5B4F49",
"k  c #5E524C",
"l  c #5B5453",
"z  c #5E5856",
"x  c #5F5958",
"c  c #60544E",
"v  c #625651",
"b  c #655955",
"n  c #695C56",
"m  c #655D5B",
"M  c #6A5E5A",
"N  c #6D625D",
"B  c #70645E",
"V  c #666060",
"C  c #6D6564",
"Z  c #6D6768",
"A  c #6E6868",
"S  c #726662",
"D  c #736966",
"F  c #746C6B",
"G  c #796F6D",
"H  c #7A716E",
"J  c #777070",
"K  c #7D7574",
"L  c #7F7877",
"P  c #7F7878",
"I  c #817672",
"U  c #817876",
"Y  c #847C7C",
"T  c #887F7D",
"R  c #198E5C",
"E  c #1E9A5D",
"W  c #27984C",
"Q  c #28994E",
"!  c #259F54",
"~  c #209D5B",
"^  c #2B9F58",
"/  c #2FA647",
"(  c #2DA54D",
")  c #30A747",
"_  c #3AAC4A",
"`  c #26A151",
"'  c #27A258",
"]  c #2CA35A",
"[  c #1C9B62",
"{  c #44AF57",
"}  c #48B353",
"|  c #44B159",
" . c #4FB658",
".. c #50B758",
"X. c #52B858",
"o. c #5FBF62",
"O. c #60BF62",
"+. c #74CA6F",
"@. c #73C970",
"#. c #7CCE74",
"$. c #87807F",
"%. c #89807F",
"&. c #88D47C",
"*. c #867F80",
"=. c #878080",
"-. c #8B8484",
";. c #8E8788",
":. c #8F8888",
">. c #918683",
",. c #938886",
"<. c #938C8C",
"1. c #988E8D",
"2. c #9B908F",
"3. c #978F90",
"4. c #979090",
"5. c #9B9392",
"6. c #A19795",
"7. c #A39997",
"8. c #A59B9A",
"9. c #A89E9D",
"0. c #A89FA0",
"q. c #ACA3A3",
"w. c #B0A7A7",
"e. c #B3AAAA",
"r. c #B8AFAF",
"t. c #BDB3B3",
"y. c #C0B6B6",
"u. c #C4BABA",
/* pixels */
"                        . . . . . .                         y.r.t.r.t.t.                                                        ",
"                        . . . . . .                         9.w.w.w.q.w.                                                        ",
"                                        -.=.-.4.w.7.B f r M -.1.1.3.3.8.e.7.B f f f                                             ",
"                                        -.-.-.4.e.7.B r f v K -.-.=.=.4.e.7.B g c n                                             ",
"                            u.8.B c L -.;.-.-.4.e.7.B r r b U -.-.=.-.4.e.7.B c D U *.4.w.7.B f                                 ",
"                            q.6.I S H U P Y -.<.9.6.I b j v U -.-.-.-.,.5.>.n c L -.-.4.e.7.B r                                 ",
"                    f b L :.1.5.5.,.S m Z K T ;.<.5.6.>.n b I -.-.-.-.T F n j v U -.=.1.e.8.B f r v I ;.                        ",
"                    f v J =.=.3.q.2.N g b C L *.=.4.r.8.B c H T =.=.%.H c f c N U ;.3.5.6.>.n f c C U ,.                        ",
"                d f r c S K T :.1.T b d j v C K =.4.r.9.S k C J J J J C k l D U =.3.q.6.I b j c D Y =.1.q.t.                    ",
"                S n j j b C L =.-.Y F n k j b D P =.-.J f 9 a h h h h h k M U <.4.5.8.,.S c c B U -.=.1.w.e.                    ",
"            -.<.6.>.n f g z C K T <.5.,.M j j b F m 5 > % # $ & & & & , h J *.5.q.7.I S H L L U =.-.-.2.e.9.D r                 ",
"            *.1.q.5.F b M N M A T 4.q.4.k 6 6 9 h 5 # . . . . . . . . # 5 l V F =.U v v J =.-.:.1.4.4.4.7.>.S M                 ",
"        f n U :.3.<.Y =.1.>.N M P <.5.K 3 o o $ $ # . . . . . . . . . . $ * = : , 3 r c C P =.1.q.e.e.6.H S H =.q.t.            ",
"        f v H T Y Y -.5.r.6.v 0 z C Z s & . . . . . . . . . . . . . . . . . . . . X < 9 a m =.5.5.9.8.,.N N U 1.9.e.            ",
"        f l C J F J =.5.e.1.5 # * : : $ X . . . . . . . . . . . . . . . . . . . . . o # $ 5 <.8.U N N S H U =.:.,.5.e.t.        ",
"        f j b m m Z K ,.5.L : . . . . . . . . . . . . . . . . . . . . . . . . . . . . . . = Z L g 7 d M P ;.;.-.-.<.5.8.        ",
"    g g f j j j j v C F D j $ . . . . . . . . . . . . . . . . . . . . . . . . . . . . . . X : > $ : d D Y -.-.-.;.T F B         ",
"    f g f j c b N N N l e < o . . . . . . . . . . . . . . . . . . . . . . . . . . . . . . . . . . & h J *.-.;.=.U D k r         ",
"    g f f c D %.4.,.C 9 = X . . . . . . . . . . . . . . . . . . . . . . . . . . . . . . . . . . . & l J *.;.-.Y C k f r         ",
"    g g k M U 4.q.8.I d $ . . . . . . . . . . . . . . . . . . . . . . . . . . . . . . . . . . . . # 5 m K T U D k j c N         ",
"    g j b D Y :.1.5.8.K > . . . . . . . . . . . . . . . . . . . . . . . . . . . . . . . . . . . . X # , m F M c f c F -.q.t.    ",
"    d k m F P =.=.4.q.-., . . . . . . . . . . . . . . . . . . . . . . . . . . . . . . . . . . . . . . $ a m b v b B U 4.w.t.    ",
"    d k V A F K =.<.5.J : . . . . . . . . . . . . . . . . . . . . . . . . . . . . . . . . . . . . . . # 9 b F U K U =.4.e.t.    ",
"    n b m m V C J U P b * . . . . . . . . . . . . . . . . . . . . . . . . . . . . . . . . . . . . . . # 9 N Y -.,.-.-.,.5.6.    ",
";.=.U F b j j k b b n e $ . . . . . . . . . . . . . . . . . . . . . . . . . . . . . . . . . . . . . . & s F *.;.:.;.:.Y D N     ",
"T *.-.T B c j d f r 8 < o . . . . . . . . . . . . . - ; ; - - - - ; ; @ . . . . . . . . . . . . . . . o 5 x K Y L L K H B S     ",
"F K *.=.Y D c r f 9 = o . . . . . . . . . . . . . O w y y y y y y y y w @ . . . . . . . . . . . . . . X # 1 x D M v c S ,.9.e.t.",
"m C L =.-.T D S B f $ . . . . . . . . . . . @ ; @ q R ' ' E ~ E ~ ~ ' u q ; ; @ . . . . . . . . . . . . . # p N b c v D 6.e.r.t.",
"k b A K *.,.5.8.8.K > . . . . . . . . . . @ w y y u W ( ( ( ( ( ( ( ( W u y y w @ . . . . . . . . . . . . # 9 b F K U Y ,.8.e.t.",
"f j b C K ;.0.r.t.,., . . . . . . . . . @ q i [ E ] | ..X. . . .X.X.X.| ] [ [ i q @ . . . . . . . . . . . # 9 M Y :.-.-.-.,.4.7.",
"f j j b A K ;.0.t.,., . . . . . . . . @ w i R E ` | +.&.&.&.&.&.&.&.&.@.{ ` E R i w @ . . . . . . . . . . & a D Y -.-.-.-.Y F B ",
"f f f j b C F *.5.K > . . . . . . . @ q i [ E ] | o.#.&.&.&.&.&.&.&.&.#.o.{ ] E [ i q @ . . . . . . . . . & h J T ,.:.=.U D k r ",
"f f f f j k c n N j % . . . . . . @ w i R E Q { +.#.O........... ... .O.#.+.{ ! E R i w O . . . . . . . . * h J =.;.,.U N k f r ",
"c c v b v n N n k 4 + . . . . . . ; y [ E ^ { O.#.+.} ) ( ( ( ( ( ( ) } +.#.O.{ ^ E [ t ; . . . . . . . . $ d A J L I H D N B B ",
"M C J K K T 5.>.n 2 + . . . . . . - t E ` { @.#.O.} _ ( ~ ~ ~ ~ E ! ( _ } O.#.+.{ ! ~ t - . . . . . . . . # 9 v v v v S ,.8.7.7.",
"m D T ;.-.1.q.8.U d & . . . . . O q u ] { O.#.@.} / / Q u t t t t u Q ( ) } +.#.O.| ] u q O . . . . . . . # 9 l v v c F 5.e.t.t.",
"k M U ;.:.:.1.5.8.K : . . . . @ w u W | +.#.O.} _ ( ^ u q ; ; ; @ q u Q ( _ } O.#.@.{ W R w @ . . . . . . $ a D J L L Y <.6.e.t.",
"f v J =.-.-.=.4.r.,., . . . . ; y ' ( X.&.&. .( ( Q u w @ . . . . O w R Q / /  .&.&. .( ! y ; . . . . . . * h J =.-.-.-.-.1.w.t.",
"f l C J =.-.-.4.r.,.1 . . . . ; y ' (  .&.&...( ! u q @ . . . . . . @ q u ! (  .&.&...( ~ t ; . . . . . . & h J =.-.-.-.-.2.e.t.",
"f k N D J L Y :.5.K > . . . . - y E (  .&.&...( ~ t - . . . . . . . . @ t ~ (  .&.&...( ~ t ; . . . . . . $ p D U T T U L Y 1.6.",
"f k m C M M D F S f % . . . . ; y E (  .&.&. .( ~ t @ . . . . . . . . ; t ~ (  .&.&. .( ~ t ; . . . . . . # 9 b D J J A n b M N ",
"f j b b j f b b k 6 # . . . . - y E (  .&.&.X.( ~ t ; . . . . . . . . ; t E (  .&.&. .( ~ t ; . . . . . . $ e M m m m M N N B M ",
"f g j j f f j h j 6 # . . . . - y E (  .&.&.X.( ~ t - . . . . . . . . ; t E (  .&.&. .( ~ y ; . . . . . . * x F b j j N >.7.6.6.",
"b b b b N B B M k 7 + . . . . ; y ' (  .&.&. .( ! u q @ . . . . . . @ q u ! (  .&.&.X.( ' y ; . . . . . . : Z T S v v D 6.r.t.t.",
"L L K T 2.8.7.>.n 2 + . . . . ; t ! ( X.&.&. .( ( Q u w @ . . . . @ w u Q / /  .&.&.X.( ~ y ; . . . . . . : C -.Y L K T ,.8.e.t.",
"T *.=.3.q.e.e.8.U g % . . . . @ w R W | @.#.o.} _ ( ] u q ; ; @ ; q u ] ( _ } o.#.+.| W R w @ . . . . . . = V *.T =.-.=.U T 1.6.",
"F K T :.1.4.4.6.9.L > . . . . . O q u ] | o.#.@.} / ( W u t t t t u Q ( / } @.#.X.| ] u q O . . . . . . . * l J J L =.Y S v M N ",
"C A P *.-.=.U T 5.L > . . . . . . @ y E ` | @.#.O.} _ ( ! ~ ~ ~ ~ ! ( _ } O.&.@. .` [ y @ . . . . . . . . & p M m C G D c j n S ",
"Z A D K T U C n B j % . . . . . . ; y E E Q { o.#.@.} ) / ( ( ( ( ( / } +.#.o.| Q E [ y - . . . . . . . . # 9 k j k c k g n >.8.",
"V V C F K D c r d 2 + . . . . . . - w R R E ! { @.#.o... .X..... . . .o.#.+.| Q E R R w @ . . . . . . . . $ p b b n N n j n ,.8.",
"j z V C M c g d f 6 # . . . . . . . @ q i [ E ^ { o.#.&.&.&.&.&.&.&.&.#.o.{ ] E [ i q @ . . . . . . . . . * x U K %.5.>.n j n S ",
"f j b b j j n S S f % . . . . . . . . @ w i R E ! { @.&.&.&.&.&.&.&.&.+.| ` ~ R i w @ . . . . . . . . . . : C :.-.2.9.8.I b j r ",
"g g j g f n >.9.9.J > . . . . . . . . . O q i [ E ] {  . . . . . .X.X.| ] [ [ i q O . . . . . . . . . . . : C :.-.;.1.5.7.%.n r ",
"g j c v v D 5.r.y.,., . . . . . . . . . . @ w y t u W ( ( ( ( ( ( ( ( W u y y w O . . . . . . . . . . . . * V =.-.-.-.1.q.7.I B ",
"d v F U U Y <.8.t.-., . . . . . . . . . . . @ ; @ q R ! ~ ~ ~ ~ E ! ~ R q ; ; @ . . . . . . . . . . . . . * l L =.-.-.-.<.6.6.7.",
"f b U -.;.-.-.1.q.=., . . . . . . . . . . . . . . @ w t y y y t t t t w @ . . . . . . . . . . . . . . . . $ p Z P =.-.%.I T 2.7.",
"f b U :.:.-.-.,.4.F > . . . . . . . . . . . . . . . @ ; ; ; - - - - ; @ . . . . . . . . . . . . . . . . . # 9 b Z L -.U B v n B ",
"f k D I L K L I U x * . . . . . . . . . . . . . . . . . . . . . . . . . . . . . . . . . . . . . . . . . . # 7 j b C H H S B B N ",
"f j c v v v b v b e $ . . . . . . . . . . . . . . . . . . . . . . . . . . . . . . . . . . . . . . . . . . # 7 j j k l S ,.7.6.6.",
"b b b v b b N n k 7 # . . . . . . . . . . . . . . . . . . . . . . . . . . . . . . . . . . . . . . . . . . # 9 v v v c F 6.e.t.t.",
"K L K K K T 4.>.M 6 + . . . . . . . . . . . . . . . . . . . . . . . . . . . . . . . . . . . . . . . . . . $ h C K U L Y ,.8.r.t.",
"T T Y T -.3.q.5.B 6 + . . . . . . . . . . . . . . . . . . . . . . . . . . . . . . . . . . . . . . . . . . $ p D L =.=.-.=.,.5.6.",
"J A F K T :.1.%.n 7 + . . . . . . . . . . . . . . . . . . . . . . . . . . . . . . . . . . . . . . . . . . # 8 b D J =.-.-.Y D B ",
"Z Z C F T -.-.U b 7 + . . . . . . . . . . . . . . . . . . . . . . . . . . . . . . . . . . . . . . . . . . # 7 l M F T -.-.K v r "
};
