/* XPM */
static char *image_part_0091725991613[] = {
/* columns rows colors chars-per-pixel */
"64 64 122 2 ",
"   c None",
".  c #000000",
"X  c #020803",
"o  c #0D0C0B",
"O  c #120D0D",
"+  c #071A0A",
"@  c #081D0C",
"#  c #14110F",
"$  c #151212",
"%  c #191616",
"&  c #1B1817",
"*  c #191718",
"=  c #1C1A1A",
"-  c #221E1D",
";  c #07240D",
":  c #0A250F",
">  c #0B2710",
",  c #0B2810",
"<  c #242222",
"1  c #282525",
"2  c #2D2A2A",
"3  c #312925",
"4  c #312E2F",
"5  c #3E342F",
"6  c #363130",
"7  c #3C3431",
"8  c #3E3A3A",
"9  c #403631",
"0  c #433933",
"q  c #483D37",
"w  c #453D39",
"e  c #483E3A",
"r  c #16491F",
"t  c #1C4B22",
"y  c #1A5D26",
"u  c #1C5F28",
"i  c #1E6029",
"p  c #257F34",
"a  c #4C423E",
"s  c #53463E",
"d  c #4E4745",
"f  c #4E4847",
"g  c #4F4B4B",
"h  c #544740",
"j  c #564942",
"k  c #594C45",
"l  c #534D4C",
"z  c #5B4F49",
"x  c #5E524C",
"c  c #5B5453",
"v  c #5E5856",
"b  c #5F5958",
"n  c #60544E",
"m  c #625651",
"M  c #655955",
"N  c #695C56",
"B  c #655D5B",
"V  c #6A5E5A",
"C  c #6D625D",
"Z  c #70645E",
"A  c #666060",
"S  c #6D6564",
"D  c #6D6768",
"F  c #6E6868",
"G  c #726662",
"H  c #736966",
"J  c #746C6B",
"K  c #796F6D",
"L  c #7A716E",
"P  c #777070",
"I  c #7D7574",
"U  c #7F7877",
"Y  c #7F7878",
"T  c #817672",
"R  c #817876",
"E  c #847C7C",
"W  c #887F7D",
"Q  c #268136",
"!  c #2B8D3B",
"~  c #3D9446",
"^  c #3F9748",
"/  c #2FA143",
"(  c #3CB24E",
")  c #409749",
"_  c #49B655",
"`  c #4AB956",
"'  c #51BC5B",
"]  c #5EC163",
"[  c #60C364",
"{  c #71C16B",
"}  c #75CC71",
"|  c #7BCF74",
" . c #7DD076",
".. c #87807F",
"X. c #89807F",
"o. c #88D67D",
"O. c #8BD87F",
"+. c #867F80",
"@. c #878080",
"#. c #8B8484",
"$. c #8E8788",
"%. c #8F8888",
"&. c #918683",
"*. c #938886",
"=. c #908789",
"-. c #938C8C",
";. c #988E8D",
":. c #9B908F",
">. c #978F90",
",. c #979090",
"<. c #9B9392",
"1. c #A19795",
"2. c #A39997",
"3. c #A59B9A",
"4. c #A89E9D",
"5. c #A89FA0",
"6. c #ACA3A3",
"7. c #B0A7A7",
"8. c #B3AAAA",
"9. c #B8AFAF",
"0. c #BDB3B3",
"q. c #C0B6B6",
/* pixels */
"                                                            q.9.0.0.0.0.                                                        ",
"                                                            4.7.6.7.6.7.                                                        ",
"                                        $.@.#.,.8.2.Z j s V #.:.;.;.>.2.8.2.Z j s j                                             ",
"                                        @.$.@.,.7.2.Z s s M I #.$.@.@.,.8.3.C k n B                                             ",
"                            0.2.Z n I $.#.#.#.,.8.2.C s s M I #.$.@.@.:.8.2.Z n H R @.,.7.2.Z j                                 ",
"                            6.1.L G L R E @.@.-.4.1.T N z m I $.#.#.#.-.<.&.N n I #.#.,.8.2.Z s                                 ",
"                    j M I %.,.<.1.*.G B D I +.$.;.<.1.&.N M T $.$.#.$.E J N z m Y $.@.;.8.3.Z j s m T #.                        ",
"                    j m P +.#.;.6.:.C k m D I W @.,.8.4.Z n L W W W X.L n j n C R $.;.1.2.X.N j n G R -.                        ",
"                j h s n G I W %.,.W M j k M D I +.<.8.4.G x S P P P P D z c H R W ;.6.1.T M z n H E @.;.6.0.                    ",
"                G N z z M S I @.@.E J N x z M H I @.$.I j w f l g l l l z S E -.>.<.1.-.G n n Z R #.@.;.7.8.                    ",
"            #.-.<.&.N j k c D I +.-.<.*.N k z M J A 8 < & $ % & & % % 2 l J +.<.6.3.T G L R I R @.#.#.:.8.4.H s                 ",
"            +.;.6.1.J M V C C F E <.6.;.m 9 9 e g 8 $ . . . . . . . . $ 8 c A P +.R m n P @.$.%.;.,.,.,.2.&.G V                 ",
"        j N R %.;.-.E ..:.*.C V Y -.<.I 6 O # $ % $ X . . . . . . . . X $ = - < 2 6 a n H I @.;.6.8.8.1.L Z K @.6.0.            ",
"        j m L W E +.@.<.8.2.c a v D D g & . . . . . . . . . . . . . . . . . . . . o 3 w g B @.<.<.4.3.*.G C R ;.4.8.            ",
"        j c S P J P W <.8.;.8 # = < < * X . . . . . . . . . . . . . . . . . . . . X O $ $ 8 -.3.R Z C G K R @.$.-.<.8.0.        ",
"        j x M B B D I $.1.I 1 . . . . . . . . . . . . . . . . . . . . . . . . . . . . . . < D I k 0 h B R #.$.#.#.-.<.3.        ",
"    j k k k x z z m D J H k % . . . . . . . . . . . . . . . . . . . . . . . . . . . . . . o < 1 % < l H E #.#.#.#.W J Z         ",
"    k k j k m M C C C c a 3 O . . . . . . . . . . . . . . . . . . . . . . . . . . . . . . . . . . % l P +.#.#.#.R J x s         ",
"    k j j n H X.,.*.S w - o X . . . . . . . . . . . . . . . . . . . . . . . . . . . . . . . . . . * l I +.#.$.E S x k h         ",
"    j k x V R ,.6.2.T j % . . . . . . . . . . . . . . . . . . . . . . . . . . . . . . . . . . . . $ 8 B I W T H x k m V         ",
"    j z M J E %.;.<.3.I 1 . . . . . . . . . . . . . . . . . . . . . . . . . . . . . . . . . . . . X $ 4 b J V c k n H #.6.0.    ",
"    j x B J Y +.@.,.6.#.2 . . . . . . . . . . . . X @ , , > , > , , , @ X . . . . . . . . . . . . . . % f B N m M C R ,.7.0.    ",
"    j z B J J I @.-.<.P < . . . . . . . . . . . . @ i Q Q p p p Q Q Q i @ . . . . . . . . . . . . . . $ w N J T I R W ,.8.0.    ",
"    N M B B B S P R Y M = . . . . . . . . X @ > > t ) ' ' ' ' ' ' ' ' ) t : > @ X . . . . . . . . . . $ w C R %.$.$.#.-.<.1.    ",
"$.#.R J M z x x m M N d % . . . . . . . . @ u Q p ~ { O.o.o.o.o.o.o.o.{ ~ p p y + . . . . . . . . . . * g J W #.$.$.%.E H C     ",
"E @.#.E C n k j j s q 3 O . . . . X @ > ; t ^ ' ' ] | o.o.o.o.o.o.o.o.| ] ' ' ) t > > @ X . . . . . . $ 8 B P E U I T L Z G     ",
"J I +.#.R H n j j q - O X . . . . @ i Q Q ~ { O.O.} ] ' ' ' ' ' ' ' ' ]  .O.O.{ ^ p Q i @ . . . . . . X $ 4 B J V m m G *.4.8.0.",
"A S I +.$.W H G Z j % . . . . X @ t ! ( ` ] | O.O.{ ~ p p p p p p p p ~ { O.O. .[ ` ( ! t @ X . . . . . . $ f B M n n H 1.8.9.0.",
"z M D I +.-.<.3.3.I 1 . . . . @ u ! ~ ` } | ] ' ' ) t : : , , , , : : t ^ ' ' ]  .} _ / ! i @ . . . . . . $ q M J I I E *.2.8.0.",
"j z M S I $.4.9.q.%.2 . . . . > Q ( _ [  .{ ~ Q Q i @ . . . . . . . . @ y Q Q ^ {  .] _ ( Q , . . . . . . $ w V E %.#.#.#.%.<.2.",
"j z z m S I $.5.0.-.2 . . . . : p ` }  .] ^ t ; : @ X . . . . . . . . X @ > : t ^ ]  .} ' p > . . . . . . * f H E &.$.#.#.E J Z ",
"k j j z M S J +.:.I 1 . . X @ t ~ [  .{ ^ i + X . . . . . . . . . . . . . . . + u ^ {  .] ~ t @ X . . . . & l L ..$.#.#.R H x s ",
"j j h k z z n N C k & . . @ u ) {  .] ~ t + X . . . . . . . . . . . . . . . . X + t ~ ]  .{ ^ i @ . . . . = l P @.$.*.E C x j s ",
"x m m M M N V N x 7 # . . > Q ' O.O.' Q : . . . . . . . . . . . . . . . . . . . . : p ' O.O.' Q > . . . . & f G P I T L G C Z Z ",
"V S L I T +.<.&.N 5 O . . > p ' O.O.' Q > . . . . . . . . . . . . . . . . . . . . , Q ' O.O.' p : . . . . $ w m M m n Z *.3.2.2.",
"B J R $.$.:.6.3.R j % X + t ~ ] | { ) u @ . . . . . . . . . . . . . . . . . . . . @ u ) { | ] ~ t @ X . . $ w c m m m J <.8.0.0.",
"z V R $.$.$.-.<.3.L < + y ~ { | ] ~ t + X . . . . . . . . . . . . . . . . . . . . X @ t ~ ] | { ) u @ . . & f S P I I E -.2.8.0.",
"k m J +.+.#.#.,.8.-.2 ; p ' o.o.' p : . . . . . . . . . . . . . . . . . . . . . . . . : p ' o.o.' Q , . . & l P @.#.$.#.@.:.8.0.",
"j x S I +.$.#.:.8.=.2 : p ' o.o.' p : . . . . . . . . . . . . . . . . . . . . . . . . : p ` o.o.' Q , . . & l P @.%.$.#.#.;.7.0.",
"j x B J L Y E $.1.L < ; p ' o.o.' p , . . . . . . . . . . . . . . . . . . . . . . . . : p ' o.o.' Q , . . % f J U W E E I W ;.1.",
"j x A S M V F J G j % > p ' o.o.' p , . . . . . . . . . . . . . . . . . . . . . . . . , p ' o.o.' p , . . $ w m D L J J M M V C ",
"k z N m z l M M z 9 O > p ' o.o.' p , . . . . . . . . . . . . . . . . . . . . . . . . , p ' o.o.' p , . . % a B B B B C C C C C ",
"j k z z k h z z k 9 O : p ' o.o.' p : . . . . . . . . . . . . . . . . . . . . . . . . , p ' o.o.' p , . . - b L N z k Z &.2.1.1.",
"M M m N V Z Z V n 9 O : p ' o.o.' p : . . . . . . . . . . . . . . . . . . . . . . . . : p ' o.o.' Q , . . < D W S n m H 1.9.0.0.",
"R I I W :.3.3.&.V 5 O : Q ' O.o.' p : . . . . . . . . . . . . . . . . . . . . . . . . : p ' o.O.' Q , X . < D #.E I T E -.3.8.q.",
"W +.@.>.5.8.8.3.R j % + y ^ { | ] ~ t @ X . . . . . . . . . . . . . . . . . . . . X @ t ~ ] | { ) u @ . . = A @...@.$.@.T E ;.1.",
"J I W $.;.,.<.1.3.I < X + t ~ ] | { ^ i @ . . . . . . . . . . . . . . . . . . . . @ u ^ { | ] ~ t @ X . . = c P L I @.E Z M V C ",
"D F Y +.#.+.R W 1.I 1 . . : p ' o.o.' Q > . . . . . . . . . . . . . . . . . . . . > Q ' o.O.' p : . . . . * d C B S K H n z N Z ",
"D D J I ..R C N C k & . . , Q ' o.o.' Q ; . . . . . . . . . . . . . . . . . . . . : p ' O.O.' p > . . . . $ w x x x n x k N &.4.",
"A A S J I H n j j 7 # . . @ i ^ { | ] ^ t + X . . . . . . . . . . . . . . . . X + r ~ ]  .{ ) u @ . . . . % a M M N C M z N &.4.",
"x v B S V n k j j 0 # . . X @ t ~ ]  .{ ^ i + . . . . . . . . . . . . . . . . + y ~ { o.[ ~ t @ X . . . . = b U I X.:.&.N z N Z ",
"j z M M k x N G G k & . . . . : Q ` } | [ ^ t ; > @ X . . . . . . . . X @ > : t ) [  .} ` p : . . . . . . < S $.%.>.6.2.T M z s ",
"k k z k j N $.3.4.P 1 . . . . > Q ( ` ]  .{ ~ Q Q u + . . . . . . . . @ i Q p ~ {  .[ _ ( Q > . . . . . . < S $.%.%.;.,.2.X.N s ",
"k k n M m J <.9.q.-.2 . . . . @ u ! ^ ` }  .] ' ' ^ t ; : , > > , : : t ) ' ' [  .} _ / ! i @ X . . . . . - A #.#.#.@.;.6.2.T Z ",
"k n J I T R -.3.9.*.2 . . . . X @ r ! ( ` ]  .O.O.{ ~ p p p p p p p p ~ { O.o.| [ ` ( ! r @ X . . . . . . & c I @.$.#.$.;.<.1.2.",
"h M T $.*.$.#.;.6...2 . . . . . . @ i Q Q ~ { O.O. .] ' ' ' ' ' ' ' ' ] | O.O.{ ~ Q Q i @ . . . . . . . . % f D I ..#.X.R W :.2.",
"j M R %.%.#.$.*.,.J 1 . . . . . . X @ > : t ) ' ' ] | o.o.o.o.o.o.o.o.| [ ' ' ) t : > @ X . . . . . . . . $ w M D I @.E C M V Z ",
"j n H T I I I I U b = . . . . . . . . . . @ u Q p ~ { O.o.o.o.o.o.o.o.{ ~ p Q u @ . . . . . . . . . . . . $ 0 x M S L L G C C C ",
"j k n m m m M M M a % . . . . . . . . . . X @ > : t ) ' ' ' ' ' ' ' ' ) t : : @ X . . . . . . . . . . . . $ 0 k x x m G *.1.1.1.",
"M M M m m N C N x 0 # . . . . . . . . . . . . . . @ u Q Q p p Q p p Q u @ . . . . . . . . . . . . . . . . $ w m m m m H 1.9.9.q.",
"T U I I I X.<.&.C 9 # . . . . . . . . . . . . . . X @ , , , , , , , , @ X . . . . . . . . . . . . . . . . % j S I I I E *.2.8.q.",
"..E ....@.,.6.<.Z 9 # . . . . . . . . . . . . . . . . . . . . . . . . . . . . . . . . . . . . . . . . . . % g F I W $.@.@.*.<.2.",
"P F J I W %.;.X.N 0 # . . . . . . . . . . . . . . . . . . . . . . . . . . . . . . . . . . . . . . . . . . $ w B H I X.$.#.E H Z ",
"D S S J E #.$.I M 0 # . . . . . . . . . . . . . . . . . . . . . . . . . . . . . . . . . . . . . . . . . . $ 0 x B J E #.$.I m s "
};
