/* XPM */
static char *item_xpm[] = {
"48 16 5 1",
"  c None",
". c #000000",
", c #c7cfdd",
"- c #92a1b9",
": c #657392",
/* pixels */
"@@@@@@@@@@@@@@@@@@@@@@@@@@@@@@@@@@@@@@@@@@@@@@@@",
"@@@@@@@@@@@@@@@@@@@@@@@@@@@@@@@@@@@@@@@@@@@@@@@@",
"@@@@@@@@@@@@@@@@@@@@@@@@@@@@@@@@@@@@@@@@@@@@@@@@",
"@@@@@...........................................",
"@@@@.,,,,,,,,,,,,,,,,,,,,,,,,,,,,,,,,,,,,,,,,,,.",
"@@@.,------------------------------------------.",
"@@.,--.......................................:-.",
"@.,--.@@@@@@@@@@@@@@@@@@@@@@@@@@@@@@@@@@@@@@.:-.",
".,--.@@@@@@@@@@@@@@@@@@@@@@@@@@@@@@@@@@@@@@.:--.",
".,-.@@@@@@@@@@@@@@@@@@@@@@@@@@@@@@@@@@@@@@.:--.@",
".,-.......................................:--.@@",
".,-:::::::::::::::::::::::::::::::::::::::--.@@@",
".,-----------------------------------------.@@@@",
"...........................................@@@@@",
"@@@@@@@@@@@@@@@@@@@@@@@@@@@@@@@@@@@@@@@@@@@@@@@@",
"@@@@@@@@@@@@@@@@@@@@@@@@@@@@@@@@@@@@@@@@@@@@@@@@",
"};