/* XPM */
static char *_48211e2ff5d40bbfa9e8e5d5f4d3a8dc5hCHi93okH1qET4[] = {
/* columns rows colors chars-per-pixel */
"48 48 5 1 ",
"  c None",
". c #991700",
"X c #CC1E00",
"o c #FF3B19",
"O c #FFBDB2",
/* pixels */
"                                                ",
"                                                ",
"                                                ",
"                                                ",
"                                                ",
"                                                ",
"                                                ",
"                                                ",
"                                                ",
"               .........                        ",
"               .........                        ",
"               .........                        ",
"            ...XXXXXXXXX                        ",
"            ...XXXXXXXXX                        ",
"            ...XXXXXXXXX                        ",
"            ...XXXoooooo                        ",
"            ...XXXoooooo                        ",
"            ...XXXoooooo                        ",
"            ...XXXoooooo                        ",
"            ...XXXoooooo                        ",
"            ...XXXoooooo                        ",
"            ...XXXoooooo                        ",
"            ...XXXoooooo                        ",
"            ...XXXoooooo                        ",
"               ...XXXOOO                        ",
"               ...XXXOOO                        ",
"               ...XXXOOO                        ",
"                  ...XXX                        ",
"                  ...XXX                        ",
"                  ...XXX                        ",
"                     ...                        ",
"                     ...                        ",
"                     ...                        ",
"                                                ",
"                                                ",
"                                                ",
"                                                ",
"                                                ",
"                                                ",
"                                                ",
"                                                ",
"                                                ",
"                                                ",
"                                                ",
"                                                ",
"                                                ",
"                                                ",
"                                                "
};
