/* XPM */
static char *_e596b8a9110474bf3d217bf14d74de0WYigNfjtljiP676z[] = {
/* columns rows colors chars-per-pixel */
"64 64 162 2 ",
"   c #262524",
".  c #292726",
"X  c #2A2A27",
"o  c #2D2C2A",
"O  c #302F2D",
"+  c #32302F",
"@  c #353433",
"#  c #393735",
"$  c #373836",
"%  c #3B3936",
"&  c #373738",
"*  c #383738",
"=  c #37393A",
"-  c #3D3C3B",
";  c #413F3C",
":  c #3F403F",
">  c #43413F",
",  c #3E3F41",
"<  c #423F40",
"1  c #3F4041",
"2  c #454443",
"3  c #494644",
"4  c #4B4846",
"5  c #444748",
"6  c #484748",
"7  c #474849",
"8  c #4D4B4A",
"9  c #514E4D",
"0  c #53514E",
"q  c #59524B",
"w  c #4D4E50",
"e  c #4E5052",
"r  c #545353",
"t  c #5A5654",
"y  c #575857",
"u  c #5C5956",
"i  c #555759",
"p  c #56585A",
"a  c #5D5C5B",
"s  c #615A56",
"d  c #615E5C",
"f  c #5F605E",
"g  c #64615E",
"h  c #6A645F",
"j  c #5D5E61",
"k  c #605F61",
"l  c #5F6162",
"z  c #646363",
"x  c #696664",
"c  c #676867",
"v  c #6C6966",
"b  c #656669",
"n  c #686768",
"m  c #66696A",
"M  c #6C6B6B",
"N  c #716B66",
"B  c #726E6C",
"V  c #74716E",
"C  c #7A736E",
"Z  c #6D6E71",
"A  c #716F70",
"S  c #6E7173",
"D  c #6F7679",
"F  c #717172",
"G  c #757371",
"H  c #757373",
"J  c #757470",
"K  c #757473",
"L  c #777573",
"P  c #737475",
"I  c #737676",
"U  c #747574",
"Y  c #767575",
"T  c #767674",
"R  c #747476",
"E  c #757677",
"W  c #747373",
"Q  c #797471",
"!  c #797573",
"~  c #797673",
"^  c #797775",
"/  c #787777",
"(  c #7A7674",
")  c #7A7870",
"_  c #7C7973",
"`  c #797877",
"'  c #7B7976",
"]  c #7C7975",
"[  c #7D7976",
"{  c #7F7975",
"}  c #7C7975",
"|  c #737578",
" . c #757779",
".. c #757679",
"X. c #797778",
"o. c #797778",
"O. c #77797B",
"+. c #76797B",
"@. c #797979",
"#. c #7A7979",
"$. c #797A7B",
"%. c #7A7B7A",
"&. c #79797B",
"*. c #7C7978",
"=. c #7C7A79",
"-. c #7F7B79",
";. c #7D7A7A",
":. c #7E7C79",
">. c #7D7D7B",
",. c #797A7C",
"<. c #7B7B7C",
"1. c #7C7C7C",
"2. c #7F7D7C",
"3. c #7D7E7E",
"4. c #7C7B7A",
"5. c #807774",
"6. c #817A76",
"7. c #807B79",
"8. c #807D79",
"9. c #847F79",
"0. c #847F7A",
"q. c #807F7D",
"w. c #807E7E",
"e. c #817D7B",
"r. c #7F807E",
"t. c #80807E",
"y. c #83817F",
"u. c #83807E",
"i. c #89837E",
"p. c #767B80",
"a. c #7D7F80",
"s. c #7D7E80",
"d. c #817F80",
"f. c #7E8081",
"g. c #818080",
"h. c #868584",
"j. c #848383",
"k. c #8A8683",
"l. c #878886",
"z. c #8C8986",
"x. c #858689",
"c. c #888788",
"v. c #87888A",
"b. c #8C8B8B",
"n. c #928C86",
"m. c #928E8B",
"M. c #94918E",
"N. c #9A948D",
"B. c #8D8E90",
"V. c #918F91",
"C. c #8F9192",
"Z. c #949393",
"A. c #999694",
"S. c #9C9996",
"D. c #94979B",
"F. c #97999A",
"G. c #9B9A99",
"H. c #A29A94",
"J. c #A19E9B",
"K. c #9DA09F",
"L. c #A3A19D",
"P. c #A3A1A3",
/* pixels */
"> C G C B K 8.=.B 7.0.0.{ P @.M > v M B V M M G P C C C K W @.b # a u a g z z g g z z v z b b z 3 C M ! C :.{ :.G q.<.=.y.{ @.| ",
"> B K V ! :.) K :.:.{ y.q.@.@.Z > v M v M M C V W W M v ' M W m @ u d a j z z z x g b z b a z l 4 { V G G / G @.Y g.a.y.' ! @.O.",
"> B B C =.7.{ X.<.1.=.h.1.! Y m > v z m M Y V ' B 1.<.' V v W b @ t t a b z z z z b m z z a d p 3 K C B W 8.@.<.@.@.h.g./ / G | ",
"- v V K v 0 t a d a y a @.G S b > v v m l r r t t t t z B v M z @ r u d r 4 8 6 8 6 3 0 b a a p > M M M x t p p a z a M =.B Y W ",
"> v S v > 8 r 8 o - - @ a 1.P M ; x v z - - = & @ r u > t B M l % d d u 2 r a 8 # u a > 2 z z p 3 M V v 3 t a 9 @ 9 r > a =.Y @.",
"X 3 4 - t C M M @ 4 3 r - 8 8 6 o > 3 # # 6 6 3 3 B B j.3 ; 7 2   - - - d q.<.W 9 e.q.m.2 - - = X 2 3 - z b.v.1.> v B 8.2 3 8 8 ",
"a x x z G M M m + 3 3 4 t 2 2 3 2 3 3 > 6 3 8 3 > v B G j.v m B x x B x @.G / S 3 { ! j.M.m W @.G B C W h.g.k.| > z v B 6.z d b ",
"] X./ ' G Y Z M + 3 4 4 8 8 9 8 0 0 9 0 8 9 8 5 4 ! ! { 6.8.@.8.d.i.k.j.1.| <.Z 4 9.y.j.h.A.J.G.G.m.A.A.Z.b.A.j.2 x x x W G A G ",
"V W B V B G A P + 3 4 4 6 8 8 8 8 8 3 9 9 8 8 5 4 _ K 6.j.=.8.q.=./ d.y.=.| =.W 8 i.q.k.k.z.M.b.b.b.b.m.M.b.Z.j.2 v v m M M B m ",
"M K W W M V W W @ 3 3 4 8 8 8 8 9 r 8 r 8 8 8 6 4 ! =.Y @.8.q.q.j.j.g.=.1.1.1.| 8 j.y.j.n.m.b.z.k.z.m.b.7.z.m.j.2 N v b B V G W ",
"Z B G P M W W b @ 8 4 6 8 6 8 8 8 9 r 8 8 8 8 3 8 C M W Y @.=.j.y.q.y.:.Y g.1.P 0 y.k.k.z.z.Z.h.z.M.n.b.Z.b.b.j.2 v v M K ! G =.",
"Z B W M W S M m O 4 3 3 8 8 8 8 6 9 r r 8 8 8 7 4 C m ! { y.8.8.y.@.@.8.@.y.j.O.0 u.u.k.b.z.z.z.M.m.z.h.v.x.z.x.2 B M M B B ! G ",
"M B W W M M S M + 3 3 3 8 8 8 8 8 r w 8 8 8 8 8 3 C G 8.O.@.=.Q { 1.Y y.=.@.y.| 8 8.8.k.j.j.b.b.z.q.y.b.b.j.g.S 3 v v v v M W M ",
"M M W Y C B m z + 3 3 3 8 6 8 8 8 9 8 9 8 6 8 3 3 ! V ' @.y.1.y.7.g.g.f.g./ <.W 8 8.' y.z.k.C.z.k.z.b.v.j.8.h.<.> g v m v M Z V ",
"- 3 2 3 V W M m + 2 2 8 - + @ @ @ @ @ o 6 8 6 ; 3 C N ' a 3 8 4 2 8 6 8 =.' @.M 4 ' { i.z 6 9 4 3 8 9 r a.g.j.1.2 x g B t > 6 3 ",
"@ s d r 3 b b j . - - % - d z p 4 ! 0.g o > , , ; x x u 8 =.q.m + t d 0 5 W W b ; B W z > a a t 2 B ! g 6 Y O.P % u d 0 8 ] 1.A ",
"# g a { a - - 3 o + @ @ d m b a 4 { 6.H.d o @ @ @ 2 3 3 / h.g.| # s a C a 2 3 6 @ 2 > - g B m z 8 8._ A.z 2 6 8 @ > > 3 1.f.g.f.",
"# g g d C V x v v M W z m m M z 8 6.{ =.N.m.S.A.k.z.m.b.g.h.h.| # a d a Y V B C B B V B M M m a 8 { _ { m.b.b.m.Z.n.M.v.h.g.k.x.",
"# z z x g v m z z m B v m m M z 4 5.{ :.y.z.k.b.k.n.b.h.h.k.b.O.# g z z z x v M x M x d x v v z 9 { q.i.1.k.n.j.j.m.m.b.d.z.x.g.",
"% x z x x m M M M M V V m m m z 8 8.0.q.b.k.k.q.m.m.m.g.k.b.v.@.% z g x v v b m m v m M M M M z 0 =./ 8.k.v.j.v.q.b.b.6.c.b.b.g.",
"- d g x x v v x n M W B M m b l 8 / { y.b.j.b.q.z.b.6.k.b.m.x.| # z g x x x v M M x b m m M M b 0 y.q.z.j.k.m.b.k.k.Z.z.Z.b.b.x.",
"% d z b x N B M b V M v M m M z 8 8.j.j.y.n.c.k.j.Z.b.M.b.b.b.| % g d z z m v M x x m M x x v b 0 k.k.k.n.M.h.g.m.b.m.Z.x.b.b.C.",
"% z x v M M b B M m m v M M M z 9 k.q.k.M.j.q.z.b.z.Z.h.b.b.Z.,.# g d z z x z m b x x v z b b z 0 i.j.z.z.M.m.M.b.M.v.b.h.b.z.b.",
"- x x M M v v M B M M b m c v z 9 y.j.j.m.m.M.b.m.b.b.h.h.l.z.' - d g z k v c m v M M z x z z z 8 y.=.1.b.A.z.b.b.m.B.x.M.l.h.g.",
"@ s d x g a a z g z j v m b z j 9 { K y.m.:.:.y.j.g.<.Z.z.g.g.O.@ g h g g a g z g g z z z d m a 4 ) 8.@.@.1.y.d.k.q.| b.M.h.j.x.",
"# d g x 4 2 6 3 @ ; > % a b b d 4 6./ @.r > 3 3 - 8 8 3 y.x.v.P % g g x 4 > 2 - @ ; > @ a b z a 8 Y @.y.9 2 8 3 - 9 7 6 1.j.x.x.",
"o 6 8 3 t j.g.,.; u z a @ 8 r 6 $ a z 8 < d z p > h M x 3 m M a X 3 9 ; 8 V B b > g x g # 9 r 8 % g z r 3 x x z 9 _ 7.' 3 z n b ",
"2 0 r p 1.d.1.| - t r M g > 2 3 > 4 6 3 p j z a > g d ' B 8 0 t 1 8 8 8 M m m z - u u N z 2 3 6 2 6 8 4 b z z a 8 { B z.:.0 r a ",
"x.Z.A.b.j.j.<.<.- d u d z M M B V M n z z b j a ; x x m G { { 8.=.j.=.Z B B Z b - d z d N C C m K / G M m b v z 4 5./ ! k.z.k.Z.",
"1.h.k.z.b.b.g.p.- t a g d j g x v z a z z k b z ; x v B x m M B C ' M B V W Z b ; g x z v z v v v v x M M M M b 4 _ :.@.! G 1.z.",
"n.k.h.k.z.b.z.1.* r g d z b x z m M M v v v z z 3 N v x B M M K V M W G / M M m > x v M v x m B M M x M m x M m 9 _ 8.j.h.j.j.n.",
"b.z.b.g.j.g.v.g.- p g b z z b b M x M m b M m z > v M m M N Y B G M B Y V x M M ; g x x x x M M v m m M M b b b 8 { @.:.y.j.j.C.",
"k.k.h.h.k.h.c.=.- u g z x x b j m v M m b z m z 2 B M b M B M B Y B B W M N Y m - g x v x b m x v m M v m b m z 8 { 6.y.8.1.z.b.",
"i.z.z.z.k.h.a.p.- a g g x v v z b z x M v u d j : v B V V C C C m M B B / W W M - z z v v v v v b x b x b m x z 4 { 8.:.i.y.j.j.",
"k.b.b.k.k.b.h.,.; d a d g v m M v m v m z d n j > v v B W G { @.K / @.K B M M M - d g z M b V B m M M m z b z l 9 y.{ ' j.n.z.b.",
"j z z m g.g.g.P - u u g r 3 6 8 8 6 2 r b z d u ; z x B z r t t t r r a W m M b - u a g u 4 8 6 6 8 4 r b z z a 8 C C 7.K d g g ",
"o 4 9 - z h.a.Z - u a u - 3 6 2 @ 9 t - 7 z l r > z z g 2 r p 8 @ u d 3 w @.B m - u a t - r d r % u d 2 4 v b j 9 C ! M 6 p d p ",
"@ u u N 3 8 r 8 . % - @ 8 z k a ; d h y.- % 1 - X ; > # p G M a > C Q g.6 1 3 2   % % @ g @.X.S 8 5.0.b.3 = - - + 4 8 2 x c.1.g.",
"@ u t d x u u t r t t r M g a p % g x M 6.a g z x x z z M b M j ; M M m q.v N M v v v x @.W / M 4 6.! 8.n.m M { V C B G j.g.@.| ",
"@ u u s d b s g z b z d d z g p ; x v v B G :.P Y ! B C W m K b > V M B { j.y.y.y.<.q.:./ @.' S 8 0.=.X.j.z.h.h.b.x.m.z.h.x.a.,.",
"@ u t b d d a a g g a a a g z p > x x x ! B G V ! W G B W W S b ; ! ! _ { { { ' @.=.=.@.@.| | S 4 6.6.j.k.q.j.j.g.g.z.h.f.v.b.h.",
"@ u a a u d a z d a g z z d b a ; B m B C B G W B V B V S M W b 2 B B V ' ! =.=.f.=.8.| | @.,.Z 4 ! =.y.z.8.k.z.h.z.j.b.z.c.k.x.",
"# p a d a g z z z a d z z z z a ; v M V M B V W B W W B C C M j > C x x K :.8.{ y.q.@.f.| Y =.P 3 / 8.7.@.h.k.m.h.h.b.d.=.v.h.g.",
"@ u d a a d z b z p d z z d a a - b B G V B B B M ! V W W M K z > { B V { _ Q q.8.P @.q.| G @.Z 4 q.G q.W y.y.z.g.b.b.a.=.h.h.c.",
"@ u a a g g a z b z z z z l a p ; B M M B M C K Y / ' Y B m W b ; B V K Y G G Y Y Y P P P / <.M 3 ! { y.{ =.1.y.j.y.=.=.1.y.g.h.",
"@ a u a d z z z b x b z a a a p ; v v M B C G ! ! ! ' V M M W z ; B B G { 8.P @.1.8.@.:.W Z @.M 4 ! { G q.y.1.h.z.d.j.k.O.a.q.O.",
"@ a p a 4 - 2 - - ; - ; a a p t ; x z x 9 : 3 - ; 3 3 8 M m M a > N v G a 4 4 8 3 8 6 8 @.M S M 4 G / =.g 4 8 8 4 r 8 r g.f.P f.",
"O 0 0 4 ; B G m ; d x 9 @ p r r % d g 0 2 x M k - d B t 3 x b a % h x a 2 z M d 4 C 6.d 3 B m m 2 C K a 8 y.h.M > v B a 8 K P | ",
"o - - 2 A q.<.Y 3 x x k.t - - - O - ; - M G @.W 3 B B k.u - 3 3 @ > 3 - b Y Y M 0 y.8.P.z - 2 2 @ 2 6 4 j.G.G.x.3 C Q m.z 4 8 8 ",
"n.m.n.1.q.q.g.=.3 v V ! u./ :.q.6.b.j./ @.W P Z 4 V B V y.q./ 8.j.=.8.P =.Y <.M q k.1.k.J.N.b.A.A.A.S.Z.A.m.i.j.8 6.6.{ N.m.m.m.",
"k.m.b.h.h.k.a.<.3 B G N B G / / K 1.<.6.P W | M 4 C C G B ' =.{ { { q.@.g.O.<.Z 0 i.j.m.m.S.A.b.S.A.A.S.N.Z.A.b.9 8.6.z.y.y.n.z.",
"b.h.b.b.k.h.b.g.8 B B B G ' 6.Q G G =.=.W @.@.Z 4 B B Y { { @.@.' C j.:.:.@.y.S 0 z.m.m.A.A.Z.S.G.A.A.G.Z.v.D.x.0 y.q.g.b.m.z.b.",
"g.g.h.h.z.b.k.a.4 x N B ' K G ! 8.:.' g.@.@.@.S 3 V B ' G :.K j.g.g.8.{ :.@.Y S t z.m.A.Z.Z.A.G.G.L.K.m.m.A.F.h.0 u.i.@.5.k.m.g.",
"q.z.z.z.k.k.h.O.3 v C G / =.K ' =.=.:.8.@.W G P 4 C M ! G Y Y / g.y.=.{ =.@.Y Z 0 m.m.S.m.Z.S.G.J.G.L.G.V.Z.A.d.8 u.y._ i.h.k.g.",
"m.b.j.k.j.q.v.p.2 M B ) =.' M G @.=./ G <.P P Z 3 M M C Y ' ' @.g.g.q./ =./ <.W r m.z.m.H.M.G.J.A.S.G.B.A.Z.b.x.8 { @.y.k.k.k.k.",
"z.b.b.b.x.g.g.f.3 V C M Y g.=.:.@.1.1.! ! @.P M 4 v B G / =.@.j.g.f.:.{ =.:.g.| r k.z.M.N.Z.A.n.A.G.G.A.A.A.B.f.8 6.:.y.y.6.z.b.",
"8.@.Y y.j.7.g.D 3 M B V G M B M M M m G @.S Y M 3 B M ! M M M W G B M Y =.G G Z 0 i.z.m.J.h.h.j.g.x.z.M.F.v.x.f.8 { Y { h.W { 6.",
"- 9 8 2 Y g.q.<.3 v B ! 8 3 8 3 @ 3 3 - v / G b 2 B B W 8 3 9 2 @ 3 3 - M W B M 9 i.k.h.u 2 8 2 - 8 8 3 a.Z.Z.h.4 K Y :.t 8 t 8 ",
"; B C N 2 a z a @ 9 r 3 9 =.@.Z ; z B B - t p e + 0 u 4 8 G M z # s d d - p a r - V V 0 - d z p 2 N Q B 3 M m b # u a 6 r X.=.d.",
"- N B 8.8.9 r p 8 8 0 9 G S G m ; z g G K 8 8 0 4 9 8 0 B M B b @ a u b b 3 6 8 3 3 6 8 d z z p > N b 8.' 8 r t 8 r u t @.@.Z | ",
"; M G / 7.y.y.h.y.y.h.q.] { ' b - x v v ! 8.q.=.q.j.@.=.G W W M % z a d x M m M V M M M v z b z 3 ! B M y.k.z.z.g.q.j.j./ P S | ",
"; M K =.:.C _ / Y / 8.Y q.Y :.V > M b m V C Y G M W / G W P Z z # d d d x z z z z x x v v m b z 3 _ C ! K ! _ y.C B / =./ M Y | ",
"> K =.@.=.] 7.y.j.g.k.j.r.! @.P > B v M W C C { V x N @.B b Z b % t a z x x z v x a b m b b b i 3 B K ) ' ' / @.Y :.y.{ =.@.1.| ",
"; C / ! ' =.=.1.8.q.j.:./ ' 1.P > B B B M V C Y B C / V B m W b # a t d z x b m z j x x M m b p 3 C G C ' / ' :.g.:.! { g.@.1.,."
};
