/* XPM */
static char *wall17209770081720977098[] = {
/* columns rows colors chars-per-pixel */
"64 64 34 1 ",
"  c #3E0515",
". c #5E0B0D",
"X c #420614",
"o c #450A15",
"O c #4A0D15",
"+ c #4E1115",
"@ c #511215",
"# c #571815",
"$ c #581815",
"% c #640D0D",
"& c #680F0C",
"* c #66100D",
"= c #6A120C",
"- c #70160C",
"; c #71180C",
": c #7E270F",
"> c #7D2611",
", c #7F2811",
"< c #83270F",
"1 c #86290F",
"2 c #8A2C0F",
"3 c #913D0F",
"4 c #802710",
"5 c #852B11",
"6 c #8C2F11",
"7 c #8E3110",
"8 c #843A12",
"9 c #8B3E12",
"0 c #903410",
"q c #913E10",
"w c #8E4112",
"e c #924312",
"r c #994611",
"t c #994811",
/* pixels */
"rtreettettetteO Oetttretetteo&rrrreO o7rrrrrrtre*o.o X Oetetetet",
"777777777767804O97777777077656777775o.9760077777e=%.%Xo977777777",
"577766667667665Ow7666666666677666676oo-66666776600&=q*Oe77776677",
"777777777676605O67677676777766767675o466677776776-=q05o477777777",
"777767766666675O00776677666776776676o&77666677767ee775X+e7676676",
"67776667777676%O67777666676766767667oo5766666666777675O977677667",
"77777777661&1&.o566666**6677776&5775oX66=66677777775=4O5777e6775",
"55555555&&%X%.XXo.o.%.  $*55564o%54o  %4O4$55565655%oX o464Oo55o",
"++OOO+OoXXOooooo OooOOOoOOXXoOOooOOXOoOOOOOO+Oo oOOOOoooOOOo  oo",
"wwweqe9O O9e9+ww+9eeeeeew9O O9eereeeeewwwrewe9O O9eeeeeeweewO Ow",
"70000008O9000w00e0007777775O90777r777r0077r7775O90777r77770t5o,9",
"6666666&Oq76606676666677776Oe766777777667677675+e767777677676O57",
"7777666%oe76667666766767775Oe777777766667766675Oe777766777675O57",
"7766606%oe06776666767676775Oe767776677777676775Ow767776666676o57",
"6667665.Oe77667767666766776Oe767767666667666776O6766766766776O66",
"766666*oo5777666767765*5674O57777766776*667667>O5777777677565o47",
"555*4&.X o5665%%5655%o .%%o o46565*5664o%55**4o o>65665*54o$o O4",
"++OoOOOoooOoo OOOo+OoooOoooooOOoXoO+oOOooOOoOOoooOOo o OOOoOoooO",
"qweeeeeeee9O O9e8+8reeeereeree9O O9eeeeeeeeeeeeeee9O  O9ewreeeee",
"700r77r07075O900760rr0r077777775+877077777r0rr777775oOw070t77777",
"666766766675+e766767767666666665Oe766676777776767675+97766767766",
"777677667675Oe767676776776677675+8-67676776766677675+97777677777",
"767777766665Oe777767677667766666oO567676666677776775oo6767766776",
"66666666666Ooe766676676666677666o.5=577667776666=566oo6666766766",
"70677777775.o5767767777776=56665oX*5=56676566677e-*5O45677777777",
"5555556555*X O5665566556564Oo55O  o4O.O46$o.&55678o  o O55556555",
"O+++OOO+O+OooXoooooXoooooooXXooooo o ooO+oooooOOO+ooOoooOOooXOOO",
"weeqeeeqeeqeq&%.%o o%%%.%%%%%%%&eqO Oqeeeeeeqreeewreewewe9O O9re",
"0rr007770r07766674O9766666666666704Oq0707tt77r7777r77777775O9070",
"660676666766777676Oe777766776676775Oe7676677777676776677775Oe777",
"766677777677766664Oe776666666666675Oe7677667777677777777775Oe767",
"67777776677667776ooe076776676666676+87677767777667776777776O9767",
"77776666667766672%oe7666<-666676775oO6666676676666667676771XO676",
"77777778067266-22<O5762&&277066666%o4777777777766660777625&X.277",
"45241211562255>%%o o4&%X%&5554O>%.X o55655555564.O465555&%X X%<5",
"OOOOOoO+OXoXOOOOooooOooXXXOOoOoOoooooXoXOOO+OOOOOXOO+XoXoOXooOXO",
"eewe8+9e9O O9eeeeeeeee9O O9eeqeeeeee9O O9wweeeeqeeee9o Oweewew+9",
"0706#97774O90770t0770004o900070r77r075O907rtr0r0770775O900tt07w0",
"7276w72775+w766672776666Oe066666767666O966770776666775+w76772677",
"7777777771+w067667776675Oe067776776666o+67767766767675Ow76677767",
"7676677675Ow066772777675Oe066677667675O877767777677675Ow77676777",
"7767776675O5766677666675O5666667776675oO55676767666674Oe77762726",
"6666666676O5766@42777775O5670666767676o ++666666676605O577667777",
"7777777774O,0679@*267704O>+566776=5775O.9q76766666672%X%27776227",
"55555656,o O46588XX*564o oX%&%554X%55o o*66565565%O5*X o>=54%%&5",
"++OXOoXX+OXOXooo+OoOOOOOooooXXoOOOO+OoooXoXoXoOooXXoXXOoOOO+OoXo",
"ee9+8+oO8erwO  +wweewewreee9O Owweeeqeq*%%XXo%%%%%&%%*wreeeer9O ",
"07767eew#7704Owt777077tt07004Ow0770r007665ooq765222626777777704o",
"66676770e6676Oe06666667757675+e766676667775Oe767777777757766675o",
"7776766676675Oe76677776677665Ow067767677775Ow767626675776776775o",
"6766777667675Oe76776777767774+w767777766676oo67777777777676666O ",
"6766666666775O567666677662726O5766666667764o%67766667777667666%X",
"777777870665*o%6277677675=<=<O,7777777765%oo577777777777665=574O",
"5556655555%%X X.&<225565&o%XX O,5555555%.XX o555565555555&.X%4O ",
"OoOX oOOOOooooXXXooXoooo  X Xoo+oOOOOOOoooooXoXXoOOOOOOOOooooOXo",
"9+8O Oww9eewr9&%%%%%&.X o&&%*3eweeweweeweeeewO O9eeeewwe9eeeweee",
"7604o900000007666656<=%O8616670r777777770r0605Ow070rr777000070r0",
"6776Oe06666666667766;qqo+677766777667777666665Oe7667767666666666",
"7675Oe06660667666667q06O976667667777777776-565Oe7776767760666066",
"6605Oe06666676767667075O976766777767666767q=O>Oe7767776666666667",
"7665Oe76766667666776665oo666766666666667660q%ooq7677666666666676",
"65%Xo5762777776=O56666%XX606677777667677665=..o%6661&&2277760667",
"%oXXXo51&1656668%XO>&%X X565&55665655555&%XXXX o4&&%o.%o511655&6",
"X  XXXXoXooXXoooX XoXXXXXoXXXXooooooooooXXXXXoXXoXXXXXXXooooXoXo"
};
