/* XPM */
static char *_1725734480[] = {
/* columns rows colors chars-per-pixel */
"64 64 206 2 ",
"   c None",
".  c #503A50",
"X  c #513B50",
"o  c #523B50",
"O  c #513C51",
"+  c #523C50",
"@  c #523C51",
"#  c #533C52",
"$  c #543C51",
"%  c #553E51",
"&  c #543D53",
"*  c #573C53",
"=  c #553D54",
"-  c #563E55",
";  c #5C3B50",
":  c #583C52",
">  c #5B3C53",
",  c #5C3C52",
"<  c #5C3C53",
"1  c #5A3D54",
"2  c #613A50",
"3  c #6D3A51",
"4  c #6E3A50",
"5  c #733A50",
"6  c #723A51",
"7  c #7B3F5A",
"8  c #7D3F59",
"9  c #7C3F5A",
"0  c #5D4350",
"q  c #5B405A",
"w  c #5D4059",
"e  c #5C415B",
"r  c #5F405B",
"t  c #5A4658",
"y  c #5B4659",
"u  c #5D425C",
"i  c #5E4C5B",
"p  c #7D404E",
"a  c #60435F",
"s  c #604B5D",
"d  c #614E5D",
"f  c #73425E",
"g  c #72425F",
"h  c #75415D",
"j  c #76415D",
"k  c #79405B",
"l  c #7A405B",
"z  c #78405C",
"x  c #7A545E",
"c  c #7E565F",
"v  c #614360",
"b  c #614460",
"n  c #624461",
"m  c #634462",
"M  c #634562",
"N  c #634563",
"B  c #644663",
"V  c #654564",
"C  c #664665",
"Z  c #6E4361",
"A  c #694563",
"S  c #6A4563",
"D  c #6D4461",
"F  c #654F62",
"G  c #6A4E68",
"H  c #635260",
"J  c #665562",
"K  c #665663",
"L  c #675763",
"P  c #695965",
"I  c #6B5C67",
"U  c #6B5069",
"Y  c #6D536B",
"T  c #6F606A",
"R  c #73656D",
"E  c #75676F",
"W  c #75686F",
"Q  c #766470",
"!  c #766970",
"~  c #776871",
"^  c #786B72",
"/  c #7C6C75",
"(  c #7D6F77",
")  c #7E7077",
"_  c #7D7276",
"`  c #7F7278",
"'  c #E33B3B",
"]  c #E43C3C",
"[  c #E63D3C",
"{  c #E73E3D",
"}  c #E9403C",
"|  c #ED433E",
" . c #EE453E",
".. c #F1473F",
"X. c #F2483F",
"o. c #F2493F",
"O. c #F14A3E",
"+. c #ED513B",
"@. c #EE523B",
"#. c #F0553C",
"$. c #F2593C",
"%. c #FA5C3E",
"&. c #FA5F3E",
"*. c #FD5F3F",
"=. c #F7613C",
"-. c #F8623D",
";. c #FA623D",
":. c #FF613F",
">. c #FF623F",
",. c #FF653E",
"<. c #FF643F",
"1. c #FF653F",
"2. c #FF663E",
"3. c #FF673E",
"4. c #F96D3A",
"5. c #FF683E",
"6. c #FF6C3D",
"7. c #FF743B",
"8. c #FF753B",
"9. c #FF763B",
"0. c #FF793A",
"q. c #FF7B3A",
"w. c #FF7A3B",
"e. c #FF7F3B",
"r. c #873B49",
"t. c #9D3C45",
"y. c #8B3A52",
"u. c #8D3951",
"i. c #8F3950",
"p. c #8E3951",
"a. c #84404E",
"s. c #9F464B",
"d. c #9A4755",
"f. c #8D5155",
"g. c #87515C",
"h. c #8D555A",
"j. c #81595D",
"k. c #865C5F",
"l. c #8A5F5C",
"z. c #9C5F59",
"x. c #A2404E",
"c. c #A4414E",
"v. c #AC4348",
"b. c #A8434D",
"n. c #AD444D",
"m. c #A14853",
"M. c #A04854",
"N. c #AD5054",
"B. c #BC5453",
"V. c #8F6450",
"C. c #976951",
"Z. c #90635A",
"A. c #9F6C5B",
"S. c #A36056",
"D. c #A56357",
"F. c #A66657",
"G. c #AA6754",
"H. c #855363",
"J. c #865564",
"K. c #805860",
"L. c #9D6C64",
"P. c #807578",
"I. c #807679",
"U. c #82787B",
"Y. c #82797B",
"T. c #83797B",
"R. c #827A7B",
"E. c #83787C",
"W. c #A37064",
"Q. c #F54B40",
"!. c #F64D40",
"~. c #F74D40",
"^. c #E35F45",
"/. c #FC5241",
"(. c #FE5342",
"). c #FF5441",
"_. c #FF5541",
"`. c #FF5741",
"'. c #FF5442",
"]. c #FF5542",
"[. c #FF5642",
"{. c #FF5841",
"}. c #FF5C40",
"|. c #FF5F40",
" X c #C96248",
".X c #CA7C55",
"XX c #DF7F53",
"oX c #FF6540",
"OX c #FF6D44",
"+X c #E07043",
"@X c #FF7346",
"#X c #FF813C",
"$X c #C38551",
"%X c #CE8C51",
"&X c #D59151",
"*X c #E98344",
"=X c #F58746",
"-X c #FF8747",
";X c #FF9341",
":X c #FF9442",
">X c #FF9743",
",X c #FFA545",
"<X c #FFB048",
"1X c #FFBF4C",
"2X c #FFCB50",
"3X c #FFCC50",
/* pixels */
"                                                                                                                                ",
"                                                                                                                                ",
"                                                                                                                                ",
"                                                                                                                                ",
"                                                                                                                                ",
"                                                                                                                                ",
"                                                              [.                                                                ",
"                                                              5.[.                                                              ",
"                                                              >X2.                                                              ",
"                                                              2X;X                                                              ",
"                                                            @X2X2XOX                                                            ",
"                                                            oXq.q.w.>.                                                          ",
"                                                          #.9.w.q.q.9.$.                                                        ",
"                                                        o.>.9.>.@.@.4.;.Q.]                                                     ",
"                                                        o.|.>.[.Q.] @.=.%. .                                                    ",
"                                                       .o.[.[.>.>.O. .=.5.[.                                                    ",
"                                                      /.'.{.2.w.w.oX[.oX2.[.                                                    ",
"                                                    ] ~.[.oXq.q.w.#X2.[././.                                                    ",
"                                                    ] ~.5.w.w.q.w.1X;XoXQ.]                                                     ",
"                                                      } =X,X+Xg.g.*X<X-X~.]                                                     ",
"                                                      r. XXXL.C M W..X^. .                                                      ",
"                                                      + s.B.H.7 9 J.N.v.t.                                                      ",
"                                                      + r.x.i.i.i.i.c.p +                                                       ",
"                                                      + 6 p.i.i.i.p.p.4 +                                                       ",
"                                                      X 6 p.i.i.i.i.p.4 .                                                       ",
"                                              &X$X+ X X a z i.i.i.i.j e . + 0 %X&X                                              ",
"                                              K.x X X C.l.A 7 p.i.j S Z.V.X % c K.                                              ",
"                                              C M X e j.A.D.M.n.n.m.F.G.f.e X C C                                               ",
"                                              C M X M C K.S.d.n.c.n.S.h.f v X C C                                               ",
"                                              C n X M C D g l p.p.p.9 f Z v X M C                                               ",
"                                                  t M C l p.p.p.i.i.p.y.9 v X                                                   ",
"                                                  T.G C a.p.p.p.i.i.p.7 C v %                                                   ",
"                                                  T.y a 9 i.p.p.i.i.p.7 C U _                                                   ",
"                                                  T.^ s ; 2 2 2 2 2 2 > F ( T.                                                  ",
"                                                  T.T.E i X & u e % X d ! T.T.                                                  ",
"                                                  T.T.T.L X - C C - X I T.T.T.                                                  ",
"                                                  T.T.T.H X 1 f g % X K T.T.T.                                                  ",
"                                                        . X 2 p.p.; X                                                           ",
"                                                        X X 2 p.p.; X                                                           ",
"                                                        X % 2 p.p.; X                                                           ",
"                                                        ! K 2 p.i.> P                                                           ",
"                                                        E.I < z 7 > R                                                           ",
"                                                        E.I - C C % R                                                           ",
"                                                        E.R - C C - R                                                           ",
"                                                        T.T - C C - R                                                           ",
"                                                        T.T - C C = R                                                           ",
"                                                        E.` Q C C Q I.                                                          ",
"                                                        T.T./ C C ( T.                                                          ",
"                                                          T./ C C ( T.                                                          ",
"                                                            / C C `                                                             ",
"                                                            ( Y Y `                                                             ",
"                                                            T.T.T.T.                                                            ",
"                                                            T.T.T.T.                                                            ",
"                                                            T.T.T.T.                                                            ",
"                                                            T.T.T.T.                                                            ",
"                                                            T.T.T.T.                                                            ",
"                                                              T.T.                                                              ",
"                                                              T.T.                                                              ",
"                                                              T.T.                                                              ",
"                                                              T.T.                                                              ",
"                                                              T.T.                                                              ",
"                                                              T.T.                                                              ",
"                                                              T.T.                                                              ",
"                                                              T.T.                                                              "
};
