/* XPM */
static char *item_xpm[] = {
"32 64 11 1",
"  c None",
". c #e43c3c",
", c #ff5442",
"- c #ff7b3a",
": c #ffd452",
"+ c #bf4b4b",
"; c #513b50",
"= c #83797b",
"! c #8f3950",
"? c #d59151",
"[ c #664665",
/* pixels */
"                                ",
"                                ",
"                                ",
"                                ",
"                                ",
"                                ",
"                                ",
"                                ",
"                    .           ",
"               ,                ",
"              -.                ",
"             --                 ",
"             :-                 ",
"            ,:.                 ",
"            :-     .            ",
"            --     -            ",
"           .-,    ::,           ",
"           ,,,.  ,--:,          ",
"           ,,-,..,,---          ",
"           ,,,--,,..,:          ",
"           ,.,-:::,..-,         ",
"           ,.,,-:--,.,,         ",
"            ..,,,,+; .,         ",
"            ;+.,.=+;  .         ",
"            ;+!!!!+;            ",
"            ;!!!!!!;            ",
"            ;!!!!!!;            ",
"        ??;;;[!!!![;;;??        ",
"        [[;;?[[!![[?;;[[        ",
"        [[;[[?++++?![;[[        ",
"        [[;[[[[!!![[[;[[        ",
"          ;[[!!!!!!![;          ",
"          =[[!!!!!![[;          ",
"          =;[!!!!!![[=          ",
"          ==;;;;;;;;==          ",
"          ===;;[[;;===          ",
"          ===;;[[;;===          ",
"             ;;!!;;             ",
"             ;;!!;;             ",
"             ;;!!;;             ",
"             =;!!;=             ",
"             =;[[;=             ",
"             =;[[;=             ",
"             =;[[;=             ",
"             =;[[;=             ",
"             ==[[==             ",
"             ==[[==             ",
"              =[[=              ",
"              =[[=              ",
"              ====              ",
"              ====              ",
"              ====              ",
"              ====              ",
"               ==               ",
"               ==               ",
"               ==               ",
"               ==               ",
"               ==               ",
"               ==               ",
"               ==               ",
"                                ",
"                                ",
"                                ",
"                                ",
"};