/* XPM */
static char *_1725734480[] = {
/* columns rows colors chars-per-pixel */
"64 64 248 2 ",
"   c None",
".  c #513B50",
"X  c #513B51",
"o  c #553B50",
"O  c #573B50",
"+  c #523C51",
"@  c #533C51",
"#  c #523D51",
"$  c #533D51",
"%  c #533D52",
"&  c #543C52",
"*  c #543E52",
"=  c #543F53",
"-  c #563D55",
";  c #563E55",
":  c #573E55",
">  c #573E56",
",  c #583E55",
"<  c #583F57",
"1  c #593F58",
"2  c #613A50",
"3  c #603B50",
"4  c #613B50",
"5  c #693E57",
"6  c #663F59",
"7  c #6B3F58",
"8  c #783A50",
"9  c #7B3A50",
"0  c #554054",
"q  c #584356",
"w  c #594557",
"e  c #5A4159",
"r  c #5B405A",
"t  c #5C415B",
"y  c #5A4658",
"u  c #5D425C",
"i  c #5E425D",
"p  c #5F425E",
"a  c #5E465C",
"s  c #5D495A",
"d  c #664950",
"f  c #674857",
"g  c #6B4C50",
"h  c #67405A",
"j  c #694958",
"k  c #68495D",
"l  c #73425E",
"z  c #72425F",
"x  c #78405C",
"c  c #71485A",
"v  c #654565",
"b  c #664565",
"n  c #654664",
"m  c #664664",
"M  c #664665",
"N  c #674665",
"B  c #6E4361",
"V  c #6F4361",
"C  c #684461",
"Z  c #694462",
"A  c #694563",
"S  c #6A4563",
"D  c #6D4461",
"F  c #6C4462",
"G  c #694564",
"H  c #6D4B63",
"J  c #694864",
"K  c #6A4864",
"L  c #6B5C67",
"P  c #6D536B",
"I  c #6D546A",
"U  c #6E556B",
"Y  c #6D5E68",
"T  c #7F5860",
"R  c #7F5861",
"E  c #70576C",
"W  c #71596D",
"Q  c #6F606A",
"!  c #72606D",
"~  c #74606F",
"^  c #72646D",
"/  c #75676F",
"(  c #756070",
")  c #766171",
"_  c #796773",
"`  c #7B7075",
"'  c #7C7175",
"]  c #7D7275",
"[  c #7D7176",
"{  c #7E7276",
"}  c #7E7377",
"|  c #7F7476",
" . c #7F7477",
".. c #DB3C3D",
"X. c #E43B3B",
"o. c #E33D3D",
"O. c #E53D3C",
"+. c #E73E3C",
"@. c #E73E3D",
"#. c #E6413C",
"$. c #E7443C",
"%. c #E9403D",
"&. c #EA433D",
"*. c #ED443E",
"=. c #E74C3E",
"-. c #E9483C",
";. c #EA493C",
":. c #EE4E3C",
">. c #F2493F",
",. c #F34C3F",
"<. c #ED513B",
"1. c #EE543B",
"2. c #F3553D",
"3. c #F25C3B",
"4. c #FC5D3F",
"5. c #F4623B",
"6. c #FF613F",
"7. c #FF623F",
"8. c #FF643F",
"9. c #FF673F",
"0. c #F36B3E",
"q. c #FA6B3B",
"w. c #FE6B3D",
"e. c #FF6B3D",
"r. c #FD753A",
"t. c #FF743B",
"y. c #FF773B",
"u. c #FF703C",
"i. c #FF723C",
"p. c #FF7B39",
"a. c #FE783A",
"s. c #FF793A",
"d. c #FF7A3A",
"f. c #FF7B3A",
"g. c #FF7B3B",
"h. c #FF7C3A",
"j. c #FF7A3C",
"k. c #FE7F3C",
"l. c #91394F",
"z. c #9A394D",
"x. c #99394E",
"c. c #833D56",
"v. c #853C55",
"b. c #863C54",
"n. c #883A51",
"m. c #8A3A51",
"M. c #883B53",
"N. c #8A3B53",
"B. c #8D3951",
"V. c #8E3950",
"C. c #8F3950",
"Z. c #8C3A52",
"A. c #883B54",
"S. c #993D51",
"D. c #A93A4A",
"F. c #C13B42",
"G. c #C93D40",
"H. c #C83C43",
"J. c #80445A",
"K. c #80495F",
"L. c #9F5156",
"P. c #985158",
"I. c #A8434D",
"U. c #AD444D",
"Y. c #BF4546",
"T. c #A14551",
"R. c #A74650",
"E. c #A74B50",
"W. c #A05356",
"Q. c #AA5E51",
"!. c #A4575E",
"~. c #A4585E",
"^. c #8D6250",
"/. c #936651",
"(. c #92645D",
"). c #9C6A5B",
"_. c #9F6C5A",
"`. c #AD7753",
"'. c #A87359",
"]. c #AA7358",
"[. c #B17952",
"{. c #805860",
"}. c #807578",
"|. c #807479",
" X c #83797A",
".X c #82787B",
"XX c #82797B",
"oX c #83797B",
"OX c #84787B",
"+X c #84797B",
"@X c #83797C",
"#X c #C04047",
"$X c #C44F4A",
"%X c #D84041",
"&X c #D05B43",
"*X c #E64D44",
"=X c #F14A40",
"-X c #F64C40",
";X c #F64E40",
":X c #F65440",
">X c #F85140",
",X c #FF5341",
"<X c #FD5242",
"1X c #FE5342",
"2X c #FF5342",
"3X c #FE5541",
"4X c #FF5641",
"5X c #FF5442",
"6X c #FF5542",
"7X c #FF5642",
"8X c #FF5A41",
"9X c #FF5942",
"0X c #FF5943",
"qX c #FF5D40",
"wX c #FF5F40",
"eX c #C2665E",
"rX c #FF6442",
"tX c #FF6940",
"yX c #FF6B44",
"uX c #FF6A46",
"iX c #FF7740",
"pX c #FF803B",
"aX c #FF813C",
"sX c #FF823C",
"dX c #FF883D",
"fX c #FF8A3E",
"gX c #D59151",
"hX c #FF8648",
"jX c #FF8C49",
"kX c #FF9040",
"lX c #FF9240",
"zX c #FF9341",
"xX c #FF9843",
"cX c #FF9943",
"vX c #FF9B43",
"bX c #FFA044",
"nX c #FFA246",
"mX c #FFBC4C",
"MX c #FFBE4C",
"NX c #FFBE4E",
"BX c #FFC44E",
"VX c #FFC64E",
"CX c #FEC850",
"ZX c #FFCA50",
"AX c #FFCC50",
"SX c #FECE51",
"DX c #FFD251",
"FX c #FFD052",
/* pixels */
"                                                                                                                                ",
"                                                                                                                                ",
"                                                                                                                                ",
"                                                                                                                                ",
"                                                                                                                                ",
"                                                                                                                                ",
"                                                                                                                                ",
"                                                                                                                                ",
"                                                                      hXyX                                                      ",
"                                                            p.e.<X    FXjX                                                      ",
"                                                          a.a.a.    0XmXFX                                                      ",
"                                                        4Xt.rX4X    0Xj.MXnXp.                                                  ",
"                                                      @.<X8X        %.r.dXsXa.                                                  ",
"                                                      ;Xe.8X      o.X.4.r.5.2.                                                  ",
"                                                      8XnXiX      @.=X<XrX2.                                                    ",
"                                                      tXZXlX    o.%.4XrX,.                                                      ",
"                                                      pXAXlXe.%.#.<.wXq.;.                                                      ",
"                                                    ;.pXVXlXe.=X1.p.j.$.X.                                                      ",
"                                                    ;.a.sXmXcXa.a.kXZX=.                                                        ",
"                                                    ;.a.wXyXrXe.kXBXAX=.                                                        ",
"                                                      rX4XeX~.$X0.cXxX:X                                                        ",
"                                                      7X4X~.K.x.Y.&X3.4X                                                        ",
"                                                      ;X<XF.z.C.C.z.H.=X*.                                                      ",
"                                                      H.*X%XD.C.C.x.z.D...                                                      ",
"                                                      o N.C.C.C.C.C.N.O                                                         ",
"                                            gXgX/.. . @ C c.C.C.Z.N.A & . . ^.gXgX                                              ",
"                                            T T j . d [.H B c.C.v.B K `.g . f {.R                                               ",
"                                            M M t - k (.'.W.R.U.I.L.].Q.c - r M M                                               ",
"                                            M M t < M K ).P.T.I.I.E._.x B - r M M                                               ",
"                                            M M 1 < M M l l v.C.l.Z.l l A r r M M                                               ",
"                                                  a M G N.C.C.C.C.C.l.N.B q X                                                   ",
"                                                  _ M A Z.C.C.C.C.C.Z.G M r @                                                   ",
"                                                  ^ < A N.C.C.C.C.C.C.A M ~ {                                                   ",
"                                                  { Q - 4 4 4 3 4 4 4 < !  .XX                                                  ",
"                                                  XX| Y @ . - p r . @ L { XXXX                                                  ",
"                                                  +XXX}.0 . p M p . @ { +XXXXX                                                  ",
"                                                  XXXX{ 0 . 6 l h . @ ` XXXX                                                    ",
"                                                        . . 8 C.9 . @                                                           ",
"                                                        . . 8 C.9 . .                                                           ",
"                                                        . . 8 C.9 . .                                                           ",
"                                                        / w 8 C.9 0 /                                                           ",
"                                                        +Xs 5 x 7 y @X                                                          ",
"                                                        XXs p M a y XX                                                          ",
"                                                        +Xs p M n y +X                                                          ",
"                                                        XXs p M 1 y XX                                                          ",
"                                                        XXs p M n y +X                                                          ",
"                                                        XX{ I G P { }.                                                          ",
"                                                        XXXXW M I XXXX                                                          ",
"                                                          +XW M E XX                                                            ",
"                                                          @XW M E +X                                                            ",
"                                                          @X) P ~ +X                                                            ",
"                                                          @XXX+XXX+X                                                            ",
"                                                          @X+XXX+XXX                                                            ",
"                                                          @XXX+XXX+X                                                            ",
"                                                          @X+XXXXX+X                                                            ",
"                                                            XX+X+X                                                              ",
"                                                            OXXXXX                                                              ",
"                                                            OX+X+X                                                              ",
"                                                            OXXXXX                                                              ",
"                                                            OX+X+X                                                              ",
"                                                            +XXXXX                                                              ",
"                                                            OX+X+X                                                              ",
"                                                            +XXXXX                                                              ",
"                                                              +X                                                                "
};
