/* XPM */
static char *_1725734479[] = {
/* columns rows colors chars-per-pixel */
"64 64 235 2 ",
"   c None",
".  c #513B4F",
"X  c #503A50",
"o  c #513A50",
"O  c #513B50",
"+  c #513B51",
"@  c #523B50",
"#  c #523C50",
"$  c #523C51",
"%  c #533D51",
"&  c #533C52",
"*  c #543D53",
"=  c #573C53",
"-  c #553E52",
";  c #553D54",
":  c #573E56",
">  c #5C3B50",
",  c #583C52",
"<  c #5B3C53",
"1  c #5C3C52",
"2  c #5A3D54",
"3  c #613A50",
"4  c #6D3A51",
"5  c #6E3A50",
"6  c #733A50",
"7  c #723A51",
"8  c #7D3F59",
"9  c #7F3E58",
"0  c #7E3E59",
"q  c #5D4350",
"w  c #5B405A",
"e  c #5D4059",
"r  c #5C415B",
"t  c #5F405B",
"y  c #5B4658",
"u  c #5D425C",
"i  c #5F425E",
"p  c #5E4B5B",
"a  c #5F4B5C",
"s  c #7D404E",
"d  c #614C5F",
"f  c #614F5E",
"g  c #73425E",
"h  c #72425F",
"j  c #75415D",
"k  c #76415D",
"l  c #79405B",
"z  c #78405C",
"x  c #63515F",
"c  c #7A545E",
"v  c #7D565D",
"b  c #7E565F",
"n  c #614360",
"m  c #624461",
"M  c #634462",
"N  c #634562",
"B  c #634563",
"V  c #634662",
"C  c #654564",
"Z  c #664665",
"A  c #6F4360",
"S  c #694563",
"D  c #6A4563",
"F  c #6C4462",
"G  c #634E60",
"H  c #6A4D68",
"J  c #665562",
"K  c #665763",
"L  c #675763",
"P  c #695965",
"I  c #6C5C67",
"U  c #6C526A",
"Y  c #6D536B",
"T  c #6F6069",
"R  c #73656D",
"E  c #75666F",
"W  c #75676F",
"Q  c #756470",
"!  c #776871",
"~  c #776A70",
"^  c #796D72",
"/  c #7B6C75",
"(  c #7D6E76",
")  c #7D6F77",
"_  c #7E7077",
"`  c #7D7276",
"'  c #7F7278",
"]  c #E43B3B",
"[  c #E33C3C",
"{  c #E33D3D",
"}  c #E43C3C",
"|  c #E53D3C",
" . c #E73E3D",
".. c #E73F3D",
"X. c #E73F3E",
"o. c #E7423C",
"O. c #E8403D",
"+. c #E9403D",
"@. c #EA413D",
"#. c #EA423D",
"$. c #E8453C",
"%. c #ED443E",
"&. c #EE453E",
"*. c #EE473E",
"=. c #F0463F",
"-. c #F1473F",
";. c #F44C3F",
":. c #EE533B",
">. c #F5563E",
",. c #FF5B3F",
"<. c #FB5E3E",
"1. c #F6663B",
"2. c #F4623C",
"3. c #F8663B",
"4. c #FC603E",
"5. c #FF613F",
"6. c #FE673E",
"7. c #FA6F3B",
"8. c #FF683E",
"9. c #FF693E",
"0. c #FF6C3D",
"q. c #FF703C",
"w. c #FF743E",
"e. c #FF7A39",
"r. c #FD783A",
"t. c #FE783A",
"y. c #FF783B",
"u. c #FF7B3A",
"i. c #FF7C3B",
"p. c #FF7D3B",
"a. c #FF7E3B",
"s. c #863B4A",
"d. c #8D3951",
"f. c #8F3950",
"g. c #8E3951",
"h. c #8C3A52",
"j. c #BC3C46",
"k. c #BD3D46",
"l. c #80404C",
"z. c #85404E",
"x. c #84424E",
"c. c #8E444D",
"v. c #994855",
"b. c #895E5C",
"n. c #935354",
"m. c #96515D",
"M. c #90595A",
"N. c #A74047",
"B. c #A2404E",
"V. c #A4414E",
"C. c #A8434D",
"Z. c #AD444D",
"A. c #A64C4A",
"S. c #BD4649",
"D. c #A14853",
"F. c #A04854",
"G. c #A95156",
"H. c #A45C55",
"J. c #B95856",
"K. c #8F6350",
"L. c #986951",
"P. c #90635A",
"I. c #9D6259",
"U. c #9D6B5B",
"Y. c #A56357",
"T. c #A66657",
"R. c #AA6955",
"E. c #805860",
"W. c #815960",
"Q. c #807578",
"!. c #807679",
"~. c #83787A",
"^. c #83797A",
"/. c #82787B",
"(. c #82797B",
"). c #83797B",
"_. c #83787C",
"`. c #C74649",
"'. c #D74543",
"]. c #F64C40",
"[. c #F94E41",
"{. c #F94F41",
"}. c #E15844",
"|. c #F35541",
" X c #FB5041",
".X c #FB5141",
"XX c #FC5041",
"oX c #FC5141",
"OX c #FF5341",
"+X c #FF5741",
"@X c #FF5442",
"#X c #FF5542",
"$X c #FB5940",
"%X c #FF5941",
"&X c #FF5B41",
"*X c #FF5D40",
"=X c #FF5E40",
"-X c #FF5F40",
";X c #C0615C",
":X c #FA6042",
">X c #FF6040",
",X c #FF6142",
"<X c #FF6D45",
"1X c #FF7146",
"2X c #FF7246",
"3X c #FF7445",
"4X c #FF803B",
"5X c #FF843C",
"6X c #FF873E",
"7X c #FF883D",
"8X c #C38551",
"9X c #CE8D51",
"0X c #D59151",
"qX c #FF8342",
"wX c #FF8747",
"eX c #FF8E40",
"rX c #FF9742",
"tX c #FF9942",
"yX c #FF9C43",
"uX c #FF9D44",
"iX c #FF9E45",
"pX c #FF9649",
"aX c #F89C48",
"sX c #FFA646",
"dX c #FFA04B",
"fX c #FFA74A",
"gX c #FCAF4B",
"hX c #FFAC4D",
"jX c #FFC04D",
"kX c #FFCA4F",
"lX c #FFCB50",
"zX c #FFCD50",
"xX c #FFCC51",
"cX c #FFCF51",
"vX c #FFD352",
/* pixels */
"                                                                                                                                ",
"                                                                                                                                ",
"                                                                                                                                ",
"                                                                           .                                                    ",
"                                                              @X                                                                ",
"                                                            7.+.                                                                ",
"                                                          t.t.                                                                  ",
"                                                          yXp.                                                                  ",
"                                                        gXgX2.                                                                  ",
"                                                      2XpXaX]                                                                   ",
"                                                      lXfXt.            +.                                                      ",
"                                                      4Xp.t.            t.                                                      ",
"                                                    [ 1.8.<.          zXfX@X                                                    ",
"                                                    ].$X&X[. .      qXtXiXdXoX                                                  ",
"                                                    @X@X-X<.&. . .[.5.q.7XiX6.                                                  ",
"                                                    @X@X<.8.5.:.&..X[.>.3.w.yX                                                  ",
"                                                    @X.XoX5.p.eX3X2X|. .+.:XjX                                                  ",
"                                                    @X&.-.>X6XzXvXzXwX;. .$.y.&X                                                ",
"                                                    @X&.-.@X-X5XlXrXp.6.].+.&XoX                                                ",
"                                                       . .-.@X-X<X>X}.A.l.  +.oX                                                ",
"                                                      s.N.'.-.@X].J.J.c.X     &.                                                ",
"                                                      - x.S.k.`.j.m.G.c.X                                                       ",
"                                                      X s V.f.f.f.f.V.x.X                                                       ",
"                                                      X 5 f.f.f.f.f.f.7 #                                                       ",
"                                                      X 5 f.f.f.f.f.d.7 X                                                       ",
"                                              0X9Xq # X r j f.f.f.f.8 d X X # 8X0X                                              ",
"                                              E.b - X K.P.S j f.f.z D b.L.X X c E.                                              ",
"                                              Z Z # r v U.T.F.Z.Z.F.Y.R.n.u X V Z                                               ",
"                                              Z Z X n Z E.I.v.C.C.V.H.M.j M X M Z                                               ",
"                                              Z Z # n Z F g z f.h.h.h.A A M X M Z                                               ",
"                                                  y V Z l f.f.f.f.f.f.f.0 n #                                                   ",
"                                                  ).U Z l f.f.f.f.f.f.0 Z V -                                                   ",
"                                                  ).u d z f.f.f.f.f.f.l M H (                                                   ",
"                                                  ).^ G 1 3 3 3 3 3 3 1 f Q.).                                                  ",
"                                                  ).).^ f X X u u # + p W ).).                                                  ",
"                                                  ).).).I X : Z Z w + K ).).).                                                  ",
"                                                  )._.!.K # - g g 2 X J ).).).                                                  ",
"                                                          X > f.f.3 X X                                                         ",
"                                                          X > f.f.3 X #                                                         ",
"                                                          X > f.f.3 # X                                                         ",
"                                                          P > f.f.> J Q                                                         ",
"                                                          R : 8 8 2 I ).                                                        ",
"                                                          R : Z Z : R !.                                                        ",
"                                                          R - Z Z 2 T ).                                                        ",
"                                                          R : Z Z : T ).                                                        ",
"                                                          R : Z Z : T ).                                                        ",
"                                                          !.Q Z Z Q ' ).                                                        ",
"                                                          ).' Z Z / ).).                                                        ",
"                                                          ).' Z Z / ).                                                          ",
"                                                            ( Z Z /                                                             ",
"                                                            ' U U _                                                             ",
"                                                            ).).).).                                                            ",
"                                                            ).).).).                                                            ",
"                                                            ).).).).                                                            ",
"                                                            ).).).).                                                            ",
"                                                            ).).).).                                                            ",
"                                                              ).).                                                              ",
"                                                              ).).                                                              ",
"                                                              ).).                                                              ",
"                                                              ).).                                                              ",
"                                                              ).).                                                              ",
"                                                              ).).                                                              ",
"                                                              ).).                                                              ",
"                                                              ).).                                                              "
};
